<svg id="cg143" xmlns="http://www.w3.org/2000/svg" viewBox="0 0 89 89"><style>
    #cg143 {
      overflow: hidden;
    }

    #cg143 .button {
      opacity: 0;
      pointer-events: none;
      transition: 0.2s ease;
      transform: translate3d(0, 20px, 0);
    }

    #cg143 .button.png-wide {
      transition-delay: 0.2s;
    }

    #cg143.menu-in .button {
      opacity: 1;
      pointer-events: auto;
      cursor: pointer;
      transform: translate3d(0, 0, 0);
    }

    #cg143.menu-in .button .button-bg {
      transition: fill 0.2s ease;
    }

    #cg143.menu-in .button:hover .button-bg {
      fill: #FF5FFA;
    }

    #cg143 .cg-glasses {
      transition: opacity 0.2s ease;
    }

    #cg143 #deal-with-it-glasses {
      opacity: 0;
      pointer-events: none;
      transition: opacity 0.2s ease, transform 3s linear;
      transform: translate3d(0, -60px, 0);
    }

    #cg143.deal-with-it #deal-with-it-glasses {
      opacity: 1;
      transform: translate3d(0, 0, 0);
    }

    #cg143.deal-with-it .cg-glasses {
      opacity: 0;
      transition-delay: 2s;
    }

  
      #cg143 .cg-glasses {
        transition: opacity 0.2s ease;
      }

      #cg143.get-time .cg-glasses {
        opacity: 0;
      }
    
    #cg143 .cg-eyes {
      transition: opacity 0.2s ease;
    }

    #cg143.get-time .cg-eyes {
      opacity: 0;
    }
  
    #cg143 .cg-time {
      pointer-events: none;
      transition: opacity 0.2s ease;
      opacity: 0;
    }

    #cg143.get-time .cg-time {
      opacity: 1;
    }

    #cg143 .cg-time .cg-digit-colon {
      animation: cg-colon-blink 1s ease-in-out 0s infinite;
    }

    @keyframes cg-colon-blink {
      20% {
        opacity: 1;
      }
      50% {
        opacity: 0;
      }
      80% {
        opacity: 1;
      }
    }
  
    #cg143 .cg-body {
      animation: cg-anim-hover 1.5s ease-in-out -0.7477s infinite;
      transform-origin: center;
      transform-box: fill-box;
    }

    @keyframes cg-anim-hover {
      0% {
        transform: translate3d(0,0,0);
      }
      50% {
        transform: translate3d(0,-2px,0);
      }
      100% {
        transform: translate3d(0,0,0);
      }
    }
  
    #cg143 .cg-shadow {
      animation: cg-anim-shadow 1.5s ease-in-out -0.7477s infinite;
      transform-origin: center;
      transform-box: fill-box;
    }

    @keyframes cg-anim-shadow {
      0% {
        transform: scale3d(1,1,1);
      }
      50% {
        transform: scale3d(0.9,1,1);
      }
      100% {
        transform: scale3d(1,1,1);
      }
    }
  
      @keyframes cg-anim-rgb {
        0% {
          fill: #FF5F5F;
        }
        11.1111% {
          fill: #FFA45F;
        }
        22.2222% {
          fill: #BAFF5F;
        }
        33.3333% {
          fill: #5FFF74;
        }
        44.4444% {
          fill: #5FFFCE;
        }
        55.5555% {
          fill: #5FD9FF;
        }
        66.6666% {
          fill: #5F6AFF;
        }
        77.7777% {
          fill: #AA5FFF;
        }
        88.8888% {
          fill: #FF5FFA;
        }
        100% {
          fill: #FF5F5F;
        }
      }
    
      #cg143 .rgb-color {
        animation: cg-anim-rgb 5s linear -1.8161s infinite;
      }
    </style><path class="cg-bg" d="M0 0h89v89H0z" fill="#707138"></path><g id="ada-bag"><path opacity=".17" d="M81 74H58v1h24v-1h-1z" id="ada-bag-bottom-shadow"/><path d="M81 62v-1h-1v-1h-1v-2h-1v-1h-2v-1h-1v-1h-2v-2h1v-1h2v-3h-1v-1h-6v3h-1v2h-1v2h-2v1h-2v1h-2v1h-1v2h-1v2h-1v9h1v2h-1v1h24v-1h-1v-2h1v-9h-1z" id="ada-bag-bg"/><path fill="#FF8749" d="M62 58h1v-1h2v-1h2v-1h1v-2h1v-2h1v-2h5v2h-2v2h-1v2h1v1h2v1h1v1h2v2h1v1h1v1h1v9h-1v2H60v-2h-1v-9h1v-2h1v-2h1z" id="ada-bag-colour"/><g fill="#F9F871" id="ada-bag-symbol"><path d="M75 71h1v-2h-1v2zM75 67h1v-1h-2v-2h1v-1h-2v-3h-1v3h-4v-3h-1v3h-2v1h1v2h-2v1h1v2h1v-2h8v2h1v-2zm-3-1h-5v-2h6v2h-1zM71 59h1v1h-1zM64 70v1h1v-2h-1v1zM68 59h1v1h-1zM71 59v-1h-2v1h2z"/></g><path fill="#A16E85" d="M71 53h-1v-1h-1v1h-1v1h1v1h3v-2z" id="ada-bag-tie"/><g fill="#FFC86D" id="ada-bag-highlight"><path d="M69 69h1v1h-1zM61 67h1v1h-1zM77 70h1v1h-1zM78 67h1v1h-1zM77 62h1v1h-1zM62 61h1v1h-1zM65 58h1v1h-1zM68 55h1v1h-1zM73 57h1v1h-1z"/></g></g><path class="cg-shadow" opacity=".17" d="M60 79v-1H29v1h-2v1h3v1h29v-1h3v-1z"/><g class="cg-body"><g id="angel-wings"><g id="angel-wings-left"><path d="M23 38v-2h-1v-1h-1v-1h-1v-1h-2v-1h-3v-1h-1v-1h-1v-1h-1v-2h-1v-2h-1v-1H9v-1H7v1H6v1H5v5H4v1H3v4h1v2H3v4h1v1h1v1h1v3h1v1h1v1h4v-1h1v1h7v-1h2v-1h1v-2h1v-6h-1z" id="angel-wings-outline-left"/><g id="Layer_290" fill="#8EE4FF"><path d="M5 41H4v-3h2v1h2v1h3v1h1v1h-2v1H6v-1H5v-1z"/><path d="M14 31v1h1v1h3v1h2v1h1v1h1v2h1v6h-1v2h-2v1h-7v-1h-1v1H8v-1H7v-2h3v-1h2v-1h1v-1h-1v-1h-1v-4h4v2h-1v1h1v-1h1v-2h-1v-1h-4v1h-1v-1H9v-1H8v-1H7v-1H6v-7h1v-1h2v1h1v2h1v2h1v1h1v1h1z"/><path d="M10 38v1H8v-1H6v-1H5v-2H4v-4h1v1h1v1h1v1h1v1h1v1h1v2z"/></g><g opacity=".71" fill="#D9F6FF" id="angel-wings-highlight-left"><path d="M22 43h1v1h-1zM19.7 46H19v1h1v-1h-.3zM20 45v1h2v-1h-2zM22 38h1v1h-1zM22 36h-1v2h1v-2zM10 36H9v3h1v-3zM20 35h1v1h-1zM19 38v1h-1v1h1v1h1v-1h1v-1h-1v-1zM19 34h-1v1h2v-1h-1zM17 33h-2v1h3v-1h-1zM16 41h1v1h-1zM14 32h1v1h-1zM13 31h1v1h-1zM12 30h1v1h-1zM11 29h1v1h-1zM8 24h1v1H8zM11.5 46H11v1h1v-1h-.5zM7.5 39H7v1h1v-1h-.5zM5.5 38H5v1h1v-1h-.5zM8.5 35H8v1h1v-1h-.5zM7.5 34H7v1h1v-1h-.5zM6.5 33H6v1h1v-1h-.5zM5.5 32H5v1h1v-1h-.5zM14.5 36H14v1h1v-1h-.5zM14.5 37H14v1h1v-1h-.5zM13.5 38H13v1h1v-1h-.5zM11 27h-1v2h1v-2zM10 25H9v2h1v-2zM8 29h1v1H8zM11 41h1v1h-1zM9 42h1v1H9zM10 40h1v1h-1zM23 42v-3h-1v4h1v-1z"/></g></g><g id="angel-wings-right"><path d="M86 35v-4h-1v-1h-1v-5h-1v-1h-1v-1h-2v1h-1v1h-1v2h-1v2h-1v1h-1v1h-1v1h-3v1h-2v1h-1v1h-1v1h-1v2h-1v6h1v2h1v1h2v1h7v-1h1v1h4v-1h1v-1h1v-3h1v-1h1v-1h1v-4h-1v-2h1z" id="angel-wings-outline-right"/><g id="Layer_291" fill="#8EE4FF"><path d="M83 42v1h-4v-1h-2v-1h1v-1h3v-1h2v-1h2v3h-1v1h-1z"/><path d="M82 34v-1h1v-1h1v-1h1v4h-1v2h-1v1h-2v1h-2v-3h1v-1h1v-1h1z"/><path d="M77 40v1h-1v1h1v1h2v1h3v2h-1v1h-4v-1h-1v1h-7v-1h-2v-2h-1v-6h1v-2h1v-1h1v-1h2v-1h3v-1h1v-1h1v-1h1v-1h1v-2h1v-2h1v-1h2v1h1v7h-1v1h-1v1h-1v1h-1v1h-1v-1h-4v1h-1v2h1v1h1v-1h-1v-2h4v4h-1z"/></g><g opacity=".71" fill="#D9F6FF" id="angel-wings-highlight-right"><path d="M78 35h1v1h-1zM79 34h1v1h-1zM80 33h1v1h-1zM81 32h1v1h-1zM70 38v1h1v1h-1v1h-1v-1h-1v-1h1v-1zM72 41h1v1h-1zM73 38h1v1h-1zM73 35h1v1h-1zM80 43h-1v-1h4v1h-3zM80 39h-1v-1h2v1h-1zM80 29h1v1h-1zM81 24h1v1h-1zM82 38h-1v-1h2v1h-1zM83 26v6h-1v-7h1v1zM83 41h1v1h-1zM80 46h1v1h-1zM75 46h1v1h-1zM76 42h1v1h-1zM75 41h1v1h-1zM76 40h1v1h-1zM84 37h-1v-2h1v2zM82 46h-1v-2h1v2zM73 38h-1v-2h1v2zM84 39v-1h1v3h-1v-2zM84 34v-3h1v4h-1v-1zM77 39v-3h1v4h-1v-1z"/></g></g></g><path d="M63 47v-4h-1v-3h-1v-2h-1v-1h-1v-1h-1v-1h-1v-1h-1v-1h-1v-1h-2v-1h-2v-1H38v1h-2v1h-2v1h-1v1h-1v1h-1v1h-1v1h-1v1h-1v2h-1v3h-1v4h-1v13h1v3h1v3h1v1h1v1h1v1h2v1h2v-1h1v-1h1v-4h1v3h1v1h1v1h2v-1h1v-1h1v-4h1v-1h1v1h1v4h1v1h1v1h2v-1h1v-1h1v-3h1v4h1v1h1v1h2v-1h2v-1h1v-1h1v-1h1v-3h1v-3h1V47z"/><path class="cg-body-color" fill="#56E5B7" d="M62 47v-4h-1v-3h-1v-2h-1v-1h-1v-1h-1v-1h-1v-1h-1v-1h-2v-1h-2v-1H38v1h-2v1h-2v1h-1v1h-1v1h-1v1h-1v1h-1v2h-1v3h-1v4h-1v13h1v3h1v3h1v1h1v1h2v1h2v-1h1v-4h1v-1h1v1h1v3h1v1h2v-1h1v-4h1v-1h1v-1h1v1h1v1h1v4h1v1h2v-1h1v-3h1v-1h1v1h1v4h1v1h2v-1h2v-1h1v-1h1v-3h1v-3h1V47z"/><g class="cg-face"><path d="M39 36v1h-3v1h-1v1h-1v1h-1v2h-1v2h1v1h1v1h2v1h3v1h11v-1h3v-1h2v-1h1v-1h1v-2h-1v-2h-1v-1h-1v-1h-1v-1h-3v-1z"/><path fill="#FFF" d="M39 37v1h-3v1h-1v1h-1v2h-1v2h1v1h2v1h3v1h11v-1h3v-1h2v-1h1v-2h-1v-2h-1v-1h-1v-1h-3v-1z"/><g class="cg-eyes"><path d="M51 43v-1h-1v1h-2v1h1v1h4v-2zM37 41h1v1h-1zM39 43v-1h-1v1h-2v2h4v-1h1v-1h-1zM51 41h1v1h-1z"/></g><g class="cg-digits" style="display: none;"><g class="cg-digit-zero"><path d="M38 40h-2v5h3v-5h-1zm0 2v2h-1v-3h1v1z"/></g><g class="cg-digit-one"><path d="M39 44v1h-3v-1h1v-2h-1v-1h1v-1h1v4h1z"/></g><g class="cg-digit-two"><path d="M39 42h-1v-1h1v1zm-1 3h1v-1h-2v1h1zm0-3h-1v1h1v-1zm-1-2h-1v1h2v-1h-1zm-1 3v1h1v-1h-1z"/></g><g class="cg-digit-three"><path d="M38 44v-1h1v1h-1zm1-3h-1v1h1v-1zm-2 1v1h1v-1h-1zm0-2h-1v1h2v-1h-1zm-1 4v1h2v-1h-2z"/></g><g class="cg-digit-four"><path d="M39 41v4h-1v-2h-2v-3h1v2h1v-1h1z"/></g><g class="cg-digit-five"><path d="M38 44v-1h1v1h-1zm0-3h1v-1h-3v3h2v-1h-1v-1h1zm-2 3v1h2v-1h-2z"/></g><g class="cg-digit-six"><path d="M38 41h-1v-1h2v1h-1zm-2 0v3h1v-1h1v1h-1v1h2v-3h-2v-1h-1z"/></g><g class="cg-digit-seven"><path d="M39 40v5h-1v-4h-2v-1h3z"/></g><g class="cg-digit-eight"><path d="M38 40h-2v5h3v-5h-1zm0 4h-1v-1h1v1zm0-2h-1v-1h1v1z"/></g><g class="cg-digit-nine"><path d="M38 40h-2v3h2v2h1v-5h-1zm0 2h-1v-1h1v1z"/></g><g class="cg-digit-colon"><path d="M45 42h-1v-1h1v1zm0 1h-1v1h1v-1z"/></g></g><g class="cg-time"></g></g><g class="cg-glasses" id="reading-glasses"><path fill="#020202" d="M62 40v1h-3v3h-1v-4h-1v-1H46v-1h12v1h3v1h1zm-5 5v1h1v-2h-1v1zm-1 2h1v-1h-1v1zm-1 1h1v-1h-1v1zm-2 0h-5v1h7v-1h-2zm-6-1v1h1v-1h-1zm-1-1v1h1v-1h-1zm0-2v-5h-1v1h-1v-1h-1v7h1v-4h1v4h1v-2zm-4 3h1v-1h-1v1zm-1 1h1v-1h-1v1zm-2 0h-5v1h7v-1h-2zm-6-1v1h1v-1h-1zm-1-1v1h1v-1h-1zm0-2h-1v2h1v-2zm-1-2v-2h1v-1h11v-1H31v1h-3v1h-1v1h3v3h1v-2z"/><path opacity=".47" fill="#5FD2FF" d="M58 40v4h-1v2h-1v1h-1v1h-7v-1h-1v-1h-1v-7h11v1h1zm-26-1v1h-1v4h1v2h1v1h1v1h7v-1h1v-1h1v-7H32z"/></g><g id="shield"><path d="M33 44h-5v-1h-6v-1h-2v16h1v7h1v2h1v1h1v1h2v-1h2v-1h1v-1h1v-1h1v-2h1v-2h1v-7h1V44z"/><g class="rgb-color" fill="#3FF"><path d="M32 45h1v8h-5v-1h-3v-8h3v1h3zM32 60v1h-1v2h-1v2h-1v1h-1v1h-2v1h-1V53h3v1h4v5zM22 43v1h2v7h-2v-1h-1v-7zM22 51v1h2v15h-1v-2h-1v-7h-1v-7z"/></g><g><path opacity=".18" d="M21 43v15h1v7h1v2h1V43z"/><path opacity=".18" d="M21 43h1v15h-1z"/><path opacity=".18" fill="#FFF" d="M32 45h1v8h-1z"/></g></g><g id="deal-with-it-glasses"><path d="M64 42h-3v1h4v-1zM60 41H28v1h1v2h1v2h1v2h1v1h9v-1h1v-2h1v-2h1v-2h1v2h1v2h1v2h1v1h9v-1h1v-2h1v-2h1v-2h1v-1z"/><path fill="#FFF" d="M33 45v1h-1v-2h1v1zm0 2h1v-1h-1v1zm2-3h-1v2h1v-2zm0 3h1v-1h-1v1zm-1-4h-1v1h1v-1zm-3 0v1h1v-1h-1zm18 1h-1v2h1v-2zm0 3h1v-1h-1v1zm2-3h-1v2h1v-2zm0 2v1h1v-1h-1zm-1-3h-1v1h1v-1zm-3 0v1h1v-1h-1z"/></g></g><a href="/images/png/cg143-512.png" class="button png-square"><path class="button-bg" d="M26 75h13v11H26z"/><path fill="#FFF" d="M36 77h-1v1h1v5h-1v1h2v-7zm-8 0v7h2v-1h-1v-5h1v-1h-1zm6 3h1v1h-1zm-4 0h1v1h-1zm3 0v-2h-1v3h-1v1h1v1h1v-1h1v-1h-1z"/><title>Download square PNG</title></a><a href="/images/png/cg143-wide.png" class="button png-wide"><path class="button-bg" d="M42 75h21v11H42z"/><path fill="#FFF" d="M60 77h-1v1h1v5h-1v1h2v-7zm-16 0v7h2v-1h-1v-5h1v-1h-1zm10 3h1v1h-1zm-4 0h1v1h-1zm3 0v-2h-1v3h-1v1h1v1h1v-1h1v-1h-1z"/><title>Download wide PNG</title></a><script type="text/javascript"><![CDATA[
    let cg143Root = document.getElementById('cg143');

    if (cg143Root) {
      let cgRoot = cg143Root;
      let cgBg = cgRoot.querySelector('.cg-bg');
      let cgBody = cgRoot.querySelector('.cg-body');

      cgBg.addEventListener('dblclick', () => {
        cgRoot.classList.toggle('menu-in');
      });

      cgBody.addEventListener('click', () => {

        let bufferArray = [];
        let lastKeystrokeTime = Date.now();
        const cheatcode = (e) => {

          const key = e.key.toLowerCase();
          const latestKeystrokeTime = Date.now();

          if (latestKeystrokeTime - lastKeystrokeTime > 1500) {
            bufferArray = [];
          }

          bufferArray.push(key);

          const word = bufferArray.join('');
          if (word === 'dealwithit') {
            console.log('No u.');

            cgRoot.classList.add('deal-with-it');

            setTimeout(() => {
              cgRoot.classList.remove('deal-with-it');
            }, 10000);

            clearListener();
          }
  
          lastKeystrokeTime = latestKeystrokeTime;

        }
        document.addEventListener('keyup', cheatcode, true);

        const clearListener = () => {
          document.removeEventListener('keyup', cheatcode, true);
        }

      });
    
    let cgDigits = cgRoot.querySelector('.cg-digits');
    let cgTime = cgRoot.querySelector('.cg-time');
  

      let cgGlasses = cgRoot.querySelector('.cg-glasses');
      cgGlasses.addEventListener('dblclick', () => {
        cgRoot.classList.add('get-time');

        let now = new Date();
        let hours = ('0' + now.getHours()).substr(-2);
        let minutes = ('0' + now.getMinutes()).substr(-2);;
        let digits = [hours.substr(0,1), hours.substr(1), minutes.substr(0,1), minutes.substr(1)];

        cgTime.replaceChildren();

        for (let i = 0; i < 4; i++) {
          switch (digits[i]) {
            case '0':
              cgTime.appendChild(cgDigits.querySelector('.cg-digit-zero').cloneNode(true));
              break;
            case '1':
              cgTime.appendChild(cgDigits.querySelector('.cg-digit-one').cloneNode(true));
              break;
            case '2':
              cgTime.appendChild(cgDigits.querySelector('.cg-digit-two').cloneNode(true));
              break;
            case '3':
              cgTime.appendChild(cgDigits.querySelector('.cg-digit-three').cloneNode(true));
              break;
            case '4':
              cgTime.appendChild(cgDigits.querySelector('.cg-digit-four').cloneNode(true));
              break;
            case '5':
              cgTime.appendChild(cgDigits.querySelector('.cg-digit-five').cloneNode(true));
              break;
            case '6':
              cgTime.appendChild(cgDigits.querySelector('.cg-digit-six').cloneNode(true));
              break;
            case '7':
              cgTime.appendChild(cgDigits.querySelector('.cg-digit-seven').cloneNode(true));
              break;
            case '8':
              cgTime.appendChild(cgDigits.querySelector('.cg-digit-eight').cloneNode(true));
              break;
            case '9':
              cgTime.appendChild(cgDigits.querySelector('.cg-digit-nine').cloneNode(true));
              break;
          }
        }

        cgTime.childNodes[1].style.transform = 'translateX(4px)';
        cgTime.childNodes[2].style.transform = 'translateX(10px)';
        cgTime.childNodes[3].style.transform = 'translateX(14px)';

        cgTime.appendChild(cgDigits.querySelector('.cg-digit-colon').cloneNode(true));

        setTimeout(() => {
          cgRoot.classList.remove('get-time');
        }, 10000);
      });

    }]]></script></svg>