<svg id="cg2066" xmlns="http://www.w3.org/2000/svg" viewBox="0 0 89 89"><style>
    #cg2066 {
      overflow: hidden;
    }

    #cg2066 .button {
      opacity: 0;
      pointer-events: none;
      transition: 0.2s ease;
      transform: translate3d(0, 20px, 0);
    }

    #cg2066 .button.png-wide {
      transition-delay: 0.2s;
    }

    #cg2066.menu-in .button {
      opacity: 1;
      pointer-events: auto;
      cursor: pointer;
      transform: translate3d(0, 0, 0);
    }

    #cg2066.menu-in .button .button-bg {
      transition: fill 0.2s ease;
    }

    #cg2066.menu-in .button:hover .button-bg {
      fill: #FF5FFA;
    }

    #cg2066 .cg-glasses {
      transition: opacity 0.2s ease;
    }

    #cg2066 #deal-with-it-glasses {
      opacity: 0;
      pointer-events: none;
      transition: opacity 0.2s ease, transform 3s linear;
      transform: translate3d(0, -60px, 0);
    }

    #cg2066.deal-with-it #deal-with-it-glasses {
      opacity: 1;
      transform: translate3d(0, 0, 0);
    }

    #cg2066.deal-with-it .cg-glasses {
      opacity: 0;
      transition-delay: 2s;
    }

  
      #cg2066 .cg-glasses {
        transition: opacity 0.2s ease;
      }

      #cg2066.get-time .cg-glasses {
        opacity: 0;
      }
    
    #cg2066 .cg-eyes {
      transition: opacity 0.2s ease;
    }

    #cg2066.get-time .cg-eyes {
      opacity: 0;
    }
  
    #cg2066 .cg-time {
      pointer-events: none;
      transition: opacity 0.2s ease;
      opacity: 0;
    }

    #cg2066.get-time .cg-time {
      opacity: 1;
    }

    #cg2066 .cg-time .cg-digit-colon {
      animation: cg-colon-blink 1s ease-in-out 0s infinite;
    }

    @keyframes cg-colon-blink {
      20% {
        opacity: 1;
      }
      50% {
        opacity: 0;
      }
      80% {
        opacity: 1;
      }
    }
  
    #cg2066 .cg-body {
      animation: cg-anim-hover 1.5s ease-in-out -1.3792s infinite;
      transform-origin: center;
      transform-box: fill-box;
    }

    @keyframes cg-anim-hover {
      0% {
        transform: translate3d(0,0,0);
      }
      50% {
        transform: translate3d(0,-2px,0);
      }
      100% {
        transform: translate3d(0,0,0);
      }
    }
  
    #cg2066 .cg-shadow {
      animation: cg-anim-shadow 1.5s ease-in-out -1.3792s infinite;
      transform-origin: center;
      transform-box: fill-box;
    }

    @keyframes cg-anim-shadow {
      0% {
        transform: scale3d(1,1,1);
      }
      50% {
        transform: scale3d(0.9,1,1);
      }
      100% {
        transform: scale3d(1,1,1);
      }
    }
  
      #cg2066 .candle-wick {
        animation: cg-anim-wick 1s steps(1) -0.7995s infinite;
        transform-origin: center;
        transform-box: fill-box;
      }

      @keyframes cg-anim-wick {
        0% {
          transform: scaleX(1);
        }
        50% {
          transform: scaleX(-1);
        }
        100% {
          transform: scaleX(1);
        }
      }
    </style><path class="cg-bg" d="M0 0h89v89H0z" fill="#56E5B7"></path><g id="cake"><path d="M69 48v7h-5v1h-3v1h-2v1h-1v13h1v1h3v1h3v1h11v-1h3v-1h3v-1h1V58h-1v-1h-2v-1h-3v-1h-5v-7h-3z"/><path fill="#56E5B7" d="M70 53v-1h1v1h-1z"/><path fill="#FFC692" d="M70 52v-1h1v1h-1z"/><path fill="#F98CC5" d="M70 51v-1h1v1h-1z"/><path fill="#B5A6FF" d="M70 50v-1h1v1h-1z"/><path fill="#56E5B7" d="M70 57v-1h1v1h-1z"/><path fill="#FFC692" d="M70 56v-1h1v1h-1z"/><path fill="#F98CC5" d="M70 55v-1h1v1h-1z"/><path fill="#B5A6FF" d="M70 54v-1h1v1h-1z"/><path fill="#FFF" d="M63 70v-1h-3v-1h-1v-2h1v-1h1v-2h1v4h1v1h1v-1h1v-2h1v1h1v1h1v-1h1v-2h1v5h1v1h1v-1h1v-4h1v2h1v1h1v1h1v-1h1v-5h1v1h1v1h1v-1h1v4h-1v1h-3v1h-3v1h-9v-1h-3z"/><path fill="#FFA255" d="M78 70h3v-1h1v2h-3v1h-3v1H65v-1h-3v-1h-3v-2h1v1h3v1h3v1h9v-1h3v-1z"/><path fill="#30EFE9" d="M77 61H64v-1h-3v-1h-1v1h1v1h3v1h13v-1h3v-1h1v-1h-1v1h-3v1z"/><path fill="#30EFE9" d="M82 58v5h-1v1h-1v-1h-1v-1h-1v1h-1v5h-1v-1h-1v-2h-1v-1h-1v1h-1v4h-1v-5h-1v-1h-1v1h-1v2h-1v-1h-1v-1h-1v1h-1v2h-1v-4h-1v-1h-1v1h-1v2h-1v-7h2v-1h3v-1h5v2h3v-2h5v1h3v1h2z"/><path fill="#FFF" d="M81 60h-1v-1h1v1zm-1 1v-1h-3v1h3zm-3 1v-1H64v1h13zm-13-1v-1h-3v1h3zm-3-2h-1v1h1v-1z"/><g class="candle-wick"><path d="M71 49v-2h1v-1h1v-4h-1v-2h-1v1h-1v1h-1v1h-1v3h1v1h1v2h1z"/><path fill="#FFF155" d="M69 46v-3h1v-1h2v4h-1v1h-1v-1h-1z"/><path fill="#FFF" d="M71 42h1v4h-1zm-1 4h1v1h-1z" opacity=".41"/></g></g><path class="cg-shadow" opacity=".17" d="M60 79v-1H29v1h-2v1h3v1h29v-1h3v-1z"/><g class="cg-body"><g id="static"><path d="M72 39h1v1h-1zM71 47h1v1h-1zM70 46h1v1h-1zM70 42h1v1h-1zM69 41h1v1h-1zM69 27h1v1h-1zM68 47v1h2v-1h-2zM68 45h1v1h-1zM68 42h1v1h-1zM68 38h1v1h-1zM68 36h1v1h-1zM68 32h1v1h-1zM69 29v-1h-1v2h1v-1zM67 53h1v1h-1zM67 48h1v1h-1zM67 43h1v1h-1zM67 33h1v1h-1zM66 52h1v1h-1zM66 47h-1v1h2v-1h-1zM67 43v-1h-2v1h2zM66 39h1v1h-1zM67 38h1v-1h-3v1h2zM66 29h1v1h-1zM65 51h1v1h-1zM64 52h1v1h-1zM64 48h1v1h-1zM65 44v-1h-2v1h2zM65 39v-1h-2v1h2zM64 32h1v1h-1zM64 28h1v1h-1zM64 30v-1h-2v1h2zM63 24h1v1h-1zM62 39h1v1h-1zM62 34h1v1h-1zM61 35h1v1h-1zM61 30h1v1h-1zM61 22h1v1h-1zM60 36h1v1h-1zM60 31h1v1h-1zM61 24v-1h-1v2h1v-1zM60 19h1v1h-1zM59 32h1v1h-1zM59 25h1v1h-1zM58 34v1h1v-2h-1v1zM58 26h1v1h-1zM58 28v-1h-1v2h1v-1zM57 23h1v1h-1zM56 30v1h1v-2h-1v1zM55 31h1v1h-1zM54 24h1v1h-1zM53 25h1v1h-1zM53 20h1v1h-1zM52 27v2h1v-3h-1v1zM51 29h1v1h-1zM49 25v1h1v-3h-1v2zM49 20h1v1h-1zM48 27v1h1v-2h-1v1zM48 22v1h1v-2h-1v1zM49 18h-1v2h1v-2zM47 28h1v1h-1zM46 29h1v1h-1zM45 20h1v1h-1zM44 25v1h1v-2h-1v1zM44 19h1v1h-1zM43 30h1v-2h-1v2zM43 26h1v1h-1zM43 23h1v1h-1zM43 17h1v1h-1zM42 27h1v1h-1zM40 27h1v1h-1zM40 25h1v1h-1zM40 21h1v1h-1zM39 29v1h1v-2h-1v1zM39 26h1v1h-1zM39 24h1v1h-1zM39 22h1v1h-1zM39 20h1v1h-1zM38 23h1v1h-1zM36 28h1v1h-1zM36 19h1v1h-1zM35 30v1h1v-2h-1v1zM35 27h1v1h-1zM35 25h1v1h-1zM34 26h1v1h-1zM34 24h1v1h-1zM33 32v1h1v-2h-1v1zM34 22h-1v2h1v-2zM32 30v-1h-1v2h2v-1h-1zM32 28h1v1h-1zM32 21h1v1h-1zM31 27h-1v-3h-1v4h3v-1h-1zM30 34h1v1h-1zM30 20h1v1h-1zM30 32h-1v2h1v-2zM29 18h1v1h-1zM28 31h-1v1h2v-1h-1zM28 23h1v1h-1zM27 37v1h1v-2h-1v1zM27 24h1v1h-1zM26 40h1v1h-1zM26 35h-1v1h2v-1h-1zM27 29h-1v2h1v-2zM27 22h-1v2h1v-2zM25 39h-1v1h2v-1h-1zM26 27h-1v2h1v-2zM25 21h1v1h-1zM24 53h1v1h-1zM24 49h1v1h-1zM24 46h1v1h-1zM24 43v1h2v-1h-2zM25 33h-1v2h1v-2zM24 26h1v1h-1zM23 54h1v1h-1zM23 50h1v1h-1zM23 45h1v1h-1zM23 42h1v1h-1zM23 32h-1v1h2v-1h-1zM23 27h1v1h-1zM22 53h1v1h-1zM22 49h-1v1h2v-1h-1zM22 41h-1v1h2v-1h-1zM22 26h1v1h-1zM22 23h1v1h-1zM21 46v1h2v-1h-2zM21 34h1v1h-1zM21 31h1v1h-1zM21 28h1v1h-1zM20 54v1h2v-1h-2zM20 50h1v1h-1zM20 45h1v1h-1zM20 42h1v1h-1zM20 37h1v1h-1zM20 30h1v1h-1zM20 27h1v1h-1zM19 49h-1v1h2v-1h-1zM19 46h1v1h-1zM19 41h1v1h-1zM18 45h-2v1h3v-1h-1zM18 40h1v1h-1zM17 34h1v1h-1zM16 50v1h2v-1h-2zM15 44h1v1h-1z"/></g><g id="long-sword"><path d="M78 16h-3v1h-1v2h-1v1h-1v1h-1v1h-1v1h-1v1h-1v1h-1v1h-3v-1h-1v-1h-1v-1h-1v-1h-3v2h1v1h1v1h1v1h1v1h-1v2h-2v2h-2v2h-2v2h-2v2h-2v2h-2v2h-2v2h-2v2h-2v2h-2v2h-2v2h-2v2h-2v2h-2v2h-2v2h-2v2h-2v2h-2v2h-2v2h-2v2h-1v1h-1v5h5v-1h1v-1h2v-2h2v-2h2v-2h2v-2h2v-2h2v-2h2v-2h2v-2h2v-2h2v-2h2v-2h2v-2h2v-2h2v-2h2v-2h2v-2h2v-2h2v-2h2v-2h2v-2h2v-1h1v1h1v1h1v1h1v1h2v-3h-1v-1h-1v-1h-1v-1h-1v-3h1v-1h1v-1h1v-1h1v-1h1v-1h1v-1h1v-1h2v-1h1v-4z"/><g><path fill="#FBB03B" d="M72 35v1h-1v-1h-1v-1h-1v-1h-1v-1h-1v-1h-1v-1h-1v-1h-1v-1h-1v-1h-1v-1h-1v-1h-1v-1h-1v-1h2v1h1v1h1v1h1v1h1v1h1v1h1v1h1v1h1v1h1v1h1v1h1z"/><path fill="#333" d="M72 22v-1h1v-1h1v-1h1v-1h1v-1h2v2h-1v1h-1v1h-1v1h-1v1h-1v1h-1v1h-1v1h-1v1h-1v1h-1v1h-1v-1h-1v-1h1v-1h1v-1h1v-1h1v-1h1v-1z"/><path fill="#B3B3B3" d="M32 66v1h-1v1h-1v1h-1v1h-1v1h-1v1h-1v1h-1v1h-1v1h-4v-4h1v-1h1v-1h1v-1h1v-1h1v-1h1v-1h1v-1h1v-1h1v-1h1v-1h1v-1h1v-1h1v-1h1v-1h1v-1h1v-1h1v-1h1v-1h1v-1h1v-1h1v-1h1v-1h1v-1h1v-1h1v-1h1v-1h1v-1h1v-1h1v-1h1v-1h1v-1h1v-1h1v-1h1v-1h1v-1h1v-1h1v-1h1v-1h1v-1h1v-1h1v-1h1v-1h2v1h1v1h1v2h-1v1h-1v1h-1v1h-1v1h-1v1h-1v1h-1v1h-1v1h-1v1h-1v1h-1v1h-1v1h-1v1h-1v1h-1v1h-1v1h-1v1h-1v1h-1v1h-1v1h-1v1h-1v1h-1v1h-1v1h-1v1h-1v1h-1v1h-1v1h-1v1h-1v1h-1v1h-1v1h-1v1z"/><path fill="#FBB03B" d="M75 17h3v3h-3z"/><path d="M75 19h1v1h-1z"/></g><g opacity=".16"><g><path d="M75 17h1v1h-1zM76 17h1v1h-1zM77 17h1v1h-1zM75 18h1v1h-1zM74 19h1v1h-1zM73 20h1v1h-1zM72 21h1v1h-1zM71 35h1v1h-1zM71 22h1v1h-1zM70 34h1v1h-1zM70 23h1v1h-1zM69 33h1v1h-1zM69 24h1v1h-1zM68 32h1v1h-1zM68 25h1v1h-1zM67 31h1v1h-1zM67 26h1v1h-1zM66 30h1v1h-1zM66 27h1v1h-1zM65 29h1v1h-1zM64 28h1v1h-1zM63 27h1v1h-1zM62 26h1v1h-1zM61 25h1v1h-1zM60 24h1v1h-1zM59 23h1v1h-1z"/></g></g><g opacity=".55" fill="#FFF"><path d="M52 43h1v1h-1zM51 44h1v1h-1zM50 45h1v1h-1zM49 46h1v1h-1zM48 47h1v1h-1zM47 48h1v1h-1zM46 49h1v1h-1zM59 36h1v1h-1zM58 37h1v1h-1zM57 38h1v1h-1zM56 39h1v1h-1zM63 32h1v1h-1zM64 31h1v1h-1zM62 33h1v1h-1zM61 34h1v1h-1zM60 35h1v1h-1zM55 40h1v1h-1zM54 41h1v1h-1zM53 42h1v1h-1zM45 50h1v1h-1zM44 51h1v1h-1zM43 52h1v1h-1zM42 53h1v1h-1zM41 54h1v1h-1zM40 55h1v1h-1zM39 56h1v1h-1zM38 57h1v1h-1zM37 58h1v1h-1zM36 59h1v1h-1zM35 60h1v1h-1zM34 61h1v1h-1zM33 62h1v1h-1zM32 63h1v1h-1zM31 64h1v1h-1zM30 65h1v1h-1zM29 66h1v1h-1zM28 67h1v1h-1zM27 68h1v1h-1zM26 69h1v1h-1zM25 70h1v1h-1zM24 71h1v1h-1zM23 72h1v1h-1zM22 73h1v1h-1zM54 42h1v1h-1zM53 43h1v1h-1zM52 44h1v1h-1zM51 45h1v1h-1zM50 46h1v1h-1zM49 47h1v1h-1zM48 48h1v1h-1zM61 35h1v1h-1zM60 36h1v1h-1zM59 37h1v1h-1zM58 38h1v1h-1zM65 31h1v1h-1zM64 32h1v1h-1zM63 33h1v1h-1zM62 34h1v1h-1zM57 39h1v1h-1zM56 40h1v1h-1zM55 41h1v1h-1zM47 49h1v1h-1zM46 50h1v1h-1zM45 51h1v1h-1zM44 52h1v1h-1zM43 53h1v1h-1zM42 54h1v1h-1zM41 55h1v1h-1zM40 56h1v1h-1zM39 57h1v1h-1zM38 58h1v1h-1zM37 59h1v1h-1zM36 60h1v1h-1zM35 61h1v1h-1zM34 62h1v1h-1zM33 63h1v1h-1zM32 64h1v1h-1zM31 65h1v1h-1zM30 66h1v1h-1zM29 67h1v1h-1zM28 68h1v1h-1zM27 69h1v1h-1zM26 70h1v1h-1zM25 71h1v1h-1zM24 72h1v1h-1zM53 44h1v1h-1zM52 45h1v1h-1zM51 46h1v1h-1zM50 47h1v1h-1zM49 48h1v1h-1zM48 49h1v1h-1zM47 50h1v1h-1zM60 37h1v1h-1zM59 38h1v1h-1zM58 39h1v1h-1zM57 40h1v1h-1zM64 33h1v1h-1zM65 32h1v1h-1zM63 34h1v1h-1zM62 35h1v1h-1zM61 36h1v1h-1zM56 41h1v1h-1zM55 42h1v1h-1zM54 43h1v1h-1zM46 51h1v1h-1zM45 52h1v1h-1zM44 53h1v1h-1zM43 54h1v1h-1zM42 55h1v1h-1zM41 56h1v1h-1zM40 57h1v1h-1zM39 58h1v1h-1zM38 59h1v1h-1zM37 60h1v1h-1zM36 61h1v1h-1zM35 62h1v1h-1zM34 63h1v1h-1zM33 64h1v1h-1zM32 65h1v1h-1zM31 66h1v1h-1zM30 67h1v1h-1zM29 68h1v1h-1zM28 69h1v1h-1zM27 70h1v1h-1zM26 71h1v1h-1zM25 72h1v1h-1zM24 73h1v1h-1zM23 73h1v1h-1zM22 74h1v1h-1zM21 74h1v1h-1zM23 74h1v1h-1z"/></g><path opacity=".3" d="M52 42h1v1h-1v-1zm-1 2h1v-1h-1v1zm-1 1h1v-1h-1v1zm-1 1h1v-1h-1v1zm-1 1h1v-1h-1v1zm-1 1h1v-1h-1v1zm-1 1h1v-1h-1v1zm13-13h1v-1h-1v1zm-1 1h1v-1h-1v1zm-1 1h1v-1h-1v1zm-1 1h1v-1h-1v1zm7-7h1v-1h-1v1zm1-2v1h1v-1h-1zm-2 3h1v-1h-1v1zm-1 1h1v-1h-1v1zm-1 1h1v-1h-1v1zm-5 5h1v-1h-1v1zm-1 1h1v-1h-1v1zm-1 1h1v-1h-1v1zm-8 8h1v-1h-1v1zm-1 1h1v-1h-1v1zm-1 1h1v-1h-1v1zm-1 1h1v-1h-1v1zm-1 1h1v-1h-1v1zm-1 1h1v-1h-1v1zm-1 1h1v-1h-1v1zm-1 1h1v-1h-1v1zm-1 1h1v-1h-1v1zm-1 1h1v-1h-1v1zm-1 1h1v-1h-1v1zm-1 1h1v-1h-1v1zm-1 1h1v-1h-1v1zm-1 1h1v-1h-1v1zm-1 1h1v-1h-1v1zm-1 1h1v-1h-1v1zm-1 1h1v-1h-1v1zm-1 1h1v-1h-1v1zm-1 1h1v-1h-1v1zm-1 1h1v-1h-1v1zm-1 1h1v-1h-1v1zm-1 1h1v-1h-1v1zm-1 1h1v-1h-1v1zm-1 1h1v-1h-1v1zm-1 1h1v-1h-1v1zm-1 1h1v-1h-1v1z"/></g><path d="M63 47v-4h-1v-3h-1v-2h-1v-1h-1v-1h-1v-1h-1v-1h-1v-1h-1v-1h-2v-1h-2v-1H38v1h-2v1h-2v1h-1v1h-1v1h-1v1h-1v1h-1v1h-1v2h-1v3h-1v4h-1v13h1v3h1v3h1v1h1v1h1v1h2v1h2v-1h1v-1h1v-4h1v3h1v1h1v1h2v-1h1v-1h1v-4h1v-1h1v1h1v4h1v1h1v1h2v-1h1v-1h1v-3h1v4h1v1h1v1h2v-1h2v-1h1v-1h1v-1h1v-3h1v-3h1V47z"/><path class="cg-body-color" fill="#FFFFFF" d="M62 47v-4h-1v-3h-1v-2h-1v-1h-1v-1h-1v-1h-1v-1h-1v-1h-2v-1h-2v-1H38v1h-2v1h-2v1h-1v1h-1v1h-1v1h-1v1h-1v2h-1v3h-1v4h-1v13h1v3h1v3h1v1h1v1h2v1h2v-1h1v-4h1v-1h1v1h1v3h1v1h2v-1h1v-4h1v-1h1v-1h1v1h1v1h1v4h1v1h2v-1h1v-3h1v-1h1v1h1v4h1v1h2v-1h2v-1h1v-1h1v-3h1v-3h1V47z"/><g class="cg-face"><path d="M39 36v1h-3v1h-1v1h-1v1h-1v2h-1v2h1v1h1v1h2v1h3v1h11v-1h3v-1h2v-1h1v-1h1v-2h-1v-2h-1v-1h-1v-1h-1v-1h-3v-1z"/><path fill="#FFF" d="M39 37v1h-3v1h-1v1h-1v2h-1v2h1v1h2v1h3v1h11v-1h3v-1h2v-1h1v-2h-1v-2h-1v-1h-1v-1h-3v-1z"/><g class="cg-eyes"><path d="M50 42h1v1h-1zM38 42h1v1h-1z"/></g><g class="cg-digits" style="display: none;"><g class="cg-digit-zero"><path d="M38 40h-2v5h3v-5h-1zm0 2v2h-1v-3h1v1z"/></g><g class="cg-digit-one"><path d="M39 44v1h-3v-1h1v-2h-1v-1h1v-1h1v4h1z"/></g><g class="cg-digit-two"><path d="M39 42h-1v-1h1v1zm-1 3h1v-1h-2v1h1zm0-3h-1v1h1v-1zm-1-2h-1v1h2v-1h-1zm-1 3v1h1v-1h-1z"/></g><g class="cg-digit-three"><path d="M38 44v-1h1v1h-1zm1-3h-1v1h1v-1zm-2 1v1h1v-1h-1zm0-2h-1v1h2v-1h-1zm-1 4v1h2v-1h-2z"/></g><g class="cg-digit-four"><path d="M39 41v4h-1v-2h-2v-3h1v2h1v-1h1z"/></g><g class="cg-digit-five"><path d="M38 44v-1h1v1h-1zm0-3h1v-1h-3v3h2v-1h-1v-1h1zm-2 3v1h2v-1h-2z"/></g><g class="cg-digit-six"><path d="M38 41h-1v-1h2v1h-1zm-2 0v3h1v-1h1v1h-1v1h2v-3h-2v-1h-1z"/></g><g class="cg-digit-seven"><path d="M39 40v5h-1v-4h-2v-1h3z"/></g><g class="cg-digit-eight"><path d="M38 40h-2v5h3v-5h-1zm0 4h-1v-1h1v1zm0-2h-1v-1h1v1z"/></g><g class="cg-digit-nine"><path d="M38 40h-2v3h2v2h1v-5h-1zm0 2h-1v-1h1v1z"/></g><g class="cg-digit-colon"><path d="M45 42h-1v-1h1v1zm0 1h-1v1h1v-1z"/></g></g><g class="cg-time"></g></g><g id="shuriken"><path fill="#6F747A" d="M50 67h3v-3h-1v-1h-2v-6h-1v1h-1v1h-1v1h-1v2h-6v1h1v1h1v1h1v1h2v7h1v-1h1v-1h1v-1h1v-1h1v-2zm-1-3v2h-3v-3h3v1z"/><path d="M50 59v4h2v-1h-1v-5h-1v1zM52 67h-2v2h1v-1h2v-1zM49 56h1v1h-1zM49 69h1v1h-1zM48 57h1v1h-1zM48 70h1v1h-1zM47 71h1v1h-1zM47 58h1v1h-1zM47 63h-1v3h3v-3h-1zM46 72h1v1h-1zM46 59h1v1h-1zM42 62h4v-2h-1v1h-5v1h1zM45 73h1v1h-1zM45 71v-5h-2v1h1v6h1v-1zM42 65h1v1h-1zM41 64h1v1h-1zM40 63h1v1h-1zM39 62h1v1h-1zM53 64h1v1h-1z"/><path opacity=".19" d="M51 63h1v1h-1z"/><path opacity=".19" fill="#FFF" d="M49 57h1v1h-1zM48 58h1v1h-1zM47 59h1v1h-1zM46 60h1v1h-1zM40 62h1v1h-1zM41 63h1v1h-1zM42 64h1v1h-1zM43 65h1v1h-1zM46 71h1v1h-1zM48 69h1v1h-1zM45 72h1v1h-1zM47 70h1v1h-1zM49 68h1v1h-1z"/><path opacity=".19" d="M52 64h1v3h-1z"/></g><g class="cg-glasses" id="eye-patch"><path d="M63 45v-1h-3v-1h-2v-1h-1v-1h-1v-1h-1v-1H44v-1h-2v-1h-2v-1h-2v-1h-2v-1h-2v-1h-2v1h-1v2h3v1h2v1h2v1h2v1h2v1h2v1h1v3h1v2h1v1h2v1h4v-1h2v-1h1v-1h1v-1h1v1h2v1h4v-2h-1z"/><path fill="#3F3F3F" d="M63 45v1h-3v-1h3zm-4-1h-1v1h2v-1h-1zm-2-1v1h1v-1h-1zm-14-4h-1v1h2v-1h-1zm-2-1h-1v1h2v-1h-1zm-2-1h-1v1h2v-1h-1zm-2-1h-1v1h2v-1h-1zm-2-1h-1v1h2v-1h-1zm-2-1h-1v1h2v-1h-1zm23 8v-1h-1v-1H44v1h2v4h1v2h2v1h4v-1h2v-1h1v-3h1v-1h-1z"/><path d="M47 45h-1v-3h1v3zm1 1v-1h-1v2h2v-1h-1zm3 1h-2v1h4v-1h-2zm3 0h1v-1h-1v1zm1-4v3h1v-3h-1z" opacity=".25"/></g><g id="deal-with-it-glasses"><path d="M64 42h-3v1h4v-1zM60 41H28v1h1v2h1v2h1v2h1v1h9v-1h1v-2h1v-2h1v-2h1v2h1v2h1v2h1v1h9v-1h1v-2h1v-2h1v-2h1v-1z"/><path fill="#FFF" d="M33 45v1h-1v-2h1v1zm0 2h1v-1h-1v1zm2-3h-1v2h1v-2zm0 3h1v-1h-1v1zm-1-4h-1v1h1v-1zm-3 0v1h1v-1h-1zm18 1h-1v2h1v-2zm0 3h1v-1h-1v1zm2-3h-1v2h1v-2zm0 2v1h1v-1h-1zm-1-3h-1v1h1v-1zm-3 0v1h1v-1h-1z"/></g></g><a href="/images/png/cg2066-512.png" class="button png-square"><path class="button-bg" d="M26 75h13v11H26z"/><path fill="#FFF" d="M36 77h-1v1h1v5h-1v1h2v-7zm-8 0v7h2v-1h-1v-5h1v-1h-1zm6 3h1v1h-1zm-4 0h1v1h-1zm3 0v-2h-1v3h-1v1h1v1h1v-1h1v-1h-1z"/><title>Download square PNG</title></a><a href="/images/png/cg2066-wide.png" class="button png-wide"><path class="button-bg" d="M42 75h21v11H42z"/><path fill="#FFF" d="M60 77h-1v1h1v5h-1v1h2v-7zm-16 0v7h2v-1h-1v-5h1v-1h-1zm10 3h1v1h-1zm-4 0h1v1h-1zm3 0v-2h-1v3h-1v1h1v1h1v-1h1v-1h-1z"/><title>Download wide PNG</title></a><script type="text/javascript"><![CDATA[
    let cg2066Root = document.getElementById('cg2066');

    if (cg2066Root) {
      let cgRoot = cg2066Root;
      let cgBg = cgRoot.querySelector('.cg-bg');
      let cgBody = cgRoot.querySelector('.cg-body');

      cgBg.addEventListener('dblclick', () => {
        cgRoot.classList.toggle('menu-in');
      });

      cgBody.addEventListener('click', () => {

        let bufferArray = [];
        let lastKeystrokeTime = Date.now();
        const cheatcode = (e) => {

          const key = e.key.toLowerCase();
          const latestKeystrokeTime = Date.now();

          if (latestKeystrokeTime - lastKeystrokeTime > 1500) {
            bufferArray = [];
          }

          bufferArray.push(key);

          const word = bufferArray.join('');
          if (word === 'dealwithit') {
            console.log('No u.');

            cgRoot.classList.add('deal-with-it');

            setTimeout(() => {
              cgRoot.classList.remove('deal-with-it');
            }, 10000);

            clearListener();
          }
  
          lastKeystrokeTime = latestKeystrokeTime;

        }
        document.addEventListener('keyup', cheatcode, true);

        const clearListener = () => {
          document.removeEventListener('keyup', cheatcode, true);
        }

      });
    
    let cgDigits = cgRoot.querySelector('.cg-digits');
    let cgTime = cgRoot.querySelector('.cg-time');
  

      let cgGlasses = cgRoot.querySelector('.cg-glasses');
      cgGlasses.addEventListener('dblclick', () => {
        cgRoot.classList.add('get-time');

        let now = new Date();
        let hours = ('0' + now.getHours()).substr(-2);
        let minutes = ('0' + now.getMinutes()).substr(-2);;
        let digits = [hours.substr(0,1), hours.substr(1), minutes.substr(0,1), minutes.substr(1)];

        cgTime.replaceChildren();

        for (let i = 0; i < 4; i++) {
          switch (digits[i]) {
            case '0':
              cgTime.appendChild(cgDigits.querySelector('.cg-digit-zero').cloneNode(true));
              break;
            case '1':
              cgTime.appendChild(cgDigits.querySelector('.cg-digit-one').cloneNode(true));
              break;
            case '2':
              cgTime.appendChild(cgDigits.querySelector('.cg-digit-two').cloneNode(true));
              break;
            case '3':
              cgTime.appendChild(cgDigits.querySelector('.cg-digit-three').cloneNode(true));
              break;
            case '4':
              cgTime.appendChild(cgDigits.querySelector('.cg-digit-four').cloneNode(true));
              break;
            case '5':
              cgTime.appendChild(cgDigits.querySelector('.cg-digit-five').cloneNode(true));
              break;
            case '6':
              cgTime.appendChild(cgDigits.querySelector('.cg-digit-six').cloneNode(true));
              break;
            case '7':
              cgTime.appendChild(cgDigits.querySelector('.cg-digit-seven').cloneNode(true));
              break;
            case '8':
              cgTime.appendChild(cgDigits.querySelector('.cg-digit-eight').cloneNode(true));
              break;
            case '9':
              cgTime.appendChild(cgDigits.querySelector('.cg-digit-nine').cloneNode(true));
              break;
          }
        }

        cgTime.childNodes[1].style.transform = 'translateX(4px)';
        cgTime.childNodes[2].style.transform = 'translateX(10px)';
        cgTime.childNodes[3].style.transform = 'translateX(14px)';

        cgTime.appendChild(cgDigits.querySelector('.cg-digit-colon').cloneNode(true));

        setTimeout(() => {
          cgRoot.classList.remove('get-time');
        }, 10000);
      });

    }]]></script></svg>