<svg id="cg3053" xmlns="http://www.w3.org/2000/svg" viewBox="0 0 89 89"><style>
    #cg3053 {
      overflow: hidden;
    }

    #cg3053 .button {
      opacity: 0;
      pointer-events: none;
      transition: 0.2s ease;
      transform: translate3d(0, 20px, 0);
    }

    #cg3053 .button.png-wide {
      transition-delay: 0.2s;
    }

    #cg3053.menu-in .button {
      opacity: 1;
      pointer-events: auto;
      cursor: pointer;
      transform: translate3d(0, 0, 0);
    }

    #cg3053.menu-in .button .button-bg {
      transition: fill 0.2s ease;
    }

    #cg3053.menu-in .button:hover .button-bg {
      fill: #FF5FFA;
    }

    #cg3053 .cg-glasses {
      transition: opacity 0.2s ease;
    }

    #cg3053 #deal-with-it-glasses {
      opacity: 0;
      pointer-events: none;
      transition: opacity 0.2s ease, transform 3s linear;
      transform: translate3d(0, -60px, 0);
    }

    #cg3053.deal-with-it #deal-with-it-glasses {
      opacity: 1;
      transform: translate3d(0, 0, 0);
    }

    #cg3053.deal-with-it .cg-glasses {
      opacity: 0;
      transition-delay: 2s;
    }

  
      #cg3053.blastoff .cg-body {
        animation: cg-anim-takeoff 10s ease-in 0s;
      }

      #cg3053.blastoff .cg-shadow {
        animation: cg-anim-shadow-takeoff 10s ease-in 0s;
      }

      #cg3053.blastoff .rocket-flame {
        animation-name: cg-anim-rocket-blastoff;
      }
    
      #cg3053 .cg-glasses {
        transition: opacity 0.2s ease;
      }

      #cg3053.get-time .cg-glasses {
        opacity: 0;
      }
    
    #cg3053 .cg-eyes {
      transition: opacity 0.2s ease;
    }

    #cg3053.get-time .cg-eyes {
      opacity: 0;
    }
  
    #cg3053 .cg-time {
      pointer-events: none;
      transition: opacity 0.2s ease;
      opacity: 0;
    }

    #cg3053.get-time .cg-time {
      opacity: 1;
    }

    #cg3053 .cg-time .cg-digit-colon {
      animation: cg-colon-blink 1s ease-in-out 0s infinite;
    }

    @keyframes cg-colon-blink {
      20% {
        opacity: 1;
      }
      50% {
        opacity: 0;
      }
      80% {
        opacity: 1;
      }
    }
  
    #cg3053 .cg-body {
      animation: cg-anim-hover 1.5s ease-in-out -0.1555s infinite;
      transform-origin: center;
      transform-box: fill-box;
    }

    @keyframes cg-anim-hover {
      0% {
        transform: translate3d(0,0,0);
      }
      50% {
        transform: translate3d(0,-2px,0);
      }
      100% {
        transform: translate3d(0,0,0);
      }
    }
  
      @keyframes cg-anim-takeoff {
        0% {
          transform: translate3d(0,0,0);
        }
        95% {
          transform: translate3d(0,-120px,0);
        }
        100% {
          transform: translate3d(0,0,0);
        }
      }
    
    #cg3053 .cg-shadow {
      animation: cg-anim-shadow 1.5s ease-in-out -0.1555s infinite;
      transform-origin: center;
      transform-box: fill-box;
    }

    @keyframes cg-anim-shadow {
      0% {
        transform: scale3d(1,1,1);
      }
      50% {
        transform: scale3d(0.9,1,1);
      }
      100% {
        transform: scale3d(1,1,1);
      }
    }
  
      @keyframes cg-anim-shadow-takeoff {
        0% {
          transform: scale3d(0.9,1,1);
        }
        95% {
          transform: scale3d(0.1,1,1);
        }
        100% {
          transform: scale3d(1,1,1);
        }
      }
    
      @keyframes cg-anim-rgb {
        0% {
          fill: #FF5F5F;
        }
        11.1111% {
          fill: #FFA45F;
        }
        22.2222% {
          fill: #BAFF5F;
        }
        33.3333% {
          fill: #5FFF74;
        }
        44.4444% {
          fill: #5FFFCE;
        }
        55.5555% {
          fill: #5FD9FF;
        }
        66.6666% {
          fill: #5F6AFF;
        }
        77.7777% {
          fill: #AA5FFF;
        }
        88.8888% {
          fill: #FF5FFA;
        }
        100% {
          fill: #FF5F5F;
        }
      }
    
      #cg3053 .planet-color {
        animation: cg-anim-rgb 10s linear -3.8709s infinite;
      }
    
      #cg3053 .rgb-hair {
        animation: cg-anim-rgb 6s linear -0.6527s infinite;
      }
    
      #cg3053 .rocket-flame {
        animation: cg-anim-rocket 0.5s steps(1) -0.1895s infinite;
        transform-origin: center top;
        transform-box: fill-box;
      }

      @keyframes cg-anim-rocket {
        0% {
          transform: scaleX(1) translate3d(0, 0, 0);
        }
        25% {
          transform: scaleX(-1) translate3d(0, -1px, 0);
        }
        50% {
          transform: scaleX(1) translate3d(0, -2px, 0);
        }
        75% {
          transform: scaleX(-1) translate3d(0, -1px, 0);
        }
        100% {
          transform: scaleX(1) translate3d(0, 0, 0);
        }
      }

      @keyframes cg-anim-rocket-blastoff {
        0% {
          transform: scaleX(1) scaleY(1) translate3d(0, 0, 0);
        }
        25% {
          transform: scaleX(-1) scaleY(1.5) translate3d(0, -1px, 0);
        }
        50% {
          transform: scaleX(1) scaleY(2) translate3d(0, -2px, 0);
        }
        75% {
          transform: scaleX(-1) scaleY(1.5) translate3d(0, -1px, 0);
        }
        100% {
          transform: scaleX(1) scaleY(1) translate3d(0, 0, 0);
        }
      }
    </style><path class="cg-bg" d="M0 0h89v89H0z" fill="#56E5B7"></path><g id="planet"><path id="planet-bg" d="M30 6V5h-4v1h-2v1h-2V6h-2V5h-7v1h-2v1H9v1H8v1H7v2H6v2H5v7h1v1H5v1H4v2H3v3h1v1h1v1h4v-1h2v-1h3v1h6v-1h2v-1h2v-1h1v-1h1v-1h1v-1h1v-2h1v-9h1V8h1V6h-1zM9 24v1H7v-2h1v1h1z"/><g class="planet-color" fill="#ACE5F3"><path d="M27 15v2h-1v1h-1v1h-1v1h-1v1h-1v1h-1v1h-2v1h-2v1h-2v1h-1v1h6v-1h2v-1h2v-1h1v-1h1v-1h1v-2h1v-5h-1zM14 22h2v-1h2v-1h2v-1h1v-1h1v-1h1v-1h1v-2h1v-2h1v-2h-1V9h-1V8h-2V7h-2V6h-7v1h-2v1H9v1H8v2H7v2H6v7h1v2h1v1h1v1h3v-1h2v-1z"/></g><path id="ring-colour" fill="#7850FF" d="M29 6h-3v1h-2v1h3v4h-1v2h-1v2h-1v1h-1v1h-1v1h-1v1h-1v1h-2v1h-2v1h-2v1h-2v1h-2v1H6v-3h1v-1H5v2H4v3h1v1h4v-1h2v-1h2v-1h2v-1h2v-1h2v-1h2v-1h1v-1h1v-1h1v-1h1v-1h1v-2h1v-2h1v-2h1V8h1V6h-1z"/><g id="planet-highlights" opacity=".21" fill="#FFF"><path d="M20 14h-2v1h3v-1h-1zM25 20h1v1h-1zM25 10v2h1v-2h-1zM24 21h1v1h-1zM24 9h1v1h-1zM23 22h1v1h-1zM23 8h-1v1h2V8h-1zM21 23h-2v1h4v-1h-2zM22 16v-1h-1v2h1v-1zM21 7h-1v1h2V7h-1zM20 17h1v1h-1zM19 18h1v1h-1zM19 6h-6v1h7V6h-1zM18 19h1v1h-1zM17 20h1v1h-1zM17 15h1v1h-1zM17 12v-1h-1v2h1v-1zM15 16v1h2v-1h-2zM15 13h1v1h-1zM15 10h-1v1h2v-1h-1zM14 14h1v1h-1zM13 17v1h2v-1h-2zM13 15h1v1h-1zM12 16h1v1h-1zM12 11v1h2v-1h-2zM11 12h1v1h-1zM11 7v1h2V7h-2zM10 13h1v1h-1zM9 23h1v1H9zM9 14h1v1H9zM9 8v1h2V8H9zM8 22h1v1H8zM8 10v1h1V9H8v1zM7 22h1v-2H7v2zM7 12v1h1v-2H7v1zM6 14v6h1v-7H6v1z"/></g><g id="planet-stars"><g fill="#FFFA9F"><path d="M39 4v1h-1v1h-1V5h-1V4h1V3h1v1zM36 11v2h-1v-2h1zM35 13v1h-2v-1h2zM35 10v1h-2v-1h2zM33 11v2h-1v-2h1zM26 2h1v1h-1zM10 33v1H9v1H8v-1H7v-1h1v-1h1v1z"/></g></g></g><path class="cg-shadow" opacity=".17" d="M60 79v-1H29v1h-2v1h3v1h29v-1h3v-1z"/><g class="cg-body"><g id="rockets"><g id="rocket-right"><g class="rocket-flame"><path fill="#FF4E00" d="M65 57h-1v4h-1v5h1v1h-1v4h1v1h-1v2h1v1h1v-5h-1v-2h1v-1h1v-7h1v-3h-2zM63 59v-2h-1v4h1v-2z"/><path fill="#FF9945" d="M66 56h-4v1h1v4h1v5h1v-6h1v-3h1v-1h-1z"/><path fill="#F9F871" d="M65 56h-2v2h1v3h1v-1h1v-4h-1z"/></g><path d="M69 39v-1h-1v-1h-7v1h-1v1h-1v13h1v1h1v2h1v1h5v-1h1v-2h1v-1h1V39h-1z"/><g><path fill="#B3B3B3" d="M67 54v1h-5v-1h5z"/><path fill="#3F3F3F" d="M61 39v-1h7v1h1v13h-1v1h-7v-1h-1V39h1z"/></g><path opacity=".17" d="M68 39v1h-1v11h-1v-3h-1v-2h-1v-3h-1v-5h-2v1h-1v13h1v1h7v-1h1V39h-1z"/></g><g id="rocket-left"><g class="rocket-flame"><path fill="#FF4E00" d="M24 57h1v4h1v5h-1v1h1v4h-1v1h1v2h-1v1h-1v-5h1v-2h-1v-1h-1v-7h-1v-3h2zM26 59v-2h1v4h-1v-2z"/><path fill="#FF9945" d="M23 56h4v1h-1v4h-1v5h-1v-6h-1v-3h-1v-1h1z"/><path fill="#F9F871" d="M24 56h2v2h-1v3h-1v-1h-1v-4h1z"/></g><path d="M20 39v-1h1v-1h7v1h1v1h1v13h-1v1h-1v2h-1v1h-5v-1h-1v-2h-1v-1h-1V39h1z"/><g><path fill="#B3B3B3" d="M22 54v1h5v-1h-5z"/><path fill="#3F3F3F" d="M28 39v-1h-7v1h-1v13h1v1h7v-1h1V39h-1z"/></g><path opacity=".18" d="M21 39v1h1v11h1v-3h1v-2h1v-3h1v-5h2v1h1v13h-1v1h-7v-1h-1V39h1z"/></g></g><path d="M63 47v-4h-1v-3h-1v-2h-1v-1h-1v-1h-1v-1h-1v-1h-1v-1h-1v-1h-2v-1h-2v-1H38v1h-2v1h-2v1h-1v1h-1v1h-1v1h-1v1h-1v1h-1v2h-1v3h-1v4h-1v13h1v3h1v3h1v1h1v1h1v1h2v1h2v-1h1v-1h1v-4h1v3h1v1h1v1h2v-1h1v-1h1v-4h1v-1h1v1h1v4h1v1h1v1h2v-1h1v-1h1v-3h1v4h1v1h1v1h2v-1h2v-1h1v-1h1v-1h1v-3h1v-3h1V47z"/><path class="cg-body-color" fill="#ACE5F3" d="M62 47v-4h-1v-3h-1v-2h-1v-1h-1v-1h-1v-1h-1v-1h-1v-1h-2v-1h-2v-1H38v1h-2v1h-2v1h-1v1h-1v1h-1v1h-1v1h-1v2h-1v3h-1v4h-1v13h1v3h1v3h1v1h1v1h2v1h2v-1h1v-4h1v-1h1v1h1v3h1v1h2v-1h1v-4h1v-1h1v-1h1v1h1v1h1v4h1v1h2v-1h1v-3h1v-1h1v1h1v4h1v1h2v-1h2v-1h1v-1h1v-3h1v-3h1V47z"/><g class="cg-face"><path d="M39 36v1h-3v1h-1v1h-1v1h-1v2h-1v2h1v1h1v1h2v1h3v1h11v-1h3v-1h2v-1h1v-1h1v-2h-1v-2h-1v-1h-1v-1h-1v-1h-3v-1z"/><path fill="#FFF" d="M39 37v1h-3v1h-1v1h-1v2h-1v2h1v1h2v1h3v1h11v-1h3v-1h2v-1h1v-2h-1v-2h-1v-1h-1v-1h-3v-1z"/><g class="cg-eyes"><path d="M52 43v1h-1v-1h1v-1h-3v1h-1v2h5v-2h-1zM40 45h1v-2h-1v2zM39 42h-2v1h3v-1h-1zM36 44v1h1v-2h-1v1z"/></g><g class="cg-digits" style="display: none;"><g class="cg-digit-zero"><path d="M38 40h-2v5h3v-5h-1zm0 2v2h-1v-3h1v1z"/></g><g class="cg-digit-one"><path d="M39 44v1h-3v-1h1v-2h-1v-1h1v-1h1v4h1z"/></g><g class="cg-digit-two"><path d="M39 42h-1v-1h1v1zm-1 3h1v-1h-2v1h1zm0-3h-1v1h1v-1zm-1-2h-1v1h2v-1h-1zm-1 3v1h1v-1h-1z"/></g><g class="cg-digit-three"><path d="M38 44v-1h1v1h-1zm1-3h-1v1h1v-1zm-2 1v1h1v-1h-1zm0-2h-1v1h2v-1h-1zm-1 4v1h2v-1h-2z"/></g><g class="cg-digit-four"><path d="M39 41v4h-1v-2h-2v-3h1v2h1v-1h1z"/></g><g class="cg-digit-five"><path d="M38 44v-1h1v1h-1zm0-3h1v-1h-3v3h2v-1h-1v-1h1zm-2 3v1h2v-1h-2z"/></g><g class="cg-digit-six"><path d="M38 41h-1v-1h2v1h-1zm-2 0v3h1v-1h1v1h-1v1h2v-3h-2v-1h-1z"/></g><g class="cg-digit-seven"><path d="M39 40v5h-1v-4h-2v-1h3z"/></g><g class="cg-digit-eight"><path d="M38 40h-2v5h3v-5h-1zm0 4h-1v-1h1v1zm0-2h-1v-1h1v1z"/></g><g class="cg-digit-nine"><path d="M38 40h-2v3h2v2h1v-5h-1zm0 2h-1v-1h1v1z"/></g><g class="cg-digit-colon"><path d="M45 42h-1v-1h1v1zm0 1h-1v1h1v-1z"/></g></g><g class="cg-time"></g></g><g class="cg-glasses" id="monocle"><path d="M63 47v1h-1v-1h1zm-2 2h1v-1h-1v1zm-1 1h1v-1h-1v1zm-1 1h1v-1h-1v1zm-1 1h1v-1h-1v1zm-1 1h1v-1h-1v1zm-1 1h1v-1h-1v1zm-1-13v5h1v-7h-1v2zm0-2v-1h-1v1h1zm-1 8h1v-1h-1v1zm0 7h-2v1h4v-1h-2zm-3-1v1h1v-1h-1zm0-15h3v-1h-5v1h2zm0 13v-2h1v-1h2v-1h-5v-1h-2v1h1v1h2v5h1v-2zm-2-12v-1h-2v1h2zm-2 1v-1h-1v2h1v-1zm0 4h-1v2h1v-2zm-1-2v-1h-1v3h1v-2z"/><path d="M49 40h-3v-1h3v1zm5-2h-5v1h5v-1z"/><path opacity=".46" fill="#8FEAD0" d="M53 38h1v1h1v7h-1v1h-5v-1h-2v-2h-1v-3h1v-2h2v-1h3z"/><path fill="#FFF" d="M53 40h-1v-1h1v1zm1 0h-1v1h1v-1z"/><path opacity=".17" d="M49 48h6v1h-6z"/></g><g id="super-hair"><path d="M64 20v1h-1v1h-1v-1h-1v-7h-1v-1h-1v1h-1v1h-1v1h-2v1h-1v1h-2v-2h-1v-1h-1v-1h-1v-1h-1v-2h-1v-1h-1V9h-1V8h-1v5h-1v2h-1v-1h-1v-1h-1v-1h-1v-1h-1v-1h-2V9h-1v3h-1v3h-1v3h-1v1h-1v1h-1v1h-1v-1h-1v-1h-1v-1h-1v1h-1v4h-1v4h1v4h1v1h-1v-1h-1v-1h-1v6h1v1h1v1h2v1h2v-1h1v-1h1v-1h1v-1h1v-1h2v1h1v1h1v-1h1v-1h1v-1h1v-1h1v-1h1v-1h1v1h8v3h1v2h1v1h1v-1h1v-1h2v1h1v1h1v1h2v-1h1v-2h1v-2h1v-3h1V20z"/><g class="rgb-hair" fill="#44ABEA"><path d="M24 34v-2h1v1h2v1h1v2h1v-2h-1v-1h-1v-2h-1v-4h-1v-4h1v-4h1v1h1v1h1v1h1v1h1v2h-1v1h-1v1h-1v1h1v1h5v1h1v2h-1v1h-1v1h-1v1h-1v1h-1v1h-1v1h-2v-1h-2v-1h-1v-1zM55 34v1h-1v1h-1v-2h-1v-3h-1v-1h-3v-3h-1v-3h3v1h2v1h2v1h1v1h1v1h1v3h-1v2z"/><path d="M55 17h2v-1h1v-1h1v-1h1v7h1v5h1v-3h1v-1h1v8h-1v3h-1v2h-1v2h-2v-1h-1v-1h-1v-3h1v-3h-1v-1h-1v-1h-1v-1h-1v-5h-1v-2h1v-1h1zM53 24v1h-1v-1h-2v-1h-3v1h-1v1h-1v-1h-2v1h-1v1h-1v1h1v-1h1v-1h2v1h1v1h1v3h-4v-1h2v-1h-2v1h-1v1h-1v1h-1v1h-1v1h-1v1h-1v1h-1v-1h-1v-2h1v-4h1v-2h1v-1h1v-1h-1v1h-1v1h-1v2h-1v1h-1v-1h-5v-1h1v-1h1v-1h2v-1h2v-1h3v-1h-3v1h-2v1h-2v-2h-1v-1h1v-1h1v-1h1v-1h1v-3h1v-3h1v-1h2v1h1v1h1v1h1v1h1v1h1v1h1v2h1v2h1v-2h-1v-2h-1v-1h-1v-1h1v-2h1v-3h1v1h1v2h1v1h1v1h1v1h1v2h1v4h1v1z"/></g><g opacity=".17"><path d="M28 28h1v1h-1zM63 22h1v1h-1zM62 24v2h1v-3h-1v1zM61 27v2h1v-3h-1v1zM59 14h1v1h-1zM58 15h1v1h-1zM57 16h1v1h-1zM55 17v1h2v-1h-2zM54 23v3h1v-5h-1v2zM54 18h1v1h-1zM53 20v1h1v-2h-1v1zM48 28v2h1v-3h-1v1zM48 25v-1h-1v3h1v-2zM45 24h1v1h-1zM45 11v2h1v-3h-1v1zM44 14v1h-1v1h1v1h1v-4h-1v1zM43 29v1h2v-1h-2zM34 31v1h1v-2h-1v1zM33 29h-4v1h5v-1h-1zM31 23h1v-2h1v-2h-1v1h-1v1h-1v1h1v1zM28 33h1v1h-1zM27 37h1v1h-1zM28 31h-1v2h1v-2zM26 36h-1v1h2v-1h-1zM27 29v-2h-1v4h1v-2zM27 22v-3h-1v4h1v-1zM26 25v-2h-1v4h1v-2zM25 34v-2h-1v4h1v-2z"/></g></g><g id="deal-with-it-glasses"><path d="M64 42h-3v1h4v-1zM60 41H28v1h1v2h1v2h1v2h1v1h9v-1h1v-2h1v-2h1v-2h1v2h1v2h1v2h1v1h9v-1h1v-2h1v-2h1v-2h1v-1z"/><path fill="#FFF" d="M33 45v1h-1v-2h1v1zm0 2h1v-1h-1v1zm2-3h-1v2h1v-2zm0 3h1v-1h-1v1zm-1-4h-1v1h1v-1zm-3 0v1h1v-1h-1zm18 1h-1v2h1v-2zm0 3h1v-1h-1v1zm2-3h-1v2h1v-2zm0 2v1h1v-1h-1zm-1-3h-1v1h1v-1zm-3 0v1h1v-1h-1z"/></g></g><a href="/images/png/cg3053-512.png" class="button png-square"><path class="button-bg" d="M26 75h13v11H26z"/><path fill="#FFF" d="M36 77h-1v1h1v5h-1v1h2v-7zm-8 0v7h2v-1h-1v-5h1v-1h-1zm6 3h1v1h-1zm-4 0h1v1h-1zm3 0v-2h-1v3h-1v1h1v1h1v-1h1v-1h-1z"/><title>Download square PNG</title></a><a href="/images/png/cg3053-wide.png" class="button png-wide"><path class="button-bg" d="M42 75h21v11H42z"/><path fill="#FFF" d="M60 77h-1v1h1v5h-1v1h2v-7zm-16 0v7h2v-1h-1v-5h1v-1h-1zm10 3h1v1h-1zm-4 0h1v1h-1zm3 0v-2h-1v3h-1v1h1v1h1v-1h1v-1h-1z"/><title>Download wide PNG</title></a><script type="text/javascript"><![CDATA[
    let cg3053Root = document.getElementById('cg3053');

    if (cg3053Root) {
      let cgRoot = cg3053Root;
      let cgBg = cgRoot.querySelector('.cg-bg');
      let cgBody = cgRoot.querySelector('.cg-body');

      cgBg.addEventListener('dblclick', () => {
        cgRoot.classList.toggle('menu-in');
      });

      cgBody.addEventListener('click', () => {

        let bufferArray = [];
        let lastKeystrokeTime = Date.now();
        const cheatcode = (e) => {

          const key = e.key.toLowerCase();
          const latestKeystrokeTime = Date.now();

          if (latestKeystrokeTime - lastKeystrokeTime > 1500) {
            bufferArray = [];
          }

          bufferArray.push(key);

          const word = bufferArray.join('');
          if (word === 'dealwithit') {
            console.log('No u.');

            cgRoot.classList.add('deal-with-it');

            setTimeout(() => {
              cgRoot.classList.remove('deal-with-it');
            }, 10000);

            clearListener();
          }
  

      if (word === 'blastoff') {
        console.log('Prepare for takeoff!');

        cgRoot.classList.add('blastoff');

        setTimeout(() => {
          cgRoot.classList.remove('blastoff');
        }, 10000);

        clearListener();
      }

    
          lastKeystrokeTime = latestKeystrokeTime;

        }
        document.addEventListener('keyup', cheatcode, true);

        const clearListener = () => {
          document.removeEventListener('keyup', cheatcode, true);
        }

      });
    
    let cgDigits = cgRoot.querySelector('.cg-digits');
    let cgTime = cgRoot.querySelector('.cg-time');
  

      let cgGlasses = cgRoot.querySelector('.cg-glasses');
      cgGlasses.addEventListener('dblclick', () => {
        cgRoot.classList.add('get-time');

        let now = new Date();
        let hours = ('0' + now.getHours()).substr(-2);
        let minutes = ('0' + now.getMinutes()).substr(-2);;
        let digits = [hours.substr(0,1), hours.substr(1), minutes.substr(0,1), minutes.substr(1)];

        cgTime.replaceChildren();

        for (let i = 0; i < 4; i++) {
          switch (digits[i]) {
            case '0':
              cgTime.appendChild(cgDigits.querySelector('.cg-digit-zero').cloneNode(true));
              break;
            case '1':
              cgTime.appendChild(cgDigits.querySelector('.cg-digit-one').cloneNode(true));
              break;
            case '2':
              cgTime.appendChild(cgDigits.querySelector('.cg-digit-two').cloneNode(true));
              break;
            case '3':
              cgTime.appendChild(cgDigits.querySelector('.cg-digit-three').cloneNode(true));
              break;
            case '4':
              cgTime.appendChild(cgDigits.querySelector('.cg-digit-four').cloneNode(true));
              break;
            case '5':
              cgTime.appendChild(cgDigits.querySelector('.cg-digit-five').cloneNode(true));
              break;
            case '6':
              cgTime.appendChild(cgDigits.querySelector('.cg-digit-six').cloneNode(true));
              break;
            case '7':
              cgTime.appendChild(cgDigits.querySelector('.cg-digit-seven').cloneNode(true));
              break;
            case '8':
              cgTime.appendChild(cgDigits.querySelector('.cg-digit-eight').cloneNode(true));
              break;
            case '9':
              cgTime.appendChild(cgDigits.querySelector('.cg-digit-nine').cloneNode(true));
              break;
          }
        }

        cgTime.childNodes[1].style.transform = 'translateX(4px)';
        cgTime.childNodes[2].style.transform = 'translateX(10px)';
        cgTime.childNodes[3].style.transform = 'translateX(14px)';

        cgTime.appendChild(cgDigits.querySelector('.cg-digit-colon').cloneNode(true));

        setTimeout(() => {
          cgRoot.classList.remove('get-time');
        }, 10000);
      });

    }]]></script></svg>