<svg id="cg3202" xmlns="http://www.w3.org/2000/svg" viewBox="0 0 89 89"><style>
    #cg3202 {
      overflow: hidden;
    }

    #cg3202 .button {
      opacity: 0;
      pointer-events: none;
      transition: 0.2s ease;
      transform: translate3d(0, 20px, 0);
    }

    #cg3202 .button.png-wide {
      transition-delay: 0.2s;
    }

    #cg3202.menu-in .button {
      opacity: 1;
      pointer-events: auto;
      cursor: pointer;
      transform: translate3d(0, 0, 0);
    }

    #cg3202.menu-in .button .button-bg {
      transition: fill 0.2s ease;
    }

    #cg3202.menu-in .button:hover .button-bg {
      fill: #FF5FFA;
    }

    #cg3202 .cg-glasses {
      transition: opacity 0.2s ease;
    }

    #cg3202 #deal-with-it-glasses {
      opacity: 0;
      pointer-events: none;
      transition: opacity 0.2s ease, transform 3s linear;
      transform: translate3d(0, -60px, 0);
    }

    #cg3202.deal-with-it #deal-with-it-glasses {
      opacity: 1;
      transform: translate3d(0, 0, 0);
    }

    #cg3202.deal-with-it .cg-glasses {
      opacity: 0;
      transition-delay: 2s;
    }

  
      #cg3202 .cg-glasses {
        transition: opacity 0.2s ease;
      }

      #cg3202.get-time .cg-glasses {
        opacity: 0;
      }
    
    #cg3202 .cg-eyes {
      transition: opacity 0.2s ease;
    }

    #cg3202.get-time .cg-eyes {
      opacity: 0;
    }
  
    #cg3202 .cg-time {
      pointer-events: none;
      transition: opacity 0.2s ease;
      opacity: 0;
    }

    #cg3202.get-time .cg-time {
      opacity: 1;
    }

    #cg3202 .cg-time .cg-digit-colon {
      animation: cg-colon-blink 1s ease-in-out 0s infinite;
    }

    @keyframes cg-colon-blink {
      20% {
        opacity: 1;
      }
      50% {
        opacity: 0;
      }
      80% {
        opacity: 1;
      }
    }
  
    #cg3202 .cg-body {
      animation: cg-anim-hover 1.5s ease-in-out -1.3195s infinite;
      transform-origin: center;
      transform-box: fill-box;
    }

    @keyframes cg-anim-hover {
      0% {
        transform: translate3d(0,0,0);
      }
      50% {
        transform: translate3d(0,-2px,0);
      }
      100% {
        transform: translate3d(0,0,0);
      }
    }
  
    #cg3202 .cg-shadow {
      animation: cg-anim-shadow 1.5s ease-in-out -1.3195s infinite;
      transform-origin: center;
      transform-box: fill-box;
    }

    @keyframes cg-anim-shadow {
      0% {
        transform: scale3d(1,1,1);
      }
      50% {
        transform: scale3d(0.9,1,1);
      }
      100% {
        transform: scale3d(1,1,1);
      }
    }
  
      #cg3202 .spliff-cherry {
        animation: cg-anim-burn 2s linear -1.5092s infinite;
      }

      #cg3202 .spliff-smoke {
        animation: cg-anim-smoke 2s steps(1) -1.5092s infinite;
        transform-origin: center;
        transform-box: fill-box;
      }

      @keyframes cg-anim-burn {
        0% {
          fill: red;
        }
        50% {
          fill: orange;
        }
        100% {
          fill: red;
        }
      }

      @keyframes cg-anim-smoke {
        0% {
          transform: scaleX(1) translate3d(1px, 0, 0);
        }
        50% {
          transform: scaleX(-1) translate3d(-2px, 0, 0);
        }
        100% {
          transform: scaleX(1) translate3d(1px, 0, 0);
        }
      }
    </style><path class="cg-bg" d="M0 0h89v89H0z" fill="#FFF75F"></path><g id="skull-emote"><g id="skull-emote-bg-right"><g><path d="M75 21h-5v-1h-3v-1h1v-1h-1v-6h1v-2h2V9h7v1h2v2h1v6h-1v2h-2v1h-2zM81 12v6h-1v-6h1z"/><path d="M79 19v-1h1v2h-1v-1zM79 10h1v2h-1v-2zM79 9v1h-2V9h2zM79 20v1h-2v-1h2zM77 8v1h-7V8h7zM77 21v1h-7v-1h7zM70 9v1h-2V9h2zM68 10v2h-1v-2h1zM67 18h1v1h-1zM67 16v2h-1v-6h1v4zM70 21h-5v-1h1v-1h1v1h3v1z"/></g></g><path fill="#FF4040" d="M75 21h-5v-1h-3v-1h1v-1h-1v-6h1v-2h2V9h7v1h2v2h1v6h-1v2h-2v1h-2z"/><g id="skull-emote-highlight-right" opacity=".25"><g><g fill="#FFF"><path d="M79.5 13.5v3h-1v-3h1zM77.5 11.5h1v1h-1zM76.5 10.5v1h-2v-1h2z"/></g></g></g><path d="M77 13v-1h-1v-1h-5v1h-1v1h-1v3h1v1h1v2h1v-2h1v2h1v-2h1v2h1v-2h1v-1h1v-3h-1zm-1 1v1h-2v-2h2v1zm-4-1h1v2h-2v-2h1z" id="skull-emote-skull-right"/></g><path class="cg-shadow" opacity=".17" d="M60 79v-1H29v1h-2v1h3v1h29v-1h3v-1z"/><g class="cg-body"><g id="angel-wings"><g id="angel-wings-left"><path d="M23 38v-2h-1v-1h-1v-1h-1v-1h-2v-1h-3v-1h-1v-1h-1v-1h-1v-2h-1v-2h-1v-1H9v-1H7v1H6v1H5v5H4v1H3v4h1v2H3v4h1v1h1v1h1v3h1v1h1v1h4v-1h1v1h7v-1h2v-1h1v-2h1v-6h-1z" id="angel-wings-outline-left"/><g id="Layer_290" fill="#8EE4FF"><path d="M5 41H4v-3h2v1h2v1h3v1h1v1h-2v1H6v-1H5v-1z"/><path d="M14 31v1h1v1h3v1h2v1h1v1h1v2h1v6h-1v2h-2v1h-7v-1h-1v1H8v-1H7v-2h3v-1h2v-1h1v-1h-1v-1h-1v-4h4v2h-1v1h1v-1h1v-2h-1v-1h-4v1h-1v-1H9v-1H8v-1H7v-1H6v-7h1v-1h2v1h1v2h1v2h1v1h1v1h1z"/><path d="M10 38v1H8v-1H6v-1H5v-2H4v-4h1v1h1v1h1v1h1v1h1v1h1v2z"/></g><g opacity=".71" fill="#D9F6FF" id="angel-wings-highlight-left"><path d="M22 43h1v1h-1zM19.7 46H19v1h1v-1h-.3zM20 45v1h2v-1h-2zM22 38h1v1h-1zM22 36h-1v2h1v-2zM10 36H9v3h1v-3zM20 35h1v1h-1zM19 38v1h-1v1h1v1h1v-1h1v-1h-1v-1zM19 34h-1v1h2v-1h-1zM17 33h-2v1h3v-1h-1zM16 41h1v1h-1zM14 32h1v1h-1zM13 31h1v1h-1zM12 30h1v1h-1zM11 29h1v1h-1zM8 24h1v1H8zM11.5 46H11v1h1v-1h-.5zM7.5 39H7v1h1v-1h-.5zM5.5 38H5v1h1v-1h-.5zM8.5 35H8v1h1v-1h-.5zM7.5 34H7v1h1v-1h-.5zM6.5 33H6v1h1v-1h-.5zM5.5 32H5v1h1v-1h-.5zM14.5 36H14v1h1v-1h-.5zM14.5 37H14v1h1v-1h-.5zM13.5 38H13v1h1v-1h-.5zM11 27h-1v2h1v-2zM10 25H9v2h1v-2zM8 29h1v1H8zM11 41h1v1h-1zM9 42h1v1H9zM10 40h1v1h-1zM23 42v-3h-1v4h1v-1z"/></g></g><g id="angel-wings-right"><path d="M86 35v-4h-1v-1h-1v-5h-1v-1h-1v-1h-2v1h-1v1h-1v2h-1v2h-1v1h-1v1h-1v1h-3v1h-2v1h-1v1h-1v1h-1v2h-1v6h1v2h1v1h2v1h7v-1h1v1h4v-1h1v-1h1v-3h1v-1h1v-1h1v-4h-1v-2h1z" id="angel-wings-outline-right"/><g id="Layer_291" fill="#8EE4FF"><path d="M83 42v1h-4v-1h-2v-1h1v-1h3v-1h2v-1h2v3h-1v1h-1z"/><path d="M82 34v-1h1v-1h1v-1h1v4h-1v2h-1v1h-2v1h-2v-3h1v-1h1v-1h1z"/><path d="M77 40v1h-1v1h1v1h2v1h3v2h-1v1h-4v-1h-1v1h-7v-1h-2v-2h-1v-6h1v-2h1v-1h1v-1h2v-1h3v-1h1v-1h1v-1h1v-1h1v-2h1v-2h1v-1h2v1h1v7h-1v1h-1v1h-1v1h-1v1h-1v-1h-4v1h-1v2h1v1h1v-1h-1v-2h4v4h-1z"/></g><g opacity=".71" fill="#D9F6FF" id="angel-wings-highlight-right"><path d="M78 35h1v1h-1zM79 34h1v1h-1zM80 33h1v1h-1zM81 32h1v1h-1zM70 38v1h1v1h-1v1h-1v-1h-1v-1h1v-1zM72 41h1v1h-1zM73 38h1v1h-1zM73 35h1v1h-1zM80 43h-1v-1h4v1h-3zM80 39h-1v-1h2v1h-1zM80 29h1v1h-1zM81 24h1v1h-1zM82 38h-1v-1h2v1h-1zM83 26v6h-1v-7h1v1zM83 41h1v1h-1zM80 46h1v1h-1zM75 46h1v1h-1zM76 42h1v1h-1zM75 41h1v1h-1zM76 40h1v1h-1zM84 37h-1v-2h1v2zM82 46h-1v-2h1v2zM73 38h-1v-2h1v2zM84 39v-1h1v3h-1v-2zM84 34v-3h1v4h-1v-1zM77 39v-3h1v4h-1v-1z"/></g></g></g><path d="M63 47v-4h-1v-3h-1v-2h-1v-1h-1v-1h-1v-1h-1v-1h-1v-1h-1v-1h-2v-1h-2v-1H38v1h-2v1h-2v1h-1v1h-1v1h-1v1h-1v1h-1v1h-1v2h-1v3h-1v4h-1v13h1v3h1v3h1v1h1v1h1v1h2v1h2v-1h1v-1h1v-4h1v3h1v1h1v1h2v-1h1v-1h1v-4h1v-1h1v1h1v4h1v1h1v1h2v-1h1v-1h1v-3h1v4h1v1h1v1h2v-1h2v-1h1v-1h1v-1h1v-3h1v-3h1V47z"/><path class="cg-body-color" fill="#88E276" d="M62 47v-4h-1v-3h-1v-2h-1v-1h-1v-1h-1v-1h-1v-1h-1v-1h-2v-1h-2v-1H38v1h-2v1h-2v1h-1v1h-1v1h-1v1h-1v1h-1v2h-1v3h-1v4h-1v13h1v3h1v3h1v1h1v1h2v1h2v-1h1v-4h1v-1h1v1h1v3h1v1h2v-1h1v-4h1v-1h1v-1h1v1h1v1h1v4h1v1h2v-1h1v-3h1v-1h1v1h1v4h1v1h2v-1h2v-1h1v-1h1v-3h1v-3h1V47z"/><g class="cg-face"><path d="M39 36v1h-3v1h-1v1h-1v1h-1v2h-1v2h1v1h1v1h2v1h3v1h11v-1h3v-1h2v-1h1v-1h1v-2h-1v-2h-1v-1h-1v-1h-1v-1h-3v-1z"/><path fill="#FFF" d="M39 37v1h-3v1h-1v1h-1v2h-1v2h1v1h2v1h3v1h11v-1h3v-1h2v-1h1v-2h-1v-2h-1v-1h-1v-1h-3v-1z"/><g class="cg-eyes"><path d="M53 42h-1v-1h1v1zm-3 0v2h2v-2h-2zm-1 3h1v-1h-1v1zm0-4v1h1v-1h-1zm-9 4v-1h-1v1h1zm-4 0h1v-1h-1v1zm17 0v-1h-1v1h1zm-16-3h-1v1h1v1h2v-1h1v-1h-3z"/></g><g class="cg-digits" style="display: none;"><g class="cg-digit-zero"><path d="M38 40h-2v5h3v-5h-1zm0 2v2h-1v-3h1v1z"/></g><g class="cg-digit-one"><path d="M39 44v1h-3v-1h1v-2h-1v-1h1v-1h1v4h1z"/></g><g class="cg-digit-two"><path d="M39 42h-1v-1h1v1zm-1 3h1v-1h-2v1h1zm0-3h-1v1h1v-1zm-1-2h-1v1h2v-1h-1zm-1 3v1h1v-1h-1z"/></g><g class="cg-digit-three"><path d="M38 44v-1h1v1h-1zm1-3h-1v1h1v-1zm-2 1v1h1v-1h-1zm0-2h-1v1h2v-1h-1zm-1 4v1h2v-1h-2z"/></g><g class="cg-digit-four"><path d="M39 41v4h-1v-2h-2v-3h1v2h1v-1h1z"/></g><g class="cg-digit-five"><path d="M38 44v-1h1v1h-1zm0-3h1v-1h-3v3h2v-1h-1v-1h1zm-2 3v1h2v-1h-2z"/></g><g class="cg-digit-six"><path d="M38 41h-1v-1h2v1h-1zm-2 0v3h1v-1h1v1h-1v1h2v-3h-2v-1h-1z"/></g><g class="cg-digit-seven"><path d="M39 40v5h-1v-4h-2v-1h3z"/></g><g class="cg-digit-eight"><path d="M38 40h-2v5h3v-5h-1zm0 4h-1v-1h1v1zm0-2h-1v-1h1v1z"/></g><g class="cg-digit-nine"><path d="M38 40h-2v3h2v2h1v-5h-1zm0 2h-1v-1h1v1z"/></g><g class="cg-digit-colon"><path d="M45 42h-1v-1h1v1zm0 1h-1v1h1v-1z"/></g></g><g class="cg-time"></g></g><g id="lightning-bolt-tattoo" opacity=".3"><path d="M31 54h1v1h-1zM36 50h-2v-1h1v-1h1v-2h-2v1h-1v1h-1v1h-1v1h2v1h1v1h-1v1h-1v1h2v-1h1v-1h1v-1h1v-1h-1z"/></g><g id="spliff"><g><g><g><path d="M61 51h1v1h-1zM61 49h1v1h-1zM61 50h1v1h-1zM61 52h1v1h-1zM60 49h1v1h-1zM60 52h1v1h-1zM59 49h1v1h-1zM59 52h1v1h-1zM58 49h1v1h-1zM58 52h1v1h-1zM57 49h1v1h-1zM57 52h1v1h-1zM56 49h1v1h-1zM56 52h1v1h-1zM55 50h1v1h-1zM55 52h1v1h-1zM54 50h1v1h-1zM54 52h1v1h-1zM53 50h1v1h-1zM53 52h1v1h-1zM52 50h1v1h-1zM52 52h1v1h-1zM51 50h1v1h-1zM51 53h1v1h-1zM50 50h1v1h-1zM50 53h1v1h-1zM49 51h1v1h-1zM49 53h1v1h-1zM48 51h1v1h-1z"/><path fill="#FFF" d="M51 51h5v-1h5v2h-9v1h-5v-1h3v-1z"/><path d="M48 53h1v1h-1zM47 51h1v1h-1zM47 53h1v1h-1zM46 52h1v1h-1zM45 52h1v1h-1z"/></g></g><path class="spliff-cherry" fill="red" d="M60 50h1v2h-1z"/></g><g class="spliff-smoke" fill="gray"><path d="M60 49h1v-2h-1v1zM58 41h1v1h-1zM59 40h1v1h-1zM60 42h-1v2h1v-1zM60 44h1v1h-1zM60 45h-1v2h1v-1z"/></g></g><g id="hockey-stick"><g><path d="M77 65H62v1h-1v1h-1v1h-1v1h18v-1h1v-2h-1v-1zM53 66v-1H36v3h-1v1h19v-1h-1v-2zM29 67h-1v-1h-1v-1h-8v-1h-1v-2h-1v-2h-1v-2h-1v-4h-1v-3h-1v-1H7v1H6v3h1v4h1v2h1v2h1v2h1v1h1v1h1v1h1v1h2v1h14v-1h-1v-1z"/></g><g><path fill="#754C24" d="M72 68H60v-1h1v-1h16v2h-5zM52 66h1v2H36v-2h16zM28 67v-1h-9v-1h-1v-1h-1v-2h-1v-2h-1v-2h-1v-4h-1v-3H7v3h1v4h1v2h1v2h1v2h1v1h1v1h1v1h2v1h13v-1h-1z"/><path fill="#333" d="M17 64v-2h-1v-2h-1v-2h-1v-4h-1v-1H7v1h1v4h1v2h1v2h1v2h1v1h6v-1z"/></g><g><path opacity=".23" d="M7 53h6v1H7zM8 55h6v1H8zM8 57h6v1H8zM9 59h6v1H9zM10 61h6v1h-6zM11 63h6v1h-6zM20 66h8v1h-8zM36 66h17v1H36zM61 66h16v1H61z"/></g></g><g class="cg-glasses" id="ghost-pods"><g id="ghost-pod-left"><path id="ghost-pod-bg-left" d="M28 42v-1h-3v1h-1v4h-1v4h1v1h2v-4h1v-1h1v-1h1v-3z"/><path fill="#FFF" d="M25 50v-3h1v-2h2v-3h-3v4h-1v4" id="ghost-pod-inner-left"/></g><g id="ghost-pod-right"><path id="ghost-pod-bg-right" d="M65 46v-4h-1v-1h-3v1h-1v3h1v1h1v1h1v4h2v-1h1v-4z"/><path id="ghost-pod-inner-right" fill="#FFF" d="M64 50v-3h-1v-2h-2v-3h3v4h1v4"/></g></g><g id="pirate-hat"><path d="M62 27v-1h-1v-1h-4v1h-3v-1h-2v-1h-1v-1h-1v-1h-1v-1h-1v-1h-2v-1h-3v1h-2v1h-1v1h-1v1h-1v1h-1v1h-2v1h-3v-1h-4v1h-1v1h-1v3h1v2h1v1h1v1h1v1h1v1h2v-1h7v-1h9v1h7v1h2v-1h1v-1h1v-1h1v-1h1v-2h1v-3h-1z"/><path fill="#204D8E" d="M61 27v-1h-4v1h-3v-1h-2v-1h-1v-1h-1v-1h-1v-1h-1v-1h-2v-1h-3v1h-2v1h-1v1h-1v1h-1v1h-1v1h-2v1h-3v-1h-4v1h-1v3h1v2h1v1h1v1h1v1h2v-1h7v-1h9v1h7v1h2v-1h1v-1h1v-1h1v-2h1v-3h-1z"/><g><path d="M61 28h1v1h-1zM60 27h-3v1h4v-1zM55 28h-1v1h3v-1h-1zM53 27h-1v1h2v-1zM51 26h1v1h-1zM50 25h1v1h-1zM49 24h1v1h-1zM48 23h1v1h-1zM47 22h-1v1h2v-1zM45 21h-2v1h3v-1zM41 22v1h2v-1h-1zM40 23h1v1h-1zM39 24h1v1h-1zM38 25h1v1h-1zM37 26h1v1h-1zM35 27v1h2v-1h-1zM33 28h-1v1h3v-1h-1zM31 27h-3v1h4v-1z"/><path opacity=".26" d="M57.5 34H56v1h2v-1zM32.5 34H31v1h2v-1z"/><path d="M27 28h1v1h-1z"/><g fill="#FFF"><path d="M41 30v1h2v-1h-2zM47 31h1v-1h-2v1h1zM45 29v-1h1v-1h-1v-1h1v-1h-3v1h1v1h-1v1h1v1h-1v1h3v-1h-1zM42 28h-1v1h2v-1h-1zM47 29h1v-1h-2v1h1zM46 26h1v1h-1zM42 26h1v1h-1z"/></g><g fill="#FFF"><path d="M61 27h1v1h-1zM60 26h-3v1h4v-1zM55 27h-1v1h3v-1h-1zM53 26h-1v1h2v-1zM51 25h1v1h-1zM50 24h1v1h-1zM49 23h1v1h-1zM48 22h1v1h-1zM47 21h-1v1h2v-1zM45 20h-2v1h3v-1zM41 21v1h2v-1h-1zM40 22h1v1h-1zM39 23h1v1h-1zM38 24h1v1h-1zM37 25h1v1h-1zM35 26v1h2v-1h-1zM33 27h-1v1h3v-1h-1zM31 26h-3v1h4v-1zM27 27h1v1h-1z"/></g></g></g><g id="deal-with-it-glasses"><path d="M64 42h-3v1h4v-1zM60 41H28v1h1v2h1v2h1v2h1v1h9v-1h1v-2h1v-2h1v-2h1v2h1v2h1v2h1v1h9v-1h1v-2h1v-2h1v-2h1v-1z"/><path fill="#FFF" d="M33 45v1h-1v-2h1v1zm0 2h1v-1h-1v1zm2-3h-1v2h1v-2zm0 3h1v-1h-1v1zm-1-4h-1v1h1v-1zm-3 0v1h1v-1h-1zm18 1h-1v2h1v-2zm0 3h1v-1h-1v1zm2-3h-1v2h1v-2zm0 2v1h1v-1h-1zm-1-3h-1v1h1v-1zm-3 0v1h1v-1h-1z"/></g></g><a href="/images/png/cg3202-512.png" class="button png-square"><path class="button-bg" d="M26 75h13v11H26z"/><path fill="#FFF" d="M36 77h-1v1h1v5h-1v1h2v-7zm-8 0v7h2v-1h-1v-5h1v-1h-1zm6 3h1v1h-1zm-4 0h1v1h-1zm3 0v-2h-1v3h-1v1h1v1h1v-1h1v-1h-1z"/><title>Download square PNG</title></a><a href="/images/png/cg3202-wide.png" class="button png-wide"><path class="button-bg" d="M42 75h21v11H42z"/><path fill="#FFF" d="M60 77h-1v1h1v5h-1v1h2v-7zm-16 0v7h2v-1h-1v-5h1v-1h-1zm10 3h1v1h-1zm-4 0h1v1h-1zm3 0v-2h-1v3h-1v1h1v1h1v-1h1v-1h-1z"/><title>Download wide PNG</title></a><script type="text/javascript"><![CDATA[
    let cg3202Root = document.getElementById('cg3202');

    if (cg3202Root) {
      let cgRoot = cg3202Root;
      let cgBg = cgRoot.querySelector('.cg-bg');
      let cgBody = cgRoot.querySelector('.cg-body');

      cgBg.addEventListener('dblclick', () => {
        cgRoot.classList.toggle('menu-in');
      });

      cgBody.addEventListener('click', () => {

        let bufferArray = [];
        let lastKeystrokeTime = Date.now();
        const cheatcode = (e) => {

          const key = e.key.toLowerCase();
          const latestKeystrokeTime = Date.now();

          if (latestKeystrokeTime - lastKeystrokeTime > 1500) {
            bufferArray = [];
          }

          bufferArray.push(key);

          const word = bufferArray.join('');
          if (word === 'dealwithit') {
            console.log('No u.');

            cgRoot.classList.add('deal-with-it');

            setTimeout(() => {
              cgRoot.classList.remove('deal-with-it');
            }, 10000);

            clearListener();
          }
  
          lastKeystrokeTime = latestKeystrokeTime;

        }
        document.addEventListener('keyup', cheatcode, true);

        const clearListener = () => {
          document.removeEventListener('keyup', cheatcode, true);
        }

      });
    
    let cgDigits = cgRoot.querySelector('.cg-digits');
    let cgTime = cgRoot.querySelector('.cg-time');
  

      let cgGlasses = cgRoot.querySelector('.cg-glasses');
      cgGlasses.addEventListener('dblclick', () => {
        cgRoot.classList.add('get-time');

        let now = new Date();
        let hours = ('0' + now.getHours()).substr(-2);
        let minutes = ('0' + now.getMinutes()).substr(-2);;
        let digits = [hours.substr(0,1), hours.substr(1), minutes.substr(0,1), minutes.substr(1)];

        cgTime.replaceChildren();

        for (let i = 0; i < 4; i++) {
          switch (digits[i]) {
            case '0':
              cgTime.appendChild(cgDigits.querySelector('.cg-digit-zero').cloneNode(true));
              break;
            case '1':
              cgTime.appendChild(cgDigits.querySelector('.cg-digit-one').cloneNode(true));
              break;
            case '2':
              cgTime.appendChild(cgDigits.querySelector('.cg-digit-two').cloneNode(true));
              break;
            case '3':
              cgTime.appendChild(cgDigits.querySelector('.cg-digit-three').cloneNode(true));
              break;
            case '4':
              cgTime.appendChild(cgDigits.querySelector('.cg-digit-four').cloneNode(true));
              break;
            case '5':
              cgTime.appendChild(cgDigits.querySelector('.cg-digit-five').cloneNode(true));
              break;
            case '6':
              cgTime.appendChild(cgDigits.querySelector('.cg-digit-six').cloneNode(true));
              break;
            case '7':
              cgTime.appendChild(cgDigits.querySelector('.cg-digit-seven').cloneNode(true));
              break;
            case '8':
              cgTime.appendChild(cgDigits.querySelector('.cg-digit-eight').cloneNode(true));
              break;
            case '9':
              cgTime.appendChild(cgDigits.querySelector('.cg-digit-nine').cloneNode(true));
              break;
          }
        }

        cgTime.childNodes[1].style.transform = 'translateX(4px)';
        cgTime.childNodes[2].style.transform = 'translateX(10px)';
        cgTime.childNodes[3].style.transform = 'translateX(14px)';

        cgTime.appendChild(cgDigits.querySelector('.cg-digit-colon').cloneNode(true));

        setTimeout(() => {
          cgRoot.classList.remove('get-time');
        }, 10000);
      });

    }]]></script></svg>