<svg id="cg3352" xmlns="http://www.w3.org/2000/svg" viewBox="0 0 89 89"><style>
    #cg3352 {
      overflow: hidden;
    }

    #cg3352 .button {
      opacity: 0;
      pointer-events: none;
      transition: 0.2s ease;
      transform: translate3d(0, 20px, 0);
    }

    #cg3352 .button.png-wide {
      transition-delay: 0.2s;
    }

    #cg3352.menu-in .button {
      opacity: 1;
      pointer-events: auto;
      cursor: pointer;
      transform: translate3d(0, 0, 0);
    }

    #cg3352.menu-in .button .button-bg {
      transition: fill 0.2s ease;
    }

    #cg3352.menu-in .button:hover .button-bg {
      fill: #FF5FFA;
    }

    #cg3352 .cg-glasses {
      transition: opacity 0.2s ease;
    }

    #cg3352 #deal-with-it-glasses {
      opacity: 0;
      pointer-events: none;
      transition: opacity 0.2s ease, transform 3s linear;
      transform: translate3d(0, -60px, 0);
    }

    #cg3352.deal-with-it #deal-with-it-glasses {
      opacity: 1;
      transform: translate3d(0, 0, 0);
    }

    #cg3352.deal-with-it .cg-glasses {
      opacity: 0;
      transition-delay: 2s;
    }

  
      #cg3352.blastoff .cg-body {
        animation: cg-anim-takeoff 10s ease-in 0s;
      }

      #cg3352.blastoff .cg-shadow {
        animation: cg-anim-shadow-takeoff 10s ease-in 0s;
      }

      #cg3352.blastoff .rocket-flame {
        animation-name: cg-anim-rocket-blastoff;
      }
    
    #cg3352 .cg-eyes {
      transition: opacity 0.2s ease;
    }

    #cg3352.get-time .cg-eyes {
      opacity: 0;
    }
  
    #cg3352 .cg-time {
      pointer-events: none;
      transition: opacity 0.2s ease;
      opacity: 0;
    }

    #cg3352.get-time .cg-time {
      opacity: 1;
    }

    #cg3352 .cg-time .cg-digit-colon {
      animation: cg-colon-blink 1s ease-in-out 0s infinite;
    }

    @keyframes cg-colon-blink {
      20% {
        opacity: 1;
      }
      50% {
        opacity: 0;
      }
      80% {
        opacity: 1;
      }
    }
  
    #cg3352 .cg-body {
      animation: cg-anim-hover 1.5s ease-in-out -0.4078s infinite;
      transform-origin: center;
      transform-box: fill-box;
    }

    @keyframes cg-anim-hover {
      0% {
        transform: translate3d(0,0,0);
      }
      50% {
        transform: translate3d(0,-2px,0);
      }
      100% {
        transform: translate3d(0,0,0);
      }
    }
  
      @keyframes cg-anim-takeoff {
        0% {
          transform: translate3d(0,0,0);
        }
        95% {
          transform: translate3d(0,-120px,0);
        }
        100% {
          transform: translate3d(0,0,0);
        }
      }
    
    #cg3352 .cg-shadow {
      animation: cg-anim-shadow 1.5s ease-in-out -0.4078s infinite;
      transform-origin: center;
      transform-box: fill-box;
    }

    @keyframes cg-anim-shadow {
      0% {
        transform: scale3d(1,1,1);
      }
      50% {
        transform: scale3d(0.9,1,1);
      }
      100% {
        transform: scale3d(1,1,1);
      }
    }
  
      @keyframes cg-anim-shadow-takeoff {
        0% {
          transform: scale3d(0.9,1,1);
        }
        95% {
          transform: scale3d(0.1,1,1);
        }
        100% {
          transform: scale3d(1,1,1);
        }
      }
    
      @keyframes cg-anim-rgb {
        0% {
          fill: #FF5F5F;
        }
        11.1111% {
          fill: #FFA45F;
        }
        22.2222% {
          fill: #BAFF5F;
        }
        33.3333% {
          fill: #5FFF74;
        }
        44.4444% {
          fill: #5FFFCE;
        }
        55.5555% {
          fill: #5FD9FF;
        }
        66.6666% {
          fill: #5F6AFF;
        }
        77.7777% {
          fill: #AA5FFF;
        }
        88.8888% {
          fill: #FF5FFA;
        }
        100% {
          fill: #FF5F5F;
        }
      }
    
      #cg3352 .star-color {
        animation: cg-anim-rgb 5s linear -0.1407s infinite;
      }
    
      #cg3352 .rgb-color {
        animation: cg-anim-rgb 5s linear -3.8648s infinite;
      }
    
      #cg3352 .rocket-flame {
        animation: cg-anim-rocket 0.5s steps(1) -0.0028s infinite;
        transform-origin: center top;
        transform-box: fill-box;
      }

      @keyframes cg-anim-rocket {
        0% {
          transform: scaleX(1) translate3d(0, 0, 0);
        }
        25% {
          transform: scaleX(-1) translate3d(0, -1px, 0);
        }
        50% {
          transform: scaleX(1) translate3d(0, -2px, 0);
        }
        75% {
          transform: scaleX(-1) translate3d(0, -1px, 0);
        }
        100% {
          transform: scaleX(1) translate3d(0, 0, 0);
        }
      }

      @keyframes cg-anim-rocket-blastoff {
        0% {
          transform: scaleX(1) scaleY(1) translate3d(0, 0, 0);
        }
        25% {
          transform: scaleX(-1) scaleY(1.5) translate3d(0, -1px, 0);
        }
        50% {
          transform: scaleX(1) scaleY(2) translate3d(0, -2px, 0);
        }
        75% {
          transform: scaleX(-1) scaleY(1.5) translate3d(0, -1px, 0);
        }
        100% {
          transform: scaleX(1) scaleY(1) translate3d(0, 0, 0);
        }
      }
    </style><path class="cg-bg" d="M0 0h89v89H0z" fill="#707138"></path><g id="star-expression"><path d="M25 16h1v1h-1zM24 17h1v1h-1zM22 6h1v1h-1zM23 16h2v-1h-3v1h1zM22 18v1h2v-1h-2zM21 5h1v1h-1zM21 7h1v1h-1zM22 15v-1h-2v1h2zM21 17h-1v1h2v-1h-1zM20 4h1v1h-1zM20 8h1v1h-1zM20 15h-1v2h1v-2zM19 5h1v1h-1zM19 10h1V9h-1V6h-1v5h1v-1zM16 14v1h1v-2h-1v1zM15 11h1V9h-1v2zM15 12h1v1h-1zM14 11h1v1h-1zM14 15h-1v1h3v-1h-2zM12 16h1v1h-1zM12 9h3V8h-4v1h1zM11 17h1v1h-1zM10 7h1v1h-1zM10 7V6H8v1h2zM9 18v1h2v-1H9zM8 17h1v1H8zM8 9V7H7v3h1V9zM8 15H7v2h1v-2zM6 10h1v1H6zM6 14H5v1h2v-1H6zM5 11h1v1H5zM5 12H4v2h1v-2z"/><g><path class="star-color" fill="#FECAD2" d="M16 13v2h-3v1h-1v1h-1v1H9v-1H8v-2H7v-1H5v-2h1v-1h1v-1h1V7h2v1h1v1h4v2h-1v1h1v1h1z"/></g><g><path class="star-color" fill="#FECAD2" d="M22 6v1h-1v1h-1v1h-1V6h1V5h1v1h1z"/></g><g><path class="star-color" fill="#FECAD2" d="M25 16v1h-1v1h-2v-1h-2v-2h2v1h3z"/></g><g opacity=".71" fill="#FFF"><path d="M15 13h1v1h-1zM14 12h1v1h-1zM15 10V9h-1v1h1zM10 8h1v1h-1zM14 10h1v1h-1zM9 7h1v1H9zM15 14h1v1h-1zM12 15h1v1h-1zM21 6h1v1h-1zM20 5h1v1h-1zM20 7h1v1h-1zM19 8h1v1h-1zM24 16h1v1h-1zM23 17h1v1h-1zM21 15h1v1h-1zM11 16h1v1h-1zM10 17h1v1h-1z"/></g></g><path class="cg-shadow" opacity=".17" d="M60 79v-1H29v1h-2v1h3v1h29v-1h3v-1z"/><g class="cg-body"><g id="rockets"><g id="rocket-right"><g class="rocket-flame"><path fill="#FF4E00" d="M65 57h-1v4h-1v5h1v1h-1v4h1v1h-1v2h1v1h1v-5h-1v-2h1v-1h1v-7h1v-3h-2zM63 59v-2h-1v4h1v-2z"/><path fill="#FF9945" d="M66 56h-4v1h1v4h1v5h1v-6h1v-3h1v-1h-1z"/><path fill="#F9F871" d="M65 56h-2v2h1v3h1v-1h1v-4h-1z"/></g><path d="M69 39v-1h-1v-1h-7v1h-1v1h-1v13h1v1h1v2h1v1h5v-1h1v-2h1v-1h1V39h-1z"/><g><path fill="#B3B3B3" d="M67 54v1h-5v-1h5z"/><path fill="#3F3F3F" d="M61 39v-1h7v1h1v13h-1v1h-7v-1h-1V39h1z"/></g><path opacity=".17" d="M68 39v1h-1v11h-1v-3h-1v-2h-1v-3h-1v-5h-2v1h-1v13h1v1h7v-1h1V39h-1z"/></g><g id="rocket-left"><g class="rocket-flame"><path fill="#FF4E00" d="M24 57h1v4h1v5h-1v1h1v4h-1v1h1v2h-1v1h-1v-5h1v-2h-1v-1h-1v-7h-1v-3h2zM26 59v-2h1v4h-1v-2z"/><path fill="#FF9945" d="M23 56h4v1h-1v4h-1v5h-1v-6h-1v-3h-1v-1h1z"/><path fill="#F9F871" d="M24 56h2v2h-1v3h-1v-1h-1v-4h1z"/></g><path d="M20 39v-1h1v-1h7v1h1v1h1v13h-1v1h-1v2h-1v1h-5v-1h-1v-2h-1v-1h-1V39h1z"/><g><path fill="#B3B3B3" d="M22 54v1h5v-1h-5z"/><path fill="#3F3F3F" d="M28 39v-1h-7v1h-1v13h1v1h7v-1h1V39h-1z"/></g><path opacity=".18" d="M21 39v1h1v11h1v-3h1v-2h1v-3h1v-5h2v1h1v13h-1v1h-7v-1h-1V39h1z"/></g></g><path d="M63 47v-4h-1v-3h-1v-2h-1v-1h-1v-1h-1v-1h-1v-1h-1v-1h-1v-1h-2v-1h-2v-1H38v1h-2v1h-2v1h-1v1h-1v1h-1v1h-1v1h-1v1h-1v2h-1v3h-1v4h-1v13h1v3h1v3h1v1h1v1h1v1h2v1h2v-1h1v-1h1v-4h1v3h1v1h1v1h2v-1h1v-1h1v-4h1v-1h1v1h1v4h1v1h1v1h2v-1h1v-1h1v-3h1v4h1v1h1v1h2v-1h2v-1h1v-1h1v-1h1v-3h1v-3h1V47z"/><path class="cg-body-color" fill="#ACE5F3" d="M62 47v-4h-1v-3h-1v-2h-1v-1h-1v-1h-1v-1h-1v-1h-1v-1h-2v-1h-2v-1H38v1h-2v1h-2v1h-1v1h-1v1h-1v1h-1v1h-1v2h-1v3h-1v4h-1v13h1v3h1v3h1v1h1v1h2v1h2v-1h1v-4h1v-1h1v1h1v3h1v1h2v-1h1v-4h1v-1h1v-1h1v1h1v1h1v4h1v1h2v-1h1v-3h1v-1h1v1h1v4h1v1h2v-1h2v-1h1v-1h1v-3h1v-3h1V47z"/><g class="cg-face"><path d="M39 36v1h-3v1h-1v1h-1v1h-1v2h-1v2h1v1h1v1h2v1h3v1h11v-1h3v-1h2v-1h1v-1h1v-2h-1v-2h-1v-1h-1v-1h-1v-1h-3v-1z"/><path fill="#FFF" d="M39 37v1h-3v1h-1v1h-1v2h-1v2h1v1h2v1h3v1h11v-1h3v-1h2v-1h1v-2h-1v-2h-1v-1h-1v-1h-3v-1z"/><g class="cg-eyes"><path d="M52 43h1v1h-1zM51 42h-1v1h2v-1h-1z"/><path d="M52 44h1v-1h-3v1h2zM50 45h2v-1h-3v1h1zM50 43v-2h-1v3h1v-1zM39 43h1v1h-1zM38 42h-1v1h2v-1h-1z"/><path d="M39 44h1v-1h-3v1h2zM37 45h2v-1h-3v1h1zM37 43v-2h-1v3h1v-1z"/></g><g class="cg-digits" style="display: none;"><g class="cg-digit-zero"><path d="M38 40h-2v5h3v-5h-1zm0 2v2h-1v-3h1v1z"/></g><g class="cg-digit-one"><path d="M39 44v1h-3v-1h1v-2h-1v-1h1v-1h1v4h1z"/></g><g class="cg-digit-two"><path d="M39 42h-1v-1h1v1zm-1 3h1v-1h-2v1h1zm0-3h-1v1h1v-1zm-1-2h-1v1h2v-1h-1zm-1 3v1h1v-1h-1z"/></g><g class="cg-digit-three"><path d="M38 44v-1h1v1h-1zm1-3h-1v1h1v-1zm-2 1v1h1v-1h-1zm0-2h-1v1h2v-1h-1zm-1 4v1h2v-1h-2z"/></g><g class="cg-digit-four"><path d="M39 41v4h-1v-2h-2v-3h1v2h1v-1h1z"/></g><g class="cg-digit-five"><path d="M38 44v-1h1v1h-1zm0-3h1v-1h-3v3h2v-1h-1v-1h1zm-2 3v1h2v-1h-2z"/></g><g class="cg-digit-six"><path d="M38 41h-1v-1h2v1h-1zm-2 0v3h1v-1h1v1h-1v1h2v-3h-2v-1h-1z"/></g><g class="cg-digit-seven"><path d="M39 40v5h-1v-4h-2v-1h3z"/></g><g class="cg-digit-eight"><path d="M38 40h-2v5h3v-5h-1zm0 4h-1v-1h1v1zm0-2h-1v-1h1v1z"/></g><g class="cg-digit-nine"><path d="M38 40h-2v3h2v2h1v-5h-1zm0 2h-1v-1h1v1z"/></g><g class="cg-digit-colon"><path d="M45 42h-1v-1h1v1zm0 1h-1v1h1v-1z"/></g></g><g class="cg-time"></g></g><g id="medical-mask"><g><path d="M63 47v-1h-2v1h2zM63 55v-1h-2v1h2zM60 47h1v1h-1zM61 56v-1h-2v1h2zM59 48h1v1h-1zM58 54v-3h1v-2h-1v-1h-5v-1h-5v-1h-7v1h-5v1h-5v1h-1v2h1v5h-1v2h1v1h5v1h5v1h7v-1h5v-1h5v-1h1v-2h-1v-2zM29 48h1v1h-1zM29 55h-1v1h2v-1h-1zM28 47h1v1h-1zM27 46h-1v1h2v-1h-1zM27 54h-1v1h2v-1h-1z"/></g><path fill="#9FF7F7" d="M48 48h5v1h5v2h-1v5h1v2h-5v1h-5v1h-7v-1h-5v-1h-5v-2h1v-5h-1v-2h5v-1h5v-1h7v1z"/><g opacity=".23"><path d="M52 53H36v1h17v-1h-1zM50 56h-2v1h4v-1h-2zM46 57h-5v1h7v-1h-2zM40 56h-3v1h4v-1h-1zM49 51h3v-1h-4v1h1zM43 50h5v-1h-7v1h2zM39 51h2v-1h-4v1h2z"/></g></g><g id="rasta-dreads"><path d="M59 32v-1h-1v-1h-1v-1h-1v-1h-2v-1h-3v-2h1v-1h1v-1h1v-2h1v-4h-1v-1h-1v-1h-2v1h-1v-3h-1v-1h-1v-1h-3v1h-1v1h-1v3h-1v-4h-1v-1h-1v-1h-3v1h-1v1h-1v4h1v2h-1v-1h-1v-1h-1v-1h-2v1h-1v1h-1v3h1v1h1v1h2v1h1v1h1v1h1v2h-1v1h-3v1h-1v1h-1v1h-1v1h-1v2h1v1h1v1h2v-1h1v-1h1v3h1v2h1v1h2v-1h1v-5h1v-1h7v1h1v3h-1v2h1v1h3v-1h1v-2h1v-4h2v1h1v1h1v1h1v-1h1v-1h1v-2h-1z"/><path fill="#333" d="M58 32v-1h-1v-1h-1v-1h-2v-1h-4v-3h1v-1h1v-1h1v-2h1v-4h-1v-1h-2v1h-1v3h-1v3h-1v1h-1v-1h1v-5h1v-5h-1v-1h-3v1h-1v4h-1v6h-1v-7h-1v-4h-1v-1h-3v1h-1v4h1v4h1v1h1v2h-1v-2h-1v-1h-1v-1h-1v-1h-1v-1h-1v-1h-2v1h-1v3h1v1h2v1h1v1h1v1h1v1h1v3h-2v1h-3v1h-1v1h-1v1h-1v2h1v1h2v-1h1v-1h1v-1h1v5h1v2h2v-5h1v-1h1v-1h7v1h1v1h1v3h-1v2h3v-2h1v-6h1v1h2v1h1v1h1v1h1v-1h1v-2h-1z"/><path fill="#FF2727" d="M49 26h-1v-1h-9v1h-2v1h13v-1h-1z"/><path fill="#FFFF29" d="M49 27H37v1h2v1h8v-1h3v-1h-1z"/><path fill="#8EFF2C" d="M49 28h-2v1h-8v-1h-2v1h1v1h11v-1h1v-1h-1z"/><g><path d="M50 28h1v1h-1zM49 29h1v1h-1zM47 30h-9v1h11v-1h-2zM37 29h1v1h-1zM36 28h1v1h-1zM49 26h1v-1h-2v1h1zM41 25h7v-1h-9v1h2zM39 26v-1h-2v1h2z"/></g><g opacity=".2"><path d="M50 37v-3h-1v3h-1v2h3v-1h-1v-1zM38 29h1v1h-1zM38 28v-2h-1v3h1v-1zM57 34h1v1h-1zM56 33h1v1h-1zM55 32h1v1h-1zM54 31h-1v1h2v-1h-1zM48 33h1v1h-1zM47 32h1v1h-1zM39 32h1v1h-1zM37 35v3h-1v1h2v-5h-1v1zM38 33h1v1h-1zM37 30v-1h-1v-1h-1v1h-3v1h-1v1h-1v1h-1v2h1v1h2v-1h1v-1h1v-1h-1v-1h1v-1h3zM51 16h1v1h-1zM48 24v1h1v-2h-1v1zM49 21v2h1v-3h-1v1zM50 18v2h1v-3h-1v1zM45 12h1v1h-1zM44 14v2h1v-3h-1v1zM43 18v5h1v-6h-1v1zM39 22v1h1v-2h-1v1zM38 20h1v1h-1zM38 18v-2h-1v4h1v-2zM37 14v-2h-1v4h1v-2zM31 21h2v1h1v1h1v1h1v1h3v-1h-2v-1h-1v-1h-1v-1h-1v-1h-1v-1h-1v-2h1v-1h-2v1h-1v3h1v1z"/></g></g><g id="shield"><path d="M33 44h-5v-1h-6v-1h-2v16h1v7h1v2h1v1h1v1h2v-1h2v-1h1v-1h1v-1h1v-2h1v-2h1v-7h1V44z"/><g class="rgb-color" fill="#3FF"><path d="M32 45h1v8h-5v-1h-3v-8h3v1h3zM32 60v1h-1v2h-1v2h-1v1h-1v1h-2v1h-1V53h3v1h4v5zM22 43v1h2v7h-2v-1h-1v-7zM22 51v1h2v15h-1v-2h-1v-7h-1v-7z"/></g><g><path opacity=".18" d="M21 43v15h1v7h1v2h1V43z"/><path opacity=".18" d="M21 43h1v15h-1z"/><path opacity=".18" fill="#FFF" d="M32 45h1v8h-1z"/></g></g><g id="deal-with-it-glasses"><path d="M64 42h-3v1h4v-1zM60 41H28v1h1v2h1v2h1v2h1v1h9v-1h1v-2h1v-2h1v-2h1v2h1v2h1v2h1v1h9v-1h1v-2h1v-2h1v-2h1v-1z"/><path fill="#FFF" d="M33 45v1h-1v-2h1v1zm0 2h1v-1h-1v1zm2-3h-1v2h1v-2zm0 3h1v-1h-1v1zm-1-4h-1v1h1v-1zm-3 0v1h1v-1h-1zm18 1h-1v2h1v-2zm0 3h1v-1h-1v1zm2-3h-1v2h1v-2zm0 2v1h1v-1h-1zm-1-3h-1v1h1v-1zm-3 0v1h1v-1h-1z"/></g></g><a href="/images/png/cg3352-512.png" class="button png-square"><path class="button-bg" d="M26 75h13v11H26z"/><path fill="#FFF" d="M36 77h-1v1h1v5h-1v1h2v-7zm-8 0v7h2v-1h-1v-5h1v-1h-1zm6 3h1v1h-1zm-4 0h1v1h-1zm3 0v-2h-1v3h-1v1h1v1h1v-1h1v-1h-1z"/><title>Download square PNG</title></a><a href="/images/png/cg3352-wide.png" class="button png-wide"><path class="button-bg" d="M42 75h21v11H42z"/><path fill="#FFF" d="M60 77h-1v1h1v5h-1v1h2v-7zm-16 0v7h2v-1h-1v-5h1v-1h-1zm10 3h1v1h-1zm-4 0h1v1h-1zm3 0v-2h-1v3h-1v1h1v1h1v-1h1v-1h-1z"/><title>Download wide PNG</title></a><script type="text/javascript"><![CDATA[
    let cg3352Root = document.getElementById('cg3352');

    if (cg3352Root) {
      let cgRoot = cg3352Root;
      let cgBg = cgRoot.querySelector('.cg-bg');
      let cgBody = cgRoot.querySelector('.cg-body');

      cgBg.addEventListener('dblclick', () => {
        cgRoot.classList.toggle('menu-in');
      });

      cgBody.addEventListener('click', () => {

        let bufferArray = [];
        let lastKeystrokeTime = Date.now();
        const cheatcode = (e) => {

          const key = e.key.toLowerCase();
          const latestKeystrokeTime = Date.now();

          if (latestKeystrokeTime - lastKeystrokeTime > 1500) {
            bufferArray = [];
          }

          bufferArray.push(key);

          const word = bufferArray.join('');
          if (word === 'dealwithit') {
            console.log('No u.');

            cgRoot.classList.add('deal-with-it');

            setTimeout(() => {
              cgRoot.classList.remove('deal-with-it');
            }, 10000);

            clearListener();
          }
  

      if (word === 'blastoff') {
        console.log('Prepare for takeoff!');

        cgRoot.classList.add('blastoff');

        setTimeout(() => {
          cgRoot.classList.remove('blastoff');
        }, 10000);

        clearListener();
      }

    
          lastKeystrokeTime = latestKeystrokeTime;

        }
        document.addEventListener('keyup', cheatcode, true);

        const clearListener = () => {
          document.removeEventListener('keyup', cheatcode, true);
        }

      });
    
    let cgDigits = cgRoot.querySelector('.cg-digits');
    let cgTime = cgRoot.querySelector('.cg-time');
  

      let cgFace = cgRoot.querySelector('.cg-face');
      cgFace.addEventListener('dblclick', () => {
        cgRoot.classList.add('get-time');

        let now = new Date();
        let hours = ('0' + now.getHours()).substr(-2);
        let minutes = ('0' + now.getMinutes()).substr(-2);;
        let digits = [hours.substr(0,1), hours.substr(1), minutes.substr(0,1), minutes.substr(1)];

        cgTime.replaceChildren();

        for (let i = 0; i < 4; i++) {
          switch (digits[i]) {
            case '0':
              cgTime.appendChild(cgDigits.querySelector('.cg-digit-zero').cloneNode(true));
              break;
            case '1':
              cgTime.appendChild(cgDigits.querySelector('.cg-digit-one').cloneNode(true));
              break;
            case '2':
              cgTime.appendChild(cgDigits.querySelector('.cg-digit-two').cloneNode(true));
              break;
            case '3':
              cgTime.appendChild(cgDigits.querySelector('.cg-digit-three').cloneNode(true));
              break;
            case '4':
              cgTime.appendChild(cgDigits.querySelector('.cg-digit-four').cloneNode(true));
              break;
            case '5':
              cgTime.appendChild(cgDigits.querySelector('.cg-digit-five').cloneNode(true));
              break;
            case '6':
              cgTime.appendChild(cgDigits.querySelector('.cg-digit-six').cloneNode(true));
              break;
            case '7':
              cgTime.appendChild(cgDigits.querySelector('.cg-digit-seven').cloneNode(true));
              break;
            case '8':
              cgTime.appendChild(cgDigits.querySelector('.cg-digit-eight').cloneNode(true));
              break;
            case '9':
              cgTime.appendChild(cgDigits.querySelector('.cg-digit-nine').cloneNode(true));
              break;
          }
        }

        cgTime.childNodes[1].style.transform = 'translateX(4px)';
        cgTime.childNodes[2].style.transform = 'translateX(10px)';
        cgTime.childNodes[3].style.transform = 'translateX(14px)';

        cgTime.appendChild(cgDigits.querySelector('.cg-digit-colon').cloneNode(true));

        setTimeout(() => {
          cgRoot.classList.remove('get-time');
        }, 10000);
      });

    }]]></script></svg>