<svg id="cg4154" xmlns="http://www.w3.org/2000/svg" viewBox="0 0 89 89"><style>
    #cg4154 {
      overflow: hidden;
    }

    #cg4154 .button {
      opacity: 0;
      pointer-events: none;
      transition: 0.2s ease;
      transform: translate3d(0, 20px, 0);
    }

    #cg4154 .button.png-wide {
      transition-delay: 0.2s;
    }

    #cg4154.menu-in .button {
      opacity: 1;
      pointer-events: auto;
      cursor: pointer;
      transform: translate3d(0, 0, 0);
    }

    #cg4154.menu-in .button .button-bg {
      transition: fill 0.2s ease;
    }

    #cg4154.menu-in .button:hover .button-bg {
      fill: #FF5FFA;
    }

    #cg4154 .cg-glasses {
      transition: opacity 0.2s ease;
    }

    #cg4154 #deal-with-it-glasses {
      opacity: 0;
      pointer-events: none;
      transition: opacity 0.2s ease, transform 3s linear;
      transform: translate3d(0, -60px, 0);
    }

    #cg4154.deal-with-it #deal-with-it-glasses {
      opacity: 1;
      transform: translate3d(0, 0, 0);
    }

    #cg4154.deal-with-it .cg-glasses {
      opacity: 0;
      transition-delay: 2s;
    }

  
    #cg4154 .cg-eyes {
      transition: opacity 0.2s ease;
    }

    #cg4154.get-time .cg-eyes {
      opacity: 0;
    }
  
    #cg4154 .cg-time {
      pointer-events: none;
      transition: opacity 0.2s ease;
      opacity: 0;
    }

    #cg4154.get-time .cg-time {
      opacity: 1;
    }

    #cg4154 .cg-time .cg-digit-colon {
      animation: cg-colon-blink 1s ease-in-out 0s infinite;
    }

    @keyframes cg-colon-blink {
      20% {
        opacity: 1;
      }
      50% {
        opacity: 0;
      }
      80% {
        opacity: 1;
      }
    }
  
    #cg4154 .cg-body {
      animation: cg-anim-hover 1.5s ease-in-out -0.3351s infinite;
      transform-origin: center;
      transform-box: fill-box;
    }

    @keyframes cg-anim-hover {
      0% {
        transform: translate3d(0,0,0);
      }
      50% {
        transform: translate3d(0,-2px,0);
      }
      100% {
        transform: translate3d(0,0,0);
      }
    }
  
    #cg4154 .cg-shadow {
      animation: cg-anim-shadow 1.5s ease-in-out -0.3351s infinite;
      transform-origin: center;
      transform-box: fill-box;
    }

    @keyframes cg-anim-shadow {
      0% {
        transform: scale3d(1,1,1);
      }
      50% {
        transform: scale3d(0.9,1,1);
      }
      100% {
        transform: scale3d(1,1,1);
      }
    }
  
      @keyframes cg-anim-rgb {
        0% {
          fill: #FF5F5F;
        }
        11.1111% {
          fill: #FFA45F;
        }
        22.2222% {
          fill: #BAFF5F;
        }
        33.3333% {
          fill: #5FFF74;
        }
        44.4444% {
          fill: #5FFFCE;
        }
        55.5555% {
          fill: #5FD9FF;
        }
        66.6666% {
          fill: #5F6AFF;
        }
        77.7777% {
          fill: #AA5FFF;
        }
        88.8888% {
          fill: #FF5FFA;
        }
        100% {
          fill: #FF5F5F;
        }
      }
    
      #cg4154 .star-color {
        animation: cg-anim-rgb 5s linear -0.7698s infinite;
      }
    </style><path class="cg-bg" d="M0 0h89v89H0z" fill="#FFF75F"></path><g id="star-expression"><path d="M25 16h1v1h-1zM24 17h1v1h-1zM22 6h1v1h-1zM23 16h2v-1h-3v1h1zM22 18v1h2v-1h-2zM21 5h1v1h-1zM21 7h1v1h-1zM22 15v-1h-2v1h2zM21 17h-1v1h2v-1h-1zM20 4h1v1h-1zM20 8h1v1h-1zM20 15h-1v2h1v-2zM19 5h1v1h-1zM19 10h1V9h-1V6h-1v5h1v-1zM16 14v1h1v-2h-1v1zM15 11h1V9h-1v2zM15 12h1v1h-1zM14 11h1v1h-1zM14 15h-1v1h3v-1h-2zM12 16h1v1h-1zM12 9h3V8h-4v1h1zM11 17h1v1h-1zM10 7h1v1h-1zM10 7V6H8v1h2zM9 18v1h2v-1H9zM8 17h1v1H8zM8 9V7H7v3h1V9zM8 15H7v2h1v-2zM6 10h1v1H6zM6 14H5v1h2v-1H6zM5 11h1v1H5zM5 12H4v2h1v-2z"/><g><path class="star-color" fill="#FECAD2" d="M16 13v2h-3v1h-1v1h-1v1H9v-1H8v-2H7v-1H5v-2h1v-1h1v-1h1V7h2v1h1v1h4v2h-1v1h1v1h1z"/></g><g><path class="star-color" fill="#FECAD2" d="M22 6v1h-1v1h-1v1h-1V6h1V5h1v1h1z"/></g><g><path class="star-color" fill="#FECAD2" d="M25 16v1h-1v1h-2v-1h-2v-2h2v1h3z"/></g><g opacity=".71" fill="#FFF"><path d="M15 13h1v1h-1zM14 12h1v1h-1zM15 10V9h-1v1h1zM10 8h1v1h-1zM14 10h1v1h-1zM9 7h1v1H9zM15 14h1v1h-1zM12 15h1v1h-1zM21 6h1v1h-1zM20 5h1v1h-1zM20 7h1v1h-1zM19 8h1v1h-1zM24 16h1v1h-1zM23 17h1v1h-1zM21 15h1v1h-1zM11 16h1v1h-1zM10 17h1v1h-1z"/></g></g><path class="cg-shadow" opacity=".17" d="M60 79v-1H29v1h-2v1h3v1h29v-1h3v-1z"/><g class="cg-body"><g id="angel-wings"><g id="angel-wings-left"><path d="M23 38v-2h-1v-1h-1v-1h-1v-1h-2v-1h-3v-1h-1v-1h-1v-1h-1v-2h-1v-2h-1v-1H9v-1H7v1H6v1H5v5H4v1H3v4h1v2H3v4h1v1h1v1h1v3h1v1h1v1h4v-1h1v1h7v-1h2v-1h1v-2h1v-6h-1z" id="angel-wings-outline-left"/><g id="Layer_290" fill="#8EE4FF"><path d="M5 41H4v-3h2v1h2v1h3v1h1v1h-2v1H6v-1H5v-1z"/><path d="M14 31v1h1v1h3v1h2v1h1v1h1v2h1v6h-1v2h-2v1h-7v-1h-1v1H8v-1H7v-2h3v-1h2v-1h1v-1h-1v-1h-1v-4h4v2h-1v1h1v-1h1v-2h-1v-1h-4v1h-1v-1H9v-1H8v-1H7v-1H6v-7h1v-1h2v1h1v2h1v2h1v1h1v1h1z"/><path d="M10 38v1H8v-1H6v-1H5v-2H4v-4h1v1h1v1h1v1h1v1h1v1h1v2z"/></g><g opacity=".71" fill="#D9F6FF" id="angel-wings-highlight-left"><path d="M22 43h1v1h-1zM19.7 46H19v1h1v-1h-.3zM20 45v1h2v-1h-2zM22 38h1v1h-1zM22 36h-1v2h1v-2zM10 36H9v3h1v-3zM20 35h1v1h-1zM19 38v1h-1v1h1v1h1v-1h1v-1h-1v-1zM19 34h-1v1h2v-1h-1zM17 33h-2v1h3v-1h-1zM16 41h1v1h-1zM14 32h1v1h-1zM13 31h1v1h-1zM12 30h1v1h-1zM11 29h1v1h-1zM8 24h1v1H8zM11.5 46H11v1h1v-1h-.5zM7.5 39H7v1h1v-1h-.5zM5.5 38H5v1h1v-1h-.5zM8.5 35H8v1h1v-1h-.5zM7.5 34H7v1h1v-1h-.5zM6.5 33H6v1h1v-1h-.5zM5.5 32H5v1h1v-1h-.5zM14.5 36H14v1h1v-1h-.5zM14.5 37H14v1h1v-1h-.5zM13.5 38H13v1h1v-1h-.5zM11 27h-1v2h1v-2zM10 25H9v2h1v-2zM8 29h1v1H8zM11 41h1v1h-1zM9 42h1v1H9zM10 40h1v1h-1zM23 42v-3h-1v4h1v-1z"/></g></g><g id="angel-wings-right"><path d="M86 35v-4h-1v-1h-1v-5h-1v-1h-1v-1h-2v1h-1v1h-1v2h-1v2h-1v1h-1v1h-1v1h-3v1h-2v1h-1v1h-1v1h-1v2h-1v6h1v2h1v1h2v1h7v-1h1v1h4v-1h1v-1h1v-3h1v-1h1v-1h1v-4h-1v-2h1z" id="angel-wings-outline-right"/><g id="Layer_291" fill="#8EE4FF"><path d="M83 42v1h-4v-1h-2v-1h1v-1h3v-1h2v-1h2v3h-1v1h-1z"/><path d="M82 34v-1h1v-1h1v-1h1v4h-1v2h-1v1h-2v1h-2v-3h1v-1h1v-1h1z"/><path d="M77 40v1h-1v1h1v1h2v1h3v2h-1v1h-4v-1h-1v1h-7v-1h-2v-2h-1v-6h1v-2h1v-1h1v-1h2v-1h3v-1h1v-1h1v-1h1v-1h1v-2h1v-2h1v-1h2v1h1v7h-1v1h-1v1h-1v1h-1v1h-1v-1h-4v1h-1v2h1v1h1v-1h-1v-2h4v4h-1z"/></g><g opacity=".71" fill="#D9F6FF" id="angel-wings-highlight-right"><path d="M78 35h1v1h-1zM79 34h1v1h-1zM80 33h1v1h-1zM81 32h1v1h-1zM70 38v1h1v1h-1v1h-1v-1h-1v-1h1v-1zM72 41h1v1h-1zM73 38h1v1h-1zM73 35h1v1h-1zM80 43h-1v-1h4v1h-3zM80 39h-1v-1h2v1h-1zM80 29h1v1h-1zM81 24h1v1h-1zM82 38h-1v-1h2v1h-1zM83 26v6h-1v-7h1v1zM83 41h1v1h-1zM80 46h1v1h-1zM75 46h1v1h-1zM76 42h1v1h-1zM75 41h1v1h-1zM76 40h1v1h-1zM84 37h-1v-2h1v2zM82 46h-1v-2h1v2zM73 38h-1v-2h1v2zM84 39v-1h1v3h-1v-2zM84 34v-3h1v4h-1v-1zM77 39v-3h1v4h-1v-1z"/></g></g></g><path d="M63 47v-4h-1v-3h-1v-2h-1v-1h-1v-1h-1v-1h-1v-1h-1v-1h-1v-1h-2v-1h-2v-1H38v1h-2v1h-2v1h-1v1h-1v1h-1v1h-1v1h-1v1h-1v2h-1v3h-1v4h-1v13h1v3h1v3h1v1h1v1h1v1h2v1h2v-1h1v-1h1v-4h1v3h1v1h1v1h2v-1h1v-1h1v-4h1v-1h1v1h1v4h1v1h1v1h2v-1h1v-1h1v-3h1v4h1v1h1v1h2v-1h2v-1h1v-1h1v-1h1v-3h1v-3h1V47z"/><path class="cg-body-color" fill="#FF8FAC" d="M62 47v-4h-1v-3h-1v-2h-1v-1h-1v-1h-1v-1h-1v-1h-1v-1h-2v-1h-2v-1H38v1h-2v1h-2v1h-1v1h-1v1h-1v1h-1v1h-1v2h-1v3h-1v4h-1v13h1v3h1v3h1v1h1v1h2v1h2v-1h1v-4h1v-1h1v1h1v3h1v1h2v-1h1v-4h1v-1h1v-1h1v1h1v1h1v4h1v1h2v-1h1v-3h1v-1h1v1h1v4h1v1h2v-1h2v-1h1v-1h1v-3h1v-3h1V47z"/><g class="cg-face"><path d="M39 36v1h-3v1h-1v1h-1v1h-1v2h-1v2h1v1h1v1h2v1h3v1h11v-1h3v-1h2v-1h1v-1h1v-2h-1v-2h-1v-1h-1v-1h-1v-1h-3v-1z"/><path fill="#FFF" d="M39 37v1h-3v1h-1v1h-1v2h-1v2h1v1h2v1h3v1h11v-1h3v-1h2v-1h1v-2h-1v-2h-1v-1h-1v-1h-3v-1z"/><g class="cg-eyes"><path id="shut" d="M40 44h-4v-1h4v1zm13-1h-4v1h4v-1z"/></g><g class="cg-digits" style="display: none;"><g class="cg-digit-zero"><path d="M38 40h-2v5h3v-5h-1zm0 2v2h-1v-3h1v1z"/></g><g class="cg-digit-one"><path d="M39 44v1h-3v-1h1v-2h-1v-1h1v-1h1v4h1z"/></g><g class="cg-digit-two"><path d="M39 42h-1v-1h1v1zm-1 3h1v-1h-2v1h1zm0-3h-1v1h1v-1zm-1-2h-1v1h2v-1h-1zm-1 3v1h1v-1h-1z"/></g><g class="cg-digit-three"><path d="M38 44v-1h1v1h-1zm1-3h-1v1h1v-1zm-2 1v1h1v-1h-1zm0-2h-1v1h2v-1h-1zm-1 4v1h2v-1h-2z"/></g><g class="cg-digit-four"><path d="M39 41v4h-1v-2h-2v-3h1v2h1v-1h1z"/></g><g class="cg-digit-five"><path d="M38 44v-1h1v1h-1zm0-3h1v-1h-3v3h2v-1h-1v-1h1zm-2 3v1h2v-1h-2z"/></g><g class="cg-digit-six"><path d="M38 41h-1v-1h2v1h-1zm-2 0v3h1v-1h1v1h-1v1h2v-3h-2v-1h-1z"/></g><g class="cg-digit-seven"><path d="M39 40v5h-1v-4h-2v-1h3z"/></g><g class="cg-digit-eight"><path d="M38 40h-2v5h3v-5h-1zm0 4h-1v-1h1v1zm0-2h-1v-1h1v1z"/></g><g class="cg-digit-nine"><path d="M38 40h-2v3h2v2h1v-5h-1zm0 2h-1v-1h1v1z"/></g><g class="cg-digit-colon"><path d="M45 42h-1v-1h1v1zm0 1h-1v1h1v-1z"/></g></g><g class="cg-time"></g></g><g id="pencil"><g><path d="M11 65v1h-1v7h1v1h7v-9h-3zM80 69v-1h-2v-1h-2v-1h-2v-1h-2v9h2v-1h2v-1h2v-1h2v-1h1v-1z"/></g><g><path fill="#FF9064" d="M11 66h3v7h-3z"/><path fill="#6D6D6D" d="M15 66h3v7h-3z"/><path fill="#FFF1B6" d="M78 70v1h-2v1h-2v1h-1v-7h1v1h2v1h2v1z"/></g><path d="M72 66v-1H62v1h-1v1h-1v1h-1v1h-2v1h-2v-1h-1v-1h-1v-3H36v3h-1v1h-1v1h-2v-1h-2v-1h-1v-1h-1v-1h-1v-1h-9v1h-1v7h1v1h54v-1h1v-7z"/><path fill="#FFF75F" d="M72 71v-5H61v1h-1v1h-1v1h-2v1h-2v-1h-1v-1h-1v-2H36v2h-1v1h-1v1h-2v-1h-2v-1h-1v-1h-1v-1H18v7h54v-1z"/><g><path opacity=".28" d="M27 66h1v1h-1zM35 68h1v1h-1zM36 66h1v2h-1zM52 66h1v3h-1zM31 69h1v1h-1zM29 68h1v1h-1zM61 65h1v2h-1zM54 69h1v1h-1zM60 67h1v1h-1zM59 68h1v1h-1zM57 69h1v1h-1z"/></g><g><path d="M68 71v1h2v-1h-2zM70 70h1v1h-1zM69 69h1v1h-1zM71 68v-1h-2v1h2zM68 68h1v1h-1zM65 67h-1v1h1v4h1v-4h1v-1h-2zM60 71v1h2v-1h-2zM62 70h1v1h-1zM61 69h1v1h-1zM61 67v1h2v-1h-2zM60 68h1v1h-1zM58 69v2h1v-2h-1zM56 71v1h2v-1h-2zM56 70h-1v1h1v-1zM53 68v1h-1v-2h-1v5h1v-2h1v2h1v-4h-1zM48 69v1h1v1h1v-2h-2zM49 68v-1h-2v1h2zM47 71v1h2v-1h-2zM47 69v-1h-1v3h1v-2zM42 68v2h1v-3h-1v1zM41 71v1h1v-2h-1v1zM41 68v-1h-1v3h1v-2zM38 70h1v1h-1zM37 69h1v1h-1zM37 67v1h2v-1h-2zM36 71v1h2v-1h-2zM36 68h1v1h-1zM33 69v1h1v-1 3h1v-4 1h-2zM31.8 68.2h1v1h-1z"/><path d="M31 68h-1v4h1v-3h1v-1h-1zM28 68v3h-1v-4h-1v5h3v-5h-1v1zM24 70v-3h-1v5h2v-1h-1v-1zM21 72h1v-1h-2v1h1zM20 67v1h2v-1h-2zM19 69v2h1v-3h-1v1z"/></g><g fill="#FFF"><path opacity=".42" d="M16 66h1v7h-1zM11 66h3v1h-3z"/><path opacity=".42" d="M15 66h12v1H15zM37 66h15v1H37zM62 66h10v1H62zM73 66h1v1h-1zM74 67h2v1h-2zM76 68h2v1h-2z"/></g></g><path d="M31 39v-2h-1v-1h-1v-1h-1v-1h-3v7h-2v-7h-2v1h-1v1h-1v2h-1v32h1v2h1v1h2v-7h2v3h-1v5h2v-1h1v-1h1v-1h1v-1h1v-2h1v-2h1v-4h1V39h-1z"/><path fill="#754C24" d="M29 57v5h-1v1h-1v1h-1v1h-4v-1h-1v-1h-1v-1h-1V45h1v-1h1v-1h1v-1h4v1h1v1h1v1h1v12z"/><path fill="#666" d="M22 37v5h-1v1h-1v1h-1v-6h1v-2h1v-1h1v2zM21 70v2h-1v-2h-1v-7h1v1h1v6zM25 72v1h-1v-4h1v-3h1v-1h1v-1h1v-1h1v-1h1v4h-1v2h-1v2h-1v1h-1v1h-1zM30 52v-7h-1v-1h-1v-1h-1v-1h-1v-7h2v1h1v1h1v2h1v23h-1V52z"/><path d="M30 63v3h1v-4h-1v1zM29 47v15h1V45h-1v2zM29 67v1h1v-2h-1v1zM28 44h1v1h-1zM28 62h1v1h-1zM28 69v1h1v-2h-1v1zM27 43h1v1h-1zM27 63h1v1h-1zM27 70h1v1h-1zM26 42h1v1h-1zM26 64h1v1h-1zM26 71h1v1h-1zM31 39v23h1V39h-1zM30 39h1v-2h-1v2zM29 36h1v1h-1zM28 35h1v1h-1zM25 72h1v1h-1zM25 68v-2h1v-1h-4v-1h-1v8h-1v1h2v-7h2v3h1v-1z"/><path d="M24 72v-3h-1v5h2v-1h-1v-1zM22 36v6h4v-7h2v-1h-3v7h-2v-7h-2v1h1v1zM21 42h1v1h-1zM20 35h1v1h-1zM20 43h1v1h-1zM20 63h1v1h-1zM20 37v-1h-1v2h1v-1zM20 70h-1v2h1v-2zM19 68v-5h1v-1h-1V45h1v-1h-1v-6h-1v32h1v-2z"/><g><path d="M30 55h1v1h-1zM30 53h1v1h-1zM30 51h1v1h-1zM30 49h1v1h-1z"/><path fill="#FFF" d="M31 54h-2v-1h-3v2h-1v1h-1v9h2v-1h1v-1h1v-1h1v-7h3v-1h-1z"/><path fill="#CEA638" d="M24 54h1v1h-1zM24 53h1v1h-1zM24 52h1v1h-1zM24 51h1v1h-1zM24 50h1v1h-1z"/><path fill="#F13441" d="M31 50h-2v-5h-1v-1h-1v-1h-1v-1h-2v7h1v1h1v3h3v-2h3v-1h-1z"/><path fill="#CEA638" d="M23 54h1v1h-1zM23 53h1v1h-1zM23 52h1v1h-1zM23 51h1v1h-1zM23 50h1v1h-1z"/><path d="M25 50v5h1v-5h-1zM25 50v-1h-2v1h2zM23 55v1h2v-1h-2zM23 53v-3h-1v5h1v-2z"/><path fill="#F13441" d="M23 56v-1h-1v-2h-3v1h-1v1h1v7h1v1h1v1h1v1h2v-9h-1z"/><path fill="#FFF" d="M23 42h-1v1h-1v1h-1v1h-1v5h-1v1h1v2h3v-3h1v-1h1v-7h-1z"/><g><path d="M32 54h1v1h-1zM32 50h1v1h-1zM17 54h1v1h-1zM17 50h1v1h-1zM19 50h1v1h-1zM19 54h1v1h-1zM28 54h1v1h-1zM28 50h1v1h-1z"/><g fill="#754C24"><path d="M18 54h1v1h-1zM18 50h1v1h-1zM30 54h-1v1h3v-1h-1zM31 50h-2v1h3v-1z"/></g></g></g><g opacity=".2"><path d="M31 54h1v1h-1zM31 50h1v1h-1zM30 57v5h1v-6h-1v1zM30 52h1v1h-1zM29 63h-1v1h1v2h1v-4h-1v1zM30 45v4h1V39h-1v5h-1v1h1zM30 37h-1v2h1v-2zM28 67v1h1v-2h-1v1zM29 61v-6h-1v7h1v-1zM28 52v2h1v-3h-1v1zM28 46v4h1v-5h-1v1zM28 43h1v1h-1zM28 36h1v1h-1zM27 69v1h1v-2h-1v1zM27 64h1v1h-1zM27 62h1v1h-1zM27 44h1v1h-1zM27 42h1v1h-1zM27 35h1v1h-1zM26 70h1v1h-1zM26 65h1v1h-1zM26 63h1v1h-1zM26 43h1v1h-1zM26 41h1v1h-1zM25 71h1v1h-1zM25 66h1v1h-1zM25 64h-1v1h2v-1h-1zM25 50h1v1h-1zM25 42h1v1h-1zM24 72h1v1h-1zM25 54v-3h-1v4h1v-1zM22 64h1v1h-1zM22 42h1v1h-1zM21 63h1v1h-1zM21 43h1v1h-1zM22 41v-6h-1v7h1v-1zM20 62h1v1h-1zM20 44h1v1h-1zM21 43v-1h-1v-4h-1v6h1v-1h1zM20 63h-1v7h1v2h1v-8h-1v-1zM19 57v5h1v-7h-1v2zM19 53v1h1v-3h-1v2zM19 46v4h1v-5h-1v1zM18 54h1v1h-1zM18 50h1v1h-1z"/></g><g id="deal-with-it-glasses"><path d="M64 42h-3v1h4v-1zM60 41H28v1h1v2h1v2h1v2h1v1h9v-1h1v-2h1v-2h1v-2h1v2h1v2h1v2h1v1h9v-1h1v-2h1v-2h1v-2h1v-1z"/><path fill="#FFF" d="M33 45v1h-1v-2h1v1zm0 2h1v-1h-1v1zm2-3h-1v2h1v-2zm0 3h1v-1h-1v1zm-1-4h-1v1h1v-1zm-3 0v1h1v-1h-1zm18 1h-1v2h1v-2zm0 3h1v-1h-1v1zm2-3h-1v2h1v-2zm0 2v1h1v-1h-1zm-1-3h-1v1h1v-1zm-3 0v1h1v-1h-1z"/></g></g><a href="/images/png/cg4154-512.png" class="button png-square"><path class="button-bg" d="M26 75h13v11H26z"/><path fill="#FFF" d="M36 77h-1v1h1v5h-1v1h2v-7zm-8 0v7h2v-1h-1v-5h1v-1h-1zm6 3h1v1h-1zm-4 0h1v1h-1zm3 0v-2h-1v3h-1v1h1v1h1v-1h1v-1h-1z"/><title>Download square PNG</title></a><a href="/images/png/cg4154-wide.png" class="button png-wide"><path class="button-bg" d="M42 75h21v11H42z"/><path fill="#FFF" d="M60 77h-1v1h1v5h-1v1h2v-7zm-16 0v7h2v-1h-1v-5h1v-1h-1zm10 3h1v1h-1zm-4 0h1v1h-1zm3 0v-2h-1v3h-1v1h1v1h1v-1h1v-1h-1z"/><title>Download wide PNG</title></a><script type="text/javascript"><![CDATA[
    let cg4154Root = document.getElementById('cg4154');

    if (cg4154Root) {
      let cgRoot = cg4154Root;
      let cgBg = cgRoot.querySelector('.cg-bg');
      let cgBody = cgRoot.querySelector('.cg-body');

      cgBg.addEventListener('dblclick', () => {
        cgRoot.classList.toggle('menu-in');
      });

      cgBody.addEventListener('click', () => {

        let bufferArray = [];
        let lastKeystrokeTime = Date.now();
        const cheatcode = (e) => {

          const key = e.key.toLowerCase();
          const latestKeystrokeTime = Date.now();

          if (latestKeystrokeTime - lastKeystrokeTime > 1500) {
            bufferArray = [];
          }

          bufferArray.push(key);

          const word = bufferArray.join('');
          if (word === 'dealwithit') {
            console.log('No u.');

            cgRoot.classList.add('deal-with-it');

            setTimeout(() => {
              cgRoot.classList.remove('deal-with-it');
            }, 10000);

            clearListener();
          }
  
          lastKeystrokeTime = latestKeystrokeTime;

        }
        document.addEventListener('keyup', cheatcode, true);

        const clearListener = () => {
          document.removeEventListener('keyup', cheatcode, true);
        }

      });
    
    let cgDigits = cgRoot.querySelector('.cg-digits');
    let cgTime = cgRoot.querySelector('.cg-time');
  

      let cgFace = cgRoot.querySelector('.cg-face');
      cgFace.addEventListener('dblclick', () => {
        cgRoot.classList.add('get-time');

        let now = new Date();
        let hours = ('0' + now.getHours()).substr(-2);
        let minutes = ('0' + now.getMinutes()).substr(-2);;
        let digits = [hours.substr(0,1), hours.substr(1), minutes.substr(0,1), minutes.substr(1)];

        cgTime.replaceChildren();

        for (let i = 0; i < 4; i++) {
          switch (digits[i]) {
            case '0':
              cgTime.appendChild(cgDigits.querySelector('.cg-digit-zero').cloneNode(true));
              break;
            case '1':
              cgTime.appendChild(cgDigits.querySelector('.cg-digit-one').cloneNode(true));
              break;
            case '2':
              cgTime.appendChild(cgDigits.querySelector('.cg-digit-two').cloneNode(true));
              break;
            case '3':
              cgTime.appendChild(cgDigits.querySelector('.cg-digit-three').cloneNode(true));
              break;
            case '4':
              cgTime.appendChild(cgDigits.querySelector('.cg-digit-four').cloneNode(true));
              break;
            case '5':
              cgTime.appendChild(cgDigits.querySelector('.cg-digit-five').cloneNode(true));
              break;
            case '6':
              cgTime.appendChild(cgDigits.querySelector('.cg-digit-six').cloneNode(true));
              break;
            case '7':
              cgTime.appendChild(cgDigits.querySelector('.cg-digit-seven').cloneNode(true));
              break;
            case '8':
              cgTime.appendChild(cgDigits.querySelector('.cg-digit-eight').cloneNode(true));
              break;
            case '9':
              cgTime.appendChild(cgDigits.querySelector('.cg-digit-nine').cloneNode(true));
              break;
          }
        }

        cgTime.childNodes[1].style.transform = 'translateX(4px)';
        cgTime.childNodes[2].style.transform = 'translateX(10px)';
        cgTime.childNodes[3].style.transform = 'translateX(14px)';

        cgTime.appendChild(cgDigits.querySelector('.cg-digit-colon').cloneNode(true));

        setTimeout(() => {
          cgRoot.classList.remove('get-time');
        }, 10000);
      });

    }]]></script></svg>