<svg id="cg4422" xmlns="http://www.w3.org/2000/svg" viewBox="0 0 89 89"><style>
    #cg4422 {
      overflow: hidden;
    }

    #cg4422 .button {
      opacity: 0;
      pointer-events: none;
      transition: 0.2s ease;
      transform: translate3d(0, 20px, 0);
    }

    #cg4422 .button.png-wide {
      transition-delay: 0.2s;
    }

    #cg4422.menu-in .button {
      opacity: 1;
      pointer-events: auto;
      cursor: pointer;
      transform: translate3d(0, 0, 0);
    }

    #cg4422.menu-in .button .button-bg {
      transition: fill 0.2s ease;
    }

    #cg4422.menu-in .button:hover .button-bg {
      fill: #FF5FFA;
    }

    #cg4422 .cg-glasses {
      transition: opacity 0.2s ease;
    }

    #cg4422 #deal-with-it-glasses {
      opacity: 0;
      pointer-events: none;
      transition: opacity 0.2s ease, transform 3s linear;
      transform: translate3d(0, -60px, 0);
    }

    #cg4422.deal-with-it #deal-with-it-glasses {
      opacity: 1;
      transform: translate3d(0, 0, 0);
    }

    #cg4422.deal-with-it .cg-glasses {
      opacity: 0;
      transition-delay: 2s;
    }

  
      #cg4422 .cg-glasses {
        transition: opacity 0.2s ease;
      }

      #cg4422.get-time .cg-glasses {
        opacity: 0;
      }
    
    #cg4422 .cg-eyes {
      transition: opacity 0.2s ease;
    }

    #cg4422.get-time .cg-eyes {
      opacity: 0;
    }
  
    #cg4422 .cg-time {
      pointer-events: none;
      transition: opacity 0.2s ease;
      opacity: 0;
    }

    #cg4422.get-time .cg-time {
      opacity: 1;
    }

    #cg4422 .cg-time .cg-digit-colon {
      animation: cg-colon-blink 1s ease-in-out 0s infinite;
    }

    @keyframes cg-colon-blink {
      20% {
        opacity: 1;
      }
      50% {
        opacity: 0;
      }
      80% {
        opacity: 1;
      }
    }
  
    #cg4422 .cg-body {
      animation: cg-anim-hover 1.5s ease-in-out -0.6123s infinite;
      transform-origin: center;
      transform-box: fill-box;
    }

    @keyframes cg-anim-hover {
      0% {
        transform: translate3d(0,0,0);
      }
      50% {
        transform: translate3d(0,-2px,0);
      }
      100% {
        transform: translate3d(0,0,0);
      }
    }
  
    #cg4422 .cg-shadow {
      animation: cg-anim-shadow 1.5s ease-in-out -0.6123s infinite;
      transform-origin: center;
      transform-box: fill-box;
    }

    @keyframes cg-anim-shadow {
      0% {
        transform: scale3d(1,1,1);
      }
      50% {
        transform: scale3d(0.9,1,1);
      }
      100% {
        transform: scale3d(1,1,1);
      }
    }
  
      @keyframes cg-anim-rgb {
        0% {
          fill: #FF5F5F;
        }
        11.1111% {
          fill: #FFA45F;
        }
        22.2222% {
          fill: #BAFF5F;
        }
        33.3333% {
          fill: #5FFF74;
        }
        44.4444% {
          fill: #5FFFCE;
        }
        55.5555% {
          fill: #5FD9FF;
        }
        66.6666% {
          fill: #5F6AFF;
        }
        77.7777% {
          fill: #AA5FFF;
        }
        88.8888% {
          fill: #FF5FFA;
        }
        100% {
          fill: #FF5F5F;
        }
      }
    
      #cg4422 .planet-color {
        animation: cg-anim-rgb 10s linear -0.846s infinite;
      }
    
      #cg4422 .glasses-color {
        animation: cg-anim-rgb 3s linear -1.8454s infinite;
      }
    </style><path class="cg-bg" d="M0 0h89v89H0z" fill="#FCC3D1"></path><g id="planet"><path id="planet-bg" d="M30 6V5h-4v1h-2v1h-2V6h-2V5h-7v1h-2v1H9v1H8v1H7v2H6v2H5v7h1v1H5v1H4v2H3v3h1v1h1v1h4v-1h2v-1h3v1h6v-1h2v-1h2v-1h1v-1h1v-1h1v-1h1v-2h1v-9h1V8h1V6h-1zM9 24v1H7v-2h1v1h1z"/><g class="planet-color" fill="#ACE5F3"><path d="M27 15v2h-1v1h-1v1h-1v1h-1v1h-1v1h-1v1h-2v1h-2v1h-2v1h-1v1h6v-1h2v-1h2v-1h1v-1h1v-1h1v-2h1v-5h-1zM14 22h2v-1h2v-1h2v-1h1v-1h1v-1h1v-1h1v-2h1v-2h1v-2h-1V9h-1V8h-2V7h-2V6h-7v1h-2v1H9v1H8v2H7v2H6v7h1v2h1v1h1v1h3v-1h2v-1z"/></g><path id="ring-colour" fill="#7850FF" d="M29 6h-3v1h-2v1h3v4h-1v2h-1v2h-1v1h-1v1h-1v1h-1v1h-1v1h-2v1h-2v1h-2v1h-2v1h-2v1H6v-3h1v-1H5v2H4v3h1v1h4v-1h2v-1h2v-1h2v-1h2v-1h2v-1h2v-1h1v-1h1v-1h1v-1h1v-1h1v-2h1v-2h1v-2h1V8h1V6h-1z"/><g id="planet-highlights" opacity=".21" fill="#FFF"><path d="M20 14h-2v1h3v-1h-1zM25 20h1v1h-1zM25 10v2h1v-2h-1zM24 21h1v1h-1zM24 9h1v1h-1zM23 22h1v1h-1zM23 8h-1v1h2V8h-1zM21 23h-2v1h4v-1h-2zM22 16v-1h-1v2h1v-1zM21 7h-1v1h2V7h-1zM20 17h1v1h-1zM19 18h1v1h-1zM19 6h-6v1h7V6h-1zM18 19h1v1h-1zM17 20h1v1h-1zM17 15h1v1h-1zM17 12v-1h-1v2h1v-1zM15 16v1h2v-1h-2zM15 13h1v1h-1zM15 10h-1v1h2v-1h-1zM14 14h1v1h-1zM13 17v1h2v-1h-2zM13 15h1v1h-1zM12 16h1v1h-1zM12 11v1h2v-1h-2zM11 12h1v1h-1zM11 7v1h2V7h-2zM10 13h1v1h-1zM9 23h1v1H9zM9 14h1v1H9zM9 8v1h2V8H9zM8 22h1v1H8zM8 10v1h1V9H8v1zM7 22h1v-2H7v2zM7 12v1h1v-2H7v1zM6 14v6h1v-7H6v1z"/></g><g id="planet-stars"><g fill="#FFFA9F"><path d="M39 4v1h-1v1h-1V5h-1V4h1V3h1v1zM36 11v2h-1v-2h1zM35 13v1h-2v-1h2zM35 10v1h-2v-1h2zM33 11v2h-1v-2h1zM26 2h1v1h-1zM10 33v1H9v1H8v-1H7v-1h1v-1h1v1z"/></g></g></g><path class="cg-shadow" opacity=".17" d="M60 79v-1H29v1h-2v1h3v1h29v-1h3v-1z"/><g class="cg-body"><g id="elf-ears"><g id="elf-ears-bg"><path d="M31 35h-1v-1h-1v-1h-2v-1h-4v-1h-4v-1h-7v-1H8v3h1v2h1v2h1v1h1v1h1v1h1v1h1v1h1v1h1v1h3v1h7v-1h1v-3h1v-2h1v-1h1v-1h1v-1h-1zM58 35h1v-1h1v-1h2v-1h4v-1h4v-1h7v-1h4v3h-1v2h-1v2h-1v1h-1v1h-1v1h-1v1h-1v1h-1v1h-1v1h-3v1h-7v-1h-1v-3h-1v-2h-1v-1h-1v-1h-1v-1h1z"/></g><g id="elf-ears-outer" fill="#88E276"><path d="M29 35v-1h-2v-1h-4v-1h-4v-1h-7v-1H9v2h1v2h1v2h1v1h1v1h1v1h1v1h1v1h1v1h3v1h7v-3h1v-2h1v-1h1v-2h-1zm-3 6v1h-5v-1h-3v-1h-1v-1h-1v-1h-1v-1h-1v-1h-1v-2h-1v-1h-1v-1h4v1h6v1h2v1h1v1h1v1h1v4zM59 35v2h1v1h1v2h1v3h7v-1h3v-1h1v-1h1v-1h1v-1h1v-1h1v-1h1v-2h1v-2h1v-2h-3v1h-7v1h-4v1h-4v1h-2v1h-1zm4 2h1v-1h1v-1h1v-1h2v-1h6v-1h4v1h-1v1h-1v2h-1v1h-1v1h-1v1h-1v1h-1v1h-3v1h-5v-5z"/></g><g id="elf-ears-inner" fill="#FF9271"><path d="M24 37v-1h-1v-1h-2v-1h-6v-1h-2v1h1v2h1v1h1v1h1v1h1v1h3v1h4v-4h-1zM65 37v-1h1v-1h2v-1h6v-1h2v1h-1v2h-1v1h-1v1h-1v1h-1v1h-3v1h-4v-4h1z"/></g></g><path d="M63 47v-4h-1v-3h-1v-2h-1v-1h-1v-1h-1v-1h-1v-1h-1v-1h-1v-1h-2v-1h-2v-1H38v1h-2v1h-2v1h-1v1h-1v1h-1v1h-1v1h-1v1h-1v2h-1v3h-1v4h-1v13h1v3h1v3h1v1h1v1h1v1h2v1h2v-1h1v-1h1v-4h1v3h1v1h1v1h2v-1h1v-1h1v-4h1v-1h1v1h1v4h1v1h1v1h2v-1h1v-1h1v-3h1v4h1v1h1v1h2v-1h2v-1h1v-1h1v-1h1v-3h1v-3h1V47z"/><path class="cg-body-color" fill="#88E276" d="M62 47v-4h-1v-3h-1v-2h-1v-1h-1v-1h-1v-1h-1v-1h-1v-1h-2v-1h-2v-1H38v1h-2v1h-2v1h-1v1h-1v1h-1v1h-1v1h-1v2h-1v3h-1v4h-1v13h1v3h1v3h1v1h1v1h2v1h2v-1h1v-4h1v-1h1v1h1v3h1v1h2v-1h1v-4h1v-1h1v-1h1v1h1v1h1v4h1v1h2v-1h1v-3h1v-1h1v1h1v4h1v1h2v-1h2v-1h1v-1h1v-3h1v-3h1V47z"/><g class="cg-face"><path d="M39 36v1h-3v1h-1v1h-1v1h-1v2h-1v2h1v1h1v1h2v1h3v1h11v-1h3v-1h2v-1h1v-1h1v-2h-1v-2h-1v-1h-1v-1h-1v-1h-3v-1z"/><path fill="#FFF" d="M39 37v1h-3v1h-1v1h-1v2h-1v2h1v1h2v1h3v1h11v-1h3v-1h2v-1h1v-2h-1v-2h-1v-1h-1v-1h-3v-1z"/><g class="cg-eyes"><path d="M52 44h1v-2h-1v2zM52 43v-1h-3v1h3zM49 44v1h3v-1h-3zM49 43v-1h-1v2h1v-1zM40 42v2h1v-3h-1v1zM38 44h-1v1h3v-1h-2zM39 42h1v-1h-3v1h2zM37 42v-1h-1v3h1v-2z"/></g><g class="cg-digits" style="display: none;"><g class="cg-digit-zero"><path d="M38 40h-2v5h3v-5h-1zm0 2v2h-1v-3h1v1z"/></g><g class="cg-digit-one"><path d="M39 44v1h-3v-1h1v-2h-1v-1h1v-1h1v4h1z"/></g><g class="cg-digit-two"><path d="M39 42h-1v-1h1v1zm-1 3h1v-1h-2v1h1zm0-3h-1v1h1v-1zm-1-2h-1v1h2v-1h-1zm-1 3v1h1v-1h-1z"/></g><g class="cg-digit-three"><path d="M38 44v-1h1v1h-1zm1-3h-1v1h1v-1zm-2 1v1h1v-1h-1zm0-2h-1v1h2v-1h-1zm-1 4v1h2v-1h-2z"/></g><g class="cg-digit-four"><path d="M39 41v4h-1v-2h-2v-3h1v2h1v-1h1z"/></g><g class="cg-digit-five"><path d="M38 44v-1h1v1h-1zm0-3h1v-1h-3v3h2v-1h-1v-1h1zm-2 3v1h2v-1h-2z"/></g><g class="cg-digit-six"><path d="M38 41h-1v-1h2v1h-1zm-2 0v3h1v-1h1v1h-1v1h2v-3h-2v-1h-1z"/></g><g class="cg-digit-seven"><path d="M39 40v5h-1v-4h-2v-1h3z"/></g><g class="cg-digit-eight"><path d="M38 40h-2v5h3v-5h-1zm0 4h-1v-1h1v1zm0-2h-1v-1h1v1z"/></g><g class="cg-digit-nine"><path d="M38 40h-2v3h2v2h1v-5h-1zm0 2h-1v-1h1v1z"/></g><g class="cg-digit-colon"><path d="M45 42h-1v-1h1v1zm0 1h-1v1h1v-1z"/></g></g><g class="cg-time"></g></g><g id="bandaid"><path d="M63 49v-2h-1v1h-3v1h-1v2h-2v1h-4v1h-1v1h-1v6h1v1h1v1h4v-1h3v1h4v-3h1V49z"/><g><path fill="#F2C79E" d="M58 57v3h-2v1h-4v-1h-1v-6h1v-1h4v-1h2v4z"/><path fill="#E79739" d="M63 50v8h-1v1h-3v-8h3v-1z"/><path fill="#F2C79E" d="M59 49h3v1h-3zM62 48h1v1h-1zM59 60h3v1h-3zM62 59h1v1h-1z"/></g><g opacity=".19"><path d="M62 57h1v1h-1zM60 58h1v1h-1zM62 55h1v1h-1zM62 53h1v1h-1zM62 51h1v1h-1zM60 56h1v1h-1zM60 54h1v1h-1zM60 52h1v1h-1z"/><g opacity=".7"><path d="M57 58h1v1h-1zM55 59h1v1h-1zM57 56h1v1h-1zM57 54h1v1h-1zM57 52h1v1h-1zM55 57h1v1h-1zM55 55h1v1h-1zM55 53h1v1h-1z"/></g><g opacity=".7"><path d="M53 59h1v1h-1zM51 60h1v1h-1zM53 57h1v1h-1zM53 55h1v1h-1zM53 53h1v1h-1zM51 58h1v1h-1zM51 56h1v1h-1zM51 54h1v1h-1z"/></g></g><g opacity=".38"><path d="M54 49v4h1v-5h-1v1zM54 46h-1v2h1v-2zM51 36v1h1v-2h-1v1zM51 33h-1v2h1v-2z"/></g></g><g class="cg-glasses" id="hot-glasses"><path d="M64 39v-1H53v1h-5v1h-1v1h-5v-1h-1v-1h-5v-1H25v1h-1v1h1v1h2v2h1v1h1v1h1v1h1v1h1v1h2v1h7v-1h1v-1h1v-1h1v-1h1v1h1v1h1v1h1v1h7v-1h2v-1h1v-1h1v-1h1v-1h1v-1h1v-2h2v-1h1v-1h-1zm-5 4h-1v1h-1v1h-2v1h-7v-1h-1v-2h1v-1h5v-1h6v2zm-17 2h-1v1h-7v-1h-2v-1h-1v-1h-1v-2h6v1h5v1h1v2z" id="hot-glasses-bg"/><g fill="#E6769A" class="glasses-color"><path d="M60 42v1h1v-2h-1v1zM29 41h-1v2h1v-2zM63 39H53v1h8v1h1v-1h2v-1h-1zM59 43h1v1h-1zM58 44h1v1h-1zM57 45h1v1h-1zM55 46v1h2v-1h-2zM53 47h-5v1h7v-1h-2zM47 46h1v1h-1zM46 45h1v1h-1zM42 45h1v1h-1zM41 46h1v1h-1zM39 47h-5v1h7v-1h-2zM33 46h-1v1h2v-1h-1zM31 45h1v1h-1zM30 44h1v1h-1zM29 43h1v1h-1zM50 41h3v-1h-5v1h2zM47 41h1v1h-1zM46 43h1v-1h-5v1h1v2h1v-2h1v2h1v-2zM41 41h1v1h-1zM37 41h4v-1h-5v1h1zM29 40h7v-1H25v1h2v1h1v-1h1z"/></g><g fill="#333" id="hot-glasses-glass" opacity=".5"><path d="M41 42h-5v-1h-6v2h1v1h1v1h2v1h7v-1h1v-2h-1zM59 41h-6v1h-5v1h-1v2h1v1h7v-1h2v-1h1v-1h1z"/></g></g><g id="gas-mask-graffiti"><path d="M64 52v-1h-1v-1h-3v-1h-5v-1h-1v-1h-1v-1h-2v-1h-4v-1h-1v-1h-3v1h-1v1h-4v1h-2v1h-1v1h-1v1h-5v1h-3v1h-1v1h-1v6h1v2h1v2h1v1h1v1h1v1h3v-1h3v-1h2v-1h1v-1h2v1h1v1h7v-1h1v-1h2v1h1v1h2v1h3v1h3v-1h1v-1h1v-1h1v-2h1v-2h1v-6h-1z"/><path fill="#4D4D4D" d="M63 52v-1h-3v1h-1v1h-1v1h-1v3h-1v5h1v2h3v-1h1v-1h1v-2h1v-2h1v-6h-1zm0 2v3h-1v2h-1v2h-1v1h-2v-1h-1v-3h1v-3h1v-1h1v-1h1v-1h1v1h1v1z"/><path fill="#1A1A1A" d="M55 61v-4h1v-3h1v-1h1v-1h1v-1h1v-1h-6v1h-1v1h-1v1h-1v8h1v1h2v1h2v-1h-1v-1z"/><path fill="#333" d="M52 52v-1h1v-1h1v-2h-1v-1h-2v-1h-4v-1h-1v-1h-3v1h-1v1h-4v1h-2v1h-1v2h1v1h1v1h1v1h1v7h1v1h1v1h7v-1h1v-1h1v-7h1v-1h1z"/><path fill="#1A1A1A" d="M37 52h-1v-1h-1v-1h-6v1h1v1h1v1h1v1h1v3h1v5h-1v1h2v-1h2v-1h1v-8h-1v-1z"/><path fill="#333" d="M33 60v-3h-1v-3h-1v-1h-1v-1h-1v-1h-3v1h-1v6h1v2h1v2h1v1h1v1h3v-2h1v-2zm-2 1v1h-2v-1h-1v-2h-1v-2h-1v-4h1v-1h1v1h1v1h1v1h1v3h1v3h-1z"/><g fill="#3FF"><path d="M54 50v1h-1v1h-1v1h-1v8h1v1h2v1h2v-1h-1v-5h1v-3h1v-1h1v-1h1v-1h1v-1zm-25 0v1h1v1h1v1h1v1h1v3h1v5h-1v1h2v-1h2v-1h1v-8h-1v-1h-1v-1h-1v-1z"/><path d="M38 47h-2v1h-1v2h1v1h1v1h1v1h1v7h1v1h1v1h7v-1h1v-1h1v-7h1v-1h1v-1h1v-1h1v-2h-1v-1h-2v-1h-4v-1h-1v-1h-3v1h-1v1h-4z"/></g><path fill="#ACE5F3" d="M42 54v-2h-1v1h-2v2h4v-1h-1zm-1 3h-2v3h3v-4h-1v1zm-4 0h-1v3h1v-2h1v-2h-1v1z"/><path fill="#FFF75F" d="M56 53h-1v-1h-1v2h1v1h1v-1h1v-1h-1zm-8-7h-3v-2h-2v1h-1v1h1v2h2v-1h5v-1h-2zm-2 11v1h-1v-2h-1v4h-1v1h-2v1h4v-3h2v-3h-1v1zm0-6v3h1v-1h1v-2h-2zm-2-1h1v1h-1v-1zm-1-1h1v1h-1v-1zm-6 5h-1v1h1v1h1v-3h-1v1zm-3 5v2h1v-1h1v-1h-2z"/><path fill="#C0FF97" d="M57 51h-1v1h-1v1h3v-2h-1zm-2 10h-1v-2h-2v1h1v2h1v1h2v-1h-1v-1zm-3-10v-3h-1v-1h-6v1h2v1h1v-1h2v1h-1v1h2v1h-1v2h1v-1h1v-1zm-16 5h1v1h-1v-1zm-1-4v2h2v-2h-2zm0 4h-1v3h2v-2h-1v-1z"/><g fill="#7850FF"><path d="M47 54h-1v1h2v-2h-1v1zm8 1v-1h-2v1h1v1h1v1h1v-2h-1zm-3-1v-1h-1v3h1v3h1v-4h-1v-1z"/><path d="M51 50h-2v-1h1v-1h-2v1h-2v2h2v1h1v5h1v-6h1v-1zm-11 1h-1v-1h-2v-1h-1v-1h-1v2h1v1h1v1h1v1h3v-1h-1v-1zm-3 8v2h1v-3h-1v1zm-2-4h1v1h-1v-1zm-1-1h1v1h-1v-1z"/></g><g fill="#56E5B7"><path d="M54 58h-1v1h1v2h1v-3h-1zm-1-8h1v-1h-2v2h1v-1zm-8-2h-4v-1h-2v2h-1v-1h-2v1h1v1h2v1h1v1h1v-2h-1v-1h4v1h2v-1h1v-1h-2zm-3 11v1h-2v1h3v-1h1v-1h-2z"/><path d="M43 53v-2h-1v3h1v-1zm-2 2h-2v2h2v-1h1v1h1v-2h-2zm-7 6v1h-1v1h2v-1h1v-1h-2zm1-11h-2v3h2v-1h1v-1h-1v-1z"/></g><path fill="#FF8749" d="M53 48v-1h-2v1h1v1h2v-1h-1zm-1 11v-3h-1v5h1v1h1v-2h-1v-1zm-2-13h1v1h-1v-1zm-2 14h1v1h-1v-1zm-1-2h1v1h-1v-1zm-1 3h-1v1h3v-1h-2zm1-1v-1h-2v1h2zm0-14v-1h-1v-1h-1v2h2zm-6 3h-1v1h1v2h1v-1h1v-2h-2zm-3-1h1v1h-1v-1zm-1-1h-1v1h2v-1h-1zm-3 7h-1v2h2v-1h-1v-1zm-2-1h1v1h-1v-1z"/><path fill="#F13441" d="M59 50h-1v2h1v-1h1v-1h-1zm-5 5h-1v3h2v-2h-1v-1zm-8 0v-1h-1v-2h1v-2h-1v1h-1v-1h-1v7h-1v2h2v-3h1v2h1v-2h1v1h1v-2h-2zm-4-7h1v-2h-5v2h1v-1h2v1h1zm-6 7h1v1h-1v-1zm-1 1h1v1h-1v-1zm-2 0h1v1h-1v-1zm-2-6h-2v1h1v1h1v1h1v-2h-1v-1z"/><path opacity=".27" d="M43 44v1h-1v1h-4v1h-2v1h-1v2h1v1h1v1h1v1h1v7h1v1h1v1h3V44h-1z"/></g><g id="sailor-hat"><path d="M61 24v-1h-2v-1h-2v-1h-2v-1h-3v-1H37v1h-3v1h-2v1h-2v1h-2v1h-1v4h1v2h1v2h1v2h1v2h1v1h-1v1h1v1h2v1h5v-1h3v-1h5v1h3v1h5v-1h2v-1h1v-1h-1v-1h1v-2h1v-2h1v-2h1v-2h1v-4z"/><g><path fill="#3D3E54" d="M57 37v1h-2v1h-5v-1h-3v-1h-5v1h-3v1h-5v-1h-2v-1h1v-1h1v-1h2v-1h17v1h2v1h1v1z"/><path fill="#FF931E" d="M57 35v1h-1v-1h-1v-1h-2v-1H36v1h-2v1h-1v1h-1v-2h1v-1h2v-1h19v1h2v1h1z"/><path fill="#FFF" d="M45 23h-1v-1h1v1zm16 1v4h-1v2h-1v2h-1v2h-1v-1h-1v-1h-2v-1H35v1h-2v1h-1v1h-1v-2h-1v-2h-1v-2h-1v-4h2v-1h2v-1h2v-1h3v-1h15v1h3v1h2v1h2v1h2zm-12 3h-1v1h-3v-3h1v-1h-1v-1h1v-1h-1v-1h-1v1h-1v1h1v1h-1v1h1v3h-3v-1h-1v1h1v1h3v1h1v-1h3v-1h1v-1z"/></g><path opacity=".19" d="M32 33v1h-1v-2h-1v-2h-1v-2h-1v-4h2v-1h1v5h1v2h1v3h-1zm2 3h-1v1h-1v1h2v-1h1v-1h1v-1h-2v1zm2-2v1h2v-1h-2zm-2 1v-1h1v-1h-2v1h-1v2h1v-1h1z"/></g><g id="deal-with-it-glasses"><path d="M64 42h-3v1h4v-1zM60 41H28v1h1v2h1v2h1v2h1v1h9v-1h1v-2h1v-2h1v-2h1v2h1v2h1v2h1v1h9v-1h1v-2h1v-2h1v-2h1v-1z"/><path fill="#FFF" d="M33 45v1h-1v-2h1v1zm0 2h1v-1h-1v1zm2-3h-1v2h1v-2zm0 3h1v-1h-1v1zm-1-4h-1v1h1v-1zm-3 0v1h1v-1h-1zm18 1h-1v2h1v-2zm0 3h1v-1h-1v1zm2-3h-1v2h1v-2zm0 2v1h1v-1h-1zm-1-3h-1v1h1v-1zm-3 0v1h1v-1h-1z"/></g></g><a href="/images/png/cg4422-512.png" class="button png-square"><path class="button-bg" d="M26 75h13v11H26z"/><path fill="#FFF" d="M36 77h-1v1h1v5h-1v1h2v-7zm-8 0v7h2v-1h-1v-5h1v-1h-1zm6 3h1v1h-1zm-4 0h1v1h-1zm3 0v-2h-1v3h-1v1h1v1h1v-1h1v-1h-1z"/><title>Download square PNG</title></a><a href="/images/png/cg4422-wide.png" class="button png-wide"><path class="button-bg" d="M42 75h21v11H42z"/><path fill="#FFF" d="M60 77h-1v1h1v5h-1v1h2v-7zm-16 0v7h2v-1h-1v-5h1v-1h-1zm10 3h1v1h-1zm-4 0h1v1h-1zm3 0v-2h-1v3h-1v1h1v1h1v-1h1v-1h-1z"/><title>Download wide PNG</title></a><script type="text/javascript"><![CDATA[
    let cg4422Root = document.getElementById('cg4422');

    if (cg4422Root) {
      let cgRoot = cg4422Root;
      let cgBg = cgRoot.querySelector('.cg-bg');
      let cgBody = cgRoot.querySelector('.cg-body');

      cgBg.addEventListener('dblclick', () => {
        cgRoot.classList.toggle('menu-in');
      });

      cgBody.addEventListener('click', () => {

        let bufferArray = [];
        let lastKeystrokeTime = Date.now();
        const cheatcode = (e) => {

          const key = e.key.toLowerCase();
          const latestKeystrokeTime = Date.now();

          if (latestKeystrokeTime - lastKeystrokeTime > 1500) {
            bufferArray = [];
          }

          bufferArray.push(key);

          const word = bufferArray.join('');
          if (word === 'dealwithit') {
            console.log('No u.');

            cgRoot.classList.add('deal-with-it');

            setTimeout(() => {
              cgRoot.classList.remove('deal-with-it');
            }, 10000);

            clearListener();
          }
  
          lastKeystrokeTime = latestKeystrokeTime;

        }
        document.addEventListener('keyup', cheatcode, true);

        const clearListener = () => {
          document.removeEventListener('keyup', cheatcode, true);
        }

      });
    
    let cgDigits = cgRoot.querySelector('.cg-digits');
    let cgTime = cgRoot.querySelector('.cg-time');
  

      let cgGlasses = cgRoot.querySelector('.cg-glasses');
      cgGlasses.addEventListener('dblclick', () => {
        cgRoot.classList.add('get-time');

        let now = new Date();
        let hours = ('0' + now.getHours()).substr(-2);
        let minutes = ('0' + now.getMinutes()).substr(-2);;
        let digits = [hours.substr(0,1), hours.substr(1), minutes.substr(0,1), minutes.substr(1)];

        cgTime.replaceChildren();

        for (let i = 0; i < 4; i++) {
          switch (digits[i]) {
            case '0':
              cgTime.appendChild(cgDigits.querySelector('.cg-digit-zero').cloneNode(true));
              break;
            case '1':
              cgTime.appendChild(cgDigits.querySelector('.cg-digit-one').cloneNode(true));
              break;
            case '2':
              cgTime.appendChild(cgDigits.querySelector('.cg-digit-two').cloneNode(true));
              break;
            case '3':
              cgTime.appendChild(cgDigits.querySelector('.cg-digit-three').cloneNode(true));
              break;
            case '4':
              cgTime.appendChild(cgDigits.querySelector('.cg-digit-four').cloneNode(true));
              break;
            case '5':
              cgTime.appendChild(cgDigits.querySelector('.cg-digit-five').cloneNode(true));
              break;
            case '6':
              cgTime.appendChild(cgDigits.querySelector('.cg-digit-six').cloneNode(true));
              break;
            case '7':
              cgTime.appendChild(cgDigits.querySelector('.cg-digit-seven').cloneNode(true));
              break;
            case '8':
              cgTime.appendChild(cgDigits.querySelector('.cg-digit-eight').cloneNode(true));
              break;
            case '9':
              cgTime.appendChild(cgDigits.querySelector('.cg-digit-nine').cloneNode(true));
              break;
          }
        }

        cgTime.childNodes[1].style.transform = 'translateX(4px)';
        cgTime.childNodes[2].style.transform = 'translateX(10px)';
        cgTime.childNodes[3].style.transform = 'translateX(14px)';

        cgTime.appendChild(cgDigits.querySelector('.cg-digit-colon').cloneNode(true));

        setTimeout(() => {
          cgRoot.classList.remove('get-time');
        }, 10000);
      });

    }]]></script></svg>