<svg id="cg4544" xmlns="http://www.w3.org/2000/svg" viewBox="0 0 89 89"><style>
    #cg4544 {
      overflow: hidden;
    }

    #cg4544 .button {
      opacity: 0;
      pointer-events: none;
      transition: 0.2s ease;
      transform: translate3d(0, 20px, 0);
    }

    #cg4544 .button.png-wide {
      transition-delay: 0.2s;
    }

    #cg4544.menu-in .button {
      opacity: 1;
      pointer-events: auto;
      cursor: pointer;
      transform: translate3d(0, 0, 0);
    }

    #cg4544.menu-in .button .button-bg {
      transition: fill 0.2s ease;
    }

    #cg4544.menu-in .button:hover .button-bg {
      fill: #FF5FFA;
    }

    #cg4544 .cg-glasses {
      transition: opacity 0.2s ease;
    }

    #cg4544 #deal-with-it-glasses {
      opacity: 0;
      pointer-events: none;
      transition: opacity 0.2s ease, transform 3s linear;
      transform: translate3d(0, -60px, 0);
    }

    #cg4544.deal-with-it #deal-with-it-glasses {
      opacity: 1;
      transform: translate3d(0, 0, 0);
    }

    #cg4544.deal-with-it .cg-glasses {
      opacity: 0;
      transition-delay: 2s;
    }

  
      #cg4544.blastoff .cg-body {
        animation: cg-anim-takeoff 10s ease-in 0s;
      }

      #cg4544.blastoff .cg-shadow {
        animation: cg-anim-shadow-takeoff 10s ease-in 0s;
      }

      #cg4544.blastoff .rocket-flame {
        animation-name: cg-anim-rocket-blastoff;
      }
    
    #cg4544 .cg-eyes {
      transition: opacity 0.2s ease;
    }

    #cg4544.get-time .cg-eyes {
      opacity: 0;
    }
  
    #cg4544 .cg-time {
      pointer-events: none;
      transition: opacity 0.2s ease;
      opacity: 0;
    }

    #cg4544.get-time .cg-time {
      opacity: 1;
    }

    #cg4544 .cg-time .cg-digit-colon {
      animation: cg-colon-blink 1s ease-in-out 0s infinite;
    }

    @keyframes cg-colon-blink {
      20% {
        opacity: 1;
      }
      50% {
        opacity: 0;
      }
      80% {
        opacity: 1;
      }
    }
  
    #cg4544 .cg-body {
      animation: cg-anim-hover 1.5s ease-in-out -0.8321s infinite;
      transform-origin: center;
      transform-box: fill-box;
    }

    @keyframes cg-anim-hover {
      0% {
        transform: translate3d(0,0,0);
      }
      50% {
        transform: translate3d(0,-2px,0);
      }
      100% {
        transform: translate3d(0,0,0);
      }
    }
  
      @keyframes cg-anim-takeoff {
        0% {
          transform: translate3d(0,0,0);
        }
        95% {
          transform: translate3d(0,-120px,0);
        }
        100% {
          transform: translate3d(0,0,0);
        }
      }
    
    #cg4544 .cg-shadow {
      animation: cg-anim-shadow 1.5s ease-in-out -0.8321s infinite;
      transform-origin: center;
      transform-box: fill-box;
    }

    @keyframes cg-anim-shadow {
      0% {
        transform: scale3d(1,1,1);
      }
      50% {
        transform: scale3d(0.9,1,1);
      }
      100% {
        transform: scale3d(1,1,1);
      }
    }
  
      @keyframes cg-anim-shadow-takeoff {
        0% {
          transform: scale3d(0.9,1,1);
        }
        95% {
          transform: scale3d(0.1,1,1);
        }
        100% {
          transform: scale3d(1,1,1);
        }
      }
    
      @keyframes cg-anim-rgb {
        0% {
          fill: #FF5F5F;
        }
        11.1111% {
          fill: #FFA45F;
        }
        22.2222% {
          fill: #BAFF5F;
        }
        33.3333% {
          fill: #5FFF74;
        }
        44.4444% {
          fill: #5FFFCE;
        }
        55.5555% {
          fill: #5FD9FF;
        }
        66.6666% {
          fill: #5F6AFF;
        }
        77.7777% {
          fill: #AA5FFF;
        }
        88.8888% {
          fill: #FF5FFA;
        }
        100% {
          fill: #FF5F5F;
        }
      }
    
      #cg4544 .planet-color {
        animation: cg-anim-rgb 10s linear -8.0158s infinite;
      }
    
      #cg4544 .rocket-flame {
        animation: cg-anim-rocket 0.5s steps(1) -0.2683s infinite;
        transform-origin: center top;
        transform-box: fill-box;
      }

      @keyframes cg-anim-rocket {
        0% {
          transform: scaleX(1) translate3d(0, 0, 0);
        }
        25% {
          transform: scaleX(-1) translate3d(0, -1px, 0);
        }
        50% {
          transform: scaleX(1) translate3d(0, -2px, 0);
        }
        75% {
          transform: scaleX(-1) translate3d(0, -1px, 0);
        }
        100% {
          transform: scaleX(1) translate3d(0, 0, 0);
        }
      }

      @keyframes cg-anim-rocket-blastoff {
        0% {
          transform: scaleX(1) scaleY(1) translate3d(0, 0, 0);
        }
        25% {
          transform: scaleX(-1) scaleY(1.5) translate3d(0, -1px, 0);
        }
        50% {
          transform: scaleX(1) scaleY(2) translate3d(0, -2px, 0);
        }
        75% {
          transform: scaleX(-1) scaleY(1.5) translate3d(0, -1px, 0);
        }
        100% {
          transform: scaleX(1) scaleY(1) translate3d(0, 0, 0);
        }
      }
    </style><path class="cg-bg" d="M0 0h89v89H0z" fill="#7850FF"></path><g id="planet"><path id="planet-bg" d="M30 6V5h-4v1h-2v1h-2V6h-2V5h-7v1h-2v1H9v1H8v1H7v2H6v2H5v7h1v1H5v1H4v2H3v3h1v1h1v1h4v-1h2v-1h3v1h6v-1h2v-1h2v-1h1v-1h1v-1h1v-1h1v-2h1v-9h1V8h1V6h-1zM9 24v1H7v-2h1v1h1z"/><g class="planet-color" fill="#ACE5F3"><path d="M27 15v2h-1v1h-1v1h-1v1h-1v1h-1v1h-1v1h-2v1h-2v1h-2v1h-1v1h6v-1h2v-1h2v-1h1v-1h1v-1h1v-2h1v-5h-1zM14 22h2v-1h2v-1h2v-1h1v-1h1v-1h1v-1h1v-2h1v-2h1v-2h-1V9h-1V8h-2V7h-2V6h-7v1h-2v1H9v1H8v2H7v2H6v7h1v2h1v1h1v1h3v-1h2v-1z"/></g><path id="ring-colour" fill="#7850FF" d="M29 6h-3v1h-2v1h3v4h-1v2h-1v2h-1v1h-1v1h-1v1h-1v1h-1v1h-2v1h-2v1h-2v1h-2v1h-2v1H6v-3h1v-1H5v2H4v3h1v1h4v-1h2v-1h2v-1h2v-1h2v-1h2v-1h2v-1h1v-1h1v-1h1v-1h1v-1h1v-2h1v-2h1v-2h1V8h1V6h-1z"/><g id="planet-highlights" opacity=".21" fill="#FFF"><path d="M20 14h-2v1h3v-1h-1zM25 20h1v1h-1zM25 10v2h1v-2h-1zM24 21h1v1h-1zM24 9h1v1h-1zM23 22h1v1h-1zM23 8h-1v1h2V8h-1zM21 23h-2v1h4v-1h-2zM22 16v-1h-1v2h1v-1zM21 7h-1v1h2V7h-1zM20 17h1v1h-1zM19 18h1v1h-1zM19 6h-6v1h7V6h-1zM18 19h1v1h-1zM17 20h1v1h-1zM17 15h1v1h-1zM17 12v-1h-1v2h1v-1zM15 16v1h2v-1h-2zM15 13h1v1h-1zM15 10h-1v1h2v-1h-1zM14 14h1v1h-1zM13 17v1h2v-1h-2zM13 15h1v1h-1zM12 16h1v1h-1zM12 11v1h2v-1h-2zM11 12h1v1h-1zM11 7v1h2V7h-2zM10 13h1v1h-1zM9 23h1v1H9zM9 14h1v1H9zM9 8v1h2V8H9zM8 22h1v1H8zM8 10v1h1V9H8v1zM7 22h1v-2H7v2zM7 12v1h1v-2H7v1zM6 14v6h1v-7H6v1z"/></g><g id="planet-stars"><g fill="#FFFA9F"><path d="M39 4v1h-1v1h-1V5h-1V4h1V3h1v1zM36 11v2h-1v-2h1zM35 13v1h-2v-1h2zM35 10v1h-2v-1h2zM33 11v2h-1v-2h1zM26 2h1v1h-1zM10 33v1H9v1H8v-1H7v-1h1v-1h1v1z"/></g></g></g><path class="cg-shadow" opacity=".17" d="M60 79v-1H29v1h-2v1h3v1h29v-1h3v-1z"/><g class="cg-body"><g id="rockets"><g id="rocket-right"><g class="rocket-flame"><path fill="#FF4E00" d="M65 57h-1v4h-1v5h1v1h-1v4h1v1h-1v2h1v1h1v-5h-1v-2h1v-1h1v-7h1v-3h-2zM63 59v-2h-1v4h1v-2z"/><path fill="#FF9945" d="M66 56h-4v1h1v4h1v5h1v-6h1v-3h1v-1h-1z"/><path fill="#F9F871" d="M65 56h-2v2h1v3h1v-1h1v-4h-1z"/></g><path d="M69 39v-1h-1v-1h-7v1h-1v1h-1v13h1v1h1v2h1v1h5v-1h1v-2h1v-1h1V39h-1z"/><g><path fill="#B3B3B3" d="M67 54v1h-5v-1h5z"/><path fill="#3F3F3F" d="M61 39v-1h7v1h1v13h-1v1h-7v-1h-1V39h1z"/></g><path opacity=".17" d="M68 39v1h-1v11h-1v-3h-1v-2h-1v-3h-1v-5h-2v1h-1v13h1v1h7v-1h1V39h-1z"/></g><g id="rocket-left"><g class="rocket-flame"><path fill="#FF4E00" d="M24 57h1v4h1v5h-1v1h1v4h-1v1h1v2h-1v1h-1v-5h1v-2h-1v-1h-1v-7h-1v-3h2zM26 59v-2h1v4h-1v-2z"/><path fill="#FF9945" d="M23 56h4v1h-1v4h-1v5h-1v-6h-1v-3h-1v-1h1z"/><path fill="#F9F871" d="M24 56h2v2h-1v3h-1v-1h-1v-4h1z"/></g><path d="M20 39v-1h1v-1h7v1h1v1h1v13h-1v1h-1v2h-1v1h-5v-1h-1v-2h-1v-1h-1V39h1z"/><g><path fill="#B3B3B3" d="M22 54v1h5v-1h-5z"/><path fill="#3F3F3F" d="M28 39v-1h-7v1h-1v13h1v1h7v-1h1V39h-1z"/></g><path opacity=".18" d="M21 39v1h1v11h1v-3h1v-2h1v-3h1v-5h2v1h1v13h-1v1h-7v-1h-1V39h1z"/></g></g><path d="M63 47v-4h-1v-3h-1v-2h-1v-1h-1v-1h-1v-1h-1v-1h-1v-1h-1v-1h-2v-1h-2v-1H38v1h-2v1h-2v1h-1v1h-1v1h-1v1h-1v1h-1v1h-1v2h-1v3h-1v4h-1v13h1v3h1v3h1v1h1v1h1v1h2v1h2v-1h1v-1h1v-4h1v3h1v1h1v1h2v-1h1v-1h1v-4h1v-1h1v1h1v4h1v1h1v1h2v-1h1v-1h1v-3h1v4h1v1h1v1h2v-1h2v-1h1v-1h1v-1h1v-3h1v-3h1V47z"/><path class="cg-body-color" fill="#FFF75F" d="M62 47v-4h-1v-3h-1v-2h-1v-1h-1v-1h-1v-1h-1v-1h-1v-1h-2v-1h-2v-1H38v1h-2v1h-2v1h-1v1h-1v1h-1v1h-1v1h-1v2h-1v3h-1v4h-1v13h1v3h1v3h1v1h1v1h2v1h2v-1h1v-4h1v-1h1v1h1v3h1v1h2v-1h1v-4h1v-1h1v-1h1v1h1v1h1v4h1v1h2v-1h1v-3h1v-1h1v1h1v4h1v1h2v-1h2v-1h1v-1h1v-3h1v-3h1V47z"/><g class="cg-face"><path d="M39 36v1h-3v1h-1v1h-1v1h-1v2h-1v2h1v1h1v1h2v1h3v1h11v-1h3v-1h2v-1h1v-1h1v-2h-1v-2h-1v-1h-1v-1h-1v-1h-3v-1z"/><path fill="#FFF" d="M39 37v1h-3v1h-1v1h-1v2h-1v2h1v1h2v1h3v1h11v-1h3v-1h2v-1h1v-2h-1v-2h-1v-1h-1v-1h-3v-1z"/><g class="cg-eyes"><path d="M51 43v-1h-1v1h-2v1h1v1h4v-2zM37 41h1v1h-1zM39 43v-1h-1v1h-2v2h4v-1h1v-1h-1zM51 41h1v1h-1z"/></g><g class="cg-digits" style="display: none;"><g class="cg-digit-zero"><path d="M38 40h-2v5h3v-5h-1zm0 2v2h-1v-3h1v1z"/></g><g class="cg-digit-one"><path d="M39 44v1h-3v-1h1v-2h-1v-1h1v-1h1v4h1z"/></g><g class="cg-digit-two"><path d="M39 42h-1v-1h1v1zm-1 3h1v-1h-2v1h1zm0-3h-1v1h1v-1zm-1-2h-1v1h2v-1h-1zm-1 3v1h1v-1h-1z"/></g><g class="cg-digit-three"><path d="M38 44v-1h1v1h-1zm1-3h-1v1h1v-1zm-2 1v1h1v-1h-1zm0-2h-1v1h2v-1h-1zm-1 4v1h2v-1h-2z"/></g><g class="cg-digit-four"><path d="M39 41v4h-1v-2h-2v-3h1v2h1v-1h1z"/></g><g class="cg-digit-five"><path d="M38 44v-1h1v1h-1zm0-3h1v-1h-3v3h2v-1h-1v-1h1zm-2 3v1h2v-1h-2z"/></g><g class="cg-digit-six"><path d="M38 41h-1v-1h2v1h-1zm-2 0v3h1v-1h1v1h-1v1h2v-3h-2v-1h-1z"/></g><g class="cg-digit-seven"><path d="M39 40v5h-1v-4h-2v-1h3z"/></g><g class="cg-digit-eight"><path d="M38 40h-2v5h3v-5h-1zm0 4h-1v-1h1v1zm0-2h-1v-1h1v1z"/></g><g class="cg-digit-nine"><path d="M38 40h-2v3h2v2h1v-5h-1zm0 2h-1v-1h1v1z"/></g><g class="cg-digit-colon"><path d="M45 42h-1v-1h1v1zm0 1h-1v1h1v-1z"/></g></g><g class="cg-time"></g></g><g id="overalls"><path d="M63 48h-1v1h-3V35h-1v-1h-1v-1h-2v17h-2v1H36v-1h-2V33h-2v1h-1v1h-1v14h-3v-1h-2v12h1v3h1v3h1v1h1v1h1v1h2v1h2v-1h1v-1h1v-4h1v3h1v1h1v1h2v-1h1v-1h1v-4h1v-1h1v1h1v4h1v1h1v1h2v-1h1v-1h1v-3h1v4h1v1h1v1h2v-1h2v-1h1v-1h1v-1h1v-3h1v-3h1V48z"/><g><path fill="#FF0" d="M33 53v2h-2v-2h1zM56 53h2v1h-2z"/><path fill="#2F7DF2" d="M55 56h1v-1h2v-1h2v-1h1v5h-1v2h-2v1h-3v-1h-1v-4z"/><path fill="#2F7DF2" d="M31 56h2v-1h1v-2h-1v-1h-2v1h-1v2h1v1zm24-5h2v-1h5v-1h1v11h-1v3h-1v3h-1v1h-1v1h-2v1h-2v-1h-1v-4h-1v-1h-1v1h-1v3h-1v1h-2v-1h-1v-4h-1v-1h-1v-1h-1v1h-1v1h-1v4h-1v1h-2v-1h-1v-3h-1v-1h-1v1h-1v4h-1v1h-2v-1h-2v-1h-1v-1h-1v-3h-1v-3h-1V49h1v1h5v1h4v1h17v-1h2zm0 2v2h-2v5h1v1h1v1h3v-1h2v-1h1v-2h1v-5h-1v-1h-1v1h-2v-1h-2v1h-1z"/><path fill="#2F7DF2" d="M33 49v1h-1v-1h-1V35h1v-1h1v14zM56 34h1v1h1v14h-1v1h-1V35z"/></g><path opacity=".13" d="M33 50h-1V34h1v16zm24-16h-1v16h1V34zM32 53h-1v2h1v-2zm21 2h-1v5h1v-5zm2 6h-1v1h1v-1zm0-7h-2v1h2v-1zm2-1h-1v1h1v-1zm3-1h-2v1h2v-1zm-6 8h-1v1h1v-1zm-21 8v-1h-1v-1h-1v-3h-1v-3h-1V49h-3v11h1v3h1v3h1v1h1v1h2v1h2v-1h-1z"/></g><g id="side-pistol"><g><path d="M66 56v-1h-5v1h-1v2h1v1h1v4h1v1h2v-2h1v-2h1v-4z"/><path fill="#4C4C4C" d="M65 60h1v-4h-5v2h1v1h1v4h1v-1h1z"/><path d="M62 59v1h-3v-1h-2v1h-1v4h1v3h1v2h1v4h5v-7h1v-7z"/><path fill="#4C4C4C" d="M62 60v1h-3v-1h-2v4h1v3h1v2h1v3h3v-6h1v-6z"/><g><path d="M63 73h-3v5h3v-1h1v-1h-1zM64 54v1h-1v1h-1v1h-1v-1h-1v-1h-2v-1h-8v1h-4v1h-1v4h1v1h1v1h2v-1h4v-1h6v1h3v-1h1v-1h2v-5z"/></g><g fill="#B2B2B2"><path d="M63 56h1v2h-1zM61 73h1v4h-1zM61 57h-1v-1h-2v-1h-8v1h-4v4h1v1h2v-1h4v-1h6v1h3v-1h1v-1h-2z"/></g><path opacity=".25" d="M57 60h1v4h-1zM58 64h1v3h-1zM59 67h1v2h-1zM60 69h1v3h-1z"/><path fill="#8C6239" d="M57 55h-7v1h-4v4h1v1h2v-1h4v-1h4v-3h1v-1z"/><path d="M57 56h1v3h-1z"/><path opacity=".25" d="M46 56h1v4h-1zM47 60h1v1h-1zM50 55h1v1h-1z"/></g></g><g id="monkey-friend"><path d="M62 14v-1h-1v-1h-1v-1h-5v1h-1v1h-1v4h1v1h1v1h2v-1h1v-1h-1v-1h-1v-2h3v1h1v6h-1v1h-1v2h-1v2h-1v1h-2v1h-3v-2h-1v-2h1v-1h1v-1h1v-1h1v-2h-1v-1h-1v-1h-1v-2h-1v-1h-1v-1H39v1h-1v1h-1v2h-1v1h-1v1h-1v2h1v1h1v1h1v1h1v2h-1v4h1v2h1v1h3v-1h1v-1h2v1h1v1h3v-1h1v-1h5v-1h2v-1h1v-1h1v-1h1v-2h1v-2h1v-1h1v-8h-1z"/><g fill="#826446"><path d="M61 14v-1h-1v-1h-5v1h-1v4h1v1h2v-1h-1v-1h-1v-2h1v-1h3v1h1v1h1v6h-1v1h-1v2h-1v2h-1v1h-1v1h-2v1h-4v1h5v-1h2v-1h1v-1h1v-2h1v-2h1v-1h1v-8h-1z"/><path d="M50 27v-1h-1v-2h1v-2h2v-1h1v-2h-1v-1h-2v-3h-1v-1H39v1h-1v3h-2v1h-1v2h1v1h2v2h1v2h-1v3h1v-1h3v1h2v1h1v-1h1v-1h3v1h1v-2z"/><path d="M39 29h1v1h-1z"/></g><g fill="#BC9C80"><path d="M51 19h-1v2h2v-2h-1zM46 29v3h3v-3h-3zM48 17h-3v1h-2v-1h-3v1h-1v5h1v1h1v1h6v-1h1v-1h1v-5h-1v-1z"/><path d="M47 28v-1h-1v-1h-4v1h-1v1h1v1h1v1h2v-1h1v-1h1z"/><path d="M39 29v3h3v-3h-3zM36 21h2v-2h-2v2z"/></g><g><path fill="#70543C" d="M49 27v2h1v-3h-1v1zM38 27v2h1v-3h-1v1zM49 24h-1v2h1v-2zM39 25v1h1v-2h-1v1zM49 18h1v1h-1z"/><path d="M47 19h-1v2h2v-3h-1v1z"/><path fill="#70543C" d="M38 18h1v1h-1z"/><path d="M41 19h-1v2h2v-3h-1v1z"/><path fill="#70543C" d="M39 14h1v1h-1zM38 23h1v1h-1zM38 15h1v1h-1z"/></g><g><path fill="#FFF" d="M40 18h1v1h-1zM46 18h1v1h-1z"/><path fill="#FBB" d="M48 21h-1v1h2v-1h-1zM39 21v1h2v-1h-2z"/></g></g><g id="moon-wand"><g><path d="M46 52v-1h1v-1h1v-1h6v1h1v1h1v1h1v2h1v3h-1v2h-1v1h-1v1h-1v1h-1v3h1v4h1v3h1v6h-1v1h-1v-1h-1v-5h-1v-4h-1v-4h-1v-3h-2v-1h-1v-1h-1v-1h-1v-4h2v1h1v1h4v-3h-1v-1h-4v1h-2v-2h1z"/><g><g><g fill="#5B5B59"><path d="M53 69v4h1v-4h-1zM54 73v5h1v-5h-1z"/></g></g><g><path fill="#5B5B59" d="M52 65v4h1v-4h-1z"/></g><path fill="#5B5B59" d="M52 63v2h-1v-3h1v1z"/><g><path fill="#FFF27B" d="M46 52h1v1h-1z"/></g><path fill="#FFF27B" d="M48 51v-1h6v1h1v1h1v2h1v3h-1v2h-1v1h-1v1h-6v-1h-1v-1h-1v-3h1v1h1v1h4v-1h1v-3h-1v-1h-1v-1h-4v-1h1z"/></g><g><g><path fill="#99CAFF" d="M50 47h1v1h-1z"/><path fill="#99F" d="M52 51h1v1h-1z"/><path fill="#99FFFC" d="M53 58h1v1h-1z"/><path fill="#D292FF" d="M55 47v1h1v1h1v-1h1v-1h-1v-1h-1v1z"/><path fill="#9FC" d="M58 57h1v1h-1zM59 58h1v1h-1zM59 56h1v1h-1zM60 57h1v1h-1z"/><path fill="#FF94E3" d="M60 51h1v1h-1z"/></g></g></g></g><g id="deal-with-it-glasses"><path d="M64 42h-3v1h4v-1zM60 41H28v1h1v2h1v2h1v2h1v1h9v-1h1v-2h1v-2h1v-2h1v2h1v2h1v2h1v1h9v-1h1v-2h1v-2h1v-2h1v-1z"/><path fill="#FFF" d="M33 45v1h-1v-2h1v1zm0 2h1v-1h-1v1zm2-3h-1v2h1v-2zm0 3h1v-1h-1v1zm-1-4h-1v1h1v-1zm-3 0v1h1v-1h-1zm18 1h-1v2h1v-2zm0 3h1v-1h-1v1zm2-3h-1v2h1v-2zm0 2v1h1v-1h-1zm-1-3h-1v1h1v-1zm-3 0v1h1v-1h-1z"/></g></g><a href="/images/png/cg4544-512.png" class="button png-square"><path class="button-bg" d="M26 75h13v11H26z"/><path fill="#FFF" d="M36 77h-1v1h1v5h-1v1h2v-7zm-8 0v7h2v-1h-1v-5h1v-1h-1zm6 3h1v1h-1zm-4 0h1v1h-1zm3 0v-2h-1v3h-1v1h1v1h1v-1h1v-1h-1z"/><title>Download square PNG</title></a><a href="/images/png/cg4544-wide.png" class="button png-wide"><path class="button-bg" d="M42 75h21v11H42z"/><path fill="#FFF" d="M60 77h-1v1h1v5h-1v1h2v-7zm-16 0v7h2v-1h-1v-5h1v-1h-1zm10 3h1v1h-1zm-4 0h1v1h-1zm3 0v-2h-1v3h-1v1h1v1h1v-1h1v-1h-1z"/><title>Download wide PNG</title></a><script type="text/javascript"><![CDATA[
    let cg4544Root = document.getElementById('cg4544');

    if (cg4544Root) {
      let cgRoot = cg4544Root;
      let cgBg = cgRoot.querySelector('.cg-bg');
      let cgBody = cgRoot.querySelector('.cg-body');

      cgBg.addEventListener('dblclick', () => {
        cgRoot.classList.toggle('menu-in');
      });

      cgBody.addEventListener('click', () => {

        let bufferArray = [];
        let lastKeystrokeTime = Date.now();
        const cheatcode = (e) => {

          const key = e.key.toLowerCase();
          const latestKeystrokeTime = Date.now();

          if (latestKeystrokeTime - lastKeystrokeTime > 1500) {
            bufferArray = [];
          }

          bufferArray.push(key);

          const word = bufferArray.join('');
          if (word === 'dealwithit') {
            console.log('No u.');

            cgRoot.classList.add('deal-with-it');

            setTimeout(() => {
              cgRoot.classList.remove('deal-with-it');
            }, 10000);

            clearListener();
          }
  

      if (word === 'blastoff') {
        console.log('Prepare for takeoff!');

        cgRoot.classList.add('blastoff');

        setTimeout(() => {
          cgRoot.classList.remove('blastoff');
        }, 10000);

        clearListener();
      }

    
          lastKeystrokeTime = latestKeystrokeTime;

        }
        document.addEventListener('keyup', cheatcode, true);

        const clearListener = () => {
          document.removeEventListener('keyup', cheatcode, true);
        }

      });
    
    let cgDigits = cgRoot.querySelector('.cg-digits');
    let cgTime = cgRoot.querySelector('.cg-time');
  

      let cgFace = cgRoot.querySelector('.cg-face');
      cgFace.addEventListener('dblclick', () => {
        cgRoot.classList.add('get-time');

        let now = new Date();
        let hours = ('0' + now.getHours()).substr(-2);
        let minutes = ('0' + now.getMinutes()).substr(-2);;
        let digits = [hours.substr(0,1), hours.substr(1), minutes.substr(0,1), minutes.substr(1)];

        cgTime.replaceChildren();

        for (let i = 0; i < 4; i++) {
          switch (digits[i]) {
            case '0':
              cgTime.appendChild(cgDigits.querySelector('.cg-digit-zero').cloneNode(true));
              break;
            case '1':
              cgTime.appendChild(cgDigits.querySelector('.cg-digit-one').cloneNode(true));
              break;
            case '2':
              cgTime.appendChild(cgDigits.querySelector('.cg-digit-two').cloneNode(true));
              break;
            case '3':
              cgTime.appendChild(cgDigits.querySelector('.cg-digit-three').cloneNode(true));
              break;
            case '4':
              cgTime.appendChild(cgDigits.querySelector('.cg-digit-four').cloneNode(true));
              break;
            case '5':
              cgTime.appendChild(cgDigits.querySelector('.cg-digit-five').cloneNode(true));
              break;
            case '6':
              cgTime.appendChild(cgDigits.querySelector('.cg-digit-six').cloneNode(true));
              break;
            case '7':
              cgTime.appendChild(cgDigits.querySelector('.cg-digit-seven').cloneNode(true));
              break;
            case '8':
              cgTime.appendChild(cgDigits.querySelector('.cg-digit-eight').cloneNode(true));
              break;
            case '9':
              cgTime.appendChild(cgDigits.querySelector('.cg-digit-nine').cloneNode(true));
              break;
          }
        }

        cgTime.childNodes[1].style.transform = 'translateX(4px)';
        cgTime.childNodes[2].style.transform = 'translateX(10px)';
        cgTime.childNodes[3].style.transform = 'translateX(14px)';

        cgTime.appendChild(cgDigits.querySelector('.cg-digit-colon').cloneNode(true));

        setTimeout(() => {
          cgRoot.classList.remove('get-time');
        }, 10000);
      });

    }]]></script></svg>