<svg id="cg4501" xmlns="http://www.w3.org/2000/svg" viewBox="0 0 89 89"><style>
    #cg4501 {
      overflow: hidden;
    }

    #cg4501 .button {
      opacity: 0;
      pointer-events: none;
      transition: 0.2s ease;
      transform: translate3d(0, 20px, 0);
    }

    #cg4501 .button.png-wide {
      transition-delay: 0.2s;
    }

    #cg4501.menu-in .button {
      opacity: 1;
      pointer-events: auto;
      cursor: pointer;
      transform: translate3d(0, 0, 0);
    }

    #cg4501.menu-in .button .button-bg {
      transition: fill 0.2s ease;
    }

    #cg4501.menu-in .button:hover .button-bg {
      fill: #FF5FFA;
    }

    #cg4501 .cg-glasses {
      transition: opacity 0.2s ease;
    }

    #cg4501 #deal-with-it-glasses {
      opacity: 0;
      pointer-events: none;
      transition: opacity 0.2s ease, transform 3s linear;
      transform: translate3d(0, -60px, 0);
    }

    #cg4501.deal-with-it #deal-with-it-glasses {
      opacity: 1;
      transform: translate3d(0, 0, 0);
    }

    #cg4501.deal-with-it .cg-glasses {
      opacity: 0;
      transition-delay: 2s;
    }

  
    #cg4501 .cg-eyes {
      transition: opacity 0.2s ease;
    }

    #cg4501.get-time .cg-eyes {
      opacity: 0;
    }
  
    #cg4501 .cg-time {
      pointer-events: none;
      transition: opacity 0.2s ease;
      opacity: 0;
    }

    #cg4501.get-time .cg-time {
      opacity: 1;
    }

    #cg4501 .cg-time .cg-digit-colon {
      animation: cg-colon-blink 1s ease-in-out 0s infinite;
    }

    @keyframes cg-colon-blink {
      20% {
        opacity: 1;
      }
      50% {
        opacity: 0;
      }
      80% {
        opacity: 1;
      }
    }
  
    #cg4501 .cg-body {
      animation: cg-anim-hover 1.5s ease-in-out -0.7433s infinite;
      transform-origin: center;
      transform-box: fill-box;
    }

    @keyframes cg-anim-hover {
      0% {
        transform: translate3d(0,0,0);
      }
      50% {
        transform: translate3d(0,-2px,0);
      }
      100% {
        transform: translate3d(0,0,0);
      }
    }
  
    #cg4501 .cg-shadow {
      animation: cg-anim-shadow 1.5s ease-in-out -0.7433s infinite;
      transform-origin: center;
      transform-box: fill-box;
    }

    @keyframes cg-anim-shadow {
      0% {
        transform: scale3d(1,1,1);
      }
      50% {
        transform: scale3d(0.9,1,1);
      }
      100% {
        transform: scale3d(1,1,1);
      }
    }
  
      @keyframes cg-anim-rgb {
        0% {
          fill: #FF5F5F;
        }
        11.1111% {
          fill: #FFA45F;
        }
        22.2222% {
          fill: #BAFF5F;
        }
        33.3333% {
          fill: #5FFF74;
        }
        44.4444% {
          fill: #5FFFCE;
        }
        55.5555% {
          fill: #5FD9FF;
        }
        66.6666% {
          fill: #5F6AFF;
        }
        77.7777% {
          fill: #AA5FFF;
        }
        88.8888% {
          fill: #FF5FFA;
        }
        100% {
          fill: #FF5F5F;
        }
      }
    
      #cg4501 .star-color {
        animation: cg-anim-rgb 5s linear -2.9546s infinite;
      }
    
      #cg4501 .wing-color {
        animation: cg-anim-rgb 10s linear -8.5062s infinite;
      }
    </style><path class="cg-bg" d="M0 0h89v89H0z" fill="#FFF75F"></path><g id="star-expression"><path d="M25 16h1v1h-1zM24 17h1v1h-1zM22 6h1v1h-1zM23 16h2v-1h-3v1h1zM22 18v1h2v-1h-2zM21 5h1v1h-1zM21 7h1v1h-1zM22 15v-1h-2v1h2zM21 17h-1v1h2v-1h-1zM20 4h1v1h-1zM20 8h1v1h-1zM20 15h-1v2h1v-2zM19 5h1v1h-1zM19 10h1V9h-1V6h-1v5h1v-1zM16 14v1h1v-2h-1v1zM15 11h1V9h-1v2zM15 12h1v1h-1zM14 11h1v1h-1zM14 15h-1v1h3v-1h-2zM12 16h1v1h-1zM12 9h3V8h-4v1h1zM11 17h1v1h-1zM10 7h1v1h-1zM10 7V6H8v1h2zM9 18v1h2v-1H9zM8 17h1v1H8zM8 9V7H7v3h1V9zM8 15H7v2h1v-2zM6 10h1v1H6zM6 14H5v1h2v-1H6zM5 11h1v1H5zM5 12H4v2h1v-2z"/><g><path class="star-color" fill="#FECAD2" d="M16 13v2h-3v1h-1v1h-1v1H9v-1H8v-2H7v-1H5v-2h1v-1h1v-1h1V7h2v1h1v1h4v2h-1v1h1v1h1z"/></g><g><path class="star-color" fill="#FECAD2" d="M22 6v1h-1v1h-1v1h-1V6h1V5h1v1h1z"/></g><g><path class="star-color" fill="#FECAD2" d="M25 16v1h-1v1h-2v-1h-2v-2h2v1h3z"/></g><g opacity=".71" fill="#FFF"><path d="M15 13h1v1h-1zM14 12h1v1h-1zM15 10V9h-1v1h1zM10 8h1v1h-1zM14 10h1v1h-1zM9 7h1v1H9zM15 14h1v1h-1zM12 15h1v1h-1zM21 6h1v1h-1zM20 5h1v1h-1zM20 7h1v1h-1zM19 8h1v1h-1zM24 16h1v1h-1zM23 17h1v1h-1zM21 15h1v1h-1zM11 16h1v1h-1zM10 17h1v1h-1z"/></g></g><path class="cg-shadow" opacity=".17" d="M60 79v-1H29v1h-2v1h3v1h29v-1h3v-1z"/><g class="cg-body"><g id="fluffy-wings"><g id="fluffy-wings-bg"><path d="M31 33v-2h-1v-1h-1v-1h-1v-1h-2v-1h-2v-1h-2v-1h-4v-1h-8v1H8v1H7v1H6v1H5v1H4v2H3v9h1v1h1v1h5v-1h2v-1h1v-1h2v1h1v1h5v-1h2v2h1v1h1v1h3v-1h1v-3h1v-2h1v-1h1v-4h-1zM58 33v-2h1v-1h1v-1h1v-1h2v-1h2v-1h2v-1h4v-1h8v1h2v1h1v1h1v1h1v1h1v2h1v9h-1v1h-1v1h-5v-1h-2v-1h-1v-1h-2v1h-1v1h-5v-1h-2v2h-1v1h-1v1h-3v-1h-1v-3h-1v-2h-1v-1h-1v-4h1z"/></g><g fill="#F13441" class="wing-color"><path d="M31 35v-2h-1v-2h-1v-1h-1v-1h-2v-1h-2v-1h-2v-1h-4v-1h-8v1H8v1H7v1H6v1H5v2H4v9h1v1h5v-1h2v-1h1v-4h1v3h1v1h1v1h5v-3h1v2h1v1h1v2h1v1h4v-3h1v-2h1v-1h1v-2h-1zM58 35v-2h1v-2h1v-1h1v-1h2v-1h2v-1h2v-1h4v-1h8v1h2v1h1v1h1v1h1v2h1v9h-1v1h-5v-1h-2v-1h-1v-4h-1v3h-1v1h-1v1h-5v-3h-1v2h-1v1h-1v2h-1v1h-4v-3h-1v-2h-1v-1h-1v-2h1z"/></g><g id="fluffy-wings-shadow" opacity=".2"><path d="M28 41h-2v-1h-1v-1h-1v-1h-1v-2h-1v1h-2v1h-4v-1h-1v-2h-2v2h-1v1h-1v1H6v-1H5v-1H4v3h1v1h5v-1h2v-1h1v-1h2v1h1v1h5v-1h2v1h1v2h1v1h4v-2h-1zM61 41h2v-1h1v-1h1v-1h1v-2h1v1h2v1h4v-1h1v-2h2v2h1v1h1v1h5v-1h1v-1h1v3h-1v1h-5v-1h-2v-1h-1v-1h-2v1h-1v1h-5v-1h-2v1h-1v2h-1v1h-4v-2h1z"/></g><g id="fluffy-wings-highlight" fill="#FFF"><path opacity=".38" d="M29 31h1v1h-1zM28 30h1v1h-1zM27 29h-1v1h2v-1h-1zM25 28h-1v1h2v-1h-1zM23 27h-1v1h2v-1h-1zM21 26h-3v1h4v-1h-1zM17 25h-7v1h8v-1h-1zM8 26v1h2v-1H8zM7 27h1v1H7zM6 28h1v1H6zM5 29h1v1H5z"/><path opacity=".87" d="M8 33v1h1v-2H8v1zM9 31h1v1H9z"/><g><path opacity=".38" d="M59 31h1v1h-1zM60 30h1v1h-1zM62 29h1v1h-2v-1h1zM64 28h1v1h-2v-1h1zM66 27h1v1h-2v-1h1zM68 26h3v1h-4v-1h1zM72 25h7v1h-8v-1h1zM81 26v1h-2v-1h2zM81 27h1v1h-1zM82 28h1v1h-1zM83 29h1v1h-1z"/><path opacity=".87" d="M81 33v1h-1v-2h1v1zM79 31h1v1h-1zM74 29v2h-2v-2h2z"/></g></g></g><path d="M63 47v-4h-1v-3h-1v-2h-1v-1h-1v-1h-1v-1h-1v-1h-1v-1h-1v-1h-2v-1h-2v-1H38v1h-2v1h-2v1h-1v1h-1v1h-1v1h-1v1h-1v1h-1v2h-1v3h-1v4h-1v13h1v3h1v3h1v1h1v1h1v1h2v1h2v-1h1v-1h1v-4h1v3h1v1h1v1h2v-1h1v-1h1v-4h1v-1h1v1h1v4h1v1h1v1h2v-1h1v-1h1v-3h1v4h1v1h1v1h2v-1h2v-1h1v-1h1v-1h1v-3h1v-3h1V47z"/><path class="cg-body-color" fill="#FFFFFF" d="M62 47v-4h-1v-3h-1v-2h-1v-1h-1v-1h-1v-1h-1v-1h-1v-1h-2v-1h-2v-1H38v1h-2v1h-2v1h-1v1h-1v1h-1v1h-1v1h-1v2h-1v3h-1v4h-1v13h1v3h1v3h1v1h1v1h2v1h2v-1h1v-4h1v-1h1v1h1v3h1v1h2v-1h1v-4h1v-1h1v-1h1v1h1v1h1v4h1v1h2v-1h1v-3h1v-1h1v1h1v4h1v1h2v-1h2v-1h1v-1h1v-3h1v-3h1V47z"/><g class="cg-face"><path d="M39 36v1h-3v1h-1v1h-1v1h-1v2h-1v2h1v1h1v1h2v1h3v1h11v-1h3v-1h2v-1h1v-1h1v-2h-1v-2h-1v-1h-1v-1h-1v-1h-3v-1z"/><path fill="#FFF" d="M39 37v1h-3v1h-1v1h-1v2h-1v2h1v1h2v1h3v1h11v-1h3v-1h2v-1h1v-2h-1v-2h-1v-1h-1v-1h-3v-1z"/><g class="cg-eyes"><path d="M50 42v3h1v-4h-1v1zM38 42v3h1v-4h-1v1z"/></g><g class="cg-digits" style="display: none;"><g class="cg-digit-zero"><path d="M38 40h-2v5h3v-5h-1zm0 2v2h-1v-3h1v1z"/></g><g class="cg-digit-one"><path d="M39 44v1h-3v-1h1v-2h-1v-1h1v-1h1v4h1z"/></g><g class="cg-digit-two"><path d="M39 42h-1v-1h1v1zm-1 3h1v-1h-2v1h1zm0-3h-1v1h1v-1zm-1-2h-1v1h2v-1h-1zm-1 3v1h1v-1h-1z"/></g><g class="cg-digit-three"><path d="M38 44v-1h1v1h-1zm1-3h-1v1h1v-1zm-2 1v1h1v-1h-1zm0-2h-1v1h2v-1h-1zm-1 4v1h2v-1h-2z"/></g><g class="cg-digit-four"><path d="M39 41v4h-1v-2h-2v-3h1v2h1v-1h1z"/></g><g class="cg-digit-five"><path d="M38 44v-1h1v1h-1zm0-3h1v-1h-3v3h2v-1h-1v-1h1zm-2 3v1h2v-1h-2z"/></g><g class="cg-digit-six"><path d="M38 41h-1v-1h2v1h-1zm-2 0v3h1v-1h1v1h-1v1h2v-3h-2v-1h-1z"/></g><g class="cg-digit-seven"><path d="M39 40v5h-1v-4h-2v-1h3z"/></g><g class="cg-digit-eight"><path d="M38 40h-2v5h3v-5h-1zm0 4h-1v-1h1v1zm0-2h-1v-1h1v1z"/></g><g class="cg-digit-nine"><path d="M38 40h-2v3h2v2h1v-5h-1zm0 2h-1v-1h1v1z"/></g><g class="cg-digit-colon"><path d="M45 42h-1v-1h1v1zm0 1h-1v1h1v-1z"/></g></g><g class="cg-time"></g></g><g id="bandaid"><path d="M63 49v-2h-1v1h-3v1h-1v2h-2v1h-4v1h-1v1h-1v6h1v1h1v1h4v-1h3v1h4v-3h1V49z"/><g><path fill="#F2C79E" d="M58 57v3h-2v1h-4v-1h-1v-6h1v-1h4v-1h2v4z"/><path fill="#E79739" d="M63 50v8h-1v1h-3v-8h3v-1z"/><path fill="#F2C79E" d="M59 49h3v1h-3zM62 48h1v1h-1zM59 60h3v1h-3zM62 59h1v1h-1z"/></g><g opacity=".19"><path d="M62 57h1v1h-1zM60 58h1v1h-1zM62 55h1v1h-1zM62 53h1v1h-1zM62 51h1v1h-1zM60 56h1v1h-1zM60 54h1v1h-1zM60 52h1v1h-1z"/><g opacity=".7"><path d="M57 58h1v1h-1zM55 59h1v1h-1zM57 56h1v1h-1zM57 54h1v1h-1zM57 52h1v1h-1zM55 57h1v1h-1zM55 55h1v1h-1zM55 53h1v1h-1z"/></g><g opacity=".7"><path d="M53 59h1v1h-1zM51 60h1v1h-1zM53 57h1v1h-1zM53 55h1v1h-1zM53 53h1v1h-1zM51 58h1v1h-1zM51 56h1v1h-1zM51 54h1v1h-1z"/></g></g><g opacity=".38"><path d="M54 49v4h1v-5h-1v1zM54 46h-1v2h1v-2zM51 36v1h1v-2h-1v1zM51 33h-1v2h1v-2z"/></g></g><g id="piercing"><path d="M64 65v-1h-1v-1h-1v5h-3v-3h-1v-1h-1v1h-1v4h1v1h1v1h5v-1h1v-1h1v-4z"/><g><path fill="#FFD527" d="M63 65v-1h-1v2h1v2h-1v1h-3v-1h-1v-3h-1v4h1v1h5v-1h1v-4z"/><path opacity=".58" fill="#FFF" d="M62 64h1v1h-1zM63 65h1v1h-1z"/></g></g><g id="circlet"><path d="M61 39v-1h-1v-1h-1v-1h-1v-1h-1v-1h-8v-1h-9v1h-8v1h-1v1h-1v1h-1v1h-1v1h-1v2h3v-1h2v-1h7v1h3v1h1v1h1v1h1v-1h1v-1h1v-1h3v-1h7v1h2v1h3v-2z"/><g><path fill="#F13441" d="M45 38v1h-1v-1h-1v-1h1v-1h1v1h1v1z"/><path fill="#FFF75F" d="M46 39v-1h1v-1h-1v-1h-1v-1h-1v1h-1v1h-1v1h1v1h1v1h1v-1h1zm14 0h1v1h-2v-1h-2v-1h-7v1h-3v1h-1v1h-1v1h-1v-1h-1v-1h-1v-1h-3v-1h-7v1h-2v1h-2v-1h1v-1h1v-1h1v-1h1v-1h8v-1h9v1h8v1h1v1h1v1h1v1z"/></g><path opacity=".17" d="M32 35v1h-1v1h-1v1h-1v1h-1v1h2v-1h2v-1h1v-1h1v-2z"/></g><g id="deal-with-it-glasses"><path d="M64 42h-3v1h4v-1zM60 41H28v1h1v2h1v2h1v2h1v1h9v-1h1v-2h1v-2h1v-2h1v2h1v2h1v2h1v1h9v-1h1v-2h1v-2h1v-2h1v-1z"/><path fill="#FFF" d="M33 45v1h-1v-2h1v1zm0 2h1v-1h-1v1zm2-3h-1v2h1v-2zm0 3h1v-1h-1v1zm-1-4h-1v1h1v-1zm-3 0v1h1v-1h-1zm18 1h-1v2h1v-2zm0 3h1v-1h-1v1zm2-3h-1v2h1v-2zm0 2v1h1v-1h-1zm-1-3h-1v1h1v-1zm-3 0v1h1v-1h-1z"/></g></g><a href="/images/png/cg4501-512.png" class="button png-square"><path class="button-bg" d="M26 75h13v11H26z"/><path fill="#FFF" d="M36 77h-1v1h1v5h-1v1h2v-7zm-8 0v7h2v-1h-1v-5h1v-1h-1zm6 3h1v1h-1zm-4 0h1v1h-1zm3 0v-2h-1v3h-1v1h1v1h1v-1h1v-1h-1z"/><title>Download square PNG</title></a><a href="/images/png/cg4501-wide.png" class="button png-wide"><path class="button-bg" d="M42 75h21v11H42z"/><path fill="#FFF" d="M60 77h-1v1h1v5h-1v1h2v-7zm-16 0v7h2v-1h-1v-5h1v-1h-1zm10 3h1v1h-1zm-4 0h1v1h-1zm3 0v-2h-1v3h-1v1h1v1h1v-1h1v-1h-1z"/><title>Download wide PNG</title></a><script type="text/javascript"><![CDATA[
    let cg4501Root = document.getElementById('cg4501');

    if (cg4501Root) {
      let cgRoot = cg4501Root;
      let cgBg = cgRoot.querySelector('.cg-bg');
      let cgBody = cgRoot.querySelector('.cg-body');

      cgBg.addEventListener('dblclick', () => {
        cgRoot.classList.toggle('menu-in');
      });

      cgBody.addEventListener('click', () => {

        let bufferArray = [];
        let lastKeystrokeTime = Date.now();
        const cheatcode = (e) => {

          const key = e.key.toLowerCase();
          const latestKeystrokeTime = Date.now();

          if (latestKeystrokeTime - lastKeystrokeTime > 1500) {
            bufferArray = [];
          }

          bufferArray.push(key);

          const word = bufferArray.join('');
          if (word === 'dealwithit') {
            console.log('No u.');

            cgRoot.classList.add('deal-with-it');

            setTimeout(() => {
              cgRoot.classList.remove('deal-with-it');
            }, 10000);

            clearListener();
          }
  
          lastKeystrokeTime = latestKeystrokeTime;

        }
        document.addEventListener('keyup', cheatcode, true);

        const clearListener = () => {
          document.removeEventListener('keyup', cheatcode, true);
        }

      });
    
    let cgDigits = cgRoot.querySelector('.cg-digits');
    let cgTime = cgRoot.querySelector('.cg-time');
  

      let cgFace = cgRoot.querySelector('.cg-face');
      cgFace.addEventListener('dblclick', () => {
        cgRoot.classList.add('get-time');

        let now = new Date();
        let hours = ('0' + now.getHours()).substr(-2);
        let minutes = ('0' + now.getMinutes()).substr(-2);;
        let digits = [hours.substr(0,1), hours.substr(1), minutes.substr(0,1), minutes.substr(1)];

        cgTime.replaceChildren();

        for (let i = 0; i < 4; i++) {
          switch (digits[i]) {
            case '0':
              cgTime.appendChild(cgDigits.querySelector('.cg-digit-zero').cloneNode(true));
              break;
            case '1':
              cgTime.appendChild(cgDigits.querySelector('.cg-digit-one').cloneNode(true));
              break;
            case '2':
              cgTime.appendChild(cgDigits.querySelector('.cg-digit-two').cloneNode(true));
              break;
            case '3':
              cgTime.appendChild(cgDigits.querySelector('.cg-digit-three').cloneNode(true));
              break;
            case '4':
              cgTime.appendChild(cgDigits.querySelector('.cg-digit-four').cloneNode(true));
              break;
            case '5':
              cgTime.appendChild(cgDigits.querySelector('.cg-digit-five').cloneNode(true));
              break;
            case '6':
              cgTime.appendChild(cgDigits.querySelector('.cg-digit-six').cloneNode(true));
              break;
            case '7':
              cgTime.appendChild(cgDigits.querySelector('.cg-digit-seven').cloneNode(true));
              break;
            case '8':
              cgTime.appendChild(cgDigits.querySelector('.cg-digit-eight').cloneNode(true));
              break;
            case '9':
              cgTime.appendChild(cgDigits.querySelector('.cg-digit-nine').cloneNode(true));
              break;
          }
        }

        cgTime.childNodes[1].style.transform = 'translateX(4px)';
        cgTime.childNodes[2].style.transform = 'translateX(10px)';
        cgTime.childNodes[3].style.transform = 'translateX(14px)';

        cgTime.appendChild(cgDigits.querySelector('.cg-digit-colon').cloneNode(true));

        setTimeout(() => {
          cgRoot.classList.remove('get-time');
        }, 10000);
      });

    }]]></script></svg>