<svg id="cg4939" xmlns="http://www.w3.org/2000/svg" viewBox="0 0 89 89"><style>
    #cg4939 {
      overflow: hidden;
    }

    #cg4939 .button {
      opacity: 0;
      pointer-events: none;
      transition: 0.2s ease;
      transform: translate3d(0, 20px, 0);
    }

    #cg4939 .button.png-wide {
      transition-delay: 0.2s;
    }

    #cg4939.menu-in .button {
      opacity: 1;
      pointer-events: auto;
      cursor: pointer;
      transform: translate3d(0, 0, 0);
    }

    #cg4939.menu-in .button .button-bg {
      transition: fill 0.2s ease;
    }

    #cg4939.menu-in .button:hover .button-bg {
      fill: #FF5FFA;
    }

    #cg4939 .cg-glasses {
      transition: opacity 0.2s ease;
    }

    #cg4939 #deal-with-it-glasses {
      opacity: 0;
      pointer-events: none;
      transition: opacity 0.2s ease, transform 3s linear;
      transform: translate3d(0, -60px, 0);
    }

    #cg4939.deal-with-it #deal-with-it-glasses {
      opacity: 1;
      transform: translate3d(0, 0, 0);
    }

    #cg4939.deal-with-it .cg-glasses {
      opacity: 0;
      transition-delay: 2s;
    }

  
      #cg4939 .cg-glasses {
        transition: opacity 0.2s ease;
      }

      #cg4939.get-time .cg-glasses {
        opacity: 0;
      }
    
    #cg4939 .cg-eyes {
      transition: opacity 0.2s ease;
    }

    #cg4939.get-time .cg-eyes {
      opacity: 0;
    }
  
    #cg4939 .cg-time {
      pointer-events: none;
      transition: opacity 0.2s ease;
      opacity: 0;
    }

    #cg4939.get-time .cg-time {
      opacity: 1;
    }

    #cg4939 .cg-time .cg-digit-colon {
      animation: cg-colon-blink 1s ease-in-out 0s infinite;
    }

    @keyframes cg-colon-blink {
      20% {
        opacity: 1;
      }
      50% {
        opacity: 0;
      }
      80% {
        opacity: 1;
      }
    }
  
    #cg4939 .cg-body {
      animation: cg-anim-hover 1.5s ease-in-out -1.2515s infinite;
      transform-origin: center;
      transform-box: fill-box;
    }

    @keyframes cg-anim-hover {
      0% {
        transform: translate3d(0,0,0);
      }
      50% {
        transform: translate3d(0,-2px,0);
      }
      100% {
        transform: translate3d(0,0,0);
      }
    }
  
    #cg4939 .cg-shadow {
      animation: cg-anim-shadow 1.5s ease-in-out -1.2515s infinite;
      transform-origin: center;
      transform-box: fill-box;
    }

    @keyframes cg-anim-shadow {
      0% {
        transform: scale3d(1,1,1);
      }
      50% {
        transform: scale3d(0.9,1,1);
      }
      100% {
        transform: scale3d(1,1,1);
      }
    }
  
      @keyframes cg-anim-rgb {
        0% {
          fill: #FF5F5F;
        }
        11.1111% {
          fill: #FFA45F;
        }
        22.2222% {
          fill: #BAFF5F;
        }
        33.3333% {
          fill: #5FFF74;
        }
        44.4444% {
          fill: #5FFFCE;
        }
        55.5555% {
          fill: #5FD9FF;
        }
        66.6666% {
          fill: #5F6AFF;
        }
        77.7777% {
          fill: #AA5FFF;
        }
        88.8888% {
          fill: #FF5FFA;
        }
        100% {
          fill: #FF5F5F;
        }
      }
    
      #cg4939 .planet-color {
        animation: cg-anim-rgb 10s linear -7.2184s infinite;
      }
    </style><path class="cg-bg" d="M0 0h89v89H0z" fill="#33FFFF"></path><g id="planet"><path id="planet-bg" d="M30 6V5h-4v1h-2v1h-2V6h-2V5h-7v1h-2v1H9v1H8v1H7v2H6v2H5v7h1v1H5v1H4v2H3v3h1v1h1v1h4v-1h2v-1h3v1h6v-1h2v-1h2v-1h1v-1h1v-1h1v-1h1v-2h1v-9h1V8h1V6h-1zM9 24v1H7v-2h1v1h1z"/><g class="planet-color" fill="#ACE5F3"><path d="M27 15v2h-1v1h-1v1h-1v1h-1v1h-1v1h-1v1h-2v1h-2v1h-2v1h-1v1h6v-1h2v-1h2v-1h1v-1h1v-1h1v-2h1v-5h-1zM14 22h2v-1h2v-1h2v-1h1v-1h1v-1h1v-1h1v-2h1v-2h1v-2h-1V9h-1V8h-2V7h-2V6h-7v1h-2v1H9v1H8v2H7v2H6v7h1v2h1v1h1v1h3v-1h2v-1z"/></g><path id="ring-colour" fill="#7850FF" d="M29 6h-3v1h-2v1h3v4h-1v2h-1v2h-1v1h-1v1h-1v1h-1v1h-1v1h-2v1h-2v1h-2v1h-2v1h-2v1H6v-3h1v-1H5v2H4v3h1v1h4v-1h2v-1h2v-1h2v-1h2v-1h2v-1h2v-1h1v-1h1v-1h1v-1h1v-1h1v-2h1v-2h1v-2h1V8h1V6h-1z"/><g id="planet-highlights" opacity=".21" fill="#FFF"><path d="M20 14h-2v1h3v-1h-1zM25 20h1v1h-1zM25 10v2h1v-2h-1zM24 21h1v1h-1zM24 9h1v1h-1zM23 22h1v1h-1zM23 8h-1v1h2V8h-1zM21 23h-2v1h4v-1h-2zM22 16v-1h-1v2h1v-1zM21 7h-1v1h2V7h-1zM20 17h1v1h-1zM19 18h1v1h-1zM19 6h-6v1h7V6h-1zM18 19h1v1h-1zM17 20h1v1h-1zM17 15h1v1h-1zM17 12v-1h-1v2h1v-1zM15 16v1h2v-1h-2zM15 13h1v1h-1zM15 10h-1v1h2v-1h-1zM14 14h1v1h-1zM13 17v1h2v-1h-2zM13 15h1v1h-1zM12 16h1v1h-1zM12 11v1h2v-1h-2zM11 12h1v1h-1zM11 7v1h2V7h-2zM10 13h1v1h-1zM9 23h1v1H9zM9 14h1v1H9zM9 8v1h2V8H9zM8 22h1v1H8zM8 10v1h1V9H8v1zM7 22h1v-2H7v2zM7 12v1h1v-2H7v1zM6 14v6h1v-7H6v1z"/></g><g id="planet-stars"><g fill="#FFFA9F"><path d="M39 4v1h-1v1h-1V5h-1V4h1V3h1v1zM36 11v2h-1v-2h1zM35 13v1h-2v-1h2zM35 10v1h-2v-1h2zM33 11v2h-1v-2h1zM26 2h1v1h-1zM10 33v1H9v1H8v-1H7v-1h1v-1h1v1z"/></g></g></g><path class="cg-shadow" opacity=".17" d="M60 79v-1H29v1h-2v1h3v1h29v-1h3v-1z"/><g class="cg-body"><g id="elf-ears"><g id="elf-ears-bg"><path d="M31 35h-1v-1h-1v-1h-2v-1h-4v-1h-4v-1h-7v-1H8v3h1v2h1v2h1v1h1v1h1v1h1v1h1v1h1v1h1v1h3v1h7v-1h1v-3h1v-2h1v-1h1v-1h1v-1h-1zM58 35h1v-1h1v-1h2v-1h4v-1h4v-1h7v-1h4v3h-1v2h-1v2h-1v1h-1v1h-1v1h-1v1h-1v1h-1v1h-1v1h-3v1h-7v-1h-1v-3h-1v-2h-1v-1h-1v-1h-1v-1h1z"/></g><g id="elf-ears-outer" fill="#ACE5F3"><path d="M29 35v-1h-2v-1h-4v-1h-4v-1h-7v-1H9v2h1v2h1v2h1v1h1v1h1v1h1v1h1v1h1v1h3v1h7v-3h1v-2h1v-1h1v-2h-1zm-3 6v1h-5v-1h-3v-1h-1v-1h-1v-1h-1v-1h-1v-1h-1v-2h-1v-1h-1v-1h4v1h6v1h2v1h1v1h1v1h1v4zM59 35v2h1v1h1v2h1v3h7v-1h3v-1h1v-1h1v-1h1v-1h1v-1h1v-1h1v-2h1v-2h1v-2h-3v1h-7v1h-4v1h-4v1h-2v1h-1zm4 2h1v-1h1v-1h1v-1h2v-1h6v-1h4v1h-1v1h-1v2h-1v1h-1v1h-1v1h-1v1h-1v1h-3v1h-5v-5z"/></g><g id="elf-ears-inner" fill="#FF9271"><path d="M24 37v-1h-1v-1h-2v-1h-6v-1h-2v1h1v2h1v1h1v1h1v1h1v1h3v1h4v-4h-1zM65 37v-1h1v-1h2v-1h6v-1h2v1h-1v2h-1v1h-1v1h-1v1h-1v1h-3v1h-4v-4h1z"/></g></g><path d="M63 47v-4h-1v-3h-1v-2h-1v-1h-1v-1h-1v-1h-1v-1h-1v-1h-1v-1h-2v-1h-2v-1H38v1h-2v1h-2v1h-1v1h-1v1h-1v1h-1v1h-1v1h-1v2h-1v3h-1v4h-1v13h1v3h1v3h1v1h1v1h1v1h2v1h2v-1h1v-1h1v-4h1v3h1v1h1v1h2v-1h1v-1h1v-4h1v-1h1v1h1v4h1v1h1v1h2v-1h1v-1h1v-3h1v4h1v1h1v1h2v-1h2v-1h1v-1h1v-1h1v-3h1v-3h1V47z"/><path class="cg-body-color" fill="#ACE5F3" d="M62 47v-4h-1v-3h-1v-2h-1v-1h-1v-1h-1v-1h-1v-1h-1v-1h-2v-1h-2v-1H38v1h-2v1h-2v1h-1v1h-1v1h-1v1h-1v1h-1v2h-1v3h-1v4h-1v13h1v3h1v3h1v1h1v1h2v1h2v-1h1v-4h1v-1h1v1h1v3h1v1h2v-1h1v-4h1v-1h1v-1h1v1h1v1h1v4h1v1h2v-1h1v-3h1v-1h1v1h1v4h1v1h2v-1h2v-1h1v-1h1v-3h1v-3h1V47z"/><g class="cg-face"><path d="M39 36v1h-3v1h-1v1h-1v1h-1v2h-1v2h1v1h1v1h2v1h3v1h11v-1h3v-1h2v-1h1v-1h1v-2h-1v-2h-1v-1h-1v-1h-1v-1h-3v-1z"/><path fill="#FFF" d="M39 37v1h-3v1h-1v1h-1v2h-1v2h1v1h2v1h3v1h11v-1h3v-1h2v-1h1v-2h-1v-2h-1v-1h-1v-1h-3v-1z"/><g class="cg-eyes"><path d="M53 42h-1v-1h1v1zm-3 0v2h2v-2h-2zm-1 3h1v-1h-1v1zm0-4v1h1v-1h-1zm-9 4v-1h-1v1h1zm-4 0h1v-1h-1v1zm17 0v-1h-1v1h1zm-16-3h-1v1h1v1h2v-1h1v-1h-3z"/></g><g class="cg-digits" style="display: none;"><g class="cg-digit-zero"><path d="M38 40h-2v5h3v-5h-1zm0 2v2h-1v-3h1v1z"/></g><g class="cg-digit-one"><path d="M39 44v1h-3v-1h1v-2h-1v-1h1v-1h1v4h1z"/></g><g class="cg-digit-two"><path d="M39 42h-1v-1h1v1zm-1 3h1v-1h-2v1h1zm0-3h-1v1h1v-1zm-1-2h-1v1h2v-1h-1zm-1 3v1h1v-1h-1z"/></g><g class="cg-digit-three"><path d="M38 44v-1h1v1h-1zm1-3h-1v1h1v-1zm-2 1v1h1v-1h-1zm0-2h-1v1h2v-1h-1zm-1 4v1h2v-1h-2z"/></g><g class="cg-digit-four"><path d="M39 41v4h-1v-2h-2v-3h1v2h1v-1h1z"/></g><g class="cg-digit-five"><path d="M38 44v-1h1v1h-1zm0-3h1v-1h-3v3h2v-1h-1v-1h1zm-2 3v1h2v-1h-2z"/></g><g class="cg-digit-six"><path d="M38 41h-1v-1h2v1h-1zm-2 0v3h1v-1h1v1h-1v1h2v-3h-2v-1h-1z"/></g><g class="cg-digit-seven"><path d="M39 40v5h-1v-4h-2v-1h3z"/></g><g class="cg-digit-eight"><path d="M38 40h-2v5h3v-5h-1zm0 4h-1v-1h1v1zm0-2h-1v-1h1v1z"/></g><g class="cg-digit-nine"><path d="M38 40h-2v3h2v2h1v-5h-1zm0 2h-1v-1h1v1z"/></g><g class="cg-digit-colon"><path d="M45 42h-1v-1h1v1zm0 1h-1v1h1v-1z"/></g></g><g class="cg-time"></g></g><g id="crowbar"><path d="M68 67v3h-4v3h1v-2h3v2h1v-6z"/><path fill="#7D8E9E" d="M68 71h-3v2h3v-1z"/><path fill="#BC1515" d="M66 70h2v-3h-1v-1h-6v1h-1v1h-1v1h5v1h1zM29 68v-1h-1v-1h-4v1h-1v1h1v1h6v-1zM53 68v-2H36v2h-1v1h19v-1z"/><path d="M67 66h1v1h-1zM66 73h-1v1h3v-1h-1zM37 66h16v-1H36v1zM63 66h4v-1h-5v1zM23 67h1v-1h3v-1h-4v1zM31 69h-7v-1h-1v1h-3v1h12v-1zM63 69h-6v1h7v-1zM54 69H34v1h21v-1zM22 67h1v1h-1zM22 60v5h1v-7h-1v1zM21 57h1v1h-1zM20 58h1v1h-1zM19 68h1v1h-1zM19 57h1v1h-1z"/><path fill="#7D8E9E" d="M22 69h1v-1h-1v-1h1v-2h-1v-7h-1v1h-1v-1h-1v10h1v1h1z"/><path d="M19 66v-8h-1v10h1v-1zM56 69h-1v1h2v-1z"/><path opacity=".19" d="M36 66h17v1H36zM35 68h19v1H35zM61 66h6v1h-6zM67 67h1v3h-1zM24 66h4v1h-4zM24 68h6v1h-6z"/><path transform="rotate(-90 20.5 63)" opacity=".19" d="M15.5 62.5h10v1h-10z"/><path transform="rotate(-90 66.5 72)" opacity=".19" d="M65.5 71.5h2v1h-2z"/><path opacity=".19" d="M59 68v1h5v1h1v-2z"/><path transform="rotate(-90 21.5 67.5)" opacity=".19" d="M21 67h1v1h-1z"/></g><g class="cg-glasses" id="sunglasses"><path d="M57 44h1v2h-1v-2zm-1 3h1v-1h-1v1zm-1 1h1v-1h-1v1zm-2 0h-5v1h7v-1h-2zm-6-1v1h1v-1h-1zm-1-1v1h1v-1h-1zm-4 1h1v-1h-1v1zm-1 1h1v-1h-1v1zm-2 0h-5v1h7v-1h-2zm-6-1v1h1v-1h-1zm-1-1v1h1v-1h-1zm0-2h-1v2h1v-2zm29-4H27v1h1v1h1v1h1v1h1v-3h12v5h1v-2h1v2h1v-5h12v3h1v-1h1v-1h1v-1h1v-1h-1z"/><path opacity=".54" d="M43 45v1h-1v1h-1v1h-7v-1h-1v-1h-1v-2h-1v-3h12v4zm3-4v5h1v1h1v1h7v-1h1v-1h1v-2h1v-3H46z"/></g><g id="monkey-friend"><path d="M62 14v-1h-1v-1h-1v-1h-5v1h-1v1h-1v4h1v1h1v1h2v-1h1v-1h-1v-1h-1v-2h3v1h1v6h-1v1h-1v2h-1v2h-1v1h-2v1h-3v-2h-1v-2h1v-1h1v-1h1v-1h1v-2h-1v-1h-1v-1h-1v-2h-1v-1h-1v-1H39v1h-1v1h-1v2h-1v1h-1v1h-1v2h1v1h1v1h1v1h1v2h-1v4h1v2h1v1h3v-1h1v-1h2v1h1v1h3v-1h1v-1h5v-1h2v-1h1v-1h1v-1h1v-2h1v-2h1v-1h1v-8h-1z"/><g fill="#826446"><path d="M61 14v-1h-1v-1h-5v1h-1v4h1v1h2v-1h-1v-1h-1v-2h1v-1h3v1h1v1h1v6h-1v1h-1v2h-1v2h-1v1h-1v1h-2v1h-4v1h5v-1h2v-1h1v-1h1v-2h1v-2h1v-1h1v-8h-1z"/><path d="M50 27v-1h-1v-2h1v-2h2v-1h1v-2h-1v-1h-2v-3h-1v-1H39v1h-1v3h-2v1h-1v2h1v1h2v2h1v2h-1v3h1v-1h3v1h2v1h1v-1h1v-1h3v1h1v-2z"/><path d="M39 29h1v1h-1z"/></g><g fill="#BC9C80"><path d="M51 19h-1v2h2v-2h-1zM46 29v3h3v-3h-3zM48 17h-3v1h-2v-1h-3v1h-1v5h1v1h1v1h6v-1h1v-1h1v-5h-1v-1z"/><path d="M47 28v-1h-1v-1h-4v1h-1v1h1v1h1v1h2v-1h1v-1h1z"/><path d="M39 29v3h3v-3h-3zM36 21h2v-2h-2v2z"/></g><g><path fill="#70543C" d="M49 27v2h1v-3h-1v1zM38 27v2h1v-3h-1v1zM49 24h-1v2h1v-2zM39 25v1h1v-2h-1v1zM49 18h1v1h-1z"/><path d="M47 19h-1v2h2v-3h-1v1z"/><path fill="#70543C" d="M38 18h1v1h-1z"/><path d="M41 19h-1v2h2v-3h-1v1z"/><path fill="#70543C" d="M39 14h1v1h-1zM38 23h1v1h-1zM38 15h1v1h-1z"/></g><g><path fill="#FFF" d="M40 18h1v1h-1zM46 18h1v1h-1z"/><path fill="#FBB" d="M48 21h-1v1h2v-1h-1zM39 21v1h2v-1h-2z"/></g></g><g id="deal-with-it-glasses"><path d="M64 42h-3v1h4v-1zM60 41H28v1h1v2h1v2h1v2h1v1h9v-1h1v-2h1v-2h1v-2h1v2h1v2h1v2h1v1h9v-1h1v-2h1v-2h1v-2h1v-1z"/><path fill="#FFF" d="M33 45v1h-1v-2h1v1zm0 2h1v-1h-1v1zm2-3h-1v2h1v-2zm0 3h1v-1h-1v1zm-1-4h-1v1h1v-1zm-3 0v1h1v-1h-1zm18 1h-1v2h1v-2zm0 3h1v-1h-1v1zm2-3h-1v2h1v-2zm0 2v1h1v-1h-1zm-1-3h-1v1h1v-1zm-3 0v1h1v-1h-1z"/></g></g><a href="/images/png/cg4939-512.png" class="button png-square"><path class="button-bg" d="M26 75h13v11H26z"/><path fill="#FFF" d="M36 77h-1v1h1v5h-1v1h2v-7zm-8 0v7h2v-1h-1v-5h1v-1h-1zm6 3h1v1h-1zm-4 0h1v1h-1zm3 0v-2h-1v3h-1v1h1v1h1v-1h1v-1h-1z"/><title>Download square PNG</title></a><a href="/images/png/cg4939-wide.png" class="button png-wide"><path class="button-bg" d="M42 75h21v11H42z"/><path fill="#FFF" d="M60 77h-1v1h1v5h-1v1h2v-7zm-16 0v7h2v-1h-1v-5h1v-1h-1zm10 3h1v1h-1zm-4 0h1v1h-1zm3 0v-2h-1v3h-1v1h1v1h1v-1h1v-1h-1z"/><title>Download wide PNG</title></a><script type="text/javascript"><![CDATA[
    let cg4939Root = document.getElementById('cg4939');

    if (cg4939Root) {
      let cgRoot = cg4939Root;
      let cgBg = cgRoot.querySelector('.cg-bg');
      let cgBody = cgRoot.querySelector('.cg-body');

      cgBg.addEventListener('dblclick', () => {
        cgRoot.classList.toggle('menu-in');
      });

      cgBody.addEventListener('click', () => {

        let bufferArray = [];
        let lastKeystrokeTime = Date.now();
        const cheatcode = (e) => {

          const key = e.key.toLowerCase();
          const latestKeystrokeTime = Date.now();

          if (latestKeystrokeTime - lastKeystrokeTime > 1500) {
            bufferArray = [];
          }

          bufferArray.push(key);

          const word = bufferArray.join('');
          if (word === 'dealwithit') {
            console.log('No u.');

            cgRoot.classList.add('deal-with-it');

            setTimeout(() => {
              cgRoot.classList.remove('deal-with-it');
            }, 10000);

            clearListener();
          }
  
          lastKeystrokeTime = latestKeystrokeTime;

        }
        document.addEventListener('keyup', cheatcode, true);

        const clearListener = () => {
          document.removeEventListener('keyup', cheatcode, true);
        }

      });
    
    let cgDigits = cgRoot.querySelector('.cg-digits');
    let cgTime = cgRoot.querySelector('.cg-time');
  

      let cgGlasses = cgRoot.querySelector('.cg-glasses');
      cgGlasses.addEventListener('dblclick', () => {
        cgRoot.classList.add('get-time');

        let now = new Date();
        let hours = ('0' + now.getHours()).substr(-2);
        let minutes = ('0' + now.getMinutes()).substr(-2);;
        let digits = [hours.substr(0,1), hours.substr(1), minutes.substr(0,1), minutes.substr(1)];

        cgTime.replaceChildren();

        for (let i = 0; i < 4; i++) {
          switch (digits[i]) {
            case '0':
              cgTime.appendChild(cgDigits.querySelector('.cg-digit-zero').cloneNode(true));
              break;
            case '1':
              cgTime.appendChild(cgDigits.querySelector('.cg-digit-one').cloneNode(true));
              break;
            case '2':
              cgTime.appendChild(cgDigits.querySelector('.cg-digit-two').cloneNode(true));
              break;
            case '3':
              cgTime.appendChild(cgDigits.querySelector('.cg-digit-three').cloneNode(true));
              break;
            case '4':
              cgTime.appendChild(cgDigits.querySelector('.cg-digit-four').cloneNode(true));
              break;
            case '5':
              cgTime.appendChild(cgDigits.querySelector('.cg-digit-five').cloneNode(true));
              break;
            case '6':
              cgTime.appendChild(cgDigits.querySelector('.cg-digit-six').cloneNode(true));
              break;
            case '7':
              cgTime.appendChild(cgDigits.querySelector('.cg-digit-seven').cloneNode(true));
              break;
            case '8':
              cgTime.appendChild(cgDigits.querySelector('.cg-digit-eight').cloneNode(true));
              break;
            case '9':
              cgTime.appendChild(cgDigits.querySelector('.cg-digit-nine').cloneNode(true));
              break;
          }
        }

        cgTime.childNodes[1].style.transform = 'translateX(4px)';
        cgTime.childNodes[2].style.transform = 'translateX(10px)';
        cgTime.childNodes[3].style.transform = 'translateX(14px)';

        cgTime.appendChild(cgDigits.querySelector('.cg-digit-colon').cloneNode(true));

        setTimeout(() => {
          cgRoot.classList.remove('get-time');
        }, 10000);
      });

    }]]></script></svg>