<svg id="cg5194" xmlns="http://www.w3.org/2000/svg" viewBox="0 0 89 89"><style>
    #cg5194 {
      overflow: hidden;
    }

    #cg5194 .button {
      opacity: 0;
      pointer-events: none;
      transition: 0.2s ease;
      transform: translate3d(0, 20px, 0);
    }

    #cg5194 .button.png-wide {
      transition-delay: 0.2s;
    }

    #cg5194.menu-in .button {
      opacity: 1;
      pointer-events: auto;
      cursor: pointer;
      transform: translate3d(0, 0, 0);
    }

    #cg5194.menu-in .button .button-bg {
      transition: fill 0.2s ease;
    }

    #cg5194.menu-in .button:hover .button-bg {
      fill: #FF5FFA;
    }

    #cg5194 .cg-glasses {
      transition: opacity 0.2s ease;
    }

    #cg5194 #deal-with-it-glasses {
      opacity: 0;
      pointer-events: none;
      transition: opacity 0.2s ease, transform 3s linear;
      transform: translate3d(0, -60px, 0);
    }

    #cg5194.deal-with-it #deal-with-it-glasses {
      opacity: 1;
      transform: translate3d(0, 0, 0);
    }

    #cg5194.deal-with-it .cg-glasses {
      opacity: 0;
      transition-delay: 2s;
    }

  
      #cg5194 .cg-glasses {
        transition: opacity 0.2s ease;
      }

      #cg5194.get-time .cg-glasses {
        opacity: 0;
      }
    
    #cg5194 .cg-eyes {
      transition: opacity 0.2s ease;
    }

    #cg5194.get-time .cg-eyes {
      opacity: 0;
    }
  
    #cg5194 .cg-time {
      pointer-events: none;
      transition: opacity 0.2s ease;
      opacity: 0;
    }

    #cg5194.get-time .cg-time {
      opacity: 1;
    }

    #cg5194 .cg-time .cg-digit-colon {
      animation: cg-colon-blink 1s ease-in-out 0s infinite;
    }

    @keyframes cg-colon-blink {
      20% {
        opacity: 1;
      }
      50% {
        opacity: 0;
      }
      80% {
        opacity: 1;
      }
    }
  
    #cg5194 .cg-body {
      animation: cg-anim-hover 1.5s ease-in-out -0.1113s infinite;
      transform-origin: center;
      transform-box: fill-box;
    }

    @keyframes cg-anim-hover {
      0% {
        transform: translate3d(0,0,0);
      }
      50% {
        transform: translate3d(0,-2px,0);
      }
      100% {
        transform: translate3d(0,0,0);
      }
    }
  
    #cg5194 .cg-shadow {
      animation: cg-anim-shadow 1.5s ease-in-out -0.1113s infinite;
      transform-origin: center;
      transform-box: fill-box;
    }

    @keyframes cg-anim-shadow {
      0% {
        transform: scale3d(1,1,1);
      }
      50% {
        transform: scale3d(0.9,1,1);
      }
      100% {
        transform: scale3d(1,1,1);
      }
    }
  
      @keyframes cg-anim-rgb {
        0% {
          fill: #FF5F5F;
        }
        11.1111% {
          fill: #FFA45F;
        }
        22.2222% {
          fill: #BAFF5F;
        }
        33.3333% {
          fill: #5FFF74;
        }
        44.4444% {
          fill: #5FFFCE;
        }
        55.5555% {
          fill: #5FD9FF;
        }
        66.6666% {
          fill: #5F6AFF;
        }
        77.7777% {
          fill: #AA5FFF;
        }
        88.8888% {
          fill: #FF5FFA;
        }
        100% {
          fill: #FF5F5F;
        }
      }
    
      #cg5194 .glasses-color {
        animation: cg-anim-rgb 3s linear -2.3441s infinite;
      }
    </style><path class="cg-bg" d="M0 0h89v89H0z" fill="#6D5D70"></path><g id="frustrated-emote"><g id="frustrated-emote-bg-right"><g><path d="M80 12v6h-1v2h-2v1h-7v-1h-3v-1h1v-1h-1v-6h1v-2h2V9h7v1h2v2h1zM81 12v6h-1v-6h1z"/><path d="M79 19v-1h1v2h-1v-1zM80 10v2h-1v-2h1zM79 9v1h-2V9h2zM77 21v-1h2v1h-2zM77 9h-7V8h7v1zM75 21h2v1h-7v-1h5zM70 9v1h-2V9h2zM67 12v-2h1v2h-1zM67 18h1v1h-1zM67 16v2h-1v-6h1v4zM66 20v-1h1v1h3v1h-5v-1h1z"/></g></g><path fill="#EAE8E8" d="M80 12v6h-1v2h-2v1h-7v-1h-3v-1h1v-1h-1v-6h1v-2h2V9h7v1h2v2h1z"/><g opacity=".17" id="frustrated-emote-shadow-right"><path d="M67 17h1v1h-1zM69 19h-2v1h3v-1h-1zM79 17h1v1h-1zM77 19v1h2v-1h-2zM75 20h-5v1h7v-1h-2z"/></g><g id="frustrated-emote-symbol-right"><path d="M78 13h-1v-2h-3v1h2v1h-2v1h-1v-1h1v-1h-1v-1h-2v1h1v1h-1v1h-1v-1h-1v2h1v1h1v2h-1v1h4v-1h2v-1h-2v-2h2v2h1v1h1v-1h1v-4h-1zm-5 5h-1v-1h1v1zm0-2h-1v-1h1v1zm5-1v1h-1v-2h1v1z"/><path d="M76 18h1v1h-1zM74 19v1h2v-1h-2zM70 12h1v1h-1zM69 17h1v1h-1z"/></g></g><path class="cg-shadow" opacity=".17" d="M60 79v-1H29v1h-2v1h3v1h29v-1h3v-1z"/><g class="cg-body"><g id="spoopy-wings"><g><path d="M84 39v-1h-1v-1h-1v-1h-1v-1h-1v-1h-2v-1h-2v-1h-2v-1h-1v1h-1v2h-1v2h-1v1h-1v1h-1v1h-1v1h-2v1h-3v1h-1v4h1v1h1v1h2v1h2v2h1v1h1v1h1v-5h1v-2h4v1h1v1h1v1h1v-5h1v-1h3v2h1v2h1v-2h1v-6h-1zM5 39v-1h1v-1h1v-1h1v-1h1v-1h2v-1h2v-1h2v-1h1v1h1v2h1v2h1v1h1v1h1v1h1v1h2v1h3v1h1v4h-1v1h-1v1h-2v1h-2v2h-1v1h-1v1h-1v-5h-1v-2h-4v1h-1v1h-1v1h-1v-5h-1v-1H7v2H6v2H5v-2H4v-6h1z"/></g><g><path d="M83 39v-1h-1v-1h-1v-1h-1v-1h-2v-1h-2v-1h-3v1h-1v2h-1v1h-1v1h-1v1h-1v1h-1v1h-2v1h-3v4h1v1h2v1h2v1h1v2h1v-3h1v-2h1v-1h4v1h1v1h1v-3h1v-1h1v-1h3v1h1v2h1v-6h-1zM6 39v-1h1v-1h1v-1h1v-1h2v-1h2v-1h3v1h1v2h1v1h1v1h1v1h1v1h1v1h2v1h3v4h-1v1h-2v1h-2v1h-1v2h-1v-3h-1v-2h-1v-1h-4v1h-1v1h-1v-3h-1v-1h-1v-1H7v1H6v2H5v-6h1z"/></g><g opacity=".15" fill="#FFF"><path d="M82 41v-1h-1v-1h-1v-1h-1v-1h-1v-1h-2v-1h-2v2h-1v2h1v1h1v2h1v2h2v-1h1v-1h3v1h1v-2zM75 43h-1v-2h-1v-1h-1v-1h-1v1h-1v1h-1v1h-1v2h1v2h2v-1h4v1h1v-2h-1zM68 47v-2h-1v-2h-4v4h2v1h2v1h1v2h1v-4zM7 41v-1h1v-1h1v-1h1v-1h1v-1h2v-1h2v2h1v2h-1v1h-1v2h-1v2h-2v-1h-1v-1H7v1H6v-2zM14 43h1v-2h1v-1h1v-1h1v1h1v1h1v1h1v2h-1v2h-2v-1h-4v1h-1v-2h1zM21 47v-2h1v-2h4v4h-2v1h-2v1h-1v2h-1v-4z"/></g></g><g id="cat-ears"><g id="cat-ear-right"><path d="M61 25v-1h-2v1h-2v1h-1v1h-1v1h-1v1h-1v1h-1v2h1v1h2v1h1v1h1v1h1v1h1v-1h1v-3h1v-4h1v-4z" id="cat-ear-bg-right"/><path fill="#F28C9E" d="M57 34h-1v-1h-1v-1h-2v-2h1v-1h1v-1h1v-1h1v-1h2v-1h2v4h-1v4h-1v3h-1v-1h-1v-1z" id="cat-ear-inner-right"/><g fill="#FFF" id="cat-ear-colour-right"><path d="M60 25h-1v1h2v-1h-1zM57 26v1h2v-1h-2zM56 27h1v1h-1zM55 28h1v1h-1zM54 29h1v1h-1zM53 31v1h1v-2h-1v1z"/></g><g opacity=".17" id="cat-ear-shadow-right"><path d="M58 35h1v1h-1zM57 34h1v1h-1zM56 33h1v1h-1zM55 32h1v1h-1zM54 30v2h1v-2z"/></g></g><g id="cat-ear-left"><path d="M28 25v-1h2v1h2v1h1v1h1v1h1v1h1v1h1v2h-1v1h-2v1h-1v1h-1v1h-1v1h-1v-1h-1v-3h-1v-4h-1v-4z" id="cat-ear-bg-left"/><path fill="#F28C9E" d="M32 34h1v-1h1v-1h2v-2h-1v-1h-1v-1h-1v-1h-1v-1h-2v-1h-2v4h1v4h1v3h1v-1h1v-1z" id="cat-ear-inner-left"/><g fill="#FFF" id="cat-ear-colour-left"><path d="M29 25h1v1h-2v-1h1zM32 26v1h-2v-1h2zM32 27h1v1h-1zM33 28h1v1h-1zM34 29h1v1h-1zM36 31v1h-1v-2h1v1z"/></g><g opacity=".17" id="cat-ear-shadow-left"><path d="M30 35h1v1h-1zM31 34h1v1h-1zM32 33h1v1h-1zM33 32h1v1h-1zM35 30v2h-1v-2z"/></g></g></g><path d="M63 47v-4h-1v-3h-1v-2h-1v-1h-1v-1h-1v-1h-1v-1h-1v-1h-1v-1h-2v-1h-2v-1H38v1h-2v1h-2v1h-1v1h-1v1h-1v1h-1v1h-1v1h-1v2h-1v3h-1v4h-1v13h1v3h1v3h1v1h1v1h1v1h2v1h2v-1h1v-1h1v-4h1v3h1v1h1v1h2v-1h1v-1h1v-4h1v-1h1v1h1v4h1v1h1v1h2v-1h1v-1h1v-3h1v4h1v1h1v1h2v-1h2v-1h1v-1h1v-1h1v-3h1v-3h1V47z"/><path class="cg-body-color" fill="#ACE5F3" d="M62 47v-4h-1v-3h-1v-2h-1v-1h-1v-1h-1v-1h-1v-1h-1v-1h-2v-1h-2v-1H38v1h-2v1h-2v1h-1v1h-1v1h-1v1h-1v1h-1v2h-1v3h-1v4h-1v13h1v3h1v3h1v1h1v1h2v1h2v-1h1v-4h1v-1h1v1h1v3h1v1h2v-1h1v-4h1v-1h1v-1h1v1h1v1h1v4h1v1h2v-1h1v-3h1v-1h1v1h1v4h1v1h2v-1h2v-1h1v-1h1v-3h1v-3h1V47z"/><g class="cg-face"><path d="M39 36v1h-3v1h-1v1h-1v1h-1v2h-1v2h1v1h1v1h2v1h3v1h11v-1h3v-1h2v-1h1v-1h1v-2h-1v-2h-1v-1h-1v-1h-1v-1h-3v-1z"/><path fill="#FFF" d="M39 37v1h-3v1h-1v1h-1v2h-1v2h1v1h2v1h3v1h11v-1h3v-1h2v-1h1v-2h-1v-2h-1v-1h-1v-1h-3v-1z"/><g class="cg-eyes"><path d="M51 41h-1v1h-1v3h3v-3h-1v-1zM39 41h-1v1h-1v3h3v-3h-1v-1z"/></g><g class="cg-digits" style="display: none;"><g class="cg-digit-zero"><path d="M38 40h-2v5h3v-5h-1zm0 2v2h-1v-3h1v1z"/></g><g class="cg-digit-one"><path d="M39 44v1h-3v-1h1v-2h-1v-1h1v-1h1v4h1z"/></g><g class="cg-digit-two"><path d="M39 42h-1v-1h1v1zm-1 3h1v-1h-2v1h1zm0-3h-1v1h1v-1zm-1-2h-1v1h2v-1h-1zm-1 3v1h1v-1h-1z"/></g><g class="cg-digit-three"><path d="M38 44v-1h1v1h-1zm1-3h-1v1h1v-1zm-2 1v1h1v-1h-1zm0-2h-1v1h2v-1h-1zm-1 4v1h2v-1h-2z"/></g><g class="cg-digit-four"><path d="M39 41v4h-1v-2h-2v-3h1v2h1v-1h1z"/></g><g class="cg-digit-five"><path d="M38 44v-1h1v1h-1zm0-3h1v-1h-3v3h2v-1h-1v-1h1zm-2 3v1h2v-1h-2z"/></g><g class="cg-digit-six"><path d="M38 41h-1v-1h2v1h-1zm-2 0v3h1v-1h1v1h-1v1h2v-3h-2v-1h-1z"/></g><g class="cg-digit-seven"><path d="M39 40v5h-1v-4h-2v-1h3z"/></g><g class="cg-digit-eight"><path d="M38 40h-2v5h3v-5h-1zm0 4h-1v-1h1v1zm0-2h-1v-1h1v1z"/></g><g class="cg-digit-nine"><path d="M38 40h-2v3h2v2h1v-5h-1zm0 2h-1v-1h1v1z"/></g><g class="cg-digit-colon"><path d="M45 42h-1v-1h1v1zm0 1h-1v1h1v-1z"/></g></g><g class="cg-time"></g></g><g id="hammer"><g><path d="M69 66v-1h-7v1h-1v1h-1v1h-1v1h10v-1h1v-2zM53 67v-2H36v3h-1v1h19v-1h-1zM29 68v-1h-1v-1h-1v-1h-3v-1h-3v-1h-1v-1h-1v-2h2v-1h1v-1h-1v-1h-4v1h-1v1h-1v12h1v1h-1v3h7v-3h-1v-2h3v-1h6v-1z"/></g><g><path fill="#F13441" d="M68 66h-6v1h-1v1h8v-2zM52 66H36v2h17v-2z"/><path fill="#4D4D4D" d="M23 68.3v.7h-1v-4h1v3.3z"/><path fill="gray" d="M21 73v1h-5v-2h1v-1h-1V59h1v-1h4v1h-3v4h2v1h1v6h-1v2h1z"/><path fill="#F13441" d="M28 67v-1h-4v2h5v-1z"/></g><g><path opacity=".21" d="M16 59h1v12h-1z"/><path transform="rotate(-90 44.5 66.5)" opacity=".21" d="M44 58h1v17h-1z"/><path opacity=".21" d="M24 66h4v1h-4z"/><path transform="rotate(-90 65.5 66.5)" opacity=".21" d="M65 63h1v7h-1z"/><path opacity=".21" d="M16 72h1v2h-1zM17 58h1v1h-1z"/></g></g><g class="cg-glasses" id="hot-glasses"><path d="M64 39v-1H53v1h-5v1h-1v1h-5v-1h-1v-1h-5v-1H25v1h-1v1h1v1h2v2h1v1h1v1h1v1h1v1h1v1h2v1h7v-1h1v-1h1v-1h1v-1h1v1h1v1h1v1h1v1h7v-1h2v-1h1v-1h1v-1h1v-1h1v-1h1v-2h2v-1h1v-1h-1zm-5 4h-1v1h-1v1h-2v1h-7v-1h-1v-2h1v-1h5v-1h6v2zm-17 2h-1v1h-7v-1h-2v-1h-1v-1h-1v-2h6v1h5v1h1v2z" id="hot-glasses-bg"/><g fill="#E6769A" class="glasses-color"><path d="M60 42v1h1v-2h-1v1zM29 41h-1v2h1v-2zM63 39H53v1h8v1h1v-1h2v-1h-1zM59 43h1v1h-1zM58 44h1v1h-1zM57 45h1v1h-1zM55 46v1h2v-1h-2zM53 47h-5v1h7v-1h-2zM47 46h1v1h-1zM46 45h1v1h-1zM42 45h1v1h-1zM41 46h1v1h-1zM39 47h-5v1h7v-1h-2zM33 46h-1v1h2v-1h-1zM31 45h1v1h-1zM30 44h1v1h-1zM29 43h1v1h-1zM50 41h3v-1h-5v1h2zM47 41h1v1h-1zM46 43h1v-1h-5v1h1v2h1v-2h1v2h1v-2zM41 41h1v1h-1zM37 41h4v-1h-5v1h1zM29 40h7v-1H25v1h2v1h1v-1h1z"/></g><g fill="#333" id="hot-glasses-glass" opacity=".5"><path d="M41 42h-5v-1h-6v2h1v1h1v1h2v1h7v-1h1v-2h-1zM59 41h-6v1h-5v1h-1v2h1v1h7v-1h2v-1h1v-1h1z"/></g></g><g id="gas-mask-graffiti"><path d="M64 52v-1h-1v-1h-3v-1h-5v-1h-1v-1h-1v-1h-2v-1h-4v-1h-1v-1h-3v1h-1v1h-4v1h-2v1h-1v1h-1v1h-5v1h-3v1h-1v1h-1v6h1v2h1v2h1v1h1v1h1v1h3v-1h3v-1h2v-1h1v-1h2v1h1v1h7v-1h1v-1h2v1h1v1h2v1h3v1h3v-1h1v-1h1v-1h1v-2h1v-2h1v-6h-1z"/><path fill="#4D4D4D" d="M63 52v-1h-3v1h-1v1h-1v1h-1v3h-1v5h1v2h3v-1h1v-1h1v-2h1v-2h1v-6h-1zm0 2v3h-1v2h-1v2h-1v1h-2v-1h-1v-3h1v-3h1v-1h1v-1h1v-1h1v1h1v1z"/><path fill="#1A1A1A" d="M55 61v-4h1v-3h1v-1h1v-1h1v-1h1v-1h-6v1h-1v1h-1v1h-1v8h1v1h2v1h2v-1h-1v-1z"/><path fill="#333" d="M52 52v-1h1v-1h1v-2h-1v-1h-2v-1h-4v-1h-1v-1h-3v1h-1v1h-4v1h-2v1h-1v2h1v1h1v1h1v1h1v7h1v1h1v1h7v-1h1v-1h1v-7h1v-1h1z"/><path fill="#1A1A1A" d="M37 52h-1v-1h-1v-1h-6v1h1v1h1v1h1v1h1v3h1v5h-1v1h2v-1h2v-1h1v-8h-1v-1z"/><path fill="#333" d="M33 60v-3h-1v-3h-1v-1h-1v-1h-1v-1h-3v1h-1v6h1v2h1v2h1v1h1v1h3v-2h1v-2zm-2 1v1h-2v-1h-1v-2h-1v-2h-1v-4h1v-1h1v1h1v1h1v1h1v3h1v3h-1z"/><g fill="#3FF"><path d="M54 50v1h-1v1h-1v1h-1v8h1v1h2v1h2v-1h-1v-5h1v-3h1v-1h1v-1h1v-1h1v-1zm-25 0v1h1v1h1v1h1v1h1v3h1v5h-1v1h2v-1h2v-1h1v-8h-1v-1h-1v-1h-1v-1z"/><path d="M38 47h-2v1h-1v2h1v1h1v1h1v1h1v7h1v1h1v1h7v-1h1v-1h1v-7h1v-1h1v-1h1v-1h1v-2h-1v-1h-2v-1h-4v-1h-1v-1h-3v1h-1v1h-4z"/></g><path fill="#ACE5F3" d="M42 54v-2h-1v1h-2v2h4v-1h-1zm-1 3h-2v3h3v-4h-1v1zm-4 0h-1v3h1v-2h1v-2h-1v1z"/><path fill="#FFF75F" d="M56 53h-1v-1h-1v2h1v1h1v-1h1v-1h-1zm-8-7h-3v-2h-2v1h-1v1h1v2h2v-1h5v-1h-2zm-2 11v1h-1v-2h-1v4h-1v1h-2v1h4v-3h2v-3h-1v1zm0-6v3h1v-1h1v-2h-2zm-2-1h1v1h-1v-1zm-1-1h1v1h-1v-1zm-6 5h-1v1h1v1h1v-3h-1v1zm-3 5v2h1v-1h1v-1h-2z"/><path fill="#C0FF97" d="M57 51h-1v1h-1v1h3v-2h-1zm-2 10h-1v-2h-2v1h1v2h1v1h2v-1h-1v-1zm-3-10v-3h-1v-1h-6v1h2v1h1v-1h2v1h-1v1h2v1h-1v2h1v-1h1v-1zm-16 5h1v1h-1v-1zm-1-4v2h2v-2h-2zm0 4h-1v3h2v-2h-1v-1z"/><g fill="#7850FF"><path d="M47 54h-1v1h2v-2h-1v1zm8 1v-1h-2v1h1v1h1v1h1v-2h-1zm-3-1v-1h-1v3h1v3h1v-4h-1v-1z"/><path d="M51 50h-2v-1h1v-1h-2v1h-2v2h2v1h1v5h1v-6h1v-1zm-11 1h-1v-1h-2v-1h-1v-1h-1v2h1v1h1v1h1v1h3v-1h-1v-1zm-3 8v2h1v-3h-1v1zm-2-4h1v1h-1v-1zm-1-1h1v1h-1v-1z"/></g><g fill="#56E5B7"><path d="M54 58h-1v1h1v2h1v-3h-1zm-1-8h1v-1h-2v2h1v-1zm-8-2h-4v-1h-2v2h-1v-1h-2v1h1v1h2v1h1v1h1v-2h-1v-1h4v1h2v-1h1v-1h-2zm-3 11v1h-2v1h3v-1h1v-1h-2z"/><path d="M43 53v-2h-1v3h1v-1zm-2 2h-2v2h2v-1h1v1h1v-2h-2zm-7 6v1h-1v1h2v-1h1v-1h-2zm1-11h-2v3h2v-1h1v-1h-1v-1z"/></g><path fill="#FF8749" d="M53 48v-1h-2v1h1v1h2v-1h-1zm-1 11v-3h-1v5h1v1h1v-2h-1v-1zm-2-13h1v1h-1v-1zm-2 14h1v1h-1v-1zm-1-2h1v1h-1v-1zm-1 3h-1v1h3v-1h-2zm1-1v-1h-2v1h2zm0-14v-1h-1v-1h-1v2h2zm-6 3h-1v1h1v2h1v-1h1v-2h-2zm-3-1h1v1h-1v-1zm-1-1h-1v1h2v-1h-1zm-3 7h-1v2h2v-1h-1v-1zm-2-1h1v1h-1v-1z"/><path fill="#F13441" d="M59 50h-1v2h1v-1h1v-1h-1zm-5 5h-1v3h2v-2h-1v-1zm-8 0v-1h-1v-2h1v-2h-1v1h-1v-1h-1v7h-1v2h2v-3h1v2h1v-2h1v1h1v-2h-2zm-4-7h1v-2h-5v2h1v-1h2v1h1zm-6 7h1v1h-1v-1zm-1 1h1v1h-1v-1zm-2 0h1v1h-1v-1zm-2-6h-2v1h1v1h1v1h1v-2h-1v-1z"/><path opacity=".27" d="M43 44v1h-1v1h-4v1h-2v1h-1v2h1v1h1v1h1v1h1v7h1v1h1v1h3V44h-1z"/></g><g id="deal-with-it-glasses"><path d="M64 42h-3v1h4v-1zM60 41H28v1h1v2h1v2h1v2h1v1h9v-1h1v-2h1v-2h1v-2h1v2h1v2h1v2h1v1h9v-1h1v-2h1v-2h1v-2h1v-1z"/><path fill="#FFF" d="M33 45v1h-1v-2h1v1zm0 2h1v-1h-1v1zm2-3h-1v2h1v-2zm0 3h1v-1h-1v1zm-1-4h-1v1h1v-1zm-3 0v1h1v-1h-1zm18 1h-1v2h1v-2zm0 3h1v-1h-1v1zm2-3h-1v2h1v-2zm0 2v1h1v-1h-1zm-1-3h-1v1h1v-1zm-3 0v1h1v-1h-1z"/></g></g><a href="/images/png/cg5194-512.png" class="button png-square"><path class="button-bg" d="M26 75h13v11H26z"/><path fill="#FFF" d="M36 77h-1v1h1v5h-1v1h2v-7zm-8 0v7h2v-1h-1v-5h1v-1h-1zm6 3h1v1h-1zm-4 0h1v1h-1zm3 0v-2h-1v3h-1v1h1v1h1v-1h1v-1h-1z"/><title>Download square PNG</title></a><a href="/images/png/cg5194-wide.png" class="button png-wide"><path class="button-bg" d="M42 75h21v11H42z"/><path fill="#FFF" d="M60 77h-1v1h1v5h-1v1h2v-7zm-16 0v7h2v-1h-1v-5h1v-1h-1zm10 3h1v1h-1zm-4 0h1v1h-1zm3 0v-2h-1v3h-1v1h1v1h1v-1h1v-1h-1z"/><title>Download wide PNG</title></a><script type="text/javascript"><![CDATA[
    let cg5194Root = document.getElementById('cg5194');

    if (cg5194Root) {
      let cgRoot = cg5194Root;
      let cgBg = cgRoot.querySelector('.cg-bg');
      let cgBody = cgRoot.querySelector('.cg-body');

      cgBg.addEventListener('dblclick', () => {
        cgRoot.classList.toggle('menu-in');
      });

      cgBody.addEventListener('click', () => {

        let bufferArray = [];
        let lastKeystrokeTime = Date.now();
        const cheatcode = (e) => {

          const key = e.key.toLowerCase();
          const latestKeystrokeTime = Date.now();

          if (latestKeystrokeTime - lastKeystrokeTime > 1500) {
            bufferArray = [];
          }

          bufferArray.push(key);

          const word = bufferArray.join('');
          if (word === 'dealwithit') {
            console.log('No u.');

            cgRoot.classList.add('deal-with-it');

            setTimeout(() => {
              cgRoot.classList.remove('deal-with-it');
            }, 10000);

            clearListener();
          }
  
          lastKeystrokeTime = latestKeystrokeTime;

        }
        document.addEventListener('keyup', cheatcode, true);

        const clearListener = () => {
          document.removeEventListener('keyup', cheatcode, true);
        }

      });
    
    let cgDigits = cgRoot.querySelector('.cg-digits');
    let cgTime = cgRoot.querySelector('.cg-time');
  

      let cgGlasses = cgRoot.querySelector('.cg-glasses');
      cgGlasses.addEventListener('dblclick', () => {
        cgRoot.classList.add('get-time');

        let now = new Date();
        let hours = ('0' + now.getHours()).substr(-2);
        let minutes = ('0' + now.getMinutes()).substr(-2);;
        let digits = [hours.substr(0,1), hours.substr(1), minutes.substr(0,1), minutes.substr(1)];

        cgTime.replaceChildren();

        for (let i = 0; i < 4; i++) {
          switch (digits[i]) {
            case '0':
              cgTime.appendChild(cgDigits.querySelector('.cg-digit-zero').cloneNode(true));
              break;
            case '1':
              cgTime.appendChild(cgDigits.querySelector('.cg-digit-one').cloneNode(true));
              break;
            case '2':
              cgTime.appendChild(cgDigits.querySelector('.cg-digit-two').cloneNode(true));
              break;
            case '3':
              cgTime.appendChild(cgDigits.querySelector('.cg-digit-three').cloneNode(true));
              break;
            case '4':
              cgTime.appendChild(cgDigits.querySelector('.cg-digit-four').cloneNode(true));
              break;
            case '5':
              cgTime.appendChild(cgDigits.querySelector('.cg-digit-five').cloneNode(true));
              break;
            case '6':
              cgTime.appendChild(cgDigits.querySelector('.cg-digit-six').cloneNode(true));
              break;
            case '7':
              cgTime.appendChild(cgDigits.querySelector('.cg-digit-seven').cloneNode(true));
              break;
            case '8':
              cgTime.appendChild(cgDigits.querySelector('.cg-digit-eight').cloneNode(true));
              break;
            case '9':
              cgTime.appendChild(cgDigits.querySelector('.cg-digit-nine').cloneNode(true));
              break;
          }
        }

        cgTime.childNodes[1].style.transform = 'translateX(4px)';
        cgTime.childNodes[2].style.transform = 'translateX(10px)';
        cgTime.childNodes[3].style.transform = 'translateX(14px)';

        cgTime.appendChild(cgDigits.querySelector('.cg-digit-colon').cloneNode(true));

        setTimeout(() => {
          cgRoot.classList.remove('get-time');
        }, 10000);
      });

    }]]></script></svg>