<svg id="cg5574" xmlns="http://www.w3.org/2000/svg" viewBox="0 0 89 89"><style>
    #cg5574 {
      overflow: hidden;
    }

    #cg5574 .button {
      opacity: 0;
      pointer-events: none;
      transition: 0.2s ease;
      transform: translate3d(0, 20px, 0);
    }

    #cg5574 .button.png-wide {
      transition-delay: 0.2s;
    }

    #cg5574.menu-in .button {
      opacity: 1;
      pointer-events: auto;
      cursor: pointer;
      transform: translate3d(0, 0, 0);
    }

    #cg5574.menu-in .button .button-bg {
      transition: fill 0.2s ease;
    }

    #cg5574.menu-in .button:hover .button-bg {
      fill: #FF5FFA;
    }

    #cg5574 .cg-glasses {
      transition: opacity 0.2s ease;
    }

    #cg5574 #deal-with-it-glasses {
      opacity: 0;
      pointer-events: none;
      transition: opacity 0.2s ease, transform 3s linear;
      transform: translate3d(0, -60px, 0);
    }

    #cg5574.deal-with-it #deal-with-it-glasses {
      opacity: 1;
      transform: translate3d(0, 0, 0);
    }

    #cg5574.deal-with-it .cg-glasses {
      opacity: 0;
      transition-delay: 2s;
    }

  
    #cg5574 .cg-eyes {
      transition: opacity 0.2s ease;
    }

    #cg5574.get-time .cg-eyes {
      opacity: 0;
    }
  
    #cg5574 .cg-time {
      pointer-events: none;
      transition: opacity 0.2s ease;
      opacity: 0;
    }

    #cg5574.get-time .cg-time {
      opacity: 1;
    }

    #cg5574 .cg-time .cg-digit-colon {
      animation: cg-colon-blink 1s ease-in-out 0s infinite;
    }

    @keyframes cg-colon-blink {
      20% {
        opacity: 1;
      }
      50% {
        opacity: 0;
      }
      80% {
        opacity: 1;
      }
    }
  
    #cg5574 .cg-body {
      animation: cg-anim-hover 1.5s ease-in-out -1.039s infinite;
      transform-origin: center;
      transform-box: fill-box;
    }

    @keyframes cg-anim-hover {
      0% {
        transform: translate3d(0,0,0);
      }
      50% {
        transform: translate3d(0,-2px,0);
      }
      100% {
        transform: translate3d(0,0,0);
      }
    }
  
    #cg5574 .cg-shadow {
      animation: cg-anim-shadow 1.5s ease-in-out -1.039s infinite;
      transform-origin: center;
      transform-box: fill-box;
    }

    @keyframes cg-anim-shadow {
      0% {
        transform: scale3d(1,1,1);
      }
      50% {
        transform: scale3d(0.9,1,1);
      }
      100% {
        transform: scale3d(1,1,1);
      }
    }
  
      @keyframes cg-anim-rgb {
        0% {
          fill: #FF5F5F;
        }
        11.1111% {
          fill: #FFA45F;
        }
        22.2222% {
          fill: #BAFF5F;
        }
        33.3333% {
          fill: #5FFF74;
        }
        44.4444% {
          fill: #5FFFCE;
        }
        55.5555% {
          fill: #5FD9FF;
        }
        66.6666% {
          fill: #5F6AFF;
        }
        77.7777% {
          fill: #AA5FFF;
        }
        88.8888% {
          fill: #FF5FFA;
        }
        100% {
          fill: #FF5F5F;
        }
      }
    
      #cg5574 .planet-color {
        animation: cg-anim-rgb 10s linear -7.1729s infinite;
      }
    </style><path class="cg-bg" d="M0 0h89v89H0z" fill="#33FFFF"></path><g id="planet"><path id="planet-bg" d="M30 6V5h-4v1h-2v1h-2V6h-2V5h-7v1h-2v1H9v1H8v1H7v2H6v2H5v7h1v1H5v1H4v2H3v3h1v1h1v1h4v-1h2v-1h3v1h6v-1h2v-1h2v-1h1v-1h1v-1h1v-1h1v-2h1v-9h1V8h1V6h-1zM9 24v1H7v-2h1v1h1z"/><g class="planet-color" fill="#ACE5F3"><path d="M27 15v2h-1v1h-1v1h-1v1h-1v1h-1v1h-1v1h-2v1h-2v1h-2v1h-1v1h6v-1h2v-1h2v-1h1v-1h1v-1h1v-2h1v-5h-1zM14 22h2v-1h2v-1h2v-1h1v-1h1v-1h1v-1h1v-2h1v-2h1v-2h-1V9h-1V8h-2V7h-2V6h-7v1h-2v1H9v1H8v2H7v2H6v7h1v2h1v1h1v1h3v-1h2v-1z"/></g><path id="ring-colour" fill="#7850FF" d="M29 6h-3v1h-2v1h3v4h-1v2h-1v2h-1v1h-1v1h-1v1h-1v1h-1v1h-2v1h-2v1h-2v1h-2v1h-2v1H6v-3h1v-1H5v2H4v3h1v1h4v-1h2v-1h2v-1h2v-1h2v-1h2v-1h2v-1h1v-1h1v-1h1v-1h1v-1h1v-2h1v-2h1v-2h1V8h1V6h-1z"/><g id="planet-highlights" opacity=".21" fill="#FFF"><path d="M20 14h-2v1h3v-1h-1zM25 20h1v1h-1zM25 10v2h1v-2h-1zM24 21h1v1h-1zM24 9h1v1h-1zM23 22h1v1h-1zM23 8h-1v1h2V8h-1zM21 23h-2v1h4v-1h-2zM22 16v-1h-1v2h1v-1zM21 7h-1v1h2V7h-1zM20 17h1v1h-1zM19 18h1v1h-1zM19 6h-6v1h7V6h-1zM18 19h1v1h-1zM17 20h1v1h-1zM17 15h1v1h-1zM17 12v-1h-1v2h1v-1zM15 16v1h2v-1h-2zM15 13h1v1h-1zM15 10h-1v1h2v-1h-1zM14 14h1v1h-1zM13 17v1h2v-1h-2zM13 15h1v1h-1zM12 16h1v1h-1zM12 11v1h2v-1h-2zM11 12h1v1h-1zM11 7v1h2V7h-2zM10 13h1v1h-1zM9 23h1v1H9zM9 14h1v1H9zM9 8v1h2V8H9zM8 22h1v1H8zM8 10v1h1V9H8v1zM7 22h1v-2H7v2zM7 12v1h1v-2H7v1zM6 14v6h1v-7H6v1z"/></g><g id="planet-stars"><g fill="#FFFA9F"><path d="M39 4v1h-1v1h-1V5h-1V4h1V3h1v1zM36 11v2h-1v-2h1zM35 13v1h-2v-1h2zM35 10v1h-2v-1h2zM33 11v2h-1v-2h1zM26 2h1v1h-1zM10 33v1H9v1H8v-1H7v-1h1v-1h1v1z"/></g></g></g><path class="cg-shadow" opacity=".17" d="M60 79v-1H29v1h-2v1h3v1h29v-1h3v-1z"/><g class="cg-body"><g id="angel-wings"><g id="angel-wings-left"><path d="M23 38v-2h-1v-1h-1v-1h-1v-1h-2v-1h-3v-1h-1v-1h-1v-1h-1v-2h-1v-2h-1v-1H9v-1H7v1H6v1H5v5H4v1H3v4h1v2H3v4h1v1h1v1h1v3h1v1h1v1h4v-1h1v1h7v-1h2v-1h1v-2h1v-6h-1z" id="angel-wings-outline-left"/><g id="Layer_290" fill="#8EE4FF"><path d="M5 41H4v-3h2v1h2v1h3v1h1v1h-2v1H6v-1H5v-1z"/><path d="M14 31v1h1v1h3v1h2v1h1v1h1v2h1v6h-1v2h-2v1h-7v-1h-1v1H8v-1H7v-2h3v-1h2v-1h1v-1h-1v-1h-1v-4h4v2h-1v1h1v-1h1v-2h-1v-1h-4v1h-1v-1H9v-1H8v-1H7v-1H6v-7h1v-1h2v1h1v2h1v2h1v1h1v1h1z"/><path d="M10 38v1H8v-1H6v-1H5v-2H4v-4h1v1h1v1h1v1h1v1h1v1h1v2z"/></g><g opacity=".71" fill="#D9F6FF" id="angel-wings-highlight-left"><path d="M22 43h1v1h-1zM19.7 46H19v1h1v-1h-.3zM20 45v1h2v-1h-2zM22 38h1v1h-1zM22 36h-1v2h1v-2zM10 36H9v3h1v-3zM20 35h1v1h-1zM19 38v1h-1v1h1v1h1v-1h1v-1h-1v-1zM19 34h-1v1h2v-1h-1zM17 33h-2v1h3v-1h-1zM16 41h1v1h-1zM14 32h1v1h-1zM13 31h1v1h-1zM12 30h1v1h-1zM11 29h1v1h-1zM8 24h1v1H8zM11.5 46H11v1h1v-1h-.5zM7.5 39H7v1h1v-1h-.5zM5.5 38H5v1h1v-1h-.5zM8.5 35H8v1h1v-1h-.5zM7.5 34H7v1h1v-1h-.5zM6.5 33H6v1h1v-1h-.5zM5.5 32H5v1h1v-1h-.5zM14.5 36H14v1h1v-1h-.5zM14.5 37H14v1h1v-1h-.5zM13.5 38H13v1h1v-1h-.5zM11 27h-1v2h1v-2zM10 25H9v2h1v-2zM8 29h1v1H8zM11 41h1v1h-1zM9 42h1v1H9zM10 40h1v1h-1zM23 42v-3h-1v4h1v-1z"/></g></g><g id="angel-wings-right"><path d="M86 35v-4h-1v-1h-1v-5h-1v-1h-1v-1h-2v1h-1v1h-1v2h-1v2h-1v1h-1v1h-1v1h-3v1h-2v1h-1v1h-1v1h-1v2h-1v6h1v2h1v1h2v1h7v-1h1v1h4v-1h1v-1h1v-3h1v-1h1v-1h1v-4h-1v-2h1z" id="angel-wings-outline-right"/><g id="Layer_291" fill="#8EE4FF"><path d="M83 42v1h-4v-1h-2v-1h1v-1h3v-1h2v-1h2v3h-1v1h-1z"/><path d="M82 34v-1h1v-1h1v-1h1v4h-1v2h-1v1h-2v1h-2v-3h1v-1h1v-1h1z"/><path d="M77 40v1h-1v1h1v1h2v1h3v2h-1v1h-4v-1h-1v1h-7v-1h-2v-2h-1v-6h1v-2h1v-1h1v-1h2v-1h3v-1h1v-1h1v-1h1v-1h1v-2h1v-2h1v-1h2v1h1v7h-1v1h-1v1h-1v1h-1v1h-1v-1h-4v1h-1v2h1v1h1v-1h-1v-2h4v4h-1z"/></g><g opacity=".71" fill="#D9F6FF" id="angel-wings-highlight-right"><path d="M78 35h1v1h-1zM79 34h1v1h-1zM80 33h1v1h-1zM81 32h1v1h-1zM70 38v1h1v1h-1v1h-1v-1h-1v-1h1v-1zM72 41h1v1h-1zM73 38h1v1h-1zM73 35h1v1h-1zM80 43h-1v-1h4v1h-3zM80 39h-1v-1h2v1h-1zM80 29h1v1h-1zM81 24h1v1h-1zM82 38h-1v-1h2v1h-1zM83 26v6h-1v-7h1v1zM83 41h1v1h-1zM80 46h1v1h-1zM75 46h1v1h-1zM76 42h1v1h-1zM75 41h1v1h-1zM76 40h1v1h-1zM84 37h-1v-2h1v2zM82 46h-1v-2h1v2zM73 38h-1v-2h1v2zM84 39v-1h1v3h-1v-2zM84 34v-3h1v4h-1v-1zM77 39v-3h1v4h-1v-1z"/></g></g></g><path d="M63 47v-4h-1v-3h-1v-2h-1v-1h-1v-1h-1v-1h-1v-1h-1v-1h-1v-1h-2v-1h-2v-1H38v1h-2v1h-2v1h-1v1h-1v1h-1v1h-1v1h-1v1h-1v2h-1v3h-1v4h-1v13h1v3h1v3h1v1h1v1h1v1h2v1h2v-1h1v-1h1v-4h1v3h1v1h1v1h2v-1h1v-1h1v-4h1v-1h1v1h1v4h1v1h1v1h2v-1h1v-1h1v-3h1v4h1v1h1v1h2v-1h2v-1h1v-1h1v-1h1v-3h1v-3h1V47z"/><path class="cg-body-color" fill="#FFF75F" d="M62 47v-4h-1v-3h-1v-2h-1v-1h-1v-1h-1v-1h-1v-1h-1v-1h-2v-1h-2v-1H38v1h-2v1h-2v1h-1v1h-1v1h-1v1h-1v1h-1v2h-1v3h-1v4h-1v13h1v3h1v3h1v1h1v1h2v1h2v-1h1v-4h1v-1h1v1h1v3h1v1h2v-1h1v-4h1v-1h1v-1h1v1h1v1h1v4h1v1h2v-1h1v-3h1v-1h1v1h1v4h1v1h2v-1h2v-1h1v-1h1v-3h1v-3h1V47z"/><g class="cg-face"><path d="M39 36v1h-3v1h-1v1h-1v1h-1v2h-1v2h1v1h1v1h2v1h3v1h11v-1h3v-1h2v-1h1v-1h1v-2h-1v-2h-1v-1h-1v-1h-1v-1h-3v-1z"/><path fill="#FFF" d="M39 37v1h-3v1h-1v1h-1v2h-1v2h1v1h2v1h3v1h11v-1h3v-1h2v-1h1v-2h-1v-2h-1v-1h-1v-1h-3v-1z"/><g class="cg-eyes"><path id="shut" d="M40 44h-4v-1h4v1zm13-1h-4v1h4v-1z"/></g><g class="cg-digits" style="display: none;"><g class="cg-digit-zero"><path d="M38 40h-2v5h3v-5h-1zm0 2v2h-1v-3h1v1z"/></g><g class="cg-digit-one"><path d="M39 44v1h-3v-1h1v-2h-1v-1h1v-1h1v4h1z"/></g><g class="cg-digit-two"><path d="M39 42h-1v-1h1v1zm-1 3h1v-1h-2v1h1zm0-3h-1v1h1v-1zm-1-2h-1v1h2v-1h-1zm-1 3v1h1v-1h-1z"/></g><g class="cg-digit-three"><path d="M38 44v-1h1v1h-1zm1-3h-1v1h1v-1zm-2 1v1h1v-1h-1zm0-2h-1v1h2v-1h-1zm-1 4v1h2v-1h-2z"/></g><g class="cg-digit-four"><path d="M39 41v4h-1v-2h-2v-3h1v2h1v-1h1z"/></g><g class="cg-digit-five"><path d="M38 44v-1h1v1h-1zm0-3h1v-1h-3v3h2v-1h-1v-1h1zm-2 3v1h2v-1h-2z"/></g><g class="cg-digit-six"><path d="M38 41h-1v-1h2v1h-1zm-2 0v3h1v-1h1v1h-1v1h2v-3h-2v-1h-1z"/></g><g class="cg-digit-seven"><path d="M39 40v5h-1v-4h-2v-1h3z"/></g><g class="cg-digit-eight"><path d="M38 40h-2v5h3v-5h-1zm0 4h-1v-1h1v1zm0-2h-1v-1h1v1z"/></g><g class="cg-digit-nine"><path d="M38 40h-2v3h2v2h1v-5h-1zm0 2h-1v-1h1v1z"/></g><g class="cg-digit-colon"><path d="M45 42h-1v-1h1v1zm0 1h-1v1h1v-1z"/></g></g><g class="cg-time"></g></g><g id="gas-mask"><path d="M64 52v-1h-1v-1h-3v-1h-5v-1h-1v-1h-1v-1h-2v-1h-4v-1h-1v-1h-3v1h-1v1h-4v1h-2v1h-1v1h-1v1h-5v1h-3v1h-1v1h-1v6h1v2h1v2h1v1h1v1h1v1h3v-1h3v-1h2v-1h1v-1h2v1h1v1h7v-1h1v-1h2v1h1v1h2v1h3v1h3v-1h1v-1h1v-1h1v-2h1v-2h1v-6z"/><g><path fill="#4D4D4D" d="M63 52v-1h-3v1h-1v1h-1v1h-1v3h-1v5h1v2h3v-1h1v-1h1v-2h1v-2h1v-6h-1zm0 2v3h-1v2h-1v2h-1v1h-2v-1h-1v-3h1v-3h1v-1h1v-1h1v-1h1v1h1v1z"/><path fill="#1A1A1A" d="M55 61v-4h1v-3h1v-1h1v-1h1v-1h1v-1h-6v1h-1v1h-1v1h-1v8h1v1h2v1h2v-1h-1z"/><path fill="#333" d="M52 52v-1h1v-1h1v-2h-1v-1h-2v-1h-4v-1h-1v-1h-3v1h-1v1h-4v1h-2v1h-1v2h1v1h1v1h1v1h1v7h1v1h1v1h7v-1h1v-1h1v-7h1v-1z"/><path fill="#1A1A1A" d="M37 52h-1v-1h-1v-1h-6v1h1v1h1v1h1v1h1v3h1v5h-1v1h2v-1h2v-1h1v-8h-1z"/><path fill="#333" d="M33 60v-3h-1v-3h-1v-1h-1v-1h-1v-1h-3v1h-1v6h1v2h1v2h1v1h1v1h3v-2h1v-2zm-2 1v1h-2v-1h-1v-2h-1v-2h-1v-4h1v-1h1v1h1v1h1v1h1v3h1v3h-1z"/></g></g><g id="crown"><g><g><circle cx="58" cy="32" r="1.4"/><circle cx="53" cy="30" r="1.4"/><path d="M47 29v-3h-1v-1h-3v1h-1v3h1v1h3v-1h1zm0-10v-2h-1v-1h-1v-1h-1v1h-1v1h-1v2h1v1h1v1h1v-1h1v-1h1zm8 12v-2h-1v-1h-2v1h-1v2h1v1h-2v-1H39v-4h1v-1h1v-1h1v-1h1v-2h-1v-2h-1v-4h1v-1h1v-1h1v-1h1v1h1v1h1v1h1v4h-1v2h-1v2h1v1h1v1h1v1h3v-1h1v-2h-1v-1h1v-1h1v-1h1v4h-1v2h1v1h2v-1h1v-2h1v-2h1v-1h1v4h-1v2h-1v2h-2v1h-1v2h1v2h-2v-1h-1v-1h-2v-1h2v-1h1z"/><path d="M60 27v-1h1v2h-1v-1zM61 22h-1v-1h1v-1h1v6h-1v-4zM60 28v2h-1v-2h1zM59 22h1v1h-1zM59 31h1v2h-1v-2zM59 30v1h-2v-1h2zM59 23v2h-1v-2h1zM57 33h2v1h-1v3h-1v-1h-2v-1h2v-2zM58 25v2h-1v-2h1zM57 31v2h-1v-2h1zM55 27h2v1h-2v-1zM55 25v2h-1v-2h1zM55 21h-1v-1h1v-1h1v6h-1v-4zM55 29v2h-1v-2h1zM54 34h1v1h-1zM54 28v1h-2v-1h2zM53 21h1v1h-1zM54 31v1h-2v-1h2zM52 22h1v1h-1zM53 25v1h-1v-2h1v1zM53 33h1v1h-2v-1h1zM52 29v2h-1v-2h1zM52 26v1h-3v-1h3zM51 23h1v1h-1zM50 32h2v1h-2v-1zM48 16h1v4h-1v-4zM48 25h1v1h-1zM48 20v2h-1v-2h1zM47 15h1v1h-1zM47 24h1v1h-1zM47 22v2h-1v-2h1zM46 14h1v1h-1zM47 17v2h-1v-2h1zM47 26v3h-1v-3h1zM45 26h-2v-1h3v1h-1zM45 13h1v1h-1zM45 16h1v1h-1zM45 19h1v1h-1zM44 29h2v1h-3v-1h1zM44 15h1v1h-1zM45 12v1h-1v-2h1v1zM44 20h1v1h-1zM43 19h1v1h-1zM43 13h1v1h-1zM43 16h1v1h-1zM43 27v2h-1v-3h1v1zM42 14h1v1h-1zM43 18v1h-1v-2h1v1zM43 23v1h-1v-2h1v1zM41 15h1v1h-1zM41 20h1v2h-1v-2zM41 24h1v1h-1zM40 20v-4h1v4h-1zM40 25h1v1h-1zM39 26h1v1h-1z"/><path d="M50 31v1H39v1h-1v-6h1v4h11z"/></g><g><circle cx="31" cy="32" r="1.4"/><circle cx="36" cy="30" r="1.4"/><path d="M44 16h1v1h1v2h-1v1h-1v-1h-1v-2h1v-1zM44 26h2v3h-3v-3h1z"/><path d="M47 29v-3h-1v-1h-3v1h-1v3h1v1h3v-1h1zm0-10v-2h-1v-1h-1v-1h-1v1h-1v1h-1v2h1v1h1v1h1v-1h1v-1h1zm1-1v2h-1v2h-1v2h1v1h1v1h1v1h1v4H39v1h-2v-1h1v-2h-1v-1h-2v1h-1v2h1v1h2v1h-2v1h-1v1h-2v-2h1v-2h-1v-1h-2v-2h-1v-2h-1v-4h1v1h1v2h1v2h1v1h2v-1h1v-2h-1v-4h1v1h1v1h1v1h-1v2h1v1h3v-1h1v-1h1v-1h1v-2h-1v-2h-1v-4h1v-1h1v-1h1v-1h1v1h1v1h1v1h1v2z"/><path d="M49 26h1v1h-1zM49 16v4h-1v-4h1zM48 25h1v1h-1zM47 15h1v1h-1zM47 20h1v2h-1v-2zM47 24h1v1h-1zM47 26v3h-1v-3h1zM47 22v2h-1v-2h1zM46 14h1v1h-1zM47 17v2h-1v-2h1zM46 25v1h-3v-1h3zM45 19h1v1h-1zM45 13h1v1h-1zM45 16h1v1h-1zM43 29h3v1h-3v-1zM44 15h1v1h-1zM45 11v2h-1v-2h1zM44 20h1v1h-1zM43 13h1v1h-1zM43 16h1v1h-1zM43 19h1v1h-1zM43 26v3h-1v-3h1zM43 23v1h-1v-2h1v1zM42 14h1v1h-1zM43 17v2h-1v-2h1zM42 21v1h-1v-2h1v1zM41 15h1v1h-1zM41 24h1v1h-1zM41 16v4h-1v-4h1zM40 25h1v1h-1z"/><path d="M50 31v-4h1v6h-1v-1H39v-1h11zM40 26v1h-3v-1h3zM38 32h1v1h-2v-1h1zM37 23h1v1h-1zM37 29h1v2h-1v-2zM37 28v1h-2v-1h2zM37 24v2h-1v-2h1zM36 22h1v1h-1zM37 31v1h-2v-1h2zM37 33v1h-2v-1h2zM35 21h1v1h-1zM34 34h1v1h-1zM35 29v2h-1v-2h1zM34 27v-2h1v2h-1zM35 20v1h-1v4h-1v-6h1v1h1zM34 27v1h-2v-1h2zM33 31v2h-1v-2h1zM32 25v2h-1v-2h1zM30 30h2v1h-2v-1zM34 35v1h-2v1h-1v-3h-1v-1h2v2h2zM31 23v2h-1v-2h1zM30 29v1h-1v-2h1v1zM30 31v2h-1v-2h1zM29 22h1v1h-1zM29 27v1h-1v-2h1v1zM27 26v-6h1v1h1v1h-1v4h-1z"/></g></g><path fill="#F2F26B" d="M60 22v1h-1v2h-1v2h-1v1h-2v-1h-1v-2h1v-4h-1v1h-1v1h-1v1h1v2h-1v1h-3v-1h-1v-1h-1v-1h-1v-2h1v-2h1v-4h-1v-1h-1v-1h-1v-1h-1v1h-1v1h-1v1h-1v4h1v2h1v2h-1v1h-1v1h-1v1h-3v-1h-1v-2h1v-1h-1v-1h-1v-1h-1v4h1v2h-1v1h-2v-1h-1v-2h-1v-2h-1v-1h-1v4h1v2h1v2h2v1h1v2h-1v2h2v-1h1v-1h2v-1h-2v-1h-1v-2h1v-1h2v1h1v2h-1v1h2v-1h11v1h2v-1h-1v-2h1v-1h2v1h1v2h-1v1h-2v1h2v1h1v1h2v-2h-1v-2h1v-1h2v-2h1v-2h1v-4h-1zm-18-3v-2h1v-1h1v-1h1v1h1v1h1v2h-1v1h-1v1h-1v-1h-1v-1h-1zm1 11v-1h-1v-3h1v-1h3v1h1v3h-1v1h-3z"/><g><g><path fill="#95FCDE" d="M57 31h2v2h-2z"/><path fill="#2D2DEA" d="M52 29h2v2h-2z"/><path fill="#95FCDE" d="M43 26h3v3h-3zM46 17v2h-1v1h-1v-1h-1v-2h1v-1h1v1z"/><path fill="#2D2DEA" d="M35 29h2v2h-2z"/><path fill="#95FCDE" d="M30 31h2v2h-2z"/></g></g><g fill="#FFF" opacity=".4"><path d="M44 13h1v1h-1zM45 14h1v1h-1zM46 15h1v1h-1zM47 16h1v4h-1zM46 20h1v2h-1zM45 22h1v2h-1zM46 24h1v1h-1zM47 25h1v1h-1zM48 26h1v1h-1zM54 21h1v4h-1zM60 22h1v4h-1zM59 26h1v2h-1zM58 28h1v2h-1zM45 17h1v2h-1zM44 19h1v1h-1zM44 16h1v1h-1zM34 21h1v1h-1zM35 22h1v1h-1zM36 23h1v1h-1zM28 22h1v1h-1zM29 23h1v2h-1zM30 25h1v2h-1zM31 27h1v1h-1z"/></g></g><g id="deal-with-it-glasses"><path d="M64 42h-3v1h4v-1zM60 41H28v1h1v2h1v2h1v2h1v1h9v-1h1v-2h1v-2h1v-2h1v2h1v2h1v2h1v1h9v-1h1v-2h1v-2h1v-2h1v-1z"/><path fill="#FFF" d="M33 45v1h-1v-2h1v1zm0 2h1v-1h-1v1zm2-3h-1v2h1v-2zm0 3h1v-1h-1v1zm-1-4h-1v1h1v-1zm-3 0v1h1v-1h-1zm18 1h-1v2h1v-2zm0 3h1v-1h-1v1zm2-3h-1v2h1v-2zm0 2v1h1v-1h-1zm-1-3h-1v1h1v-1zm-3 0v1h1v-1h-1z"/></g></g><a href="/images/png/cg5574-512.png" class="button png-square"><path class="button-bg" d="M26 75h13v11H26z"/><path fill="#FFF" d="M36 77h-1v1h1v5h-1v1h2v-7zm-8 0v7h2v-1h-1v-5h1v-1h-1zm6 3h1v1h-1zm-4 0h1v1h-1zm3 0v-2h-1v3h-1v1h1v1h1v-1h1v-1h-1z"/><title>Download square PNG</title></a><a href="/images/png/cg5574-wide.png" class="button png-wide"><path class="button-bg" d="M42 75h21v11H42z"/><path fill="#FFF" d="M60 77h-1v1h1v5h-1v1h2v-7zm-16 0v7h2v-1h-1v-5h1v-1h-1zm10 3h1v1h-1zm-4 0h1v1h-1zm3 0v-2h-1v3h-1v1h1v1h1v-1h1v-1h-1z"/><title>Download wide PNG</title></a><script type="text/javascript"><![CDATA[
    let cg5574Root = document.getElementById('cg5574');

    if (cg5574Root) {
      let cgRoot = cg5574Root;
      let cgBg = cgRoot.querySelector('.cg-bg');
      let cgBody = cgRoot.querySelector('.cg-body');

      cgBg.addEventListener('dblclick', () => {
        cgRoot.classList.toggle('menu-in');
      });

      cgBody.addEventListener('click', () => {

        let bufferArray = [];
        let lastKeystrokeTime = Date.now();
        const cheatcode = (e) => {

          const key = e.key.toLowerCase();
          const latestKeystrokeTime = Date.now();

          if (latestKeystrokeTime - lastKeystrokeTime > 1500) {
            bufferArray = [];
          }

          bufferArray.push(key);

          const word = bufferArray.join('');
          if (word === 'dealwithit') {
            console.log('No u.');

            cgRoot.classList.add('deal-with-it');

            setTimeout(() => {
              cgRoot.classList.remove('deal-with-it');
            }, 10000);

            clearListener();
          }
  
          lastKeystrokeTime = latestKeystrokeTime;

        }
        document.addEventListener('keyup', cheatcode, true);

        const clearListener = () => {
          document.removeEventListener('keyup', cheatcode, true);
        }

      });
    
    let cgDigits = cgRoot.querySelector('.cg-digits');
    let cgTime = cgRoot.querySelector('.cg-time');
  

      let cgFace = cgRoot.querySelector('.cg-face');
      cgFace.addEventListener('dblclick', () => {
        cgRoot.classList.add('get-time');

        let now = new Date();
        let hours = ('0' + now.getHours()).substr(-2);
        let minutes = ('0' + now.getMinutes()).substr(-2);;
        let digits = [hours.substr(0,1), hours.substr(1), minutes.substr(0,1), minutes.substr(1)];

        cgTime.replaceChildren();

        for (let i = 0; i < 4; i++) {
          switch (digits[i]) {
            case '0':
              cgTime.appendChild(cgDigits.querySelector('.cg-digit-zero').cloneNode(true));
              break;
            case '1':
              cgTime.appendChild(cgDigits.querySelector('.cg-digit-one').cloneNode(true));
              break;
            case '2':
              cgTime.appendChild(cgDigits.querySelector('.cg-digit-two').cloneNode(true));
              break;
            case '3':
              cgTime.appendChild(cgDigits.querySelector('.cg-digit-three').cloneNode(true));
              break;
            case '4':
              cgTime.appendChild(cgDigits.querySelector('.cg-digit-four').cloneNode(true));
              break;
            case '5':
              cgTime.appendChild(cgDigits.querySelector('.cg-digit-five').cloneNode(true));
              break;
            case '6':
              cgTime.appendChild(cgDigits.querySelector('.cg-digit-six').cloneNode(true));
              break;
            case '7':
              cgTime.appendChild(cgDigits.querySelector('.cg-digit-seven').cloneNode(true));
              break;
            case '8':
              cgTime.appendChild(cgDigits.querySelector('.cg-digit-eight').cloneNode(true));
              break;
            case '9':
              cgTime.appendChild(cgDigits.querySelector('.cg-digit-nine').cloneNode(true));
              break;
          }
        }

        cgTime.childNodes[1].style.transform = 'translateX(4px)';
        cgTime.childNodes[2].style.transform = 'translateX(10px)';
        cgTime.childNodes[3].style.transform = 'translateX(14px)';

        cgTime.appendChild(cgDigits.querySelector('.cg-digit-colon').cloneNode(true));

        setTimeout(() => {
          cgRoot.classList.remove('get-time');
        }, 10000);
      });

    }]]></script></svg>