<svg id="cg5905" xmlns="http://www.w3.org/2000/svg" viewBox="0 0 89 89"><style>
    #cg5905 {
      overflow: hidden;
    }

    #cg5905 .button {
      opacity: 0;
      pointer-events: none;
      transition: 0.2s ease;
      transform: translate3d(0, 20px, 0);
    }

    #cg5905 .button.png-wide {
      transition-delay: 0.2s;
    }

    #cg5905.menu-in .button {
      opacity: 1;
      pointer-events: auto;
      cursor: pointer;
      transform: translate3d(0, 0, 0);
    }

    #cg5905.menu-in .button .button-bg {
      transition: fill 0.2s ease;
    }

    #cg5905.menu-in .button:hover .button-bg {
      fill: #FF5FFA;
    }

    #cg5905 .cg-glasses {
      transition: opacity 0.2s ease;
    }

    #cg5905 #deal-with-it-glasses {
      opacity: 0;
      pointer-events: none;
      transition: opacity 0.2s ease, transform 3s linear;
      transform: translate3d(0, -60px, 0);
    }

    #cg5905.deal-with-it #deal-with-it-glasses {
      opacity: 1;
      transform: translate3d(0, 0, 0);
    }

    #cg5905.deal-with-it .cg-glasses {
      opacity: 0;
      transition-delay: 2s;
    }

  
      #cg5905 .cg-glasses {
        transition: opacity 0.2s ease;
      }

      #cg5905.get-time .cg-glasses {
        opacity: 0;
      }
    
    #cg5905 .cg-eyes {
      transition: opacity 0.2s ease;
    }

    #cg5905.get-time .cg-eyes {
      opacity: 0;
    }
  
    #cg5905 .cg-time {
      pointer-events: none;
      transition: opacity 0.2s ease;
      opacity: 0;
    }

    #cg5905.get-time .cg-time {
      opacity: 1;
    }

    #cg5905 .cg-time .cg-digit-colon {
      animation: cg-colon-blink 1s ease-in-out 0s infinite;
    }

    @keyframes cg-colon-blink {
      20% {
        opacity: 1;
      }
      50% {
        opacity: 0;
      }
      80% {
        opacity: 1;
      }
    }
  
    #cg5905 .cg-body {
      animation: cg-anim-hover 1.5s ease-in-out -0.2447s infinite;
      transform-origin: center;
      transform-box: fill-box;
    }

    @keyframes cg-anim-hover {
      0% {
        transform: translate3d(0,0,0);
      }
      50% {
        transform: translate3d(0,-2px,0);
      }
      100% {
        transform: translate3d(0,0,0);
      }
    }
  
    #cg5905 .cg-shadow {
      animation: cg-anim-shadow 1.5s ease-in-out -0.2447s infinite;
      transform-origin: center;
      transform-box: fill-box;
    }

    @keyframes cg-anim-shadow {
      0% {
        transform: scale3d(1,1,1);
      }
      50% {
        transform: scale3d(0.9,1,1);
      }
      100% {
        transform: scale3d(1,1,1);
      }
    }
  
      @keyframes cg-anim-rgb {
        0% {
          fill: #FF5F5F;
        }
        11.1111% {
          fill: #FFA45F;
        }
        22.2222% {
          fill: #BAFF5F;
        }
        33.3333% {
          fill: #5FFF74;
        }
        44.4444% {
          fill: #5FFFCE;
        }
        55.5555% {
          fill: #5FD9FF;
        }
        66.6666% {
          fill: #5F6AFF;
        }
        77.7777% {
          fill: #AA5FFF;
        }
        88.8888% {
          fill: #FF5FFA;
        }
        100% {
          fill: #FF5F5F;
        }
      }
    
      #cg5905 .wing-color {
        animation: cg-anim-rgb 10s linear -4.8928s infinite;
      }
    
      #cg5905 .rgb-hair {
        animation: cg-anim-rgb 6s linear -0.3242s infinite;
      }
    </style><path class="cg-bg" d="M0 0h89v89H0z" fill="#7850FF"></path><g id="ada-bag"><path opacity=".17" d="M81 74H58v1h24v-1h-1z" id="ada-bag-bottom-shadow"/><path d="M81 62v-1h-1v-1h-1v-2h-1v-1h-2v-1h-1v-1h-2v-2h1v-1h2v-3h-1v-1h-6v3h-1v2h-1v2h-2v1h-2v1h-2v1h-1v2h-1v2h-1v9h1v2h-1v1h24v-1h-1v-2h1v-9h-1z" id="ada-bag-bg"/><path fill="#FF8749" d="M62 58h1v-1h2v-1h2v-1h1v-2h1v-2h1v-2h5v2h-2v2h-1v2h1v1h2v1h1v1h2v2h1v1h1v1h1v9h-1v2H60v-2h-1v-9h1v-2h1v-2h1z" id="ada-bag-colour"/><g fill="#F9F871" id="ada-bag-symbol"><path d="M75 71h1v-2h-1v2zM75 67h1v-1h-2v-2h1v-1h-2v-3h-1v3h-4v-3h-1v3h-2v1h1v2h-2v1h1v2h1v-2h8v2h1v-2zm-3-1h-5v-2h6v2h-1zM71 59h1v1h-1zM64 70v1h1v-2h-1v1zM68 59h1v1h-1zM71 59v-1h-2v1h2z"/></g><path fill="#A16E85" d="M71 53h-1v-1h-1v1h-1v1h1v1h3v-2z" id="ada-bag-tie"/><g fill="#FFC86D" id="ada-bag-highlight"><path d="M69 69h1v1h-1zM61 67h1v1h-1zM77 70h1v1h-1zM78 67h1v1h-1zM77 62h1v1h-1zM62 61h1v1h-1zM65 58h1v1h-1zM68 55h1v1h-1zM73 57h1v1h-1z"/></g></g><path class="cg-shadow" opacity=".17" d="M60 79v-1H29v1h-2v1h3v1h29v-1h3v-1z"/><g class="cg-body"><g id="fluffy-wings"><g id="fluffy-wings-bg"><path d="M31 33v-2h-1v-1h-1v-1h-1v-1h-2v-1h-2v-1h-2v-1h-4v-1h-8v1H8v1H7v1H6v1H5v1H4v2H3v9h1v1h1v1h5v-1h2v-1h1v-1h2v1h1v1h5v-1h2v2h1v1h1v1h3v-1h1v-3h1v-2h1v-1h1v-4h-1zM58 33v-2h1v-1h1v-1h1v-1h2v-1h2v-1h2v-1h4v-1h8v1h2v1h1v1h1v1h1v1h1v2h1v9h-1v1h-1v1h-5v-1h-2v-1h-1v-1h-2v1h-1v1h-5v-1h-2v2h-1v1h-1v1h-3v-1h-1v-3h-1v-2h-1v-1h-1v-4h1z"/></g><g fill="#F13441" class="wing-color"><path d="M31 35v-2h-1v-2h-1v-1h-1v-1h-2v-1h-2v-1h-2v-1h-4v-1h-8v1H8v1H7v1H6v1H5v2H4v9h1v1h5v-1h2v-1h1v-4h1v3h1v1h1v1h5v-3h1v2h1v1h1v2h1v1h4v-3h1v-2h1v-1h1v-2h-1zM58 35v-2h1v-2h1v-1h1v-1h2v-1h2v-1h2v-1h4v-1h8v1h2v1h1v1h1v1h1v2h1v9h-1v1h-5v-1h-2v-1h-1v-4h-1v3h-1v1h-1v1h-5v-3h-1v2h-1v1h-1v2h-1v1h-4v-3h-1v-2h-1v-1h-1v-2h1z"/></g><g id="fluffy-wings-shadow" opacity=".2"><path d="M28 41h-2v-1h-1v-1h-1v-1h-1v-2h-1v1h-2v1h-4v-1h-1v-2h-2v2h-1v1h-1v1H6v-1H5v-1H4v3h1v1h5v-1h2v-1h1v-1h2v1h1v1h5v-1h2v1h1v2h1v1h4v-2h-1zM61 41h2v-1h1v-1h1v-1h1v-2h1v1h2v1h4v-1h1v-2h2v2h1v1h1v1h5v-1h1v-1h1v3h-1v1h-5v-1h-2v-1h-1v-1h-2v1h-1v1h-5v-1h-2v1h-1v2h-1v1h-4v-2h1z"/></g><g id="fluffy-wings-highlight" fill="#FFF"><path opacity=".38" d="M29 31h1v1h-1zM28 30h1v1h-1zM27 29h-1v1h2v-1h-1zM25 28h-1v1h2v-1h-1zM23 27h-1v1h2v-1h-1zM21 26h-3v1h4v-1h-1zM17 25h-7v1h8v-1h-1zM8 26v1h2v-1H8zM7 27h1v1H7zM6 28h1v1H6zM5 29h1v1H5z"/><path opacity=".87" d="M8 33v1h1v-2H8v1zM9 31h1v1H9z"/><g><path opacity=".38" d="M59 31h1v1h-1zM60 30h1v1h-1zM62 29h1v1h-2v-1h1zM64 28h1v1h-2v-1h1zM66 27h1v1h-2v-1h1zM68 26h3v1h-4v-1h1zM72 25h7v1h-8v-1h1zM81 26v1h-2v-1h2zM81 27h1v1h-1zM82 28h1v1h-1zM83 29h1v1h-1z"/><path opacity=".87" d="M81 33v1h-1v-2h1v1zM79 31h1v1h-1zM74 29v2h-2v-2h2z"/></g></g></g><path d="M63 47v-4h-1v-3h-1v-2h-1v-1h-1v-1h-1v-1h-1v-1h-1v-1h-1v-1h-2v-1h-2v-1H38v1h-2v1h-2v1h-1v1h-1v1h-1v1h-1v1h-1v1h-1v2h-1v3h-1v4h-1v13h1v3h1v3h1v1h1v1h1v1h2v1h2v-1h1v-1h1v-4h1v3h1v1h1v1h2v-1h1v-1h1v-4h1v-1h1v1h1v4h1v1h1v1h2v-1h1v-1h1v-3h1v4h1v1h1v1h2v-1h2v-1h1v-1h1v-1h1v-3h1v-3h1V47z"/><path class="cg-body-color" fill="#56E5B7" d="M62 47v-4h-1v-3h-1v-2h-1v-1h-1v-1h-1v-1h-1v-1h-1v-1h-2v-1h-2v-1H38v1h-2v1h-2v1h-1v1h-1v1h-1v1h-1v1h-1v2h-1v3h-1v4h-1v13h1v3h1v3h1v1h1v1h2v1h2v-1h1v-4h1v-1h1v1h1v3h1v1h2v-1h1v-4h1v-1h1v-1h1v1h1v1h1v4h1v1h2v-1h1v-3h1v-1h1v1h1v4h1v1h2v-1h2v-1h1v-1h1v-3h1v-3h1V47z"/><g class="cg-face"><path d="M39 36v1h-3v1h-1v1h-1v1h-1v2h-1v2h1v1h1v1h2v1h3v1h11v-1h3v-1h2v-1h1v-1h1v-2h-1v-2h-1v-1h-1v-1h-1v-1h-3v-1z"/><path fill="#FFF" d="M39 37v1h-3v1h-1v1h-1v2h-1v2h1v1h2v1h3v1h11v-1h3v-1h2v-1h1v-2h-1v-2h-1v-1h-1v-1h-3v-1z"/><g class="cg-eyes"><path d="M36 42h4v1h-1v2h-2v-2h-1zM49 42h4v1h-1v2h-2v-2h-1z"/></g><g class="cg-digits" style="display: none;"><g class="cg-digit-zero"><path d="M38 40h-2v5h3v-5h-1zm0 2v2h-1v-3h1v1z"/></g><g class="cg-digit-one"><path d="M39 44v1h-3v-1h1v-2h-1v-1h1v-1h1v4h1z"/></g><g class="cg-digit-two"><path d="M39 42h-1v-1h1v1zm-1 3h1v-1h-2v1h1zm0-3h-1v1h1v-1zm-1-2h-1v1h2v-1h-1zm-1 3v1h1v-1h-1z"/></g><g class="cg-digit-three"><path d="M38 44v-1h1v1h-1zm1-3h-1v1h1v-1zm-2 1v1h1v-1h-1zm0-2h-1v1h2v-1h-1zm-1 4v1h2v-1h-2z"/></g><g class="cg-digit-four"><path d="M39 41v4h-1v-2h-2v-3h1v2h1v-1h1z"/></g><g class="cg-digit-five"><path d="M38 44v-1h1v1h-1zm0-3h1v-1h-3v3h2v-1h-1v-1h1zm-2 3v1h2v-1h-2z"/></g><g class="cg-digit-six"><path d="M38 41h-1v-1h2v1h-1zm-2 0v3h1v-1h1v1h-1v1h2v-3h-2v-1h-1z"/></g><g class="cg-digit-seven"><path d="M39 40v5h-1v-4h-2v-1h3z"/></g><g class="cg-digit-eight"><path d="M38 40h-2v5h3v-5h-1zm0 4h-1v-1h1v1zm0-2h-1v-1h1v1z"/></g><g class="cg-digit-nine"><path d="M38 40h-2v3h2v2h1v-5h-1zm0 2h-1v-1h1v1z"/></g><g class="cg-digit-colon"><path d="M45 42h-1v-1h1v1zm0 1h-1v1h1v-1z"/></g></g><g class="cg-time"></g></g><g id="bandaid-confetti-skull"><g><g><path d="M46 59h13v-1h1v-1h1v-2h-1v-1h-1v-1H46v1h-1v1h-1v2h1v1h1v1zM59 44h-1v1h1v1h1v-1h1v-1h-1v-1h1v-1h-1v-1h-1v1h-1v1h1zM59 50v1h4v-1h1v-2h-1v-1h-4v1h-1v2zM25 52v2h1v1h2v-1h1v-1h1v1h1v1h1v1h2v-1h1v-3h-1v-1h-1v-1h1v-1h1v-2h-1v-1h-2v1h-1v1h-1v-1h-1v-1h-1v-1h-3v4h1v1h1v1h-1v1h-1z"/></g><path d="M55 48h-2v1h-1v2h1v1h2v-1h1v-2h-1zM40 58h-2v1h-1v2h1v1h2v-1h1v-2h-1zM41 49h-4v1h-1v4h1v1h1v-1h1v1h1v-1h1v1h1v-1h1v-4h-2zM38 55h1v1h-1zM40 55h1v1h-1zM34 59v-1h-1v-1h-5v1h-1v1h-1v4h1v2h1v1h1v-1h1v1h1v-1h1v1h1v-1h1v-2h1v-4z"/></g><g><g><path fill="#7C3BE2" d="M26 52v2h2v-1h1v-1h-1v-1h-1v1h-1z"/><path fill="#3EFFFF" d="M26 46v3h1v1h1v-1h1v-2h-1v-1h-2z"/><path fill="#92FFFC" d="M28 50v1h1v1h1v-1h1v-2h-2v1h-1z"/><path fill="#3EFFFF" d="M30 52v1h1v1h1v1h2v-3h-1v-1h-2v1h-1z"/><path fill="#7C3BE2" d="M31 48v1h1v1h1v-1h1v-2h-2v1h-1z"/><path fill="#666" d="M45 55v2h1v1h3v-4h-3v1h-1z"/><path d="M45 50v1h1v1h1v-1h1v1h1v-1h1v-1h-1v-1h-1v1h-1v-1h-1v1z"/><path fill="#969696" d="M50 54v4h5v-4h-5z"/><path d="M56 65v1h1v1h1v-1h1v-1h-1v-1h1v-1h-1v-1h-1v1h-1v1h1v1z"/><path fill="#666" d="M56 54v4h3v-1h1v-2h-1v-1h-3z"/><path fill="#66FF8A" d="M59 48h4v2h-4z"/></g><g><path fill="#FF5" d="M53 49h2v2h-2z"/></g><g><path fill="#FCA342" d="M38 59h2v2h-2z"/></g><path fill="#F66" d="M41 51v-1h-4v4h1v1h1v-1h1v1h1v-1h1v-3h-1zm-3 2v-2h1v2h-1zm3 0h-1v-1h1v1z"/><path fill="#5C5CFF" d="M33 59v-1h-5v1h-1v4h1v2h1v-1h1v1h1v-1h1v1h1v-2h1v-4h-1zm-4 2v-1h1v2h-1v-1zm4 0v1h-1v-2h1v1z"/></g><g opacity=".25"><path d="M45 57h1v-2h-1v2zM46 57v1h3v-1h-3zM56 57v1h3v-1h-3zM32 54h1v1h-1zM32 47h1v1h-1zM31 53h1v1h-1zM31 48h1v1h-1zM30 52h1v1h-1zM27 51h1v1h-1zM27 49h1v1h-1zM26 53v1h1v-2h-1zM59 49h4v1h-4zM28 50h1v1h-1zM29 51h1v1h-1zM53 55h1v1h-1zM51 56h1v1h-1zM27 46h-1v3h1v-1zM53 50h2v1h-2zM38 60h2v1h-2zM37 50h1v4h-1zM38 54h1v1h-1zM40 54h1v1h-1zM27 59h1v4h-1zM28 63h1v2h-1zM30 64h1v1h-1zM32 64h1v1h-1zM28 58h1v1h-1z"/></g></g><g id="shotgun"><path d="M72 65H62v1h-1v1h-1v1h-1v1h-2v1h-1v-1h-2v-1h-1v-3H36v3h-1v1h-5v-1h-1v-1h-1v-1h-1v-1h-7v1h-1v1h-1v3h1v1h1v2h-1v2h-1v3h4v-1h1v-3h1v-2h4v-1h-1v-1h1v1h1v-1h12v1h6v1h11v-1h2v1h7v-1h1v-2h-2v-1h7v-3h-1zm-46 6h-1v-1h1v1zm37-2h-2v-1h2v1zm2 0h-1v-1h1v1z"/><g><path fill="#BF6E37" d="M59 70h1v-2h-1v1h-2v1h-2v-1h-1v-1h-7v1h1v2h10v-1z"/><path fill="#6D6D6D" d="M61 67h11v-1H61zM52 66H42v1h11v-1z"/><path fill="#6D3A17" d="M29 68v-1h-1v-1h-5v1h1v1h1v1h5v-1zM36 68h-1v1h5v-1h1v-2h-5v1z"/><path fill="#4F4F4F" d="M60 70v1h7v-1h-6zM46 69v-1h-5v2h6v-1zM19 75v2h3v-3h1v-2h1v-1h-3v2h-1v2z"/><path fill="#6D6D6D" d="M19 68v2h5v-2h-1v-1h-1v-1h-2v1h-1z"/><path opacity=".39" d="M49 69h1v2h-1zM51 69h1v2h-1zM53 69h1v2h-1zM55 69h1v2h-1zM57 69h1v2h-1z"/><path opacity=".17" d="M23 66h5v1h-5zM36 66h5v1h-5zM41 68h5v1h-5zM20 66h2v1h-2zM21 71h3v1h-3z"/></g></g><g class="cg-glasses" id="nerdy-glasses"><g><path d="M61 42h-2v1h3v-1h-1zM58 41h-1v-1h-1v7h1v-5h2v-1h-1zM55 47h1v1h-1zM55 39h1v1h-1zM55 39v-1h-7v1h7zM48 48v1h7v-1h-7zM47 47h1v1h-1zM47 39h1v1h-1zM42 47h1v-7h-1v7zM47 40h-1v7h1v-7zM43 39v1h3v-1h-3zM41 47h1v1h-1zM41 39h1v1h-1zM41 39v-1h-7v1h7zM34 48v1h7v-1h-7zM33 47h1v1h-1zM33 39h1v1h-1zM33 40h-1v1h-2v1h2v5h1v-7zM27 42v1h3v-1h-3z"/></g><path opacity=".43" fill="#0FF" d="M41 40h1v7h-1v1h-7v-1h-1v-7h1v-1h7v1zm14 0v-1h-7v1h-1v7h1v1h7v-1h1v-7h-1z"/></g><g id="super-hair"><path d="M64 20v1h-1v1h-1v-1h-1v-7h-1v-1h-1v1h-1v1h-1v1h-2v1h-1v1h-2v-2h-1v-1h-1v-1h-1v-1h-1v-2h-1v-1h-1V9h-1V8h-1v5h-1v2h-1v-1h-1v-1h-1v-1h-1v-1h-1v-1h-2V9h-1v3h-1v3h-1v3h-1v1h-1v1h-1v1h-1v-1h-1v-1h-1v-1h-1v1h-1v4h-1v4h1v4h1v1h-1v-1h-1v-1h-1v6h1v1h1v1h2v1h2v-1h1v-1h1v-1h1v-1h1v-1h2v1h1v1h1v-1h1v-1h1v-1h1v-1h1v-1h1v-1h1v1h8v3h1v2h1v1h1v-1h1v-1h2v1h1v1h1v1h2v-1h1v-2h1v-2h1v-3h1V20z"/><g class="rgb-hair" fill="#44ABEA"><path d="M24 34v-2h1v1h2v1h1v2h1v-2h-1v-1h-1v-2h-1v-4h-1v-4h1v-4h1v1h1v1h1v1h1v1h1v2h-1v1h-1v1h-1v1h1v1h5v1h1v2h-1v1h-1v1h-1v1h-1v1h-1v1h-1v1h-2v-1h-2v-1h-1v-1zM55 34v1h-1v1h-1v-2h-1v-3h-1v-1h-3v-3h-1v-3h3v1h2v1h2v1h1v1h1v1h1v3h-1v2z"/><path d="M55 17h2v-1h1v-1h1v-1h1v7h1v5h1v-3h1v-1h1v8h-1v3h-1v2h-1v2h-2v-1h-1v-1h-1v-3h1v-3h-1v-1h-1v-1h-1v-1h-1v-5h-1v-2h1v-1h1zM53 24v1h-1v-1h-2v-1h-3v1h-1v1h-1v-1h-2v1h-1v1h-1v1h1v-1h1v-1h2v1h1v1h1v3h-4v-1h2v-1h-2v1h-1v1h-1v1h-1v1h-1v1h-1v1h-1v1h-1v-1h-1v-2h1v-4h1v-2h1v-1h1v-1h-1v1h-1v1h-1v2h-1v1h-1v-1h-5v-1h1v-1h1v-1h2v-1h2v-1h3v-1h-3v1h-2v1h-2v-2h-1v-1h1v-1h1v-1h1v-1h1v-3h1v-3h1v-1h2v1h1v1h1v1h1v1h1v1h1v1h1v2h1v2h1v-2h-1v-2h-1v-1h-1v-1h1v-2h1v-3h1v1h1v2h1v1h1v1h1v1h1v2h1v4h1v1z"/></g><g opacity=".17"><path d="M28 28h1v1h-1zM63 22h1v1h-1zM62 24v2h1v-3h-1v1zM61 27v2h1v-3h-1v1zM59 14h1v1h-1zM58 15h1v1h-1zM57 16h1v1h-1zM55 17v1h2v-1h-2zM54 23v3h1v-5h-1v2zM54 18h1v1h-1zM53 20v1h1v-2h-1v1zM48 28v2h1v-3h-1v1zM48 25v-1h-1v3h1v-2zM45 24h1v1h-1zM45 11v2h1v-3h-1v1zM44 14v1h-1v1h1v1h1v-4h-1v1zM43 29v1h2v-1h-2zM34 31v1h1v-2h-1v1zM33 29h-4v1h5v-1h-1zM31 23h1v-2h1v-2h-1v1h-1v1h-1v1h1v1zM28 33h1v1h-1zM27 37h1v1h-1zM28 31h-1v2h1v-2zM26 36h-1v1h2v-1h-1zM27 29v-2h-1v4h1v-2zM27 22v-3h-1v4h1v-1zM26 25v-2h-1v4h1v-2zM25 34v-2h-1v4h1v-2z"/></g></g><g id="deal-with-it-glasses"><path d="M64 42h-3v1h4v-1zM60 41H28v1h1v2h1v2h1v2h1v1h9v-1h1v-2h1v-2h1v-2h1v2h1v2h1v2h1v1h9v-1h1v-2h1v-2h1v-2h1v-1z"/><path fill="#FFF" d="M33 45v1h-1v-2h1v1zm0 2h1v-1h-1v1zm2-3h-1v2h1v-2zm0 3h1v-1h-1v1zm-1-4h-1v1h1v-1zm-3 0v1h1v-1h-1zm18 1h-1v2h1v-2zm0 3h1v-1h-1v1zm2-3h-1v2h1v-2zm0 2v1h1v-1h-1zm-1-3h-1v1h1v-1zm-3 0v1h1v-1h-1z"/></g></g><a href="/images/png/cg5905-512.png" class="button png-square"><path class="button-bg" d="M26 75h13v11H26z"/><path fill="#FFF" d="M36 77h-1v1h1v5h-1v1h2v-7zm-8 0v7h2v-1h-1v-5h1v-1h-1zm6 3h1v1h-1zm-4 0h1v1h-1zm3 0v-2h-1v3h-1v1h1v1h1v-1h1v-1h-1z"/><title>Download square PNG</title></a><a href="/images/png/cg5905-wide.png" class="button png-wide"><path class="button-bg" d="M42 75h21v11H42z"/><path fill="#FFF" d="M60 77h-1v1h1v5h-1v1h2v-7zm-16 0v7h2v-1h-1v-5h1v-1h-1zm10 3h1v1h-1zm-4 0h1v1h-1zm3 0v-2h-1v3h-1v1h1v1h1v-1h1v-1h-1z"/><title>Download wide PNG</title></a><script type="text/javascript"><![CDATA[
    let cg5905Root = document.getElementById('cg5905');

    if (cg5905Root) {
      let cgRoot = cg5905Root;
      let cgBg = cgRoot.querySelector('.cg-bg');
      let cgBody = cgRoot.querySelector('.cg-body');

      cgBg.addEventListener('dblclick', () => {
        cgRoot.classList.toggle('menu-in');
      });

      cgBody.addEventListener('click', () => {

        let bufferArray = [];
        let lastKeystrokeTime = Date.now();
        const cheatcode = (e) => {

          const key = e.key.toLowerCase();
          const latestKeystrokeTime = Date.now();

          if (latestKeystrokeTime - lastKeystrokeTime > 1500) {
            bufferArray = [];
          }

          bufferArray.push(key);

          const word = bufferArray.join('');
          if (word === 'dealwithit') {
            console.log('No u.');

            cgRoot.classList.add('deal-with-it');

            setTimeout(() => {
              cgRoot.classList.remove('deal-with-it');
            }, 10000);

            clearListener();
          }
  
          lastKeystrokeTime = latestKeystrokeTime;

        }
        document.addEventListener('keyup', cheatcode, true);

        const clearListener = () => {
          document.removeEventListener('keyup', cheatcode, true);
        }

      });
    
    let cgDigits = cgRoot.querySelector('.cg-digits');
    let cgTime = cgRoot.querySelector('.cg-time');
  

      let cgGlasses = cgRoot.querySelector('.cg-glasses');
      cgGlasses.addEventListener('dblclick', () => {
        cgRoot.classList.add('get-time');

        let now = new Date();
        let hours = ('0' + now.getHours()).substr(-2);
        let minutes = ('0' + now.getMinutes()).substr(-2);;
        let digits = [hours.substr(0,1), hours.substr(1), minutes.substr(0,1), minutes.substr(1)];

        cgTime.replaceChildren();

        for (let i = 0; i < 4; i++) {
          switch (digits[i]) {
            case '0':
              cgTime.appendChild(cgDigits.querySelector('.cg-digit-zero').cloneNode(true));
              break;
            case '1':
              cgTime.appendChild(cgDigits.querySelector('.cg-digit-one').cloneNode(true));
              break;
            case '2':
              cgTime.appendChild(cgDigits.querySelector('.cg-digit-two').cloneNode(true));
              break;
            case '3':
              cgTime.appendChild(cgDigits.querySelector('.cg-digit-three').cloneNode(true));
              break;
            case '4':
              cgTime.appendChild(cgDigits.querySelector('.cg-digit-four').cloneNode(true));
              break;
            case '5':
              cgTime.appendChild(cgDigits.querySelector('.cg-digit-five').cloneNode(true));
              break;
            case '6':
              cgTime.appendChild(cgDigits.querySelector('.cg-digit-six').cloneNode(true));
              break;
            case '7':
              cgTime.appendChild(cgDigits.querySelector('.cg-digit-seven').cloneNode(true));
              break;
            case '8':
              cgTime.appendChild(cgDigits.querySelector('.cg-digit-eight').cloneNode(true));
              break;
            case '9':
              cgTime.appendChild(cgDigits.querySelector('.cg-digit-nine').cloneNode(true));
              break;
          }
        }

        cgTime.childNodes[1].style.transform = 'translateX(4px)';
        cgTime.childNodes[2].style.transform = 'translateX(10px)';
        cgTime.childNodes[3].style.transform = 'translateX(14px)';

        cgTime.appendChild(cgDigits.querySelector('.cg-digit-colon').cloneNode(true));

        setTimeout(() => {
          cgRoot.classList.remove('get-time');
        }, 10000);
      });

    }]]></script></svg>