<svg id="cg6030" xmlns="http://www.w3.org/2000/svg" viewBox="0 0 89 89"><style>
    #cg6030 {
      overflow: hidden;
    }

    #cg6030 .button {
      opacity: 0;
      pointer-events: none;
      transition: 0.2s ease;
      transform: translate3d(0, 20px, 0);
    }

    #cg6030 .button.png-wide {
      transition-delay: 0.2s;
    }

    #cg6030.menu-in .button {
      opacity: 1;
      pointer-events: auto;
      cursor: pointer;
      transform: translate3d(0, 0, 0);
    }

    #cg6030.menu-in .button .button-bg {
      transition: fill 0.2s ease;
    }

    #cg6030.menu-in .button:hover .button-bg {
      fill: #FF5FFA;
    }

    #cg6030 .cg-glasses {
      transition: opacity 0.2s ease;
    }

    #cg6030 #deal-with-it-glasses {
      opacity: 0;
      pointer-events: none;
      transition: opacity 0.2s ease, transform 3s linear;
      transform: translate3d(0, -60px, 0);
    }

    #cg6030.deal-with-it #deal-with-it-glasses {
      opacity: 1;
      transform: translate3d(0, 0, 0);
    }

    #cg6030.deal-with-it .cg-glasses {
      opacity: 0;
      transition-delay: 2s;
    }

  
    #cg6030 .cg-eyes {
      transition: opacity 0.2s ease;
    }

    #cg6030.get-time .cg-eyes {
      opacity: 0;
    }
  
    #cg6030 .cg-time {
      pointer-events: none;
      transition: opacity 0.2s ease;
      opacity: 0;
    }

    #cg6030.get-time .cg-time {
      opacity: 1;
    }

    #cg6030 .cg-time .cg-digit-colon {
      animation: cg-colon-blink 1s ease-in-out 0s infinite;
    }

    @keyframes cg-colon-blink {
      20% {
        opacity: 1;
      }
      50% {
        opacity: 0;
      }
      80% {
        opacity: 1;
      }
    }
  
    #cg6030 .cg-body {
      animation: cg-anim-hover 1.5s ease-in-out -0.0432s infinite;
      transform-origin: center;
      transform-box: fill-box;
    }

    @keyframes cg-anim-hover {
      0% {
        transform: translate3d(0,0,0);
      }
      50% {
        transform: translate3d(0,-2px,0);
      }
      100% {
        transform: translate3d(0,0,0);
      }
    }
  
    #cg6030 .cg-shadow {
      animation: cg-anim-shadow 1.5s ease-in-out -0.0432s infinite;
      transform-origin: center;
      transform-box: fill-box;
    }

    @keyframes cg-anim-shadow {
      0% {
        transform: scale3d(1,1,1);
      }
      50% {
        transform: scale3d(0.9,1,1);
      }
      100% {
        transform: scale3d(1,1,1);
      }
    }
  
      @keyframes cg-anim-rgb {
        0% {
          fill: #FF5F5F;
        }
        11.1111% {
          fill: #FFA45F;
        }
        22.2222% {
          fill: #BAFF5F;
        }
        33.3333% {
          fill: #5FFF74;
        }
        44.4444% {
          fill: #5FFFCE;
        }
        55.5555% {
          fill: #5FD9FF;
        }
        66.6666% {
          fill: #5F6AFF;
        }
        77.7777% {
          fill: #AA5FFF;
        }
        88.8888% {
          fill: #FF5FFA;
        }
        100% {
          fill: #FF5F5F;
        }
      }
    
      #cg6030 .wing-color {
        animation: cg-anim-rgb 6.5s linear -2.7991s infinite;
      }
    
      #cg6030 .candle-wick {
        animation: cg-anim-wick 1s steps(1) -0.1172s infinite;
        transform-origin: center;
        transform-box: fill-box;
      }

      @keyframes cg-anim-wick {
        0% {
          transform: scaleX(1);
        }
        50% {
          transform: scaleX(-1);
        }
        100% {
          transform: scaleX(1);
        }
      }
    </style><path class="cg-bg" d="M0 0h89v89H0z" fill="#FFF75F"></path><g id="cake"><path d="M69 48v7h-5v1h-3v1h-2v1h-1v13h1v1h3v1h3v1h11v-1h3v-1h3v-1h1V58h-1v-1h-2v-1h-3v-1h-5v-7h-3z"/><path fill="#56E5B7" d="M70 53v-1h1v1h-1z"/><path fill="#FFC692" d="M70 52v-1h1v1h-1z"/><path fill="#F98CC5" d="M70 51v-1h1v1h-1z"/><path fill="#B5A6FF" d="M70 50v-1h1v1h-1z"/><path fill="#56E5B7" d="M70 57v-1h1v1h-1z"/><path fill="#FFC692" d="M70 56v-1h1v1h-1z"/><path fill="#F98CC5" d="M70 55v-1h1v1h-1z"/><path fill="#B5A6FF" d="M70 54v-1h1v1h-1z"/><path fill="#FFF" d="M63 70v-1h-3v-1h-1v-2h1v-1h1v-2h1v4h1v1h1v-1h1v-2h1v1h1v1h1v-1h1v-2h1v5h1v1h1v-1h1v-4h1v2h1v1h1v1h1v-1h1v-5h1v1h1v1h1v-1h1v4h-1v1h-3v1h-3v1h-9v-1h-3z"/><path fill="#FFA255" d="M78 70h3v-1h1v2h-3v1h-3v1H65v-1h-3v-1h-3v-2h1v1h3v1h3v1h9v-1h3v-1z"/><path fill="#30EFE9" d="M77 61H64v-1h-3v-1h-1v1h1v1h3v1h13v-1h3v-1h1v-1h-1v1h-3v1z"/><path fill="#30EFE9" d="M82 58v5h-1v1h-1v-1h-1v-1h-1v1h-1v5h-1v-1h-1v-2h-1v-1h-1v1h-1v4h-1v-5h-1v-1h-1v1h-1v2h-1v-1h-1v-1h-1v1h-1v2h-1v-4h-1v-1h-1v1h-1v2h-1v-7h2v-1h3v-1h5v2h3v-2h5v1h3v1h2z"/><path fill="#FFF" d="M81 60h-1v-1h1v1zm-1 1v-1h-3v1h3zm-3 1v-1H64v1h13zm-13-1v-1h-3v1h3zm-3-2h-1v1h1v-1z"/><g class="candle-wick"><path d="M71 49v-2h1v-1h1v-4h-1v-2h-1v1h-1v1h-1v1h-1v3h1v1h1v2h1z"/><path fill="#FFF155" d="M69 46v-3h1v-1h2v4h-1v1h-1v-1h-1z"/><path fill="#FFF" d="M71 42h1v4h-1zm-1 4h1v1h-1z" opacity=".41"/></g></g><path class="cg-shadow" opacity=".17" d="M60 79v-1H29v1h-2v1h3v1h29v-1h3v-1z"/><g class="cg-body"><g id="butterfly-wings"><path d="M79 37v-1h-1v-1h-2v-1h-3v-1H62v1h-4v1h-2v1h-1v1h-1v16h1v3h1v2h1v2h1v1h1v1h1v1h1v1h3v1h1v1h4v-1h2v-1h1v-1h1v-7h-1v-2h-1v-1h-1v-1h-1v-1h-1v-1h1v1h3v-1h1v-1h1v-1h1v-1h1v-3h1v-1h1v-1h1v-1h1v-4z"/><path class="wing-color" fill="#3FF" d="M61 35h1v-1h11v1h3v1h2v1h1v4h-1v1h-1v1h-1v1h-1v3h-1v1h-1v1h-1v1h-3v-1h-1v1h-1v1h1v1h1v1h1v1h1v2h1v7h-1v1h-2v1h-4v-1h-1v-1h-2v-1h-1v-1h-1v-1h-1v-1h-1v-2h-1v-2h-1v-3h-1V37h1v-1h2v-1h2z"/><path d="M34 37v-1h-1v-1h-2v-1h-4v-1H16v1h-3v1h-2v1h-1v1H9v4h1v1h1v1h1v1h1v3h1v1h1v1h1v1h1v1h3v-1h1v1h-1v1h-1v1h-1v1h-1v2h-1v7h1v1h1v1h2v1h4v-1h1v-1h3v-1h1v-1h1v-1h1v-1h1v-2h1v-2h1v-3h1V37z"/><path class="wing-color" fill="#3FF" d="M28 35h-1v-1H16v1h-3v1h-2v1h-1v4h1v1h1v1h1v1h1v3h1v1h1v1h1v1h3v-1h1v1h1v1h-1v1h-1v1h-1v1h-1v2h-1v7h1v1h2v1h4v-1h1v-1h2v-1h1v-1h1v-1h1v-1h1v-2h1v-2h1v-3h1V37h-1v-1h-2v-1h-2z"/></g><path d="M63 47v-4h-1v-3h-1v-2h-1v-1h-1v-1h-1v-1h-1v-1h-1v-1h-1v-1h-2v-1h-2v-1H38v1h-2v1h-2v1h-1v1h-1v1h-1v1h-1v1h-1v1h-1v2h-1v3h-1v4h-1v13h1v3h1v3h1v1h1v1h1v1h2v1h2v-1h1v-1h1v-4h1v3h1v1h1v1h2v-1h1v-1h1v-4h1v-1h1v1h1v4h1v1h1v1h2v-1h1v-1h1v-3h1v4h1v1h1v1h2v-1h2v-1h1v-1h1v-1h1v-3h1v-3h1V47z"/><path class="cg-body-color" fill="#33FFFF" d="M62 47v-4h-1v-3h-1v-2h-1v-1h-1v-1h-1v-1h-1v-1h-1v-1h-2v-1h-2v-1H38v1h-2v1h-2v1h-1v1h-1v1h-1v1h-1v1h-1v2h-1v3h-1v4h-1v13h1v3h1v3h1v1h1v1h2v1h2v-1h1v-4h1v-1h1v1h1v3h1v1h2v-1h1v-4h1v-1h1v-1h1v1h1v1h1v4h1v1h2v-1h1v-3h1v-1h1v1h1v4h1v1h2v-1h2v-1h1v-1h1v-3h1v-3h1V47z"/><g class="cg-face"><path d="M39 36v1h-3v1h-1v1h-1v1h-1v2h-1v2h1v1h1v1h2v1h3v1h11v-1h3v-1h2v-1h1v-1h1v-2h-1v-2h-1v-1h-1v-1h-1v-1h-3v-1z"/><path fill="#FFF" d="M39 37v1h-3v1h-1v1h-1v2h-1v2h1v1h2v1h3v1h11v-1h3v-1h2v-1h1v-2h-1v-2h-1v-1h-1v-1h-3v-1z"/><g class="cg-eyes"><path d="M36 42h1v1h2v1h1v1h-3v-1h-1zM53 42h-1v1h-2v1h-1v1h3v-1h1z"/></g><g class="cg-digits" style="display: none;"><g class="cg-digit-zero"><path d="M38 40h-2v5h3v-5h-1zm0 2v2h-1v-3h1v1z"/></g><g class="cg-digit-one"><path d="M39 44v1h-3v-1h1v-2h-1v-1h1v-1h1v4h1z"/></g><g class="cg-digit-two"><path d="M39 42h-1v-1h1v1zm-1 3h1v-1h-2v1h1zm0-3h-1v1h1v-1zm-1-2h-1v1h2v-1h-1zm-1 3v1h1v-1h-1z"/></g><g class="cg-digit-three"><path d="M38 44v-1h1v1h-1zm1-3h-1v1h1v-1zm-2 1v1h1v-1h-1zm0-2h-1v1h2v-1h-1zm-1 4v1h2v-1h-2z"/></g><g class="cg-digit-four"><path d="M39 41v4h-1v-2h-2v-3h1v2h1v-1h1z"/></g><g class="cg-digit-five"><path d="M38 44v-1h1v1h-1zm0-3h1v-1h-3v3h2v-1h-1v-1h1zm-2 3v1h2v-1h-2z"/></g><g class="cg-digit-six"><path d="M38 41h-1v-1h2v1h-1zm-2 0v3h1v-1h1v1h-1v1h2v-3h-2v-1h-1z"/></g><g class="cg-digit-seven"><path d="M39 40v5h-1v-4h-2v-1h3z"/></g><g class="cg-digit-eight"><path d="M38 40h-2v5h3v-5h-1zm0 4h-1v-1h1v1zm0-2h-1v-1h1v1z"/></g><g class="cg-digit-nine"><path d="M38 40h-2v3h2v2h1v-5h-1zm0 2h-1v-1h1v1z"/></g><g class="cg-digit-colon"><path d="M45 42h-1v-1h1v1zm0 1h-1v1h1v-1z"/></g></g><g class="cg-time"></g></g><g id="explorer"><path d="M61 35v-3h-1v-1h-1v-1h-1v-4h-1v-1h-1v-2h1v-2h1v-5h-4v1h-2v1h-1v1h-3v-1H38v1h-2v1h-1v-1h-1v-1h-2v-1h-4v5h1v2h1v8h-1v3h-1v1h-1v4h4v-1h2v-1h2v-1h1v-1h3v-1h13v1h3v1h2v1h2v1h1v1h2v-4h-1v-1z"/><g fill="#6FB559"><path d="M34 25v-1h1v-1h6v1h1v1h2v1h1v-1h2v1h1v-1h1v-1h1v-1h3v-1h-1v-1h-2v-1h-2v-1H38v1h-2v1h-1v1h-1v1h-1v1h-1v1h2zM31 25h1v5h-1zM60 36h-2v-1h-1v-1h-1v-1h-5v-1h-1v-1h-1v-1h-1v-1h-1v1h-2v-1h-1v1h-1v1h-1v1h-1v1h-7v1h-1v1h-1v1h-1v1h-2v-1h-1v3h3v-1h2v-1h2v-1h1v-1h3v-1h13v1h3v1h2v1h2v1h1v1h1v-3h-1z"/></g><g fill="#5ADBF9"><path d="M40 26h-4v1h-1v3h5v-1h1v-2h-1zM53 27v-1h-2v2h1v2h3v-3z"/></g><g fill="#D32F3C"><path d="M42 25h-1v-1h-6v1h-1v1h-1v5h1v1h7v-1h1v-1h1v-4h-1v-1zm0 2v2h-1v1h-1v1h-5v-1h-1v-3h1v-1h1v-1h4v1h1v1h1zM57 31v-5h-1v-1h-2v-1h-4v1h-1v4h1v2h1v1h5v-1h1zm-5 0v-1h-1v-2h-1v-2h1v-1h2v1h2v1h1v3h-1v1h-3zM47 26h-2v1h-1v1h1v1h2v-1h1v-1h-1z"/><path d="M33 31h-2v1h-1v4h1v-1h1v-1h1v-1h1v-1h-1v-1zM59 32v-1h-1v1h-2v1h1v1h1v1h2v-3h-1z"/></g><g opacity=".7" fill="#FFF"><path d="M38 26v1h-1v1h-1v1h-1v1h2v-1h1v-1h1v-1h1v-1h-2zM54 29v-1h-1v-1h-1v-1h-1v2h1v1h1v1h2v-1h-1z"/></g><g fill="#72593B"><path d="M34 19h-2v-1h-3v4h1v2h2v-1h1v-1h1v-1h1v-1h-1v-1zM54 17v1h-2v1h-1v1h1v1h1v1h1v2h1v-1h1v-2h1v-4h-3z"/></g><g fill="#C9A171"><path d="M32 20v-1h-2v3h1v2h1v-1h1v-1h1v-2h-1zM54 18v1h-2v2h1v1h1v1h1v-1h1v-4z"/></g><g opacity=".3"><path d="M31 25h1v5h-1zM34 25v-1h1v-2h-1v1h-1v1h-1v1h2zM35 21h1v1h-1zM36 20h2v1h-2zM58 36v-1h-1v-1h-1v-1h-5v-1h-1v-1h-1v-1h-1v-1h-1v1h-2v-1h-1v1h-1v1h-1v1h-1v1h-7v1h-1v1h-1v1h-1v1h-2v-1h-1v3h3v-1h2v-1h2v-1h1v-1h3v-1h13v1h3v1h2v1h2v1h1v1h1v-3h-3z"/></g><g opacity=".17"><path d="M34 19h-2v-1h-3v1h1v1h1v1h2v1h1v-1h1v-1h-1zM54 17v1h-2v1h-1v1h1v1h1v-1h2v-1h1v-1h1v-1z"/></g></g><g id="deal-with-it-glasses"><path d="M64 42h-3v1h4v-1zM60 41H28v1h1v2h1v2h1v2h1v1h9v-1h1v-2h1v-2h1v-2h1v2h1v2h1v2h1v1h9v-1h1v-2h1v-2h1v-2h1v-1z"/><path fill="#FFF" d="M33 45v1h-1v-2h1v1zm0 2h1v-1h-1v1zm2-3h-1v2h1v-2zm0 3h1v-1h-1v1zm-1-4h-1v1h1v-1zm-3 0v1h1v-1h-1zm18 1h-1v2h1v-2zm0 3h1v-1h-1v1zm2-3h-1v2h1v-2zm0 2v1h1v-1h-1zm-1-3h-1v1h1v-1zm-3 0v1h1v-1h-1z"/></g></g><a href="/images/png/cg6030-512.png" class="button png-square"><path class="button-bg" d="M26 75h13v11H26z"/><path fill="#FFF" d="M36 77h-1v1h1v5h-1v1h2v-7zm-8 0v7h2v-1h-1v-5h1v-1h-1zm6 3h1v1h-1zm-4 0h1v1h-1zm3 0v-2h-1v3h-1v1h1v1h1v-1h1v-1h-1z"/><title>Download square PNG</title></a><a href="/images/png/cg6030-wide.png" class="button png-wide"><path class="button-bg" d="M42 75h21v11H42z"/><path fill="#FFF" d="M60 77h-1v1h1v5h-1v1h2v-7zm-16 0v7h2v-1h-1v-5h1v-1h-1zm10 3h1v1h-1zm-4 0h1v1h-1zm3 0v-2h-1v3h-1v1h1v1h1v-1h1v-1h-1z"/><title>Download wide PNG</title></a><script type="text/javascript"><![CDATA[
    let cg6030Root = document.getElementById('cg6030');

    if (cg6030Root) {
      let cgRoot = cg6030Root;
      let cgBg = cgRoot.querySelector('.cg-bg');
      let cgBody = cgRoot.querySelector('.cg-body');

      cgBg.addEventListener('dblclick', () => {
        cgRoot.classList.toggle('menu-in');
      });

      cgBody.addEventListener('click', () => {

        let bufferArray = [];
        let lastKeystrokeTime = Date.now();
        const cheatcode = (e) => {

          const key = e.key.toLowerCase();
          const latestKeystrokeTime = Date.now();

          if (latestKeystrokeTime - lastKeystrokeTime > 1500) {
            bufferArray = [];
          }

          bufferArray.push(key);

          const word = bufferArray.join('');
          if (word === 'dealwithit') {
            console.log('No u.');

            cgRoot.classList.add('deal-with-it');

            setTimeout(() => {
              cgRoot.classList.remove('deal-with-it');
            }, 10000);

            clearListener();
          }
  
          lastKeystrokeTime = latestKeystrokeTime;

        }
        document.addEventListener('keyup', cheatcode, true);

        const clearListener = () => {
          document.removeEventListener('keyup', cheatcode, true);
        }

      });
    
    let cgDigits = cgRoot.querySelector('.cg-digits');
    let cgTime = cgRoot.querySelector('.cg-time');
  

      let cgFace = cgRoot.querySelector('.cg-face');
      cgFace.addEventListener('dblclick', () => {
        cgRoot.classList.add('get-time');

        let now = new Date();
        let hours = ('0' + now.getHours()).substr(-2);
        let minutes = ('0' + now.getMinutes()).substr(-2);;
        let digits = [hours.substr(0,1), hours.substr(1), minutes.substr(0,1), minutes.substr(1)];

        cgTime.replaceChildren();

        for (let i = 0; i < 4; i++) {
          switch (digits[i]) {
            case '0':
              cgTime.appendChild(cgDigits.querySelector('.cg-digit-zero').cloneNode(true));
              break;
            case '1':
              cgTime.appendChild(cgDigits.querySelector('.cg-digit-one').cloneNode(true));
              break;
            case '2':
              cgTime.appendChild(cgDigits.querySelector('.cg-digit-two').cloneNode(true));
              break;
            case '3':
              cgTime.appendChild(cgDigits.querySelector('.cg-digit-three').cloneNode(true));
              break;
            case '4':
              cgTime.appendChild(cgDigits.querySelector('.cg-digit-four').cloneNode(true));
              break;
            case '5':
              cgTime.appendChild(cgDigits.querySelector('.cg-digit-five').cloneNode(true));
              break;
            case '6':
              cgTime.appendChild(cgDigits.querySelector('.cg-digit-six').cloneNode(true));
              break;
            case '7':
              cgTime.appendChild(cgDigits.querySelector('.cg-digit-seven').cloneNode(true));
              break;
            case '8':
              cgTime.appendChild(cgDigits.querySelector('.cg-digit-eight').cloneNode(true));
              break;
            case '9':
              cgTime.appendChild(cgDigits.querySelector('.cg-digit-nine').cloneNode(true));
              break;
          }
        }

        cgTime.childNodes[1].style.transform = 'translateX(4px)';
        cgTime.childNodes[2].style.transform = 'translateX(10px)';
        cgTime.childNodes[3].style.transform = 'translateX(14px)';

        cgTime.appendChild(cgDigits.querySelector('.cg-digit-colon').cloneNode(true));

        setTimeout(() => {
          cgRoot.classList.remove('get-time');
        }, 10000);
      });

    }]]></script></svg>