<svg id="cg6964" xmlns="http://www.w3.org/2000/svg" viewBox="0 0 89 89"><style>
    #cg6964 {
      overflow: hidden;
    }

    #cg6964 .button {
      opacity: 0;
      pointer-events: none;
      transition: 0.2s ease;
      transform: translate3d(0, 20px, 0);
    }

    #cg6964 .button.png-wide {
      transition-delay: 0.2s;
    }

    #cg6964.menu-in .button {
      opacity: 1;
      pointer-events: auto;
      cursor: pointer;
      transform: translate3d(0, 0, 0);
    }

    #cg6964.menu-in .button .button-bg {
      transition: fill 0.2s ease;
    }

    #cg6964.menu-in .button:hover .button-bg {
      fill: #FF5FFA;
    }

    #cg6964 .cg-glasses {
      transition: opacity 0.2s ease;
    }

    #cg6964 #deal-with-it-glasses {
      opacity: 0;
      pointer-events: none;
      transition: opacity 0.2s ease, transform 3s linear;
      transform: translate3d(0, -60px, 0);
    }

    #cg6964.deal-with-it #deal-with-it-glasses {
      opacity: 1;
      transform: translate3d(0, 0, 0);
    }

    #cg6964.deal-with-it .cg-glasses {
      opacity: 0;
      transition-delay: 2s;
    }

  
      #cg6964.blastoff .cg-body {
        animation: cg-anim-takeoff 10s ease-in 0s;
      }

      #cg6964.blastoff .cg-shadow {
        animation: cg-anim-shadow-takeoff 10s ease-in 0s;
      }

      #cg6964.blastoff .rocket-flame {
        animation-name: cg-anim-rocket-blastoff;
      }
    
      #cg6964 .cg-glasses {
        transition: opacity 0.2s ease;
      }

      #cg6964.get-time .cg-glasses {
        opacity: 0;
      }
    
    #cg6964 .cg-eyes {
      transition: opacity 0.2s ease;
    }

    #cg6964.get-time .cg-eyes {
      opacity: 0;
    }
  
    #cg6964 .cg-time {
      pointer-events: none;
      transition: opacity 0.2s ease;
      opacity: 0;
    }

    #cg6964.get-time .cg-time {
      opacity: 1;
    }

    #cg6964 .cg-time .cg-digit-colon {
      animation: cg-colon-blink 1s ease-in-out 0s infinite;
    }

    @keyframes cg-colon-blink {
      20% {
        opacity: 1;
      }
      50% {
        opacity: 0;
      }
      80% {
        opacity: 1;
      }
    }
  
    #cg6964 .cg-body {
      animation: cg-anim-hover 1.5s ease-in-out -1.2577s infinite;
      transform-origin: center;
      transform-box: fill-box;
    }

    @keyframes cg-anim-hover {
      0% {
        transform: translate3d(0,0,0);
      }
      50% {
        transform: translate3d(0,-2px,0);
      }
      100% {
        transform: translate3d(0,0,0);
      }
    }
  
      @keyframes cg-anim-takeoff {
        0% {
          transform: translate3d(0,0,0);
        }
        95% {
          transform: translate3d(0,-120px,0);
        }
        100% {
          transform: translate3d(0,0,0);
        }
      }
    
    #cg6964 .cg-shadow {
      animation: cg-anim-shadow 1.5s ease-in-out -1.2577s infinite;
      transform-origin: center;
      transform-box: fill-box;
    }

    @keyframes cg-anim-shadow {
      0% {
        transform: scale3d(1,1,1);
      }
      50% {
        transform: scale3d(0.9,1,1);
      }
      100% {
        transform: scale3d(1,1,1);
      }
    }
  
      @keyframes cg-anim-shadow-takeoff {
        0% {
          transform: scale3d(0.9,1,1);
        }
        95% {
          transform: scale3d(0.1,1,1);
        }
        100% {
          transform: scale3d(1,1,1);
        }
      }
    
      #cg6964 .rocket-flame {
        animation: cg-anim-rocket 0.5s steps(1) -0.4329s infinite;
        transform-origin: center top;
        transform-box: fill-box;
      }

      @keyframes cg-anim-rocket {
        0% {
          transform: scaleX(1) translate3d(0, 0, 0);
        }
        25% {
          transform: scaleX(-1) translate3d(0, -1px, 0);
        }
        50% {
          transform: scaleX(1) translate3d(0, -2px, 0);
        }
        75% {
          transform: scaleX(-1) translate3d(0, -1px, 0);
        }
        100% {
          transform: scaleX(1) translate3d(0, 0, 0);
        }
      }

      @keyframes cg-anim-rocket-blastoff {
        0% {
          transform: scaleX(1) scaleY(1) translate3d(0, 0, 0);
        }
        25% {
          transform: scaleX(-1) scaleY(1.5) translate3d(0, -1px, 0);
        }
        50% {
          transform: scaleX(1) scaleY(2) translate3d(0, -2px, 0);
        }
        75% {
          transform: scaleX(-1) scaleY(1.5) translate3d(0, -1px, 0);
        }
        100% {
          transform: scaleX(1) scaleY(1) translate3d(0, 0, 0);
        }
      }
    </style><path class="cg-bg" d="M0 0h89v89H0z" fill="#ACE5F3"></path><path class="cg-shadow" opacity=".17" d="M60 79v-1H29v1h-2v1h3v1h29v-1h3v-1z"/><g class="cg-body"><g id="rockets"><g id="rocket-right"><g class="rocket-flame"><path fill="#FF4E00" d="M65 57h-1v4h-1v5h1v1h-1v4h1v1h-1v2h1v1h1v-5h-1v-2h1v-1h1v-7h1v-3h-2zM63 59v-2h-1v4h1v-2z"/><path fill="#FF9945" d="M66 56h-4v1h1v4h1v5h1v-6h1v-3h1v-1h-1z"/><path fill="#F9F871" d="M65 56h-2v2h1v3h1v-1h1v-4h-1z"/></g><path d="M69 39v-1h-1v-1h-7v1h-1v1h-1v13h1v1h1v2h1v1h5v-1h1v-2h1v-1h1V39h-1z"/><g><path fill="#B3B3B3" d="M67 54v1h-5v-1h5z"/><path fill="#3F3F3F" d="M61 39v-1h7v1h1v13h-1v1h-7v-1h-1V39h1z"/></g><path opacity=".17" d="M68 39v1h-1v11h-1v-3h-1v-2h-1v-3h-1v-5h-2v1h-1v13h1v1h7v-1h1V39h-1z"/></g><g id="rocket-left"><g class="rocket-flame"><path fill="#FF4E00" d="M24 57h1v4h1v5h-1v1h1v4h-1v1h1v2h-1v1h-1v-5h1v-2h-1v-1h-1v-7h-1v-3h2zM26 59v-2h1v4h-1v-2z"/><path fill="#FF9945" d="M23 56h4v1h-1v4h-1v5h-1v-6h-1v-3h-1v-1h1z"/><path fill="#F9F871" d="M24 56h2v2h-1v3h-1v-1h-1v-4h1z"/></g><path d="M20 39v-1h1v-1h7v1h1v1h1v13h-1v1h-1v2h-1v1h-5v-1h-1v-2h-1v-1h-1V39h1z"/><g><path fill="#B3B3B3" d="M22 54v1h5v-1h-5z"/><path fill="#3F3F3F" d="M28 39v-1h-7v1h-1v13h1v1h7v-1h1V39h-1z"/></g><path opacity=".18" d="M21 39v1h1v11h1v-3h1v-2h1v-3h1v-5h2v1h1v13h-1v1h-7v-1h-1V39h1z"/></g></g><path d="M63 47v-4h-1v-3h-1v-2h-1v-1h-1v-1h-1v-1h-1v-1h-1v-1h-1v-1h-2v-1h-2v-1H38v1h-2v1h-2v1h-1v1h-1v1h-1v1h-1v1h-1v1h-1v2h-1v3h-1v4h-1v13h1v3h1v3h1v1h1v1h1v1h2v1h2v-1h1v-1h1v-4h1v3h1v1h1v1h2v-1h1v-1h1v-4h1v-1h1v1h1v4h1v1h1v1h2v-1h1v-1h1v-3h1v4h1v1h1v1h2v-1h2v-1h1v-1h1v-1h1v-3h1v-3h1V47z"/><path class="cg-body-color" fill="#88E276" d="M62 47v-4h-1v-3h-1v-2h-1v-1h-1v-1h-1v-1h-1v-1h-1v-1h-2v-1h-2v-1H38v1h-2v1h-2v1h-1v1h-1v1h-1v1h-1v1h-1v2h-1v3h-1v4h-1v13h1v3h1v3h1v1h1v1h2v1h2v-1h1v-4h1v-1h1v1h1v3h1v1h2v-1h1v-4h1v-1h1v-1h1v1h1v1h1v4h1v1h2v-1h1v-3h1v-1h1v1h1v4h1v1h2v-1h2v-1h1v-1h1v-3h1v-3h1V47z"/><g class="cg-face"><path d="M39 36v1h-3v1h-1v1h-1v1h-1v2h-1v2h1v1h1v1h2v1h3v1h11v-1h3v-1h2v-1h1v-1h1v-2h-1v-2h-1v-1h-1v-1h-1v-1h-3v-1z"/><path fill="#FFF" d="M39 37v1h-3v1h-1v1h-1v2h-1v2h1v1h2v1h3v1h11v-1h3v-1h2v-1h1v-2h-1v-2h-1v-1h-1v-1h-3v-1z"/><g class="cg-eyes"><path d="M55 41h-4v1h1v1h-1v-1h-1v1h-1v1h-1v2h5v-1h1v-3h2v-1h-1zM40 43h-1v-1h-1v1h-1v-1h1v-1h-5v1h2v3h1v1h5v-2h-1v-1z"/></g><g class="cg-digits" style="display: none;"><g class="cg-digit-zero"><path d="M38 40h-2v5h3v-5h-1zm0 2v2h-1v-3h1v1z"/></g><g class="cg-digit-one"><path d="M39 44v1h-3v-1h1v-2h-1v-1h1v-1h1v4h1z"/></g><g class="cg-digit-two"><path d="M39 42h-1v-1h1v1zm-1 3h1v-1h-2v1h1zm0-3h-1v1h1v-1zm-1-2h-1v1h2v-1h-1zm-1 3v1h1v-1h-1z"/></g><g class="cg-digit-three"><path d="M38 44v-1h1v1h-1zm1-3h-1v1h1v-1zm-2 1v1h1v-1h-1zm0-2h-1v1h2v-1h-1zm-1 4v1h2v-1h-2z"/></g><g class="cg-digit-four"><path d="M39 41v4h-1v-2h-2v-3h1v2h1v-1h1z"/></g><g class="cg-digit-five"><path d="M38 44v-1h1v1h-1zm0-3h1v-1h-3v3h2v-1h-1v-1h1zm-2 3v1h2v-1h-2z"/></g><g class="cg-digit-six"><path d="M38 41h-1v-1h2v1h-1zm-2 0v3h1v-1h1v1h-1v1h2v-3h-2v-1h-1z"/></g><g class="cg-digit-seven"><path d="M39 40v5h-1v-4h-2v-1h3z"/></g><g class="cg-digit-eight"><path d="M38 40h-2v5h3v-5h-1zm0 4h-1v-1h1v1zm0-2h-1v-1h1v1z"/></g><g class="cg-digit-nine"><path d="M38 40h-2v3h2v2h1v-5h-1zm0 2h-1v-1h1v1z"/></g><g class="cg-digit-colon"><path d="M45 42h-1v-1h1v1zm0 1h-1v1h1v-1z"/></g></g><g class="cg-time"></g></g><g id="fishing-rod"><g id="fishing-rod-bg"><path d="M73 65v-1H62v2h-1v1h-1v1h-1v1h-1v3h1v1h5v-1h1v-4h-1v-1h9v-1h1v-1zM52 65v2h1v-3h-1zM44 64H16v1h-1v1h1v2h1v-1h7v1h1v-1h7v1h1v-1h7v1h1v-1h5v-3h-1z"/></g><g id="fishing-rod-inner"><path fill="#754C24" d="M72 65H62v1h11v-1z"/><g fill="#754C24"><path d="M52 65h1v1h-1zM44 65H16v1h30v-1h-1z"/></g><path fill="#F2F2F2" d="M62 66h-1v4h1v-3h1v-1z"/><g fill="#E6E6E6"><path d="M54 69h-4v1h5v-1zM47 68h1v1h-1zM45 69h-3v1h5v-1h-1zM41 68h1v1h-1zM39 68h1v1h-1zM37 69h-3v1h5v-1h-1zM33 68h1v1h-1zM31 68h1v1h-1zM29 69h-3v1h5v-1h-1zM25 68h1v1h-1zM23 68h1v1h-1zM21 69h-3v1h5v-1h-1zM17 68h1v1h-1z"/></g><g fill="#E6E6E6"><path d="M14 66h1v1h-1zM13 68v4h1v-5h-1z"/></g><path d="M14 72h-2v1h1v3h1v-3h1v-1zM12 76h1v1h-1zM11 75h1v1h-1z"/><g fill="#B3B3B3"><path d="M62 67h1v1h-1zM60 67h1v1h-1zM63 68v3h-3v-3h-1v4h5v-4z"/></g></g></g><path id="sweat" fill="#5CBDFF" d="M34 37v1h-2v-1h2zm-3 1v1h1v-1h-1zm22-3v1h1v-1h-1zm-20 1v1h2v-1h-2zm18-2v1h2v-1h-2zm-1-1v1h2v-1h-2zm-16 2v1h2v-1h-2z"/><g class="cg-glasses" id="sunglasses"><path d="M57 44h1v2h-1v-2zm-1 3h1v-1h-1v1zm-1 1h1v-1h-1v1zm-2 0h-5v1h7v-1h-2zm-6-1v1h1v-1h-1zm-1-1v1h1v-1h-1zm-4 1h1v-1h-1v1zm-1 1h1v-1h-1v1zm-2 0h-5v1h7v-1h-2zm-6-1v1h1v-1h-1zm-1-1v1h1v-1h-1zm0-2h-1v2h1v-2zm29-4H27v1h1v1h1v1h1v1h1v-3h12v5h1v-2h1v2h1v-5h12v3h1v-1h1v-1h1v-1h1v-1h-1z"/><path opacity=".54" d="M43 45v1h-1v1h-1v1h-7v-1h-1v-1h-1v-2h-1v-3h12v4zm3-4v5h1v1h1v1h7v-1h1v-1h1v-2h1v-3H46z"/></g><g id="pirate-hat"><path d="M62 27v-1h-1v-1h-4v1h-3v-1h-2v-1h-1v-1h-1v-1h-1v-1h-1v-1h-2v-1h-3v1h-2v1h-1v1h-1v1h-1v1h-1v1h-2v1h-3v-1h-4v1h-1v1h-1v3h1v2h1v1h1v1h1v1h1v1h2v-1h7v-1h9v1h7v1h2v-1h1v-1h1v-1h1v-1h1v-2h1v-3h-1z"/><path fill="#204D8E" d="M61 27v-1h-4v1h-3v-1h-2v-1h-1v-1h-1v-1h-1v-1h-1v-1h-2v-1h-3v1h-2v1h-1v1h-1v1h-1v1h-1v1h-2v1h-3v-1h-4v1h-1v3h1v2h1v1h1v1h1v1h2v-1h7v-1h9v1h7v1h2v-1h1v-1h1v-1h1v-2h1v-3h-1z"/><g><path d="M61 28h1v1h-1zM60 27h-3v1h4v-1zM55 28h-1v1h3v-1h-1zM53 27h-1v1h2v-1zM51 26h1v1h-1zM50 25h1v1h-1zM49 24h1v1h-1zM48 23h1v1h-1zM47 22h-1v1h2v-1zM45 21h-2v1h3v-1zM41 22v1h2v-1h-1zM40 23h1v1h-1zM39 24h1v1h-1zM38 25h1v1h-1zM37 26h1v1h-1zM35 27v1h2v-1h-1zM33 28h-1v1h3v-1h-1zM31 27h-3v1h4v-1z"/><path opacity=".26" d="M57.5 34H56v1h2v-1zM32.5 34H31v1h2v-1z"/><path d="M27 28h1v1h-1z"/><g fill="#FFF"><path d="M41 30v1h2v-1h-2zM47 31h1v-1h-2v1h1zM45 29v-1h1v-1h-1v-1h1v-1h-3v1h1v1h-1v1h1v1h-1v1h3v-1h-1zM42 28h-1v1h2v-1h-1zM47 29h1v-1h-2v1h1zM46 26h1v1h-1zM42 26h1v1h-1z"/></g><g fill="#FFF"><path d="M61 27h1v1h-1zM60 26h-3v1h4v-1zM55 27h-1v1h3v-1h-1zM53 26h-1v1h2v-1zM51 25h1v1h-1zM50 24h1v1h-1zM49 23h1v1h-1zM48 22h1v1h-1zM47 21h-1v1h2v-1zM45 20h-2v1h3v-1zM41 21v1h2v-1h-1zM40 22h1v1h-1zM39 23h1v1h-1zM38 24h1v1h-1zM37 25h1v1h-1zM35 26v1h2v-1h-1zM33 27h-1v1h3v-1h-1zM31 26h-3v1h4v-1zM27 27h1v1h-1z"/></g></g></g><g id="deal-with-it-glasses"><path d="M64 42h-3v1h4v-1zM60 41H28v1h1v2h1v2h1v2h1v1h9v-1h1v-2h1v-2h1v-2h1v2h1v2h1v2h1v1h9v-1h1v-2h1v-2h1v-2h1v-1z"/><path fill="#FFF" d="M33 45v1h-1v-2h1v1zm0 2h1v-1h-1v1zm2-3h-1v2h1v-2zm0 3h1v-1h-1v1zm-1-4h-1v1h1v-1zm-3 0v1h1v-1h-1zm18 1h-1v2h1v-2zm0 3h1v-1h-1v1zm2-3h-1v2h1v-2zm0 2v1h1v-1h-1zm-1-3h-1v1h1v-1zm-3 0v1h1v-1h-1z"/></g></g><a href="/images/png/cg6964-512.png" class="button png-square"><path class="button-bg" d="M26 75h13v11H26z"/><path fill="#FFF" d="M36 77h-1v1h1v5h-1v1h2v-7zm-8 0v7h2v-1h-1v-5h1v-1h-1zm6 3h1v1h-1zm-4 0h1v1h-1zm3 0v-2h-1v3h-1v1h1v1h1v-1h1v-1h-1z"/><title>Download square PNG</title></a><a href="/images/png/cg6964-wide.png" class="button png-wide"><path class="button-bg" d="M42 75h21v11H42z"/><path fill="#FFF" d="M60 77h-1v1h1v5h-1v1h2v-7zm-16 0v7h2v-1h-1v-5h1v-1h-1zm10 3h1v1h-1zm-4 0h1v1h-1zm3 0v-2h-1v3h-1v1h1v1h1v-1h1v-1h-1z"/><title>Download wide PNG</title></a><script type="text/javascript"><![CDATA[
    let cg6964Root = document.getElementById('cg6964');

    if (cg6964Root) {
      let cgRoot = cg6964Root;
      let cgBg = cgRoot.querySelector('.cg-bg');
      let cgBody = cgRoot.querySelector('.cg-body');

      cgBg.addEventListener('dblclick', () => {
        cgRoot.classList.toggle('menu-in');
      });

      cgBody.addEventListener('click', () => {

        let bufferArray = [];
        let lastKeystrokeTime = Date.now();
        const cheatcode = (e) => {

          const key = e.key.toLowerCase();
          const latestKeystrokeTime = Date.now();

          if (latestKeystrokeTime - lastKeystrokeTime > 1500) {
            bufferArray = [];
          }

          bufferArray.push(key);

          const word = bufferArray.join('');
          if (word === 'dealwithit') {
            console.log('No u.');

            cgRoot.classList.add('deal-with-it');

            setTimeout(() => {
              cgRoot.classList.remove('deal-with-it');
            }, 10000);

            clearListener();
          }
  

      if (word === 'blastoff') {
        console.log('Prepare for takeoff!');

        cgRoot.classList.add('blastoff');

        setTimeout(() => {
          cgRoot.classList.remove('blastoff');
        }, 10000);

        clearListener();
      }

    
          lastKeystrokeTime = latestKeystrokeTime;

        }
        document.addEventListener('keyup', cheatcode, true);

        const clearListener = () => {
          document.removeEventListener('keyup', cheatcode, true);
        }

      });
    
    let cgDigits = cgRoot.querySelector('.cg-digits');
    let cgTime = cgRoot.querySelector('.cg-time');
  

      let cgGlasses = cgRoot.querySelector('.cg-glasses');
      cgGlasses.addEventListener('dblclick', () => {
        cgRoot.classList.add('get-time');

        let now = new Date();
        let hours = ('0' + now.getHours()).substr(-2);
        let minutes = ('0' + now.getMinutes()).substr(-2);;
        let digits = [hours.substr(0,1), hours.substr(1), minutes.substr(0,1), minutes.substr(1)];

        cgTime.replaceChildren();

        for (let i = 0; i < 4; i++) {
          switch (digits[i]) {
            case '0':
              cgTime.appendChild(cgDigits.querySelector('.cg-digit-zero').cloneNode(true));
              break;
            case '1':
              cgTime.appendChild(cgDigits.querySelector('.cg-digit-one').cloneNode(true));
              break;
            case '2':
              cgTime.appendChild(cgDigits.querySelector('.cg-digit-two').cloneNode(true));
              break;
            case '3':
              cgTime.appendChild(cgDigits.querySelector('.cg-digit-three').cloneNode(true));
              break;
            case '4':
              cgTime.appendChild(cgDigits.querySelector('.cg-digit-four').cloneNode(true));
              break;
            case '5':
              cgTime.appendChild(cgDigits.querySelector('.cg-digit-five').cloneNode(true));
              break;
            case '6':
              cgTime.appendChild(cgDigits.querySelector('.cg-digit-six').cloneNode(true));
              break;
            case '7':
              cgTime.appendChild(cgDigits.querySelector('.cg-digit-seven').cloneNode(true));
              break;
            case '8':
              cgTime.appendChild(cgDigits.querySelector('.cg-digit-eight').cloneNode(true));
              break;
            case '9':
              cgTime.appendChild(cgDigits.querySelector('.cg-digit-nine').cloneNode(true));
              break;
          }
        }

        cgTime.childNodes[1].style.transform = 'translateX(4px)';
        cgTime.childNodes[2].style.transform = 'translateX(10px)';
        cgTime.childNodes[3].style.transform = 'translateX(14px)';

        cgTime.appendChild(cgDigits.querySelector('.cg-digit-colon').cloneNode(true));

        setTimeout(() => {
          cgRoot.classList.remove('get-time');
        }, 10000);
      });

    }]]></script></svg>