<svg id="cg7318" xmlns="http://www.w3.org/2000/svg" viewBox="0 0 89 89"><style>
    #cg7318 {
      overflow: hidden;
    }

    #cg7318 .button {
      opacity: 0;
      pointer-events: none;
      transition: 0.2s ease;
      transform: translate3d(0, 20px, 0);
    }

    #cg7318 .button.png-wide {
      transition-delay: 0.2s;
    }

    #cg7318.menu-in .button {
      opacity: 1;
      pointer-events: auto;
      cursor: pointer;
      transform: translate3d(0, 0, 0);
    }

    #cg7318.menu-in .button .button-bg {
      transition: fill 0.2s ease;
    }

    #cg7318.menu-in .button:hover .button-bg {
      fill: #FF5FFA;
    }

    #cg7318 .cg-glasses {
      transition: opacity 0.2s ease;
    }

    #cg7318 #deal-with-it-glasses {
      opacity: 0;
      pointer-events: none;
      transition: opacity 0.2s ease, transform 3s linear;
      transform: translate3d(0, -60px, 0);
    }

    #cg7318.deal-with-it #deal-with-it-glasses {
      opacity: 1;
      transform: translate3d(0, 0, 0);
    }

    #cg7318.deal-with-it .cg-glasses {
      opacity: 0;
      transition-delay: 2s;
    }

  
      #cg7318.blastoff .cg-body {
        animation: cg-anim-takeoff 10s ease-in 0s;
      }

      #cg7318.blastoff .cg-shadow {
        animation: cg-anim-shadow-takeoff 10s ease-in 0s;
      }

      #cg7318.blastoff .rocket-flame {
        animation-name: cg-anim-rocket-blastoff;
      }
    
      #cg7318 .cg-glasses {
        transition: opacity 0.2s ease;
      }

      #cg7318.get-time .cg-glasses {
        opacity: 0;
      }
    
    #cg7318 .cg-eyes {
      transition: opacity 0.2s ease;
    }

    #cg7318.get-time .cg-eyes {
      opacity: 0;
    }
  
    #cg7318 .cg-time {
      pointer-events: none;
      transition: opacity 0.2s ease;
      opacity: 0;
    }

    #cg7318.get-time .cg-time {
      opacity: 1;
    }

    #cg7318 .cg-time .cg-digit-colon {
      animation: cg-colon-blink 1s ease-in-out 0s infinite;
    }

    @keyframes cg-colon-blink {
      20% {
        opacity: 1;
      }
      50% {
        opacity: 0;
      }
      80% {
        opacity: 1;
      }
    }
  
    #cg7318 .cg-body {
      animation: cg-anim-hover 1.5s ease-in-out -0.3859s infinite;
      transform-origin: center;
      transform-box: fill-box;
    }

    @keyframes cg-anim-hover {
      0% {
        transform: translate3d(0,0,0);
      }
      50% {
        transform: translate3d(0,-2px,0);
      }
      100% {
        transform: translate3d(0,0,0);
      }
    }
  
      @keyframes cg-anim-takeoff {
        0% {
          transform: translate3d(0,0,0);
        }
        95% {
          transform: translate3d(0,-120px,0);
        }
        100% {
          transform: translate3d(0,0,0);
        }
      }
    
    #cg7318 .cg-shadow {
      animation: cg-anim-shadow 1.5s ease-in-out -0.3859s infinite;
      transform-origin: center;
      transform-box: fill-box;
    }

    @keyframes cg-anim-shadow {
      0% {
        transform: scale3d(1,1,1);
      }
      50% {
        transform: scale3d(0.9,1,1);
      }
      100% {
        transform: scale3d(1,1,1);
      }
    }
  
      @keyframes cg-anim-shadow-takeoff {
        0% {
          transform: scale3d(0.9,1,1);
        }
        95% {
          transform: scale3d(0.1,1,1);
        }
        100% {
          transform: scale3d(1,1,1);
        }
      }
    
      #cg7318 .rocket-flame {
        animation: cg-anim-rocket 0.5s steps(1) -0.4192s infinite;
        transform-origin: center top;
        transform-box: fill-box;
      }

      @keyframes cg-anim-rocket {
        0% {
          transform: scaleX(1) translate3d(0, 0, 0);
        }
        25% {
          transform: scaleX(-1) translate3d(0, -1px, 0);
        }
        50% {
          transform: scaleX(1) translate3d(0, -2px, 0);
        }
        75% {
          transform: scaleX(-1) translate3d(0, -1px, 0);
        }
        100% {
          transform: scaleX(1) translate3d(0, 0, 0);
        }
      }

      @keyframes cg-anim-rocket-blastoff {
        0% {
          transform: scaleX(1) scaleY(1) translate3d(0, 0, 0);
        }
        25% {
          transform: scaleX(-1) scaleY(1.5) translate3d(0, -1px, 0);
        }
        50% {
          transform: scaleX(1) scaleY(2) translate3d(0, -2px, 0);
        }
        75% {
          transform: scaleX(-1) scaleY(1.5) translate3d(0, -1px, 0);
        }
        100% {
          transform: scaleX(1) scaleY(1) translate3d(0, 0, 0);
        }
      }
    </style><path class="cg-bg" d="M0 0h89v89H0z" fill="#707138"></path><g id="stars"><g id="stars-bg"><path d="M70 11v2h1v-2h1v-1h2V9h-2V8h-1V6h-1v2h-1v1h-2v1h2v1h1zM75 18v-1h-1v-2h-1v2h-1v1h-2v1h2v1h1v2h1v-2h1v-1h2v-1h-2z"/><path d="M86 13h-2v-1h-2v-1h-1V9h-1V6h-1v3h-1v2h-1v1h-2v1h-3v1h3v1h2v1h1v3h1v3h1v-3h1v-3h1v-1h2v-1h3v-1h-1z"/></g><g fill="#FFF75F" id="stars-inner"><path d="M83 13h-1v-1h-1v-1h-1V9h-1v2h-1v1h-1v1h-2v1h2v1h1v1h1v3h1v-3h1v-1h1v-1h2v-1h-1zM74 17h-1v1h-1v1h1v1h1v-1h1v-1h-1zM72 9h-1V8h-1v1h-1v1h1v1h1v-1h1z"/></g></g><path class="cg-shadow" opacity=".17" d="M60 79v-1H29v1h-2v1h3v1h29v-1h3v-1z"/><g class="cg-body"><g id="rockets"><g id="rocket-right"><g class="rocket-flame"><path fill="#FF4E00" d="M65 57h-1v4h-1v5h1v1h-1v4h1v1h-1v2h1v1h1v-5h-1v-2h1v-1h1v-7h1v-3h-2zM63 59v-2h-1v4h1v-2z"/><path fill="#FF9945" d="M66 56h-4v1h1v4h1v5h1v-6h1v-3h1v-1h-1z"/><path fill="#F9F871" d="M65 56h-2v2h1v3h1v-1h1v-4h-1z"/></g><path d="M69 39v-1h-1v-1h-7v1h-1v1h-1v13h1v1h1v2h1v1h5v-1h1v-2h1v-1h1V39h-1z"/><g><path fill="#B3B3B3" d="M67 54v1h-5v-1h5z"/><path fill="#3F3F3F" d="M61 39v-1h7v1h1v13h-1v1h-7v-1h-1V39h1z"/></g><path opacity=".17" d="M68 39v1h-1v11h-1v-3h-1v-2h-1v-3h-1v-5h-2v1h-1v13h1v1h7v-1h1V39h-1z"/></g><g id="rocket-left"><g class="rocket-flame"><path fill="#FF4E00" d="M24 57h1v4h1v5h-1v1h1v4h-1v1h1v2h-1v1h-1v-5h1v-2h-1v-1h-1v-7h-1v-3h2zM26 59v-2h1v4h-1v-2z"/><path fill="#FF9945" d="M23 56h4v1h-1v4h-1v5h-1v-6h-1v-3h-1v-1h1z"/><path fill="#F9F871" d="M24 56h2v2h-1v3h-1v-1h-1v-4h1z"/></g><path d="M20 39v-1h1v-1h7v1h1v1h1v13h-1v1h-1v2h-1v1h-5v-1h-1v-2h-1v-1h-1V39h1z"/><g><path fill="#B3B3B3" d="M22 54v1h5v-1h-5z"/><path fill="#3F3F3F" d="M28 39v-1h-7v1h-1v13h1v1h7v-1h1V39h-1z"/></g><path opacity=".18" d="M21 39v1h1v11h1v-3h1v-2h1v-3h1v-5h2v1h1v13h-1v1h-7v-1h-1V39h1z"/></g></g><path d="M63 47v-4h-1v-3h-1v-2h-1v-1h-1v-1h-1v-1h-1v-1h-1v-1h-1v-1h-2v-1h-2v-1H38v1h-2v1h-2v1h-1v1h-1v1h-1v1h-1v1h-1v1h-1v2h-1v3h-1v4h-1v13h1v3h1v3h1v1h1v1h1v1h2v1h2v-1h1v-1h1v-4h1v3h1v1h1v1h2v-1h1v-1h1v-4h1v-1h1v1h1v4h1v1h1v1h2v-1h1v-1h1v-3h1v4h1v1h1v1h2v-1h2v-1h1v-1h1v-1h1v-3h1v-3h1V47z"/><path class="cg-body-color" fill="#ACE5F3" d="M62 47v-4h-1v-3h-1v-2h-1v-1h-1v-1h-1v-1h-1v-1h-1v-1h-2v-1h-2v-1H38v1h-2v1h-2v1h-1v1h-1v1h-1v1h-1v1h-1v2h-1v3h-1v4h-1v13h1v3h1v3h1v1h1v1h2v1h2v-1h1v-4h1v-1h1v1h1v3h1v1h2v-1h1v-4h1v-1h1v-1h1v1h1v1h1v4h1v1h2v-1h1v-3h1v-1h1v1h1v4h1v1h2v-1h2v-1h1v-1h1v-3h1v-3h1V47z"/><g class="cg-face"><path d="M39 36v1h-3v1h-1v1h-1v1h-1v2h-1v2h1v1h1v1h2v1h3v1h11v-1h3v-1h2v-1h1v-1h1v-2h-1v-2h-1v-1h-1v-1h-1v-1h-3v-1z"/><path fill="#FFF" d="M39 37v1h-3v1h-1v1h-1v2h-1v2h1v1h2v1h3v1h11v-1h3v-1h2v-1h1v-2h-1v-2h-1v-1h-1v-1h-3v-1z"/><g class="cg-eyes"><path d="M50 42v1h2v-1h-2zM49 43h1v1h-1zM48 44h1v1h-1zM40 44h1v1h-1zM39 43h1v1h-1zM38 42h-1v1h2v-1h-1z"/></g><g class="cg-digits" style="display: none;"><g class="cg-digit-zero"><path d="M38 40h-2v5h3v-5h-1zm0 2v2h-1v-3h1v1z"/></g><g class="cg-digit-one"><path d="M39 44v1h-3v-1h1v-2h-1v-1h1v-1h1v4h1z"/></g><g class="cg-digit-two"><path d="M39 42h-1v-1h1v1zm-1 3h1v-1h-2v1h1zm0-3h-1v1h1v-1zm-1-2h-1v1h2v-1h-1zm-1 3v1h1v-1h-1z"/></g><g class="cg-digit-three"><path d="M38 44v-1h1v1h-1zm1-3h-1v1h1v-1zm-2 1v1h1v-1h-1zm0-2h-1v1h2v-1h-1zm-1 4v1h2v-1h-2z"/></g><g class="cg-digit-four"><path d="M39 41v4h-1v-2h-2v-3h1v2h1v-1h1z"/></g><g class="cg-digit-five"><path d="M38 44v-1h1v1h-1zm0-3h1v-1h-3v3h2v-1h-1v-1h1zm-2 3v1h2v-1h-2z"/></g><g class="cg-digit-six"><path d="M38 41h-1v-1h2v1h-1zm-2 0v3h1v-1h1v1h-1v1h2v-3h-2v-1h-1z"/></g><g class="cg-digit-seven"><path d="M39 40v5h-1v-4h-2v-1h3z"/></g><g class="cg-digit-eight"><path d="M38 40h-2v5h3v-5h-1zm0 4h-1v-1h1v1zm0-2h-1v-1h1v1z"/></g><g class="cg-digit-nine"><path d="M38 40h-2v3h2v2h1v-5h-1zm0 2h-1v-1h1v1z"/></g><g class="cg-digit-colon"><path d="M45 42h-1v-1h1v1zm0 1h-1v1h1v-1z"/></g></g><g class="cg-time"></g></g><g id="wrench"><g><path d="M73 64v-1h-1v-1h-5v1h-1v1h-4v2h-1v1h-1v1h-1v1h7v1h1v1h5v-1h1v-1h1v-5h-1zm-4 4h-1v-3h3v3h-2zM31 68h1v1h-1zM53 67v-3H36v4h-1v1h4v-1h-1v-1h-1v-2h6v2h-1v1h-1v1h7v-1h-1v-1h-1v-2h6v2h-1v1h-1v1h4v-1h-1v-1zM29 67h-1v-1h-1v-2h-2v-1h-3v-1h-2v-1h-1v-1h-5v1h-1v1h-1v2h5v3h-5v2h1v1h2v1h2v1h2v-1h1v-1h1v-1h9v-1h-1v-1z"/></g><g><g fill="#7F7F7F"><path d="M72 64v-1h-5v1h-1v1h-4v1h-1v1h-1v1h6v1h1v1h5v-1h1v-5h-1zm0 2v2h-1v1h-3v-1h-1v-3h1v-1h3v1h1v1zM28 66h-1v-1h-2v-1h-3v-1h-2v-1h-1v-1h-5v1h-1v1h4v1h1v7h1v-1h1v-1h1v-1h8v-1h-1v-1zm-7-1v2h-2v-3h2v1z"/><path d="M15 68h-2v1h2v1h2v-2h-1zM46 65H36v3h17v-3h-1z"/></g><path opacity=".28" d="M36 66h17v1H36zM61 66h3v1h-3zM25 66h3v1h-3zM13 68h4v1h-4z"/><path opacity=".15" fill="#FFF" d="M19 65h2v1h-2z"/></g></g><g class="cg-glasses" id="shield-sunglasses"><g><g><path d="M60 41h-1v-1h-3v1h2v7h-8v1h8v-1h1v-6h3v-1zM56 39v1H33v-1h21zM49 47h1v1h-2v-1zM47 46h1v1h-2v-1zM46 45v1h-3v-1h2zM43 46v1h-2v-1h1zM41 47v1h-2v-1h1zM38 48h-7v-7h2v-1h-3v1h-3v1h3v6h1v1h8v-1z"/></g></g><g><linearGradient id="glasses-gradient" gradientUnits="userSpaceOnUse" x1="31" y1="44" x2="58" y2="44"><stop offset="0" stop-color="#00a8de"><animate attributeName="stop-color" values="#00a8de;#333391;#e91388;#eb2d2e;#fde92b;#009e54;#00a8de" dur="6s" repeatCount="indefinite"/> </stop><stop offset=".2" stop-color="#333391"><animate attributeName="stop-color" values="#333391;#e91388;#eb2d2e;#fde92b;#009e54;#00a8de;#333391" dur="6s" repeatCount="indefinite"/> </stop><stop offset=".4" stop-color="#e91388"><animate attributeName="stop-color" values="#e91388;#eb2d2e;#fde92b;#009e54;#00a8de;#333391;#e91388" dur="6s" repeatCount="indefinite"/> </stop><stop offset=".6" stop-color="#eb2d2e"><animate attributeName="stop-color" values="#eb2d2e;#fde92b;#009e54;#00a8de;#333391;#e91388;#eb2d2e" dur="6s" repeatCount="indefinite"/> </stop><stop offset=".8" stop-color="#fde92b"><animate attributeName="stop-color" values="#fde92b;#009e54;#00a8de;#333391;#e91388;#eb2d2e;#fde92b" dur="6s" repeatCount="indefinite"/> </stop><stop offset="1" stop-color="#009e54"><animate attributeName="stop-color" values="#009e54;#00a8de;#333391;#e91388;#eb2d2e;#fde92b;#009e54" dur="6s" repeatCount="indefinite"/> </stop></linearGradient><path class="shield-glasses-rgb" opacity=".82" fill="url(#glasses-gradient)" d="M43 45v1h-2v1h-2v1h-8v-7h2v-1h23v1h2v7h-8v-1h-2v-1h-2v-1h-2z"/></g><g opacity=".24" fill="#FFF"><path d="M33 40h23v1H33zM31 41h2v1h-2zM56 41h2v1h-2z"/></g></g><g id="gas-mask-graffiti"><path d="M64 52v-1h-1v-1h-3v-1h-5v-1h-1v-1h-1v-1h-2v-1h-4v-1h-1v-1h-3v1h-1v1h-4v1h-2v1h-1v1h-1v1h-5v1h-3v1h-1v1h-1v6h1v2h1v2h1v1h1v1h1v1h3v-1h3v-1h2v-1h1v-1h2v1h1v1h7v-1h1v-1h2v1h1v1h2v1h3v1h3v-1h1v-1h1v-1h1v-2h1v-2h1v-6h-1z"/><path fill="#4D4D4D" d="M63 52v-1h-3v1h-1v1h-1v1h-1v3h-1v5h1v2h3v-1h1v-1h1v-2h1v-2h1v-6h-1zm0 2v3h-1v2h-1v2h-1v1h-2v-1h-1v-3h1v-3h1v-1h1v-1h1v-1h1v1h1v1z"/><path fill="#1A1A1A" d="M55 61v-4h1v-3h1v-1h1v-1h1v-1h1v-1h-6v1h-1v1h-1v1h-1v8h1v1h2v1h2v-1h-1v-1z"/><path fill="#333" d="M52 52v-1h1v-1h1v-2h-1v-1h-2v-1h-4v-1h-1v-1h-3v1h-1v1h-4v1h-2v1h-1v2h1v1h1v1h1v1h1v7h1v1h1v1h7v-1h1v-1h1v-7h1v-1h1z"/><path fill="#1A1A1A" d="M37 52h-1v-1h-1v-1h-6v1h1v1h1v1h1v1h1v3h1v5h-1v1h2v-1h2v-1h1v-8h-1v-1z"/><path fill="#333" d="M33 60v-3h-1v-3h-1v-1h-1v-1h-1v-1h-3v1h-1v6h1v2h1v2h1v1h1v1h3v-2h1v-2zm-2 1v1h-2v-1h-1v-2h-1v-2h-1v-4h1v-1h1v1h1v1h1v1h1v3h1v3h-1z"/><g fill="#3FF"><path d="M54 50v1h-1v1h-1v1h-1v8h1v1h2v1h2v-1h-1v-5h1v-3h1v-1h1v-1h1v-1h1v-1zm-25 0v1h1v1h1v1h1v1h1v3h1v5h-1v1h2v-1h2v-1h1v-8h-1v-1h-1v-1h-1v-1z"/><path d="M38 47h-2v1h-1v2h1v1h1v1h1v1h1v7h1v1h1v1h7v-1h1v-1h1v-7h1v-1h1v-1h1v-1h1v-2h-1v-1h-2v-1h-4v-1h-1v-1h-3v1h-1v1h-4z"/></g><path fill="#ACE5F3" d="M42 54v-2h-1v1h-2v2h4v-1h-1zm-1 3h-2v3h3v-4h-1v1zm-4 0h-1v3h1v-2h1v-2h-1v1z"/><path fill="#FFF75F" d="M56 53h-1v-1h-1v2h1v1h1v-1h1v-1h-1zm-8-7h-3v-2h-2v1h-1v1h1v2h2v-1h5v-1h-2zm-2 11v1h-1v-2h-1v4h-1v1h-2v1h4v-3h2v-3h-1v1zm0-6v3h1v-1h1v-2h-2zm-2-1h1v1h-1v-1zm-1-1h1v1h-1v-1zm-6 5h-1v1h1v1h1v-3h-1v1zm-3 5v2h1v-1h1v-1h-2z"/><path fill="#C0FF97" d="M57 51h-1v1h-1v1h3v-2h-1zm-2 10h-1v-2h-2v1h1v2h1v1h2v-1h-1v-1zm-3-10v-3h-1v-1h-6v1h2v1h1v-1h2v1h-1v1h2v1h-1v2h1v-1h1v-1zm-16 5h1v1h-1v-1zm-1-4v2h2v-2h-2zm0 4h-1v3h2v-2h-1v-1z"/><g fill="#7850FF"><path d="M47 54h-1v1h2v-2h-1v1zm8 1v-1h-2v1h1v1h1v1h1v-2h-1zm-3-1v-1h-1v3h1v3h1v-4h-1v-1z"/><path d="M51 50h-2v-1h1v-1h-2v1h-2v2h2v1h1v5h1v-6h1v-1zm-11 1h-1v-1h-2v-1h-1v-1h-1v2h1v1h1v1h1v1h3v-1h-1v-1zm-3 8v2h1v-3h-1v1zm-2-4h1v1h-1v-1zm-1-1h1v1h-1v-1z"/></g><g fill="#56E5B7"><path d="M54 58h-1v1h1v2h1v-3h-1zm-1-8h1v-1h-2v2h1v-1zm-8-2h-4v-1h-2v2h-1v-1h-2v1h1v1h2v1h1v1h1v-2h-1v-1h4v1h2v-1h1v-1h-2zm-3 11v1h-2v1h3v-1h1v-1h-2z"/><path d="M43 53v-2h-1v3h1v-1zm-2 2h-2v2h2v-1h1v1h1v-2h-2zm-7 6v1h-1v1h2v-1h1v-1h-2zm1-11h-2v3h2v-1h1v-1h-1v-1z"/></g><path fill="#FF8749" d="M53 48v-1h-2v1h1v1h2v-1h-1zm-1 11v-3h-1v5h1v1h1v-2h-1v-1zm-2-13h1v1h-1v-1zm-2 14h1v1h-1v-1zm-1-2h1v1h-1v-1zm-1 3h-1v1h3v-1h-2zm1-1v-1h-2v1h2zm0-14v-1h-1v-1h-1v2h2zm-6 3h-1v1h1v2h1v-1h1v-2h-2zm-3-1h1v1h-1v-1zm-1-1h-1v1h2v-1h-1zm-3 7h-1v2h2v-1h-1v-1zm-2-1h1v1h-1v-1z"/><path fill="#F13441" d="M59 50h-1v2h1v-1h1v-1h-1zm-5 5h-1v3h2v-2h-1v-1zm-8 0v-1h-1v-2h1v-2h-1v1h-1v-1h-1v7h-1v2h2v-3h1v2h1v-2h1v1h1v-2h-2zm-4-7h1v-2h-5v2h1v-1h2v1h1zm-6 7h1v1h-1v-1zm-1 1h1v1h-1v-1zm-2 0h1v1h-1v-1zm-2-6h-2v1h1v1h1v1h1v-2h-1v-1z"/><path opacity=".27" d="M43 44v1h-1v1h-4v1h-2v1h-1v2h1v1h1v1h1v1h1v7h1v1h1v1h3V44h-1z"/></g><g id="octopus-friend"><path d="M61 25v1h-3v-1h-1v-4h-1v-2h-1v-1h-1v-1h-1v-1h-2v-1H40v1h-2v1h-1v1h-1v1h-1v1h-1v3h-2v1h-3v-1h-2v-1h-1v4h1v1h1v1h1v1h2v2h-1v2h-1v1h-2v1h1v1h1v1h5v-1h1v-1h2v2h1v1h3v-1h1v-1h1v-1h2v1h1v1h1v1h3v-1h1v-3h1v1h1v1h7v-1h1v-1h1v-4h-1v1h-1v1h-1v-1h-1v-1h2v-1h1v-1h1v-3h-1z"/><path fill="#0FDBD5" d="M57 29h-2v-1h-2v-1h2v1h2v1h3v-1h1v-1h-3v-1h-3v-1h1v-4h-1v-2h-1v-1h-1v-1h-2v-1H40v1h-2v1h-1v1h-1v1h-1v4h-3v1h-3v-1h-2v2h1v1h1v1h3v-1h1v-1h4v1h-4v1h-1v3h-1v2h-1v1h-1v2h5v-1h1v-1h1v-1h1v-3h1v-1h1v-1h1v1h-1v1h-1v7h3v-1h1v-1h1v-1h1v-4h1v5h1v1h1v1h3v-7h-1v-1h-1v-1h1v1h1v1h1v3h1v1h1v1h7v-1h1v-2h-1v1h-1v-1h-1v-1h-1v-2z"/><path d="M51 20h1v3h-1v-3zm-1-1v1h1v-1h-1zm-1 4h-1v1h3v-1h-2zm1-1v-1h-2v1h2zm-1-4h-1v1h2v-1h-1zm-2 4v1h1v-1h-1zm0-2h1v-1h-1v1zm-3 2h-1v1h1v-1zm-1-2h1v-1h-1v1zm-1 1h-1v1h2v-1h-1zm0-3h-1v1h2v-1h-1zm-1 6h2v-1h-3v1h1zm-1-4h1v-1h-1v1zm-1 1v2h1v-3h-1v1z"/><path fill="#FBB" d="M41 24v1h-3v-2h2v1h1zm9 0v1h3v-2h-2v1h-1z"/><path d="M61 33v1h-1v-1h1zm-3 1h-4v-1h-1v-1h-1v-1h-1v2h1v1h1v1h7v-1h-2zm0-5h2v-1h-3v1h1zm-1-1v-1h-2v1h2zm-9 8v-1h-1v-1h-1v-1h-1v2h1v1h1v1h3v-1h-2zm-1-10v-1h-1v1h1zm-1-1v-1h-2v1h2zm-3 8v1h1v-2h-1v1zm0-7h1v-1h-1v1zm-1 9h1v-1h-1v1zm-2 0h-1v-1h-1v3h3v-1h1v-1h-2zm1-19h-1v1h1v-1zm-2 1h-1v1h1v-1zm-1 12h-1v1h1v-1zm0-11h-1v1h1v-1zm-2 13v1h-1v1h-1v1h-5v2h5v-1h1v-1h1v-1h1v-3h-1v1zm1-12h-1v1h1v-1zm-1 4v-3h-1v4h1v-1zm-7 4v1h3v-1h1v-1h-4v-1h-1v-1h-1v2h1v1h1z" opacity=".25"/></g><g id="deal-with-it-glasses"><path d="M64 42h-3v1h4v-1zM60 41H28v1h1v2h1v2h1v2h1v1h9v-1h1v-2h1v-2h1v-2h1v2h1v2h1v2h1v1h9v-1h1v-2h1v-2h1v-2h1v-1z"/><path fill="#FFF" d="M33 45v1h-1v-2h1v1zm0 2h1v-1h-1v1zm2-3h-1v2h1v-2zm0 3h1v-1h-1v1zm-1-4h-1v1h1v-1zm-3 0v1h1v-1h-1zm18 1h-1v2h1v-2zm0 3h1v-1h-1v1zm2-3h-1v2h1v-2zm0 2v1h1v-1h-1zm-1-3h-1v1h1v-1zm-3 0v1h1v-1h-1z"/></g></g><a href="/images/png/cg7318-512.png" class="button png-square"><path class="button-bg" d="M26 75h13v11H26z"/><path fill="#FFF" d="M36 77h-1v1h1v5h-1v1h2v-7zm-8 0v7h2v-1h-1v-5h1v-1h-1zm6 3h1v1h-1zm-4 0h1v1h-1zm3 0v-2h-1v3h-1v1h1v1h1v-1h1v-1h-1z"/><title>Download square PNG</title></a><a href="/images/png/cg7318-wide.png" class="button png-wide"><path class="button-bg" d="M42 75h21v11H42z"/><path fill="#FFF" d="M60 77h-1v1h1v5h-1v1h2v-7zm-16 0v7h2v-1h-1v-5h1v-1h-1zm10 3h1v1h-1zm-4 0h1v1h-1zm3 0v-2h-1v3h-1v1h1v1h1v-1h1v-1h-1z"/><title>Download wide PNG</title></a><script type="text/javascript"><![CDATA[
    let cg7318Root = document.getElementById('cg7318');

    if (cg7318Root) {
      let cgRoot = cg7318Root;
      let cgBg = cgRoot.querySelector('.cg-bg');
      let cgBody = cgRoot.querySelector('.cg-body');

      cgBg.addEventListener('dblclick', () => {
        cgRoot.classList.toggle('menu-in');
      });

      cgBody.addEventListener('click', () => {

        let bufferArray = [];
        let lastKeystrokeTime = Date.now();
        const cheatcode = (e) => {

          const key = e.key.toLowerCase();
          const latestKeystrokeTime = Date.now();

          if (latestKeystrokeTime - lastKeystrokeTime > 1500) {
            bufferArray = [];
          }

          bufferArray.push(key);

          const word = bufferArray.join('');
          if (word === 'dealwithit') {
            console.log('No u.');

            cgRoot.classList.add('deal-with-it');

            setTimeout(() => {
              cgRoot.classList.remove('deal-with-it');
            }, 10000);

            clearListener();
          }
  

      if (word === 'blastoff') {
        console.log('Prepare for takeoff!');

        cgRoot.classList.add('blastoff');

        setTimeout(() => {
          cgRoot.classList.remove('blastoff');
        }, 10000);

        clearListener();
      }

    
          lastKeystrokeTime = latestKeystrokeTime;

        }
        document.addEventListener('keyup', cheatcode, true);

        const clearListener = () => {
          document.removeEventListener('keyup', cheatcode, true);
        }

      });
    
    let cgDigits = cgRoot.querySelector('.cg-digits');
    let cgTime = cgRoot.querySelector('.cg-time');
  

      let cgGlasses = cgRoot.querySelector('.cg-glasses');
      cgGlasses.addEventListener('dblclick', () => {
        cgRoot.classList.add('get-time');

        let now = new Date();
        let hours = ('0' + now.getHours()).substr(-2);
        let minutes = ('0' + now.getMinutes()).substr(-2);;
        let digits = [hours.substr(0,1), hours.substr(1), minutes.substr(0,1), minutes.substr(1)];

        cgTime.replaceChildren();

        for (let i = 0; i < 4; i++) {
          switch (digits[i]) {
            case '0':
              cgTime.appendChild(cgDigits.querySelector('.cg-digit-zero').cloneNode(true));
              break;
            case '1':
              cgTime.appendChild(cgDigits.querySelector('.cg-digit-one').cloneNode(true));
              break;
            case '2':
              cgTime.appendChild(cgDigits.querySelector('.cg-digit-two').cloneNode(true));
              break;
            case '3':
              cgTime.appendChild(cgDigits.querySelector('.cg-digit-three').cloneNode(true));
              break;
            case '4':
              cgTime.appendChild(cgDigits.querySelector('.cg-digit-four').cloneNode(true));
              break;
            case '5':
              cgTime.appendChild(cgDigits.querySelector('.cg-digit-five').cloneNode(true));
              break;
            case '6':
              cgTime.appendChild(cgDigits.querySelector('.cg-digit-six').cloneNode(true));
              break;
            case '7':
              cgTime.appendChild(cgDigits.querySelector('.cg-digit-seven').cloneNode(true));
              break;
            case '8':
              cgTime.appendChild(cgDigits.querySelector('.cg-digit-eight').cloneNode(true));
              break;
            case '9':
              cgTime.appendChild(cgDigits.querySelector('.cg-digit-nine').cloneNode(true));
              break;
          }
        }

        cgTime.childNodes[1].style.transform = 'translateX(4px)';
        cgTime.childNodes[2].style.transform = 'translateX(10px)';
        cgTime.childNodes[3].style.transform = 'translateX(14px)';

        cgTime.appendChild(cgDigits.querySelector('.cg-digit-colon').cloneNode(true));

        setTimeout(() => {
          cgRoot.classList.remove('get-time');
        }, 10000);
      });

    }]]></script></svg>