<svg id="cg7897" xmlns="http://www.w3.org/2000/svg" viewBox="0 0 89 89"><style>
    #cg7897 {
      overflow: hidden;
    }

    #cg7897 .button {
      opacity: 0;
      pointer-events: none;
      transition: 0.2s ease;
      transform: translate3d(0, 20px, 0);
    }

    #cg7897 .button.png-wide {
      transition-delay: 0.2s;
    }

    #cg7897.menu-in .button {
      opacity: 1;
      pointer-events: auto;
      cursor: pointer;
      transform: translate3d(0, 0, 0);
    }

    #cg7897.menu-in .button .button-bg {
      transition: fill 0.2s ease;
    }

    #cg7897.menu-in .button:hover .button-bg {
      fill: #FF5FFA;
    }

    #cg7897 .cg-glasses {
      transition: opacity 0.2s ease;
    }

    #cg7897 #deal-with-it-glasses {
      opacity: 0;
      pointer-events: none;
      transition: opacity 0.2s ease, transform 3s linear;
      transform: translate3d(0, -60px, 0);
    }

    #cg7897.deal-with-it #deal-with-it-glasses {
      opacity: 1;
      transform: translate3d(0, 0, 0);
    }

    #cg7897.deal-with-it .cg-glasses {
      opacity: 0;
      transition-delay: 2s;
    }

  
      #cg7897.blastoff .cg-body {
        animation: cg-anim-takeoff 10s ease-in 0s;
      }

      #cg7897.blastoff .cg-shadow {
        animation: cg-anim-shadow-takeoff 10s ease-in 0s;
      }

      #cg7897.blastoff .rocket-flame {
        animation-name: cg-anim-rocket-blastoff;
      }
    
      #cg7897 .cg-glasses {
        transition: opacity 0.2s ease;
      }

      #cg7897.get-time .cg-glasses {
        opacity: 0;
      }
    
    #cg7897 .cg-eyes {
      transition: opacity 0.2s ease;
    }

    #cg7897.get-time .cg-eyes {
      opacity: 0;
    }
  
    #cg7897 .cg-time {
      pointer-events: none;
      transition: opacity 0.2s ease;
      opacity: 0;
    }

    #cg7897.get-time .cg-time {
      opacity: 1;
    }

    #cg7897 .cg-time .cg-digit-colon {
      animation: cg-colon-blink 1s ease-in-out 0s infinite;
    }

    @keyframes cg-colon-blink {
      20% {
        opacity: 1;
      }
      50% {
        opacity: 0;
      }
      80% {
        opacity: 1;
      }
    }
  
    #cg7897 .cg-body {
      animation: cg-anim-hover 1.5s ease-in-out -0.93s infinite;
      transform-origin: center;
      transform-box: fill-box;
    }

    @keyframes cg-anim-hover {
      0% {
        transform: translate3d(0,0,0);
      }
      50% {
        transform: translate3d(0,-2px,0);
      }
      100% {
        transform: translate3d(0,0,0);
      }
    }
  
      @keyframes cg-anim-takeoff {
        0% {
          transform: translate3d(0,0,0);
        }
        95% {
          transform: translate3d(0,-120px,0);
        }
        100% {
          transform: translate3d(0,0,0);
        }
      }
    
    #cg7897 .cg-shadow {
      animation: cg-anim-shadow 1.5s ease-in-out -0.93s infinite;
      transform-origin: center;
      transform-box: fill-box;
    }

    @keyframes cg-anim-shadow {
      0% {
        transform: scale3d(1,1,1);
      }
      50% {
        transform: scale3d(0.9,1,1);
      }
      100% {
        transform: scale3d(1,1,1);
      }
    }
  
      @keyframes cg-anim-shadow-takeoff {
        0% {
          transform: scale3d(0.9,1,1);
        }
        95% {
          transform: scale3d(0.1,1,1);
        }
        100% {
          transform: scale3d(1,1,1);
        }
      }
    
      #cg7897 .rocket-flame {
        animation: cg-anim-rocket 0.5s steps(1) -0.3168s infinite;
        transform-origin: center top;
        transform-box: fill-box;
      }

      @keyframes cg-anim-rocket {
        0% {
          transform: scaleX(1) translate3d(0, 0, 0);
        }
        25% {
          transform: scaleX(-1) translate3d(0, -1px, 0);
        }
        50% {
          transform: scaleX(1) translate3d(0, -2px, 0);
        }
        75% {
          transform: scaleX(-1) translate3d(0, -1px, 0);
        }
        100% {
          transform: scaleX(1) translate3d(0, 0, 0);
        }
      }

      @keyframes cg-anim-rocket-blastoff {
        0% {
          transform: scaleX(1) scaleY(1) translate3d(0, 0, 0);
        }
        25% {
          transform: scaleX(-1) scaleY(1.5) translate3d(0, -1px, 0);
        }
        50% {
          transform: scaleX(1) scaleY(2) translate3d(0, -2px, 0);
        }
        75% {
          transform: scaleX(-1) scaleY(1.5) translate3d(0, -1px, 0);
        }
        100% {
          transform: scaleX(1) scaleY(1) translate3d(0, 0, 0);
        }
      }
    
      #cg7897 .dot-1 {
        animation: cg-anim-typing 2s ease-in-out 1.5947s infinite backwards;
      }

      #cg7897 .dot-2 {
        animation: cg-anim-typing 2s ease-in-out 1.7947s infinite backwards;
      }

      #cg7897 .dot-3 {
        animation: cg-anim-typing 2s ease-in-out 1.9947s infinite backwards;
      }

      @keyframes cg-anim-typing {
        0% {
          opacity: 0.25;
        }
        50% {
          opacity: 1;
        }
        90% {
          opacity: 1;
        }
        100% {
          opacity: 0.25;
        }
      }
    </style><path class="cg-bg" d="M0 0h89v89H0z" fill="#FFF75F"></path><g id="dot-emote"><g id="dot-emote-bg-right"><g><path d="M68 11v-1h2V9h7v1h2v2h1v6h-1v2h-2v1h-7v-1h-3v-1h1v-1h-1v-6h1v-1zM81 12v6h-1v-6h1z"/><path d="M79 19v-1h1v2h-1v-1zM79 10h1v2h-1v-2zM79 9v1h-2V9h2zM77 21v-1h2v1h-2zM77 8v1h-7V8h7zM77 21v1h-7v-1h7zM70 9v1h-2V9h2zM67 12v-2h1v2h-1zM67 18h1v1h-1zM67 16v2h-1v-6h1v4zM66 20v-1h1v1h3v1h-5v-1h1z"/></g></g><path fill="#FFF599" d="M68 11v-1h2V9h7v1h2v2h1v6h-1v2h-2v1h-7v-1h-3v-1h1v-1h-1v-6h1v-1z"/><g id="dot-emote-highlight-right" opacity=".6"><g><g fill="#FFF"><path d="M79.5 13.5v3h-1v-3h1zM77.5 11.5h1v1h-1zM76.5 10.5v1h-2v-1h2z"/></g></g></g><g id="dot-emote-symbol-right"><path class="dot-1" d="M69 14v2h2v-2h-2z"/><path class="dot-2" d="M72 14v2h2v-2h-2z"/><path class="dot-3" d="M76 14h-1v2h2v-2h-1z"/></g></g><path class="cg-shadow" opacity=".17" d="M60 79v-1H29v1h-2v1h3v1h29v-1h3v-1z"/><g class="cg-body"><g id="rockets"><g id="rocket-right"><g class="rocket-flame"><path fill="#FF4E00" d="M65 57h-1v4h-1v5h1v1h-1v4h1v1h-1v2h1v1h1v-5h-1v-2h1v-1h1v-7h1v-3h-2zM63 59v-2h-1v4h1v-2z"/><path fill="#FF9945" d="M66 56h-4v1h1v4h1v5h1v-6h1v-3h1v-1h-1z"/><path fill="#F9F871" d="M65 56h-2v2h1v3h1v-1h1v-4h-1z"/></g><path d="M69 39v-1h-1v-1h-7v1h-1v1h-1v13h1v1h1v2h1v1h5v-1h1v-2h1v-1h1V39h-1z"/><g><path fill="#B3B3B3" d="M67 54v1h-5v-1h5z"/><path fill="#3F3F3F" d="M61 39v-1h7v1h1v13h-1v1h-7v-1h-1V39h1z"/></g><path opacity=".17" d="M68 39v1h-1v11h-1v-3h-1v-2h-1v-3h-1v-5h-2v1h-1v13h1v1h7v-1h1V39h-1z"/></g><g id="rocket-left"><g class="rocket-flame"><path fill="#FF4E00" d="M24 57h1v4h1v5h-1v1h1v4h-1v1h1v2h-1v1h-1v-5h1v-2h-1v-1h-1v-7h-1v-3h2zM26 59v-2h1v4h-1v-2z"/><path fill="#FF9945" d="M23 56h4v1h-1v4h-1v5h-1v-6h-1v-3h-1v-1h1z"/><path fill="#F9F871" d="M24 56h2v2h-1v3h-1v-1h-1v-4h1z"/></g><path d="M20 39v-1h1v-1h7v1h1v1h1v13h-1v1h-1v2h-1v1h-5v-1h-1v-2h-1v-1h-1V39h1z"/><g><path fill="#B3B3B3" d="M22 54v1h5v-1h-5z"/><path fill="#3F3F3F" d="M28 39v-1h-7v1h-1v13h1v1h7v-1h1V39h-1z"/></g><path opacity=".18" d="M21 39v1h1v11h1v-3h1v-2h1v-3h1v-5h2v1h1v13h-1v1h-7v-1h-1V39h1z"/></g></g><path d="M63 47v-4h-1v-3h-1v-2h-1v-1h-1v-1h-1v-1h-1v-1h-1v-1h-1v-1h-2v-1h-2v-1H38v1h-2v1h-2v1h-1v1h-1v1h-1v1h-1v1h-1v1h-1v2h-1v3h-1v4h-1v13h1v3h1v3h1v1h1v1h1v1h2v1h2v-1h1v-1h1v-4h1v3h1v1h1v1h2v-1h1v-1h1v-4h1v-1h1v1h1v4h1v1h1v1h2v-1h1v-1h1v-3h1v4h1v1h1v1h2v-1h2v-1h1v-1h1v-1h1v-3h1v-3h1V47z"/><path class="cg-body-color" fill="#ACE5F3" d="M62 47v-4h-1v-3h-1v-2h-1v-1h-1v-1h-1v-1h-1v-1h-1v-1h-2v-1h-2v-1H38v1h-2v1h-2v1h-1v1h-1v1h-1v1h-1v1h-1v2h-1v3h-1v4h-1v13h1v3h1v3h1v1h1v1h2v1h2v-1h1v-4h1v-1h1v1h1v3h1v1h2v-1h1v-4h1v-1h1v-1h1v1h1v1h1v4h1v1h2v-1h1v-3h1v-1h1v1h1v4h1v1h2v-1h2v-1h1v-1h1v-3h1v-3h1V47z"/><g class="cg-face"><path d="M39 36v1h-3v1h-1v1h-1v1h-1v2h-1v2h1v1h1v1h2v1h3v1h11v-1h3v-1h2v-1h1v-1h1v-2h-1v-2h-1v-1h-1v-1h-1v-1h-3v-1z"/><path fill="#FFF" d="M39 37v1h-3v1h-1v1h-1v2h-1v2h1v1h2v1h3v1h11v-1h3v-1h2v-1h1v-2h-1v-2h-1v-1h-1v-1h-3v-1z"/><g class="cg-eyes"><path d="M53 42h-1v-1h1v1zm-3 0v2h2v-2h-2zm-1 3h1v-1h-1v1zm0-4v1h1v-1h-1zm-9 4v-1h-1v1h1zm-4 0h1v-1h-1v1zm17 0v-1h-1v1h1zm-16-3h-1v1h1v1h2v-1h1v-1h-3z"/></g><g class="cg-digits" style="display: none;"><g class="cg-digit-zero"><path d="M38 40h-2v5h3v-5h-1zm0 2v2h-1v-3h1v1z"/></g><g class="cg-digit-one"><path d="M39 44v1h-3v-1h1v-2h-1v-1h1v-1h1v4h1z"/></g><g class="cg-digit-two"><path d="M39 42h-1v-1h1v1zm-1 3h1v-1h-2v1h1zm0-3h-1v1h1v-1zm-1-2h-1v1h2v-1h-1zm-1 3v1h1v-1h-1z"/></g><g class="cg-digit-three"><path d="M38 44v-1h1v1h-1zm1-3h-1v1h1v-1zm-2 1v1h1v-1h-1zm0-2h-1v1h2v-1h-1zm-1 4v1h2v-1h-2z"/></g><g class="cg-digit-four"><path d="M39 41v4h-1v-2h-2v-3h1v2h1v-1h1z"/></g><g class="cg-digit-five"><path d="M38 44v-1h1v1h-1zm0-3h1v-1h-3v3h2v-1h-1v-1h1zm-2 3v1h2v-1h-2z"/></g><g class="cg-digit-six"><path d="M38 41h-1v-1h2v1h-1zm-2 0v3h1v-1h1v1h-1v1h2v-3h-2v-1h-1z"/></g><g class="cg-digit-seven"><path d="M39 40v5h-1v-4h-2v-1h3z"/></g><g class="cg-digit-eight"><path d="M38 40h-2v5h3v-5h-1zm0 4h-1v-1h1v1zm0-2h-1v-1h1v1z"/></g><g class="cg-digit-nine"><path d="M38 40h-2v3h2v2h1v-5h-1zm0 2h-1v-1h1v1z"/></g><g class="cg-digit-colon"><path d="M45 42h-1v-1h1v1zm0 1h-1v1h1v-1z"/></g></g><g class="cg-time"></g></g><g id="mummy"><g><path d="M63 47v-1H36v1H25v13h1v3h8v-1h20v-1h9v-1h1V47h-1zM40 39v1h1v1h20v-3h-1v-1h-1v-1h-1v-1h-1v-1h-1v-1h-1v-1h-2v-1h-2v-1H38v1h-2v1h-2v1h-1v1h-1v1h-1v1h-1v1h-1v1h-1v1h12z"/></g><g fill="#FFF"><path d="M60 57h3v3h-9v1H34v1h-7v-2h-1v-3h13v-1h11v1h10zM60 53h3v3H50v-1H39v1H26v-5h8v1h21v1h5z"/><path d="M60 47h3v5h-8v-1H34v-1h-8v-2h10v-1h24zM60 38v2H41v-1h-1v-1H30v-1h1v-1h1v-1h13v1h13v1h1v1h1zM56 34v1H45v-1H34v-1h2v-1h2v-1h13v1h2v1h2v1h1z"/></g><g><path d="M56 47h1v2h-1zM45 36h1v2h-1zM44 38h1v2h-1zM55 49h1v3h-1z"/></g><g><path opacity=".17" d="M26 48h2v12h-2zM30 37h2v1h-2zM31 36h2v1h-2zM32 35h2v1h-2zM34 33h2v1h-2zM36 32h2v1h-2zM38 31h2v1h-2zM27 60h2v2h-2z"/></g></g><g id="wrench"><g><path d="M73 64v-1h-1v-1h-5v1h-1v1h-4v2h-1v1h-1v1h-1v1h7v1h1v1h5v-1h1v-1h1v-5h-1zm-4 4h-1v-3h3v3h-2zM31 68h1v1h-1zM53 67v-3H36v4h-1v1h4v-1h-1v-1h-1v-2h6v2h-1v1h-1v1h7v-1h-1v-1h-1v-2h6v2h-1v1h-1v1h4v-1h-1v-1zM29 67h-1v-1h-1v-2h-2v-1h-3v-1h-2v-1h-1v-1h-5v1h-1v1h-1v2h5v3h-5v2h1v1h2v1h2v1h2v-1h1v-1h1v-1h9v-1h-1v-1z"/></g><g><g fill="#7F7F7F"><path d="M72 64v-1h-5v1h-1v1h-4v1h-1v1h-1v1h6v1h1v1h5v-1h1v-5h-1zm0 2v2h-1v1h-3v-1h-1v-3h1v-1h3v1h1v1zM28 66h-1v-1h-2v-1h-3v-1h-2v-1h-1v-1h-5v1h-1v1h4v1h1v7h1v-1h1v-1h1v-1h8v-1h-1v-1zm-7-1v2h-2v-3h2v1z"/><path d="M15 68h-2v1h2v1h2v-2h-1zM46 65H36v3h17v-3h-1z"/></g><path opacity=".28" d="M36 66h17v1H36zM61 66h3v1h-3zM25 66h3v1h-3zM13 68h4v1h-4z"/><path opacity=".15" fill="#FFF" d="M19 65h2v1h-2z"/></g></g><g class="cg-glasses" id="nerdy-glasses"><g><path d="M61 42h-2v1h3v-1h-1zM58 41h-1v-1h-1v7h1v-5h2v-1h-1zM55 47h1v1h-1zM55 39h1v1h-1zM55 39v-1h-7v1h7zM48 48v1h7v-1h-7zM47 47h1v1h-1zM47 39h1v1h-1zM42 47h1v-7h-1v7zM47 40h-1v7h1v-7zM43 39v1h3v-1h-3zM41 47h1v1h-1zM41 39h1v1h-1zM41 39v-1h-7v1h7zM34 48v1h7v-1h-7zM33 47h1v1h-1zM33 39h1v1h-1zM33 40h-1v1h-2v1h2v5h1v-7zM27 42v1h3v-1h-3z"/></g><path opacity=".43" fill="#0FF" d="M41 40h1v7h-1v1h-7v-1h-1v-7h1v-1h7v1zm14 0v-1h-7v1h-1v7h1v1h7v-1h1v-7h-1z"/></g><g id="deal-with-it-glasses"><path d="M64 42h-3v1h4v-1zM60 41H28v1h1v2h1v2h1v2h1v1h9v-1h1v-2h1v-2h1v-2h1v2h1v2h1v2h1v1h9v-1h1v-2h1v-2h1v-2h1v-1z"/><path fill="#FFF" d="M33 45v1h-1v-2h1v1zm0 2h1v-1h-1v1zm2-3h-1v2h1v-2zm0 3h1v-1h-1v1zm-1-4h-1v1h1v-1zm-3 0v1h1v-1h-1zm18 1h-1v2h1v-2zm0 3h1v-1h-1v1zm2-3h-1v2h1v-2zm0 2v1h1v-1h-1zm-1-3h-1v1h1v-1zm-3 0v1h1v-1h-1z"/></g></g><a href="/images/png/cg7897-512.png" class="button png-square"><path class="button-bg" d="M26 75h13v11H26z"/><path fill="#FFF" d="M36 77h-1v1h1v5h-1v1h2v-7zm-8 0v7h2v-1h-1v-5h1v-1h-1zm6 3h1v1h-1zm-4 0h1v1h-1zm3 0v-2h-1v3h-1v1h1v1h1v-1h1v-1h-1z"/><title>Download square PNG</title></a><a href="/images/png/cg7897-wide.png" class="button png-wide"><path class="button-bg" d="M42 75h21v11H42z"/><path fill="#FFF" d="M60 77h-1v1h1v5h-1v1h2v-7zm-16 0v7h2v-1h-1v-5h1v-1h-1zm10 3h1v1h-1zm-4 0h1v1h-1zm3 0v-2h-1v3h-1v1h1v1h1v-1h1v-1h-1z"/><title>Download wide PNG</title></a><script type="text/javascript"><![CDATA[
    let cg7897Root = document.getElementById('cg7897');

    if (cg7897Root) {
      let cgRoot = cg7897Root;
      let cgBg = cgRoot.querySelector('.cg-bg');
      let cgBody = cgRoot.querySelector('.cg-body');

      cgBg.addEventListener('dblclick', () => {
        cgRoot.classList.toggle('menu-in');
      });

      cgBody.addEventListener('click', () => {

        let bufferArray = [];
        let lastKeystrokeTime = Date.now();
        const cheatcode = (e) => {

          const key = e.key.toLowerCase();
          const latestKeystrokeTime = Date.now();

          if (latestKeystrokeTime - lastKeystrokeTime > 1500) {
            bufferArray = [];
          }

          bufferArray.push(key);

          const word = bufferArray.join('');
          if (word === 'dealwithit') {
            console.log('No u.');

            cgRoot.classList.add('deal-with-it');

            setTimeout(() => {
              cgRoot.classList.remove('deal-with-it');
            }, 10000);

            clearListener();
          }
  

      if (word === 'blastoff') {
        console.log('Prepare for takeoff!');

        cgRoot.classList.add('blastoff');

        setTimeout(() => {
          cgRoot.classList.remove('blastoff');
        }, 10000);

        clearListener();
      }

    
          lastKeystrokeTime = latestKeystrokeTime;

        }
        document.addEventListener('keyup', cheatcode, true);

        const clearListener = () => {
          document.removeEventListener('keyup', cheatcode, true);
        }

      });
    
    let cgDigits = cgRoot.querySelector('.cg-digits');
    let cgTime = cgRoot.querySelector('.cg-time');
  

      let cgGlasses = cgRoot.querySelector('.cg-glasses');
      cgGlasses.addEventListener('dblclick', () => {
        cgRoot.classList.add('get-time');

        let now = new Date();
        let hours = ('0' + now.getHours()).substr(-2);
        let minutes = ('0' + now.getMinutes()).substr(-2);;
        let digits = [hours.substr(0,1), hours.substr(1), minutes.substr(0,1), minutes.substr(1)];

        cgTime.replaceChildren();

        for (let i = 0; i < 4; i++) {
          switch (digits[i]) {
            case '0':
              cgTime.appendChild(cgDigits.querySelector('.cg-digit-zero').cloneNode(true));
              break;
            case '1':
              cgTime.appendChild(cgDigits.querySelector('.cg-digit-one').cloneNode(true));
              break;
            case '2':
              cgTime.appendChild(cgDigits.querySelector('.cg-digit-two').cloneNode(true));
              break;
            case '3':
              cgTime.appendChild(cgDigits.querySelector('.cg-digit-three').cloneNode(true));
              break;
            case '4':
              cgTime.appendChild(cgDigits.querySelector('.cg-digit-four').cloneNode(true));
              break;
            case '5':
              cgTime.appendChild(cgDigits.querySelector('.cg-digit-five').cloneNode(true));
              break;
            case '6':
              cgTime.appendChild(cgDigits.querySelector('.cg-digit-six').cloneNode(true));
              break;
            case '7':
              cgTime.appendChild(cgDigits.querySelector('.cg-digit-seven').cloneNode(true));
              break;
            case '8':
              cgTime.appendChild(cgDigits.querySelector('.cg-digit-eight').cloneNode(true));
              break;
            case '9':
              cgTime.appendChild(cgDigits.querySelector('.cg-digit-nine').cloneNode(true));
              break;
          }
        }

        cgTime.childNodes[1].style.transform = 'translateX(4px)';
        cgTime.childNodes[2].style.transform = 'translateX(10px)';
        cgTime.childNodes[3].style.transform = 'translateX(14px)';

        cgTime.appendChild(cgDigits.querySelector('.cg-digit-colon').cloneNode(true));

        setTimeout(() => {
          cgRoot.classList.remove('get-time');
        }, 10000);
      });

    }]]></script></svg>