<svg id="cg8176" xmlns="http://www.w3.org/2000/svg" viewBox="0 0 89 89"><style>
    #cg8176 {
      overflow: hidden;
    }

    #cg8176 .button {
      opacity: 0;
      pointer-events: none;
      transition: 0.2s ease;
      transform: translate3d(0, 20px, 0);
    }

    #cg8176 .button.png-wide {
      transition-delay: 0.2s;
    }

    #cg8176.menu-in .button {
      opacity: 1;
      pointer-events: auto;
      cursor: pointer;
      transform: translate3d(0, 0, 0);
    }

    #cg8176.menu-in .button .button-bg {
      transition: fill 0.2s ease;
    }

    #cg8176.menu-in .button:hover .button-bg {
      fill: #FF5FFA;
    }

    #cg8176 .cg-glasses {
      transition: opacity 0.2s ease;
    }

    #cg8176 #deal-with-it-glasses {
      opacity: 0;
      pointer-events: none;
      transition: opacity 0.2s ease, transform 3s linear;
      transform: translate3d(0, -60px, 0);
    }

    #cg8176.deal-with-it #deal-with-it-glasses {
      opacity: 1;
      transform: translate3d(0, 0, 0);
    }

    #cg8176.deal-with-it .cg-glasses {
      opacity: 0;
      transition-delay: 2s;
    }

  
      #cg8176 .cg-glasses {
        transition: opacity 0.2s ease;
      }

      #cg8176.get-time .cg-glasses {
        opacity: 0;
      }
    
    #cg8176 .cg-eyes {
      transition: opacity 0.2s ease;
    }

    #cg8176.get-time .cg-eyes {
      opacity: 0;
    }
  
    #cg8176 .cg-time {
      pointer-events: none;
      transition: opacity 0.2s ease;
      opacity: 0;
    }

    #cg8176.get-time .cg-time {
      opacity: 1;
    }

    #cg8176 .cg-time .cg-digit-colon {
      animation: cg-colon-blink 1s ease-in-out 0s infinite;
    }

    @keyframes cg-colon-blink {
      20% {
        opacity: 1;
      }
      50% {
        opacity: 0;
      }
      80% {
        opacity: 1;
      }
    }
  
    #cg8176 .cg-body {
      animation: cg-anim-hover 1.5s ease-in-out -1.361s infinite;
      transform-origin: center;
      transform-box: fill-box;
    }

    @keyframes cg-anim-hover {
      0% {
        transform: translate3d(0,0,0);
      }
      50% {
        transform: translate3d(0,-2px,0);
      }
      100% {
        transform: translate3d(0,0,0);
      }
    }
  
    #cg8176 .cg-shadow {
      animation: cg-anim-shadow 1.5s ease-in-out -1.361s infinite;
      transform-origin: center;
      transform-box: fill-box;
    }

    @keyframes cg-anim-shadow {
      0% {
        transform: scale3d(1,1,1);
      }
      50% {
        transform: scale3d(0.9,1,1);
      }
      100% {
        transform: scale3d(1,1,1);
      }
    }
  
      @keyframes cg-anim-rgb {
        0% {
          fill: #FF5F5F;
        }
        11.1111% {
          fill: #FFA45F;
        }
        22.2222% {
          fill: #BAFF5F;
        }
        33.3333% {
          fill: #5FFF74;
        }
        44.4444% {
          fill: #5FFFCE;
        }
        55.5555% {
          fill: #5FD9FF;
        }
        66.6666% {
          fill: #5F6AFF;
        }
        77.7777% {
          fill: #AA5FFF;
        }
        88.8888% {
          fill: #FF5FFA;
        }
        100% {
          fill: #FF5F5F;
        }
      }
    
      #cg8176 .star-color {
        animation: cg-anim-rgb 5s linear -2.6827s infinite;
      }
    
      #cg8176 .spliff-cherry {
        animation: cg-anim-burn 2s linear -0.8404s infinite;
      }

      #cg8176 .spliff-smoke {
        animation: cg-anim-smoke 2s steps(1) -0.8404s infinite;
        transform-origin: center;
        transform-box: fill-box;
      }

      @keyframes cg-anim-burn {
        0% {
          fill: red;
        }
        50% {
          fill: orange;
        }
        100% {
          fill: red;
        }
      }

      @keyframes cg-anim-smoke {
        0% {
          transform: scaleX(1) translate3d(1px, 0, 0);
        }
        50% {
          transform: scaleX(-1) translate3d(-2px, 0, 0);
        }
        100% {
          transform: scaleX(1) translate3d(1px, 0, 0);
        }
      }
    </style><path class="cg-bg" d="M0 0h89v89H0z" fill="#7850FF"></path><g id="star-expression"><path d="M25 16h1v1h-1zM24 17h1v1h-1zM22 6h1v1h-1zM23 16h2v-1h-3v1h1zM22 18v1h2v-1h-2zM21 5h1v1h-1zM21 7h1v1h-1zM22 15v-1h-2v1h2zM21 17h-1v1h2v-1h-1zM20 4h1v1h-1zM20 8h1v1h-1zM20 15h-1v2h1v-2zM19 5h1v1h-1zM19 10h1V9h-1V6h-1v5h1v-1zM16 14v1h1v-2h-1v1zM15 11h1V9h-1v2zM15 12h1v1h-1zM14 11h1v1h-1zM14 15h-1v1h3v-1h-2zM12 16h1v1h-1zM12 9h3V8h-4v1h1zM11 17h1v1h-1zM10 7h1v1h-1zM10 7V6H8v1h2zM9 18v1h2v-1H9zM8 17h1v1H8zM8 9V7H7v3h1V9zM8 15H7v2h1v-2zM6 10h1v1H6zM6 14H5v1h2v-1H6zM5 11h1v1H5zM5 12H4v2h1v-2z"/><g><path class="star-color" fill="#FECAD2" d="M16 13v2h-3v1h-1v1h-1v1H9v-1H8v-2H7v-1H5v-2h1v-1h1v-1h1V7h2v1h1v1h4v2h-1v1h1v1h1z"/></g><g><path class="star-color" fill="#FECAD2" d="M22 6v1h-1v1h-1v1h-1V6h1V5h1v1h1z"/></g><g><path class="star-color" fill="#FECAD2" d="M25 16v1h-1v1h-2v-1h-2v-2h2v1h3z"/></g><g opacity=".71" fill="#FFF"><path d="M15 13h1v1h-1zM14 12h1v1h-1zM15 10V9h-1v1h1zM10 8h1v1h-1zM14 10h1v1h-1zM9 7h1v1H9zM15 14h1v1h-1zM12 15h1v1h-1zM21 6h1v1h-1zM20 5h1v1h-1zM20 7h1v1h-1zM19 8h1v1h-1zM24 16h1v1h-1zM23 17h1v1h-1zM21 15h1v1h-1zM11 16h1v1h-1zM10 17h1v1h-1z"/></g></g><path class="cg-shadow" opacity=".17" d="M60 79v-1H29v1h-2v1h3v1h29v-1h3v-1z"/><g class="cg-body"><g id="elf-ears"><g id="elf-ears-bg"><path d="M31 35h-1v-1h-1v-1h-2v-1h-4v-1h-4v-1h-7v-1H8v3h1v2h1v2h1v1h1v1h1v1h1v1h1v1h1v1h1v1h3v1h7v-1h1v-3h1v-2h1v-1h1v-1h1v-1h-1zM58 35h1v-1h1v-1h2v-1h4v-1h4v-1h7v-1h4v3h-1v2h-1v2h-1v1h-1v1h-1v1h-1v1h-1v1h-1v1h-1v1h-3v1h-7v-1h-1v-3h-1v-2h-1v-1h-1v-1h-1v-1h1z"/></g><g id="elf-ears-outer" fill="#33FFFF"><path d="M29 35v-1h-2v-1h-4v-1h-4v-1h-7v-1H9v2h1v2h1v2h1v1h1v1h1v1h1v1h1v1h1v1h3v1h7v-3h1v-2h1v-1h1v-2h-1zm-3 6v1h-5v-1h-3v-1h-1v-1h-1v-1h-1v-1h-1v-1h-1v-2h-1v-1h-1v-1h4v1h6v1h2v1h1v1h1v1h1v4zM59 35v2h1v1h1v2h1v3h7v-1h3v-1h1v-1h1v-1h1v-1h1v-1h1v-1h1v-2h1v-2h1v-2h-3v1h-7v1h-4v1h-4v1h-2v1h-1zm4 2h1v-1h1v-1h1v-1h2v-1h6v-1h4v1h-1v1h-1v2h-1v1h-1v1h-1v1h-1v1h-1v1h-3v1h-5v-5z"/></g><g id="elf-ears-inner" fill="#FF9271"><path d="M24 37v-1h-1v-1h-2v-1h-6v-1h-2v1h1v2h1v1h1v1h1v1h1v1h3v1h4v-4h-1zM65 37v-1h1v-1h2v-1h6v-1h2v1h-1v2h-1v1h-1v1h-1v1h-1v1h-3v1h-4v-4h1z"/></g></g><path d="M63 47v-4h-1v-3h-1v-2h-1v-1h-1v-1h-1v-1h-1v-1h-1v-1h-1v-1h-2v-1h-2v-1H38v1h-2v1h-2v1h-1v1h-1v1h-1v1h-1v1h-1v1h-1v2h-1v3h-1v4h-1v13h1v3h1v3h1v1h1v1h1v1h2v1h2v-1h1v-1h1v-4h1v3h1v1h1v1h2v-1h1v-1h1v-4h1v-1h1v1h1v4h1v1h1v1h2v-1h1v-1h1v-3h1v4h1v1h1v1h2v-1h2v-1h1v-1h1v-1h1v-3h1v-3h1V47z"/><path class="cg-body-color" fill="#33FFFF" d="M62 47v-4h-1v-3h-1v-2h-1v-1h-1v-1h-1v-1h-1v-1h-1v-1h-2v-1h-2v-1H38v1h-2v1h-2v1h-1v1h-1v1h-1v1h-1v1h-1v2h-1v3h-1v4h-1v13h1v3h1v3h1v1h1v1h2v1h2v-1h1v-4h1v-1h1v1h1v3h1v1h2v-1h1v-4h1v-1h1v-1h1v1h1v1h1v4h1v1h2v-1h1v-3h1v-1h1v1h1v4h1v1h2v-1h2v-1h1v-1h1v-3h1v-3h1V47z"/><g class="cg-face"><path d="M39 36v1h-3v1h-1v1h-1v1h-1v2h-1v2h1v1h1v1h2v1h3v1h11v-1h3v-1h2v-1h1v-1h1v-2h-1v-2h-1v-1h-1v-1h-1v-1h-3v-1z"/><path fill="#FFF" d="M39 37v1h-3v1h-1v1h-1v2h-1v2h1v1h2v1h3v1h11v-1h3v-1h2v-1h1v-2h-1v-2h-1v-1h-1v-1h-3v-1z"/><g class="cg-eyes"><path d="M52 44h1v-2h-1v2zM52 43v-1h-3v1h3zM49 44v1h3v-1h-3zM49 43v-1h-1v2h1v-1zM40 42v2h1v-3h-1v1zM38 44h-1v1h3v-1h-2zM39 42h1v-1h-3v1h2zM37 42v-1h-1v3h1v-2z"/></g><g class="cg-digits" style="display: none;"><g class="cg-digit-zero"><path d="M38 40h-2v5h3v-5h-1zm0 2v2h-1v-3h1v1z"/></g><g class="cg-digit-one"><path d="M39 44v1h-3v-1h1v-2h-1v-1h1v-1h1v4h1z"/></g><g class="cg-digit-two"><path d="M39 42h-1v-1h1v1zm-1 3h1v-1h-2v1h1zm0-3h-1v1h1v-1zm-1-2h-1v1h2v-1h-1zm-1 3v1h1v-1h-1z"/></g><g class="cg-digit-three"><path d="M38 44v-1h1v1h-1zm1-3h-1v1h1v-1zm-2 1v1h1v-1h-1zm0-2h-1v1h2v-1h-1zm-1 4v1h2v-1h-2z"/></g><g class="cg-digit-four"><path d="M39 41v4h-1v-2h-2v-3h1v2h1v-1h1z"/></g><g class="cg-digit-five"><path d="M38 44v-1h1v1h-1zm0-3h1v-1h-3v3h2v-1h-1v-1h1zm-2 3v1h2v-1h-2z"/></g><g class="cg-digit-six"><path d="M38 41h-1v-1h2v1h-1zm-2 0v3h1v-1h1v1h-1v1h2v-3h-2v-1h-1z"/></g><g class="cg-digit-seven"><path d="M39 40v5h-1v-4h-2v-1h3z"/></g><g class="cg-digit-eight"><path d="M38 40h-2v5h3v-5h-1zm0 4h-1v-1h1v1zm0-2h-1v-1h1v1z"/></g><g class="cg-digit-nine"><path d="M38 40h-2v3h2v2h1v-5h-1zm0 2h-1v-1h1v1z"/></g><g class="cg-digit-colon"><path d="M45 42h-1v-1h1v1zm0 1h-1v1h1v-1z"/></g></g><g class="cg-time"></g></g><g id="spliff"><g><g><g><path d="M61 51h1v1h-1zM61 49h1v1h-1zM61 50h1v1h-1zM61 52h1v1h-1zM60 49h1v1h-1zM60 52h1v1h-1zM59 49h1v1h-1zM59 52h1v1h-1zM58 49h1v1h-1zM58 52h1v1h-1zM57 49h1v1h-1zM57 52h1v1h-1zM56 49h1v1h-1zM56 52h1v1h-1zM55 50h1v1h-1zM55 52h1v1h-1zM54 50h1v1h-1zM54 52h1v1h-1zM53 50h1v1h-1zM53 52h1v1h-1zM52 50h1v1h-1zM52 52h1v1h-1zM51 50h1v1h-1zM51 53h1v1h-1zM50 50h1v1h-1zM50 53h1v1h-1zM49 51h1v1h-1zM49 53h1v1h-1zM48 51h1v1h-1z"/><path fill="#FFF" d="M51 51h5v-1h5v2h-9v1h-5v-1h3v-1z"/><path d="M48 53h1v1h-1zM47 51h1v1h-1zM47 53h1v1h-1zM46 52h1v1h-1zM45 52h1v1h-1z"/></g></g><path class="spliff-cherry" fill="red" d="M60 50h1v2h-1z"/></g><g class="spliff-smoke" fill="gray"><path d="M60 49h1v-2h-1v1zM58 41h1v1h-1zM59 40h1v1h-1zM60 42h-1v2h1v-1zM60 44h1v1h-1zM60 45h-1v2h1v-1z"/></g></g><g id="piercing"><path d="M64 65v-1h-1v-1h-1v5h-3v-3h-1v-1h-1v1h-1v4h1v1h1v1h5v-1h1v-1h1v-4z"/><g><path fill="#FFD527" d="M63 65v-1h-1v2h1v2h-1v1h-3v-1h-1v-3h-1v4h1v1h5v-1h1v-4z"/><path opacity=".58" fill="#FFF" d="M62 64h1v1h-1zM63 65h1v1h-1z"/></g></g><g class="cg-glasses" id="stylish-glasses"><path d="M57 44h1v2h-1v-2zm-1 3h1v-1h-1v1zm-1 1h1v-1h-1v1zm-2 0h-5v1h7v-1h-2zm-6-1v1h1v-1h-1zm-1-1v1h1v-1h-1zm-4 1h1v-1h-1v1zm-1 1h1v-1h-1v1zm-2 0h-5v1h7v-1h-2zm-6-1v1h1v-1h-1zm-1-1v1h1v-1h-1zm0-2h-1v2h1v-2zm29-4H27v1h1v1h1v1h1v1h1v-3h12v5h1v-2h1v2h1v-5h12v3h1v-1h1v-1h1v-1h1v-1h-1z"/><path opacity=".54" fill="#85DEFF" d="M43 45v1h-1v1h-1v1h-7v-1h-1v-1h-1v-2h-1v-3h12v4zm3-4v5h1v1h1v1h7v-1h1v-1h1v-2h1v-3H46z"/></g><g id="deal-with-it-glasses"><path d="M64 42h-3v1h4v-1zM60 41H28v1h1v2h1v2h1v2h1v1h9v-1h1v-2h1v-2h1v-2h1v2h1v2h1v2h1v1h9v-1h1v-2h1v-2h1v-2h1v-1z"/><path fill="#FFF" d="M33 45v1h-1v-2h1v1zm0 2h1v-1h-1v1zm2-3h-1v2h1v-2zm0 3h1v-1h-1v1zm-1-4h-1v1h1v-1zm-3 0v1h1v-1h-1zm18 1h-1v2h1v-2zm0 3h1v-1h-1v1zm2-3h-1v2h1v-2zm0 2v1h1v-1h-1zm-1-3h-1v1h1v-1zm-3 0v1h1v-1h-1z"/></g></g><a href="/images/png/cg8176-512.png" class="button png-square"><path class="button-bg" d="M26 75h13v11H26z"/><path fill="#FFF" d="M36 77h-1v1h1v5h-1v1h2v-7zm-8 0v7h2v-1h-1v-5h1v-1h-1zm6 3h1v1h-1zm-4 0h1v1h-1zm3 0v-2h-1v3h-1v1h1v1h1v-1h1v-1h-1z"/><title>Download square PNG</title></a><a href="/images/png/cg8176-wide.png" class="button png-wide"><path class="button-bg" d="M42 75h21v11H42z"/><path fill="#FFF" d="M60 77h-1v1h1v5h-1v1h2v-7zm-16 0v7h2v-1h-1v-5h1v-1h-1zm10 3h1v1h-1zm-4 0h1v1h-1zm3 0v-2h-1v3h-1v1h1v1h1v-1h1v-1h-1z"/><title>Download wide PNG</title></a><script type="text/javascript"><![CDATA[
    let cg8176Root = document.getElementById('cg8176');

    if (cg8176Root) {
      let cgRoot = cg8176Root;
      let cgBg = cgRoot.querySelector('.cg-bg');
      let cgBody = cgRoot.querySelector('.cg-body');

      cgBg.addEventListener('dblclick', () => {
        cgRoot.classList.toggle('menu-in');
      });

      cgBody.addEventListener('click', () => {

        let bufferArray = [];
        let lastKeystrokeTime = Date.now();
        const cheatcode = (e) => {

          const key = e.key.toLowerCase();
          const latestKeystrokeTime = Date.now();

          if (latestKeystrokeTime - lastKeystrokeTime > 1500) {
            bufferArray = [];
          }

          bufferArray.push(key);

          const word = bufferArray.join('');
          if (word === 'dealwithit') {
            console.log('No u.');

            cgRoot.classList.add('deal-with-it');

            setTimeout(() => {
              cgRoot.classList.remove('deal-with-it');
            }, 10000);

            clearListener();
          }
  
          lastKeystrokeTime = latestKeystrokeTime;

        }
        document.addEventListener('keyup', cheatcode, true);

        const clearListener = () => {
          document.removeEventListener('keyup', cheatcode, true);
        }

      });
    
    let cgDigits = cgRoot.querySelector('.cg-digits');
    let cgTime = cgRoot.querySelector('.cg-time');
  

      let cgGlasses = cgRoot.querySelector('.cg-glasses');
      cgGlasses.addEventListener('dblclick', () => {
        cgRoot.classList.add('get-time');

        let now = new Date();
        let hours = ('0' + now.getHours()).substr(-2);
        let minutes = ('0' + now.getMinutes()).substr(-2);;
        let digits = [hours.substr(0,1), hours.substr(1), minutes.substr(0,1), minutes.substr(1)];

        cgTime.replaceChildren();

        for (let i = 0; i < 4; i++) {
          switch (digits[i]) {
            case '0':
              cgTime.appendChild(cgDigits.querySelector('.cg-digit-zero').cloneNode(true));
              break;
            case '1':
              cgTime.appendChild(cgDigits.querySelector('.cg-digit-one').cloneNode(true));
              break;
            case '2':
              cgTime.appendChild(cgDigits.querySelector('.cg-digit-two').cloneNode(true));
              break;
            case '3':
              cgTime.appendChild(cgDigits.querySelector('.cg-digit-three').cloneNode(true));
              break;
            case '4':
              cgTime.appendChild(cgDigits.querySelector('.cg-digit-four').cloneNode(true));
              break;
            case '5':
              cgTime.appendChild(cgDigits.querySelector('.cg-digit-five').cloneNode(true));
              break;
            case '6':
              cgTime.appendChild(cgDigits.querySelector('.cg-digit-six').cloneNode(true));
              break;
            case '7':
              cgTime.appendChild(cgDigits.querySelector('.cg-digit-seven').cloneNode(true));
              break;
            case '8':
              cgTime.appendChild(cgDigits.querySelector('.cg-digit-eight').cloneNode(true));
              break;
            case '9':
              cgTime.appendChild(cgDigits.querySelector('.cg-digit-nine').cloneNode(true));
              break;
          }
        }

        cgTime.childNodes[1].style.transform = 'translateX(4px)';
        cgTime.childNodes[2].style.transform = 'translateX(10px)';
        cgTime.childNodes[3].style.transform = 'translateX(14px)';

        cgTime.appendChild(cgDigits.querySelector('.cg-digit-colon').cloneNode(true));

        setTimeout(() => {
          cgRoot.classList.remove('get-time');
        }, 10000);
      });

    }]]></script></svg>