<svg id="cg8635" xmlns="http://www.w3.org/2000/svg" viewBox="0 0 89 89"><style>
    #cg8635 {
      overflow: hidden;
    }

    #cg8635 .button {
      opacity: 0;
      pointer-events: none;
      transition: 0.2s ease;
      transform: translate3d(0, 20px, 0);
    }

    #cg8635 .button.png-wide {
      transition-delay: 0.2s;
    }

    #cg8635.menu-in .button {
      opacity: 1;
      pointer-events: auto;
      cursor: pointer;
      transform: translate3d(0, 0, 0);
    }

    #cg8635.menu-in .button .button-bg {
      transition: fill 0.2s ease;
    }

    #cg8635.menu-in .button:hover .button-bg {
      fill: #FF5FFA;
    }

    #cg8635 .cg-glasses {
      transition: opacity 0.2s ease;
    }

    #cg8635 #deal-with-it-glasses {
      opacity: 0;
      pointer-events: none;
      transition: opacity 0.2s ease, transform 3s linear;
      transform: translate3d(0, -60px, 0);
    }

    #cg8635.deal-with-it #deal-with-it-glasses {
      opacity: 1;
      transform: translate3d(0, 0, 0);
    }

    #cg8635.deal-with-it .cg-glasses {
      opacity: 0;
      transition-delay: 2s;
    }

  
      #cg8635.blastoff .cg-body {
        animation: cg-anim-takeoff 10s ease-in 0s;
      }

      #cg8635.blastoff .cg-shadow {
        animation: cg-anim-shadow-takeoff 10s ease-in 0s;
      }

      #cg8635.blastoff .rocket-flame {
        animation-name: cg-anim-rocket-blastoff;
      }
    
      #cg8635 .cg-glasses {
        transition: opacity 0.2s ease;
      }

      #cg8635.get-time .cg-glasses {
        opacity: 0;
      }
    
    #cg8635 .cg-eyes {
      transition: opacity 0.2s ease;
    }

    #cg8635.get-time .cg-eyes {
      opacity: 0;
    }
  
    #cg8635 .cg-time {
      pointer-events: none;
      transition: opacity 0.2s ease;
      opacity: 0;
    }

    #cg8635.get-time .cg-time {
      opacity: 1;
    }

    #cg8635 .cg-time .cg-digit-colon {
      animation: cg-colon-blink 1s ease-in-out 0s infinite;
    }

    @keyframes cg-colon-blink {
      20% {
        opacity: 1;
      }
      50% {
        opacity: 0;
      }
      80% {
        opacity: 1;
      }
    }
  
    #cg8635 .cg-body {
      animation: cg-anim-hover 1.5s ease-in-out -1.261s infinite;
      transform-origin: center;
      transform-box: fill-box;
    }

    @keyframes cg-anim-hover {
      0% {
        transform: translate3d(0,0,0);
      }
      50% {
        transform: translate3d(0,-2px,0);
      }
      100% {
        transform: translate3d(0,0,0);
      }
    }
  
      @keyframes cg-anim-takeoff {
        0% {
          transform: translate3d(0,0,0);
        }
        95% {
          transform: translate3d(0,-120px,0);
        }
        100% {
          transform: translate3d(0,0,0);
        }
      }
    
    #cg8635 .cg-shadow {
      animation: cg-anim-shadow 1.5s ease-in-out -1.261s infinite;
      transform-origin: center;
      transform-box: fill-box;
    }

    @keyframes cg-anim-shadow {
      0% {
        transform: scale3d(1,1,1);
      }
      50% {
        transform: scale3d(0.9,1,1);
      }
      100% {
        transform: scale3d(1,1,1);
      }
    }
  
      @keyframes cg-anim-shadow-takeoff {
        0% {
          transform: scale3d(0.9,1,1);
        }
        95% {
          transform: scale3d(0.1,1,1);
        }
        100% {
          transform: scale3d(1,1,1);
        }
      }
    
      #cg8635 .rocket-flame {
        animation: cg-anim-rocket 0.5s steps(1) -0.0348s infinite;
        transform-origin: center top;
        transform-box: fill-box;
      }

      @keyframes cg-anim-rocket {
        0% {
          transform: scaleX(1) translate3d(0, 0, 0);
        }
        25% {
          transform: scaleX(-1) translate3d(0, -1px, 0);
        }
        50% {
          transform: scaleX(1) translate3d(0, -2px, 0);
        }
        75% {
          transform: scaleX(-1) translate3d(0, -1px, 0);
        }
        100% {
          transform: scaleX(1) translate3d(0, 0, 0);
        }
      }

      @keyframes cg-anim-rocket-blastoff {
        0% {
          transform: scaleX(1) scaleY(1) translate3d(0, 0, 0);
        }
        25% {
          transform: scaleX(-1) scaleY(1.5) translate3d(0, -1px, 0);
        }
        50% {
          transform: scaleX(1) scaleY(2) translate3d(0, -2px, 0);
        }
        75% {
          transform: scaleX(-1) scaleY(1.5) translate3d(0, -1px, 0);
        }
        100% {
          transform: scaleX(1) scaleY(1) translate3d(0, 0, 0);
        }
      }
    </style><path class="cg-bg" d="M0 0h89v89H0z" fill="#FFF75F"></path><g id="heart-emote"><path d="M80 12v-2h-1V9h-2V8h-7v1h-2v1h-1v2h-1v6h1v1h-1v1h-1v1h5v1h7v-1h2v-1h1v-2h1v-6h-1z" id="heart-emote-bg-right"/><path fill="#FFE5E9" d="M79 12v-2h-2V9h-7v1h-2v2h-1v6h1v1h-1v1h3v1h7v-1h2v-2h1v-6h-1z"/><g fill="#FFF3F5" id="heart-emote-highlight-right"><path d="M78 13v3h1v-3h-1zM77 11h1v1h-1zM74 10v1h2v-1h-2z"/></g><g fill="#FB8C9F" id="heart-emote-heart-bg-right"><path d="M77 13v3h1v-3h-1zM77 13v-1h-2v1h2zM76 16h1v1h-1zM75 17h1v1h-1zM74 13h1v1h-1zM74 18h1v1h-1zM73 14h1v1h-1zM73 19h1v1h-1zM72 13h1v1h-1zM72 18h1v1h-1zM72 13v-1h-2v1h2zM71 17h1v1h-1zM70 16h1v1h-1zM70 14v-1h-1v3h1v-2z"/></g><g id="heart-emote-heart-inner-right"><path fill="#FAB0BC" d="M77 14v2h-1v1h-1v1h-1v1h-1v-1h-1v-1h-1v-1h-1v-3h2v1h1v1h1v-1h1v-1h2v1z"/></g></g><path class="cg-shadow" opacity=".17" d="M60 79v-1H29v1h-2v1h3v1h29v-1h3v-1z"/><g class="cg-body"><g id="rockets"><g id="rocket-right"><g class="rocket-flame"><path fill="#FF4E00" d="M65 57h-1v4h-1v5h1v1h-1v4h1v1h-1v2h1v1h1v-5h-1v-2h1v-1h1v-7h1v-3h-2zM63 59v-2h-1v4h1v-2z"/><path fill="#FF9945" d="M66 56h-4v1h1v4h1v5h1v-6h1v-3h1v-1h-1z"/><path fill="#F9F871" d="M65 56h-2v2h1v3h1v-1h1v-4h-1z"/></g><path d="M69 39v-1h-1v-1h-7v1h-1v1h-1v13h1v1h1v2h1v1h5v-1h1v-2h1v-1h1V39h-1z"/><g><path fill="#B3B3B3" d="M67 54v1h-5v-1h5z"/><path fill="#3F3F3F" d="M61 39v-1h7v1h1v13h-1v1h-7v-1h-1V39h1z"/></g><path opacity=".17" d="M68 39v1h-1v11h-1v-3h-1v-2h-1v-3h-1v-5h-2v1h-1v13h1v1h7v-1h1V39h-1z"/></g><g id="rocket-left"><g class="rocket-flame"><path fill="#FF4E00" d="M24 57h1v4h1v5h-1v1h1v4h-1v1h1v2h-1v1h-1v-5h1v-2h-1v-1h-1v-7h-1v-3h2zM26 59v-2h1v4h-1v-2z"/><path fill="#FF9945" d="M23 56h4v1h-1v4h-1v5h-1v-6h-1v-3h-1v-1h1z"/><path fill="#F9F871" d="M24 56h2v2h-1v3h-1v-1h-1v-4h1z"/></g><path d="M20 39v-1h1v-1h7v1h1v1h1v13h-1v1h-1v2h-1v1h-5v-1h-1v-2h-1v-1h-1V39h1z"/><g><path fill="#B3B3B3" d="M22 54v1h5v-1h-5z"/><path fill="#3F3F3F" d="M28 39v-1h-7v1h-1v13h1v1h7v-1h1V39h-1z"/></g><path opacity=".18" d="M21 39v1h1v11h1v-3h1v-2h1v-3h1v-5h2v1h1v13h-1v1h-7v-1h-1V39h1z"/></g></g><path d="M63 47v-4h-1v-3h-1v-2h-1v-1h-1v-1h-1v-1h-1v-1h-1v-1h-1v-1h-2v-1h-2v-1H38v1h-2v1h-2v1h-1v1h-1v1h-1v1h-1v1h-1v1h-1v2h-1v3h-1v4h-1v13h1v3h1v3h1v1h1v1h1v1h2v1h2v-1h1v-1h1v-4h1v3h1v1h1v1h2v-1h1v-1h1v-4h1v-1h1v1h1v4h1v1h1v1h2v-1h1v-1h1v-3h1v4h1v1h1v1h2v-1h2v-1h1v-1h1v-1h1v-3h1v-3h1V47z"/><path class="cg-body-color" fill="#88E276" d="M62 47v-4h-1v-3h-1v-2h-1v-1h-1v-1h-1v-1h-1v-1h-1v-1h-2v-1h-2v-1H38v1h-2v1h-2v1h-1v1h-1v1h-1v1h-1v1h-1v2h-1v3h-1v4h-1v13h1v3h1v3h1v1h1v1h2v1h2v-1h1v-4h1v-1h1v1h1v3h1v1h2v-1h1v-4h1v-1h1v-1h1v1h1v1h1v4h1v1h2v-1h1v-3h1v-1h1v1h1v4h1v1h2v-1h2v-1h1v-1h1v-3h1v-3h1V47z"/><g class="cg-face"><path d="M39 36v1h-3v1h-1v1h-1v1h-1v2h-1v2h1v1h1v1h2v1h3v1h11v-1h3v-1h2v-1h1v-1h1v-2h-1v-2h-1v-1h-1v-1h-1v-1h-3v-1z"/><path fill="#FFF" d="M39 37v1h-3v1h-1v1h-1v2h-1v2h1v1h2v1h3v1h11v-1h3v-1h2v-1h1v-2h-1v-2h-1v-1h-1v-1h-3v-1z"/><g class="cg-eyes"><path d="M53 42h-1v-1h1v1zm-3 0v2h2v-2h-2zm-1 3h1v-1h-1v1zm0-4v1h1v-1h-1zm-9 4v-1h-1v1h1zm-4 0h1v-1h-1v1zm17 0v-1h-1v1h1zm-16-3h-1v1h1v1h2v-1h1v-1h-3z"/></g><g class="cg-digits" style="display: none;"><g class="cg-digit-zero"><path d="M38 40h-2v5h3v-5h-1zm0 2v2h-1v-3h1v1z"/></g><g class="cg-digit-one"><path d="M39 44v1h-3v-1h1v-2h-1v-1h1v-1h1v4h1z"/></g><g class="cg-digit-two"><path d="M39 42h-1v-1h1v1zm-1 3h1v-1h-2v1h1zm0-3h-1v1h1v-1zm-1-2h-1v1h2v-1h-1zm-1 3v1h1v-1h-1z"/></g><g class="cg-digit-three"><path d="M38 44v-1h1v1h-1zm1-3h-1v1h1v-1zm-2 1v1h1v-1h-1zm0-2h-1v1h2v-1h-1zm-1 4v1h2v-1h-2z"/></g><g class="cg-digit-four"><path d="M39 41v4h-1v-2h-2v-3h1v2h1v-1h1z"/></g><g class="cg-digit-five"><path d="M38 44v-1h1v1h-1zm0-3h1v-1h-3v3h2v-1h-1v-1h1zm-2 3v1h2v-1h-2z"/></g><g class="cg-digit-six"><path d="M38 41h-1v-1h2v1h-1zm-2 0v3h1v-1h1v1h-1v1h2v-3h-2v-1h-1z"/></g><g class="cg-digit-seven"><path d="M39 40v5h-1v-4h-2v-1h3z"/></g><g class="cg-digit-eight"><path d="M38 40h-2v5h3v-5h-1zm0 4h-1v-1h1v1zm0-2h-1v-1h1v1z"/></g><g class="cg-digit-nine"><path d="M38 40h-2v3h2v2h1v-5h-1zm0 2h-1v-1h1v1z"/></g><g class="cg-digit-colon"><path d="M45 42h-1v-1h1v1zm0 1h-1v1h1v-1z"/></g></g><g class="cg-time"></g></g><g class="cg-glasses" id="monocle"><path d="M63 47v1h-1v-1h1zm-2 2h1v-1h-1v1zm-1 1h1v-1h-1v1zm-1 1h1v-1h-1v1zm-1 1h1v-1h-1v1zm-1 1h1v-1h-1v1zm-1 1h1v-1h-1v1zm-1-13v5h1v-7h-1v2zm0-2v-1h-1v1h1zm-1 8h1v-1h-1v1zm0 7h-2v1h4v-1h-2zm-3-1v1h1v-1h-1zm0-15h3v-1h-5v1h2zm0 13v-2h1v-1h2v-1h-5v-1h-2v1h1v1h2v5h1v-2zm-2-12v-1h-2v1h2zm-2 1v-1h-1v2h1v-1zm0 4h-1v2h1v-2zm-1-2v-1h-1v3h1v-2z"/><path d="M49 40h-3v-1h3v1zm5-2h-5v1h5v-1z"/><path opacity=".46" fill="#8FEAD0" d="M53 38h1v1h1v7h-1v1h-5v-1h-2v-2h-1v-3h1v-2h2v-1h3z"/><path fill="#FFF" d="M53 40h-1v-1h1v1zm1 0h-1v1h1v-1z"/><path opacity=".17" d="M49 48h6v1h-6z"/></g><g id="witch-hat"><path d="M73 35h-2v-1h-5v-1h-5v-1h-4v-2h-1v-7h-1v-4h-1v-2h4v1h2v2h1v3h1v2h1v-2h1v-7h-1v-2h-1v-1h-1v-1h-2v-1h-3v-1H43v1h-2v1h-1v2h-1v1h-1v2h-1v1h-1v1h-1v3h-1v5h-1v3h-1v2h-4v1h-5v1h-5v1h-2v1h2v1h5v1h10v1h5v1h13v-1h5v-1h10v-1h5v-1h3v-1h-1z"/><g><g><path fill="#50108E" d="M45 32h1v1h-1v1h-1v-1h-1v-1h1v-1h1z"/><path fill="#EB4F00" d="M46 32h-1v-1h-1v1h-1v1h1v1h1v-1h1v-1zm-1 3h-3v-5h5v5h-2z"/></g><path fill="#320D5E" d="M71 35v1h-5v1H56v1h-5v1H38v-1h-5v-1H23v-1h-5v-1h5v-1h5v-1h4v1h5v1h5v1h5v-1h5v-1h5v-1h4v1h5v1h5z"/><path fill="#50108E" d="M63 18v5h-1v-3h-1v-2h-1v-1h-2v-1h-4v1h-1v2h1v4h1v7h-3v1h-4v-1h-1v-1h-5v1h-1v1h-4v-1h-3v-3h1v-5h1v-3h1v-1h1v-1h1v-2h1v-1h1v-2h2v-1h13v1h3v1h2v1h1v2h1v2z"/><path fill="#56E5B7" d="M56 31v2h-4v1h-4v-2h4v-1h4zM41 32v2h-4v-1h-4v-2h4v1h4z"/><path opacity=".24" d="M42 34h5v1h-5z"/></g><g opacity=".32"><path d="M59 33h-2v1h4v-1h-2zM55 34h-3v1h5v-1h-2zM50 35h-3v1h5v-1h-2zM45 36h-3v1h5v-1h-2zM41 35h-4v1h5v-1h-1zM36 34h-4v1h5v-1h-1zM62 20v3h1v-3h-1zM62 18h-1v2h1v-2zM60 17h1v1h-1zM59 16h-1v1h2v-1h-1zM57 15h-3v1h4v-1h-1zM54 25v5h1v-7h-1v2zM53 21v2h1v-4h-1v2zM53 16h1v1h-1zM52 18v1h1v-2h-1v1z"/></g></g><g id="magic-wand"><g><g><path d="M39 60v5h-1v-5h1zM38 65v3h-1v-3h1z"/><path d="M38 60v5h-1v3h-1v4h-1v3h-1v-4h1v-4h1v-3h1v-4h1zM37 59h1v1h-1z"/><path d="M37 68v4h-1v-4h1zM37 63v1h-1v-4h1v3zM36 72v3h-1v-3h1zM36 66v1h-1v-3h1v2zM34 75h1v1h-1zM35 70v1h-1v-4h1v3zM34 73v2h-1v-4h1v2z"/></g></g><g><g><path fill="#CDB8FF" d="M38 60v5h-1v3h-1v4h-1v3h-1v-4h1v-4h1v-3h1v-4h1z"/></g></g><path d="M43 51h-4v-1h-1v-1h-2v1h-1v2h-1v1h-3v2h1v1h1v1h1v4h2v-1h1v-1h3v1h3v-3h-1v-2h1v-2h1v-2h-1z"/><path fill="#FFFF83" d="M43 52v1h-1v2h-1v2h1v2h-2v-1h-3v1h-1v1h-1v-3h-1v-1h-1v-1h-1v-1h2v-1h2v-3h2v1h1v1h4z"/><g><g><path fill="#8E68D8" d="M34 49v1h-1v-1h1z"/><path fill="#A8A4FF" d="M31 59h1v1h-1z"/><path fill="#A1FFD4" d="M30 46h1v1h-1z"/><path fill="#9CF6FF" d="M30 53v1h-1v-1h-1v-1h1v-1h1v1h1v1z"/><path fill="#FF9FEB" d="M25 55h1v1h-1z"/></g></g></g><g id="deal-with-it-glasses"><path d="M64 42h-3v1h4v-1zM60 41H28v1h1v2h1v2h1v2h1v1h9v-1h1v-2h1v-2h1v-2h1v2h1v2h1v2h1v1h9v-1h1v-2h1v-2h1v-2h1v-1z"/><path fill="#FFF" d="M33 45v1h-1v-2h1v1zm0 2h1v-1h-1v1zm2-3h-1v2h1v-2zm0 3h1v-1h-1v1zm-1-4h-1v1h1v-1zm-3 0v1h1v-1h-1zm18 1h-1v2h1v-2zm0 3h1v-1h-1v1zm2-3h-1v2h1v-2zm0 2v1h1v-1h-1zm-1-3h-1v1h1v-1zm-3 0v1h1v-1h-1z"/></g></g><a href="/images/png/cg8635-512.png" class="button png-square"><path class="button-bg" d="M26 75h13v11H26z"/><path fill="#FFF" d="M36 77h-1v1h1v5h-1v1h2v-7zm-8 0v7h2v-1h-1v-5h1v-1h-1zm6 3h1v1h-1zm-4 0h1v1h-1zm3 0v-2h-1v3h-1v1h1v1h1v-1h1v-1h-1z"/><title>Download square PNG</title></a><a href="/images/png/cg8635-wide.png" class="button png-wide"><path class="button-bg" d="M42 75h21v11H42z"/><path fill="#FFF" d="M60 77h-1v1h1v5h-1v1h2v-7zm-16 0v7h2v-1h-1v-5h1v-1h-1zm10 3h1v1h-1zm-4 0h1v1h-1zm3 0v-2h-1v3h-1v1h1v1h1v-1h1v-1h-1z"/><title>Download wide PNG</title></a><script type="text/javascript"><![CDATA[
    let cg8635Root = document.getElementById('cg8635');

    if (cg8635Root) {
      let cgRoot = cg8635Root;
      let cgBg = cgRoot.querySelector('.cg-bg');
      let cgBody = cgRoot.querySelector('.cg-body');

      cgBg.addEventListener('dblclick', () => {
        cgRoot.classList.toggle('menu-in');
      });

      cgBody.addEventListener('click', () => {

        let bufferArray = [];
        let lastKeystrokeTime = Date.now();
        const cheatcode = (e) => {

          const key = e.key.toLowerCase();
          const latestKeystrokeTime = Date.now();

          if (latestKeystrokeTime - lastKeystrokeTime > 1500) {
            bufferArray = [];
          }

          bufferArray.push(key);

          const word = bufferArray.join('');
          if (word === 'dealwithit') {
            console.log('No u.');

            cgRoot.classList.add('deal-with-it');

            setTimeout(() => {
              cgRoot.classList.remove('deal-with-it');
            }, 10000);

            clearListener();
          }
  

      if (word === 'blastoff') {
        console.log('Prepare for takeoff!');

        cgRoot.classList.add('blastoff');

        setTimeout(() => {
          cgRoot.classList.remove('blastoff');
        }, 10000);

        clearListener();
      }

    
          lastKeystrokeTime = latestKeystrokeTime;

        }
        document.addEventListener('keyup', cheatcode, true);

        const clearListener = () => {
          document.removeEventListener('keyup', cheatcode, true);
        }

      });
    
    let cgDigits = cgRoot.querySelector('.cg-digits');
    let cgTime = cgRoot.querySelector('.cg-time');
  

      let cgGlasses = cgRoot.querySelector('.cg-glasses');
      cgGlasses.addEventListener('dblclick', () => {
        cgRoot.classList.add('get-time');

        let now = new Date();
        let hours = ('0' + now.getHours()).substr(-2);
        let minutes = ('0' + now.getMinutes()).substr(-2);;
        let digits = [hours.substr(0,1), hours.substr(1), minutes.substr(0,1), minutes.substr(1)];

        cgTime.replaceChildren();

        for (let i = 0; i < 4; i++) {
          switch (digits[i]) {
            case '0':
              cgTime.appendChild(cgDigits.querySelector('.cg-digit-zero').cloneNode(true));
              break;
            case '1':
              cgTime.appendChild(cgDigits.querySelector('.cg-digit-one').cloneNode(true));
              break;
            case '2':
              cgTime.appendChild(cgDigits.querySelector('.cg-digit-two').cloneNode(true));
              break;
            case '3':
              cgTime.appendChild(cgDigits.querySelector('.cg-digit-three').cloneNode(true));
              break;
            case '4':
              cgTime.appendChild(cgDigits.querySelector('.cg-digit-four').cloneNode(true));
              break;
            case '5':
              cgTime.appendChild(cgDigits.querySelector('.cg-digit-five').cloneNode(true));
              break;
            case '6':
              cgTime.appendChild(cgDigits.querySelector('.cg-digit-six').cloneNode(true));
              break;
            case '7':
              cgTime.appendChild(cgDigits.querySelector('.cg-digit-seven').cloneNode(true));
              break;
            case '8':
              cgTime.appendChild(cgDigits.querySelector('.cg-digit-eight').cloneNode(true));
              break;
            case '9':
              cgTime.appendChild(cgDigits.querySelector('.cg-digit-nine').cloneNode(true));
              break;
          }
        }

        cgTime.childNodes[1].style.transform = 'translateX(4px)';
        cgTime.childNodes[2].style.transform = 'translateX(10px)';
        cgTime.childNodes[3].style.transform = 'translateX(14px)';

        cgTime.appendChild(cgDigits.querySelector('.cg-digit-colon').cloneNode(true));

        setTimeout(() => {
          cgRoot.classList.remove('get-time');
        }, 10000);
      });

    }]]></script></svg>