<svg id="cg8967" xmlns="http://www.w3.org/2000/svg" viewBox="0 0 89 89"><style>
    #cg8967 {
      overflow: hidden;
    }

    #cg8967 .button {
      opacity: 0;
      pointer-events: none;
      transition: 0.2s ease;
      transform: translate3d(0, 20px, 0);
    }

    #cg8967 .button.png-wide {
      transition-delay: 0.2s;
    }

    #cg8967.menu-in .button {
      opacity: 1;
      pointer-events: auto;
      cursor: pointer;
      transform: translate3d(0, 0, 0);
    }

    #cg8967.menu-in .button .button-bg {
      transition: fill 0.2s ease;
    }

    #cg8967.menu-in .button:hover .button-bg {
      fill: #FF5FFA;
    }

    #cg8967 .cg-glasses {
      transition: opacity 0.2s ease;
    }

    #cg8967 #deal-with-it-glasses {
      opacity: 0;
      pointer-events: none;
      transition: opacity 0.2s ease, transform 3s linear;
      transform: translate3d(0, -60px, 0);
    }

    #cg8967.deal-with-it #deal-with-it-glasses {
      opacity: 1;
      transform: translate3d(0, 0, 0);
    }

    #cg8967.deal-with-it .cg-glasses {
      opacity: 0;
      transition-delay: 2s;
    }

  
      #cg8967.blastoff .cg-body {
        animation: cg-anim-takeoff 10s ease-in 0s;
      }

      #cg8967.blastoff .cg-shadow {
        animation: cg-anim-shadow-takeoff 10s ease-in 0s;
      }

      #cg8967.blastoff .rocket-flame {
        animation-name: cg-anim-rocket-blastoff;
      }
    
      #cg8967 .cg-glasses {
        transition: opacity 0.2s ease;
      }

      #cg8967.get-time .cg-glasses {
        opacity: 0;
      }
    
    #cg8967 .cg-eyes {
      transition: opacity 0.2s ease;
    }

    #cg8967.get-time .cg-eyes {
      opacity: 0;
    }
  
    #cg8967 .cg-time {
      pointer-events: none;
      transition: opacity 0.2s ease;
      opacity: 0;
    }

    #cg8967.get-time .cg-time {
      opacity: 1;
    }

    #cg8967 .cg-time .cg-digit-colon {
      animation: cg-colon-blink 1s ease-in-out 0s infinite;
    }

    @keyframes cg-colon-blink {
      20% {
        opacity: 1;
      }
      50% {
        opacity: 0;
      }
      80% {
        opacity: 1;
      }
    }
  
    #cg8967 .cg-body {
      animation: cg-anim-hover 1.5s ease-in-out -1.4171s infinite;
      transform-origin: center;
      transform-box: fill-box;
    }

    @keyframes cg-anim-hover {
      0% {
        transform: translate3d(0,0,0);
      }
      50% {
        transform: translate3d(0,-2px,0);
      }
      100% {
        transform: translate3d(0,0,0);
      }
    }
  
      @keyframes cg-anim-takeoff {
        0% {
          transform: translate3d(0,0,0);
        }
        95% {
          transform: translate3d(0,-120px,0);
        }
        100% {
          transform: translate3d(0,0,0);
        }
      }
    
    #cg8967 .cg-shadow {
      animation: cg-anim-shadow 1.5s ease-in-out -1.4171s infinite;
      transform-origin: center;
      transform-box: fill-box;
    }

    @keyframes cg-anim-shadow {
      0% {
        transform: scale3d(1,1,1);
      }
      50% {
        transform: scale3d(0.9,1,1);
      }
      100% {
        transform: scale3d(1,1,1);
      }
    }
  
      @keyframes cg-anim-shadow-takeoff {
        0% {
          transform: scale3d(0.9,1,1);
        }
        95% {
          transform: scale3d(0.1,1,1);
        }
        100% {
          transform: scale3d(1,1,1);
        }
      }
    
      #cg8967 .rocket-flame {
        animation: cg-anim-rocket 0.5s steps(1) -0.1697s infinite;
        transform-origin: center top;
        transform-box: fill-box;
      }

      @keyframes cg-anim-rocket {
        0% {
          transform: scaleX(1) translate3d(0, 0, 0);
        }
        25% {
          transform: scaleX(-1) translate3d(0, -1px, 0);
        }
        50% {
          transform: scaleX(1) translate3d(0, -2px, 0);
        }
        75% {
          transform: scaleX(-1) translate3d(0, -1px, 0);
        }
        100% {
          transform: scaleX(1) translate3d(0, 0, 0);
        }
      }

      @keyframes cg-anim-rocket-blastoff {
        0% {
          transform: scaleX(1) scaleY(1) translate3d(0, 0, 0);
        }
        25% {
          transform: scaleX(-1) scaleY(1.5) translate3d(0, -1px, 0);
        }
        50% {
          transform: scaleX(1) scaleY(2) translate3d(0, -2px, 0);
        }
        75% {
          transform: scaleX(-1) scaleY(1.5) translate3d(0, -1px, 0);
        }
        100% {
          transform: scaleX(1) scaleY(1) translate3d(0, 0, 0);
        }
      }
    </style><path class="cg-bg" d="M0 0h89v89H0z" fill="#7850FF"></path><path class="cg-shadow" opacity=".17" d="M60 79v-1H29v1h-2v1h3v1h29v-1h3v-1z"/><g class="cg-body"><g id="rockets"><g id="rocket-right"><g class="rocket-flame"><path fill="#FF4E00" d="M65 57h-1v4h-1v5h1v1h-1v4h1v1h-1v2h1v1h1v-5h-1v-2h1v-1h1v-7h1v-3h-2zM63 59v-2h-1v4h1v-2z"/><path fill="#FF9945" d="M66 56h-4v1h1v4h1v5h1v-6h1v-3h1v-1h-1z"/><path fill="#F9F871" d="M65 56h-2v2h1v3h1v-1h1v-4h-1z"/></g><path d="M69 39v-1h-1v-1h-7v1h-1v1h-1v13h1v1h1v2h1v1h5v-1h1v-2h1v-1h1V39h-1z"/><g><path fill="#B3B3B3" d="M67 54v1h-5v-1h5z"/><path fill="#3F3F3F" d="M61 39v-1h7v1h1v13h-1v1h-7v-1h-1V39h1z"/></g><path opacity=".17" d="M68 39v1h-1v11h-1v-3h-1v-2h-1v-3h-1v-5h-2v1h-1v13h1v1h7v-1h1V39h-1z"/></g><g id="rocket-left"><g class="rocket-flame"><path fill="#FF4E00" d="M24 57h1v4h1v5h-1v1h1v4h-1v1h1v2h-1v1h-1v-5h1v-2h-1v-1h-1v-7h-1v-3h2zM26 59v-2h1v4h-1v-2z"/><path fill="#FF9945" d="M23 56h4v1h-1v4h-1v5h-1v-6h-1v-3h-1v-1h1z"/><path fill="#F9F871" d="M24 56h2v2h-1v3h-1v-1h-1v-4h1z"/></g><path d="M20 39v-1h1v-1h7v1h1v1h1v13h-1v1h-1v2h-1v1h-5v-1h-1v-2h-1v-1h-1V39h1z"/><g><path fill="#B3B3B3" d="M22 54v1h5v-1h-5z"/><path fill="#3F3F3F" d="M28 39v-1h-7v1h-1v13h1v1h7v-1h1V39h-1z"/></g><path opacity=".18" d="M21 39v1h1v11h1v-3h1v-2h1v-3h1v-5h2v1h1v13h-1v1h-7v-1h-1V39h1z"/></g></g><path d="M63 47v-4h-1v-3h-1v-2h-1v-1h-1v-1h-1v-1h-1v-1h-1v-1h-1v-1h-2v-1h-2v-1H38v1h-2v1h-2v1h-1v1h-1v1h-1v1h-1v1h-1v1h-1v2h-1v3h-1v4h-1v13h1v3h1v3h1v1h1v1h1v1h2v1h2v-1h1v-1h1v-4h1v3h1v1h1v1h2v-1h1v-1h1v-4h1v-1h1v1h1v4h1v1h1v1h2v-1h1v-1h1v-3h1v4h1v1h1v1h2v-1h2v-1h1v-1h1v-1h1v-3h1v-3h1V47z"/><path class="cg-body-color" fill="#33FFFF" d="M62 47v-4h-1v-3h-1v-2h-1v-1h-1v-1h-1v-1h-1v-1h-1v-1h-2v-1h-2v-1H38v1h-2v1h-2v1h-1v1h-1v1h-1v1h-1v1h-1v2h-1v3h-1v4h-1v13h1v3h1v3h1v1h1v1h2v1h2v-1h1v-4h1v-1h1v1h1v3h1v1h2v-1h1v-4h1v-1h1v-1h1v1h1v1h1v4h1v1h2v-1h1v-3h1v-1h1v1h1v4h1v1h2v-1h2v-1h1v-1h1v-3h1v-3h1V47z"/><g class="cg-face"><path d="M39 36v1h-3v1h-1v1h-1v1h-1v2h-1v2h1v1h1v1h2v1h3v1h11v-1h3v-1h2v-1h1v-1h1v-2h-1v-2h-1v-1h-1v-1h-1v-1h-3v-1z"/><path fill="#FFF" d="M39 37v1h-3v1h-1v1h-1v2h-1v2h1v1h2v1h3v1h11v-1h3v-1h2v-1h1v-2h-1v-2h-1v-1h-1v-1h-3v-1z"/><g class="cg-eyes"><path d="M52 44h1v-2h-1v2zM52 43v-1h-3v1h3zM49 44v1h3v-1h-3zM49 43v-1h-1v2h1v-1zM40 42v2h1v-3h-1v1zM38 44h-1v1h3v-1h-2zM39 42h1v-1h-3v1h2zM37 42v-1h-1v3h1v-2z"/></g><g class="cg-digits" style="display: none;"><g class="cg-digit-zero"><path d="M38 40h-2v5h3v-5h-1zm0 2v2h-1v-3h1v1z"/></g><g class="cg-digit-one"><path d="M39 44v1h-3v-1h1v-2h-1v-1h1v-1h1v4h1z"/></g><g class="cg-digit-two"><path d="M39 42h-1v-1h1v1zm-1 3h1v-1h-2v1h1zm0-3h-1v1h1v-1zm-1-2h-1v1h2v-1h-1zm-1 3v1h1v-1h-1z"/></g><g class="cg-digit-three"><path d="M38 44v-1h1v1h-1zm1-3h-1v1h1v-1zm-2 1v1h1v-1h-1zm0-2h-1v1h2v-1h-1zm-1 4v1h2v-1h-2z"/></g><g class="cg-digit-four"><path d="M39 41v4h-1v-2h-2v-3h1v2h1v-1h1z"/></g><g class="cg-digit-five"><path d="M38 44v-1h1v1h-1zm0-3h1v-1h-3v3h2v-1h-1v-1h1zm-2 3v1h2v-1h-2z"/></g><g class="cg-digit-six"><path d="M38 41h-1v-1h2v1h-1zm-2 0v3h1v-1h1v1h-1v1h2v-3h-2v-1h-1z"/></g><g class="cg-digit-seven"><path d="M39 40v5h-1v-4h-2v-1h3z"/></g><g class="cg-digit-eight"><path d="M38 40h-2v5h3v-5h-1zm0 4h-1v-1h1v1zm0-2h-1v-1h1v1z"/></g><g class="cg-digit-nine"><path d="M38 40h-2v3h2v2h1v-5h-1zm0 2h-1v-1h1v1z"/></g><g class="cg-digit-colon"><path d="M45 42h-1v-1h1v1zm0 1h-1v1h1v-1z"/></g></g><g class="cg-time"></g></g><g id="bandaid-confetti-skull"><g><g><path d="M46 59h13v-1h1v-1h1v-2h-1v-1h-1v-1H46v1h-1v1h-1v2h1v1h1v1zM59 44h-1v1h1v1h1v-1h1v-1h-1v-1h1v-1h-1v-1h-1v1h-1v1h1zM59 50v1h4v-1h1v-2h-1v-1h-4v1h-1v2zM25 52v2h1v1h2v-1h1v-1h1v1h1v1h1v1h2v-1h1v-3h-1v-1h-1v-1h1v-1h1v-2h-1v-1h-2v1h-1v1h-1v-1h-1v-1h-1v-1h-3v4h1v1h1v1h-1v1h-1z"/></g><path d="M55 48h-2v1h-1v2h1v1h2v-1h1v-2h-1zM40 58h-2v1h-1v2h1v1h2v-1h1v-2h-1zM41 49h-4v1h-1v4h1v1h1v-1h1v1h1v-1h1v1h1v-1h1v-4h-2zM38 55h1v1h-1zM40 55h1v1h-1zM34 59v-1h-1v-1h-5v1h-1v1h-1v4h1v2h1v1h1v-1h1v1h1v-1h1v1h1v-1h1v-2h1v-4z"/></g><g><g><path fill="#7C3BE2" d="M26 52v2h2v-1h1v-1h-1v-1h-1v1h-1z"/><path fill="#3EFFFF" d="M26 46v3h1v1h1v-1h1v-2h-1v-1h-2z"/><path fill="#92FFFC" d="M28 50v1h1v1h1v-1h1v-2h-2v1h-1z"/><path fill="#3EFFFF" d="M30 52v1h1v1h1v1h2v-3h-1v-1h-2v1h-1z"/><path fill="#7C3BE2" d="M31 48v1h1v1h1v-1h1v-2h-2v1h-1z"/><path fill="#666" d="M45 55v2h1v1h3v-4h-3v1h-1z"/><path d="M45 50v1h1v1h1v-1h1v1h1v-1h1v-1h-1v-1h-1v1h-1v-1h-1v1z"/><path fill="#969696" d="M50 54v4h5v-4h-5z"/><path d="M56 65v1h1v1h1v-1h1v-1h-1v-1h1v-1h-1v-1h-1v1h-1v1h1v1z"/><path fill="#666" d="M56 54v4h3v-1h1v-2h-1v-1h-3z"/><path fill="#66FF8A" d="M59 48h4v2h-4z"/></g><g><path fill="#FF5" d="M53 49h2v2h-2z"/></g><g><path fill="#FCA342" d="M38 59h2v2h-2z"/></g><path fill="#F66" d="M41 51v-1h-4v4h1v1h1v-1h1v1h1v-1h1v-3h-1zm-3 2v-2h1v2h-1zm3 0h-1v-1h1v1z"/><path fill="#5C5CFF" d="M33 59v-1h-5v1h-1v4h1v2h1v-1h1v1h1v-1h1v1h1v-2h1v-4h-1zm-4 2v-1h1v2h-1v-1zm4 0v1h-1v-2h1v1z"/></g><g opacity=".25"><path d="M45 57h1v-2h-1v2zM46 57v1h3v-1h-3zM56 57v1h3v-1h-3zM32 54h1v1h-1zM32 47h1v1h-1zM31 53h1v1h-1zM31 48h1v1h-1zM30 52h1v1h-1zM27 51h1v1h-1zM27 49h1v1h-1zM26 53v1h1v-2h-1zM59 49h4v1h-4zM28 50h1v1h-1zM29 51h1v1h-1zM53 55h1v1h-1zM51 56h1v1h-1zM27 46h-1v3h1v-1zM53 50h2v1h-2zM38 60h2v1h-2zM37 50h1v4h-1zM38 54h1v1h-1zM40 54h1v1h-1zM27 59h1v4h-1zM28 63h1v2h-1zM30 64h1v1h-1zM32 64h1v1h-1zM28 58h1v1h-1z"/></g></g><g id="guitar"><g id="guitar-bg"><path d="M29 67h-1v-1h-1v-3h-1v-2h-3v-1h-3v-1h-4v-1h-1v-1h-3v-1H8v1H7v2h1v1h1v1h1v1h1v1h1v4h-1v2h-1v1H9v1H8v1H7v2h1v1h5v-1h3v-1h3v-1h3v-1h1v-1h3v-1h4v-1h-1zM52 63H37v1h-1v3h17v-3h-1zM70 67h3v1h-3zM77 66v-2h-1v-1h-2v-1h-1v-1h-1v1h-1v-1h-1v1h-1v1h-7v3h-1v1h15v-1z"/></g><g id="guitar-inner"><path fill="#754C24" d="M44 64h9V66H36V64h7zM65.3 64H69V66H62V64h2.9z"/><path fill="#F13441" d="M20 60v1h3v1h3v1h1v3h1v1h1v1h-3v1h-3v1h-1v1h-3v1h-3v1h-3v1H8v-2h1v-1h1v-1h1v-1h1v-2h1v-4h-1v-1h-1v-1h-1v-1H9v-1H8v-2h4v1h3v1h1v1h3z"/><path fill="#54341A" d="M73 64v-1h-3v4h3v-1h3v-2z"/><path opacity=".09" fill="#FFF" d="M36 65h17v1H36zM62 65h7v1h-7zM70 66h3v1h-3z"/><g fill="#FFF"><path d="M28 67v-1h-1v-3h-5v-1h-3v-1h-4v1h1v7h-1v1h-2v1h-1v1h3v-1h4v-1h2v-1h1v-1h7v-1h-1zM14 60h-1v1h2v-1h-1z"/></g><path fill="#E6E6E6" d="M17 65h10v1H17z"/><path transform="rotate(-90 16.5 65.5)" d="M13 65h7v1h-7z"/><path transform="rotate(-90 19.5 65.5)" d="M17 65h5v1h-5z"/><path transform="rotate(-90 22.5 65.5)" d="M21 65h3v1h-3z"/><path transform="rotate(-90 25.5 65.5)" d="M24 65h3v1h-3z"/></g><g><path opacity=".17" d="M8 57h1v2H8zM9 59h1v1H9zM10 60h1v1h-1zM11 61h1v1h-1zM12 62h1v1h-1zM12 67h1v1h-1zM11 69h1v1h-1zM10 70h1v1h-1zM9 71h1v1H9zM8 72h1v2H8z"/></g></g><g class="cg-glasses" id="shield-sunglasses"><g><g><path d="M60 41h-1v-1h-3v1h2v7h-8v1h8v-1h1v-6h3v-1zM56 39v1H33v-1h21zM49 47h1v1h-2v-1zM47 46h1v1h-2v-1zM46 45v1h-3v-1h2zM43 46v1h-2v-1h1zM41 47v1h-2v-1h1zM38 48h-7v-7h2v-1h-3v1h-3v1h3v6h1v1h8v-1z"/></g></g><g><linearGradient id="glasses-gradient" gradientUnits="userSpaceOnUse" x1="31" y1="44" x2="58" y2="44"><stop offset="0" stop-color="#00a8de"><animate attributeName="stop-color" values="#00a8de;#333391;#e91388;#eb2d2e;#fde92b;#009e54;#00a8de" dur="6s" repeatCount="indefinite"/> </stop><stop offset=".2" stop-color="#333391"><animate attributeName="stop-color" values="#333391;#e91388;#eb2d2e;#fde92b;#009e54;#00a8de;#333391" dur="6s" repeatCount="indefinite"/> </stop><stop offset=".4" stop-color="#e91388"><animate attributeName="stop-color" values="#e91388;#eb2d2e;#fde92b;#009e54;#00a8de;#333391;#e91388" dur="6s" repeatCount="indefinite"/> </stop><stop offset=".6" stop-color="#eb2d2e"><animate attributeName="stop-color" values="#eb2d2e;#fde92b;#009e54;#00a8de;#333391;#e91388;#eb2d2e" dur="6s" repeatCount="indefinite"/> </stop><stop offset=".8" stop-color="#fde92b"><animate attributeName="stop-color" values="#fde92b;#009e54;#00a8de;#333391;#e91388;#eb2d2e;#fde92b" dur="6s" repeatCount="indefinite"/> </stop><stop offset="1" stop-color="#009e54"><animate attributeName="stop-color" values="#009e54;#00a8de;#333391;#e91388;#eb2d2e;#fde92b;#009e54" dur="6s" repeatCount="indefinite"/> </stop></linearGradient><path class="shield-glasses-rgb" opacity=".82" fill="url(#glasses-gradient)" d="M43 45v1h-2v1h-2v1h-8v-7h2v-1h23v1h2v7h-8v-1h-2v-1h-2v-1h-2z"/></g><g opacity=".24" fill="#FFF"><path d="M33 40h23v1H33zM31 41h2v1h-2zM56 41h2v1h-2z"/></g></g><g id="deal-with-it-glasses"><path d="M64 42h-3v1h4v-1zM60 41H28v1h1v2h1v2h1v2h1v1h9v-1h1v-2h1v-2h1v-2h1v2h1v2h1v2h1v1h9v-1h1v-2h1v-2h1v-2h1v-1z"/><path fill="#FFF" d="M33 45v1h-1v-2h1v1zm0 2h1v-1h-1v1zm2-3h-1v2h1v-2zm0 3h1v-1h-1v1zm-1-4h-1v1h1v-1zm-3 0v1h1v-1h-1zm18 1h-1v2h1v-2zm0 3h1v-1h-1v1zm2-3h-1v2h1v-2zm0 2v1h1v-1h-1zm-1-3h-1v1h1v-1zm-3 0v1h1v-1h-1z"/></g></g><a href="/images/png/cg8967-512.png" class="button png-square"><path class="button-bg" d="M26 75h13v11H26z"/><path fill="#FFF" d="M36 77h-1v1h1v5h-1v1h2v-7zm-8 0v7h2v-1h-1v-5h1v-1h-1zm6 3h1v1h-1zm-4 0h1v1h-1zm3 0v-2h-1v3h-1v1h1v1h1v-1h1v-1h-1z"/><title>Download square PNG</title></a><a href="/images/png/cg8967-wide.png" class="button png-wide"><path class="button-bg" d="M42 75h21v11H42z"/><path fill="#FFF" d="M60 77h-1v1h1v5h-1v1h2v-7zm-16 0v7h2v-1h-1v-5h1v-1h-1zm10 3h1v1h-1zm-4 0h1v1h-1zm3 0v-2h-1v3h-1v1h1v1h1v-1h1v-1h-1z"/><title>Download wide PNG</title></a><script type="text/javascript"><![CDATA[
    let cg8967Root = document.getElementById('cg8967');

    if (cg8967Root) {
      let cgRoot = cg8967Root;
      let cgBg = cgRoot.querySelector('.cg-bg');
      let cgBody = cgRoot.querySelector('.cg-body');

      cgBg.addEventListener('dblclick', () => {
        cgRoot.classList.toggle('menu-in');
      });

      cgBody.addEventListener('click', () => {

        let bufferArray = [];
        let lastKeystrokeTime = Date.now();
        const cheatcode = (e) => {

          const key = e.key.toLowerCase();
          const latestKeystrokeTime = Date.now();

          if (latestKeystrokeTime - lastKeystrokeTime > 1500) {
            bufferArray = [];
          }

          bufferArray.push(key);

          const word = bufferArray.join('');
          if (word === 'dealwithit') {
            console.log('No u.');

            cgRoot.classList.add('deal-with-it');

            setTimeout(() => {
              cgRoot.classList.remove('deal-with-it');
            }, 10000);

            clearListener();
          }
  

      if (word === 'blastoff') {
        console.log('Prepare for takeoff!');

        cgRoot.classList.add('blastoff');

        setTimeout(() => {
          cgRoot.classList.remove('blastoff');
        }, 10000);

        clearListener();
      }

    
          lastKeystrokeTime = latestKeystrokeTime;

        }
        document.addEventListener('keyup', cheatcode, true);

        const clearListener = () => {
          document.removeEventListener('keyup', cheatcode, true);
        }

      });
    
    let cgDigits = cgRoot.querySelector('.cg-digits');
    let cgTime = cgRoot.querySelector('.cg-time');
  

      let cgGlasses = cgRoot.querySelector('.cg-glasses');
      cgGlasses.addEventListener('dblclick', () => {
        cgRoot.classList.add('get-time');

        let now = new Date();
        let hours = ('0' + now.getHours()).substr(-2);
        let minutes = ('0' + now.getMinutes()).substr(-2);;
        let digits = [hours.substr(0,1), hours.substr(1), minutes.substr(0,1), minutes.substr(1)];

        cgTime.replaceChildren();

        for (let i = 0; i < 4; i++) {
          switch (digits[i]) {
            case '0':
              cgTime.appendChild(cgDigits.querySelector('.cg-digit-zero').cloneNode(true));
              break;
            case '1':
              cgTime.appendChild(cgDigits.querySelector('.cg-digit-one').cloneNode(true));
              break;
            case '2':
              cgTime.appendChild(cgDigits.querySelector('.cg-digit-two').cloneNode(true));
              break;
            case '3':
              cgTime.appendChild(cgDigits.querySelector('.cg-digit-three').cloneNode(true));
              break;
            case '4':
              cgTime.appendChild(cgDigits.querySelector('.cg-digit-four').cloneNode(true));
              break;
            case '5':
              cgTime.appendChild(cgDigits.querySelector('.cg-digit-five').cloneNode(true));
              break;
            case '6':
              cgTime.appendChild(cgDigits.querySelector('.cg-digit-six').cloneNode(true));
              break;
            case '7':
              cgTime.appendChild(cgDigits.querySelector('.cg-digit-seven').cloneNode(true));
              break;
            case '8':
              cgTime.appendChild(cgDigits.querySelector('.cg-digit-eight').cloneNode(true));
              break;
            case '9':
              cgTime.appendChild(cgDigits.querySelector('.cg-digit-nine').cloneNode(true));
              break;
          }
        }

        cgTime.childNodes[1].style.transform = 'translateX(4px)';
        cgTime.childNodes[2].style.transform = 'translateX(10px)';
        cgTime.childNodes[3].style.transform = 'translateX(14px)';

        cgTime.appendChild(cgDigits.querySelector('.cg-digit-colon').cloneNode(true));

        setTimeout(() => {
          cgRoot.classList.remove('get-time');
        }, 10000);
      });

    }]]></script></svg>