<svg id="cg9" xmlns="http://www.w3.org/2000/svg" viewBox="0 0 89 89"><style>
    #cg9 {
      overflow: hidden;
    }

    #cg9 .button {
      opacity: 0;
      pointer-events: none;
      transition: 0.2s ease;
      transform: translate3d(0, 20px, 0);
    }

    #cg9 .button.png-wide {
      transition-delay: 0.2s;
    }

    #cg9.menu-in .button {
      opacity: 1;
      pointer-events: auto;
      cursor: pointer;
      transform: translate3d(0, 0, 0);
    }

    #cg9.menu-in .button .button-bg {
      transition: fill 0.2s ease;
    }

    #cg9.menu-in .button:hover .button-bg {
      fill: #FF5FFA;
    }

    #cg9 .cg-glasses {
      transition: opacity 0.2s ease;
    }

    #cg9 #deal-with-it-glasses {
      opacity: 0;
      pointer-events: none;
      transition: opacity 0.2s ease, transform 3s linear;
      transform: translate3d(0, -60px, 0);
    }

    #cg9.deal-with-it #deal-with-it-glasses {
      opacity: 1;
      transform: translate3d(0, 0, 0);
    }

    #cg9.deal-with-it .cg-glasses {
      opacity: 0;
      transition-delay: 2s;
    }

  
      #cg9 .cg-glasses {
        transition: opacity 0.2s ease;
      }

      #cg9.get-time .cg-glasses {
        opacity: 0;
      }
    
    #cg9 .cg-eyes {
      transition: opacity 0.2s ease;
    }

    #cg9.get-time .cg-eyes {
      opacity: 0;
    }
  
    #cg9 .cg-time {
      pointer-events: none;
      transition: opacity 0.2s ease;
      opacity: 0;
    }

    #cg9.get-time .cg-time {
      opacity: 1;
    }

    #cg9 .cg-time .cg-digit-colon {
      animation: cg-colon-blink 1s ease-in-out 0s infinite;
    }

    @keyframes cg-colon-blink {
      20% {
        opacity: 1;
      }
      50% {
        opacity: 0;
      }
      80% {
        opacity: 1;
      }
    }
  
    #cg9 .cg-body {
      animation: cg-anim-hover 1.5s ease-in-out -0.0501s infinite;
      transform-origin: center;
      transform-box: fill-box;
    }

    @keyframes cg-anim-hover {
      0% {
        transform: translate3d(0,0,0);
      }
      50% {
        transform: translate3d(0,-2px,0);
      }
      100% {
        transform: translate3d(0,0,0);
      }
    }
  
    #cg9 .cg-shadow {
      animation: cg-anim-shadow 1.5s ease-in-out -0.0501s infinite;
      transform-origin: center;
      transform-box: fill-box;
    }

    @keyframes cg-anim-shadow {
      0% {
        transform: scale3d(1,1,1);
      }
      50% {
        transform: scale3d(0.9,1,1);
      }
      100% {
        transform: scale3d(1,1,1);
      }
    }
  
      @keyframes cg-anim-rgb {
        0% {
          fill: #FF5F5F;
        }
        11.1111% {
          fill: #FFA45F;
        }
        22.2222% {
          fill: #BAFF5F;
        }
        33.3333% {
          fill: #5FFF74;
        }
        44.4444% {
          fill: #5FFFCE;
        }
        55.5555% {
          fill: #5FD9FF;
        }
        66.6666% {
          fill: #5F6AFF;
        }
        77.7777% {
          fill: #AA5FFF;
        }
        88.8888% {
          fill: #FF5FFA;
        }
        100% {
          fill: #FF5F5F;
        }
      }
    
      #cg9 .planet-color {
        animation: cg-anim-rgb 10s linear -1.3748s infinite;
      }
    
      #cg9 .spliff-cherry {
        animation: cg-anim-burn 2s linear -0.9115s infinite;
      }

      #cg9 .spliff-smoke {
        animation: cg-anim-smoke 2s steps(1) -0.9115s infinite;
        transform-origin: center;
        transform-box: fill-box;
      }

      @keyframes cg-anim-burn {
        0% {
          fill: red;
        }
        50% {
          fill: orange;
        }
        100% {
          fill: red;
        }
      }

      @keyframes cg-anim-smoke {
        0% {
          transform: scaleX(1) translate3d(1px, 0, 0);
        }
        50% {
          transform: scaleX(-1) translate3d(-2px, 0, 0);
        }
        100% {
          transform: scaleX(1) translate3d(1px, 0, 0);
        }
      }
    
      #cg9 .bomb-fuse {
        animation: cg-anim-fuse 0.3s steps(1) -0.2626s infinite;
        transform-origin: center;
        transform-box: fill-box;
      }

      @keyframes cg-anim-fuse {
        0% {
          transform: scale(1);
        }
        50% {
          transform: scale(1.1);
        }
        100% {
          transform: scale(1);
        }
      }
    </style><path class="cg-bg" d="M0 0h89v89H0z" fill="#ACE5F3"></path><g id="planet"><path id="planet-bg" d="M30 6V5h-4v1h-2v1h-2V6h-2V5h-7v1h-2v1H9v1H8v1H7v2H6v2H5v7h1v1H5v1H4v2H3v3h1v1h1v1h4v-1h2v-1h3v1h6v-1h2v-1h2v-1h1v-1h1v-1h1v-1h1v-2h1v-9h1V8h1V6h-1zM9 24v1H7v-2h1v1h1z"/><g class="planet-color" fill="#ACE5F3"><path d="M27 15v2h-1v1h-1v1h-1v1h-1v1h-1v1h-1v1h-2v1h-2v1h-2v1h-1v1h6v-1h2v-1h2v-1h1v-1h1v-1h1v-2h1v-5h-1zM14 22h2v-1h2v-1h2v-1h1v-1h1v-1h1v-1h1v-2h1v-2h1v-2h-1V9h-1V8h-2V7h-2V6h-7v1h-2v1H9v1H8v2H7v2H6v7h1v2h1v1h1v1h3v-1h2v-1z"/></g><path id="ring-colour" fill="#7850FF" d="M29 6h-3v1h-2v1h3v4h-1v2h-1v2h-1v1h-1v1h-1v1h-1v1h-1v1h-2v1h-2v1h-2v1h-2v1h-2v1H6v-3h1v-1H5v2H4v3h1v1h4v-1h2v-1h2v-1h2v-1h2v-1h2v-1h2v-1h1v-1h1v-1h1v-1h1v-1h1v-2h1v-2h1v-2h1V8h1V6h-1z"/><g id="planet-highlights" opacity=".21" fill="#FFF"><path d="M20 14h-2v1h3v-1h-1zM25 20h1v1h-1zM25 10v2h1v-2h-1zM24 21h1v1h-1zM24 9h1v1h-1zM23 22h1v1h-1zM23 8h-1v1h2V8h-1zM21 23h-2v1h4v-1h-2zM22 16v-1h-1v2h1v-1zM21 7h-1v1h2V7h-1zM20 17h1v1h-1zM19 18h1v1h-1zM19 6h-6v1h7V6h-1zM18 19h1v1h-1zM17 20h1v1h-1zM17 15h1v1h-1zM17 12v-1h-1v2h1v-1zM15 16v1h2v-1h-2zM15 13h1v1h-1zM15 10h-1v1h2v-1h-1zM14 14h1v1h-1zM13 17v1h2v-1h-2zM13 15h1v1h-1zM12 16h1v1h-1zM12 11v1h2v-1h-2zM11 12h1v1h-1zM11 7v1h2V7h-2zM10 13h1v1h-1zM9 23h1v1H9zM9 14h1v1H9zM9 8v1h2V8H9zM8 22h1v1H8zM8 10v1h1V9H8v1zM7 22h1v-2H7v2zM7 12v1h1v-2H7v1zM6 14v6h1v-7H6v1z"/></g><g id="planet-stars"><g fill="#FFFA9F"><path d="M39 4v1h-1v1h-1V5h-1V4h1V3h1v1zM36 11v2h-1v-2h1zM35 13v1h-2v-1h2zM35 10v1h-2v-1h2zM33 11v2h-1v-2h1zM26 2h1v1h-1zM10 33v1H9v1H8v-1H7v-1h1v-1h1v1z"/></g></g></g><path class="cg-shadow" opacity=".17" d="M60 79v-1H29v1h-2v1h3v1h29v-1h3v-1z"/><g class="cg-body"><path d="M63 47v-4h-1v-3h-1v-2h-1v-1h-1v-1h-1v-1h-1v-1h-1v-1h-1v-1h-2v-1h-2v-1H38v1h-2v1h-2v1h-1v1h-1v1h-1v1h-1v1h-1v1h-1v2h-1v3h-1v4h-1v13h1v3h1v3h1v1h1v1h1v1h2v1h2v-1h1v-1h1v-4h1v3h1v1h1v1h2v-1h1v-1h1v-4h1v-1h1v1h1v4h1v1h1v1h2v-1h1v-1h1v-3h1v4h1v1h1v1h2v-1h2v-1h1v-1h1v-1h1v-3h1v-3h1V47z"/><path class="cg-body-color" fill="#56E5B7" d="M62 47v-4h-1v-3h-1v-2h-1v-1h-1v-1h-1v-1h-1v-1h-1v-1h-2v-1h-2v-1H38v1h-2v1h-2v1h-1v1h-1v1h-1v1h-1v1h-1v2h-1v3h-1v4h-1v13h1v3h1v3h1v1h1v1h2v1h2v-1h1v-4h1v-1h1v1h1v3h1v1h2v-1h1v-4h1v-1h1v-1h1v1h1v1h1v4h1v1h2v-1h1v-3h1v-1h1v1h1v4h1v1h2v-1h2v-1h1v-1h1v-3h1v-3h1V47z"/><g class="cg-face"><path d="M39 36v1h-3v1h-1v1h-1v1h-1v2h-1v2h1v1h1v1h2v1h3v1h11v-1h3v-1h2v-1h1v-1h1v-2h-1v-2h-1v-1h-1v-1h-1v-1h-3v-1z"/><path fill="#FFF" d="M39 37v1h-3v1h-1v1h-1v2h-1v2h1v1h2v1h3v1h11v-1h3v-1h2v-1h1v-2h-1v-2h-1v-1h-1v-1h-3v-1z"/><g class="cg-eyes"><path d="M36 42v2h1v1h3v-1h-1v-1h1v1h1v-1h-1v-1zM48 42v2h1v1h3v-1h-1v-1h1v1h1v-1h-1v-1z"/></g><g class="cg-digits" style="display: none;"><g class="cg-digit-zero"><path d="M38 40h-2v5h3v-5h-1zm0 2v2h-1v-3h1v1z"/></g><g class="cg-digit-one"><path d="M39 44v1h-3v-1h1v-2h-1v-1h1v-1h1v4h1z"/></g><g class="cg-digit-two"><path d="M39 42h-1v-1h1v1zm-1 3h1v-1h-2v1h1zm0-3h-1v1h1v-1zm-1-2h-1v1h2v-1h-1zm-1 3v1h1v-1h-1z"/></g><g class="cg-digit-three"><path d="M38 44v-1h1v1h-1zm1-3h-1v1h1v-1zm-2 1v1h1v-1h-1zm0-2h-1v1h2v-1h-1zm-1 4v1h2v-1h-2z"/></g><g class="cg-digit-four"><path d="M39 41v4h-1v-2h-2v-3h1v2h1v-1h1z"/></g><g class="cg-digit-five"><path d="M38 44v-1h1v1h-1zm0-3h1v-1h-3v3h2v-1h-1v-1h1zm-2 3v1h2v-1h-2z"/></g><g class="cg-digit-six"><path d="M38 41h-1v-1h2v1h-1zm-2 0v3h1v-1h1v1h-1v1h2v-3h-2v-1h-1z"/></g><g class="cg-digit-seven"><path d="M39 40v5h-1v-4h-2v-1h3z"/></g><g class="cg-digit-eight"><path d="M38 40h-2v5h3v-5h-1zm0 4h-1v-1h1v1zm0-2h-1v-1h1v1z"/></g><g class="cg-digit-nine"><path d="M38 40h-2v3h2v2h1v-5h-1zm0 2h-1v-1h1v1z"/></g><g class="cg-digit-colon"><path d="M45 42h-1v-1h1v1zm0 1h-1v1h1v-1z"/></g></g><g class="cg-time"></g></g><path id="ada-tattoo" d="M38 53h1v1h-1v-1zm2-2v1h-2v1h-1v-1h-3v1h-1v-1h-2v-1h2v-1h-1v-1h2v-2h1v2h1v-2h1v2h2v1h-1v1h2zm-3 0v-1h-3v1h3zm-1-5h-1v1h1v-1zm-4 7v1h1v-1h-1z" opacity=".3"/><g id="spliff"><g><g><g><path d="M61 51h1v1h-1zM61 49h1v1h-1zM61 50h1v1h-1zM61 52h1v1h-1zM60 49h1v1h-1zM60 52h1v1h-1zM59 49h1v1h-1zM59 52h1v1h-1zM58 49h1v1h-1zM58 52h1v1h-1zM57 49h1v1h-1zM57 52h1v1h-1zM56 49h1v1h-1zM56 52h1v1h-1zM55 50h1v1h-1zM55 52h1v1h-1zM54 50h1v1h-1zM54 52h1v1h-1zM53 50h1v1h-1zM53 52h1v1h-1zM52 50h1v1h-1zM52 52h1v1h-1zM51 50h1v1h-1zM51 53h1v1h-1zM50 50h1v1h-1zM50 53h1v1h-1zM49 51h1v1h-1zM49 53h1v1h-1zM48 51h1v1h-1z"/><path fill="#FFF" d="M51 51h5v-1h5v2h-9v1h-5v-1h3v-1z"/><path d="M48 53h1v1h-1zM47 51h1v1h-1zM47 53h1v1h-1zM46 52h1v1h-1zM45 52h1v1h-1z"/></g></g><path class="spliff-cherry" fill="red" d="M60 50h1v2h-1z"/></g><g class="spliff-smoke" fill="gray"><path d="M60 49h1v-2h-1v1zM58 41h1v1h-1zM59 40h1v1h-1zM60 42h-1v2h1v-1zM60 44h1v1h-1zM60 45h-1v2h1v-1z"/></g></g><g class="cg-glasses" id="ghost-pods"><g id="ghost-pod-left"><path id="ghost-pod-bg-left" d="M28 42v-1h-3v1h-1v4h-1v4h1v1h2v-4h1v-1h1v-1h1v-3z"/><path fill="#FFF" d="M25 50v-3h1v-2h2v-3h-3v4h-1v4" id="ghost-pod-inner-left"/></g><g id="ghost-pod-right"><path id="ghost-pod-bg-right" d="M65 46v-4h-1v-1h-3v1h-1v3h1v1h1v1h1v4h2v-1h1v-4z"/><path id="ghost-pod-inner-right" fill="#FFF" d="M64 50v-3h-1v-2h-2v-3h3v4h1v4"/></g></g><g id="bomb"><path d="M52 15h1v1h-1zm-2 1h-1v1h3v-1h-2zm-2-1h1v1h-1zm-3-1h3v1h-3zm-1 2v1h-1v1h-1v1h-2v1h-1v1h-1v2h-1v5h1v2h1v1h1v1h2v1h5v-1h2v-1h1v-1h1v-2h1v-5h-1v-2h-1v-1h-1v-1h-2v-1h-1v-1h-1v-2h-1v1z"/><path fill="#2D2D2D" d="M50 23v-2h-1v-1h-2v-1h-5v1h-2v1h-1v2h-1v5h1v2h1v1h2v1h5v-1h2v-1h1v-2h1v-5h-1z"/><path d="M41 30v-1h-1v-7h1v-1h1v-1h-2v1h-1v2h-1v5h1v2h1v1h2v-1h-1zm1 1h5v1h-5zm5-1h2v1h-2zm2-1h1v1h-1zm-7-10h1v1h-1z" opacity=".2"/><g class="bomb-fuse"><path d="M56 13v-1h-1v-1h-1v1h-1v1h-1v1h1v1h1v1h1v-1h1v-1h1v-1z"/><path fill="#FF2424" d="M55 13v-1h-1v1h-1v1h1v1h1v-1h1v-1z"/><path fill="#FFA227" d="M54 13h1v1h-1z"/></g></g><g id="deal-with-it-glasses"><path d="M64 42h-3v1h4v-1zM60 41H28v1h1v2h1v2h1v2h1v1h9v-1h1v-2h1v-2h1v-2h1v2h1v2h1v2h1v1h9v-1h1v-2h1v-2h1v-2h1v-1z"/><path fill="#FFF" d="M33 45v1h-1v-2h1v1zm0 2h1v-1h-1v1zm2-3h-1v2h1v-2zm0 3h1v-1h-1v1zm-1-4h-1v1h1v-1zm-3 0v1h1v-1h-1zm18 1h-1v2h1v-2zm0 3h1v-1h-1v1zm2-3h-1v2h1v-2zm0 2v1h1v-1h-1zm-1-3h-1v1h1v-1zm-3 0v1h1v-1h-1z"/></g></g><a href="/images/png/cg9-512.png" class="button png-square"><path class="button-bg" d="M26 75h13v11H26z"/><path fill="#FFF" d="M36 77h-1v1h1v5h-1v1h2v-7zm-8 0v7h2v-1h-1v-5h1v-1h-1zm6 3h1v1h-1zm-4 0h1v1h-1zm3 0v-2h-1v3h-1v1h1v1h1v-1h1v-1h-1z"/><title>Download square PNG</title></a><a href="/images/png/cg9-wide.png" class="button png-wide"><path class="button-bg" d="M42 75h21v11H42z"/><path fill="#FFF" d="M60 77h-1v1h1v5h-1v1h2v-7zm-16 0v7h2v-1h-1v-5h1v-1h-1zm10 3h1v1h-1zm-4 0h1v1h-1zm3 0v-2h-1v3h-1v1h1v1h1v-1h1v-1h-1z"/><title>Download wide PNG</title></a><script type="text/javascript"><![CDATA[
    let cg9Root = document.getElementById('cg9');

    if (cg9Root) {
      let cgRoot = cg9Root;
      let cgBg = cgRoot.querySelector('.cg-bg');
      let cgBody = cgRoot.querySelector('.cg-body');

      cgBg.addEventListener('dblclick', () => {
        cgRoot.classList.toggle('menu-in');
      });

      cgBody.addEventListener('click', () => {

        let bufferArray = [];
        let lastKeystrokeTime = Date.now();
        const cheatcode = (e) => {

          const key = e.key.toLowerCase();
          const latestKeystrokeTime = Date.now();

          if (latestKeystrokeTime - lastKeystrokeTime > 1500) {
            bufferArray = [];
          }

          bufferArray.push(key);

          const word = bufferArray.join('');
          if (word === 'dealwithit') {
            console.log('No u.');

            cgRoot.classList.add('deal-with-it');

            setTimeout(() => {
              cgRoot.classList.remove('deal-with-it');
            }, 10000);

            clearListener();
          }
  
          lastKeystrokeTime = latestKeystrokeTime;

        }
        document.addEventListener('keyup', cheatcode, true);

        const clearListener = () => {
          document.removeEventListener('keyup', cheatcode, true);
        }

      });
    
    let cgDigits = cgRoot.querySelector('.cg-digits');
    let cgTime = cgRoot.querySelector('.cg-time');
  

      let cgGlasses = cgRoot.querySelector('.cg-glasses');
      cgGlasses.addEventListener('dblclick', () => {
        cgRoot.classList.add('get-time');

        let now = new Date();
        let hours = ('0' + now.getHours()).substr(-2);
        let minutes = ('0' + now.getMinutes()).substr(-2);;
        let digits = [hours.substr(0,1), hours.substr(1), minutes.substr(0,1), minutes.substr(1)];

        cgTime.replaceChildren();

        for (let i = 0; i < 4; i++) {
          switch (digits[i]) {
            case '0':
              cgTime.appendChild(cgDigits.querySelector('.cg-digit-zero').cloneNode(true));
              break;
            case '1':
              cgTime.appendChild(cgDigits.querySelector('.cg-digit-one').cloneNode(true));
              break;
            case '2':
              cgTime.appendChild(cgDigits.querySelector('.cg-digit-two').cloneNode(true));
              break;
            case '3':
              cgTime.appendChild(cgDigits.querySelector('.cg-digit-three').cloneNode(true));
              break;
            case '4':
              cgTime.appendChild(cgDigits.querySelector('.cg-digit-four').cloneNode(true));
              break;
            case '5':
              cgTime.appendChild(cgDigits.querySelector('.cg-digit-five').cloneNode(true));
              break;
            case '6':
              cgTime.appendChild(cgDigits.querySelector('.cg-digit-six').cloneNode(true));
              break;
            case '7':
              cgTime.appendChild(cgDigits.querySelector('.cg-digit-seven').cloneNode(true));
              break;
            case '8':
              cgTime.appendChild(cgDigits.querySelector('.cg-digit-eight').cloneNode(true));
              break;
            case '9':
              cgTime.appendChild(cgDigits.querySelector('.cg-digit-nine').cloneNode(true));
              break;
          }
        }

        cgTime.childNodes[1].style.transform = 'translateX(4px)';
        cgTime.childNodes[2].style.transform = 'translateX(10px)';
        cgTime.childNodes[3].style.transform = 'translateX(14px)';

        cgTime.appendChild(cgDigits.querySelector('.cg-digit-colon').cloneNode(true));

        setTimeout(() => {
          cgRoot.classList.remove('get-time');
        }, 10000);
      });

    }]]></script></svg>