<svg id="cg9270" xmlns="http://www.w3.org/2000/svg" viewBox="0 0 89 89"><style>
    #cg9270 {
      overflow: hidden;
    }

    #cg9270 .button {
      opacity: 0;
      pointer-events: none;
      transition: 0.2s ease;
      transform: translate3d(0, 20px, 0);
    }

    #cg9270 .button.png-wide {
      transition-delay: 0.2s;
    }

    #cg9270.menu-in .button {
      opacity: 1;
      pointer-events: auto;
      cursor: pointer;
      transform: translate3d(0, 0, 0);
    }

    #cg9270.menu-in .button .button-bg {
      transition: fill 0.2s ease;
    }

    #cg9270.menu-in .button:hover .button-bg {
      fill: #FF5FFA;
    }

    #cg9270 .cg-glasses {
      transition: opacity 0.2s ease;
    }

    #cg9270 #deal-with-it-glasses {
      opacity: 0;
      pointer-events: none;
      transition: opacity 0.2s ease, transform 3s linear;
      transform: translate3d(0, -60px, 0);
    }

    #cg9270.deal-with-it #deal-with-it-glasses {
      opacity: 1;
      transform: translate3d(0, 0, 0);
    }

    #cg9270.deal-with-it .cg-glasses {
      opacity: 0;
      transition-delay: 2s;
    }

  
      #cg9270 .cg-glasses {
        transition: opacity 0.2s ease;
      }

      #cg9270.get-time .cg-glasses {
        opacity: 0;
      }
    
    #cg9270 .cg-eyes {
      transition: opacity 0.2s ease;
    }

    #cg9270.get-time .cg-eyes {
      opacity: 0;
    }
  
    #cg9270 .cg-time {
      pointer-events: none;
      transition: opacity 0.2s ease;
      opacity: 0;
    }

    #cg9270.get-time .cg-time {
      opacity: 1;
    }

    #cg9270 .cg-time .cg-digit-colon {
      animation: cg-colon-blink 1s ease-in-out 0s infinite;
    }

    @keyframes cg-colon-blink {
      20% {
        opacity: 1;
      }
      50% {
        opacity: 0;
      }
      80% {
        opacity: 1;
      }
    }
  
    #cg9270 .cg-body {
      animation: cg-anim-hover 1.5s ease-in-out -1.3043s infinite;
      transform-origin: center;
      transform-box: fill-box;
    }

    @keyframes cg-anim-hover {
      0% {
        transform: translate3d(0,0,0);
      }
      50% {
        transform: translate3d(0,-2px,0);
      }
      100% {
        transform: translate3d(0,0,0);
      }
    }
  
    #cg9270 .cg-shadow {
      animation: cg-anim-shadow 1.5s ease-in-out -1.3043s infinite;
      transform-origin: center;
      transform-box: fill-box;
    }

    @keyframes cg-anim-shadow {
      0% {
        transform: scale3d(1,1,1);
      }
      50% {
        transform: scale3d(0.9,1,1);
      }
      100% {
        transform: scale3d(1,1,1);
      }
    }
  
      @keyframes cg-anim-rgb {
        0% {
          fill: #FF5F5F;
        }
        11.1111% {
          fill: #FFA45F;
        }
        22.2222% {
          fill: #BAFF5F;
        }
        33.3333% {
          fill: #5FFF74;
        }
        44.4444% {
          fill: #5FFFCE;
        }
        55.5555% {
          fill: #5FD9FF;
        }
        66.6666% {
          fill: #5F6AFF;
        }
        77.7777% {
          fill: #AA5FFF;
        }
        88.8888% {
          fill: #FF5FFA;
        }
        100% {
          fill: #FF5F5F;
        }
      }
    
      #cg9270 .glasses-color {
        animation: cg-anim-rgb 3s linear -0.7499s infinite;
      }
    </style><path class="cg-bg" d="M0 0h89v89H0z" fill="#FE658A"></path><g id="frustrated-emote"><g id="frustrated-emote-bg-right"><g><path d="M80 12v6h-1v2h-2v1h-7v-1h-3v-1h1v-1h-1v-6h1v-2h2V9h7v1h2v2h1zM81 12v6h-1v-6h1z"/><path d="M79 19v-1h1v2h-1v-1zM80 10v2h-1v-2h1zM79 9v1h-2V9h2zM77 21v-1h2v1h-2zM77 9h-7V8h7v1zM75 21h2v1h-7v-1h5zM70 9v1h-2V9h2zM67 12v-2h1v2h-1zM67 18h1v1h-1zM67 16v2h-1v-6h1v4zM66 20v-1h1v1h3v1h-5v-1h1z"/></g></g><path fill="#EAE8E8" d="M80 12v6h-1v2h-2v1h-7v-1h-3v-1h1v-1h-1v-6h1v-2h2V9h7v1h2v2h1z"/><g opacity=".17" id="frustrated-emote-shadow-right"><path d="M67 17h1v1h-1zM69 19h-2v1h3v-1h-1zM79 17h1v1h-1zM77 19v1h2v-1h-2zM75 20h-5v1h7v-1h-2z"/></g><g id="frustrated-emote-symbol-right"><path d="M78 13h-1v-2h-3v1h2v1h-2v1h-1v-1h1v-1h-1v-1h-2v1h1v1h-1v1h-1v-1h-1v2h1v1h1v2h-1v1h4v-1h2v-1h-2v-2h2v2h1v1h1v-1h1v-4h-1zm-5 5h-1v-1h1v1zm0-2h-1v-1h1v1zm5-1v1h-1v-2h1v1z"/><path d="M76 18h1v1h-1zM74 19v1h2v-1h-2zM70 12h1v1h-1zM69 17h1v1h-1z"/></g></g><path class="cg-shadow" opacity=".17" d="M60 79v-1H29v1h-2v1h3v1h29v-1h3v-1z"/><g class="cg-body"><g id="angel-wings"><g id="angel-wings-left"><path d="M23 38v-2h-1v-1h-1v-1h-1v-1h-2v-1h-3v-1h-1v-1h-1v-1h-1v-2h-1v-2h-1v-1H9v-1H7v1H6v1H5v5H4v1H3v4h1v2H3v4h1v1h1v1h1v3h1v1h1v1h4v-1h1v1h7v-1h2v-1h1v-2h1v-6h-1z" id="angel-wings-outline-left"/><g id="Layer_290" fill="#8EE4FF"><path d="M5 41H4v-3h2v1h2v1h3v1h1v1h-2v1H6v-1H5v-1z"/><path d="M14 31v1h1v1h3v1h2v1h1v1h1v2h1v6h-1v2h-2v1h-7v-1h-1v1H8v-1H7v-2h3v-1h2v-1h1v-1h-1v-1h-1v-4h4v2h-1v1h1v-1h1v-2h-1v-1h-4v1h-1v-1H9v-1H8v-1H7v-1H6v-7h1v-1h2v1h1v2h1v2h1v1h1v1h1z"/><path d="M10 38v1H8v-1H6v-1H5v-2H4v-4h1v1h1v1h1v1h1v1h1v1h1v2z"/></g><g opacity=".71" fill="#D9F6FF" id="angel-wings-highlight-left"><path d="M22 43h1v1h-1zM19.7 46H19v1h1v-1h-.3zM20 45v1h2v-1h-2zM22 38h1v1h-1zM22 36h-1v2h1v-2zM10 36H9v3h1v-3zM20 35h1v1h-1zM19 38v1h-1v1h1v1h1v-1h1v-1h-1v-1zM19 34h-1v1h2v-1h-1zM17 33h-2v1h3v-1h-1zM16 41h1v1h-1zM14 32h1v1h-1zM13 31h1v1h-1zM12 30h1v1h-1zM11 29h1v1h-1zM8 24h1v1H8zM11.5 46H11v1h1v-1h-.5zM7.5 39H7v1h1v-1h-.5zM5.5 38H5v1h1v-1h-.5zM8.5 35H8v1h1v-1h-.5zM7.5 34H7v1h1v-1h-.5zM6.5 33H6v1h1v-1h-.5zM5.5 32H5v1h1v-1h-.5zM14.5 36H14v1h1v-1h-.5zM14.5 37H14v1h1v-1h-.5zM13.5 38H13v1h1v-1h-.5zM11 27h-1v2h1v-2zM10 25H9v2h1v-2zM8 29h1v1H8zM11 41h1v1h-1zM9 42h1v1H9zM10 40h1v1h-1zM23 42v-3h-1v4h1v-1z"/></g></g><g id="angel-wings-right"><path d="M86 35v-4h-1v-1h-1v-5h-1v-1h-1v-1h-2v1h-1v1h-1v2h-1v2h-1v1h-1v1h-1v1h-3v1h-2v1h-1v1h-1v1h-1v2h-1v6h1v2h1v1h2v1h7v-1h1v1h4v-1h1v-1h1v-3h1v-1h1v-1h1v-4h-1v-2h1z" id="angel-wings-outline-right"/><g id="Layer_291" fill="#8EE4FF"><path d="M83 42v1h-4v-1h-2v-1h1v-1h3v-1h2v-1h2v3h-1v1h-1z"/><path d="M82 34v-1h1v-1h1v-1h1v4h-1v2h-1v1h-2v1h-2v-3h1v-1h1v-1h1z"/><path d="M77 40v1h-1v1h1v1h2v1h3v2h-1v1h-4v-1h-1v1h-7v-1h-2v-2h-1v-6h1v-2h1v-1h1v-1h2v-1h3v-1h1v-1h1v-1h1v-1h1v-2h1v-2h1v-1h2v1h1v7h-1v1h-1v1h-1v1h-1v1h-1v-1h-4v1h-1v2h1v1h1v-1h-1v-2h4v4h-1z"/></g><g opacity=".71" fill="#D9F6FF" id="angel-wings-highlight-right"><path d="M78 35h1v1h-1zM79 34h1v1h-1zM80 33h1v1h-1zM81 32h1v1h-1zM70 38v1h1v1h-1v1h-1v-1h-1v-1h1v-1zM72 41h1v1h-1zM73 38h1v1h-1zM73 35h1v1h-1zM80 43h-1v-1h4v1h-3zM80 39h-1v-1h2v1h-1zM80 29h1v1h-1zM81 24h1v1h-1zM82 38h-1v-1h2v1h-1zM83 26v6h-1v-7h1v1zM83 41h1v1h-1zM80 46h1v1h-1zM75 46h1v1h-1zM76 42h1v1h-1zM75 41h1v1h-1zM76 40h1v1h-1zM84 37h-1v-2h1v2zM82 46h-1v-2h1v2zM73 38h-1v-2h1v2zM84 39v-1h1v3h-1v-2zM84 34v-3h1v4h-1v-1zM77 39v-3h1v4h-1v-1z"/></g></g></g><path d="M63 47v-4h-1v-3h-1v-2h-1v-1h-1v-1h-1v-1h-1v-1h-1v-1h-1v-1h-2v-1h-2v-1H38v1h-2v1h-2v1h-1v1h-1v1h-1v1h-1v1h-1v1h-1v2h-1v3h-1v4h-1v13h1v3h1v3h1v1h1v1h1v1h2v1h2v-1h1v-1h1v-4h1v3h1v1h1v1h2v-1h1v-1h1v-4h1v-1h1v1h1v4h1v1h1v1h2v-1h1v-1h1v-3h1v4h1v1h1v1h2v-1h2v-1h1v-1h1v-1h1v-3h1v-3h1V47z"/><path class="cg-body-color" fill="#88E276" d="M62 47v-4h-1v-3h-1v-2h-1v-1h-1v-1h-1v-1h-1v-1h-1v-1h-2v-1h-2v-1H38v1h-2v1h-2v1h-1v1h-1v1h-1v1h-1v1h-1v2h-1v3h-1v4h-1v13h1v3h1v3h1v1h1v1h2v1h2v-1h1v-4h1v-1h1v1h1v3h1v1h2v-1h1v-4h1v-1h1v-1h1v1h1v1h1v4h1v1h2v-1h1v-3h1v-1h1v1h1v4h1v1h2v-1h2v-1h1v-1h1v-3h1v-3h1V47z"/><g class="cg-face"><path d="M39 36v1h-3v1h-1v1h-1v1h-1v2h-1v2h1v1h1v1h2v1h3v1h11v-1h3v-1h2v-1h1v-1h1v-2h-1v-2h-1v-1h-1v-1h-1v-1h-3v-1z"/><path fill="#FFF" d="M39 37v1h-3v1h-1v1h-1v2h-1v2h1v1h2v1h3v1h11v-1h3v-1h2v-1h1v-2h-1v-2h-1v-1h-1v-1h-3v-1z"/><g class="cg-eyes"><path d="M36 45h1v-2h3v2h1v-2h-1v-1h-3v1h-1zM48 45h1v-2h3v2h1v-2h-1v-1h-3v1h-1z"/></g><g class="cg-digits" style="display: none;"><g class="cg-digit-zero"><path d="M38 40h-2v5h3v-5h-1zm0 2v2h-1v-3h1v1z"/></g><g class="cg-digit-one"><path d="M39 44v1h-3v-1h1v-2h-1v-1h1v-1h1v4h1z"/></g><g class="cg-digit-two"><path d="M39 42h-1v-1h1v1zm-1 3h1v-1h-2v1h1zm0-3h-1v1h1v-1zm-1-2h-1v1h2v-1h-1zm-1 3v1h1v-1h-1z"/></g><g class="cg-digit-three"><path d="M38 44v-1h1v1h-1zm1-3h-1v1h1v-1zm-2 1v1h1v-1h-1zm0-2h-1v1h2v-1h-1zm-1 4v1h2v-1h-2z"/></g><g class="cg-digit-four"><path d="M39 41v4h-1v-2h-2v-3h1v2h1v-1h1z"/></g><g class="cg-digit-five"><path d="M38 44v-1h1v1h-1zm0-3h1v-1h-3v3h2v-1h-1v-1h1zm-2 3v1h2v-1h-2z"/></g><g class="cg-digit-six"><path d="M38 41h-1v-1h2v1h-1zm-2 0v3h1v-1h1v1h-1v1h2v-3h-2v-1h-1z"/></g><g class="cg-digit-seven"><path d="M39 40v5h-1v-4h-2v-1h3z"/></g><g class="cg-digit-eight"><path d="M38 40h-2v5h3v-5h-1zm0 4h-1v-1h1v1zm0-2h-1v-1h1v1z"/></g><g class="cg-digit-nine"><path d="M38 40h-2v3h2v2h1v-5h-1zm0 2h-1v-1h1v1z"/></g><g class="cg-digit-colon"><path d="M45 42h-1v-1h1v1zm0 1h-1v1h1v-1z"/></g></g><g class="cg-time"></g></g><g id="crowbar"><path d="M68 67v3h-4v3h1v-2h3v2h1v-6z"/><path fill="#7D8E9E" d="M68 71h-3v2h3v-1z"/><path fill="#BC1515" d="M66 70h2v-3h-1v-1h-6v1h-1v1h-1v1h5v1h1zM29 68v-1h-1v-1h-4v1h-1v1h1v1h6v-1zM53 68v-2H36v2h-1v1h19v-1z"/><path d="M67 66h1v1h-1zM66 73h-1v1h3v-1h-1zM37 66h16v-1H36v1zM63 66h4v-1h-5v1zM23 67h1v-1h3v-1h-4v1zM31 69h-7v-1h-1v1h-3v1h12v-1zM63 69h-6v1h7v-1zM54 69H34v1h21v-1zM22 67h1v1h-1zM22 60v5h1v-7h-1v1zM21 57h1v1h-1zM20 58h1v1h-1zM19 68h1v1h-1zM19 57h1v1h-1z"/><path fill="#7D8E9E" d="M22 69h1v-1h-1v-1h1v-2h-1v-7h-1v1h-1v-1h-1v10h1v1h1z"/><path d="M19 66v-8h-1v10h1v-1zM56 69h-1v1h2v-1z"/><path opacity=".19" d="M36 66h17v1H36zM35 68h19v1H35zM61 66h6v1h-6zM67 67h1v3h-1zM24 66h4v1h-4zM24 68h6v1h-6z"/><path transform="rotate(-90 20.5 63)" opacity=".19" d="M15.5 62.5h10v1h-10z"/><path transform="rotate(-90 66.5 72)" opacity=".19" d="M65.5 71.5h2v1h-2z"/><path opacity=".19" d="M59 68v1h5v1h1v-2z"/><path transform="rotate(-90 21.5 67.5)" opacity=".19" d="M21 67h1v1h-1z"/></g><g class="cg-glasses" id="hot-glasses"><path d="M64 39v-1H53v1h-5v1h-1v1h-5v-1h-1v-1h-5v-1H25v1h-1v1h1v1h2v2h1v1h1v1h1v1h1v1h1v1h2v1h7v-1h1v-1h1v-1h1v-1h1v1h1v1h1v1h1v1h7v-1h2v-1h1v-1h1v-1h1v-1h1v-1h1v-2h2v-1h1v-1h-1zm-5 4h-1v1h-1v1h-2v1h-7v-1h-1v-2h1v-1h5v-1h6v2zm-17 2h-1v1h-7v-1h-2v-1h-1v-1h-1v-2h6v1h5v1h1v2z" id="hot-glasses-bg"/><g fill="#E6769A" class="glasses-color"><path d="M60 42v1h1v-2h-1v1zM29 41h-1v2h1v-2zM63 39H53v1h8v1h1v-1h2v-1h-1zM59 43h1v1h-1zM58 44h1v1h-1zM57 45h1v1h-1zM55 46v1h2v-1h-2zM53 47h-5v1h7v-1h-2zM47 46h1v1h-1zM46 45h1v1h-1zM42 45h1v1h-1zM41 46h1v1h-1zM39 47h-5v1h7v-1h-2zM33 46h-1v1h2v-1h-1zM31 45h1v1h-1zM30 44h1v1h-1zM29 43h1v1h-1zM50 41h3v-1h-5v1h2zM47 41h1v1h-1zM46 43h1v-1h-5v1h1v2h1v-2h1v2h1v-2zM41 41h1v1h-1zM37 41h4v-1h-5v1h1zM29 40h7v-1H25v1h2v1h1v-1h1z"/></g><g fill="#333" id="hot-glasses-glass" opacity=".5"><path d="M41 42h-5v-1h-6v2h1v1h1v1h2v1h7v-1h1v-2h-1zM59 41h-6v1h-5v1h-1v2h1v1h7v-1h2v-1h1v-1h1z"/></g></g><g id="deal-with-it-glasses"><path d="M64 42h-3v1h4v-1zM60 41H28v1h1v2h1v2h1v2h1v1h9v-1h1v-2h1v-2h1v-2h1v2h1v2h1v2h1v1h9v-1h1v-2h1v-2h1v-2h1v-1z"/><path fill="#FFF" d="M33 45v1h-1v-2h1v1zm0 2h1v-1h-1v1zm2-3h-1v2h1v-2zm0 3h1v-1h-1v1zm-1-4h-1v1h1v-1zm-3 0v1h1v-1h-1zm18 1h-1v2h1v-2zm0 3h1v-1h-1v1zm2-3h-1v2h1v-2zm0 2v1h1v-1h-1zm-1-3h-1v1h1v-1zm-3 0v1h1v-1h-1z"/></g></g><a href="/images/png/cg9270-512.png" class="button png-square"><path class="button-bg" d="M26 75h13v11H26z"/><path fill="#FFF" d="M36 77h-1v1h1v5h-1v1h2v-7zm-8 0v7h2v-1h-1v-5h1v-1h-1zm6 3h1v1h-1zm-4 0h1v1h-1zm3 0v-2h-1v3h-1v1h1v1h1v-1h1v-1h-1z"/><title>Download square PNG</title></a><a href="/images/png/cg9270-wide.png" class="button png-wide"><path class="button-bg" d="M42 75h21v11H42z"/><path fill="#FFF" d="M60 77h-1v1h1v5h-1v1h2v-7zm-16 0v7h2v-1h-1v-5h1v-1h-1zm10 3h1v1h-1zm-4 0h1v1h-1zm3 0v-2h-1v3h-1v1h1v1h1v-1h1v-1h-1z"/><title>Download wide PNG</title></a><script type="text/javascript"><![CDATA[
    let cg9270Root = document.getElementById('cg9270');

    if (cg9270Root) {
      let cgRoot = cg9270Root;
      let cgBg = cgRoot.querySelector('.cg-bg');
      let cgBody = cgRoot.querySelector('.cg-body');

      cgBg.addEventListener('dblclick', () => {
        cgRoot.classList.toggle('menu-in');
      });

      cgBody.addEventListener('click', () => {

        let bufferArray = [];
        let lastKeystrokeTime = Date.now();
        const cheatcode = (e) => {

          const key = e.key.toLowerCase();
          const latestKeystrokeTime = Date.now();

          if (latestKeystrokeTime - lastKeystrokeTime > 1500) {
            bufferArray = [];
          }

          bufferArray.push(key);

          const word = bufferArray.join('');
          if (word === 'dealwithit') {
            console.log('No u.');

            cgRoot.classList.add('deal-with-it');

            setTimeout(() => {
              cgRoot.classList.remove('deal-with-it');
            }, 10000);

            clearListener();
          }
  
          lastKeystrokeTime = latestKeystrokeTime;

        }
        document.addEventListener('keyup', cheatcode, true);

        const clearListener = () => {
          document.removeEventListener('keyup', cheatcode, true);
        }

      });
    
    let cgDigits = cgRoot.querySelector('.cg-digits');
    let cgTime = cgRoot.querySelector('.cg-time');
  

      let cgGlasses = cgRoot.querySelector('.cg-glasses');
      cgGlasses.addEventListener('dblclick', () => {
        cgRoot.classList.add('get-time');

        let now = new Date();
        let hours = ('0' + now.getHours()).substr(-2);
        let minutes = ('0' + now.getMinutes()).substr(-2);;
        let digits = [hours.substr(0,1), hours.substr(1), minutes.substr(0,1), minutes.substr(1)];

        cgTime.replaceChildren();

        for (let i = 0; i < 4; i++) {
          switch (digits[i]) {
            case '0':
              cgTime.appendChild(cgDigits.querySelector('.cg-digit-zero').cloneNode(true));
              break;
            case '1':
              cgTime.appendChild(cgDigits.querySelector('.cg-digit-one').cloneNode(true));
              break;
            case '2':
              cgTime.appendChild(cgDigits.querySelector('.cg-digit-two').cloneNode(true));
              break;
            case '3':
              cgTime.appendChild(cgDigits.querySelector('.cg-digit-three').cloneNode(true));
              break;
            case '4':
              cgTime.appendChild(cgDigits.querySelector('.cg-digit-four').cloneNode(true));
              break;
            case '5':
              cgTime.appendChild(cgDigits.querySelector('.cg-digit-five').cloneNode(true));
              break;
            case '6':
              cgTime.appendChild(cgDigits.querySelector('.cg-digit-six').cloneNode(true));
              break;
            case '7':
              cgTime.appendChild(cgDigits.querySelector('.cg-digit-seven').cloneNode(true));
              break;
            case '8':
              cgTime.appendChild(cgDigits.querySelector('.cg-digit-eight').cloneNode(true));
              break;
            case '9':
              cgTime.appendChild(cgDigits.querySelector('.cg-digit-nine').cloneNode(true));
              break;
          }
        }

        cgTime.childNodes[1].style.transform = 'translateX(4px)';
        cgTime.childNodes[2].style.transform = 'translateX(10px)';
        cgTime.childNodes[3].style.transform = 'translateX(14px)';

        cgTime.appendChild(cgDigits.querySelector('.cg-digit-colon').cloneNode(true));

        setTimeout(() => {
          cgRoot.classList.remove('get-time');
        }, 10000);
      });

    }]]></script></svg>