<svg id="cg9363" xmlns="http://www.w3.org/2000/svg" viewBox="0 0 89 89"><style>
    #cg9363 {
      overflow: hidden;
    }

    #cg9363 .button {
      opacity: 0;
      pointer-events: none;
      transition: 0.2s ease;
      transform: translate3d(0, 20px, 0);
    }

    #cg9363 .button.png-wide {
      transition-delay: 0.2s;
    }

    #cg9363.menu-in .button {
      opacity: 1;
      pointer-events: auto;
      cursor: pointer;
      transform: translate3d(0, 0, 0);
    }

    #cg9363.menu-in .button .button-bg {
      transition: fill 0.2s ease;
    }

    #cg9363.menu-in .button:hover .button-bg {
      fill: #FF5FFA;
    }

    #cg9363 .cg-glasses {
      transition: opacity 0.2s ease;
    }

    #cg9363 #deal-with-it-glasses {
      opacity: 0;
      pointer-events: none;
      transition: opacity 0.2s ease, transform 3s linear;
      transform: translate3d(0, -60px, 0);
    }

    #cg9363.deal-with-it #deal-with-it-glasses {
      opacity: 1;
      transform: translate3d(0, 0, 0);
    }

    #cg9363.deal-with-it .cg-glasses {
      opacity: 0;
      transition-delay: 2s;
    }

  
      #cg9363.blastoff .cg-body {
        animation: cg-anim-takeoff 10s ease-in 0s;
      }

      #cg9363.blastoff .cg-shadow {
        animation: cg-anim-shadow-takeoff 10s ease-in 0s;
      }

      #cg9363.blastoff .rocket-flame {
        animation-name: cg-anim-rocket-blastoff;
      }
    
      #cg9363 .cg-glasses {
        transition: opacity 0.2s ease;
      }

      #cg9363.get-time .cg-glasses {
        opacity: 0;
      }
    
    #cg9363 .cg-eyes {
      transition: opacity 0.2s ease;
    }

    #cg9363.get-time .cg-eyes {
      opacity: 0;
    }
  
    #cg9363 .cg-time {
      pointer-events: none;
      transition: opacity 0.2s ease;
      opacity: 0;
    }

    #cg9363.get-time .cg-time {
      opacity: 1;
    }

    #cg9363 .cg-time .cg-digit-colon {
      animation: cg-colon-blink 1s ease-in-out 0s infinite;
    }

    @keyframes cg-colon-blink {
      20% {
        opacity: 1;
      }
      50% {
        opacity: 0;
      }
      80% {
        opacity: 1;
      }
    }
  
    #cg9363 .cg-body {
      animation: cg-anim-hover 1.5s ease-in-out -0.559s infinite;
      transform-origin: center;
      transform-box: fill-box;
    }

    @keyframes cg-anim-hover {
      0% {
        transform: translate3d(0,0,0);
      }
      50% {
        transform: translate3d(0,-2px,0);
      }
      100% {
        transform: translate3d(0,0,0);
      }
    }
  
      @keyframes cg-anim-takeoff {
        0% {
          transform: translate3d(0,0,0);
        }
        95% {
          transform: translate3d(0,-120px,0);
        }
        100% {
          transform: translate3d(0,0,0);
        }
      }
    
    #cg9363 .cg-shadow {
      animation: cg-anim-shadow 1.5s ease-in-out -0.559s infinite;
      transform-origin: center;
      transform-box: fill-box;
    }

    @keyframes cg-anim-shadow {
      0% {
        transform: scale3d(1,1,1);
      }
      50% {
        transform: scale3d(0.9,1,1);
      }
      100% {
        transform: scale3d(1,1,1);
      }
    }
  
      @keyframes cg-anim-shadow-takeoff {
        0% {
          transform: scale3d(0.9,1,1);
        }
        95% {
          transform: scale3d(0.1,1,1);
        }
        100% {
          transform: scale3d(1,1,1);
        }
      }
    
      #cg9363 .rocket-flame {
        animation: cg-anim-rocket 0.5s steps(1) -0.2049s infinite;
        transform-origin: center top;
        transform-box: fill-box;
      }

      @keyframes cg-anim-rocket {
        0% {
          transform: scaleX(1) translate3d(0, 0, 0);
        }
        25% {
          transform: scaleX(-1) translate3d(0, -1px, 0);
        }
        50% {
          transform: scaleX(1) translate3d(0, -2px, 0);
        }
        75% {
          transform: scaleX(-1) translate3d(0, -1px, 0);
        }
        100% {
          transform: scaleX(1) translate3d(0, 0, 0);
        }
      }

      @keyframes cg-anim-rocket-blastoff {
        0% {
          transform: scaleX(1) scaleY(1) translate3d(0, 0, 0);
        }
        25% {
          transform: scaleX(-1) scaleY(1.5) translate3d(0, -1px, 0);
        }
        50% {
          transform: scaleX(1) scaleY(2) translate3d(0, -2px, 0);
        }
        75% {
          transform: scaleX(-1) scaleY(1.5) translate3d(0, -1px, 0);
        }
        100% {
          transform: scaleX(1) scaleY(1) translate3d(0, 0, 0);
        }
      }
    </style><path class="cg-bg" d="M0 0h89v89H0z" fill="#707138"></path><g id="ada-bag"><path opacity=".17" d="M81 74H58v1h24v-1h-1z" id="ada-bag-bottom-shadow"/><path d="M81 62v-1h-1v-1h-1v-2h-1v-1h-2v-1h-1v-1h-2v-2h1v-1h2v-3h-1v-1h-6v3h-1v2h-1v2h-2v1h-2v1h-2v1h-1v2h-1v2h-1v9h1v2h-1v1h24v-1h-1v-2h1v-9h-1z" id="ada-bag-bg"/><path fill="#FF8749" d="M62 58h1v-1h2v-1h2v-1h1v-2h1v-2h1v-2h5v2h-2v2h-1v2h1v1h2v1h1v1h2v2h1v1h1v1h1v9h-1v2H60v-2h-1v-9h1v-2h1v-2h1z" id="ada-bag-colour"/><g fill="#F9F871" id="ada-bag-symbol"><path d="M75 71h1v-2h-1v2zM75 67h1v-1h-2v-2h1v-1h-2v-3h-1v3h-4v-3h-1v3h-2v1h1v2h-2v1h1v2h1v-2h8v2h1v-2zm-3-1h-5v-2h6v2h-1zM71 59h1v1h-1zM64 70v1h1v-2h-1v1zM68 59h1v1h-1zM71 59v-1h-2v1h2z"/></g><path fill="#A16E85" d="M71 53h-1v-1h-1v1h-1v1h1v1h3v-2z" id="ada-bag-tie"/><g fill="#FFC86D" id="ada-bag-highlight"><path d="M69 69h1v1h-1zM61 67h1v1h-1zM77 70h1v1h-1zM78 67h1v1h-1zM77 62h1v1h-1zM62 61h1v1h-1zM65 58h1v1h-1zM68 55h1v1h-1zM73 57h1v1h-1z"/></g></g><path class="cg-shadow" opacity=".17" d="M60 79v-1H29v1h-2v1h3v1h29v-1h3v-1z"/><g class="cg-body"><g id="rockets"><g id="rocket-right"><g class="rocket-flame"><path fill="#FF4E00" d="M65 57h-1v4h-1v5h1v1h-1v4h1v1h-1v2h1v1h1v-5h-1v-2h1v-1h1v-7h1v-3h-2zM63 59v-2h-1v4h1v-2z"/><path fill="#FF9945" d="M66 56h-4v1h1v4h1v5h1v-6h1v-3h1v-1h-1z"/><path fill="#F9F871" d="M65 56h-2v2h1v3h1v-1h1v-4h-1z"/></g><path d="M69 39v-1h-1v-1h-7v1h-1v1h-1v13h1v1h1v2h1v1h5v-1h1v-2h1v-1h1V39h-1z"/><g><path fill="#B3B3B3" d="M67 54v1h-5v-1h5z"/><path fill="#3F3F3F" d="M61 39v-1h7v1h1v13h-1v1h-7v-1h-1V39h1z"/></g><path opacity=".17" d="M68 39v1h-1v11h-1v-3h-1v-2h-1v-3h-1v-5h-2v1h-1v13h1v1h7v-1h1V39h-1z"/></g><g id="rocket-left"><g class="rocket-flame"><path fill="#FF4E00" d="M24 57h1v4h1v5h-1v1h1v4h-1v1h1v2h-1v1h-1v-5h1v-2h-1v-1h-1v-7h-1v-3h2zM26 59v-2h1v4h-1v-2z"/><path fill="#FF9945" d="M23 56h4v1h-1v4h-1v5h-1v-6h-1v-3h-1v-1h1z"/><path fill="#F9F871" d="M24 56h2v2h-1v3h-1v-1h-1v-4h1z"/></g><path d="M20 39v-1h1v-1h7v1h1v1h1v13h-1v1h-1v2h-1v1h-5v-1h-1v-2h-1v-1h-1V39h1z"/><g><path fill="#B3B3B3" d="M22 54v1h5v-1h-5z"/><path fill="#3F3F3F" d="M28 39v-1h-7v1h-1v13h1v1h7v-1h1V39h-1z"/></g><path opacity=".18" d="M21 39v1h1v11h1v-3h1v-2h1v-3h1v-5h2v1h1v13h-1v1h-7v-1h-1V39h1z"/></g></g><path d="M63 47v-4h-1v-3h-1v-2h-1v-1h-1v-1h-1v-1h-1v-1h-1v-1h-1v-1h-2v-1h-2v-1H38v1h-2v1h-2v1h-1v1h-1v1h-1v1h-1v1h-1v1h-1v2h-1v3h-1v4h-1v13h1v3h1v3h1v1h1v1h1v1h2v1h2v-1h1v-1h1v-4h1v3h1v1h1v1h2v-1h1v-1h1v-4h1v-1h1v1h1v4h1v1h1v1h2v-1h1v-1h1v-3h1v4h1v1h1v1h2v-1h2v-1h1v-1h1v-1h1v-3h1v-3h1V47z"/><path class="cg-body-color" fill="#FFFFFF" d="M62 47v-4h-1v-3h-1v-2h-1v-1h-1v-1h-1v-1h-1v-1h-1v-1h-2v-1h-2v-1H38v1h-2v1h-2v1h-1v1h-1v1h-1v1h-1v1h-1v2h-1v3h-1v4h-1v13h1v3h1v3h1v1h1v1h2v1h2v-1h1v-4h1v-1h1v1h1v3h1v1h2v-1h1v-4h1v-1h1v-1h1v1h1v1h1v4h1v1h2v-1h1v-3h1v-1h1v1h1v4h1v1h2v-1h2v-1h1v-1h1v-3h1v-3h1V47z"/><g class="cg-face"><path d="M39 36v1h-3v1h-1v1h-1v1h-1v2h-1v2h1v1h1v1h2v1h3v1h11v-1h3v-1h2v-1h1v-1h1v-2h-1v-2h-1v-1h-1v-1h-1v-1h-3v-1z"/><path fill="#FFF" d="M39 37v1h-3v1h-1v1h-1v2h-1v2h1v1h2v1h3v1h11v-1h3v-1h2v-1h1v-2h-1v-2h-1v-1h-1v-1h-3v-1z"/><g class="cg-eyes"><path d="M52 43v1h-1v-1h1v-1h-3v1h-1v2h5v-2h-1zM40 45h1v-2h-1v2zM39 42h-2v1h3v-1h-1zM36 44v1h1v-2h-1v1z"/></g><g class="cg-digits" style="display: none;"><g class="cg-digit-zero"><path d="M38 40h-2v5h3v-5h-1zm0 2v2h-1v-3h1v1z"/></g><g class="cg-digit-one"><path d="M39 44v1h-3v-1h1v-2h-1v-1h1v-1h1v4h1z"/></g><g class="cg-digit-two"><path d="M39 42h-1v-1h1v1zm-1 3h1v-1h-2v1h1zm0-3h-1v1h1v-1zm-1-2h-1v1h2v-1h-1zm-1 3v1h1v-1h-1z"/></g><g class="cg-digit-three"><path d="M38 44v-1h1v1h-1zm1-3h-1v1h1v-1zm-2 1v1h1v-1h-1zm0-2h-1v1h2v-1h-1zm-1 4v1h2v-1h-2z"/></g><g class="cg-digit-four"><path d="M39 41v4h-1v-2h-2v-3h1v2h1v-1h1z"/></g><g class="cg-digit-five"><path d="M38 44v-1h1v1h-1zm0-3h1v-1h-3v3h2v-1h-1v-1h1zm-2 3v1h2v-1h-2z"/></g><g class="cg-digit-six"><path d="M38 41h-1v-1h2v1h-1zm-2 0v3h1v-1h1v1h-1v1h2v-3h-2v-1h-1z"/></g><g class="cg-digit-seven"><path d="M39 40v5h-1v-4h-2v-1h3z"/></g><g class="cg-digit-eight"><path d="M38 40h-2v5h3v-5h-1zm0 4h-1v-1h1v1zm0-2h-1v-1h1v1z"/></g><g class="cg-digit-nine"><path d="M38 40h-2v3h2v2h1v-5h-1zm0 2h-1v-1h1v1z"/></g><g class="cg-digit-colon"><path d="M45 42h-1v-1h1v1zm0 1h-1v1h1v-1z"/></g></g><g class="cg-time"></g></g><g id="bandaid"><path d="M63 49v-2h-1v1h-3v1h-1v2h-2v1h-4v1h-1v1h-1v6h1v1h1v1h4v-1h3v1h4v-3h1V49z"/><g><path fill="#F2C79E" d="M58 57v3h-2v1h-4v-1h-1v-6h1v-1h4v-1h2v4z"/><path fill="#E79739" d="M63 50v8h-1v1h-3v-8h3v-1z"/><path fill="#F2C79E" d="M59 49h3v1h-3zM62 48h1v1h-1zM59 60h3v1h-3zM62 59h1v1h-1z"/></g><g opacity=".19"><path d="M62 57h1v1h-1zM60 58h1v1h-1zM62 55h1v1h-1zM62 53h1v1h-1zM62 51h1v1h-1zM60 56h1v1h-1zM60 54h1v1h-1zM60 52h1v1h-1z"/><g opacity=".7"><path d="M57 58h1v1h-1zM55 59h1v1h-1zM57 56h1v1h-1zM57 54h1v1h-1zM57 52h1v1h-1zM55 57h1v1h-1zM55 55h1v1h-1zM55 53h1v1h-1z"/></g><g opacity=".7"><path d="M53 59h1v1h-1zM51 60h1v1h-1zM53 57h1v1h-1zM53 55h1v1h-1zM53 53h1v1h-1zM51 58h1v1h-1zM51 56h1v1h-1zM51 54h1v1h-1z"/></g></g><g opacity=".38"><path d="M54 49v4h1v-5h-1v1zM54 46h-1v2h1v-2zM51 36v1h1v-2h-1v1zM51 33h-1v2h1v-2z"/></g></g><g id="hockey-stick"><g><path d="M77 65H62v1h-1v1h-1v1h-1v1h18v-1h1v-2h-1v-1zM53 66v-1H36v3h-1v1h19v-1h-1v-2zM29 67h-1v-1h-1v-1h-8v-1h-1v-2h-1v-2h-1v-2h-1v-4h-1v-3h-1v-1H7v1H6v3h1v4h1v2h1v2h1v2h1v1h1v1h1v1h1v1h2v1h14v-1h-1v-1z"/></g><g><path fill="#754C24" d="M72 68H60v-1h1v-1h16v2h-5zM52 66h1v2H36v-2h16zM28 67v-1h-9v-1h-1v-1h-1v-2h-1v-2h-1v-2h-1v-4h-1v-3H7v3h1v4h1v2h1v2h1v2h1v1h1v1h1v1h2v1h13v-1h-1z"/><path fill="#333" d="M17 64v-2h-1v-2h-1v-2h-1v-4h-1v-1H7v1h1v4h1v2h1v2h1v2h1v1h6v-1z"/></g><g><path opacity=".23" d="M7 53h6v1H7zM8 55h6v1H8zM8 57h6v1H8zM9 59h6v1H9zM10 61h6v1h-6zM11 63h6v1h-6zM20 66h8v1h-8zM36 66h17v1H36zM61 66h16v1H61z"/></g></g><g class="cg-glasses" id="medical-eye-patch"><path d="M65 48v1h-1v-1h1zm-7 1v1h6v-1h-6zm1-1h4v-1h-5v-1h-1v-7h3v-1h1v-1h-1v-1h-3v1h-2v1h-9v-1h-1v-1h-2v-1h-2v-1h-2v-1h-2v-1h-4v1h-1v1h1v1h4v1h2v1h2v1h2v1h2v7h-4v1h4v1h12v1h1v-1h1zm-18 0v1h4v-1h-4zm-8 1v1h8v-1h-8zm1-1h6v-1h-7v-1h-4v1h-3v1h3v1h4v-1h1zm-6-3h-3v1h4v-1h-1zm-4 2h1v-1h-1v1z"/><path fill="#B72937" d="M64 48v1h-6v-1h6zm-5-10h1v-1h-3v1h2zm-2 9v1h1v-1h-1zm0-1v1H45v-1h1v-7h9v-1h2v1h-1v7h1zm-3 0v-1h-1v-1h-1v-2h1v-1h1v-1h-1v1h-1v1h-2v-1h-1v-1h-1v1h1v1h1v2h-1v1h-1v1h1v-1h1v-1h2v1h1v1h1zm-9-8v1h1v-1h-1zm-1-1h-1v1h2v-1h-1zm-1 10h-2v1h4v-1h-2zm-1-11h-1v1h2v-1h-1zm-2-1h-1v1h2v-1h-1zm-1 13h-6v1h8v-1h-2zm-1-14h-1v1h2v-1h-1zm-2-1h-3v1h4v-1h-1zm-4 14h-3v1h4v-1h-1zm-4-1h-3v1h4v-1h-1z"/><path opacity=".2" d="M56 40v5h-1v-5h1zm-2 6h1v-1h-1v1zm-1-2v1h1v-1h-1zm0-2h-1v2h1v-2zm-4 1v1h1v-2h-1v1zm-1 2h1v-1h-1v1zm-1 1h1v-1h-1v1zm0-3v-3h-1v5h1v-2z"/></g><g id="rubber-ducky"><path d="M51 24v-1h-1v1h-1v1h-3v-1h-2v-2h-1v-1h-1v-1h-3v1h-1v1h-1v1h-2v1h-1v1h1v1h1v1h2v1h-1v3h1v1h1v1h2v1h7v-1h1v-1h1v-1h1v-1h1v-6h-1z"/><path fill="#FFE33E" d="M50 24v1h-1v1h-3v-1h-2v1h-1v1h-1v-1h1v-4h-1v-1h-3v1h-1v1h-1v1h1v2h2v1h-1v1h-1v3h1v1h2v1h7v-1h1v-1h1v-1h1v-6h-1zm-7 4v1h3v-1h2v-1h1v1h-1v1h-2v1h-3v-1h-1v-1h1zm-3-5h1v1h-1v-1z"/><path fill="#FF9100" d="M39 25v-1h-4v1h1v1h4v-1h-1z"/><path d="M41 32h7v1h-7v-1zm-2-1v1h2v-1h-2zm-1-3v3h1v-3h-1zm2-1h-1v1h1v-1zm2 2v1h1v-1h-1zm1 2h3v-1h-3v1zm3-1h2v-1h-2v1zm2-2v1h1v-1h-1z" opacity=".12"/></g><g id="deal-with-it-glasses"><path d="M64 42h-3v1h4v-1zM60 41H28v1h1v2h1v2h1v2h1v1h9v-1h1v-2h1v-2h1v-2h1v2h1v2h1v2h1v1h9v-1h1v-2h1v-2h1v-2h1v-1z"/><path fill="#FFF" d="M33 45v1h-1v-2h1v1zm0 2h1v-1h-1v1zm2-3h-1v2h1v-2zm0 3h1v-1h-1v1zm-1-4h-1v1h1v-1zm-3 0v1h1v-1h-1zm18 1h-1v2h1v-2zm0 3h1v-1h-1v1zm2-3h-1v2h1v-2zm0 2v1h1v-1h-1zm-1-3h-1v1h1v-1zm-3 0v1h1v-1h-1z"/></g></g><a href="/images/png/cg9363-512.png" class="button png-square"><path class="button-bg" d="M26 75h13v11H26z"/><path fill="#FFF" d="M36 77h-1v1h1v5h-1v1h2v-7zm-8 0v7h2v-1h-1v-5h1v-1h-1zm6 3h1v1h-1zm-4 0h1v1h-1zm3 0v-2h-1v3h-1v1h1v1h1v-1h1v-1h-1z"/><title>Download square PNG</title></a><a href="/images/png/cg9363-wide.png" class="button png-wide"><path class="button-bg" d="M42 75h21v11H42z"/><path fill="#FFF" d="M60 77h-1v1h1v5h-1v1h2v-7zm-16 0v7h2v-1h-1v-5h1v-1h-1zm10 3h1v1h-1zm-4 0h1v1h-1zm3 0v-2h-1v3h-1v1h1v1h1v-1h1v-1h-1z"/><title>Download wide PNG</title></a><script type="text/javascript"><![CDATA[
    let cg9363Root = document.getElementById('cg9363');

    if (cg9363Root) {
      let cgRoot = cg9363Root;
      let cgBg = cgRoot.querySelector('.cg-bg');
      let cgBody = cgRoot.querySelector('.cg-body');

      cgBg.addEventListener('dblclick', () => {
        cgRoot.classList.toggle('menu-in');
      });

      cgBody.addEventListener('click', () => {

        let bufferArray = [];
        let lastKeystrokeTime = Date.now();
        const cheatcode = (e) => {

          const key = e.key.toLowerCase();
          const latestKeystrokeTime = Date.now();

          if (latestKeystrokeTime - lastKeystrokeTime > 1500) {
            bufferArray = [];
          }

          bufferArray.push(key);

          const word = bufferArray.join('');
          if (word === 'dealwithit') {
            console.log('No u.');

            cgRoot.classList.add('deal-with-it');

            setTimeout(() => {
              cgRoot.classList.remove('deal-with-it');
            }, 10000);

            clearListener();
          }
  

      if (word === 'blastoff') {
        console.log('Prepare for takeoff!');

        cgRoot.classList.add('blastoff');

        setTimeout(() => {
          cgRoot.classList.remove('blastoff');
        }, 10000);

        clearListener();
      }

    
          lastKeystrokeTime = latestKeystrokeTime;

        }
        document.addEventListener('keyup', cheatcode, true);

        const clearListener = () => {
          document.removeEventListener('keyup', cheatcode, true);
        }

      });
    
    let cgDigits = cgRoot.querySelector('.cg-digits');
    let cgTime = cgRoot.querySelector('.cg-time');
  

      let cgGlasses = cgRoot.querySelector('.cg-glasses');
      cgGlasses.addEventListener('dblclick', () => {
        cgRoot.classList.add('get-time');

        let now = new Date();
        let hours = ('0' + now.getHours()).substr(-2);
        let minutes = ('0' + now.getMinutes()).substr(-2);;
        let digits = [hours.substr(0,1), hours.substr(1), minutes.substr(0,1), minutes.substr(1)];

        cgTime.replaceChildren();

        for (let i = 0; i < 4; i++) {
          switch (digits[i]) {
            case '0':
              cgTime.appendChild(cgDigits.querySelector('.cg-digit-zero').cloneNode(true));
              break;
            case '1':
              cgTime.appendChild(cgDigits.querySelector('.cg-digit-one').cloneNode(true));
              break;
            case '2':
              cgTime.appendChild(cgDigits.querySelector('.cg-digit-two').cloneNode(true));
              break;
            case '3':
              cgTime.appendChild(cgDigits.querySelector('.cg-digit-three').cloneNode(true));
              break;
            case '4':
              cgTime.appendChild(cgDigits.querySelector('.cg-digit-four').cloneNode(true));
              break;
            case '5':
              cgTime.appendChild(cgDigits.querySelector('.cg-digit-five').cloneNode(true));
              break;
            case '6':
              cgTime.appendChild(cgDigits.querySelector('.cg-digit-six').cloneNode(true));
              break;
            case '7':
              cgTime.appendChild(cgDigits.querySelector('.cg-digit-seven').cloneNode(true));
              break;
            case '8':
              cgTime.appendChild(cgDigits.querySelector('.cg-digit-eight').cloneNode(true));
              break;
            case '9':
              cgTime.appendChild(cgDigits.querySelector('.cg-digit-nine').cloneNode(true));
              break;
          }
        }

        cgTime.childNodes[1].style.transform = 'translateX(4px)';
        cgTime.childNodes[2].style.transform = 'translateX(10px)';
        cgTime.childNodes[3].style.transform = 'translateX(14px)';

        cgTime.appendChild(cgDigits.querySelector('.cg-digit-colon').cloneNode(true));

        setTimeout(() => {
          cgRoot.classList.remove('get-time');
        }, 10000);
      });

    }]]></script></svg>