<svg id="cg9610" xmlns="http://www.w3.org/2000/svg" viewBox="0 0 89 89"><style>
    #cg9610 {
      overflow: hidden;
    }

    #cg9610 .button {
      opacity: 0;
      pointer-events: none;
      transition: 0.2s ease;
      transform: translate3d(0, 20px, 0);
    }

    #cg9610 .button.png-wide {
      transition-delay: 0.2s;
    }

    #cg9610.menu-in .button {
      opacity: 1;
      pointer-events: auto;
      cursor: pointer;
      transform: translate3d(0, 0, 0);
    }

    #cg9610.menu-in .button .button-bg {
      transition: fill 0.2s ease;
    }

    #cg9610.menu-in .button:hover .button-bg {
      fill: #FF5FFA;
    }

    #cg9610 .cg-glasses {
      transition: opacity 0.2s ease;
    }

    #cg9610 #deal-with-it-glasses {
      opacity: 0;
      pointer-events: none;
      transition: opacity 0.2s ease, transform 3s linear;
      transform: translate3d(0, -60px, 0);
    }

    #cg9610.deal-with-it #deal-with-it-glasses {
      opacity: 1;
      transform: translate3d(0, 0, 0);
    }

    #cg9610.deal-with-it .cg-glasses {
      opacity: 0;
      transition-delay: 2s;
    }

  
      #cg9610 .cg-glasses {
        transition: opacity 0.2s ease;
      }

      #cg9610.get-time .cg-glasses {
        opacity: 0;
      }
    
    #cg9610 .cg-eyes {
      transition: opacity 0.2s ease;
    }

    #cg9610.get-time .cg-eyes {
      opacity: 0;
    }
  
    #cg9610 .cg-time {
      pointer-events: none;
      transition: opacity 0.2s ease;
      opacity: 0;
    }

    #cg9610.get-time .cg-time {
      opacity: 1;
    }

    #cg9610 .cg-time .cg-digit-colon {
      animation: cg-colon-blink 1s ease-in-out 0s infinite;
    }

    @keyframes cg-colon-blink {
      20% {
        opacity: 1;
      }
      50% {
        opacity: 0;
      }
      80% {
        opacity: 1;
      }
    }
  
    #cg9610 .cg-body {
      animation: cg-anim-hover 1.5s ease-in-out -0.4429s infinite;
      transform-origin: center;
      transform-box: fill-box;
    }

    @keyframes cg-anim-hover {
      0% {
        transform: translate3d(0,0,0);
      }
      50% {
        transform: translate3d(0,-2px,0);
      }
      100% {
        transform: translate3d(0,0,0);
      }
    }
  
    #cg9610 .cg-shadow {
      animation: cg-anim-shadow 1.5s ease-in-out -0.4429s infinite;
      transform-origin: center;
      transform-box: fill-box;
    }

    @keyframes cg-anim-shadow {
      0% {
        transform: scale3d(1,1,1);
      }
      50% {
        transform: scale3d(0.9,1,1);
      }
      100% {
        transform: scale3d(1,1,1);
      }
    }
  
      @keyframes cg-anim-rgb {
        0% {
          fill: #FF5F5F;
        }
        11.1111% {
          fill: #FFA45F;
        }
        22.2222% {
          fill: #BAFF5F;
        }
        33.3333% {
          fill: #5FFF74;
        }
        44.4444% {
          fill: #5FFFCE;
        }
        55.5555% {
          fill: #5FD9FF;
        }
        66.6666% {
          fill: #5F6AFF;
        }
        77.7777% {
          fill: #AA5FFF;
        }
        88.8888% {
          fill: #FF5FFA;
        }
        100% {
          fill: #FF5F5F;
        }
      }
    
      #cg9610 .star-color {
        animation: cg-anim-rgb 5s linear -0.0327s infinite;
      }
    </style><path class="cg-bg" d="M0 0h89v89H0z" fill="#7850FF"></path><g id="star-expression"><path d="M25 16h1v1h-1zM24 17h1v1h-1zM22 6h1v1h-1zM23 16h2v-1h-3v1h1zM22 18v1h2v-1h-2zM21 5h1v1h-1zM21 7h1v1h-1zM22 15v-1h-2v1h2zM21 17h-1v1h2v-1h-1zM20 4h1v1h-1zM20 8h1v1h-1zM20 15h-1v2h1v-2zM19 5h1v1h-1zM19 10h1V9h-1V6h-1v5h1v-1zM16 14v1h1v-2h-1v1zM15 11h1V9h-1v2zM15 12h1v1h-1zM14 11h1v1h-1zM14 15h-1v1h3v-1h-2zM12 16h1v1h-1zM12 9h3V8h-4v1h1zM11 17h1v1h-1zM10 7h1v1h-1zM10 7V6H8v1h2zM9 18v1h2v-1H9zM8 17h1v1H8zM8 9V7H7v3h1V9zM8 15H7v2h1v-2zM6 10h1v1H6zM6 14H5v1h2v-1H6zM5 11h1v1H5zM5 12H4v2h1v-2z"/><g><path class="star-color" fill="#FECAD2" d="M16 13v2h-3v1h-1v1h-1v1H9v-1H8v-2H7v-1H5v-2h1v-1h1v-1h1V7h2v1h1v1h4v2h-1v1h1v1h1z"/></g><g><path class="star-color" fill="#FECAD2" d="M22 6v1h-1v1h-1v1h-1V6h1V5h1v1h1z"/></g><g><path class="star-color" fill="#FECAD2" d="M25 16v1h-1v1h-2v-1h-2v-2h2v1h3z"/></g><g opacity=".71" fill="#FFF"><path d="M15 13h1v1h-1zM14 12h1v1h-1zM15 10V9h-1v1h1zM10 8h1v1h-1zM14 10h1v1h-1zM9 7h1v1H9zM15 14h1v1h-1zM12 15h1v1h-1zM21 6h1v1h-1zM20 5h1v1h-1zM20 7h1v1h-1zM19 8h1v1h-1zM24 16h1v1h-1zM23 17h1v1h-1zM21 15h1v1h-1zM11 16h1v1h-1zM10 17h1v1h-1z"/></g></g><path class="cg-shadow" opacity=".17" d="M60 79v-1H29v1h-2v1h3v1h29v-1h3v-1z"/><g class="cg-body"><g id="angel-wings"><g id="angel-wings-left"><path d="M23 38v-2h-1v-1h-1v-1h-1v-1h-2v-1h-3v-1h-1v-1h-1v-1h-1v-2h-1v-2h-1v-1H9v-1H7v1H6v1H5v5H4v1H3v4h1v2H3v4h1v1h1v1h1v3h1v1h1v1h4v-1h1v1h7v-1h2v-1h1v-2h1v-6h-1z" id="angel-wings-outline-left"/><g id="Layer_290" fill="#8EE4FF"><path d="M5 41H4v-3h2v1h2v1h3v1h1v1h-2v1H6v-1H5v-1z"/><path d="M14 31v1h1v1h3v1h2v1h1v1h1v2h1v6h-1v2h-2v1h-7v-1h-1v1H8v-1H7v-2h3v-1h2v-1h1v-1h-1v-1h-1v-4h4v2h-1v1h1v-1h1v-2h-1v-1h-4v1h-1v-1H9v-1H8v-1H7v-1H6v-7h1v-1h2v1h1v2h1v2h1v1h1v1h1z"/><path d="M10 38v1H8v-1H6v-1H5v-2H4v-4h1v1h1v1h1v1h1v1h1v1h1v2z"/></g><g opacity=".71" fill="#D9F6FF" id="angel-wings-highlight-left"><path d="M22 43h1v1h-1zM19.7 46H19v1h1v-1h-.3zM20 45v1h2v-1h-2zM22 38h1v1h-1zM22 36h-1v2h1v-2zM10 36H9v3h1v-3zM20 35h1v1h-1zM19 38v1h-1v1h1v1h1v-1h1v-1h-1v-1zM19 34h-1v1h2v-1h-1zM17 33h-2v1h3v-1h-1zM16 41h1v1h-1zM14 32h1v1h-1zM13 31h1v1h-1zM12 30h1v1h-1zM11 29h1v1h-1zM8 24h1v1H8zM11.5 46H11v1h1v-1h-.5zM7.5 39H7v1h1v-1h-.5zM5.5 38H5v1h1v-1h-.5zM8.5 35H8v1h1v-1h-.5zM7.5 34H7v1h1v-1h-.5zM6.5 33H6v1h1v-1h-.5zM5.5 32H5v1h1v-1h-.5zM14.5 36H14v1h1v-1h-.5zM14.5 37H14v1h1v-1h-.5zM13.5 38H13v1h1v-1h-.5zM11 27h-1v2h1v-2zM10 25H9v2h1v-2zM8 29h1v1H8zM11 41h1v1h-1zM9 42h1v1H9zM10 40h1v1h-1zM23 42v-3h-1v4h1v-1z"/></g></g><g id="angel-wings-right"><path d="M86 35v-4h-1v-1h-1v-5h-1v-1h-1v-1h-2v1h-1v1h-1v2h-1v2h-1v1h-1v1h-1v1h-3v1h-2v1h-1v1h-1v1h-1v2h-1v6h1v2h1v1h2v1h7v-1h1v1h4v-1h1v-1h1v-3h1v-1h1v-1h1v-4h-1v-2h1z" id="angel-wings-outline-right"/><g id="Layer_291" fill="#8EE4FF"><path d="M83 42v1h-4v-1h-2v-1h1v-1h3v-1h2v-1h2v3h-1v1h-1z"/><path d="M82 34v-1h1v-1h1v-1h1v4h-1v2h-1v1h-2v1h-2v-3h1v-1h1v-1h1z"/><path d="M77 40v1h-1v1h1v1h2v1h3v2h-1v1h-4v-1h-1v1h-7v-1h-2v-2h-1v-6h1v-2h1v-1h1v-1h2v-1h3v-1h1v-1h1v-1h1v-1h1v-2h1v-2h1v-1h2v1h1v7h-1v1h-1v1h-1v1h-1v1h-1v-1h-4v1h-1v2h1v1h1v-1h-1v-2h4v4h-1z"/></g><g opacity=".71" fill="#D9F6FF" id="angel-wings-highlight-right"><path d="M78 35h1v1h-1zM79 34h1v1h-1zM80 33h1v1h-1zM81 32h1v1h-1zM70 38v1h1v1h-1v1h-1v-1h-1v-1h1v-1zM72 41h1v1h-1zM73 38h1v1h-1zM73 35h1v1h-1zM80 43h-1v-1h4v1h-3zM80 39h-1v-1h2v1h-1zM80 29h1v1h-1zM81 24h1v1h-1zM82 38h-1v-1h2v1h-1zM83 26v6h-1v-7h1v1zM83 41h1v1h-1zM80 46h1v1h-1zM75 46h1v1h-1zM76 42h1v1h-1zM75 41h1v1h-1zM76 40h1v1h-1zM84 37h-1v-2h1v2zM82 46h-1v-2h1v2zM73 38h-1v-2h1v2zM84 39v-1h1v3h-1v-2zM84 34v-3h1v4h-1v-1zM77 39v-3h1v4h-1v-1z"/></g></g></g><path d="M63 47v-4h-1v-3h-1v-2h-1v-1h-1v-1h-1v-1h-1v-1h-1v-1h-1v-1h-2v-1h-2v-1H38v1h-2v1h-2v1h-1v1h-1v1h-1v1h-1v1h-1v1h-1v2h-1v3h-1v4h-1v13h1v3h1v3h1v1h1v1h1v1h2v1h2v-1h1v-1h1v-4h1v3h1v1h1v1h2v-1h1v-1h1v-4h1v-1h1v1h1v4h1v1h1v1h2v-1h1v-1h1v-3h1v4h1v1h1v1h2v-1h2v-1h1v-1h1v-1h1v-3h1v-3h1V47z"/><path class="cg-body-color" fill="#FF8FAC" d="M62 47v-4h-1v-3h-1v-2h-1v-1h-1v-1h-1v-1h-1v-1h-1v-1h-2v-1h-2v-1H38v1h-2v1h-2v1h-1v1h-1v1h-1v1h-1v1h-1v2h-1v3h-1v4h-1v13h1v3h1v3h1v1h1v1h2v1h2v-1h1v-4h1v-1h1v1h1v3h1v1h2v-1h1v-4h1v-1h1v-1h1v1h1v1h1v4h1v1h2v-1h1v-3h1v-1h1v1h1v4h1v1h2v-1h2v-1h1v-1h1v-3h1v-3h1V47z"/><g class="cg-face"><path d="M39 36v1h-3v1h-1v1h-1v1h-1v2h-1v2h1v1h1v1h2v1h3v1h11v-1h3v-1h2v-1h1v-1h1v-2h-1v-2h-1v-1h-1v-1h-1v-1h-3v-1z"/><path fill="#FFF" d="M39 37v1h-3v1h-1v1h-1v2h-1v2h1v1h2v1h3v1h11v-1h3v-1h2v-1h1v-2h-1v-2h-1v-1h-1v-1h-3v-1z"/><g class="cg-eyes"><path d="M55 41h-4v1h1v1h-1v-1h-1v1h-1v1h-1v2h5v-1h1v-3h2v-1h-1zM40 43h-1v-1h-1v1h-1v-1h1v-1h-5v1h2v3h1v1h5v-2h-1v-1z"/></g><g class="cg-digits" style="display: none;"><g class="cg-digit-zero"><path d="M38 40h-2v5h3v-5h-1zm0 2v2h-1v-3h1v1z"/></g><g class="cg-digit-one"><path d="M39 44v1h-3v-1h1v-2h-1v-1h1v-1h1v4h1z"/></g><g class="cg-digit-two"><path d="M39 42h-1v-1h1v1zm-1 3h1v-1h-2v1h1zm0-3h-1v1h1v-1zm-1-2h-1v1h2v-1h-1zm-1 3v1h1v-1h-1z"/></g><g class="cg-digit-three"><path d="M38 44v-1h1v1h-1zm1-3h-1v1h1v-1zm-2 1v1h1v-1h-1zm0-2h-1v1h2v-1h-1zm-1 4v1h2v-1h-2z"/></g><g class="cg-digit-four"><path d="M39 41v4h-1v-2h-2v-3h1v2h1v-1h1z"/></g><g class="cg-digit-five"><path d="M38 44v-1h1v1h-1zm0-3h1v-1h-3v3h2v-1h-1v-1h1zm-2 3v1h2v-1h-2z"/></g><g class="cg-digit-six"><path d="M38 41h-1v-1h2v1h-1zm-2 0v3h1v-1h1v1h-1v1h2v-3h-2v-1h-1z"/></g><g class="cg-digit-seven"><path d="M39 40v5h-1v-4h-2v-1h3z"/></g><g class="cg-digit-eight"><path d="M38 40h-2v5h3v-5h-1zm0 4h-1v-1h1v1zm0-2h-1v-1h1v1z"/></g><g class="cg-digit-nine"><path d="M38 40h-2v3h2v2h1v-5h-1zm0 2h-1v-1h1v1z"/></g><g class="cg-digit-colon"><path d="M45 42h-1v-1h1v1zm0 1h-1v1h1v-1z"/></g></g><g class="cg-time"></g></g><g class="cg-glasses" id="nerdy-glasses"><g><path d="M61 42h-2v1h3v-1h-1zM58 41h-1v-1h-1v7h1v-5h2v-1h-1zM55 47h1v1h-1zM55 39h1v1h-1zM55 39v-1h-7v1h7zM48 48v1h7v-1h-7zM47 47h1v1h-1zM47 39h1v1h-1zM42 47h1v-7h-1v7zM47 40h-1v7h1v-7zM43 39v1h3v-1h-3zM41 47h1v1h-1zM41 39h1v1h-1zM41 39v-1h-7v1h7zM34 48v1h7v-1h-7zM33 47h1v1h-1zM33 39h1v1h-1zM33 40h-1v1h-2v1h2v5h1v-7zM27 42v1h3v-1h-3z"/></g><path opacity=".43" fill="#0FF" d="M41 40h1v7h-1v1h-7v-1h-1v-7h1v-1h7v1zm14 0v-1h-7v1h-1v7h1v1h7v-1h1v-7h-1z"/></g><g id="ada-necklace"><path d="M64 48v-1h-1v1h-1v1h-1v1h-2v1h-3v1h-3v1h-3v1h-3v1h-1v1h-1v1h-1v-1h-1v-1h-1v-1h-3v-1h-3v-1h-3v-1h-3v-1h-2v-1h-1v-1h-1v-1h-1v1h-1v1h1v1h1v1h1v1h1v1h2v1h3v1h3v1h3v1h3v1h1v5h-1v1h-1v1h-1v2h-1v1h1v3h2v-1h1v-1h3v1h1v1h2v-3h1v-1h-1v-2h-1v-1h-1v-1h-1v-5h1v-1h3v-1h3v-1h3v-1h3v-1h2v-1h1v-1h1v-1h1v-1h1v-1z"/><g><path fill="#EFC12E" d="M61 50h1v1h-1zM62 49h1v1h-1zM63 48h1v1h-1zM61 51v1h-2v-1h1zM59 52v1h-3v-1h2zM56 53v1h-3v-1h2zM53 54v1h-3v-1h2zM50 55v1h-3v-1h2z"/><path fill="#FFF" d="M49 67v1h-2v1h-1v-1h-3v1h-1v-1h-2v-1h2v-1h-1v-1h2v-2h1v2h1v-2h1v2h2v1h-1v1h2zm-3 0v-1h-3v1h3zM47 69h1v1h-1z"/><path fill="#EFC12E" d="M46 56h1v1h-1zM45 57h1v1h-1z"/><path fill="#FFF" d="M44 62h1v1h-1z"/><path fill="#EFC12E" d="M44 58h1v3h-1zM43 57h1v1h-1zM42 56h1v1h-1z"/><path fill="#FFF" d="M41 69h1v1h-1z"/><path fill="#EFC12E" d="M42 55v1h-3v-1h2zM39 54v1h-3v-1h2zM36 53v1h-3v-1h2zM33 52v1h-3v-1h2zM30 51v1h-2v-1h1zM27 50h1v1h-1zM26 49h1v1h-1zM25 48h1v1h-1z"/><path opacity=".14" fill="#0FF" d="M43 63h1v1h-1zM45 63h1v1h-1zM43 65h1v1h-1z"/><path opacity=".14" d="M44 67h1v1h-1zM42 68h1v1h-1zM46 65h1v1h-1zM46 68h1v1h-1z"/><path opacity=".14" fill="#0FF" d="M43 67h1v1h-1zM41 65h1v1h-1zM41 67h1v1h-1zM41 69h1v1h-1zM45 65h1v1h-1zM45 67h1v1h-1zM47 65h1v1h-1zM47 67h1v1h-1zM47 69h1v1h-1z"/><path opacity=".17" d="M26 50h1v1h-1zM30 52h1v1h-1zM33 53h1v1h-1zM39 55h1v1h-1zM47 55h1v1h-1zM53 53h1v1h-1zM59 51h1v1h-1zM46 56h1v1h-1zM44 58h1v1h-1zM36 54h1v1h-1zM50 54h1v1h-1zM56 52h1v1h-1zM61 50h1v1h-1zM42 56h1v1h-1zM28 51h1v1h-1z"/></g></g><g id="army-helmet"><path d="M63 39v-2h-1v-1h-1v-5h-1v-3h-1v-2h-1v-1h-1v-1h-2v-1h-2v-1h-2v-1H38v1h-2v1h-2v1h-2v1h-1v1h-1v2h-1v3h-1v5h-1v1h-1v2h-1v8h1v1h1v-1h1v-4h1v-2h7v-1h17v1h7v2h1v4h1v1h1v-1h1v-8z"/><g><path fill="#5E7C60" d="M63 46v1h-1v-4h-1v-2h-1v-1h-1v-1h-1v-1h3v-1h1v2h1v6z"/><path fill="#3B332C" d="M61 36v1h-3v1h-1v1h1v1h-3v-2h1v-1h1v-2h1v-1h1v-1h1v3z"/><path fill="#5E7C60" d="M60 31v1h-1v1h-1v1h-1v1h-1v2h-1v1h-1v-1h-1v-4h1v-2h-1v-1h3v-1h2v-1h1v3z"/><path fill="#664734" d="M58 27v1h-2v1h-3v1h-4v-1h-1v-1h-1v-1h-1v-2h2v1h4v1h2v-1h1v-1h2v1h1z"/><path fill="#3B332C" d="M55 24v1h-1v1h-2v-1h-4v-1h1v-2h2v1h2v1h1z"/><path fill="#A08E72" d="M54 39v1h-1v-1h-1v-1h-1v-1h-1v-2h-1v-1h-1v-1h-1v-2h-1v-1h-1v-3h1v1h1v1h1v1h1v1h4v2h-1v4h1v1h1z"/><path fill="#664734" d="M51 38v1h-4v-1h1v-1h-1v-1h-1v-1h-4v1h-1v-1h-2v-3h-1v-1h1v-1h2v1h1v1h1v1h1v1h2v-1h1v1h1v1h1v2h1v1z"/><path fill="#3B332C" d="M48 23v1h-2v1h-1v2h-1v3h1v1h1v2h-2v-1h-1v-1h-1v-3h-1v-1h-3v-1h-1v-2h-1v-1h2v1h1v1h1v1h2v-1h2v-1h1v-1h1v-1h2zM47 37v1h-1v1h-4v-3h4v1z"/><path fill="#5E7C60" d="M45 22v1h-1v1h-2v1h-2v-1h-1v-1h-1v-1h6zM41 38v1h-5v-4h-1v-1h-1v-1h-1v1h-1v1h-2v-1h-1v-3h1v-1h1v1h4v1h3v3h1v1h2v1z"/><path fill="#A08E72" d="M41 28v1h-5v-1h-2v-1h-1v-1h-1v-1h2v-1h2v2h1v1h1v1h2z"/><path fill="#3B332C" d="M38 30v1h-3v-1h-4v-1h-1v-1h1v-2h1v1h1v1h1v1h2v1h1zM36 39v1h-5v-1h-1v-1h-1v-1h-1v-1h1v-1h1v1h2v-1h1v-1h1v1h1v4z"/><path fill="#5E7C60" d="M30 39v1h-1v1h-1v2h-1v4h-1v-8h1v-2h1v1h1v1z"/></g><g><path opacity=".36" d="M38 22v1h-2v1h-2v1h-2v1h-1v2h-1v3h-1v5h-1v1h-1v2h-1v8h1v-4h1v-2h1v-2h1v-2h1v-1h1v-5h1v-3h1v-2h1v-1h2v-1h2v-1h2v-1z"/><path opacity=".24" fill="#FFF" d="M35 39h-3v-1h3v1zm22-1h-4v1h4v-1zm5 5v4h1v-4h-1zm-1-2v2h1v-2h-1zm-2-2v1h1v-1h-1zm1 1v1h1v-1h-1zm-7-3H35v1h18v-1z"/></g></g><g id="deal-with-it-glasses"><path d="M64 42h-3v1h4v-1zM60 41H28v1h1v2h1v2h1v2h1v1h9v-1h1v-2h1v-2h1v-2h1v2h1v2h1v2h1v1h9v-1h1v-2h1v-2h1v-2h1v-1z"/><path fill="#FFF" d="M33 45v1h-1v-2h1v1zm0 2h1v-1h-1v1zm2-3h-1v2h1v-2zm0 3h1v-1h-1v1zm-1-4h-1v1h1v-1zm-3 0v1h1v-1h-1zm18 1h-1v2h1v-2zm0 3h1v-1h-1v1zm2-3h-1v2h1v-2zm0 2v1h1v-1h-1zm-1-3h-1v1h1v-1zm-3 0v1h1v-1h-1z"/></g></g><a href="/images/png/cg9610-512.png" class="button png-square"><path class="button-bg" d="M26 75h13v11H26z"/><path fill="#FFF" d="M36 77h-1v1h1v5h-1v1h2v-7zm-8 0v7h2v-1h-1v-5h1v-1h-1zm6 3h1v1h-1zm-4 0h1v1h-1zm3 0v-2h-1v3h-1v1h1v1h1v-1h1v-1h-1z"/><title>Download square PNG</title></a><a href="/images/png/cg9610-wide.png" class="button png-wide"><path class="button-bg" d="M42 75h21v11H42z"/><path fill="#FFF" d="M60 77h-1v1h1v5h-1v1h2v-7zm-16 0v7h2v-1h-1v-5h1v-1h-1zm10 3h1v1h-1zm-4 0h1v1h-1zm3 0v-2h-1v3h-1v1h1v1h1v-1h1v-1h-1z"/><title>Download wide PNG</title></a><script type="text/javascript"><![CDATA[
    let cg9610Root = document.getElementById('cg9610');

    if (cg9610Root) {
      let cgRoot = cg9610Root;
      let cgBg = cgRoot.querySelector('.cg-bg');
      let cgBody = cgRoot.querySelector('.cg-body');

      cgBg.addEventListener('dblclick', () => {
        cgRoot.classList.toggle('menu-in');
      });

      cgBody.addEventListener('click', () => {

        let bufferArray = [];
        let lastKeystrokeTime = Date.now();
        const cheatcode = (e) => {

          const key = e.key.toLowerCase();
          const latestKeystrokeTime = Date.now();

          if (latestKeystrokeTime - lastKeystrokeTime > 1500) {
            bufferArray = [];
          }

          bufferArray.push(key);

          const word = bufferArray.join('');
          if (word === 'dealwithit') {
            console.log('No u.');

            cgRoot.classList.add('deal-with-it');

            setTimeout(() => {
              cgRoot.classList.remove('deal-with-it');
            }, 10000);

            clearListener();
          }
  
          lastKeystrokeTime = latestKeystrokeTime;

        }
        document.addEventListener('keyup', cheatcode, true);

        const clearListener = () => {
          document.removeEventListener('keyup', cheatcode, true);
        }

      });
    
    let cgDigits = cgRoot.querySelector('.cg-digits');
    let cgTime = cgRoot.querySelector('.cg-time');
  

      let cgGlasses = cgRoot.querySelector('.cg-glasses');
      cgGlasses.addEventListener('dblclick', () => {
        cgRoot.classList.add('get-time');

        let now = new Date();
        let hours = ('0' + now.getHours()).substr(-2);
        let minutes = ('0' + now.getMinutes()).substr(-2);;
        let digits = [hours.substr(0,1), hours.substr(1), minutes.substr(0,1), minutes.substr(1)];

        cgTime.replaceChildren();

        for (let i = 0; i < 4; i++) {
          switch (digits[i]) {
            case '0':
              cgTime.appendChild(cgDigits.querySelector('.cg-digit-zero').cloneNode(true));
              break;
            case '1':
              cgTime.appendChild(cgDigits.querySelector('.cg-digit-one').cloneNode(true));
              break;
            case '2':
              cgTime.appendChild(cgDigits.querySelector('.cg-digit-two').cloneNode(true));
              break;
            case '3':
              cgTime.appendChild(cgDigits.querySelector('.cg-digit-three').cloneNode(true));
              break;
            case '4':
              cgTime.appendChild(cgDigits.querySelector('.cg-digit-four').cloneNode(true));
              break;
            case '5':
              cgTime.appendChild(cgDigits.querySelector('.cg-digit-five').cloneNode(true));
              break;
            case '6':
              cgTime.appendChild(cgDigits.querySelector('.cg-digit-six').cloneNode(true));
              break;
            case '7':
              cgTime.appendChild(cgDigits.querySelector('.cg-digit-seven').cloneNode(true));
              break;
            case '8':
              cgTime.appendChild(cgDigits.querySelector('.cg-digit-eight').cloneNode(true));
              break;
            case '9':
              cgTime.appendChild(cgDigits.querySelector('.cg-digit-nine').cloneNode(true));
              break;
          }
        }

        cgTime.childNodes[1].style.transform = 'translateX(4px)';
        cgTime.childNodes[2].style.transform = 'translateX(10px)';
        cgTime.childNodes[3].style.transform = 'translateX(14px)';

        cgTime.appendChild(cgDigits.querySelector('.cg-digit-colon').cloneNode(true));

        setTimeout(() => {
          cgRoot.classList.remove('get-time');
        }, 10000);
      });

    }]]></script></svg>