<svg id="cg9714" xmlns="http://www.w3.org/2000/svg" viewBox="0 0 89 89"><style>
    #cg9714 {
      overflow: hidden;
    }

    #cg9714 .button {
      opacity: 0;
      pointer-events: none;
      transition: 0.2s ease;
      transform: translate3d(0, 20px, 0);
    }

    #cg9714 .button.png-wide {
      transition-delay: 0.2s;
    }

    #cg9714.menu-in .button {
      opacity: 1;
      pointer-events: auto;
      cursor: pointer;
      transform: translate3d(0, 0, 0);
    }

    #cg9714.menu-in .button .button-bg {
      transition: fill 0.2s ease;
    }

    #cg9714.menu-in .button:hover .button-bg {
      fill: #FF5FFA;
    }

    #cg9714 .cg-glasses {
      transition: opacity 0.2s ease;
    }

    #cg9714 #deal-with-it-glasses {
      opacity: 0;
      pointer-events: none;
      transition: opacity 0.2s ease, transform 3s linear;
      transform: translate3d(0, -60px, 0);
    }

    #cg9714.deal-with-it #deal-with-it-glasses {
      opacity: 1;
      transform: translate3d(0, 0, 0);
    }

    #cg9714.deal-with-it .cg-glasses {
      opacity: 0;
      transition-delay: 2s;
    }

  
      #cg9714.blastoff .cg-body {
        animation: cg-anim-takeoff 10s ease-in 0s;
      }

      #cg9714.blastoff .cg-shadow {
        animation: cg-anim-shadow-takeoff 10s ease-in 0s;
      }

      #cg9714.blastoff .rocket-flame {
        animation-name: cg-anim-rocket-blastoff;
      }
    
      #cg9714 .cg-glasses {
        transition: opacity 0.2s ease;
      }

      #cg9714.get-time .cg-glasses {
        opacity: 0;
      }
    
    #cg9714 .cg-eyes {
      transition: opacity 0.2s ease;
    }

    #cg9714.get-time .cg-eyes {
      opacity: 0;
    }
  
    #cg9714 .cg-time {
      pointer-events: none;
      transition: opacity 0.2s ease;
      opacity: 0;
    }

    #cg9714.get-time .cg-time {
      opacity: 1;
    }

    #cg9714 .cg-time .cg-digit-colon {
      animation: cg-colon-blink 1s ease-in-out 0s infinite;
    }

    @keyframes cg-colon-blink {
      20% {
        opacity: 1;
      }
      50% {
        opacity: 0;
      }
      80% {
        opacity: 1;
      }
    }
  
    #cg9714 .cg-body {
      animation: cg-anim-hover 1.5s ease-in-out -0.9612s infinite;
      transform-origin: center;
      transform-box: fill-box;
    }

    @keyframes cg-anim-hover {
      0% {
        transform: translate3d(0,0,0);
      }
      50% {
        transform: translate3d(0,-2px,0);
      }
      100% {
        transform: translate3d(0,0,0);
      }
    }
  
      @keyframes cg-anim-takeoff {
        0% {
          transform: translate3d(0,0,0);
        }
        95% {
          transform: translate3d(0,-120px,0);
        }
        100% {
          transform: translate3d(0,0,0);
        }
      }
    
    #cg9714 .cg-shadow {
      animation: cg-anim-shadow 1.5s ease-in-out -0.9612s infinite;
      transform-origin: center;
      transform-box: fill-box;
    }

    @keyframes cg-anim-shadow {
      0% {
        transform: scale3d(1,1,1);
      }
      50% {
        transform: scale3d(0.9,1,1);
      }
      100% {
        transform: scale3d(1,1,1);
      }
    }
  
      @keyframes cg-anim-shadow-takeoff {
        0% {
          transform: scale3d(0.9,1,1);
        }
        95% {
          transform: scale3d(0.1,1,1);
        }
        100% {
          transform: scale3d(1,1,1);
        }
      }
    
      @keyframes cg-anim-rgb {
        0% {
          fill: #FF5F5F;
        }
        11.1111% {
          fill: #FFA45F;
        }
        22.2222% {
          fill: #BAFF5F;
        }
        33.3333% {
          fill: #5FFF74;
        }
        44.4444% {
          fill: #5FFFCE;
        }
        55.5555% {
          fill: #5FD9FF;
        }
        66.6666% {
          fill: #5F6AFF;
        }
        77.7777% {
          fill: #AA5FFF;
        }
        88.8888% {
          fill: #FF5FFA;
        }
        100% {
          fill: #FF5F5F;
        }
      }
    
      #cg9714 .glasses-color {
        animation: cg-anim-rgb 3s linear -0.4731s infinite;
      }
    
      #cg9714 .rocket-flame {
        animation: cg-anim-rocket 0.5s steps(1) -0.1882s infinite;
        transform-origin: center top;
        transform-box: fill-box;
      }

      @keyframes cg-anim-rocket {
        0% {
          transform: scaleX(1) translate3d(0, 0, 0);
        }
        25% {
          transform: scaleX(-1) translate3d(0, -1px, 0);
        }
        50% {
          transform: scaleX(1) translate3d(0, -2px, 0);
        }
        75% {
          transform: scaleX(-1) translate3d(0, -1px, 0);
        }
        100% {
          transform: scaleX(1) translate3d(0, 0, 0);
        }
      }

      @keyframes cg-anim-rocket-blastoff {
        0% {
          transform: scaleX(1) scaleY(1) translate3d(0, 0, 0);
        }
        25% {
          transform: scaleX(-1) scaleY(1.5) translate3d(0, -1px, 0);
        }
        50% {
          transform: scaleX(1) scaleY(2) translate3d(0, -2px, 0);
        }
        75% {
          transform: scaleX(-1) scaleY(1.5) translate3d(0, -1px, 0);
        }
        100% {
          transform: scaleX(1) scaleY(1) translate3d(0, 0, 0);
        }
      }
    </style><path class="cg-bg" d="M0 0h89v89H0z" fill="#33FFFF"></path><path class="cg-shadow" opacity=".17" d="M60 79v-1H29v1h-2v1h3v1h29v-1h3v-1z"/><g class="cg-body"><g id="rockets"><g id="rocket-right"><g class="rocket-flame"><path fill="#FF4E00" d="M65 57h-1v4h-1v5h1v1h-1v4h1v1h-1v2h1v1h1v-5h-1v-2h1v-1h1v-7h1v-3h-2zM63 59v-2h-1v4h1v-2z"/><path fill="#FF9945" d="M66 56h-4v1h1v4h1v5h1v-6h1v-3h1v-1h-1z"/><path fill="#F9F871" d="M65 56h-2v2h1v3h1v-1h1v-4h-1z"/></g><path d="M69 39v-1h-1v-1h-7v1h-1v1h-1v13h1v1h1v2h1v1h5v-1h1v-2h1v-1h1V39h-1z"/><g><path fill="#B3B3B3" d="M67 54v1h-5v-1h5z"/><path fill="#3F3F3F" d="M61 39v-1h7v1h1v13h-1v1h-7v-1h-1V39h1z"/></g><path opacity=".17" d="M68 39v1h-1v11h-1v-3h-1v-2h-1v-3h-1v-5h-2v1h-1v13h1v1h7v-1h1V39h-1z"/></g><g id="rocket-left"><g class="rocket-flame"><path fill="#FF4E00" d="M24 57h1v4h1v5h-1v1h1v4h-1v1h1v2h-1v1h-1v-5h1v-2h-1v-1h-1v-7h-1v-3h2zM26 59v-2h1v4h-1v-2z"/><path fill="#FF9945" d="M23 56h4v1h-1v4h-1v5h-1v-6h-1v-3h-1v-1h1z"/><path fill="#F9F871" d="M24 56h2v2h-1v3h-1v-1h-1v-4h1z"/></g><path d="M20 39v-1h1v-1h7v1h1v1h1v13h-1v1h-1v2h-1v1h-5v-1h-1v-2h-1v-1h-1V39h1z"/><g><path fill="#B3B3B3" d="M22 54v1h5v-1h-5z"/><path fill="#3F3F3F" d="M28 39v-1h-7v1h-1v13h1v1h7v-1h1V39h-1z"/></g><path opacity=".18" d="M21 39v1h1v11h1v-3h1v-2h1v-3h1v-5h2v1h1v13h-1v1h-7v-1h-1V39h1z"/></g></g><path d="M63 47v-4h-1v-3h-1v-2h-1v-1h-1v-1h-1v-1h-1v-1h-1v-1h-1v-1h-2v-1h-2v-1H38v1h-2v1h-2v1h-1v1h-1v1h-1v1h-1v1h-1v1h-1v2h-1v3h-1v4h-1v13h1v3h1v3h1v1h1v1h1v1h2v1h2v-1h1v-1h1v-4h1v3h1v1h1v1h2v-1h1v-1h1v-4h1v-1h1v1h1v4h1v1h1v1h2v-1h1v-1h1v-3h1v4h1v1h1v1h2v-1h2v-1h1v-1h1v-1h1v-3h1v-3h1V47z"/><path class="cg-body-color" fill="#FF8FAC" d="M62 47v-4h-1v-3h-1v-2h-1v-1h-1v-1h-1v-1h-1v-1h-1v-1h-2v-1h-2v-1H38v1h-2v1h-2v1h-1v1h-1v1h-1v1h-1v1h-1v2h-1v3h-1v4h-1v13h1v3h1v3h1v1h1v1h2v1h2v-1h1v-4h1v-1h1v1h1v3h1v1h2v-1h1v-4h1v-1h1v-1h1v1h1v1h1v4h1v1h2v-1h1v-3h1v-1h1v1h1v4h1v1h2v-1h2v-1h1v-1h1v-3h1v-3h1V47z"/><g class="cg-face"><path d="M39 36v1h-3v1h-1v1h-1v1h-1v2h-1v2h1v1h1v1h2v1h3v1h11v-1h3v-1h2v-1h1v-1h1v-2h-1v-2h-1v-1h-1v-1h-1v-1h-3v-1z"/><path fill="#FFF" d="M39 37v1h-3v1h-1v1h-1v2h-1v2h1v1h2v1h3v1h11v-1h3v-1h2v-1h1v-2h-1v-2h-1v-1h-1v-1h-3v-1z"/><g class="cg-eyes"><path d="M51 43v-1h-1v1h-2v1h1v1h4v-2zM37 41h1v1h-1zM39 43v-1h-1v1h-2v2h4v-1h1v-1h-1zM51 41h1v1h-1z"/></g><g class="cg-digits" style="display: none;"><g class="cg-digit-zero"><path d="M38 40h-2v5h3v-5h-1zm0 2v2h-1v-3h1v1z"/></g><g class="cg-digit-one"><path d="M39 44v1h-3v-1h1v-2h-1v-1h1v-1h1v4h1z"/></g><g class="cg-digit-two"><path d="M39 42h-1v-1h1v1zm-1 3h1v-1h-2v1h1zm0-3h-1v1h1v-1zm-1-2h-1v1h2v-1h-1zm-1 3v1h1v-1h-1z"/></g><g class="cg-digit-three"><path d="M38 44v-1h1v1h-1zm1-3h-1v1h1v-1zm-2 1v1h1v-1h-1zm0-2h-1v1h2v-1h-1zm-1 4v1h2v-1h-2z"/></g><g class="cg-digit-four"><path d="M39 41v4h-1v-2h-2v-3h1v2h1v-1h1z"/></g><g class="cg-digit-five"><path d="M38 44v-1h1v1h-1zm0-3h1v-1h-3v3h2v-1h-1v-1h1zm-2 3v1h2v-1h-2z"/></g><g class="cg-digit-six"><path d="M38 41h-1v-1h2v1h-1zm-2 0v3h1v-1h1v1h-1v1h2v-3h-2v-1h-1z"/></g><g class="cg-digit-seven"><path d="M39 40v5h-1v-4h-2v-1h3z"/></g><g class="cg-digit-eight"><path d="M38 40h-2v5h3v-5h-1zm0 4h-1v-1h1v1zm0-2h-1v-1h1v1z"/></g><g class="cg-digit-nine"><path d="M38 40h-2v3h2v2h1v-5h-1zm0 2h-1v-1h1v1z"/></g><g class="cg-digit-colon"><path d="M45 42h-1v-1h1v1zm0 1h-1v1h1v-1z"/></g></g><g class="cg-time"></g></g><g id="medical-mask"><g><path d="M63 47v-1h-2v1h2zM63 55v-1h-2v1h2zM60 47h1v1h-1zM61 56v-1h-2v1h2zM59 48h1v1h-1zM58 54v-3h1v-2h-1v-1h-5v-1h-5v-1h-7v1h-5v1h-5v1h-1v2h1v5h-1v2h1v1h5v1h5v1h7v-1h5v-1h5v-1h1v-2h-1v-2zM29 48h1v1h-1zM29 55h-1v1h2v-1h-1zM28 47h1v1h-1zM27 46h-1v1h2v-1h-1zM27 54h-1v1h2v-1h-1z"/></g><path fill="#9FF7F7" d="M48 48h5v1h5v2h-1v5h1v2h-5v1h-5v1h-7v-1h-5v-1h-5v-2h1v-5h-1v-2h5v-1h5v-1h7v1z"/><g opacity=".23"><path d="M52 53H36v1h17v-1h-1zM50 56h-2v1h4v-1h-2zM46 57h-5v1h7v-1h-2zM40 56h-3v1h4v-1h-1zM49 51h3v-1h-4v1h1zM43 50h5v-1h-7v1h2zM39 51h2v-1h-4v1h2z"/></g></g><g id="hammer"><g><path d="M69 66v-1h-7v1h-1v1h-1v1h-1v1h10v-1h1v-2zM53 67v-2H36v3h-1v1h19v-1h-1zM29 68v-1h-1v-1h-1v-1h-3v-1h-3v-1h-1v-1h-1v-2h2v-1h1v-1h-1v-1h-4v1h-1v1h-1v12h1v1h-1v3h7v-3h-1v-2h3v-1h6v-1z"/></g><g><path fill="#F13441" d="M68 66h-6v1h-1v1h8v-2zM52 66H36v2h17v-2z"/><path fill="#4D4D4D" d="M23 68.3v.7h-1v-4h1v3.3z"/><path fill="gray" d="M21 73v1h-5v-2h1v-1h-1V59h1v-1h4v1h-3v4h2v1h1v6h-1v2h1z"/><path fill="#F13441" d="M28 67v-1h-4v2h5v-1z"/></g><g><path opacity=".21" d="M16 59h1v12h-1z"/><path transform="rotate(-90 44.5 66.5)" opacity=".21" d="M44 58h1v17h-1z"/><path opacity=".21" d="M24 66h4v1h-4z"/><path transform="rotate(-90 65.5 66.5)" opacity=".21" d="M65 63h1v7h-1z"/><path opacity=".21" d="M16 72h1v2h-1zM17 58h1v1h-1z"/></g></g><g class="cg-glasses" id="hot-glasses"><path d="M64 39v-1H53v1h-5v1h-1v1h-5v-1h-1v-1h-5v-1H25v1h-1v1h1v1h2v2h1v1h1v1h1v1h1v1h1v1h2v1h7v-1h1v-1h1v-1h1v-1h1v1h1v1h1v1h1v1h7v-1h2v-1h1v-1h1v-1h1v-1h1v-1h1v-2h2v-1h1v-1h-1zm-5 4h-1v1h-1v1h-2v1h-7v-1h-1v-2h1v-1h5v-1h6v2zm-17 2h-1v1h-7v-1h-2v-1h-1v-1h-1v-2h6v1h5v1h1v2z" id="hot-glasses-bg"/><g fill="#E6769A" class="glasses-color"><path d="M60 42v1h1v-2h-1v1zM29 41h-1v2h1v-2zM63 39H53v1h8v1h1v-1h2v-1h-1zM59 43h1v1h-1zM58 44h1v1h-1zM57 45h1v1h-1zM55 46v1h2v-1h-2zM53 47h-5v1h7v-1h-2zM47 46h1v1h-1zM46 45h1v1h-1zM42 45h1v1h-1zM41 46h1v1h-1zM39 47h-5v1h7v-1h-2zM33 46h-1v1h2v-1h-1zM31 45h1v1h-1zM30 44h1v1h-1zM29 43h1v1h-1zM50 41h3v-1h-5v1h2zM47 41h1v1h-1zM46 43h1v-1h-5v1h1v2h1v-2h1v2h1v-2zM41 41h1v1h-1zM37 41h4v-1h-5v1h1zM29 40h7v-1H25v1h2v1h1v-1h1z"/></g><g fill="#333" id="hot-glasses-glass" opacity=".5"><path d="M41 42h-5v-1h-6v2h1v1h1v1h2v1h7v-1h1v-2h-1zM59 41h-6v1h-5v1h-1v2h1v1h7v-1h2v-1h1v-1h1z"/></g></g><g id="halo"><path d="M61 22v-1h-1v-1h-1v-1h-3v-1h-4v-1H42v1h-7v1h-3v1h-3v1h-1v1h-1v3h1v1h2v1h4v1h20v-1h3v-1h3v-1h1v-1h1v-2h-1zm-3 1h-1v1h-4v1H34v-1h-4v-1h2v-1h3v-1h7v-1h10v1h4v1h3v1h-1z"/><g fill="#FFEB57"><path d="M48 26h5v-1h4v1h-3v1H34v-1h14zM34 25v1h-4v-1h4zM28 23v-1h1v-1h3v1h-2v1h-1v1h1v1h-2v-2zM35 20v1h-3v-1h3zM39 19h3v1h-7v-1h4zM53 19h3v1h-4v-1h1zM48 18h4v1H42v-1h6zM59 21h1v1h-1zM58 20h1v1h-3v-1h2zM58 24h1v-1h1v-1h1v2h-1v1h-3v-1h1z"/></g></g><g id="deal-with-it-glasses"><path d="M64 42h-3v1h4v-1zM60 41H28v1h1v2h1v2h1v2h1v1h9v-1h1v-2h1v-2h1v-2h1v2h1v2h1v2h1v1h9v-1h1v-2h1v-2h1v-2h1v-1z"/><path fill="#FFF" d="M33 45v1h-1v-2h1v1zm0 2h1v-1h-1v1zm2-3h-1v2h1v-2zm0 3h1v-1h-1v1zm-1-4h-1v1h1v-1zm-3 0v1h1v-1h-1zm18 1h-1v2h1v-2zm0 3h1v-1h-1v1zm2-3h-1v2h1v-2zm0 2v1h1v-1h-1zm-1-3h-1v1h1v-1zm-3 0v1h1v-1h-1z"/></g></g><a href="/images/png/cg9714-512.png" class="button png-square"><path class="button-bg" d="M26 75h13v11H26z"/><path fill="#FFF" d="M36 77h-1v1h1v5h-1v1h2v-7zm-8 0v7h2v-1h-1v-5h1v-1h-1zm6 3h1v1h-1zm-4 0h1v1h-1zm3 0v-2h-1v3h-1v1h1v1h1v-1h1v-1h-1z"/><title>Download square PNG</title></a><a href="/images/png/cg9714-wide.png" class="button png-wide"><path class="button-bg" d="M42 75h21v11H42z"/><path fill="#FFF" d="M60 77h-1v1h1v5h-1v1h2v-7zm-16 0v7h2v-1h-1v-5h1v-1h-1zm10 3h1v1h-1zm-4 0h1v1h-1zm3 0v-2h-1v3h-1v1h1v1h1v-1h1v-1h-1z"/><title>Download wide PNG</title></a><script type="text/javascript"><![CDATA[
    let cg9714Root = document.getElementById('cg9714');

    if (cg9714Root) {
      let cgRoot = cg9714Root;
      let cgBg = cgRoot.querySelector('.cg-bg');
      let cgBody = cgRoot.querySelector('.cg-body');

      cgBg.addEventListener('dblclick', () => {
        cgRoot.classList.toggle('menu-in');
      });

      cgBody.addEventListener('click', () => {

        let bufferArray = [];
        let lastKeystrokeTime = Date.now();
        const cheatcode = (e) => {

          const key = e.key.toLowerCase();
          const latestKeystrokeTime = Date.now();

          if (latestKeystrokeTime - lastKeystrokeTime > 1500) {
            bufferArray = [];
          }

          bufferArray.push(key);

          const word = bufferArray.join('');
          if (word === 'dealwithit') {
            console.log('No u.');

            cgRoot.classList.add('deal-with-it');

            setTimeout(() => {
              cgRoot.classList.remove('deal-with-it');
            }, 10000);

            clearListener();
          }
  

      if (word === 'blastoff') {
        console.log('Prepare for takeoff!');

        cgRoot.classList.add('blastoff');

        setTimeout(() => {
          cgRoot.classList.remove('blastoff');
        }, 10000);

        clearListener();
      }

    
          lastKeystrokeTime = latestKeystrokeTime;

        }
        document.addEventListener('keyup', cheatcode, true);

        const clearListener = () => {
          document.removeEventListener('keyup', cheatcode, true);
        }

      });
    
    let cgDigits = cgRoot.querySelector('.cg-digits');
    let cgTime = cgRoot.querySelector('.cg-time');
  

      let cgGlasses = cgRoot.querySelector('.cg-glasses');
      cgGlasses.addEventListener('dblclick', () => {
        cgRoot.classList.add('get-time');

        let now = new Date();
        let hours = ('0' + now.getHours()).substr(-2);
        let minutes = ('0' + now.getMinutes()).substr(-2);;
        let digits = [hours.substr(0,1), hours.substr(1), minutes.substr(0,1), minutes.substr(1)];

        cgTime.replaceChildren();

        for (let i = 0; i < 4; i++) {
          switch (digits[i]) {
            case '0':
              cgTime.appendChild(cgDigits.querySelector('.cg-digit-zero').cloneNode(true));
              break;
            case '1':
              cgTime.appendChild(cgDigits.querySelector('.cg-digit-one').cloneNode(true));
              break;
            case '2':
              cgTime.appendChild(cgDigits.querySelector('.cg-digit-two').cloneNode(true));
              break;
            case '3':
              cgTime.appendChild(cgDigits.querySelector('.cg-digit-three').cloneNode(true));
              break;
            case '4':
              cgTime.appendChild(cgDigits.querySelector('.cg-digit-four').cloneNode(true));
              break;
            case '5':
              cgTime.appendChild(cgDigits.querySelector('.cg-digit-five').cloneNode(true));
              break;
            case '6':
              cgTime.appendChild(cgDigits.querySelector('.cg-digit-six').cloneNode(true));
              break;
            case '7':
              cgTime.appendChild(cgDigits.querySelector('.cg-digit-seven').cloneNode(true));
              break;
            case '8':
              cgTime.appendChild(cgDigits.querySelector('.cg-digit-eight').cloneNode(true));
              break;
            case '9':
              cgTime.appendChild(cgDigits.querySelector('.cg-digit-nine').cloneNode(true));
              break;
          }
        }

        cgTime.childNodes[1].style.transform = 'translateX(4px)';
        cgTime.childNodes[2].style.transform = 'translateX(10px)';
        cgTime.childNodes[3].style.transform = 'translateX(14px)';

        cgTime.appendChild(cgDigits.querySelector('.cg-digit-colon').cloneNode(true));

        setTimeout(() => {
          cgRoot.classList.remove('get-time');
        }, 10000);
      });

    }]]></script></svg>