<svg id="ClumsyValleyLandPlot" style="background: #ADCBF6" xmlns="http://www.w3.org/2000/svg" viewBox="-7 -7 103 103">
<title>Clumsy Valley Land Plot #5384</title>
            
  <defs>
    <filter id="stats-name" x="-0.5%" width="1" y="-0.05" height="1">
      <feFlood flood-color="#000000" />
      <feComposite operator="over" in="SourceGraphic" />
    </filter>
    <filter id="stats-coords" x="-1%" width="1" y="-0.05" height="1">
      <feFlood flood-color="#000000" />
      <feComposite operator="over" in="SourceGraphic" />
    </filter>
    <filter id="stats-fc" x="-1%" width="1" y="-0.05" height="1">
      <feFlood flood-color="#000000" />
      <feComposite operator="over" in="SourceGraphic" />
    </filter>
    <filter id="stats-cheatcode" x="-0.5%" width="1" y="-0.05" height="1">
      <feFlood flood-color="#000000" />
      <feComposite operator="over" in="SourceGraphic" />
    </filter>
  </defs>
<style>
    <![CDATA[
    #ClumsyValleyLandPlot {
      overflow: hidden;
    }

    #ClumsyValleyLandPlot.party {
      animation: cg-anim-rgb-bg 5s linear -1.4169s infinite;
    }

    #tundra-base.party {
      animation: cg-anim-rgb 5s linear -1.4169s infinite;
    }

    .cg-bg {
      fill: none;
    }

    @font-face {
      font-family: ClumsyPixel-Regular;
      src: url(https://assets.clumsylabs.io/misc/fonts/ClumsyPixelv2.otf) format("opentype");

    }

    svg {
      font-family: ClumsyPixel-Regular, Roboto Mono;
      font-size: 6px;
      font-weight: normal;
      letter-spacing: 0.5px;
      margin: 0;
      padding: 0;
      overflow: hidden;
      display: flex;
      justify-content: center;
    }

    #farming-name,
    #farming-coords,
    #farming-fc {
      fill: white;
    }

    @keyframes cg-anim-rgb {
      0% {
        fill: #FF5F5F;
      }

      11.1111% {
        fill: #FFA45F;
      }

      22.2222% {
        fill: #BAFF5F;
      }

      33.3333% {
        fill: #5FFF74;
      }

      44.4444% {
        fill: #5FFFCE;
      }

      55.5555% {
        fill: #5FD9FF;
      }

      66.6666% {
        fill: #5F6AFF;
      }

      77.7777% {
        fill: #AA5FFF;
      }

      88.8888% {
        fill: #FF5FFA;
      }

      100% {
        fill: #FF5F5F;
      }
    }

    @keyframes cg-anim-rgb-bg {
      0% {
        background: #FF5F5F;
      }

      11.1111% {
        background: #FFA45F;
      }

      22.2222% {
        background: #BAFF5F;
      }

      33.3333% {
        background: #5FFF74;
      }

      44.4444% {
        background: #5FFFCE;
      }

      55.5555% {
        background: #5FD9FF;
      }

      66.6666% {
        background: #5F6AFF;
      }

      77.7777% {
        background: #AA5FFF;
      }

      88.8888% {
        background: #FF5FFA;
      }

      100% {
        background: #FF5F5F;
      }
    }

    @keyframes cg-anim-hover {
      0% {
        transform: translate3d(0, 0, 0);
      }

      50% {
        transform: translate3d(0, -2px, 0);
      }

      100% {
        transform: translate3d(0, 0, 0);
      }
    }

    @keyframes cg-anim-antigrav {
      0% {
        transform: translate3d(0, 0, 0);
      }

      50% {
        transform: translate3d(0, -8px, 0);
      }

      100% {
        transform: translate3d(0, 0, 0);
      }
    }

    @keyframes cg-anim-bee {
      0% {
        transform: translate3d(0, 0, 0);
      }

      20% {
        transform: translate3d(0, .2px, 0);
      }

      40% {
        transform: translate3d(.2px, 0, 0);
      }

      60% {
        transform: translate3d(.2px, .2px, 0);
      }

      100% {
        transform: translate3d(0, 0, 0);
      }
    }

    @keyframes cg-anim-star1 {
      0% {
        opacity: 0;
      }

      50% {
        opacity: 1;
      }

      100% {
        opacity: 0;
      }
    }
    @keyframes cg-anim-star2 {
      0% {
        opacity: 1;
      }

      50% {
        opacity: 0;
      }

      100% {
        opacity: 1;
      }
    }

    #star-animation1 {
      opacity: 0;
      animation: cg-anim-star1 2s ease -0.1s infinite;
    }

    #star-animation2 {
      opacity: 0;
      animation: cg-anim-star2 2s ease -0.1s infinite;
    }

    @keyframes cg-anim-5frames-1 {
      0%  { opacity: 0; }
      2%  { opacity: 1; }
      4% { opacity: 0; }
      6% { opacity: 0; }
      8% { opacity: 0; }
      10% { opacity: 0; }
      12%, 100%  { opacity: 0; }
    }

    @keyframes cg-anim-5frames-2 {
      0%  { opacity: 0; }
      2%  { opacity: 0; }
      4% { opacity: 1; }
      6% { opacity: 0; }
      8% { opacity: 0; }
      10% { opacity: 0; }
      12%, 100%  { opacity: 0; }
    }

    @keyframes cg-anim-5frames-3 {
      0%  { opacity: 0; }
      2%  { opacity: 0; }
      4% { opacity: 0; }
      6% { opacity: 1; }
      8% { opacity: 0; }
      10% { opacity: 0; }
      12%, 100%  { opacity: 0; }
    }

    @keyframes cg-anim-5frames-4 {
      0%  { opacity: 0; }
      2%  { opacity: 0; }
      4% { opacity: 0; }
      6% { opacity: 0; }
      8% { opacity: 1; }
      10% { opacity: 0; }
      12%, 100%  { opacity: 0; }
    }

    @keyframes cg-anim-5frames-5 {
      0%  { opacity: 0; }
      2%  { opacity: 0; }
      4% { opacity: 0; }
      6% { opacity: 0; }
      8% { opacity: 0; }
      10% { opacity: 1; }
      12%, 100%  { opacity: 0; }
    }

    #shootingstar-1 {
      opacity: 0;
      animation: cg-anim-5frames-1 20s ease 0s infinite;
    }

    #shootingstar-2 {
      opacity: 0;
      animation: cg-anim-5frames-2 20s ease 0s infinite;
    }

    #shootingstar-3 {
      opacity: 0;
      animation: cg-anim-5frames-3 20s ease 0s infinite;
    }

    #shootingstar-4 {
      opacity: 0;
      animation: cg-anim-5frames-4 20s ease 0s infinite;
    }

    #shootingstar-5 {
      opacity: 0;
      animation: cg-anim-5frames-5 20s ease 0s infinite;
    }

    @keyframes cg-anim-aurora-1 {
      0%, 100%  { opacity: 1; }
      20%  { opacity: 0; }
      40% { opacity: 0; }
      60% { opacity: 0; }
      80% { opacity: 0; }
    }

    @keyframes cg-anim-aurora-2 {
      0%, 100%  { opacity: 0; }
      20%  { opacity: 1; }
      40% { opacity: 0; }
      60% { opacity: 0; }
      80% { opacity: 0; }
    }

    @keyframes cg-anim-aurora-3 {
      0%, 100%  { opacity: 0; }
      20%  { opacity: 0; }
      40% { opacity: 1; }
      60% { opacity: 0; }
      80% { opacity: 0; }
    }

    @keyframes cg-anim-aurora-4 {
      0%, 100%  { opacity: 0; }
      20%  { opacity: 0; }
      40% { opacity: 0; }
      60% { opacity: 1; }
      80% { opacity: 0; }
    }

    @keyframes cg-anim-aurora-5 {
      0%, 100%  { opacity: 0; }
      20%  { opacity: 0; }
      40% { opacity: 0; }
      60% { opacity: 0; }
      80% { opacity: 1; }
    }

    #aurora-1, #aurora-2, #aurora-3, #aurora-4, #aurora-5 {
      opacity: 0;
    }
    
    .aurora-hide {
      transform: translate3d(0, -50px, 0);
    }

    #aurora-1.aurora-hide, #aurora-2.aurora-hide, #aurora-3.aurora-hide, #aurora-4.aurora-hide, #aurora-5.aurora-hide {
      transform: translate3d(0, -50px, 0);
    }

    .aurora-1 {
      animation: cg-anim-aurora-1 3s ease-in-out 0s infinite;
    }

    .aurora-2 {
      animation: cg-anim-aurora-2 3s ease-in-out 0s infinite;
    }

    .aurora-3 {
      animation: cg-anim-aurora-3 3s ease-in-out 0s infinite;
    }

    .aurora-4 {
      animation: cg-anim-aurora-4 3s ease-in-out 0s infinite;
    }

    .aurora-5 {
      animation: cg-anim-aurora-5 3s ease-in-out 0s infinite;
    }

    @keyframes cg-anim-tundra-cloud {
      0% {
        transform: translate3d(50px, 0px, 0);
      }

      100% {
        transform: translate3d(-100px, 0px, 0);
      }
    }

    #tundra-cloud-1, #tundra-cloud-2, #tundra-cloud-3 {
      animation: cg-anim-tundra-cloud 25s linear -0.1459s infinite;
      transform-origin: center;
      transform-box: fill-box;
    }

    @keyframes cg-anim-igloo1 {
      0%, 100% { opacity: 1; }
      25% { opacity: 0; }
      50% { opacity: 0; }
      75% { opacity: 0; }
    }

    @keyframes cg-anim-igloo2 {
      0%, 100% { opacity: 0; }
      25% { opacity: 1; }
      50% { opacity: 0; }
      75% { opacity: 0; }
    }

    @keyframes cg-anim-igloo3 {
      0%, 100% { opacity: 0; }
      25% { opacity: 0; }
      50% { opacity: 1; }
      75% { opacity: 0; }
    }

    @keyframes cg-anim-igloo4 {
      0%, 100% { opacity: 0; }
      25% { opacity: 0; }
      50% { opacity: 0; }
      75% { opacity: 1; }
    }

    #igloo1-click-to-animate {
      opacity: 1
    }

    #igloo2, #igloo3, #igloo4 {
      opacity: 0
    }

    .igloo1 {
      animation: cg-anim-igloo1 0.7s steps(1, start) 0s 1;
    }

    .igloo2 {
      animation: cg-anim-igloo2 0.7s steps(1, start) 0s 1;
    }

    .igloo3 {
      animation: cg-anim-igloo3 0.7s steps(1, start) 0s 1;
    }

    .igloo4 {
      animation: cg-anim-igloo4 0.7s steps(1, start) 0s 1;
    }


    @keyframes cg-anim-3frames-1 {
      0%   { opacity: 1; }
      33%  { opacity: 0; }
      66%  { opacity: 0; }
      100% { opacity: 1; }
    }

    @keyframes cg-anim-3frames-2 {
      0%   { opacity: 0; }
      33%  { opacity: 1; }
      66%  { opacity: 0; }
      100% { opacity: 0; }
    }

    @keyframes cg-anim-3frames-3 {
      0%   { opacity: 0; }
      33%  { opacity: 0; }
      66%  { opacity: 1; }
      100% { opacity: 0; }
    }

    #snowglobe-animation-1, #campfire-1 {
      animation: cg-anim-3frames-1 1s steps(1, start) 0s infinite;
    }

    #snowglobe-animation-2, #campfire-2 {
      animation: cg-anim-3frames-2 1s steps(1, start) 0s infinite;
    }

    #snowglobe-animation-3, #campfire-3 {
      animation: cg-anim-3frames-3 1s steps(1, start) 0s infinite;
    }

    #tree-default, #lumi-animation1, #dondu-default {
      opacity: 1
    }

    #tree-snowfall, #lumi-animation2, #dondu-blush {
      opacity: 0
    }

    #tree-default.activate, #lumi-animation1.activate, #dondu-default.activate {
      opacity: 0
    }
    
    #tree-snowfall.activate, #lumi-animation2.activate, #dondu-blush.activate {
      opacity: 1
    }

    #ghost {
      transition: 0.3s ease 0.3s;
    }

    #farming-name, #farming-coords, #farming-fc {
      opacity: 0;
      pointer-events: none;
      transform: translate3d(0, -20px, 0);
    }

    #farming-name.show-farming-stats, #farming-coords.show-farming-stats, #farming-fc.show-farming-stats {
      opacity: 1;
      pointer-events: auto;
      cursor: pointer;
      transform: translate3d(0, 0, 0);
    }

    #farming-name {
      transition: 0.4s ease 0.1s;
    }

    #farming-coords {
      transition: 0.2s ease 0.2s;
    }

    #farming-fc {
      transition: 0.1s ease 0.4s;
    }

    #farming-fc.tier1 {
      fill: aqua;
    }

    #farming-fc.tier2 {
      fill: green;
    }

    #farming-fc.tier3 {
      fill: yellow;
    }

    #farming-fc.tier4 {
      fill: red;
    }

    #farming-fc.tier5 {
      animation: cg-anim-rgb 5s linear -1.4169s infinite;
    }

    #ClumsyValleyLandPlot .button {
      opacity: 0;
      pointer-events: none;
      transition: 0.2s ease;
      transform: translate3d(0, 20px, 0);
    }

    #ClumsyValleyLandPlot .button.png-square {
      transition-delay: 0.2s;
      -webkit-transform-origin-x: 20px;
    }

    #ClumsyValleyLandPlot .button.svg {
      transition-delay: 0.4s;
    }

    #ClumsyValleyLandPlot.menu-in .button {
      opacity: 1;
      pointer-events: auto;
      cursor: pointer;
      transform: translate3d(0, 0, 0);
    }

    #ClumsyValleyLandPlot.menu-in .button .button-bg {
      transition: fill 0.2s ease;
    }

    #ClumsyValleyLandPlot.menu-in .button:hover .button-bg {
      fill: #FF5FFA;
    }
    ]]>
  </style>
<g id="tundra-cloud-1">
          <polygon points="88 11 87 11 86 11 85 11 85 10 84 10 83 10 82 10 81 10 80 10 79 10 79 9 78 9 77 9 77 8 76 8 75 8 75 7 76 7 76 6 76 5 76 4 76 3 75 3 75 2 74 2 74 1 73 1 73 0 72 0 71 0 70 0 69 0 68 0 68 1 67 1 67 2 66 2 66 3 66 4 65 4 65 3 64 3 64 2 63 2 62 2 61 2 61 3 60 3 59 3 59 4 58 4 58 5 58 6 57 6 57 7 57 8 57 9 58 9 58 10 57 10 56 10 55 10 55 11 54 11 53 11 52 11 51 11 51 12 52 12 53 12 54 12 55 12 55 13 56 13 57 13 58 13 59 13 60 13 61 13 62 13 63 13 64 13 65 13 66 13 67 13 68 13 69 13 70 13 71 13 72 13 73 13 74 13 75 13 76 13 77 13 78 13 79 13 80 13 81 13 82 13 83 13 84 13 85 13 85 12 86 12 87 12 88 12 89 12 89 11 88 11"/>
          <polygon points="84 11 83 11 82 11 81 11 80 11 79 11 79 10 78 10 77 10 77 9 76 9 75 9 75 8 74 8 73 8 73 7 74 7 75 7 75 6 75 5 75 4 75 3 74 3 74 2 73 2 73 1 72 1 71 1 70 1 69 1 68 1 68 2 67 2 67 3 67 4 66 4 66 5 66 6 65 6 65 5 65 4 64 4 64 3 63 3 62 3 61 3 61 4 60 4 59 4 59 5 59 6 58 6 58 7 58 8 58 9 59 9 59 10 60 10 61 10 61 11 60 11 59 11 58 11 57 11 56 11 55 11 55 12 56 12 57 12 58 12 59 12 60 12 61 12 62 12 63 12 64 12 65 12 66 12 67 12 68 12 69 12 70 12 71 12 72 12 73 12 74 12 75 12 76 12 77 12 78 12 79 12 80 12 81 12 82 12 83 12 84 12 85 12 85 11 84 11" style="fill: #fafaff;"/>
          <polygon points="77 10 76 10 76 9 75 9 74 9 74 8 73 8 72 8 72 9 71 9 70 9 70 8 71 8 72 8 72 7 73 7 73 6 73 5 73 4 72 4 72 3 71 3 71 2 70 2 69 2 68 2 67 2 67 3 67 4 66 4 66 5 66 6 66 7 66 8 65 8 65 7 65 6 64 6 64 5 63 5 63 4 62 4 61 4 61 5 60 5 60 6 60 7 60 8 61 8 61 9 62 9 62 10 63 10 64 10 65 10 66 10 67 10 67 11 68 11 69 11 70 11 71 11 72 11 73 11 74 11 75 11 76 11 77 11 78 11 78 10 77 10" style="fill: #ededff;"/>
        </g>
        <g id="snow-shrooms2">
          <g>
            <polygon points="38 33 38 32 37 32 37 31 36 31 36 30 36 29 35 29 34 29 34 30 34 31 35 31 35 32 35 33 36 33 36 34 37 34 37 35 38 35 39 35 39 34 39 33 38 33" style="fill: #a6aacc;"/>
            <polygon points="35 28 36 28 37 28 37 27 38 27 38 26 38 25 38 24 37 24 37 23 36 23 35 23 34 23 33 23 32 23 32 24 31 24 31 25 31 26 31 27 32 27 32 28 33 28 34 28 35 28" style="fill: #a6aacc;"/>
          </g>
          <path d="M40,33v2h-1v-2h1Zm-2-7v1h1v-3h-1v2Zm0,6v1h1v-1h-1Zm0-8v-1h-1v1h1Zm-1,4h1v-1h-1v1Zm0,3v1h1v-1h-1Zm0-2v-1h-5v1h1v2h1v-2h2v2h1v-2Zm0,6v-1h-1v1h1Zm-1-1v-1h-1v1h1Zm-2-1h1v-2h-1v2Zm0-10h3v-1h-5v1h2Zm-2,0h-1v1h1v-1Zm-1,4v1h1v-1h-1Zm0-2v-1h-1v3h1v-2Z"/>
          <polygon points="38 34 38 35 39 35 39 34 39 33 38 33 38 34" style="fill: #b7bbe0;"/>
          <rect x="37" y="32" width="1" height="1" style="fill: #b7bbe0;"/>
          <polygon points="37 26 37 25 38 25 38 24 37 24 37 23 36 23 36 24 35 24 35 25 36 25 36 26 37 26" style="fill: #b7bbe0;"/>
          <polygon points="37 26 36 26 36 25 35 25 35 24 36 24 36 23 35 23 34 23 33 23 33 24 33 25 33 26 34 26 34 27 35 27 36 27 37 27 38 27 38 26 38 25 37 25 37 26" style="fill: #a6aacc;"/>
          <rect x="37" y="33" width="1" height="1" style="fill: #a6aacc;"/>
          <polygon points="37 31 36 31 36 32 36 33 37 33 37 32 37 31" style="fill: #a6aacc;"/>
          <rect x="37" y="34" width="1" height="1" style="fill: #9598ba;"/>
          <rect x="36" y="33" width="1" height="1" style="fill: #9598ba;"/>
          <polygon points="36 31 36 30 36 29 35 29 34 29 34 30 34 31 35 31 35 32 35 33 36 33 36 32 36 31" style="fill: #9598ba;"/>
          <polygon points="35 28 36 28 37 28 37 27 36 27 35 27 34 27 34 26 33 26 33 25 33 24 33 23 32 23 32 24 31 24 31 25 31 26 31 27 32 27 32 28 33 28 34 28 35 28" style="fill: #9598ba;"/>
        </g>
        <g id="snow-shrooms3">
          <polygon points="88 39 88 38 88 37 87 37 87 36 86 36 86 35 85 35 84 35 83 35 82 35 81 35 80 35 80 36 79 36 78 36 78 37 77 37 77 38 77 39 76 39 76 40 76 41 76 42 77 42 77 43 78 43 78 44 79 44 80 44 80 45 80 46 80 47 79 47 79 48 78 48 78 49 77 49 77 50 77 51 78 51 79 51 80 51 81 51 82 51 82 50 83 50 83 49 84 49 84 48 85 48 85 47 85 46 85 45 85 44 86 44 87 44 87 43 88 43 88 42 89 42 89 41 89 40 89 39 88 39"/>
          <g>
            <polygon points="87 39 87 38 87 37 86 37 86 36 85 36 84 36 83 36 82 36 81 36 80 36 80 37 79 37 78 37 78 38 78 39 77 39 77 40 77 41 77 42 78 42 78 43 79 43 80 43 81 43 82 43 83 43 84 43 85 43 86 43 87 43 87 42 88 42 88 41 88 40 88 39 87 39" style="fill: #a6aacc;"/>
            <polygon points="82 44 81 44 81 45 81 46 81 47 80 47 80 48 79 48 79 49 78 49 78 50 78 51 79 51 80 51 81 51 81 50 82 50 82 49 83 49 83 48 84 48 84 47 84 46 84 45 84 44 83 44 82 44" style="fill: #a6aacc;"/>
          </g>
          <rect x="86" y="40" width="1" height="1" style="fill: #b7bbe0;"/>
          <polygon points="86 38 85 38 85 37 84 37 84 38 83 38 83 39 84 39 84 40 85 40 85 39 86 39 86 38" style="fill: #b7bbe0;"/>
          <polygon points="83 47 83 48 84 48 84 47 84 46 83 46 83 47" style="fill: #b7bbe0;"/>
          <rect x="82" y="48" width="1" height="1" style="fill: #b7bbe0;"/>
          <rect x="81" y="37" width="1" height="1" style="fill: #b7bbe0;"/>
          <path d="M87,39v-2h-1v-1h-6v1h-1v3h1v1h2v1h6v-3h-1Zm-5-1h-1v-1h1v1Zm3,1v1h-1v-1h-1v-1h1v-1h1v1h1v1h-1Zm2,2h-1v-1h1v1Z" style="fill: #a6aacc;"/>
          <rect x="83" y="45" width="1" height="1" style="fill: #a6aacc;"/>
          <polygon points="82 47 82 48 83 48 83 47 83 46 82 46 82 47" style="fill: #a6aacc;"/>
          <polygon points="81 49 80 49 80 50 81 50 82 50 82 49 82 48 81 48 81 49" style="fill: #a6aacc;"/>
          <polygon points="86 42 85 42 84 42 83 42 82 42 82 41 81 41 80 41 80 40 79 40 79 39 79 38 79 37 78 37 78 38 78 39 77 39 77 40 77 41 77 42 78 42 78 43 79 43 80 43 81 43 82 43 83 43 84 43 85 43 86 43 87 43 87 42 86 42" style="fill: #9598ba;"/>
          <polygon points="82 44 81 44 81 45 81 46 81 47 80 47 80 48 79 48 79 49 78 49 78 50 78 51 79 51 80 51 81 51 81 50 80 50 80 49 81 49 81 48 82 48 82 47 82 46 83 46 83 45 84 45 84 44 83 44 82 44" style="fill: #9598ba;"/>
        </g>
        <path class="cg-bg" d="M0 0h89v89H0z"></path>
<g id="tundra-base">
        <g id="tundra-2" data-name="tundra">
          <polygon id="base-bg" points="88 54 88 53 87 53 86 53 86 52 85 52 84 52 84 51 83 51 82 51 82 50 81 50 80 50 80 49 79 49 78 49 78 48 77 48 76 48 76 47 75 47 74 47 74 46 73 46 72 46 72 45 71 45 70 45 70 44 69 44 68 44 68 43 67 43 66 43 66 42 65 42 64 42 64 41 63 41 62 41 62 40 61 40 60 40 60 39 59 39 58 39 58 38 57 38 56 38 56 37 55 37 54 37 54 36 53 36 52 36 52 35 51 35 50 35 50 34 49 34 48 34 48 33 47 33 46 33 46 32 45 32 44 32 43 32 43 33 42 33 41 33 41 34 40 34 39 34 39 35 38 35 37 35 37 36 36 36 35 36 35 37 34 37 33 37 33 38 32 38 31 38 31 39 30 39 29 39 29 40 28 40 27 40 27 41 26 41 25 41 25 42 24 42 23 42 23 43 22 43 21 43 21 44 20 44 19 44 19 45 18 45 17 45 17 46 16 46 15 46 15 47 14 47 13 47 13 48 12 48 11 48 11 49 10 49 9 49 9 50 8 50 7 50 7 51 6 51 5 51 5 52 4 52 3 52 3 53 2 53 1 53 1 54 0 54 0 55 0 56 0 57 0 58 0 59 0 60 0 61 0 62 0 63 0 64 0 65 0 66 0 67 1 67 1 68 2 68 3 68 3 69 4 69 5 69 5 70 6 70 7 70 7 71 8 71 9 71 9 72 10 72 11 72 11 73 12 73 13 73 13 74 14 74 15 74 15 75 16 75 17 75 17 76 18 76 19 76 19 77 20 77 21 77 21 78 22 78 23 78 23 79 24 79 25 79 25 80 26 80 27 80 27 81 28 81 29 81 29 82 30 82 31 82 31 83 32 83 33 83 33 84 34 84 35 84 35 85 36 85 37 85 37 86 38 86 39 86 39 87 40 87 41 87 41 88 42 88 43 88 43 89 44 89 45 89 46 89 46 88 47 88 48 88 48 87 49 87 50 87 50 86 51 86 52 86 52 85 53 85 54 85 54 84 55 84 56 84 56 83 57 83 58 83 58 82 59 82 60 82 60 81 61 81 62 81 62 80 63 80 64 80 64 79 65 79 66 79 66 78 67 78 68 78 68 77 69 77 70 77 70 76 71 76 72 76 72 75 73 75 74 75 74 74 75 74 76 74 76 73 77 73 78 73 78 72 79 72 80 72 80 71 81 71 82 71 82 70 83 70 84 70 84 69 85 69 86 69 86 68 87 68 88 68 88 67 89 67 89 66 89 65 89 64 89 63 89 62 89 61 89 60 89 59 89 58 89 57 89 56 89 55 89 54 88 54"/>
          <polygon id="base-main" points="86 53 86 54 85 54 84 54 84 55 83 55 82 55 82 56 81 56 80 56 80 57 79 57 78 57 78 58 77 58 76 58 76 59 75 59 74 59 74 60 73 60 72 60 72 61 71 61 70 61 70 62 69 62 68 62 68 63 67 63 66 63 66 64 65 64 64 64 64 65 63 65 62 65 62 66 61 66 60 66 60 67 59 67 58 67 58 68 57 68 56 68 56 69 55 69 54 69 54 70 53 70 52 70 52 71 51 71 50 71 50 72 49 72 48 72 48 73 47 73 46 73 46 74 45 74 44 74 43 74 43 73 42 73 41 73 41 72 40 72 39 72 39 71 38 71 37 71 37 70 36 70 35 70 35 69 34 69 33 69 33 68 32 68 31 68 31 67 30 67 29 67 29 66 28 66 27 66 27 65 26 65 25 65 25 64 24 64 23 64 23 63 22 63 21 63 21 62 20 62 19 62 19 61 18 61 17 61 17 60 16 60 15 60 15 59 14 59 13 59 13 58 12 58 11 58 11 57 10 57 9 57 9 56 8 56 7 56 7 55 6 55 5 55 5 54 4 54 3 54 3 53 4 53 5 53 5 52 6 52 7 52 7 51 8 51 9 51 9 50 10 50 11 50 11 49 12 49 13 49 13 48 14 48 15 48 15 47 16 47 17 47 17 46 18 46 19 46 19 45 20 45 21 45 21 44 22 44 23 44 23 43 24 43 25 43 25 42 26 42 27 42 27 41 28 41 29 41 29 40 30 40 31 40 31 39 32 39 33 39 33 38 34 38 35 38 35 37 36 37 37 37 37 36 38 36 39 36 39 35 40 35 41 35 41 34 42 34 43 34 43 33 44 33 45 33 46 33 46 34 47 34 48 34 48 35 49 35 50 35 50 36 51 36 52 36 52 37 53 37 54 37 54 38 55 38 56 38 56 39 57 39 58 39 58 40 59 40 60 40 60 41 61 41 62 41 62 42 63 42 64 42 64 43 65 43 66 43 66 44 67 44 68 44 68 45 69 45 70 45 70 46 71 46 72 46 72 47 73 47 74 47 74 48 75 48 76 48 76 49 77 49 78 49 78 50 79 50 80 50 80 51 81 51 82 51 82 52 83 52 84 52 84 53 85 53 86 53" style="fill: #e0edff;"/>
        </g>
      </g>
      <g id="tundra-sideterrain-texture1">
        <g>
          <polygon points="3 60 3 59 4 59 4 60 4 61 4 62 4 63 5 63 6 63 6 64 7 64 8 64 9 64 9 65 10 65 10 66 11 66 12 66 13 66 13 65 13 64 13 63 14 63 14 64 14 65 14 66 15 66 15 67 15 68 16 68 16 69 17 69 17 70 18 70 19 70 19 71 20 71 21 71 21 72 22 72 23 72 24 72 24 71 24 70 25 70 25 71 25 72 25 73 26 73 26 74 27 74 28 74 28 75 29 75 30 75 30 74 30 73 30 72 31 72 31 73 31 74 31 75 31 76 32 76 32 77 33 77 33 78 34 78 34 79 35 79 36 79 36 80 37 80 38 80 39 80 39 79 40 79 40 78 40 77 41 77 41 78 42 78 42 79 42.3 79 42.7 79 43 79 43 80 43 81 43.3 81 43.7 81 44 81 44 75 43 75 43 74 42 74 41 74 41 73 40 73 39 73 39 72 38 72 37 72 37 71 36 71 35 71 35 70 34 70 33 70 33 69 32 69 31 69 31 68 30 68 29 68 29 67 28 67 27 67 27 66 26 66 25 66 25 65 24 65 23 65 23 64 22 64 21 64 21 63 20 63 19 63 19 62 18 62 17 62 17 61 16 61 15 61 15 60 14 60 13 60 13 59 12 59 11 59 11 58 10 58 9 58 9 57 8 57 7 57 7 56 6 56 5 56 5 55 4 55 3 55 3 54 2 54 1 54 1 55 1 56 1 57 1 58 1 59 1 60 2 60 2 61 3 61 3 60" style="fill: #adcbf6;"/>
          <polygon points="42.7 81 42.3 81 42 81 42 80 42 79 41 79 40 79 40 80 39 80 39 81 38 81 37 81 36 81 36 80 35 80 34 80 34 79 33 79 33 78 32 78 32 77 31 77 31 76 30 76 29 76 28 76 28 75 27 75 26 75 26 74 25 74 25 73 24 73 23 73 22 73 21 73 21 72 20 72 19 72 19 71 18 71 17 71 17 70 16 70 16 69 15 69 15 68 14 68 14 67 13 67 12 67 11 67 10 67 10 66 9 66 9 65 8 65 7 65 6 65 6 64 5 64 4 64 4 63 3 63 3 62 2 62 2 61 1 61 1 62 1 63 1 64 1 65 1 66 1 67 2 67 3 67 3 68 4 68 5 68 5 69 6 69 7 69 7 70 8 70 9 70 9 71 10 71 11 71 11 72 12 72 13 72 13 73 14 73 15 73 15 74 16 74 17 74 17 75 18 75 19 75 19 76 20 76 21 76 21 77 22 77 23 77 23 78 24 78 25 78 25 79 26 79 27 79 27 80 28 80 29 80 29 81 30 81 31 81 31 82 32 82 33 82 33 83 34 83 35 83 35 84 36 84 37 84 37 85 38 85 39 85 39 86 40 86 41 86 41 87 42 87 43 87 43 88 44 88 44 82 43.7 82 43.3 82 43 82 43 81 42.7 81" style="fill: #372a49;"/>
        </g>
        <g>
          <polygon points="87 54 86 54 86 55 85 55 84 55 84 56 83 56 82 56 82 57 81 57 80 57 80 58 79 58 78 58 78 59 77 59 76 59 76 60 75 60 74 60 74 61 73 61 72 61 72 62 71 62 70 62 70 63 69 63 68 63 68 64 67 64 66 64 66 65 65 65 64 65 64 66 63 66 62 66 62 67 61 67 60 67 60 68 59 68 58 68 58 69 57 69 56 69 56 70 55 70 54 70 54 71 53 71 52 71 52 72 51 72 50 72 50 73 49 73 48 73 48 74 47 74 46 74 46 75 45 75 45 81 46 81 46 80 47 80 47 79 47 78 48 78 48 79 48 80 49 80 50 80 51 80 51 79 51 78 51 77 52 77 52 78 53 78 54 78 55 78 55 77 55 76 56 76 57 76 58 76 58 75 59 75 59 74 59 73 59 72 60 72 60 73 60 74 61 74 62 74 63 74 64 74 64 73 65 73 65 72 65 71 65 70 65 69 65 68 66 68 66 69 66 70 66 71 67 71 68 71 68 70 69 70 69 69 70 69 70 68 71 68 71 67 71 66 71 65 71 64 72 64 72 65 72 66 72 67 73 67 74 67 74 66 75 66 76 66 76 65 77 65 78 65 78 64 79 64 79 63 79 62 80 62 80 61 80 60 81 60 81 61 81 62 82 62 82 63 83 63 84 63 85 63 86 63 86 62 87 62 87 61 88 61 88 60 88 59 88 58 88 57 88 56 88 55 88 54 87 54" style="fill: #e0edff;"/>
          <polygon points="86 63 86 64 85 64 84 64 83 64 82 64 82 63 81 63 81 62 80 62 80 63 80 64 79 64 79 65 78 65 78 66 77 66 76 66 76 67 75 67 74 67 74 68 73 68 72 68 71 68 71 69 70 69 70 70 69 70 69 71 68 71 68 72 67 72 66 72 66 73 65 73 65 74 64 74 64 75 63 75 62 75 61 75 60 75 59 75 59 76 58 76 58 77 57 77 56 77 56 78 55 78 55 79 54 79 53 79 52 79 52 80 51 80 51 81 50 81 49 81 48 81 48 80 47 80 47 81 46 81 46 82 45 82 45 88 46 88 46 87 47 87 48 87 48 86 49 86 50 86 50 85 51 85 52 85 52 84 53 84 54 84 54 83 55 83 56 83 56 82 57 82 58 82 58 81 59 81 60 81 60 80 61 80 62 80 62 79 63 79 64 79 64 78 65 78 66 78 66 77 67 77 68 77 68 76 69 76 70 76 70 75 71 75 72 75 72 74 73 74 74 74 74 73 75 73 76 73 76 72 77 72 78 72 78 71 79 71 80 71 80 70 81 70 82 70 82 69 83 69 84 69 84 68 85 68 86 68 86 67 87 67 88 67 88 66 88 65 88 64 88 63 88 62 87 62 87 63 86 63" style="fill: #504460;"/>
        </g>
        <g>
          <g>
            <rect x="37" y="77" width="1" height="1" style="fill: #e0edff;"/>
            <polygon points="35 75 35 76 36 76 36 75 36 74 35 74 35 75" style="fill: #e0edff;"/>
            <rect x="27" y="69" width="1" height="1" style="fill: #e0edff;"/>
            <rect x="22" y="69" width="1" height="1" style="fill: #e0edff;"/>
            <polygon points="20 67 20 68 21 68 21 67 21 66 20 66 20 67" style="fill: #e0edff;"/>
            <rect x="3" y="56" width="1" height="1" style="fill: #e0edff;"/>
            <rect x="8" y="60" width="1" height="1" style="fill: #e0edff;"/>
            <polygon points="10 62 10 63 10 64 11 64 12 64 12 63 12 62 11 62 10 62" style="fill: #e0edff;"/>
          </g>
          <g>
            <polygon points="35 77 34 77 34 76 34 75 33 75 33 74 33 73 32 73 32 72 31 72 31 73 31 74 31 75 31 76 32 76 32 77 33 77 33 78 34 78 34 79 35 79 36 79 36 78 35 78 35 77" style="fill: #8197d4;"/>
            <polygon points="43 75 43 76 42 76 42 77 41 77 41 78 42 78 42 79 43 79 43 80 43 81 44 81 44 80 44 79 44 78 44 77 44 76 44 75 43 75" style="fill: #8197d4;"/>
            <rect x="40" y="76" width="1" height="1" style="fill: #8197d4;"/>
            <polygon points="39 78 39 79 40 79 40 78 40 77 39 77 39 78" style="fill: #8197d4;"/>
            <rect x="38" y="79" width="1" height="1" style="fill: #8197d4;"/>
            <polygon points="29 73 29 74 28 74 28 75 29 75 30 75 30 74 30 73 30 72 29 72 29 73" style="fill: #8197d4;"/>
            <polygon points="27 73 27 72 26 72 26 71 26 70 25 70 25 71 25 72 25 73 26 73 26 74 27 74 28 74 28 73 27 73" style="fill: #8197d4;"/>
            <polygon points="18 68 18 67 17 67 17 66 16 66 16 65 16 64 15 64 15 63 14 63 14 64 14 65 14 66 15 66 15 67 15 68 16 68 16 69 17 69 17 70 18 70 19 70 19 69 18 69 18 68" style="fill: #8197d4;"/>
            <polygon points="8 62 7 62 7 61 6 61 6 60 6 59 5 59 5 58 4 58 4 59 4 60 4 61 4 62 4 63 5 63 6 63 6 64 7 64 8 64 9 64 9 63 8 63 8 62" style="fill: #8197d4;"/>
            <polygon points="2 57 2 56 2 55 2 54 1 54 1 55 1 56 1 57 1 58 1 59 1 60 2 60 2 61 3 61 3 60 3 59 3 58 2 58 2 57" style="fill: #8197d4;"/>
          </g>
          <g>
            <polygon points="43 82 43 83 43 84 43 85 43 86 44 86 44 85 44 84 44 83 44 82 43 82" style="fill: #19161c;"/>
            <rect x="42" y="81" width="1" height="1" style="fill: #19161c;"/>
            <polygon points="41 85 41 86 41 87 42 87 42 86 42 85 42 84 41 84 41 85" style="fill: #19161c;"/>
            <polygon points="41 80 42 80 42 79 41 79 40 79 40 80 39 80 39 81 38 81 37 81 37 82 38 82 39 82 39 83 39 84 40 84 40 83 40 82 40 81 41 81 41 80" style="fill: #19161c;"/>
            <polygon points="34 80 34 79 33 79 33 80 33 81 33 82 33 83 34 83 34 82 34 81 35 81 36 81 36 80 35 80 34 80" style="fill: #19161c;"/>
            <rect x="32" y="78" width="1" height="1" style="fill: #19161c;"/>
            <rect x="31" y="77" width="1" height="1" style="fill: #19161c;"/>
            <polygon points="30 76 29 76 29 77 29 78 30 78 30 77 31 77 31 76 30 76" style="fill: #19161c;"/>
            <polygon points="27 79 27 80 28 80 28 79 28 78 27 78 27 79" style="fill: #19161c;"/>
            <polygon points="25 75 25 76 26 76 26 75 26 74 25 74 25 75" style="fill: #19161c;"/>
            <polygon points="24 73 23 73 22 73 21 73 21 74 21 75 22 75 22 74 23 74 24 74 25 74 25 73 24 73" style="fill: #19161c;"/>
            <polygon points="23 76 23 77 23 78 24 78 24 77 24 76 24 75 23 75 23 76" style="fill: #19161c;"/>
            <rect x="20" y="72" width="1" height="1" style="fill: #19161c;"/>
            <polygon points="17 71 17 72 18 72 19 72 19 71 18 71 17 71" style="fill: #19161c;"/>
            <polygon points="16 70 16 69 15 69 15 70 15 71 15 72 15 73 15 74 16 74 16 73 16 72 16 71 17 71 17 70 16 70" style="fill: #19161c;"/>
            <polygon points="14 68 14 67 13 67 12 67 11 67 10 67 10 68 11 68 12 68 13 68 13 69 13 70 14 70 14 69 15 69 15 68 14 68" style="fill: #19161c;"/>
            <polygon points="11 70 11 71 11 72 12 72 12 71 12 70 12 69 11 69 11 70" style="fill: #19161c;"/>
            <polygon points="9 66 9 65 8 65 7 65 6 65 6 64 5 64 5 65 5 66 5 67 5 68 6 68 6 67 6 66 7 66 7 67 8 67 8 68 8 69 9 69 9 68 9 67 10 67 10 66 9 66" style="fill: #19161c;"/>
            <polygon points="3 64 3 65 4 65 4 64 4 63 3 63 3 64" style="fill: #19161c;"/>
            <rect x="2" y="62" width="1" height="1" style="fill: #19161c;"/>
          </g>
        </g>
        <g id="Layer_81" data-name="Layer 81">
          <g>
            <g>
              <polygon points="86 56 86 57 86 58 87 58 87 57 87 56 86 56" style="fill: #f6fdff;"/>
              <rect x="84" y="58" width="1" height="1" style="fill: #f6fdff;"/>
              <polygon points="75 61 75 62 75 63 76 63 77 63 77 62 77 61 76 61 75 61" style="fill: #f6fdff;"/>
              <rect x="68" y="65" width="1" height="1" style="fill: #f6fdff;"/>
              <polygon points="62 69 62 70 63 70 63 69 63 68 62 68 62 69" style="fill: #f6fdff;"/>
              <rect x="57" y="70" width="1" height="1" style="fill: #f6fdff;"/>
              <polygon points="55 72 55 73 55 74 56 74 57 74 57 73 57 72 56 72 55 72" style="fill: #f6fdff;"/>
              <rect x="49" y="75" width="1" height="1" style="fill: #f6fdff;"/>
            </g>
            <g>
              <polygon points="87 59 87 60 87 61 88 61 88 60 88 59 87 59" style="fill: #adcbf6;"/>
              <rect x="86" y="61" width="1" height="1" style="fill: #adcbf6;"/>
              <polygon points="84 62 83 62 82 62 82 63 83 63 84 63 85 63 86 63 86 62 85 62 84 62" style="fill: #adcbf6;"/>
              <polygon points="82 60 82 59 81 59 81 60 81 61 81 62 82 62 82 61 82 60" style="fill: #adcbf6;"/>
              <polygon points="78 63 78 64 79 64 79 63 79 62 78 62 78 63" style="fill: #adcbf6;"/>
              <rect x="77" y="64" width="1" height="1" style="fill: #adcbf6;"/>
              <polygon points="74 65 74 64 73 64 73 63 72 63 72 64 72 65 72 66 72 67 73 67 74 67 74 66 75 66 76 66 76 65 75 65 74 65" style="fill: #adcbf6;"/>
              <rect x="70" y="67" width="1" height="1" style="fill: #adcbf6;"/>
              <polygon points="68 68 67 68 67 67 66 67 66 68 66 69 66 70 66 71 67 71 68 71 68 70 69 70 69 69 68 69 68 68" style="fill: #adcbf6;"/>
              <polygon points="63 72 62 72 62 71 61 71 61 70 60 70 60 71 60 72 60 73 60 74 61 74 62 74 63 74 64 74 64 73 65 73 65 72 64 72 63 72" style="fill: #adcbf6;"/>
              <rect x="58" y="74" width="1" height="1" style="fill: #adcbf6;"/>
              <polygon points="56 75 55 75 55 76 56 76 57 76 58 76 58 75 57 75 56 75" style="fill: #adcbf6;"/>
              <polygon points="54 76 53 76 53 75 53 74 52 74 52 75 52 76 52 77 52 78 53 78 54 78 55 78 55 77 54 77 54 76" style="fill: #adcbf6;"/>
              <polygon points="49 78 49 77 48 77 48 76 48 75 47 75 47 76 47 77 47 78 48 78 48 79 48 80 49 80 50 80 51 80 51 79 51 78 50 78 49 78" style="fill: #adcbf6;"/>
            </g>
            <g>
              <polygon points="87 66 87 67 88 67 88 66 88 65 87 65 87 66" style="fill: #372a49;"/>
              <polygon points="78 70 78 71 79 71 79 70 79 69 78 69 78 70" style="fill: #372a49;"/>
              <polygon points="66 76 66 77 67 77 67 76 67 75 66 75 66 76" style="fill: #372a49;"/>
              <rect x="87" y="62" width="1" height="1" style="fill: #372a49;"/>
              <rect x="86" y="63" width="1" height="1" style="fill: #372a49;"/>
              <polygon points="84 64 83 64 82 64 82 65 82 66 82 67 82 68 83 68 83 67 83 66 83 65 84 65 85 65 86 65 86 64 85 64 84 64" style="fill: #372a49;"/>
              <polygon points="81 63 81 62 80 62 80 63 80 64 81 64 82 64 82 63 81 63" style="fill: #372a49;"/>
              <rect x="79" y="64" width="1" height="1" style="fill: #372a49;"/>
              <rect x="78" y="65" width="1" height="1" style="fill: #372a49;"/>
              <polygon points="76 66 76 67 77 67 78 67 78 66 77 66 76 66" style="fill: #372a49;"/>
              <polygon points="74 67 74 68 75 68 75 69 75 70 76 70 76 69 76 68 76 67 75 67 74 67" style="fill: #372a49;"/>
              <polygon points="72 68 71 68 71 69 72 69 73 69 74 69 74 68 73 68 72 68" style="fill: #372a49;"/>
              <polygon points="70 70 69 70 69 71 70 71 70 72 70 73 70 74 71 74 71 73 71 72 71 71 71 70 71 69 70 69 70 70" style="fill: #372a49;"/>
              <rect x="68" y="71" width="1" height="1" style="fill: #372a49;"/>
              <polygon points="66 72 66 73 67 73 68 73 68 72 67 72 66 72" style="fill: #372a49;"/>
              <rect x="65" y="73" width="1" height="1" style="fill: #372a49;"/>
              <rect x="64" y="74" width="1" height="1" style="fill: #372a49;"/>
              <polygon points="62 75 61 75 60 75 59 75 59 76 60 76 61 76 62 76 63 76 63 77 64 77 64 76 64 75 63 75 62 75" style="fill: #372a49;"/>
              <polygon points="58 77 57 77 56 77 56 78 55 78 55 79 56 79 56 80 57 80 57 79 57 78 58 78 59 78 59 77 59 76 58 76 58 77" style="fill: #372a49;"/>
              <polygon points="53 83 53 84 54 84 54 83 54 82 53 82 53 83" style="fill: #372a49;"/>
              <polygon points="53 79 52 79 52 80 53 80 54 80 55 80 55 79 54 79 53 79" style="fill: #372a49;"/>
              <polygon points="51 81 50 81 49 81 48 81 48 80 47 80 47 81 46 81 46 82 45 82 45 83 45 84 46 84 46 85 47 85 47 84 48 84 48 85 49 85 49 84 49 83 49 82 50 82 51 82 51 83 52 83 52 82 52 81 52 80 51 80 51 81" style="fill: #372a49;"/>
            </g>
          </g>
        </g>
      </g>
      <g id="tundra-topterrain-texture5">
        <g>
          <path d="M76,53v1h-1v-1h1Zm-5-2v-1h-1v-1h-1v-1h-6v1h-2v1h-2v1h-5v-1h-1v-1h-1v-1h1v1h1v1h5v-1h1v-1h1v-1h1v-2h-1v-1h-1v-1h-1v-1h-1v-1h-2v-1h-2v-1h-2v-1h-3v-1h-5v1h-2v1h-1v1h-1v1h-2v1h-3v1h-6v1h-1v2h1v1h1v1h1v3h-1v1h-1v-1h1v-3h-1v-1h-2v-1h-6v1h-2v1h-2v1h-1v2h-1v4h1v1h1v1h1v1h2v1h5v1h4v-1h3v-1h1v-2h1v2h-1v1h-1v4h1v1h1v1h2v1h2v1h9v-1h1v-1h2v-1h6v1h4v-1h1v-1h1v-3h-1v-1h-1v-1h-1v-1h1v1h1v1h8v-1h1v-1h1v-1h1v-5h-1Zm-20,16h1v-1h-1v1Zm-6,4h1v-1h-1v1Zm-8-32h-1v1h1v-1Zm-10,24h1v-1h-1v1Zm-16-9h1v-1h-1v1Z" style="fill: #f6fdff;"/>
          <path d="M10,56v1h-1v-1h1Zm-2-1v-3h1v-1h-2v1h-2v1H3v1h2v1h2v1h2v-1h-1Z" style="fill: #adcbf6;"/>
        </g>
        <path d="M64,53v1h-1v-1h1Zm-18,7h1v-1h-1v1Zm0-15h1v-1h-1v1Zm-5,4h1v-1h-1v1Zm-1-2v1h1v-1h-1Zm-1,2h1v-1h-1v1Zm0,14h1v-1h-1v1Zm-1-2v1h1v-1h-1Zm-1,2h1v-1h-1v1Zm-15-10h1v-1h-1v1Z" style="fill: #e0edff;"/>
      </g>
      <g id="grass1">
        <g>
          <polygon points="71 42 71 41 72 41 72 42 73 42 73 43 74 43 74 44 74 45 75 45 75 44 75 43 76 43 76 42 77 42 77 43 78 43 78 44 78 45 77 45 77 46 77 47 77 48 77 49 76 49 76 49 75 49 75 49 74 49 74 49 74 49 74 48 74 47 73 47 72 47 72 46 72 45 71 45 71 44 71 43 70 43 70 42 71 42"/>
          <polygon points="76 43 77 43 77 44 77 45 76 45 76 44 76 43" style="fill: #f6fdff;"/>
          <rect x="71" y="42" width="1" height="1" style="fill: #f6fdff;"/>
          <polygon points="73 44 73 45 72 45 72 44 72 43 73 43 73 44" style="fill: #f6fdff;"/>
          <polygon points="74 46 74 47 75 47 75 46 75 45 76 45 76 46 76 47 76 48 76 49 76 50 75 50 75 51 74 51 74 50 74 49 73 49 73 48 73 47 73 46 73 45 74 45 74 46" style="fill: #f6fdff;"/>
        </g>
      </g>
      <g id="grass2">
        <g>
          <polygon points="71 42 71 41 72 41 72 42 73 42 73 43 74 43 74 44 74 45 75 45 75 44 75 43 76 43 76 42 77 42 77 43 78 43 78 44 78 45 77 45 77 46 77 47 77 48 77 49 76 49 76 49 75 49 75 49 74 49 74 49 74 49 74 48 74 47 73 47 72 47 72 46 72 45 71 45 71 44 71 43 70 43 70 42 71 42"/>
          <polygon points="76 43 77 43 77 44 77 45 76 45 76 44 76 43" style="fill: #f6fdff;"/>
          <rect x="71" y="42" width="1" height="1" style="fill: #f6fdff;"/>
          <polygon points="73 44 73 45 72 45 72 44 72 43 73 43 73 44" style="fill: #f6fdff;"/>
          <polygon points="74 46 74 47 75 47 75 46 75 45 76 45 76 46 76 47 76 48 76 49 76 50 75 50 75 51 74 51 74 50 74 49 73 49 73 48 73 47 73 46 73 45 74 45 74 46" style="fill: #f6fdff;"/>
        </g>
      </g>
      <g id="grass4">
        <g>
          <polygon points="57 29 56 29 56 30 55 30 55 31 54 31 54 32 53 32 53 33 52 33 52 32 51 32 51 31 50 31 50 32 49 32 49 33 50 33 50 34 51 34 51 35 51 36 52 36 53 36 53 37 53 37 54 37 54 37 55 37 55 38 56 38 56 35 56 34 56 33 56 32 57 32 57 31 58 31 58 30 57 30 57 29"/>
          <g>
            <rect x="56" y="30" width="1" height="1" style="fill: #f6fdff;"/>
            <rect x="55" y="31" width="1" height="1" style="fill: #f6fdff;"/>
            <polygon points="54 33 54 34 54 35 53 35 53 34 52 34 52 35 52 36 52 38 53 38 53 39 54 39 54 38 55 38 55 36 55 35 55 34 55 33 55 32 54 32 54 33" style="fill: #f6fdff;"/>
            <rect x="51" y="33" width="1" height="1" style="fill: #f6fdff;"/>
            <rect x="50" y="32" width="1" height="1" style="fill: #f6fdff;"/>
          </g>
        </g>
      </g>
      <g id="snow-twig2">
        <polygon points="32 32 31 32 31 33 30 33 30 34 30 35 29 35 29 34 29 33 28 33 28 32 27 32 26 32 26 33 26 34 26 35 27 35 27 36 28 36 28 37 29 37 29 38 29 39 30 39 31 40 31 40 32 40 32 39 32 38 32 37 32 36 32 35 33 35 33 34 33 33 33 32 32 32"/>
        <path d="M32,33v2h-1v-2h1Zm-2,3h-1v1h1v4h1v-6h-1v1Zm-2-1v1h1v-1h-1Zm0-2h-1v2h1v-2Z" style="fill: #f6fdff;"/>
      </g>
      <g id="snow-pile3">
        <g>
          <polygon points="69 41 69 40 68 40 68 39 67 39 67 38 66 38 66 37 65 37 64 37 63 37 63 38 62 38 61 38 61 39 60 39 60 40 61 41 61 44 68 43 69 44 70 44 70 43 70 42 70 41 69 41"/>
          <polygon points="68 41 68 40 67 40 67 39 66 39 66 38 65 38 64 38 63 38 63 39 62 39 61 39 61 40 60 40 60 41 59 41 59 42 59 43 59 44 59 45 59 46 60 46 60 47 61 47 62 47 63 47 63 48 64 48 65 48 66 48 67 48 67 47 68 47 68 46 69 46 69 45 69 44 69 43 69 42 69 41 68 41" style="fill: #f6fdff;"/>
          <path d="M69,44v2h-1v-2h1Zm-2,3h1v-1h-1v1Zm-2,0h-2v1h4v-1h-2Zm-3-1h-2v1h3v-1h-1Zm-3-1v1h1v-1h-1Z" style="fill: #e0edff;"/>
        </g>
      </g>
      <g id="snow-pile2">
        <polygon points="20 44 20 43 19 43 18 43 18 42 17 42 16 42 15 42 15 43 14 43 14 44 13 44 13 45 12 45 12 46 11 46 11 47 11 48 11 49 12 49 13 49 14 49 14 50 15 51 15 51 16 51 17 51 17 51 18 50 19 50 20 50 20 49 20 48 20 47 20 46 20 46 21 45 21 44 20 44"/>
        <polygon points="21 46 21 45 20 45 20 44 19 44 18 44 18 43 17 43 16 43 15 43 15 44 14 44 14 45 13 45 13 46 12 46 12 47 12 48 12 49 12 50 12 51 13 51 13 52 14 52 14 53 15 53 16 53 17 53 18 53 18 52 19 52 20 52 21 52 21 51 22 51 22 50 22 49 22 48 22 47 22 46 21 46" style="fill: #f6fdff;"/>
        <path d="M22,50v1h-1v-1h1Zm-3,1h-1v1h3v-1h-2Zm-6,0v1h1v-1h-1Zm0-2h-1v2h1v-2Zm3,3h-2v1h4v-1h-2Z" style="fill: #e0edff;"/>
      </g>
      <g id="small-snowpile">
        <polygon points="40 39 40 38 39 38 39 37 38 37 37 37 37 36 36 36 35 36 34 36 33 36 33 37 32 37 32 38 31 38 30 38 30 39 29 39 29 40 28 40 28 41 28 42 29 42 30 41 30 41 31 41 32 41 33 40 33 42 34 42 34 40 35 41 36 41 37 40 37 40 38 40 39 40 40 41 40 41 41 41 41 40 41 39 40 39"/>
        <g>
          <polygon points="37 38 37 37 36 37 35 37 34 37 33 37 33 38 32 38 32 39 33 39 33 40 34 40 34 41 35 41 35 40 35 39 36 39 36 38 37 38" style="fill: #adcbf6;"/>
          <polygon points="32 39 31 39 30 39 30 40 29 40 29 41 29 42 30 42 31 42 32 42 33 42 33 40 32 40 32 39" style="fill: #adcbf6;"/>
          <polygon points="39 39 39 38 38 38 37 38 37 39 36 39 36 40 36 41 37 41 38 41 39 41 40 41 40 40 40 39 39 39" style="fill: #adcbf6;"/>
        </g>
        <path d="M39,39v2h-3v-2h3Zm-8,1h-1v2h3v-2h-2Z" style="fill: #e0edff;"/>
      </g>
      <g id="tundra-rocks4">
        <path d="M49,39h1v1h-1v-1Zm-2,1v1h2v-1h-2Zm-2,3h1v-1h-1v1Zm-2,0h-2v1h4v-1h-2Z" style="opacity: .2;"/>
        <polygon points="40 39 40 38 41 38 41 37 41 36 41 35 42 35 42 34 43 34 43 33 44 33 44 32 48 32 48 33 50 33 50 34 51 34 51 35 52 35 52 38 51 38 51 39 49 39 49 40 47 40 47 42 45 42 45 43 40 43 40 42 39 42 39 39 40 39"/>
        <g>
          <polygon points="50 35 50 34 48 34 48 33 44 33 44 34 43 34 43 35 42 35 42 36 42 37 43 37 45 37 45 38 46 38 46 39 47 39 47 40 49 40 49 39 50 39 50 38 51 38 51 36 51 35 50 35" style="fill: #7a6a8f;"/>
          <polygon points="45 38 41 38 41 39 40 39 40 41 40 42 41 42 41 43 45 43 45 42 46 42 46 41 46 40 46 39 45 39 45 38" style="fill: #7a6a8f;"/>
        </g>
        <g>
          <polygon points="46 39 46 38 47 38 49 38 49 37 50 37 50 36 51 36 51 38 50 38 50 39 49 39 49 40 47 40 47 39 46 39" style="fill: #504460;"/>
          <rect x="42" y="36" width="1" height="1" style="fill: #504460;"/>
          <rect x="41" y="42" width="4" height="1" style="fill: #504460;"/>
          <rect x="45" y="41" width="1" height="1" style="fill: #504460;"/>
        </g>
        <g>
          <rect x="50" y="35" width="1" height="1" style="fill: #998da8;"/>
          <rect x="49" y="36" width="1" height="1" style="fill: #998da8;"/>
          <rect x="45" y="37" width="4" height="1" style="fill: #998da8;"/>
          <rect x="43" y="36" width="2" height="1" style="fill: #998da8;"/>
          <rect x="42" y="35" width="1" height="1" style="fill: #998da8;"/>
          <rect x="40" y="41" width="5" height="1" style="fill: #998da8;"/>
          <rect x="45" y="40" width="1" height="1" style="fill: #998da8;"/>
        </g>
        <g>
          <polygon points="45 37 45 36 43 36 43 34 44 34 44 33 48 33 48 34 50 34 50 36 49 36 49 37 45 37" style="fill: #7a6a8f;"/>
          <polygon points="41 39 41 38 45 38 45 39 46 39 46 40 45 40 45 41 42 41 41 41 40 41 40 39 41 39" style="fill: #7a6a8f;"/>
        </g>
      </g>
      <g id="tree-animated">
        <g id="tree-default">
          <g>
            <rect x="11" y="38" width="1" height="1"/>
            <polygon points="33 52 32 52 31 52 30 52 30 51 29 51 29 50 28 50 28 49 27 49 27 48 27 47 26 47 26 46 26 45 26 44 26 43 26 42 26 41 26 40 26 39 26 38 27 38 27 37 27 36 27 35 28 35 28 34 29 34 29 33 30 33 30 32 30 31 29 31 28 31 28 32 27 32 27 31 27 30 28 30 28 29 29 29 29 28 29 27 30 27 30 26 29 26 29 25 29 24 28 24 27 24 27 25 26 25 26 26 26 27 25 27 25 28 25 29 24 29 24 30 24 31 24 32 23 32 23 31 22 31 22 30 22 29 22 28 22 27 22 26 22 25 23 25 23 24 23 23 23 22 22 22 21 22 21 23 20 23 20 24 19 24 19 25 19 26 19 27 18 27 17 27 17 26 16 26 16 25 15 25 15 24 14 24 13 24 13 25 13 26 13 27 14 27 14 28 15 28 15 29 16 29 16 30 17 30 18 30 19 30 19 31 19 32 18 32 18 31 17 31 16 31 16 32 16 33 16 34 17 34 17 35 18 35 18 36 17 36 17 35 16 35 15 35 15 34 14 34 14 33 13 33 13 32 13 31 12 31 12 30 11 30 10 30 10 31 10 32 10 33 9 33 9 34 8 34 8 35 9 35 9 36 10 36 11 36 12 36 13 36 13 37 12 37 12 38 13 38 13 39 14 39 15 39 15 38 16 38 16 39 16 40 17 40 17 41 18 41 18 42 18 43 18 44 18 45 18 46 18 47 18 48 17 48 17 49 17 50 16 50 16 51 15 51 15 52 14 52 13 52 13 53 12 53 11 53 11 54 12 54 13 54 13 55 14 55 15 55 16 55 17 55 17 54 18 54 18 55 17 55 17 56 16 56 16 57 17 57 18 57 19 57 20 57 20 56 21 56 21 55 22 55 22 54 23 54 23 55 24 55 25 55 25 56 26 56 27 56 28 56 29 56 29 55 28 55 28 54 29 54 30 54 31 54 32 54 33 54 33 53 34 53 34 52 33 52"/>
          </g>
          <g>
            <polygon points="26 32 26 31 26 30 27 30 27 29 28 29 28 28 29 28 29 27 28 27 28 26 28 25 27 25 27 26 27 27 26 27 26 28 26 29 25 29 25 30 25 31 25 32 24 32 24 33 24 34 24 35 23 35 23 36 23 37 22 37 22 36 22 35 22 34 22 33 22 32 22 31 21 31 21 30 21 29 21 28 21 27 21 26 21 25 22 25 22 24 22 23 21 23 21 24 20 24 20 25 20 26 20 27 20 28 19 28 18 28 17 28 17 27 16 27 16 26 15 26 15 25 14 25 14 26 14 27 15 27 15 28 16 28 16 29 17 29 18 29 19 29 19 30 20 30 20 31 20 32 20 33 20 34 20 35 19 35 19 36 19 37 18 37 17 37 17 36 16 36 15 36 15 35 14 35 14 34 13 34 13 33 12 33 12 32 12 31 11 31 11 32 11 33 11 34 10 34 9 34 9 35 10 35 11 35 12 35 13 35 13 36 14 36 14 37 14 38 13 38 13 39 14 39 15 39 15 38 16 38 16 39 17 39 17 40 18 40 18 41 19 41 19 42 19 43 19 44 19 45 19 46 19 47 19 48 18 48 18 49 18 50 17 50 17 51 16 51 16 52 15 52 15 53 14 53 13 53 13 54 14 54 15 54 16 54 17 54 17 53 18 53 18 52 19 52 20 52 20 53 19 53 19 54 19 55 18 55 18 56 19 56 20 56 20 55 21 55 21 54 22 54 22 53 23 53 23 54 24 54 25 54 25 55 26 55 27 55 27 54 26 54 26 53 25 53 25 52 26 52 26 53 27 53 28 53 29 53 29 52 28 52 28 51 28 50 27 50 27 49 26 49 26 48 26 47 25 47 25 46 25 45 25 44 25 43 25 42 25 41 25 40 25 39 25 38 26 38 26 37 26 36 27 36 27 35 28 35 28 34 29 34 29 33 29 32 28 32 28 33 27 33 27 34 26 34 26 33 26 32" style="fill: #423f4d;"/>
            <polygon points="19 33 18 33 18 32 17 32 17 33 17 34 18 34 18 35 19 35 19 34 19 33" style="fill: #423f4d;"/>
          </g>
          <path d="M33,51v1h-3v-1h-1v-1h2v1h2Zm-3-21h1v-4h-1v1h-1v2h1v1Zm-1-5v1h1v-1h-1Zm-1,16h1v-1h-1v1Zm0-4v1h1v-1h1v-4h-1v1h-1v1h-1v1h1v1Zm0,12v1h1v-1h-1Zm-1-1v1h1v-1h-1Zm-4-16h1v-1h-1v1Zm-1-2v1h1v-1h-1Zm-5-4v1h2v-1h-2Zm-1-1v1h1v-1h-1Zm0,25h1v-1h-1v1Zm0-12h-1v1h1v-1Zm-1-4v-1h-1v1h1Zm-1,16v1h-1v1h2v-1h1v-1h-2Zm-1-7h1v-1h-1v1Zm1-11h-1v1h1v-1Zm-2,9h2v-1h1v-1h-2v-1h-1v1h-1v1h1v1Zm0,12h1v-1h-1v1Zm-4-12h1v-1h-1v1Zm0-9v2h1v-1h1v-1h-2Zm-1,3v1h1v2h1v-3h-1v-1h-1v1Z" style="fill: #fff;"/>
          <path d="M15,35v1h-1v-1h1Zm1,1h-1v1h2v-1h-1Zm-3-2v-1h-1v-2h-1v3h1v1h2v-1h-1Zm2-9h-1v1h1v-1Zm1,2v-1h-1v1h1Zm1,1v-1h-1v1h1Zm11-1v-2h-1v4h1v-1h1v-1h-1Zm-2,3h1v-1h-1v1Zm-7,26h1v-1h-1v1Zm9-23h-1v1h-1v-3h-1v3h-1v1h-1v2h-1v-6h-1v-6h1v-2h-1v1h-1v4h-1v1h1v3h1v4h-1v2h-1v-1h-2v1h1v1h1v1h1v8h1v4h-1v3h1v-1h1v-1h1v1h2v-1h-1v-3h-1v-2h1v2h1v1h1v1h2v-2h-1v-1h-1v-2h-1v-9h1v-2h1v-1h1v-1h1v-2h-1v1Z" style="fill: #423f4d;"/>
          <path d="M29,52v1h-3v-1h3Zm-2-24v-1h-1v2h1v-1Zm-1,2v-1h-1v2h1v-1Zm0,22v-1h-1v-1h-1v3h1v-1h1Zm-1,2v1h2v-1h-1v-1h-1v1Zm0-21v-1h-1v2h1v-1Zm-1,15h-1v2h1v-2Zm-4-15v2h-1v3h1v-2h1v-4h-1v1Zm0-3v-1h-1v1h1Zm0,17v-7h-1v-1h-1v-1h-1v-1h-2v-1h-1v2h-1v1h2v-1h1v1h1v1h1v1h1v7h-1v2h-1v1h-1v1h-1v1h-2v1h4v-1h1v-1h3v-4h-1v-1Zm-1,7v1h1v-2h-1v1Zm0-21h-1v-1h-1v2h1v1h1v-2Zm-1,23h1v-1h-1v1Zm-1-27h2v-1h-3v1h1Zm-1-1v-1h-1v1h1Zm-1-2h-1v1h1v-1Zm-2,9v1h1v-1h-1Zm-3-1h-1v1h3v-1h-2Z" style="fill: #3a3642;"/>
        </g>
        <g id="tree-snowfall">
          <polygon points="33 52 32 52 31 52 30 52 30 51 29 51 29 50 28 50 28 49 27 49 27 48 27 47 26 47 26 46 26 45 26 44 26 43 26 42 26 41 26 40 26 39 26 38 27 38 27 37 27 36 28 36 28 35 29 35 29 34 30 34 30 33 30 32 30 31 29 31 28 31 28 32 27 32 27 31 27 30 28 30 28 29 29 29 29 28 30 28 30 27 30 26 29 26 29 25 29 24 28 24 27 24 27 25 26 25 26 26 26 27 25 27 25 28 25 29 24 29 24 30 24 31 24 32 23 32 23 31 22 31 22 30 22 29 22 28 22 27 22 26 22 25 23 25 23 24 23 23 23 22 22 22 21 22 21 23 20 23 20 24 19 24 19 25 19 26 19 27 18 27 17 27 17 26 16 26 16 25 15 25 15 24 14 24 13 24 13 25 13 26 13 27 14 27 14 28 15 28 15 29 16 29 16 30 17 30 18 30 19 30 19 31 19 32 18 32 18 31 17 31 16 31 16 32 16 33 16 34 17 34 17 35 18 35 18 36 17 36 17 35 16 35 15 35 15 34 14 34 14 33 13 33 13 32 13 31 12 31 12 30 11 30 10 30 10 31 10 32 10 33 9 33 9 34 8 34 8 35 9 35 9 36 10 36 11 36 12 36 13 36 13 37 12 37 12 38 11 38 11 39 12 39 12 40 13 40 14 40 15 40 16 40 17 40 17 41 18 41 18 42 18 43 18 44 18 45 18 46 18 47 18 48 17 48 17 49 17 50 16 50 16 51 15 51 15 52 14 52 13 52 13 53 12 53 11 53 11 54 12 54 13 54 13 55 14 55 15 55 16 55 17 55 17 54 18 54 18 55 17 55 17 56 16 56 16 57 17 57 18 57 19 57 20 57 21 56 21 56 21 55 22 55 22 54 23 54 23 55 24 55 24 55 25 56 26 56 27 56 28 56 29 56 29 55 28 55 28 54 29 54 30 54 31 54 32 54 33 54 33 53 34 53 34 52 33 52"/>
          <g>
            <polygon points="28 32 28 33 27 33 27 34 26 34 26 33 26 32 26 31 26 30 26 29 25 29 25 30 25 31 25 32 24 32 24 33 24 34 24 35 23 35 23 36 23 37 22 37 22 36 22 35 22 34 22 33 22 32 22 31 21 31 21 30 21 29 21 28 21 27 21 26 21 25 22 25 22 24 22 23 21 23 21 24 20 24 20 25 20 26 20 27 20 28 19 28 18 28 17 28 16 28 16 29 17 29 18 29 19 29 19 30 20 30 20 31 20 32 20 33 20 34 20 35 19 35 19 36 19 37 18 37 17 37 16 37 15 37 15 36 14 36 14 37 14 38 13 38 12 38 12 39 13 39 14 39 15 39 16 39 17 39 17 40 18 40 18 41 19 41 19 42 19 43 19 44 19 45 19 46 19 47 19 48 18 48 18 49 18 50 17 50 17 51 16 51 16 52 15 52 15 53 14 53 13 53 13 54 14 54 15 54 16 54 17 54 17 53 18 53 18 52 19 52 20 52 21 52 21 53 20 53 19 53 19 54 19 55 20 55 21 55 21 54 22 54 22 53 23 53 23 54 24 54 25 54 25 55 26 55 27 55 27 54 26 54 26 53 25 53 25 52 26 52 26 53 27 53 28 53 29 53 29 52 28 52 28 51 28 50 27 50 27 49 26 49 26 48 26 47 25 47 25 46 25 45 25 44 25 43 25 42 25 41 25 40 25 39 25 38 26 38 26 37 26 36 27 36 27 35 28 35 28 34 29 34 29 33 29 32 28 32" style="fill: #423f4d;"/>
            <rect x="18" y="55" width="1" height="1" style="fill: #423f4d;"/>
            <rect x="13" y="35" width="1" height="1" style="fill: #423f4d;"/>
            <polygon points="12 34 11 34 10 34 9 34 9 35 10 35 11 35 12 35 12 34" style="fill: #423f4d;"/>
            <rect x="14" y="26" width="1" height="1" style="fill: #423f4d;"/>
            <polygon points="27 28 27 27 26 27 26 28 26 29 27 29 27 28" style="fill: #423f4d;"/>
            <polygon points="19 33 18 33 18 32 17 32 17 33 17 34 18 34 18 35 19 35 19 34 19 33" style="fill: #423f4d;"/>
            <rect x="15" y="27" width="1" height="1" style="fill: #423f4d;"/>
          </g>
          <polygon points="28 32 28 33 27 33 27 34 26 34 26 33 26 32 26 31 25 31 25 32 25 33 25 34 24 34 24 35 23 35 23 36 23 37 22 37 22 36 22 35 22 34 22 33 22 32 22 31 21 31 21 30 21 29 21 28 21 27 21 26 21 25 22 25 22 24 22 23 21 23 21 24 20 24 20 25 20 26 20 27 20 28 19 28 19 29 20 29 20 30 20 31 20 32 21 32 21 33 21 34 21 35 21 36 20 36 20 37 20 38 19 38 19 37 18 37 17 37 17 38 18 38 18 39 19 39 19 40 20 40 20 41 20 42 20 43 20 44 20 45 20 46 20 47 20 48 21 48 21 49 21 50 21 51 21 52 21 53 20 53 20 55 21 55 21 54 22 54 22 53 23 53 23 54 24 54 25 54 25 53 24 53 24 52 24 51 24 50 23 50 23 48 24 48 24 49 24 50 25 50 25 51 26 51 26 52 27 52 28 52 28 51 28 50 27 50 27 49 26 49 26 48 26 47 25 47 25 46 25 45 25 44 25 43 25 42 25 41 25 40 25 39 25 38 26 38 26 37 26 36 27 36 27 35 28 35 28 34 29 34 29 33 29 32 28 32" style="fill: #423f4d;"/>
          <path d="M29,52v1h-3v-1h3Zm-2-24v-1h-1v2h1v-1Zm-1,2v-1h-1v2h1v-1Zm0,22v-1h-1v-1h-1v3h1v-1h1Zm-1,2v1h2v-1h-1v-1h-1v1Zm0-21v-1h-1v2h1v-1Zm-1,15h-1v2h1v-2Zm-4-15v2h-1v3h1v-2h1v-4h-1v1Zm0-3v-1h-1v1h1Zm0,17v-7h-1v-1h-1v-1h-1v-1h-2v-1h-1v2h-2v1h5v1h1v1h1v7h-1v2h-1v1h-1v1h-1v1h-2v1h4v-1h1v-1h3v-4h-1v-1Zm-1,7v1h1v-2h-1v1Zm0-21h-1v-1h-1v2h1v1h1v-2Zm-1,23h1v-1h-1v1Zm-1-27h2v-1h-3v1h1Zm-1-1v-1h-1v1h1Zm-1-2h-1v1h1v-1Zm-2,9v1h1v-1h-1Zm-1-1h-3v1h3v-1Z" style="fill: #3a3642;"/>
          <g>
            <polygon points="20 53 20 54 21 54 21 53 21 52 20 52 20 53" style="fill: #423f4d;"/>
            <rect x="19" y="55" width="1" height="1" style="fill: #423f4d;"/>
            <rect x="15" y="26" width="1" height="1" style="fill: #423f4d;"/>
            <rect x="16" y="27" width="1" height="1" style="fill: #423f4d;"/>
            <rect x="14" y="25" width="1" height="1" style="fill: #423f4d;"/>
            <rect x="26" y="29" width="1" height="1" style="fill: #423f4d;"/>
            <polygon points="28 27 28 26 28 25 27 25 27 26 27 27 27 28 27 29 28 29 28 28 29 28 29 27 28 27" style="fill: #423f4d;"/>
            <polygon points="13 34 13 33 12 33 12 32 12 31 11 31 11 32 11 33 11 34 12 34 12 35 13 35 14 35 14 34 13 34" style="fill: #423f4d;"/>
            <polygon points="16 36 15 36 15 37 16 37 17 37 17 36 16 36" style="fill: #423f4d;"/>
            <rect x="14" y="35" width="1" height="1" style="fill: #423f4d;"/>
          </g>
          <g>
            <polygon points="36 52 35 52 35 51 34 51 34 50 33 50 33 49 32 49 31 49 31 48 30 48 30 47 29 47 29 46 28 46 28 47 27 47 27 48 27 49 28 49 28 50 29 50 29 51 30 51 30 52 31 52 32 52 33 52 34 52 34 53 35 53 36 53 37 53 37 52 36 52" style="fill: #fff;"/>
            <rect x="9" y="32" width="1" height="1" style="fill: #fff;"/>
            <polygon points="24 54 23 54 23 53 22 53 22 52 21 52 21 53 21 54 20 54 20 55 20 56 20 57 21 57 22 57 23 57 23 56 24 56 25 56 25 55 24 55 24 54" style="fill: #fff;"/>
            <rect x="16" y="49" width="1" height="1" style="fill: #fff;"/>
            <polygon points="15 49 14 49 13 49 13 50 12 50 12 51 11 51 11 52 10 52 10 51 9 51 9 52 8 52 8 53 7 53 7 54 8 54 9 54 10 54 11 54 11 53 12 53 13 53 13 52 14 52 15 52 15 51 16 51 16 50 15 50 15 49" style="fill: #fff;"/>
            <rect x="8" y="33" width="1" height="1" style="fill: #fff;"/>
          </g>
        </g>
      </g>
      <g id="dondu-animation">
        <g id="dondu-default">
          <polygon points="70 53 70 52 70 51 69 51 69 50 68 50 68 49 69 49 69 48 69 47 69 46 69 45 69 44 69 43 69 42 69 41 69 40 69 39 68 39 68 38 67 38 67 37 66 37 66 36 65 36 64 36 64 35 63 35 62 35 61 35 61 34 60 34 60 33 59 33 58 33 57 33 57 34 57 35 56 35 56 36 55 36 54 36 54 37 53 37 53 38 52 38 52 39 51 39 51 40 51 41 50 41 50 42 50 43 50 44 50 45 50 46 50 47 50 48 50 49 51 49 51 50 51 51 50 51 50 52 50 53 49 53 49 54 49 55 49 56 49 57 49 58 50 58 51 58 51 57 52 57 52 56 53 56 53 57 53 58 53 59 54 59 54 60 55 60 55 61 56 61 57 61 58 61 59 61 60 61 61 61 62 61 63 61 64 61 65 61 65 60 66 60 66 59 67 59 67 58 67 57 67 56 68 56 68 57 69 57 69 58 70 58 71 58 71 57 71 56 71 55 71 54 71 53 70 53"/>
          <g>
            <polygon points="58 44 57 44 57 45 56 45 56 46 56 47 56 48 57 48 58 48 59 48 59 47 60 47 60 46 60 45 60 44 59 44 58 44" style="fill: #df8f5e;"/>
            <path d="M64,59v1h-3v-1h1v-1h1v1h1Zm-6-1h-1v1h-1v1h3v-1h-1v-1Z" style="fill: #df8f5e;"/>
          </g>
          <g>
            <polygon points="55 56 55 55 55 54 55 53 55 52 54 52 53 52 53 51 52 51 51 51 51 52 51 53 50 53 50 54 50 55 50 56 50 57 51 57 51 56 52 56 52 55 53 55 53 56 54 56 54 57 54 58 54 59 55 59 55 58 56 58 56 57 55 57 55 56" style="fill: #2e3034;"/>
            <polygon points="65 41 66 41 66 42 67 42 67 43 68 43 68 42 68 41 68 40 68 39 67 39 67 38 66 38 66 37 65 37 64 37 64 36 63 36 62 36 61 36 61 35 60 35 60 34 59 34 58 34 58 35 58 36 57 36 56 36 56 37 55 37 54 37 54 38 53 38 53 39 52 39 52 40 52 41 53 41 54 41 55 41 55 42 56 42 56 43 57 43 58 43 59 43 60 43 61 43 61 42 62 42 62 41 63 41 64 41 65 41" style="fill: #2e3034;"/>
            <polygon points="69 53 69 52 69 51 68 51 68 50 67 50 67 51 66 51 65 51 64 51 64 52 64 53 65 53 65 54 65 55 65 56 65 57 64 57 64 58 65 58 65 59 66 59 66 58 66 57 66 56 67 56 67 55 68 55 68 56 69 56 69 57 70 57 70 56 70 55 70 54 70 53 69 53" style="fill: #2e3034;"/>
            <rect x="51" y="41" width="1" height="1" style="fill: #2e3034;"/>
          </g>
          <polygon points="67 44 67 43 66 43 66 42 65 42 64 42 63 42 62 42 62 43 61 43 61 44 61 45 61 46 61 47 60 47 60 48 59 48 59 49 58 49 57 49 56 49 55 49 55 48 55 47 55 46 55 45 56 45 56 44 56 43 55 43 55 42 54 42 53 42 52 42 52 43 51 43 51 44 51 45 51 46 51 47 51 48 51 49 52 49 52 50 53 50 53 51 54 51 54 52 55 52 55 53 55 54 55 55 55 56 55 57 56 57 56 58 57 58 57 57 58 57 58 58 59 58 59 59 60 59 61 59 61 58 62 58 62 57 63 57 63 58 64 58 64 57 65 57 65 56 65 55 65 54 65 53 64 53 64 52 64 51 65 51 65 50 66 50 67 50 67 49 68 49 68 48 68 47 68 46 68 45 68 44 67 44" style="fill: #fff;"/>
          <polygon points="63 44 63 47 64 47 64 48 65 48 65 47 65 45 65 44 63 44"/>
          <polygon points="52 44 52 46 53 46 53 47 54 47 54 46 54 45 54 44 52 44"/>
          <path d="M68,47v2h-1v-2h1Zm-2,3h1v-1h-1v1Zm-2,1h1v-1h-1v1Zm-2,0v1h2v-1h-2Zm-3,7v1h2v-1h-2Zm0-6h1v-1h-6v1h1v5h1v1h1v-2h-1v-3h1v-1h2Zm-1,5v1h1v-1h-1Zm-5-7v1h1v-1h-1Zm-1-1v1h1v-1h-1Zm0-2v-3h1v-1h1v-1h-2v1h-1v6h1v-2Z" style="fill: #d3d5d6;"/>
          <path d="M60,35v2h-1v1h-1v2h-1v3h-1v-1h-1v-1h-3v-2h1v-1h1v-1h2v-1h2v-2h1v1h1Zm-9,7h1v-1h-1v1Z" style="fill: #232427;"/>
          <rect x="64" y="51" width="1" height="2" style="fill: #232427;"/>
          <rect x="64" y="57" width="1" height="1" style="fill: #232427;"/>
          <rect x="55" y="57" width="1" height="1" style="fill: #232427;"/>
          <rect x="65" y="53" width="1" height="4" style="fill: #232427;"/>
          <rect x="54" y="52" width="1" height="5" style="fill: #232427;"/>
        </g>
        <g id="dondu-blush">
          <polygon points="69 53 69 52 69 51 69 50 68 50 68 49 69 49 69 48 69 47 69 46 69 45 69 44 69 43 69 42 69 41 69 40 68 40 68 39 67 39 67 38 66 38 66 37 65 37 64 37 64 36 63 36 62 36 61 36 61 35 60 35 60 34 59 34 58 34 57 34 57 35 57 36 56 36 56 37 55 37 54 37 54 38 53 38 53 39 52 39 52 40 51 40 51 41 51 42 50 42 50 43 50 44 50 45 50 46 50 47 50 48 50 49 51 49 51 50 52 50 52 51 51 51 51 52 51 53 50 53 50 54 50 55 50 56 50 57 50 58 51 58 52 58 52 57 53 57 53 58 53 59 54 59 54 60 55 60 55 61 56 61 57 61 58 61 59 61 60 61 61 61 62 61 63 61 64 61 65 61 65 60 66 60 66 59 67 59 67 58 67 57 68 57 68 58 69 58 70 58 70 57 70 56 70 55 70 54 70 53 69 53"/>
          <g>
            <polygon points="58 45 57 45 57 46 56 46 56 47 56 48 56 49 57 49 58 49 59 49 59 48 60 48 60 47 60 46 60 45 59 45 58 45" style="fill: #df8f5e;"/>
            <path d="M64,59v1h-3v-1h1v-1h1v1h1Zm-6-1h-1v1h-1v1h3v-1h-1v-1Z" style="fill: #df8f5e;"/>
          </g>
          <polygon points="67 45 67 44 66 44 66 43 65 43 64 43 63 43 62 43 62 44 61 44 61 45 61 46 61 47 61 48 60 48 60 49 59 49 59 50 58 50 57 50 56 50 55 50 55 49 55 48 55 47 55 46 56 46 56 45 56 44 55 44 55 43 54 43 53 43 52 43 52 44 51 44 51 45 51 46 51 47 51 48 51 49 52 49 52 50 53 50 53 51 54 51 54 52 55 52 55 53 55 54 55 55 55 56 55 57 56 57 56 58 57 58 57 57 58 57 58 58 59 58 59 59 60 59 61 59 61 58 62 58 62 57 63 57 63 58 64 58 64 57 65 57 65 56 65 55 65 54 65 53 64 53 64 52 64 51 65 51 65 50 66 50 67 50 67 49 68 49 68 48 68 47 68 46 68 45 67 45" style="fill: #fff;"/>
          <path d="M52,45h2v1h1v1h-3v-2Zm11,2h3v-1h-1v-1h-2v2Z"/>
          <path d="M58,52h-1v1h-1v3h1v2h-1v-1h-1v-5h-1v-1h6v1h-2Zm-5-2v1h1v-1h-1Zm-1-1v1h1v-1h-1Zm0-2v-2h1v-1h1v-1h-2v1h-1v5h1v-2Zm6,10v1h1v-1h-1Zm1,1v1h2v-1h-2Zm7-8h1v-1h-1v1Zm-2,1h1v-1h-1v1Zm-2,0v1h2v-1h-2Zm5-3v1h1v-1h-1Z" style="fill: #d3d5d6;"/>
          <g>
            <polygon points="55 56 55 55 55 54 55 53 55 52 54 52 53 52 53 51 52 51 52 52 52 53 51 53 51 54 51 55 51 56 51 57 52 57 52 56 53 56 54 56 54 57 54 58 54 59 55 59 55 58 56 58 56 57 55 57 55 56" style="fill: #2e3034;"/>
            <polygon points="65 42 66 42 66 43 67 43 67 44 68 44 68 43 68 42 68 41 68 40 67 40 67 39 66 39 66 38 65 38 64 38 64 37 63 37 62 37 61 37 61 36 60 36 60 35 59 35 58 35 58 36 58 37 57 37 56 37 56 38 55 38 54 38 54 39 53 39 53 40 52 40 52 41 52 42 53 42 54 42 55 42 55 43 56 43 56 44 57 44 58 44 59 44 60 44 61 44 61 43 62 43 62 42 63 42 64 42 65 42" style="fill: #2e3034;"/>
            <polygon points="68 53 68 52 68 51 68 50 67 50 67 51 66 51 65 51 64 51 64 52 64 53 65 53 65 54 65 55 65 56 65 57 64 57 64 58 65 58 65 59 66 59 66 58 66 57 66 56 67 56 68 56 68 57 69 57 69 56 69 55 69 54 69 53 68 53" style="fill: #2e3034;"/>
            <rect x="51" y="42" width="1" height="1" style="fill: #2e3034;"/>
          </g>
          <path d="M60,36v2h-1v1h-1v2h-1v3h-1v-1h-1v-1h-3v-2h1v-1h1v-1h2v-1h2v-2h1v1h1Zm-9,7h1v-1h-1v1Zm14,8h-1v2h1v-2Zm0,6h-1v1h1v-1Zm-9,0h-1v1h1v-1Zm10-4h-1v4h1v-4Zm-11-1h-1v5h1v-5Z" style="fill: #232427;"/>
          <polygon points="68 32 68 33 67 33 67 32 66 32 66 34 67 34 67 35 68 35 68 34 69 34 69 32 68 32" style="fill: #f1d2d4;"/>
          <path d="M54,49h-2v-1h2v1Zm12-1h-2v1h2v-1Z" style="fill: #f1d2d4;"/>
        </g>
      </g>
      <g id="aurora-animation-cheatcode-type-aurora" class="aurora-hide">
        <g id="aurora-1">
          <g id="Layer_92" data-name="Layer 92">
            <path d="M80,30v9h-1v2h-1v2h-1v1h-1v1h-1v1h-1v1h-2v1h-2v1h-2v1h-2v1h-3v1h-4v1h-6v1h-7v1h-3v1h-1v3h1v1h1v1h5v1h2v1h1v1h-4v-1h-9v-1h-5v-1h-1v-1h-1v-1h-1v-1h-1v-1h-1v-5h1v-1h1v-1h1v-1h4v-1h7v-1h14v-1h4v-1h2v-1h1v-1h1v-1h1v-1h1v-5h-1v-1h-1v-1h-1v-1h-1v-1h-1v-1h-2v-1h-2v-1h-2v-1h-7v-1H23v-1h-4v-1h-3v-1h-3v-1h-1v-1h-1v-3h-1v-5h1v-3h1v-3h1v-1h1v-1h4v-1h22v1h5v1h3v1h3v1h6v-1h3v-1h1v-1h1v2h-1v1h-1v1h-2v1h-2v1h-2v1h-4v1H31v1h-2v1h-2v1h-1v4h1v1h3v1h19v-1h17v1h4v1h3v1h2v1h1v1h1v1h1v1h1v1h1Z" style="fill: #7fb; opacity: .6;"/>
          </g>
          <g id="Layer_91" data-name="Layer 91" style="opacity: .6;">
            <path d="M69,33v10h-1v1h-1v1h-1v1h-1v1h-2v1h-3v1h-16v1h-8v1h-3v1h-1v1h-1v2h1v2h1v1h1v1h2v-3h1v3h1v1h1v1h1v1h7v-1h1v-1h1v1h1v1h1v1h1v2h-4v-1h-9v-1h-5v-1h-4v-1h-2v-1h-1v-1h-1v-1h-1v-1h-1v-4h1v-1h1v-1h1v-2h2v-1h1v-1h1v-3h1v3h7v-1h3v-1h1v-1h2v-4h1v3h1v1h6v-1h1v-1h1v-4h-1v-1h-1v-1h-2v-1h-4v-1h-11v1h-4v1h-2v1h-11v-1h-4v-1h-2v-1h-2v-1h-1v-1h-1v-1h-1v-1h-1v-1h-1v-1h-1v-2h-1V14h1v-2h1v-1h1v-1h1v-1h1v-1h1v-1h2v-1h6v1h-2v1h-1v1h-1v2h-1v9h1v2h2v-2h1v-5h1v4h1v3h1v2h2v-1h1v1h1v-1h1v-4h1v5h1v1h1v1h5v-2h1v-8h1v7h1v3h3v-1h1v-1h1v-3h1v3h1v1h1v1h3v-1h2v-2h1v2h1v1h1v1h6v-1h1v2h1v1h3v-1h1v-4h1v4h1v3h1v1h1v1h1Zm-11-10v2h1v-3h-1v1Zm-18-9h6v1h9v-1h3v-1h1v-1h1v-1h1v-1h1v-1h1v-3h-2v2h-1v1h-1v-1h-1v-2h-1v3h-1v1h-1v1h-1v-2h-1V3h-1v6h-1v3h-1v1h-12v1h2ZM20,6h6v-1h-8v1h2Z" style="fill: #ff80ff;"/>
          </g>
          <g id="Layer_106" data-name="Layer 106">
            <path d="M30,19h-1v-1h1v1Zm-7-3h1v-1h1v-1h-1v-1h-1v1h-1v1h1v1Zm-9,13h-1v1h-1v1h1v1h1v-1h1v-1h-1v-1Zm63,1h-1v1h-1v1h1v1h1v-1h1v-1h-1v-1Zm5,8v1h1v-1h-1Zm-61,10h1v-1h-1v1Zm3-3h1v-1h-1v1Zm3,3h1v-1h-1v1Zm-2-2h-1v1h-1v1h1v1h1v-1h1v-1h-1v-1Zm-1,5h1v-1h-1v1Zm13,10h1v-1h-1v1Zm-7-6h-1v1h2v-1h-1Zm1,2v1h1v-2h-1v1Zm1-2v1h2v-1h-2Zm0-1v-1h-1v2h1v-1Zm8,0h1v-1h-1v1Zm3-3h1v-1h-1v1Zm-6,0h1v-1h-1v1Zm3-3h1v-1h-1v1Zm21-1h-1v1h-1v1h1v1h1v-1h1v-1h-1v-1Zm6-3v-2h-1v2h-2v1h2v2h1v-2h2v-1h-2Zm-16-3h1v-1h-1v1Zm3-3v1h1v-1h-1Zm0,5h1v-1h-1v1Zm5,0v-1h-1v1h1Zm2-2h1v-1h-1v1Zm-2,0h1v-1h-2v-1h-1v-2h-1v2h-1v1h-2v1h2v1h1v2h1v-2h1v-1h1Zm0-3h-1v1h1v-1Zm-3,8h1v-1h-1v1Zm1-11h-1v1h1v-1Z" style="fill: #fff;"/>
          </g>
        </g>
        <g id="aurora-2">
          <g id="Layer_93" data-name="Layer 93" style="opacity: .6;">
            <path d="M83,33v6h-1v2h-1v1h-1v1h-1v1h-1v1h-1v1h-1v1h-1v1h-1v1h-2v1h-3v1h-3v1h-20v1h-3v1h-2v1h-1v3h1v1h1v1h5v1h2v1h2v1h1v1h-4v-1h-9v-1h-5v-1h-1v-1h-1v-1h-1v-1h-1v-1h-1v-5h1v-1h1v-1h1v-1h4v-1h7v-1h14v-1h4v-1h2v-1h1v-1h1v-1h1v-1h1v-5h-1v-1h-1v-1h-1v-1h-1v-1h-1v-1h-2v-1h-2v-1h-2v-1h-7v-1H24v-1h-5v-1h-3v-1h-3v-1h-1v-1h-1v-3h-1v-5h1v-3h1v-3h1v-1h1v-1h1v-1h19v1h2v1h3v1h4v1h14v-1h3v-1h1v-1h1v2h-1v1h-1v1h-2v1h-2v1h-2v1h-4v1h-16v-1h-6v1h-3v1h-1v2h-1v2h1v2h1v1h3v1h21v-1h2v-1h7v-1h11v1h3v1h2v1h2v1h2v1h1v1h1v1h1v2h1v4h1Z" style="fill: #7fb;"/>
          </g>
          <g id="Layer_113" data-name="Layer 113">
            <g style="opacity: .6;">
              <polygon points="68 34 68 33 67 33 67 32 66 32 66 31 66 30 65 30 65 29 65 28 65 27 64 27 64 28 64 29 63 29 62 29 62 28 61 28 61 27 61 26 60 26 60 25 60 24 59 24 59 23 59 22 59 21 59 20 59 19 58 19 58 20 58 21 58 22 58 23 58 24 57 24 57 25 56 25 56 26 55 26 54 26 53 26 52 26 52 25 51 25 51 24 50 24 50 23 50 22 50 21 49 21 49 22 48 22 48 23 48 24 47 24 47 25 46 25 45 25 44 25 44 24 43 24 43 23 43 22 42 22 42 21 42 20 42 19 42 18 41 18 41 19 41 20 41 21 40 21 40 22 40 23 40 24 39 24 39 25 38 25 38 24 37 24 37 23 36 23 35 23 35 22 34 22 34 23 33 23 33 24 32 24 31 24 31 25 30 25 29 25 28 25 28 24 27 24 27 23 27 22 26 22 26 21 25 21 25 22 25 23 24 23 24 22 23 22 23 21 23 20 22 20 22 21 22 22 21 22 20 22 20 21 19 21 19 20 18 20 18 19 17 19 17 20 16 20 15 20 15 19 14 19 14 18 14 17 14 16 14 15 14 14 14 13 14 12 15 12 15 11 15 10 15 9 16 9 17 9 17 8 18 8 19 8 19 7 20 7 21 7 22 7 23 7 24 7 25 7 26 7 26 6 27 6 28 6 29 6 30 6 30 5 29 5 28 5 27 5 26 5 25 5 24 5 23 5 22 5 21 5 20 5 19 5 18 5 17 5 16 5 15 5 15 6 14 6 13 6 13 7 12 7 12 8 11 8 11 9 10 9 10 10 9 10 9 11 8 11 8 12 7 12 7 13 6 13 6 14 6 15 6 16 5 16 5 17 5 18 5 19 4 19 4 20 4 21 4 22 4 23 4 24 4 25 5 25 5 26 5 27 6 27 6 28 6 29 7 29 7 30 8 30 8 31 9 31 10 31 10 32 11 32 11 33 12 33 13 33 13 34 14 34 15 34 16 34 17 34 18 34 19 34 20 34 21 34 21 35 22 35 23 35 24 35 25 35 26 35 27 35 28 35 29 35 30 35 31 35 32 35 33 35 34 35 35 35 36 35 37 35 38 35 38 34 39 34 40 34 41 34 42 34 43 34 44 34 45 34 46 34 47 34 47 35 48 35 49 35 50 35 50 36 50 37 51 37 51 38 52 38 52 37 53 37 53 36 54 36 54 37 55 37 55 38 56 38 56 39 57 39 57 40 57 41 56 41 56 42 55 42 55 43 54 43 53 43 52 43 51 43 50 43 49 43 48 43 47 43 47 42 46 42 46 41 45 41 45 42 45 43 44 43 44 44 43 44 42 44 42 45 41 45 41 46 40 46 39 46 38 46 37 46 36 46 35 46 34 46 33 46 32 46 31 46 31 47 30 47 29 47 29 48 28 48 28 49 27 49 27 50 26 50 25 50 25 51 24 51 24 52 24 53 23 53 23 54 23 55 23 56 23 57 24 57 24 58 25 58 25 59 26 59 26 60 27 60 27 61 28 61 29 61 30 61 30 62 31 62 32 62 33 62 34 62 34 63 35 63 36 63 37 63 38 63 39 63 39 64 40 64 41 64 42 64 43 64 44 64 45 64 46 64 47 64 48 64 48 65 49 65 50 65 51 65 52 65 52 64 52 63 51 63 50 63 49 63 49 62 48 62 47 62 46 62 45 62 44 62 43 62 42 62 41 62 40 62 40 61 39 61 39 60 40 60 40 59 39 59 39 58 38 58 38 59 37 59 36 59 35 59 35 58 34 58 34 57 33 57 33 56 33 55 33 54 33 53 34 53 34 52 35 52 36 52 36 51 37 51 38 51 39 51 40 51 41 51 41 50 42 50 43 50 44 50 45 50 46 50 47 50 47 49 48 49 49 49 50 49 51 49 52 49 53 49 54 49 55 49 56 49 57 49 57 48 58 48 59 48 60 48 61 48 62 48 62 47 63 47 64 47 64 46 65 46 65 45 66 45 66 44 67 44 67 43 68 43 68 42 68 41 69 41 69 40 69 39 69 38 69 37 69 36 69 35 68 35 68 34" style="fill: #ff80ff;"/>
              <polygon points="65 24 65 23 65 22 64 22 64 23 64 24 64 25 65 25 65 24" style="fill: #ff80ff;"/>
              <polygon points="51 62 51 61 50 61 50 60 49 60 49 59 49 58 48 58 48 59 48 60 47 60 47 61 48 61 49 61 49 62 50 62 51 62" style="fill: #ff80ff;"/>
              <rect x="48" y="56" width="1" height="1" style="fill: #ff80ff;"/>
              <polygon points="46 38 46 37 45 37 45 38 45 39 46 39 46 38" style="fill: #ff80ff;"/>
              <rect x="34" y="15" width="1" height="1" style="fill: #ff80ff;"/>
              <polygon points="32 43 32 42 32 41 31 41 31 42 31 43 31 44 32 44 32 43" style="fill: #ff80ff;"/>
              <polygon points="25 16 25 17 25 18 25 19 26 19 26 18 26 17 26 16 26 15 25 15 25 16" style="fill: #ff80ff;"/>
              <polygon points="17 11 17 12 17 13 18 13 18 12 18 11 18 10 17 10 17 11" style="fill: #ff80ff;"/>
              <polygon points="53 1 53 0 52 0 52 1 52 2 53 2 53 1" style="fill: #ff80ff;"/>
              <polygon points="36 14 37 14 38 14 39 14 40 14 41 14 42 14 43 14 44 14 45 14 46 14 46 15 47 15 48 15 49 15 50 15 51 15 52 15 52 14 53 14 54 14 55 14 55 13 56 13 57 13 57 12 58 12 59 12 59 11 60 11 60 10 61 10 61 9 62 9 63 9 63 8 63 7 63 6 62 6 61 6 61 7 60 7 60 8 59 8 59 7 58 7 58 6 58 5 58 4 58 3 57 3 57 4 57 5 57 6 57 7 57 8 56 8 56 9 55 9 54 9 54 10 53 10 53 9 52 9 52 10 51 10 50 10 50 11 49 11 49 12 48 12 47 12 46 12 45 12 44 12 44 13 43 13 42 13 41 13 40 13 39 13 38 13 37 13 36 13 35 13 34 13 34 14 35 14 36 14" style="fill: #ff80ff;"/>
              <polygon points="30 15 31 15 31 16 32 16 32 15 33 15 33 14 32 14 32 13 31 13 31 14 30 14 30 15" style="fill: #ff80ff;"/>
              <rect x="27" y="18" width="1" height="1" style="fill: #ff80ff;"/>
              <polygon points="79 33 78 33 78 34 79 34 80 34 80 33 79 33" style="fill: #ff80ff;"/>
              <polygon points="81 32 81 31 80 31 80 32 80 33 81 33 81 32" style="fill: #ff80ff;"/>
              <polygon points="82 33 81 33 81 34 82 34 83 34 83 33 82 33" style="fill: #ff80ff;"/>
              <polygon points="30 46 30 45 29 45 29 44 28 44 28 45 27 45 27 46 28 46 28 47 29 47 29 46 30 46" style="fill: #ff80ff;"/>
              <rect x="64" y="49" width="1" height="1" style="fill: #ff80ff;"/>
              <rect x="70" y="39" width="1" height="1" style="fill: #ff80ff;"/>
              <rect x="51" y="39" width="1" height="1" style="fill: #ff80ff;"/>
              <polygon points="80 35 80 36 81 36 81 35 81 34 80 34 80 35" style="fill: #ff80ff;"/>
              <polygon points="26 11 27 11 27 10 26 10 26 9 25 9 25 8 24 8 24 9 23 9 23 10 22 10 22 11 23 11 23 12 24 12 24 13 25 13 25 12 26 12 26 11" style="fill: #ff80ff;"/>
              <rect x="48" y="36" width="1" height="1" style="fill: #ff80ff;"/>
              <rect x="76" y="27" width="1" height="1" style="fill: #ff80ff;"/>
              <polygon points="37 52 37 53 38 53 39 53 39 52 38 52 37 52" style="fill: #ff80ff;"/>
              <polygon points="35 55 35 56 36 56 36 55 36 54 35 54 35 55" style="fill: #ff80ff;"/>
            </g>
          </g>
          <g id="Layer_107" data-name="Layer 107">
            <path d="M80,33v1h-2v-1h2Zm0,2v1h1v-2h-1v1Zm2-2h-1v1h2v-1h-1Zm-1-1v-1h-1v2h1v-1Zm-5-4h1v-1h-1v1ZM10,30h1v-1h-1v1Zm3,3h1v-1h-1v1Zm3-3h1v-1h-1v1Zm-3-3h1v-1h-1v1Zm15,31h1v-1h-1v1Zm1-14h-1v1h-1v1h1v1h1v-1h1v-1h-1v-1Zm3,8v1h2v-1h-2Zm3-2v1h1v-2h-1v1Zm4,3v-1h-2v1h2Zm-4,2v1h1v-2h-1v1Zm4,3h-1v1h-1v1h1v1h1v-1h1v-1h-1v-1Zm25-8h1v-1h-1v1Zm3-7h1v-1h-1v1Zm3-3h1v-1h-1v1Zm-3-3h1v-1h-1v1Zm-3,3h1v-1h-1v1Zm-5,4v1h2v-1h-2Zm-1,2v1h1v-2h-1v1Zm-1-2h-1v1h2v-1h-1Zm2-1v-1h-1v2h1v-1Zm-7-8h-1v1h-1v1h1v1h1v-1h1v-1h-1v-1Zm2,2h1v-1h-1v1Zm-6,0h1v-1h-1v1Zm3,3h1v-1h-1v1Zm1-7h-1v1h1v-1Zm-25-14h1v-1h-1v1Zm5-3v-1h1v-1h-1v-1h-1v1h-1v1h1v1h1Zm-5-6h-1v-1h-1v-1h-1v1h-1v1h-1v1h1v1h1v1h1v-1h1v-1h1v-1Z" style="fill: #fff;"/>
          </g>
        </g>
        <g id="aurora-3">
          <g id="Layer_99" data-name="Layer 99" style="opacity: .6;">
            <path d="M80,35v9h-1v2h-1v1h-1v1h-1v1h-1v1h-2v1h-1v1h-2v1h-3v1h-15v-1h-3v-1h-3v1h-3v1h-1v3h1v1h1v1h1v1h2v1h2v1h2v1h1v1h-4v-1h-9v-1h-5v-1h-1v-1h-1v-1h-1v-1h-1v-1h-1v-5h1v-1h1v-1h1v-1h4v-1h7v-1h14v-1h4v-1h2v-1h1v-1h1v-1h1v-1h1v-5h-1v-1h-1v-1h-1v-1h-1v-1h-1v-1h-2v-1h-2v-1h-2v-1h-7v-1H24v-1h-5v-1h-3v-1h-3v-1h-1v-1h-1v-3h-1v-5h1v-3h1v-3h1v-1h1v-1h1v-1h3v-1h18v1h2v1h2v1h3v1h4v1h10v-1h3v1h-2v1h-2v1h-2v1h-3v1h-7v1h-10v-1h-6v1h-3v1h-1v2h-1v2h1v2h1v1h3v1h12v-1h7v-1h13v1h6v1h2v1h2v1h1v1h3v1h1v1h1v1h1v1h1v3h1v2h1ZM62,6h-1v1h1v-1Zm-1,1h-1v1h1v-1Z" style="fill: #7fb;"/>
          </g>
          <g id="Layer_98" data-name="Layer 98" style="opacity: .6;">
            <path d="M69,34v8h-1v2h-1v1h-1v1h-1v1h-2v1h-4v1h-14v1h-6v1h-4v1h-2v1h-1v3h1v2h3v-2h1v3h1v1h1v1h4v1h4v-1h1v-1h1v1h1v1h1v1h1v2h-4v-1h-9v-1h-5v-1h-4v-1h-3v-1h-2v-1h-1v-1h-1v-1h-1v-4h1v-2h1v-1h1v-1h3v-1h2v-2h1v-2h1v3h4v-1h6v-1h2v-1h1v-3h1v2h1v1h2v1h6v-1h2v-1h1v-1h1v-2h1v-3h-1v-1h-1v-1h-1v-1h-4v-1h-17v1h-2v1h-5v1h-4v1h-8v-1h-4v-1h-2v-1h-1v-1h-1v-1h-1v-1h-1v-1h-1v-1h-1v-3h-1v-9h1v-3h1v-2h1v-2h1v-1h1v-1h1v-1h2v-1h3v-1h3v-1h4v1h-1v1h-3v1h-2v1h-1v1h-1v4h-1v5h1v2h1v1h1v-1h1v-1h1v-2h1v3h1v1h1v-2h1v-3h1v4h1v1h1v-2h1v3h1v1h1v1h4v-1h1v-1h1v-3h1v2h1v2h1v1h2v-1h1v-1h1v-1h1v1h1v3h1v1h3v-1h1v-3h1v-4h1v6h1v1h3v1h3v-1h1v-1h1v1h1v2h1v2h2v-1h1v-1h1v2h1v2h1v1h1v2h1Zm-4-14h-1v1h1v-1Zm-7-1h1v-1h-1v1Zm0-18V0h-1V2h1V1Zm-17,16h1v-1h-1v1Zm-2-3h13v-1h3v-1h2v-1h2v-1h2v-1h1v-1h1v-2h-1v1h-1v1h-1v1h-1v-1h-1v-3h-1v4h-1v1h-2v-1h-1v-2h-1v3h-1v1h-1v1h-6v1h-7v1h2Z" style="fill: #ff80ff;"/>
          </g>
          <g id="Layer_109" data-name="Layer 109">
            <path d="M34,54h1v1h-1v-1Zm-5-5h-1v1h-1v1h1v1h1v-1h1v-1h-1v-1Zm25-4h1v-1h-1v1Zm11-6h-2v1h2v-1Zm-4-2v1h1v-2h-1v1Zm-3,2v1h2v-1h-2Zm3,3v1h1v-2h-1v1Zm6,1h-1v1h-1v1h1v1h1v-1h1v-1h-1v-1Zm14,1v1h1v-2h-1v1Zm3-3h-1v1h2v-1h-1Zm-6,0v1h2v-1h-2Zm3-2v1h1v-2h-1v1Zm3-6h-1v1h1v-1Zm-9,6h1v-1h-1v1Zm0-5h1v-1h-1v1Zm6-6h-1v1h1v-1Zm-11,1h1v-1h-1v1Zm8,0h1v-1h-2v-1h-1v-2h-1v2h-1v1h-2v1h2v1h1v2h1v-2h1v-1h1Zm0,2v-1h-1v1h1Zm-5,0h1v-1h-1v1Zm0-5v1h1v-1h-1Zm5,0h-1v1h1v-1Zm-2-3h-1v1h1v-1Zm-21,8h-1v1h-1v1h1v1h1v-1h1v-1h-1v-1Zm-43-2h1v-1h-1v1Zm9,2v-2h-1v2h-2v1h2v2h1v-2h2v-1h-2Zm8-15h-1v1h-1v1h1v1h1v-1h1v-1h-1v-1Zm6-3v-2h-1v2h-2v1h2v2h1v-2h2v-1h-2ZM25,4h-1v1h1v-1Zm-5,5h-1v1h1v-1Zm4,6h1v-1h-1v1Zm5-5h1v-1h-1v1Zm-2-3h-1v1h1v-1Zm-5,0v1h1v-1h-1Zm0,5h1v-1h-1v1Zm5,0v-1h-1v1h1Zm0-2h1v-1h-2v-1h-1v-2h-1v2h-1v1h-2v1h2v1h1v2h1v-2h1v-1h1Z" style="fill: #fff;"/>
          </g>
        </g>
        <g id="aurora-4">
          <g id="Layer_102" data-name="Layer 102" style="opacity: .6;">
            <path d="M80,30v9h-1v2h-1v2h-1v1h-1v1h-1v1h-1v1h-2v1h-2v1h-2v1h-2v1h-3v1h-4v1h-11v-1h-6v1h-2v1h-1v4h1v1h1v1h3v1h5v1h2v1h1v1h-4v-1h-9v-1h-5v-1h-1v-1h-1v-1h-1v-1h-1v-1h-1v-5h1v-1h1v-1h1v-1h4v-1h7v-1h14v-1h4v-1h2v-1h1v-1h1v-1h1v-1h1v-5h-1v-1h-1v-1h-1v-1h-1v-1h-1v-1h-2v-1h-2v-1h-2v-1h-7v-1H25v-1h-6v-1h-3v-1h-3v-1h-1v-1h-1v-3h-1v-5h1v-3h1v-3h1v-1h1v-1h4v-1h22v1h5v1h3v1h3v1h6v-1h3v-1h1v-1h1v2h-1v1h-1v1h-2v1h-2v1h-2v1h-4v1H31v1h-2v1h-2v1h-1v4h1v1h3v1h19v-1h17v1h4v1h3v1h2v1h1v1h1v1h1v1h1v1h1Z" style="fill: #7fb;"/>
          </g>
          <g id="Layer_101" data-name="Layer 101" style="opacity: .6;">
            <path d="M69,33v10h-1v1h-1v1h-1v1h-1v1h-2v1h-4v1h-15v1h-8v1h-3v1h-1v5h1v1h1v1h2v-3h1v3h1v1h1v1h1v1h7v-1h1v-1h1v1h1v1h1v1h1v2h-4v-1h-9v-1h-5v-1h-4v-1h-2v-1h-2v-1h-1v-2h-1v-5h1v-1h1v-2h1v-1h1v-1h11v-1h3v-1h1v-1h2v-4h1v3h1v1h6v-1h2v-1h1v-1h1v-2h-1v-1h-2v-1h-1v-1h-1v-1h-2v-1h-6v-1h-13v1h-3v1h-5v1H15v-1h-2v-1h-2v-1h-1v-1h-1v-1h-1v-1h-1v-1h-1v-1h-1v-2h-1V14h1v-1h1v-1h1v-1h1v-1h1v-1h1v-1h2v-1h1v-1h5v-1h8v1h-7v1h-3v1h-1v1h-1v2h-1v9h1v2h2v-2h1v-5h1v4h1v3h1v2h2v-1h1v1h1v-1h1v-4h1v5h1v1h1v1h5v-2h1v-8h1v7h1v3h3v-1h1v-1h1v-3h1v3h1v1h1v1h3v-1h2v-2h1v2h1v1h1v1h6v-1h1v2h1v1h3v-1h1v-4h1v4h1v3h1v1h1v1h1Zm-11-10v2h1v-3h-1v1Zm-18-9h6v1h9v-1h3v-1h1v-1h1v-1h1v-1h1v-1h1v-3h-2v2h-1v1h-1v-1h-1v-2h-1v3h-1v1h-1v1h-1v-2h-1V3h-1v6h-1v3h-1v1h-12v1h2Z" style="fill: #ff80ff;"/>
          </g>
          <g id="Layer_110" data-name="Layer 110">
            <path d="M31,49h-1v1h-1v1h-1v-1h-1v-1h-1v-1h1v-1h1v-1h1v1h1v1h1v1Zm0,8h1v-1h-1v1Zm5-6h-1v1h-1v1h1v1h1v-1h1v-1h-1v-1Zm46-13v1h1v-1h-1Zm-5-3h1v-1h-1v1Zm3-3h1v-1h-1v1Zm-2-4h-1v1h1v-1Zm0,2h-1v1h-1v1h1v1h1v-1h1v-1h-1v-1Zm-4,2h1v-1h-1v1Zm-10,9h1v-1h-1v1Zm-5-6h-1v1h-1v1h1v1h1v-1h1v-1h-1v-1ZM13,25h-1v1h-1v1h1v1h1v-1h1v-1h-1v-1Zm6,5v1h2v-1h-2Zm3,3v1h1v-2h-1v1Zm4-3h-2v1h2v-1Zm-4-2v1h1v-2h-1v1Zm10-8h1v-1h-1v1Zm4-8h-1v1h1v-1Zm2-2h1v-1h-1v1Zm-2-4h-1v1h1v-1Zm-4,4h1v-1h-1v1Zm-6,6v1h1v-2h-1v1Zm2-1h1v-1h-2v1h1Zm-2,0v-1h-2v1h2Zm1-2v-1h-1v2h1v-1Zm-7-4h-1v1h1v-1Zm-4-2h1v-1h-1v1Zm6,0h1v-1h-1v1Zm-2-4h-1v1h1v-1Zm0,2h-1v1h-1v1h1v1h1v-1h1v-1h-1v-1Z" style="fill: #fff;"/>
          </g>
        </g>
        <g id="aurora-5">
          <g id="Layer_105" data-name="Layer 105" style="opacity: .6;">
            <path d="M83,33v6h-1v2h-1v1h-1v1h-1v1h-1v1h-1v1h-1v1h-1v1h-1v1h-2v1h-3v1h-3v1h-19v1h-3v1h-2v1h-2v2h-1v2h1v1h2v1h7v1h2v1h1v1h-4v-1h-9v-1h-5v-1h-1v-1h-1v-1h-1v-1h-1v-1h-1v-5h1v-1h1v-1h1v-1h4v-1h7v-1h14v-1h4v-1h2v-1h1v-1h1v-1h1v-1h1v-5h-1v-1h-1v-1h-1v-1h-1v-1h-1v-1h-2v-1h-2v-1h-2v-1h-7v-1H25v-1h-6v-1h-3v-1h-3v-1h-1v-1h-1v-3h-1v-5h1v-3h1v-3h1v-1h1v-1h4v-1h16v1h2v1h3v1h4v1h14v-1h3v-1h1v-1h1v2h-1v1h-1v1h-2v1h-2v1h-2v1h-4v1h-16v-1h-6v1h-3v1h-1v2h-1v2h1v2h1v1h3v1h21v-1h2v-1h7v-1h11v1h3v1h2v1h2v1h2v1h1v1h1v1h1v2h1v4h1Z" style="fill: #7fb;"/>
          </g>
          <g id="Layer_103" data-name="Layer 103" style="opacity: .6;">
            <path d="M69,35v5h-1v3h-1v1h-1v1h-1v1h-1v1h-2v1h-5v1h-10v1h-7v1h-4v1h-2v1h-1v4h1v1h1v1h2v1h2v1h1v1h6v-1h1v-1h1v-2h1v2h1v1h1v2h1v2h-4v-1h-9v-1h-5v-1h-4v-1h-2v-1h-1v-1h-1v-1h-1v-1h-1v-4h1v-1h1v-2h1v-1h1v-1h1v-1h2v-1h10v-1h1v-1h2v-1h1v-2h1v1h1v1h6v-1h1v-4h-1v-1h-3v-1h-2v-1h-13v1h-2v1h-1v1h-2v1h-4v1h-5v-1h-4v-1h-3v-1h-3v-1h-1v-1h-1v-2h-1v-1h-1v-1h-1v-3h-1v-2h-1v-6h1v-4h1v-2h1v-2h1v-1h1v-1h1v-1h1v-1h1v-1h2v1h2v-1h-2v-1h4v-1h12v1h-4v1h-7v1h-2v1h-2v3h-1v7h1v1h2v-1h1v1h1v1h1v1h2v-2h1v2h1v1h1v-2h1v1h1v2h1v1h3v-1h2v-1h1v-1h1v1h2v1h1v1h1v-1h1v-3h1v-3h1v4h1v2h1v1h3v-1h1v-2h1v-1h1v3h1v1h1v1h4v-1h1v-1h1v-5h1v5h1v2h1v2h1v1h2v-2h1v3h1v2h1v1h1v2h1Zm-4-11v-2h-1v3h1v-1ZM53,1V0h-1V2h1V1Zm-5,56h1v-1h-1v1Zm-2-19v-1h-1v2h1v-1Zm-10,20h1v-1h-1v1Zm1-4v-1h-1v2h1v-1Zm-1-40h10v1h9v-1h3v-1h1v-1h1v-1h1v-1h1v-1h1v-3h-2v1h-1v1h-1v-1h-1V3h-1v5h-1v1h-2v1h-1v-1h-1v1h-2v1h-1v1h-5v1h-10v1h2Zm-4,29v-2h-1v3h1v-1Zm-7-27v3h1v-4h-1v1Zm-8-5v2h1v-3h-1v1Z" style="fill: #ff80ff;"/>
          </g>
          <g id="Layer_111" data-name="Layer 111">
            <path d="M35,55h1v1h-1v1h-1v-1h-1v-1h1v-1h1v1Zm6-4v-2h-1v2h-2v1h2v2h1v-2h2v-1h-2Zm-8-3h1v-1h-2v-1h-1v-2h-1v2h-1v1h-2v1h2v1h1v2h1v-2h1v-1h1Zm-5-3v1h1v-1h-1Zm-3,3h1v-1h-1v1Zm3,2h1v-1h-1v1Zm2,3h1v-1h-1v1Zm3-3v-1h-1v1h1Zm2-2h1v-1h-1v1Zm-2-3h-1v1h1v-1Zm-2-3h-1v1h1v-1Zm34,3h1v-1h-1v1Zm13-16v1h1v-1h-1Zm-8,10h-1v1h-1v1h1v1h1v-1h1v-1h-1v-1Zm-5-3h-1v-1h-1v-1h-1v1h-1v1h-1v1h1v1h1v1h1v-1h1v-1h1v-1ZM11,29h1v-1h-1v1Zm11,1h1v-1h-1v1Zm-3,3h1v-1h-1v1Zm-3-3h1v-1h-1v1Zm3-3h1v-1h-1v1Zm13-11h1v1h1v-1h1v-1h-1v-1h-1v1h-1v1Zm-10-1h-1v1h1v-1Zm7-2v-1h-1v2h1v-1Zm3-2v-1h-2v1h2Zm-5-1h-2v1h2v-1Zm2-2v-1h-1v2h1v-1Zm-7-6h-1v1h-1v1h1v1h1v-1h1v-1h-1v-1Z" style="fill: #fff;"/>
          </g>
        </g>
      </g>
      <g id="farming-stats">
<text id="farming-name" filter="url(#stats-name)" font-weight="normal" fill="black" x="0" y="9">
    tundra #5384
</text>
<text id="farming-coords" filter="url(#stats-coords)" fill="black" x="0" y="16.5">
    XY 1144
</text>
<text id="farming-fc" filter="url(#stats-fc)" fill="black" x="0" y="24">
    FC: 0
</text>
</g>
<a href="https://clumsylabs.io" id="valley-url" target="_blank" class="button full-version">
    <path class="button-bg" d="M12,74h21v11H12V74z"/>
    <path fill="#FFF" d="M19,81h1v1h-2v-5h6v3h-1v-2h-4V81z M26,77h-1v1h1v3h-4v-2h-1v3h6v-5H26z M30,76h-1v1h1v5h-1v1h2v-7H30z M14,76
		v7h2v-1h-1v-5h1v-1H14z"/>
    <title>Visit in Clumsy Valley</title>
  </a>
  <a href="https://assets.clumsylabs.io/land/png/ClumsyValleyLandPlot5384.png" id="png-url" target="_blank" class="button png-square">
    <path class="button-bg" d="M38,74h13v11H38V74z"/>
    <path fill="#FFF" d="M49,76v7h-2v-1h1v-5h-1v-1H49z M40,76v7h2v-1h-1v-5h1v-1H40z M46,80h1v-1h-1V80z M42,79v1h1v-1H42z M45,79v-2
		h-1v3h-1v1h1v1h1v-1h1v-1h-1V79z"/>
    <title>Download square PNG</title>
  </a>
  <a href="https://assets.clumsylabs.io/land/ipfs/ClumsyValleyLandPlot5384.svg" id="svg-url" target="_blank" class="button svg">
    <path class="button-bg" d="M56,74h20v11H56V74z"/>
    <path fill="#FFF" d="M72,79v2h-1v-1h-1v-1H72z M69,81v1h2v-1H69z M69,79v-1h-1v3h1V79z M71,78v-1h-2v1H71z M66,78v3h1v-4h-1V78z
		 M65,82h1v-1h-1V82z M65,79v-2h-1v4h1V79z M63,81v-1h-1v1H63z M62,80v-1h-1v1H62z M61,77v1h2v-1H61z M60,81v1h2v-1H60z M60,79h1v-1
		h-1V79z M73,76h-1v1h1v5h-1v1h2v-7H73z M58,76v7h2v-1h-1v-5h1v-1H58z"/>
    <title>Download SVG</title>
  </a>
  <script type="text/javascript">
    <![CDATA[
    let landRoot = document.getElementById('ClumsyValleyLandPlot');
    let landBase = document.getElementById('tundra-base');
    let farmingNameId = document.getElementById('farming-name');
    let farmingCoordsId = document.getElementById('farming-coords');
    let farmingFCId = document.getElementById('farming-fc');

    let audioValley = "";
    let audioTheme = "";

    // valley-url
    let valleyURL = document.getElementById('valley-url');

    if (valleyURL) {
      valleyURL.addEventListener('click', () => {
        let clickUrlAudio = new Audio("https://assets.clumsylabs.io/land/audio/generic/clumsy-valley-click3.mp3");
        clickUrlAudio.volume = 0.6;
        clickUrlAudio.play();
      });
    };

    // png-url
    let pngURL = document.getElementById('png-url');

    if (pngURL) {
      pngURL.addEventListener('click', () => {
        let clickUrlAudio = new Audio("https://assets.clumsylabs.io/land/audio/generic/clumsy-valley-click3.mp3");
        clickUrlAudio.volume = 0.6;
        clickUrlAudio.play();
      });
    };

    // svg-url
    let svgURL = document.getElementById('svg-url');

    if (svgURL) {
      svgURL.addEventListener('click', () => {
        let clickUrlAudio = new Audio("https://assets.clumsylabs.io/land/audio/generic/clumsy-valley-click3.mp3");
        clickUrlAudio.volume = 0.6;
        clickUrlAudio.play();
      });
    };

    // tree animation
    let tree = document.getElementById('tree-animated');
    let treeDefault = document.getElementById('tree-default');
    let treeAnimated = document.getElementById('tree-snowfall');

    if (tree) {
      tree.addEventListener('click', () => {
        let treeAudio = new Audio("https://assets.clumsylabs.io/land/audio/generic/clumsy-valley-click3.mp3");
        treeAudio.volume = 0.6;
        treeAudio.play();

        treeDefault.classList.toggle('activate');
        treeAnimated.classList.toggle('activate');

        setTimeout(() => {
          treeDefault.classList.remove('activate');
          treeAnimated.classList.remove('activate');
        }, 3000);
      });
    };

    // lumi animation
    let lumi = document.getElementById('lumi-animation-click');
    let lumiDefault = document.getElementById('lumi-animation1');
    let lumiAnimated = document.getElementById('lumi-animation2');

    if (lumi) {
      lumi.addEventListener('click', () => {
        let lumiAudio = new Audio("https://assets.clumsylabs.io/land/audio/generic/clumsy-valley-click3.mp3");
        lumiAudio.volume = 0.6;
        lumiAudio.play();

        lumiDefault.classList.toggle('activate');
        lumiAnimated.classList.toggle('activate');

        setTimeout(() => {
          lumiDefault.classList.remove('activate');
          lumiAnimated.classList.remove('activate');
        }, 2000);
      });
    };

    // dondu animation
    let dondu = document.getElementById('dondu-animation');
    let donduDefault = document.getElementById('dondu-default');
    let donduAnimated = document.getElementById('dondu-blush');

    if (dondu) {
      dondu.addEventListener('click', () => {
        let donduAudio = new Audio("https://assets.clumsylabs.io/land/audio/generic/clumsy-valley-click3.mp3");
        donduAudio.volume = 0.6;
        donduAudio.play();

        donduDefault.classList.toggle('activate');
        donduAnimated.classList.toggle('activate');

        setTimeout(() => {
          donduDefault.classList.remove('activate');
          donduAnimated.classList.remove('activate');
        }, 500);
      });
    };

    let landBaseEL = false;
    let cheatcodeEL = false;
    let farmingFCIdEL = false;
    let ghostEL = false;

    if (landBase && landRoot) {

      var visible = false;
      var cheatCodesVisible = false;

      if (!landBaseEL) {
        landBaseEL = true;
        landBase.addEventListener('click', () => {
          let genericClickAudio = new Audio("https://assets.clumsylabs.io/land/audio/generic/clumsy-valley-click3.mp3");
          genericClickAudio.volume = 0.6;
          genericClickAudio.play();

          landRoot.classList.toggle('menu-in');

          var getName, getCoords, getFC;
          var farmingName, farmingCoords, farmingFC;
          farmingFC = document.getElementById('farming-fc');

          if (!visible) {
            fetch('https://internal.clumsylabs.io/api/v1/metadata/land/5384')
            .then(response => response.json())
            .then(json => {

              // Return values from internal clumsy api
              getName = json["name"]
              getCoords = json["coords"]
              getFC = json["fc"]
              getLink = json["link"]
              getTrack = json["track"]
              getTheme = json["theme"]
              getGhost = json["ghost"]

              if (getGhost) {
                var bigGhost = false;
                let ghost = document.getElementById('ghost');
                if (ghost) {
                  ghost.setAttribute("href", getGhost);
                  ghost.setAttribute("opacity", "1");

                  if (!ghostEL) {
                    ghostEL = true;
                    ghost.addEventListener('click', () => {
                      let genericClickAudio = new Audio("https://assets.clumsylabs.io/land/audio/generic/clumsy-valley-click3.mp3");
                      genericClickAudio.volume = 0.6;
                      genericClickAudio.play();

                      if (!bigGhost) {
                        bigGhost = true;
                        ghost.setAttribute("href", getGhost);
                        ghost.setAttribute("opacity", "1");
                        ghost.setAttribute("height", "70");
                        ghost.setAttribute("width", "70");
                        ghost.setAttribute("x", "10");
                        ghost.setAttribute("y", "-8");
                      } else {
                        bigGhost = false;
                        ghost.setAttribute("height", "20");
                        ghost.setAttribute("width", "20");
                        ghost.setAttribute("x", "70");
                        ghost.setAttribute("y", "3");
                      }
                  })}
                };
              }

              if (getName) {
                farmingName = document.getElementById('farming-name');
                farmingName.innerHTML = getName;
                console.log("Name: ", getName)
              }

              if (getCoords) {
                farmingCoords = document.getElementById('farming-coords');
                farmingCoords.innerHTML = getCoords;
                console.log("Coordinates: ", getCoords)
              }

              if (getFC) {
                farmingFC.innerHTML = "FC: " + getFC;
                console.log("Farming cycles completed: ", getFC)

                if (getFC >= 1 && getFC <= 9) {
                  console.log("Tier 1 Land")
                  farmingFC.classList.add('tier1');
                } else if (getFC >= 10 && getFC <= 29) {
                  console.log("Tier 2 Land")
                  farmingFC.classList.add('tier2');
                } else if (getFC >= 30 && getFC <= 49) {
                  console.log("Tier 3 Land")
                  farmingFC.classList.add('tier3');
                } else if (getFC >= 50 && getFC <= 99) {
                  console.log("Tier 4 Land")
                  farmingFC.classList.add('tier4');
                } else if (getFC >= 100) {
                  console.log("Tier 5 Land")
                  farmingFC.classList.add('tier5');
                } else {
                  console.log("Tier 0 Land")
                }
              } else {
                getFc = 0;
              }

              if (getLink) {
                let valleyUrl = document.getElementById('valley-url');
                valleyUrl.setAttribute("href", getLink);
                console.log("Valley link: ", getLink)
              }

            })
            .catch(error => {
              getName = "";
              getCoords = "";
              getFC = 0;
              getLink = "";
              getTrack = "";
              getTheme = "";
              getGhost = "";
            });
          }

          if (!farmingFCIdEL) {
            farmingFCIdEL = true;
            farmingFCId.addEventListener('click', () => {
              cheatCodesVisible = true

              if (cheatCodesVisible) {
                let cheatCodeAudio = new Audio("https://assets.clumsylabs.io/land/audio/generic/cheatcodeactivated.mp3");
                cheatCodeAudio.volume = 1;
                cheatCodeAudio.play();

                farmingFC.innerHTML = "Cheat Codes Activated..."
                farmingFC.setAttribute("filter", "url(#stats-cheatcode)");
                let bufferArray = [];
                let lastKeystrokeTime = Date.now();
                const cheatcode = (e) => {
                  
                  const latestKeystrokeTime = Date.now();
                  if (latestKeystrokeTime - lastKeystrokeTime > 5000) {
                    if (getFC) {
                      farmingFC.innerHTML = "FC: " + getFC;
                    } else {
                      farmingFC.innerHTML = "FC: ";
                    }
                    farmingFC.setAttribute("filter", "url(#stats-fc)");
                    bufferArray = [];
                  }

                  if (e.key == "ArrowUp") {
                    key = '';
                  } else if (e.key == "ArrowDown") {
                    key = '';
                  } else if (e.key == "ArrowLeft") {
                    key = '';
                  } else if (e.key == "ArrowRight") {
                    key = '';
                  } else if (e.key.length == 1) {
                    key = e.key;
                  } else {
                    key = ""
                  }
                  
                  // each key press either adds or removes a char
                  if (e.key == "Backspace") {
                    bufferArray = bufferArray.slice(0, -1);
                  } else if (bufferArray.length < 12 && key != "") {
                    bufferArray.push(key);
                  }

                  farmingFC.innerHTML = bufferArray.join("")

                  const word = bufferArray.join('');
                  if (word === 'disco') { /* DISCO */
                    cheatCodeAudio.play();
                    console.log('Clumsy Valley Party!');

                    landRoot.classList.add('party');
                    clearListener();

                    setTimeout(() => {
                      landRoot.classList.remove('party');
                    }, 10000);
                  } else if (word == 'ab') { /* CODE */
                    cheatCodeAudio.play();
                    console.log('Nonstop Party!!!');

                    landRoot.classList.add('party');
                    clearListener();
                  } else if (word === 'rgb') { /* RGB */
                    cheatCodeAudio.play();

                    landBase.classList.add('party');
                    clearListener();

                    setTimeout(() => {
                      landBase.classList.remove('party');
                    }, 10000);
                  } else if (word === 'yeti') { /* YETI */
                    let igloo = document.getElementById('igloo-animation');
                    if (igloo) {
                      cheatCodeAudio.play();
                      let iglooAudio = new Audio("https://assets.clumsylabs.io/land/audio/generic/clumsy-valley-click3.mp3");
                      iglooAudio.volume = 0.6;
                      iglooAudio.play();

                      // igloo animation
                      let igloo1 = document.getElementById('igloo1-click-to-animate');
                      let igloo2 = document.getElementById('igloo2');
                      let igloo3 = document.getElementById('igloo3');
                      let igloo4 = document.getElementById('igloo4');

                      igloo1.classList.add('igloo1');
                      igloo2.classList.add('igloo2');
                      igloo3.classList.add('igloo3');
                      igloo4.classList.add('igloo4');
                      
                      clearListener();

                      setTimeout(() => {
                        igloo1.classList.remove('igloo1');
                        igloo2.classList.remove('igloo2');
                        igloo3.classList.remove('igloo3');
                        igloo4.classList.remove('igloo4');
                      }, 1200);
                    }
                  } else if (word === 'aurora') { /* AURORA */
                    cheatCodeAudio.play();

                    let auroraId = document.getElementById('aurora-animation-cheatcode-type-aurora');
                    let aurora1 = document.getElementById('aurora-1');
                    let aurora2 = document.getElementById('aurora-2');
                    let aurora3 = document.getElementById('aurora-3');
                    let aurora4 = document.getElementById('aurora-4');
                    let aurora5 = document.getElementById('aurora-5');

                    auroraId.classList.remove('aurora-hide');
                    aurora1.classList.remove('aurora-hide');
                    aurora2.classList.remove('aurora-hide');
                    aurora3.classList.remove('aurora-hide');
                    aurora4.classList.remove('aurora-hide');
                    aurora5.classList.remove('aurora-hide');

                    aurora1.classList.add('aurora-1');
                    aurora2.classList.add('aurora-2');
                    aurora3.classList.add('aurora-3');
                    aurora4.classList.add('aurora-4');
                    aurora5.classList.add('aurora-5');

                    clearListener();

                    setTimeout(() => {
                      auroraId.classList.add('aurora-hide');
                      aurora1.classList.add('aurora-hide');
                      aurora2.classList.add('aurora-hide');
                      aurora3.classList.add('aurora-hide');
                      aurora4.classList.add('aurora-hide');
                      aurora5.classList.add('aurora-hide');
                      
                      aurora1.classList.remove('aurora-1');
                      aurora2.classList.remove('aurora-2');
                      aurora3.classList.remove('aurora-3');
                      aurora4.classList.remove('aurora-4');
                      aurora5.classList.remove('aurora-5');
                    }, 8000);
                  } else if (word === 'hideme') { /* HIDEME */
                    cheatCodeAudio.play();
                    let items = ["snow-shrooms1", "snow-shrooms2", "snow-shrooms3", "grass1", "grass2", "grass3", "grass4", "snow-twig3",
                      "snow-twig2", "igloo-animation", "snowglobe-animation-loop", 
                      "iceblock", "iceblock_copy", "berry-twig", "mountain-1", "tree-animated", "tree-stump", "campfire-animation-loop",
                      "snow-carrot", "coins", "fishtail", "sword", "viking-helmet", "lumi-animation-click", "skull", "dondu-animation",
                      "chest", "log", "black-ice", "aurora-animation-cheatcode-type-aurora"]

                    for (let i = 0; i< items.length; i++) {
                      let item = document.getElementById(items[i]);
                      if (item) {
                        item.setAttribute("opacity", "0");
                      }
                    }

                    clearListener();

                    setTimeout(() => {
                      for (let i = 0; i< items.length; i++) {
                        let item = document.getElementById(items[i]);
                        if (item) {
                          item.setAttribute("opacity", "1");
                        }
                      }
                    }, 5000);
                  } else if (word === 'usetheforce') { /* USETHEFORCE */
                    cheatCodeAudio.play();
                    let items = ["snow-shrooms1", "snow-shrooms2", "snow-shrooms3", "grass1", "grass2", "grass3", "grass4", "snow-twig3",
                      "snow-twig2", "igloo-animation", "snowglobe-animation-loop", 
                      "iceblock", "iceblock_copy", "berry-twig", "mountain-1", "tree-animated", "tree-stump", "campfire-animation-loop",
                      "snow-carrot", "coins", "fishtail", "sword", "viking-helmet", "lumi-animation-click", "skull", "dondu-animation",
                      "chest", "log", "black-ice"]

                    for (let i = 0; i< items.length; i++) {
                      let item = document.getElementById(items[i]);
                      if (item) {
                        let randomnum = Math.floor(Math.random() * (60 - 10) + 10) / 10;
                        item.style.animation = "cg-anim-antigrav 4s linear " + randomnum + "s infinite";
                      }
                    }

                    clearListener();

                    setTimeout(() => {
                      for (let i = 0; i< items.length; i++) {
                        let item = document.getElementById(items[i]);
                        if (item) {
                          item.style.animation = "";
                        }
                      }
                    }, 30000);
                  } else if (word == 'valley') { /* VALLEY */
                    cheatCodeAudio.play();
                    if (audioValley) {
                      audioValley.currentTime = 0;
                      audioValley.play();
                    } else if (getTrack) {
                      audioValley = new Audio(getTrack);
                      audioValley.volume = 0.4;
                      audioValley.play();
                    }
                    clearListener();
                  } else if (word == 'theme') { /* THEME */
                    cheatCodeAudio.play();
                    if (audioTheme) {
                      audioTheme.currentTime = 0;
                      audioTheme.play();
                    } else if (getTheme) {
                      audioTheme = new Audio(getTheme);
                      audioTheme.volume = 0.4;
                      audioTheme.play();
                    }
                    clearListener();
                  } else {
                    if (this.keyTimeout) {clearTimeout(this.keyTimeout)}
                    this.keyTimeout = setTimeout(() => {
                      clearListener();
                    }, 5000);
                  }
          
                  lastKeystrokeTime = latestKeystrokeTime;
                  }

                if (!cheatcodeEL){
                  cheatcodeEL = true;
                  document.addEventListener('keyup', cheatcode, true);
                }

                const clearListener = () => {
                  cheatCodesVisible = false;
                  cheatcodeEL = false;
                  if (getFC) {
                      farmingFC.innerHTML = "FC: " + getFC;
                    } else {
                      farmingFC.innerHTML = "FC: ";
                    }
                  farmingFC.setAttribute("filter", "url(#stats-fc)");
                  bufferArray = [];
                  document.removeEventListener('keyup', cheatcode, true);
                }
              }
            });
          }
          
          visible = !visible
          farmingNameId.classList.toggle('show-farming-stats');
          farmingCoordsId.classList.toggle('show-farming-stats');
          farmingFCId.classList.toggle('show-farming-stats');
          });     
    }}]]>
  </script>

  <image id="ghost" opacity="0" href="" x="70px" y="3px" height="20" width="20" />
</svg>
