<svg id="gw3330" xmlns="http://www.w3.org/2000/svg" viewBox="0 0 89 89">

<style><![CDATA[

  #gw3330 {
    overflow: hidden;
    outline: none;
    box-shadow: none;
    height: 100%;
  }

  @media (min-aspect-ratio: 1/1) {
    #gw3330 {
      height: 100%;
      width: auto;
      margin: 0 auto;
    }
  }

  #gw3330 .tickers path:nth-child(2) {
    transform: translateY(10px);
  }

  #gw3330 .tickers path:nth-child(3) {
    transform: translateY(20px);
  }

  #gw3330 .circuit-board-2-rect rect:nth-child(1) {
    animation: gw-anim-rgb-flash 7s steps(1) -7.4017s infinite;
  }

  #gw3330 .circuit-board-2-rect rect:nth-child(2) {
    animation: gw-anim-rgb-flash 7s steps(1) -8.4017s infinite;
  }

  #gw3330 .circuit-board-2-rect rect:nth-child(3) {
    animation: gw-anim-rgb-flash 7s steps(1) -9.4017s infinite;
  }

  #gw3330 .circuit-board-2-rect rect:nth-child(4) {
    animation: gw-anim-rgb-flash 7s steps(1) -10.4017s infinite;
  }

  #gw3330 .circuit-board-2-rect rect:nth-child(5) {
    animation: gw-anim-rgb-flash 7s steps(1) -11.4017s infinite;
  }

  #gw3330 .circuit-board-2-rect rect:nth-child(6) {
    animation: gw-anim-rgb-flash 7s steps(1) -12.4017s infinite;
  }

  #gw3330 .circuit-board-2-rect rect:nth-child(7) {
    animation: gw-anim-rgb-flash 7s steps(1) -13.4017s infinite;
  }

  #gw3330 .circuit-board-2-rect rect:nth-child(8) {
    animation: gw-anim-rgb-flash 7s steps(1) -14.4017s infinite;
  }

  #gw3330 .circuit-board-2-rect rect:nth-child(9) {
    animation: gw-anim-rgb-flash 7s steps(1) -15.4017s infinite;
  }

  @keyframes gw-anim-rgb-flash {
    0% {
      fill: #71caee;
    }
    16.7% {
      fill: #8881b8;
    }
    33.4% {
      fill: #ec98ba;
    }
    50.1% {
      fill: #ee9579;
    }
    66.8% {
      fill: #fcf099;
    }
    83.5% {
      fill: #83c59b;
    }
    100% {
      fill: #71caee;
    }
  }

]]></style>

<path class="background" fill="#3F3542" d="M0 0h89v89H0z"/>

<a href="https://ipfs.io/ipfs/QmNcQqYMoAcnBiYWdA18aATeRk28h4sWFannFsWTSzq1F1?filename=gw3330.html" target="_blank">
  <path class="title" fill="#FFF" d="M64 10v2h-1v-2h-1v5h1v-2h1v2h1v-5zm-4 5h1v-1h-2v1zm-2-3v2h1v-3h-1zm1-2v1h2v-1h-1zm-4 0h-1v1h1v4h1v-4h1v-1h-1zm-3 2h-1v-1h-1v4h1v-2h1v2h1v-4h-1zm-1-2h1v1h-1zm-3 1v3h1v-4h-1zm-1 3h1v1h-1zm-1-1h1v1h-1zm-1 0v-3h-1v5h2v-1h-1zm-3-3h-2v1h1v4h1v-4h1v-1zm-6 4v1h2v-1h-1zm2-1h1v1h-1zm-1-1h1v1h-1zm-1-1h1v1h-1zm1-1v1h2v-1h-1zm-4 0h1v1h-1zm1 2v2h1v-3h-1zm-1 2h1v1h-1zm0-2v-1h-1v3h1v-1zm-3-1v1h-1v-2h-1v5h1v-2h1v2h1v-5h-1zm-5 1v1h1v1h-2v1h3v-3h-1zm1-1v-1h-2v1h1zm-2 1v-1h-1v3h1v-1z"/>
</a>

<g class="tickers" fill="#FFF">
  <path d="M19 22h-1v-1h-1v4h1v-2h1v2h1v-4h-1zm-1-2h1v1h-1zm-3 2v2h1v-3h-1zm-1 1v-2h1v-1h-2v5h2v-1h-1zm-3-1h-1v-1H9v4h1v-2h1v2h1v-4h-1zm-1-2h1v1h-1z"/>
  <path d="M18 24v-4h-1v5h3v-1h-1zm-3-2v2h1v-3h-1zm-1 2h1v1h-1zm0-4h1v1h-1zm0 2v-1h-1v3h1v-1zm-3 1h1v1h-1zm-1-1h1v1h-1zm0-2v1h2v-1h-1zm-1 4v1h2v-1h-1zm0-3h1v1H9z"/>
  <path d="M23 24v-1h1v2h-1v-1zm0-4v2h1v-2h-1zm-1 3h1v-1h-1v1zm-1 1v1h1v-2h-1v1zm1-4h-1v2h1v-2zm-3 2h-1v-1h-1v4h1v-2h1v2h1v-4h-1v1zm0-2h-1v1h1v-1zm-4 1v3h1v-4h-1v1zm-1 4h1v-1h-1v1zm0-3v-2h-1v4h1v-2zm-3 0h-1v-1H9v4h1v-2h1v2h1v-4h-1v1zm0-2h-1v1h1v-1z"/>
</g>

<g class="digits" fill="#FFF" style="display: none;">
  <path class="zero" d="M79 20h-2v5h3v-5h-1zm0 2v2h-1v-3h1v1z"/>
  <path class="one" d="M80 24v1h-3v-1h1v-2h-1v-1h1v-1h1v4h1z"/>
  <path class="two" d="M80 22h-1v-1h1v1zm-1 3h1v-1h-2v1h1zm0-3h-1v1h1v-1zm-1-2h-1v1h2v-1h-1zm-1 3v1h1v-1h-1z"/>
  <path class="three" d="M79 24v-1h1v1h-1zm1-3h-1v1h1v-1zm-2 1v1h1v-1h-1zm0-2h-1v1h2v-1h-1zm-1 4v1h2v-1h-2z"/>
  <path class="four" d="M80 21v4h-1v-2h-2v-3h1v2h1v-1h1z"/>
  <path class="five" d="M79 24v-1h1v1h-1zm0-3h1v-1h-3v3h2v-1h-1v-1h1zm-2 3v1h2v-1h-2z"/>
  <path class="six" d="M79 21h-1v-1h2v1h-1zm-2 0v3h1v-1h1v1h-1v1h2v-3h-2v-1h-1z"/>
  <path class="seven" d="M80 20v5h-1v-4h-2v-1h3z"/>
  <path class="eight" d="M79 20h-2v5h3v-5h-1zm0 4h-1v-1h1v1zm0-2h-1v-1h1v1z"/>
  <path class="nine" d="M79 20h-2v3h2v2h1v-5h-1zm0 2h-1v-1h1v1z"/>
  <path class="decimal" d="M71 24h1v1h-1z"/>
</g>

<g class="prices" fill="#FFF">
  <g class="line-0"></g>
  <g class="line-1"></g>
  <g class="line-2"></g>
</g>

<g class="circuit-board-2"><path fill="#FFF" d="M88 10v43h1v36h-6v-1h1v-1h1v-1h1v-1h-3v1h-1v1h-1v1h-1v1h-4v-1h1v-1h1v-1h1v-1h-3v1h-1v1h-1v1h-1v1h-5v-1h1v-1h1v-1h1v-1H8v-1h78V53h1V10h-1V5h-1V4h-1V3h-5V2H58V1h21V0h6v1h1v1h1v1h1v1h1v6h-1zM57 3h1V2h-1v1zm-1 1h1V3h-1v1zM35 3V2h-1v1h1zm8 1V3h-8v1h8zM5 73v-5H2v-5h3v-2H3v-5h2v-3H2v-6h2V28H1V9h3V1h30v1H5v3h23v1H5v42H3v4h3v5H4v3h2v4H3v3h3v6H5zM2 12h2v-2H2v2zm0 3h2v-2H2v2zm0 3h2v-2H2v2zm0 1v2h2v-2H2zm0 5h2v-2H2v2zm2 3v-2H2v2h2z"/><g fill="#FFF" class="circuit-board-2-rect"><rect width="3" height="3" x="53" y="4"/><rect width="3" height="3" x="41" y="2"/><rect width="3" height="3" x="26" y="4"/><rect width="3" height="3" x="20" y="4"/><rect width="3" height="3" x="14" y="4"/><rect width="3" height="3" x="19" y="83"/><rect width="3" height="3" x="13" y="83"/><rect width="3" height="3" x="7" y="83"/><rect width="3" height="2" x="4" y="72"/></g></g>

<script type='text/javascript'><![CDATA[

  const gw3330Root = document.getElementById('gw3330');

  if (gw3330Root) {
    const gwRoot = gw3330Root;

    const getPrice = (data, ticker) => {
      return data[ticker];
    }

    fetch('https://www.clumsyghosts.com/json/prices.json')
      .then(response => response.json())
      .then(json => {

        console.log('Last updated: ' + json.updated);

        const tickers = ['ADA', 'SOL', 'AVAX'];
        
        const prices = [
          getPrice(json.prices, tickers[0]),
          getPrice(json.prices, tickers[1]),
          getPrice(json.prices, tickers[2]),
        ];

        const digitsGroup = gwRoot.querySelector('.digits');
        const pricesGroup = gwRoot.querySelector('.prices');
        let lineOffset = 0;

        for (let i=0; i<3; i++) {
          const line = pricesGroup.querySelector('.line-' + i);
          line.style.transform = 'translateY(' + lineOffset + 'px)';
          lineOffset += 10;

          const digits = String(prices[i]);
          const numDigits = digits.length;

          let digitOffset = 4 * numDigits - 6;

          for (let j = 0; j < numDigits; j++) {
            const digit = digits.charAt(j);

            switch (digit) {
              case '.':
                line.appendChild(digitsGroup.querySelector('.decimal').cloneNode(true)).style.transform = 'translateX(-' + (digitOffset - 6) + 'px)';
                digitOffset += 2;
                break;
              case '0':
                line.appendChild(digitsGroup.querySelector('.zero').cloneNode(true)).style.transform = 'translateX(-' + digitOffset + 'px)';
                break;
              case '1':
                line.appendChild(digitsGroup.querySelector('.one').cloneNode(true)).style.transform = 'translateX(-' + digitOffset + 'px)';
                break;
              case '2':
                line.appendChild(digitsGroup.querySelector('.two').cloneNode(true)).style.transform = 'translateX(-' + digitOffset + 'px)';
                break;
              case '3':
                line.appendChild(digitsGroup.querySelector('.three').cloneNode(true)).style.transform = 'translateX(-' + digitOffset + 'px)';
                break;
              case '4':
                line.appendChild(digitsGroup.querySelector('.four').cloneNode(true)).style.transform = 'translateX(-' + digitOffset + 'px)';
                break;
              case '5':
                line.appendChild(digitsGroup.querySelector('.five').cloneNode(true)).style.transform = 'translateX(-' + digitOffset + 'px)';
                break;
              case '6':
                line.appendChild(digitsGroup.querySelector('.six').cloneNode(true)).style.transform = 'translateX(-' + digitOffset + 'px)';
                break;
              case '7':
                line.appendChild(digitsGroup.querySelector('.seven').cloneNode(true)).style.transform = 'translateX(-' + digitOffset + 'px)';
                break;
              case '8':
                line.appendChild(digitsGroup.querySelector('.eight').cloneNode(true)).style.transform = 'translateX(-' + digitOffset + 'px)';
                break;
              case '9':
                line.appendChild(digitsGroup.querySelector('.nine').cloneNode(true)).style.transform = 'translateX(-' + digitOffset + 'px)';
                break;
            }

            digitOffset -= 4;
          }
        }

      })
      .catch(error => {
        console.error('Failed to fetch:', error);
      });
      
  }

]]></script>

</svg>