<svg id="gw44" xmlns="http://www.w3.org/2000/svg" viewBox="0 0 89 89">

<style><![CDATA[

  #gw44 {
    overflow: hidden;
    outline: none;
    box-shadow: none;
    height: 100%;
  }

  @media (min-aspect-ratio: 1/1) {
    #gw44 {
      height: 100%;
      width: auto;
      margin: 0 auto;
    }
  }

  #gw44 .tickers path:nth-child(2) {
    transform: translateY(10px);
  }

  #gw44 .tickers path:nth-child(3) {
    transform: translateY(20px);
  }

  #gw44 .tickers path:nth-child(4) {
    transform: translateY(30px);
  }

  #gw44 .tickers path:nth-child(5) {
    transform: translateY(40px);
  }

  #gw44 .froggu-eyes-frame-1 {
    opacity: 1;
    animation: gw-disappear-eyes 10s steps(1) 1s infinite;
  }

  #gw44 .froggu-eyes-frame-2 {
    opacity: 0;
    animation: gw-appear-eyes 10s steps(1) 10.91s infinite;
  }

  #gw44 .froggu-eyes-frame-3 {
    opacity: 0;
    animation: gw-appear-eyes 10s steps(1) 10.92s infinite;
  }

  #gw44 .froggu-eyes-frame-4 {
    opacity: 0;
    animation: gw-appear-eyes 10s steps(1) 10.93s infinite;
  }

  #gw44 .froggu-eyes-frame-5 {
    opacity: 0;
    animation: gw-appear-eyes 10s steps(1) 10.940000000000001s infinite;
  }

  #gw44 .froggu-eyes-frame-6 {
    opacity: 0;
    animation: gw-appear-eyes 10s steps(1) 10.950000000000001s infinite;
  }

  #gw44 .froggu-eyes-frame-7 {
    opacity: 0;
    animation: gw-appear-eyes 10s steps(1) 10.96s infinite;
  }

  #gw44 .froggu-eyes-frame-8 {
    opacity: 0;
    animation: gw-appear-eyes 10s steps(1) 10.97s infinite;
  }

  #gw44 .froggu-eyes-frame-9 {
    opacity: 0;
    animation: gw-appear-eyes 10s steps(1) 10.98s infinite;
  }

  #gw44 .froggu-eyes-frame-10 {
    opacity: 0;
    animation: gw-appear-eyes 10s steps(1) 10.99s infinite;
  }

  @keyframes gw-appear-eyes {
    0% {
      opacity: 1;
    }
    0.1% {
      opacity: 0;
    }
  }

  @keyframes gw-disappear-eyes {
    0% {
      opacity: 1;
    }
    99% {
      opacity: 0;
    }
  }

  #gw44 .froggu-border {
    animation: gw-anim-rgb 5s linear -0.9973s infinite;
  }

  #gw44 .froggu-star-left {
    animation: gw-anim-rgb 5s linear -2.4973s infinite;
  }

  #gw44 .froggu-star-right {
    animation: gw-anim-rgb 5s linear -3.9973s infinite;
  }

  @keyframes gw-anim-rgb {
    0% {
      fill: #FFF080;
    }
    20% {
      fill: #E2FF88;
    }
    40% {
      fill: #93FF80;
    }
    60% {
      fill: #50FFB4;
    }
    80% {
      fill: #66F8FF;
    }
    100% {
      fill: #FFF080;
    }
  }

  @keyframes gw-tonguesnap {
    50% {
      stroke-dashoffset: 0;
    }
  }

]]></style>

<path class="background" fill="#25252D" d="M0 0h89v89H0z"/>

<a href="https://ipfs.io/ipfs/QmNf3eJFxn64KfYsQWXSJzjVe9tCYYGkJRc8wRDeGg7nQy?filename=gw44.html" target="_blank">
  <path class="title" fill="#FFF" d="M64 10v2h-1v-2h-1v5h1v-2h1v2h1v-5zm-4 5h1v-1h-2v1zm-2-3v2h1v-3h-1zm1-2v1h2v-1h-1zm-4 0h-1v1h1v4h1v-4h1v-1h-1zm-3 2h-1v-1h-1v4h1v-2h1v2h1v-4h-1zm-1-2h1v1h-1zm-3 1v3h1v-4h-1zm-1 3h1v1h-1zm-1-1h1v1h-1zm-1 0v-3h-1v5h2v-1h-1zm-3-3h-2v1h1v4h1v-4h1v-1zm-6 4v1h2v-1h-1zm2-1h1v1h-1zm-1-1h1v1h-1zm-1-1h1v1h-1zm1-1v1h2v-1h-1zm-4 0h1v1h-1zm1 2v2h1v-3h-1zm-1 2h1v1h-1zm0-2v-1h-1v3h1v-1zm-3-1v1h-1v-2h-1v5h1v-2h1v2h1v-5h-1zm-5 1v1h1v1h-2v1h3v-3h-1zm1-1v-1h-2v1h1zm-2 1v-1h-1v3h1v-1z"/>
</a>

<g class="tickers" fill="#FFF">
  <path d="M19 22h-1v-1h-1v4h1v-2h1v2h1v-4h-1zm-1-2h1v1h-1zm-3 2v2h1v-3h-1zm-1 1v-2h1v-1h-2v5h2v-1h-1zm-3-1h-1v-1H9v4h1v-2h1v2h1v-4h-1zm-1-2h1v1h-1z"/>
  <path d="M19 25h1v-1h-2v1zm-1-5v1h2v-1h-1zm-1 2v2h1v-3h-1zm-3-2h-1v1h1v4h1v-4h1v-1h-1zm-3 3h1v1h-1zm0-2h1v1h-1zm-1 0h1v-1H9v5h2v-1h-1v-1h1v-1h-1z"/>
  <path d="M18 20h-1v1h1v4h1v-4h1v-1h-1zm-3 2v2h1v-3h-1zm-1 2h1v1h-1zm0-4h1v1h-1zm0 2v-1h-1v3h1v-1zm-3 0v2h1v-3h-1zm-1 1v-2h1v-1H9v5h2v-1h-1z"/>
  <path d="M22 21v1h1v1h-1v1h1v1h-2v-5h2v1h-1zm-4 1v-1h-1v3h1v-1h1v1h-1v1h2v-3h-2zm1-2h-1v1h1v-1zm-4 2v2h1v-3h-1v1zm-1 3h1v-1h-1v1zm1-5h-1v1h1v-1zm-1 2v-1h-1v3h1v-2zm-3 0v2h1v-3h-1v1zm-1 1v-2h1v-1H9v5h2v-1h-1v-1z"/>
  <path d="M21 24v-1h1v1h-1zm1-2v-1h-1v1h1zm-2 0v-1h1v-1h-2v5h2v-1h-1v-1h1v-1h-1zm-3-1v4h1v-5h-1v1zm-2 0v1h-1v-2h-1v5h1v-2h1v2h1v-5h-1v1zm-3 3v-1h-1v1h1zm-1-1v-1h-1v1h1zm-1-3v1h2v-1h-2zm-1 4v1h2v-1H9zm0-2h1v-1H9v1z"/>
</g>

<g class="digits" fill="#FFF" style="display: none;">
  <path class="zero" d="M79 20h-2v5h3v-5h-1zm0 2v2h-1v-3h1v1z"/>
  <path class="one" d="M80 24v1h-3v-1h1v-2h-1v-1h1v-1h1v4h1z"/>
  <path class="two" d="M80 22h-1v-1h1v1zm-1 3h1v-1h-2v1h1zm0-3h-1v1h1v-1zm-1-2h-1v1h2v-1h-1zm-1 3v1h1v-1h-1z"/>
  <path class="three" d="M79 24v-1h1v1h-1zm1-3h-1v1h1v-1zm-2 1v1h1v-1h-1zm0-2h-1v1h2v-1h-1zm-1 4v1h2v-1h-2z"/>
  <path class="four" d="M80 21v4h-1v-2h-2v-3h1v2h1v-1h1z"/>
  <path class="five" d="M79 24v-1h1v1h-1zm0-3h1v-1h-3v3h2v-1h-1v-1h1zm-2 3v1h2v-1h-2z"/>
  <path class="six" d="M79 21h-1v-1h2v1h-1zm-2 0v3h1v-1h1v1h-1v1h2v-3h-2v-1h-1z"/>
  <path class="seven" d="M80 20v5h-1v-4h-2v-1h3z"/>
  <path class="eight" d="M79 20h-2v5h3v-5h-1zm0 4h-1v-1h1v1zm0-2h-1v-1h1v1z"/>
  <path class="nine" d="M79 20h-2v3h2v2h1v-5h-1zm0 2h-1v-1h1v1z"/>
  <path class="decimal" d="M71 24h1v1h-1z"/>
</g>

<g class="prices" fill="#FFF">
  <g class="line-0"></g>
  <g class="line-1"></g>
  <g class="line-2"></g>
  <g class="line-3"></g>
  <g class="line-4"></g>
</g>

<g class="froggu"><path class="froggu-border" fill="#E2FF88" d="M88 0H0v89h89V0h-1zm0 88H1V1h87v87z"/><path d="M66 81v-3h-1v-1h-1v-1h-1v-1h-1v-1h-7v1h-1v1h-2v1h-1v1h-1v2h-1v1h-1v-1h-7v1h-1v-1h-1v-2h-1v-1h-1v-1h-2v-1h-1v-1h-7v1h-1v1h-1v1h-1v1h-1v3h-1v6h1v2h43v-2h1v-6h-1z"/><g><path fill="#A6FFA6" d="M65 81v-3h-1v-1h-1v-1h-1v-1h-7v1h-1v1h-2v1h-1v2h-1v2h-2v-1h-7v1h-2v-2h-1v-2h-1v-1h-2v-1h-1v-1h-7v1h-1v1h-1v1h-1v3h-1v6h1v2h41v-2h1v-6z"/><path d="M42 84v2h1v1h3v-1h1v-2h-1v2h-3v-2z"/></g><g class="froggu-eyes"><g class="froggu-eyes-frame-1"><path d="M54 80v-1h1v-1h1v-1h5v1h1v1h1v1h1v5h-1v1h-1v1h-1v1h-4v-1h-1v-1h-1v-1h-1v-1h-1v-4z"/><path fill="#FFF" d="M62 80v-1h-1v-1h-5v1h-1v1h-1v4h1v1h1v1h1v1h4v-1h1v-1h1v-5z"/><path d="M57 80h2v5h-2z"/><g><path d="M35 80v-1h-1v-1h-1v-1h-5v1h-1v1h-1v1h-1v5h1v1h1v1h1v1h4v-1h1v-1h1v-1h1v-1h1v-4z"/><path fill="#FFF" d="M34 79h-1v-1h-5v1h-1v1h-1v5h1v1h1v1h4v-1h1v-1h1v-1h1v-4h-1z"/><path d="M30 80h2v5h-2z"/></g></g><g class="froggu-eyes-frame-2"><path d="M54 81v-1h1v-1h1v-1h5v1h1v1h1v1h1v3h-1v1h-1v1h-1v1h-5v-1h-1v-1h-1v-1h-1v-3z"/><path fill="#FFF" d="M62 81v-1h-1v-1h-5v1h-1v1h-1v3h1v1h1v1h5v-1h1v-1h1v-3z"/><path d="M57 80h2v5h-2z"/><g><path d="M35 81v-1h-1v-1h-1v-1h-5v1h-1v1h-1v1h-1v3h1v1h1v1h1v1h5v-1h1v-1h1v-1h1v-3z"/><path fill="#FFF" d="M34 80h-1v-1h-5v1h-1v1h-1v3h1v1h1v1h5v-1h1v-1h1v-3h-1z"/><path d="M30 80h2v5h-2z"/></g></g><g class="froggu-eyes-frame-3"><path d="M54 82v-1h1v-1h1v-1h5v1h1v1h1v1h1v1h-1v1h-1v1h-1v1h-5v-1h-1v-1h-1v-1h-1v-1z"/><path fill="#FFF" d="M62 82v-1h-1v-1h-5v1h-1v1h-1v1h1v1h1v1h5v-1h1v-1h1v-1z"/><path d="M57 80h2v5h-2z"/><g><path d="M35 82v-1h-1v-1h-1v-1h-5v1h-1v1h-1v1h-1v1h1v1h1v1h1v1h5v-1h1v-1h1v-1h1v-1z"/><path fill="#FFF" d="M34 81h-1v-1h-5v1h-1v1h-1v1h1v1h1v1h5v-1h1v-1h1v-1h-1z"/><path d="M30 80h2v5h-2z"/></g></g><g class="froggu-eyes-frame-4"><path d="M54 82v-1h2v-1h5v1h2v1h1v1h-1v1h-2v1h-5v-1h-2v-1h-1v-1z"/><path fill="#FFF" d="M61 82v-1h-5v1h-2v1h2v1h5v-1h2v-1z"/><path d="M57 81h2v3h-2z"/><g><path d="M35 82v-1h-2v-1h-5v1h-2v1h-1v1h1v1h2v1h5v-1h2v-1h1v-1z"/><path fill="#FFF" d="M33 82v-1h-5v1h-2v1h2v1h5v-1h2v-1z"/><path d="M30 81h2v3h-2z"/></g></g><g class="froggu-eyes-frame-5"><path d="M55 82v-1h7v1h2v1h-2v1h-7v-1h-2v-1z"/><path fill="#FFF" d="M55 82h7v1h-7z"/><path d="M57 82h2v1h-2z"/><g><path d="M34 82v-1h-7v1h-2v1h2v1h7v-1h2v-1z"/><path fill="#FFF" d="M27 82h7v1h-7z"/><path d="M30 82h2v1h-2z"/></g></g><g class="froggu-eyes-frame-6"><path d="M53 82h11v1H53z"/><path d="M25 82h11v1H25z"/></g><g class="froggu-eyes-frame-7"><path d="M55 82v-1h7v1h2v1h-2v1h-7v-1h-2v-1z"/><path fill="#FFF" d="M55 82h7v1h-7z"/><path d="M57 82h2v1h-2z"/><g><path d="M34 82v-1h-7v1h-2v1h2v1h7v-1h2v-1z"/><path fill="#FFF" d="M27 82h7v1h-7z"/><path d="M30 82h2v1h-2z"/></g></g><g class="froggu-eyes-frame-8"><path d="M54 82v-1h2v-1h5v1h2v1h1v1h-1v1h-2v1h-5v-1h-2v-1h-1v-1z"/><path fill="#FFF" d="M61 82v-1h-5v1h-2v1h2v1h5v-1h2v-1z"/><path d="M57 81h2v3h-2z"/><g><path d="M35 82v-1h-2v-1h-5v1h-2v1h-1v1h1v1h2v1h5v-1h2v-1h1v-1z"/><path fill="#FFF" d="M33 82v-1h-5v1h-2v1h2v1h5v-1h2v-1z"/><path d="M30 81h2v3h-2z"/></g></g><g class="froggu-eyes-frame-9"><path d="M54 82v-1h1v-1h1v-1h5v1h1v1h1v1h1v1h-1v1h-1v1h-1v1h-5v-1h-1v-1h-1v-1h-1v-1z"/><path fill="#FFF" d="M62 82v-1h-1v-1h-5v1h-1v1h-1v1h1v1h1v1h5v-1h1v-1h1v-1z"/><path d="M57 80h2v5h-2z"/><g><path d="M35 82v-1h-1v-1h-1v-1h-5v1h-1v1h-1v1h-1v1h1v1h1v1h1v1h5v-1h1v-1h1v-1h1v-1z"/><path fill="#FFF" d="M34 81h-1v-1h-5v1h-1v1h-1v1h1v1h1v1h5v-1h1v-1h1v-1h-1z"/><path d="M30 80h2v5h-2z"/></g></g><g class="froggu-eyes-frame-10"><path d="M54 81v-1h1v-1h1v-1h5v1h1v1h1v1h1v3h-1v1h-1v1h-1v1h-5v-1h-1v-1h-1v-1h-1v-3z"/><path fill="#FFF" d="M62 81v-1h-1v-1h-5v1h-1v1h-1v3h1v1h1v1h5v-1h1v-1h1v-3z"/><path d="M57 80h2v5h-2z"/><g><path d="M35 81v-1h-1v-1h-1v-1h-5v1h-1v1h-1v1h-1v3h1v1h1v1h1v1h5v-1h1v-1h1v-1h1v-3z"/><path fill="#FFF" d="M34 80h-1v-1h-5v1h-1v1h-1v3h1v1h1v1h5v-1h1v-1h1v-3h-1z"/><path d="M30 80h2v5h-2z"/></g></g></g><g fill="#86CE86"><path d="M55 75h7v1h-7z"/><path d="M54 76h1v1h-1z"/><path d="M52 77h2v1h-2z"/><path d="M51 78h1v2h-1z"/><path d="M50 80h1v2h-1z"/><path d="M24 78h1v3h-1z"/><path d="M25 77h1v1h-1z"/><path d="M26 76h1v1h-1z"/><path d="M27 75h7v1h-7z"/><path d="M23 81h1v6h-1z"/><path d="M24 87h1v2h-1z"/></g><g><path d="M84 9V8h-1V7h-1V4h-1V3h-2v1h-1v1h-4v1h-1v2h1v1h-1v1h-1v2h1v1h3v1h1v1h1v1h2v-1h1v-1h1v-2h2v-1h1V9h-1z"/><path d="M16 9h-1V8h1V6h-1V5h-4V4h-1V3H8v1H7v3H6v1H5v1H4v2h1v1h2v2h1v1h1v1h2v-1h1v-1h1v-1h3v-1h1v-2h-1V9z"/></g><g><path class="froggu-star-right" fill="#66F8FF" d="M83 9V8h-1V7h-1V4h-2v1h-1v1h-4v2h1v1h-1v1h-1v2h3v1h1v1h1v1h2v-1h1v-2h1v-1h2V9z"/><path class="froggu-star-left" fill="#50FFB4" d="M15 9h-1V8h1V6h-4V5h-1V4H8v3H7v1H6v1H5v2h2v1h1v2h1v1h2v-1h1v-1h1v-1h3v-2h-1z"/></g><g fill="#FFF" opacity=".3"><path d="M80 4h1v3h-1z"/><path d="M81 7h1v1h-1z"/><path d="M82 8h1v1h-1z"/><path d="M83 9h1v2h-1z"/><path d="M80 12h1v2h-1z"/><path d="M78 14h2v1h-2z"/><path d="M9 4h1v1H9z"/><path d="M10 5h1v1h-1z"/><path d="M14 6h1v2h-1z"/><path d="M14 9h1v1h-1z"/><path d="M15 10h1v2h-1z"/><path d="M12 12h1v1h-1z"/><path d="M11 13h1v1h-1z"/><path d="M10 14h1v1h-1z"/></g></g>

<script type='text/javascript'><![CDATA[

  const gw44Root = document.getElementById('gw44');

  if (gw44Root) {
    const gwRoot = gw44Root;

    const getPrice = (data, ticker) => {
      return data[ticker];
    }

    fetch('https://www.clumsyghosts.com/json/prices.json')
      .then(response => response.json())
      .then(json => {

        console.log('Last updated: ' + json.updated);
        
        const tickers = ['ADA', 'BTC', 'DOT', 'DOGE', 'SHIB'];
        
        const prices = [
          getPrice(json.prices, tickers[0]),
          getPrice(json.prices, tickers[1]),
          getPrice(json.prices, tickers[2]),
          getPrice(json.prices, tickers[3]),
          getPrice(json.prices, tickers[4]),
        ];

        const digitsGroup = gwRoot.querySelector('.digits');
        const pricesGroup = gwRoot.querySelector('.prices');
        let lineOffset = 0;

        for (let i=0; i<5; i++) {
          const line = pricesGroup.querySelector('.line-' + i);
          line.style.transform = 'translateY(' + lineOffset + 'px)';
          lineOffset += 10;

          const digits = String(prices[i]);
          const numDigits = digits.length;

          let digitOffset = 4 * numDigits - 6;

          for (let j = 0; j < numDigits; j++) {
            const digit = digits.charAt(j);

            switch (digit) {
              case '.':
                line.appendChild(digitsGroup.querySelector('.decimal').cloneNode(true)).style.transform = 'translateX(-' + (digitOffset - 6) + 'px)';
                digitOffset += 2;
                break;
              case '0':
                line.appendChild(digitsGroup.querySelector('.zero').cloneNode(true)).style.transform = 'translateX(-' + digitOffset + 'px)';
                break;
              case '1':
                line.appendChild(digitsGroup.querySelector('.one').cloneNode(true)).style.transform = 'translateX(-' + digitOffset + 'px)';
                break;
              case '2':
                line.appendChild(digitsGroup.querySelector('.two').cloneNode(true)).style.transform = 'translateX(-' + digitOffset + 'px)';
                break;
              case '3':
                line.appendChild(digitsGroup.querySelector('.three').cloneNode(true)).style.transform = 'translateX(-' + digitOffset + 'px)';
                break;
              case '4':
                line.appendChild(digitsGroup.querySelector('.four').cloneNode(true)).style.transform = 'translateX(-' + digitOffset + 'px)';
                break;
              case '5':
                line.appendChild(digitsGroup.querySelector('.five').cloneNode(true)).style.transform = 'translateX(-' + digitOffset + 'px)';
                break;
              case '6':
                line.appendChild(digitsGroup.querySelector('.six').cloneNode(true)).style.transform = 'translateX(-' + digitOffset + 'px)';
                break;
              case '7':
                line.appendChild(digitsGroup.querySelector('.seven').cloneNode(true)).style.transform = 'translateX(-' + digitOffset + 'px)';
                break;
              case '8':
                line.appendChild(digitsGroup.querySelector('.eight').cloneNode(true)).style.transform = 'translateX(-' + digitOffset + 'px)';
                break;
              case '9':
                line.appendChild(digitsGroup.querySelector('.nine').cloneNode(true)).style.transform = 'translateX(-' + digitOffset + 'px)';
                break;
            }

            digitOffset -= 4;
          }
        }

      })
      .catch(error => {
        console.error('Failed to fetch:', error);
      });
      
    let frogguBg = gwRoot.querySelector('.background');
    let froggu = gwRoot.querySelector('.froggu');
    let frogguAnimating = false;

    frogguBg.addEventListener('click', (e) => {
      if (frogguAnimating == false) {
        frogguAnimating = true;

        let rect = e.target.getBoundingClientRect();
        let calcWidth = rect.width;
        let scale = 89 / calcWidth;
        let x = e.clientX - rect.left;
        let y = e.clientY - rect.top;
        let xProper = x * scale;
        let yProper = y * scale;

        let tongue = document.createElementNS('http://www.w3.org/2000/svg', 'line');
        tongue.setAttribute('class', 'froggu-tongue');
        tongue.setAttribute('x1', '44.5');
        tongue.setAttribute('y1', '84.5');
        tongue.setAttribute('x2', xProper);
        tongue.setAttribute('y2', yProper);
        tongue.setAttribute('stroke', '#F2A9B0');
        tongue.setAttribute('stroke-width', '4');
        tongue.setAttribute('stroke-linecap', 'round');
        froggu.appendChild(tongue);

        let tongueLength = tongue.getTotalLength();

        tongue.setAttribute('style', 'stroke-dasharray: ' + tongueLength + 'px; stroke-dashoffset: ' + tongueLength + 'px; animation: gw-tonguesnap 0.5s ease-in-out infinite;');

        setTimeout(() => {
          frogguAnimating = false;
          froggu.removeChild(tongue);
        }, 500);
      }
    });
      
  }

]]></script>

</svg>