<svg id="gw91" xmlns="http://www.w3.org/2000/svg" viewBox="0 0 89 89">

<style><![CDATA[

  #gw91 {
    overflow: hidden;
    outline: none;
    box-shadow: none;
    height: 100%;
  }

  @media (min-aspect-ratio: 1/1) {
    #gw91 {
      height: 100%;
      width: auto;
      margin: 0 auto;
    }
  }

  #gw91 .tickers path:nth-child(2) {
    transform: translateY(10px);
  }

  #gw91 .tickers path:nth-child(3) {
    transform: translateY(20px);
  }

  #gw91 .tickers path:nth-child(4) {
    transform: translateY(30px);
  }

  #gw91 .tickers path:nth-child(5) {
    transform: translateY(40px);
  }

  #gw91 .baby-ghost {
    animation: gw-pace 5s linear -3.8704s infinite;
  }

  @keyframes gw-pace {
    0% {
      transform: translate3d(0, 0, 0);
    }
    50% {
      transform: translate3d(-54px, 0, 0);
    }
    100% {
      transform: translate3d(0, 0, 0);
    }
  }

  #gw91 .baby-ghost-eyes {
    animation: gw-eyes 5s steps(1) -3.8704s infinite;
  }

  @keyframes gw-eyes {
    0% {
      transform: translate3d(-1px, 0, 0);
    }
    50% {
      transform: translate3d(0, 0, 0);
    }
    100% {
      transform: translate3d(-1px, 0, 0);
    }
  }

  #gw91 .baby-ghost-shades {
    opacity: 0;
    pointer-events: none;
    transition: opacity 0.2s ease, transform 3s linear;
    transform: translate3d(0, -77px, 0);
  }

  #gw91.deal-with-it .baby-ghost-shades {
    opacity: 1;
    transform: translate3d(0, 0, 0);
  }

]]></style>

<path class="background" fill="#2F2F68" d="M0 0h89v89H0z"/>

<a href="https://ipfs.io/ipfs/Qma2QiUAT5SdPw9k9vVd6vDEGMwrtSynz5y1cWu9jgwhVZ?filename=gw91.html" target="_blank">
  <path class="title" fill="#FFF" d="M64 10v2h-1v-2h-1v5h1v-2h1v2h1v-5zm-4 5h1v-1h-2v1zm-2-3v2h1v-3h-1zm1-2v1h2v-1h-1zm-4 0h-1v1h1v4h1v-4h1v-1h-1zm-3 2h-1v-1h-1v4h1v-2h1v2h1v-4h-1zm-1-2h1v1h-1zm-3 1v3h1v-4h-1zm-1 3h1v1h-1zm-1-1h1v1h-1zm-1 0v-3h-1v5h2v-1h-1zm-3-3h-2v1h1v4h1v-4h1v-1zm-6 4v1h2v-1h-1zm2-1h1v1h-1zm-1-1h1v1h-1zm-1-1h1v1h-1zm1-1v1h2v-1h-1zm-4 0h1v1h-1zm1 2v2h1v-3h-1zm-1 2h1v1h-1zm0-2v-1h-1v3h1v-1zm-3-1v1h-1v-2h-1v5h1v-2h1v2h1v-5h-1zm-5 1v1h1v1h-2v1h3v-3h-1zm1-1v-1h-2v1h1zm-2 1v-1h-1v3h1v-1z"/>
</a>

<g class="tickers" fill="#FFF">
  <path d="M19 22h-1v-1h-1v4h1v-2h1v2h1v-4h-1zm-1-2h1v1h-1zm-3 2v2h1v-3h-1zm-1 1v-2h1v-1h-2v5h2v-1h-1zm-3-1h-1v-1H9v4h1v-2h1v2h1v-4h-1zm-1-2h1v1h-1z"/>
  <path d="M19 25h1v-1h-2v1zm-1-5v1h2v-1h-1zm-1 2v2h1v-3h-1zm-3-2h-1v1h1v4h1v-4h1v-1h-1zm-3 3h1v1h-1zm0-2h1v1h-1zm-1 0h1v-1H9v5h2v-1h-1v-1h1v-1h-1z"/>
  <path d="M19 21v1h-1v-2h-1v5h1v-2h1v2h1v-5h-1zm-5-1h-1v1h1v4h1v-4h1v-1h-1zm-4 0H9v5h3v-1h-2v-1h1v-1h-1v-1h2v-1h-1z"/>
  <path d="M22 21v1h1v1h-1v1h1v1h-2v-5h2v1h-1zm-4 1v-1h-1v3h1v-1h1v1h-1v1h2v-3h-2zm1-2h-1v1h1v-1zm-4 2v2h1v-3h-1v1zm-1 3h1v-1h-1v1zm1-5h-1v1h1v-1zm-1 2v-1h-1v3h1v-2zm-3 0v2h1v-3h-1v1zm-1 1v-2h1v-1H9v5h2v-1h-1v-1z"/>
  <path d="M20 24v-1h1v1h-1zm-1-2v-1h1v-1h-2v5h2v-1h-1v-1h1v-1h-1zm2 0v-1h-1v1h1zm-5-1v1h-1v1h1v2h1v-5h-1v1zm-2 0v-1h-1v5h1v-3h1v-1h-1zm-2 3v-1h-1v1h1zm-1-2h1v-1h-1v1zm-1-1h1v-1H9v5h2v-1h-1v-1h1v-1h-1v-1z"/>
</g>

<g class="digits" fill="#FFF" style="display: none;">
  <path class="zero" d="M79 20h-2v5h3v-5h-1zm0 2v2h-1v-3h1v1z"/>
  <path class="one" d="M80 24v1h-3v-1h1v-2h-1v-1h1v-1h1v4h1z"/>
  <path class="two" d="M80 22h-1v-1h1v1zm-1 3h1v-1h-2v1h1zm0-3h-1v1h1v-1zm-1-2h-1v1h2v-1h-1zm-1 3v1h1v-1h-1z"/>
  <path class="three" d="M79 24v-1h1v1h-1zm1-3h-1v1h1v-1zm-2 1v1h1v-1h-1zm0-2h-1v1h2v-1h-1zm-1 4v1h2v-1h-2z"/>
  <path class="four" d="M80 21v4h-1v-2h-2v-3h1v2h1v-1h1z"/>
  <path class="five" d="M79 24v-1h1v1h-1zm0-3h1v-1h-3v3h2v-1h-1v-1h1zm-2 3v1h2v-1h-2z"/>
  <path class="six" d="M79 21h-1v-1h2v1h-1zm-2 0v3h1v-1h1v1h-1v1h2v-3h-2v-1h-1z"/>
  <path class="seven" d="M80 20v5h-1v-4h-2v-1h3z"/>
  <path class="eight" d="M79 20h-2v5h3v-5h-1zm0 4h-1v-1h1v1zm0-2h-1v-1h1v1z"/>
  <path class="nine" d="M79 20h-2v3h2v2h1v-5h-1zm0 2h-1v-1h1v1z"/>
  <path class="decimal" d="M71 24h1v1h-1z"/>
</g>

<g class="prices" fill="#FFF">
  <g class="line-0"></g>
  <g class="line-1"></g>
  <g class="line-2"></g>
  <g class="line-3"></g>
  <g class="line-4"></g>
</g>

<g class="baby-ghost"><g class="baby-ghost-body"><path d="M78 75v-2h-1v-1h-1v-1h-2v-1h-5v1h-2v1h-1v1h-1v2h-1v8h1v1h1v-1h1v-2h1v1h1v1h1v-1h1v-1h1v1h1v1h1v-1h1v-1h1v2h1v1h1v-1h1v-8z"/><path fill="#f47fff" d="M78 75v8h-1v-2h-1v-1h-1v1h-1v1h-1v-1h-1v-1h-1v1h-1v1h-1v-1h-1v-1h-1v1h-1v2h-1v-8h1v-2h1v-1h2v1h-1v1h-1v1h1v1h1v1h5v-1h1v-1h1v-1h-1v-1h-1v-1h2v1h1v2h1zm-7-3h3v-1h-5v1h2z"/><path fill="#FFF" d="M75 75v-1h-1v-1h-5v1h-1v1h1v1h5v-1z"/><g class="baby-ghost-eyes"><path d="M70 74h1v1h-1z"/><path d="M73 74h1v1h-1z"/></g></g><path class="baby-ghost-shades" d="M67 73h-3v1h3v1h1v1h2v-1h1v-1h1v1h1v1h2v-1h1v-1h1v-1z"/></g>

<script type='text/javascript'><![CDATA[

  const gw91Root = document.getElementById('gw91');

  if (gw91Root) {
    const gwRoot = gw91Root;

    const getPrice = (data, ticker) => {
      return data[ticker];
    }

    fetch('https://www.clumsyghosts.com/json/prices.json')
      .then(response => response.json())
      .then(json => {

        console.log('Last updated: ' + json.updated);
        
        const tickers = ['ADA', 'BTC', 'ETH', 'DOGE', 'BNB'];
        
        const prices = [
          getPrice(json.prices, tickers[0]),
          getPrice(json.prices, tickers[1]),
          getPrice(json.prices, tickers[2]),
          getPrice(json.prices, tickers[3]),
          getPrice(json.prices, tickers[4]),
        ];

        const digitsGroup = gwRoot.querySelector('.digits');
        const pricesGroup = gwRoot.querySelector('.prices');
        let lineOffset = 0;

        for (let i=0; i<5; i++) {
          const line = pricesGroup.querySelector('.line-' + i);
          line.style.transform = 'translateY(' + lineOffset + 'px)';
          lineOffset += 10;

          const digits = String(prices[i]);
          const numDigits = digits.length;

          let digitOffset = 4 * numDigits - 6;

          for (let j = 0; j < numDigits; j++) {
            const digit = digits.charAt(j);

            switch (digit) {
              case '.':
                line.appendChild(digitsGroup.querySelector('.decimal').cloneNode(true)).style.transform = 'translateX(-' + (digitOffset - 6) + 'px)';
                digitOffset += 2;
                break;
              case '0':
                line.appendChild(digitsGroup.querySelector('.zero').cloneNode(true)).style.transform = 'translateX(-' + digitOffset + 'px)';
                break;
              case '1':
                line.appendChild(digitsGroup.querySelector('.one').cloneNode(true)).style.transform = 'translateX(-' + digitOffset + 'px)';
                break;
              case '2':
                line.appendChild(digitsGroup.querySelector('.two').cloneNode(true)).style.transform = 'translateX(-' + digitOffset + 'px)';
                break;
              case '3':
                line.appendChild(digitsGroup.querySelector('.three').cloneNode(true)).style.transform = 'translateX(-' + digitOffset + 'px)';
                break;
              case '4':
                line.appendChild(digitsGroup.querySelector('.four').cloneNode(true)).style.transform = 'translateX(-' + digitOffset + 'px)';
                break;
              case '5':
                line.appendChild(digitsGroup.querySelector('.five').cloneNode(true)).style.transform = 'translateX(-' + digitOffset + 'px)';
                break;
              case '6':
                line.appendChild(digitsGroup.querySelector('.six').cloneNode(true)).style.transform = 'translateX(-' + digitOffset + 'px)';
                break;
              case '7':
                line.appendChild(digitsGroup.querySelector('.seven').cloneNode(true)).style.transform = 'translateX(-' + digitOffset + 'px)';
                break;
              case '8':
                line.appendChild(digitsGroup.querySelector('.eight').cloneNode(true)).style.transform = 'translateX(-' + digitOffset + 'px)';
                break;
              case '9':
                line.appendChild(digitsGroup.querySelector('.nine').cloneNode(true)).style.transform = 'translateX(-' + digitOffset + 'px)';
                break;
            }

            digitOffset -= 4;
          }
        }

      })
      .catch(error => {
        console.error('Failed to fetch:', error);
      });
      
    let babyGhost = gwRoot.querySelector('.baby-ghost');
    let babyGhostBody = babyGhost.querySelector('.baby-ghost-body');
    let babyGhostAnimating = false;

    babyGhostBody.addEventListener('click', () => {
      if (babyGhostAnimating == false) {
        babyGhostAnimating = true;
        gwRoot.classList.add('deal-with-it');

        setTimeout(() => {
          babyGhostAnimating = false;
          gwRoot.classList.remove('deal-with-it');
        }, 10000);
      }
    });
      
  }

]]></script>

</svg>