<svg id="gw2442" xmlns="http://www.w3.org/2000/svg" viewBox="0 0 89 89">

<style><![CDATA[

  #gw2442 {
    overflow: hidden;
    outline: none;
    box-shadow: none;
    height: 100%;
  }

  @media (min-aspect-ratio: 1/1) {
    #gw2442 {
      height: 100%;
      width: auto;
      margin: 0 auto;
    }
  }

  #gw2442 .tickers path:nth-child(2) {
    transform: translateY(10px);
  }

  #gw2442 .tickers path:nth-child(3) {
    transform: translateY(20px);
  }

]]></style>

<path class="background" fill="#3F3542" d="M0 0h89v89H0z"/>

<a href="https://ipfs.io/ipfs/QmVfNMkE3Sk9WGAhEMYtvUxeebadF6cC3XambQoZRNnRa1?filename=gw2442.html" target="_blank">
  <path class="title" fill="#FFF" d="M64 10v2h-1v-2h-1v5h1v-2h1v2h1v-5zm-4 5h1v-1h-2v1zm-2-3v2h1v-3h-1zm1-2v1h2v-1h-1zm-4 0h-1v1h1v4h1v-4h1v-1h-1zm-3 2h-1v-1h-1v4h1v-2h1v2h1v-4h-1zm-1-2h1v1h-1zm-3 1v3h1v-4h-1zm-1 3h1v1h-1zm-1-1h1v1h-1zm-1 0v-3h-1v5h2v-1h-1zm-3-3h-2v1h1v4h1v-4h1v-1zm-6 4v1h2v-1h-1zm2-1h1v1h-1zm-1-1h1v1h-1zm-1-1h1v1h-1zm1-1v1h2v-1h-1zm-4 0h1v1h-1zm1 2v2h1v-3h-1zm-1 2h1v1h-1zm0-2v-1h-1v3h1v-1zm-3-1v1h-1v-2h-1v5h1v-2h1v2h1v-5h-1zm-5 1v1h1v1h-2v1h3v-3h-1zm1-1v-1h-2v1h1zm-2 1v-1h-1v3h1v-1z"/>
</a>

<g class="tickers" fill="#FFF">
  <path d="M19 22h-1v-1h-1v4h1v-2h1v2h1v-4h-1zm-1-2h1v1h-1zm-3 2v2h1v-3h-1zm-1 1v-2h1v-1h-2v5h2v-1h-1zm-3-1h-1v-1H9v4h1v-2h1v2h1v-4h-1zm-1-2h1v1h-1z"/>
  <path d="M19 25h1v-1h-2v1zm-1-5v1h2v-1h-1zm-1 2v2h1v-3h-1zm-3-2h-1v1h1v4h1v-4h1v-1h-1zm-3 3h1v1h-1zm0-2h1v1h-1zm-1 0h1v-1H9v5h2v-1h-1v-1h1v-1h-1z"/>
  <path d="M22 21v1h1v1h-1v1h1v1h-2v-5h2v1h-1zm-4 1v-1h-1v3h1v-1h1v1h-1v1h2v-3h-2zm1-2h-1v1h1v-1zm-4 2v2h1v-3h-1v1zm-1 3h1v-1h-1v1zm1-5h-1v1h1v-1zm-1 2v-1h-1v3h1v-2zm-3 0v2h1v-3h-1v1zm-1 1v-2h1v-1H9v5h2v-1h-1v-1z"/>
</g>

<g class="digits" fill="#FFF" style="display: none;">
  <path class="zero" d="M79 20h-2v5h3v-5h-1zm0 2v2h-1v-3h1v1z"/>
  <path class="one" d="M80 24v1h-3v-1h1v-2h-1v-1h1v-1h1v4h1z"/>
  <path class="two" d="M80 22h-1v-1h1v1zm-1 3h1v-1h-2v1h1zm0-3h-1v1h1v-1zm-1-2h-1v1h2v-1h-1zm-1 3v1h1v-1h-1z"/>
  <path class="three" d="M79 24v-1h1v1h-1zm1-3h-1v1h1v-1zm-2 1v1h1v-1h-1zm0-2h-1v1h2v-1h-1zm-1 4v1h2v-1h-2z"/>
  <path class="four" d="M80 21v4h-1v-2h-2v-3h1v2h1v-1h1z"/>
  <path class="five" d="M79 24v-1h1v1h-1zm0-3h1v-1h-3v3h2v-1h-1v-1h1zm-2 3v1h2v-1h-2z"/>
  <path class="six" d="M79 21h-1v-1h2v1h-1zm-2 0v3h1v-1h1v1h-1v1h2v-3h-2v-1h-1z"/>
  <path class="seven" d="M80 20v5h-1v-4h-2v-1h3z"/>
  <path class="eight" d="M79 20h-2v5h3v-5h-1zm0 4h-1v-1h1v1zm0-2h-1v-1h1v1z"/>
  <path class="nine" d="M79 20h-2v3h2v2h1v-5h-1zm0 2h-1v-1h1v1z"/>
  <path class="decimal" d="M71 24h1v1h-1z"/>
</g>

<g class="prices" fill="#FFF">
  <g class="line-0"></g>
  <g class="line-1"></g>
  <g class="line-2"></g>
</g>

<g class="chain" fill="#FFF"><path d="M10 3v2h3V3h1V2h-1V0h-3v2H9v1h1zm1 0V1h1v3h-1V3zM8 3h1v1H8zm0-2h1v1H8zm14 2v2h3V3h1V2h-1V0h-3v2h-1v1h1zm1 0V1h1v3h-1V3zm-3 0h1v1h-1zm0-2h1v1h-1zm-4 2v2h3V3h1V2h-1V0h-3v2h-1v1h1zm1 0V1h1v3h-1V3zm-3 0h1v1h-1zm0-2h1v1h-1zm20 2v2h3V3h1V2h-1V0h-3v2h-1v1h1zm1 0V1h1v3h-1V3zm-3 0h1v1h-1zm0-2h1v1h-1zm-4 2v2h3V3h1V2h-1V0h-3v2h-1v1h1zm1 0V1h1v3h-1V3zm-3 0h1v1h-1zm0-2h1v1h-1zm20 2v2h3V3h1V2h-1V0h-3v2h-1v1h1zm1 0V1h1v3h-1V3zm-3 0h1v1h-1zm0-2h1v1h-1zm-4 2v2h3V3h1V2h-1V0h-3v2h-1v1h1zm1 0V1h1v3h-1V3zm-3 0h1v1h-1zm0-2h1v1h-1zm20 2v2h3V3h1V2h-1V0h-3v2h-1v1h1zm1 0V1h1v3h-1V3zm-3 0h1v1h-1zm0-2h1v1h-1zm-4 2v2h3V3h1V2h-1V0h-3v2h-1v1h1zm1 0V1h1v3h-1V3zm-3 0h1v1h-1zm0-2h1v1h-1zm20 2v2h3V3h1V2h-1V0h-3v2h-1v1h1zm1 0V1h1v3h-1V3zm-3 0h1v1h-1zm0-2h1v1h-1zm-4 2v2h3V3h1V2h-1V0h-3v2h-1v1h1zm1 0V1h1v3h-1V3zm-3 0h1v1h-1zm0-2h1v1h-1zm18 2h1v1h-1zm0-2h1v1h-1zm-4 2v2h3V3h1V2h-1V0h-3v2h-1v1h1zm1 0V1h1v3h-1V3zm-3 0h1v1h-1zm0-2h1v1h-1zm13 79h1v1h-1zm-2 0h1v1h-1zm1 2h-2v2h-2v2h-1v1h1v2h3v-2h1v1h1v-1h1v-1h-1v-1h2v-3h-2v-1h-1v1zm-2 4v2h-1v-3h1v1zm3 1h-1v-1h1v1zm-2-1v-1h1v1h-1zm3-3v1h-3v-1h3zm-1-15h1v1h-1zm-2 0h1v1h-1zm1 2h-2v3h2v1h1v-1h2v-3h-2v-1h-1v1zm2 1v1h-3v-1h3zm-1 3h1v1h-1zm-1 2h-2v3h2v1h1v-1h2v-3h-2v-1h-1v1zm2 1v1h-3v-1h3zm-3-3h1v1h-1zm2-18h1v1h-1zm-2 0h1v1h-1zm1 2h-2v3h2v1h1v-1h2v-3h-2v-1h-1v1zm2 1v1h-3v-1h3zm-1 3h1v1h-1zm-1 2h-2v3h2v1h1v-1h2v-3h-2v-1h-1v1zm2 1v1h-3v-1h3zm-3-3h1v1h-1zm2-18h1v1h-1zm-2 0h1v1h-1zm1 2h-2v3h2v1h1v-1h2v-3h-2v-1h-1v1zm2 1v1h-3v-1h3zm-1 3h1v1h-1zm-1 2h-2v3h2v1h1v-1h2v-3h-2v-1h-1v1zm2 1v1h-3v-1h3zm-3-3h1v1h-1zm2-18h1v1h-1zm-2 0h1v1h-1zm1 2h-2v3h2v1h1v-1h2v-3h-2v-1h-1v1zm2 1v1h-3v-1h3zm-1 3h1v1h-1zm-1 2h-2v3h2v1h1v-1h2v-3h-2v-1h-1v1zm2 1v1h-3v-1h3zm-3-3h1v1h-1zm2-18h1v1h-1zm-2 0h1v1h-1zm1 2h-2v3h2v1h1v-1h2v-3h-2v-1h-1v1zm2 1v1h-3v-1h3zm-1 3h1v1h-1zm-1 2h-2v3h2v1h1v-1h2v-3h-2v-1h-1v1zm2 1v1h-3v-1h3zm-3-3h1v1h-1zm1-25h1v1h-1zm1 1h1v1h-1z"/><path d="M88 4h-1V3h-1v1h-1V3h1V2h-1V0h-3v2h-1v1h1v2h2v2h2v1h1V7h2V4h-1zm-5 0V1h1v3h-1zm5 2h-3V5h3v1zm-1 2h1v1h-1zm-2 0h1v1h-1zm1 2h-2v3h2v1h1v-1h2v-3h-2V9h-1v1zm2 1v1h-3v-1h3zm-1 3h1v1h-1zm-1 2h-2v3h2v1h1v-1h2v-3h-2v-1h-1v1zm2 1v1h-3v-1h3zm-3-3h1v1h-1zm-6 72v-2h-3v2h-1v1h1v2h3v-2h1v-1h-1zm-1 0v2h-1v-3h1v1zm2-1h1v1h-1zm0 2h1v1h-1zm-13-1v-2h-3v2h-1v1h1v2h3v-2h1v-1h-1zm-1 0v2h-1v-3h1v1zm2-1h1v1h-1zm0 2h1v1h-1zm5-1v-2h-3v2h-1v1h1v2h3v-2h1v-1h-1zm-1 0v2h-1v-3h1v1zm2-1h1v1h-1zm0 2h1v1h-1zm-19-1v-2h-3v2h-1v1h1v2h3v-2h1v-1h-1zm-1 0v2h-1v-3h1v1zm2-1h1v1h-1zm0 2h1v1h-1zm5-1v-2h-3v2h-1v1h1v2h3v-2h1v-1h-1zm-1 0v2h-1v-3h1v1zm2-1h1v1h-1zm0 2h1v1h-1zm-19-1v-2h-3v2h-1v1h1v2h3v-2h1v-1h-1zm-1 0v2h-1v-3h1v1zm2-1h1v1h-1zm0 2h1v1h-1zm5-1v-2h-3v2h-1v1h1v2h3v-2h1v-1h-1zm-1 0v2h-1v-3h1v1zm2-1h1v1h-1zm0 2h1v1h-1zm-19-1v-2h-3v2h-1v1h1v2h3v-2h1v-1h-1zm-1 0v2h-1v-3h1v1zm2-1h1v1h-1zm0 2h1v1h-1zm5-1v-2h-3v2h-1v1h1v2h3v-2h1v-1h-1zm-1 0v2h-1v-3h1v1zm2-1h1v1h-1zm0 2h1v1h-1zm-19-1v-2h-3v2h-1v1h1v2h3v-2h1v-1h-1zm-1 0v2h-1v-3h1v1zm2-1h1v1h-1zm0 2h1v1h-1zm5-1v-2h-3v2h-1v1h1v2h3v-2h1v-1h-1zm-1 0v2h-1v-3h1v1zm2-1h1v1h-1zm0 2h1v1h-1zM7 86v-2H5v-2H3v-1H2v1H0v3h2v1h1v-1h1v1H3v1h1v2h3v-2h1v-1H7zm-4-2H1v-1h3v1H3zm3 2v2H5v-3h1v1zm2-1h1v1H8zm0 2h1v1H8zm5-1v-2h-3v2H9v1h1v2h3v-2h1v-1h-1zm-1 0v2h-1v-3h1v1zm2-1h1v1h-1zm0 2h1v1h-1zM3 79h2v-3H3v-1H2v1H0v3h2v1h1v-1zm-2-1v-1h3v1H1zm2 2h1v1H3zm-2 0h1v1H1z"/><path d="M2 87h1v1H2zm-1-1h1v1H1zm2-19h2v-3H3v-1H2v1H0v3h2v1h1v-1zm-2-1v-1h3v1H1zm2 2h1v1H3zm-2 0h1v1H1zm2 5h2v-3H3v-1H2v1H0v3h2v1h1v-1zm-2-1v-1h3v1H1zm2 2h1v1H3zm-2 0h1v1H1zm2-19h2v-3H3v-1H2v1H0v3h2v1h1v-1zm-2-1v-1h3v1H1zm2 2h1v1H3zm-2 0h1v1H1zm2 5h2v-3H3v-1H2v1H0v3h2v1h1v-1zm-2-1v-1h3v1H1zm2 2h1v1H3zm-2 0h1v1H1zm2-19h2v-3H3v-1H2v1H0v3h2v1h1v-1zm-2-1v-1h3v1H1zm2 2h1v1H3zm-2 0h1v1H1zm2 5h2v-3H3v-1H2v1H0v3h2v1h1v-1zm-2-1v-1h3v1H1zm2 2h1v1H3zm-2 0h1v1H1zm2-19h2v-3H3v-1H2v1H0v3h2v1h1v-1zm-2-1v-1h3v1H1zm2 2h1v1H3zm-2 0h1v1H1zm2 5h2v-3H3v-1H2v1H0v3h2v1h1v-1zm-2-1v-1h3v1H1zm2 2h1v1H3zm-2 0h1v1H1zm2-19h2v-3H3v-1H2v1H0v3h2v1h1v-1zm-2-1v-1h3v1H1zm2 2h1v1H3zm-2 0h1v1H1zm2 5h2v-3H3v-1H2v1H0v3h2v1h1v-1zm-2-1v-1h3v1H1zm2 2h1v1H3zm-2 0h1v1H1zM2 1h1v1H2zM1 2h1v1H1z"/><path d="M3 7h2V5h2V3h1V2H7V0H4v2H3v1h1v1H3V3H2v1H0v3h2v1h1V7zm2-4V1h1v3H5V3zM1 6V5h3v1H1zm2 2h1v1H3zM1 8h1v1H1zm2 5h2v-3H3V9H2v1H0v3h2v1h1v-1zm-2-1v-1h3v1H1zm2 2h1v1H3zm-2 0h1v1H1z"/></g>

<script type='text/javascript'><![CDATA[

  const gw2442Root = document.getElementById('gw2442');

  if (gw2442Root) {
    const gwRoot = gw2442Root;

    const getPrice = (data, ticker) => {
      return data[ticker];
    }

    fetch('https://www.clumsyghosts.com/json/prices.json')
      .then(response => response.json())
      .then(json => {

        console.log('Last updated: ' + json.updated);

        const tickers = ['ADA', 'BTC', 'DOGE'];
        
        const prices = [
          getPrice(json.prices, tickers[0]),
          getPrice(json.prices, tickers[1]),
          getPrice(json.prices, tickers[2]),
        ];

        const digitsGroup = gwRoot.querySelector('.digits');
        const pricesGroup = gwRoot.querySelector('.prices');
        let lineOffset = 0;

        for (let i=0; i<3; i++) {
          const line = pricesGroup.querySelector('.line-' + i);
          line.style.transform = 'translateY(' + lineOffset + 'px)';
          lineOffset += 10;

          const digits = String(prices[i]);
          const numDigits = digits.length;

          let digitOffset = 4 * numDigits - 6;

          for (let j = 0; j < numDigits; j++) {
            const digit = digits.charAt(j);

            switch (digit) {
              case '.':
                line.appendChild(digitsGroup.querySelector('.decimal').cloneNode(true)).style.transform = 'translateX(-' + (digitOffset - 6) + 'px)';
                digitOffset += 2;
                break;
              case '0':
                line.appendChild(digitsGroup.querySelector('.zero').cloneNode(true)).style.transform = 'translateX(-' + digitOffset + 'px)';
                break;
              case '1':
                line.appendChild(digitsGroup.querySelector('.one').cloneNode(true)).style.transform = 'translateX(-' + digitOffset + 'px)';
                break;
              case '2':
                line.appendChild(digitsGroup.querySelector('.two').cloneNode(true)).style.transform = 'translateX(-' + digitOffset + 'px)';
                break;
              case '3':
                line.appendChild(digitsGroup.querySelector('.three').cloneNode(true)).style.transform = 'translateX(-' + digitOffset + 'px)';
                break;
              case '4':
                line.appendChild(digitsGroup.querySelector('.four').cloneNode(true)).style.transform = 'translateX(-' + digitOffset + 'px)';
                break;
              case '5':
                line.appendChild(digitsGroup.querySelector('.five').cloneNode(true)).style.transform = 'translateX(-' + digitOffset + 'px)';
                break;
              case '6':
                line.appendChild(digitsGroup.querySelector('.six').cloneNode(true)).style.transform = 'translateX(-' + digitOffset + 'px)';
                break;
              case '7':
                line.appendChild(digitsGroup.querySelector('.seven').cloneNode(true)).style.transform = 'translateX(-' + digitOffset + 'px)';
                break;
              case '8':
                line.appendChild(digitsGroup.querySelector('.eight').cloneNode(true)).style.transform = 'translateX(-' + digitOffset + 'px)';
                break;
              case '9':
                line.appendChild(digitsGroup.querySelector('.nine').cloneNode(true)).style.transform = 'translateX(-' + digitOffset + 'px)';
                break;
            }

            digitOffset -= 4;
          }
        }

      })
      .catch(error => {
        console.error('Failed to fetch:', error);
      });
      
  }

]]></script>

</svg>